<svg version="1.1" xmlns="http://www.w3.org/2000/svg" xmlns:xlink="http://www.w3.org/1999/xlink" width="37.32008" height="80.2045" viewBox="0,0,37.32008,80.2045"><g transform="translate(-202.22309,-126.46047)"><g data-paper-data="{&quot;isPaintingLayer&quot;:true}" fill-rule="nonzero" stroke="none" stroke-width="1" stroke-linecap="butt" stroke-linejoin="miter" stroke-miterlimit="10" stroke-dasharray="" stroke-dashoffset="0" style="mix-blend-mode: normal"><path d="M205.56978,133.84408c0.02552,-1.49978 0.69919,-2.88852 1.82852,-3.76943c2.0696,-1.56501 5.82043,-3.70149 11.11201,-3.61143l6.59127,0.11218c5.47725,0.09322 9.06037,2.35452 10.98438,3.88748c1.00587,0.91725 1.63188,2.3281 1.60636,3.82789l-0.01362,0.79988l-1.08059,63.4908l-0.01192,0.6999c-0.02552,1.49978 -0.69919,2.88852 -1.82852,3.76943c-2.0696,1.56501 -5.82043,3.70149 -11.11201,3.61143l-6.59127,-0.11218c-5.47725,-0.09322 -9.06037,-2.35452 -10.98268,-3.98747c-1.00587,-0.91725 -1.63188,-2.3281 -1.60636,-3.82789l1.09249,-64.1907z" fill="#060202"/><path d="M233.6624,201.93199c-2.06789,1.46502 -5.72248,3.40311 -10.17855,3.32727l-6.21993,-0.10586c-4.82741,-0.08216 -8.22826,-2.14034 -10.15227,-3.67329z" fill="#303030"/><path d="M235.66298,198.96561c0,0 -0.47174,5.89282 -7.8764,4.46662z" fill="#ffb066"/><path d="M213.11867,203.18258c-7.44891,1.17341 -7.71984,-4.73206 -7.71984,-4.73206z" fill="#ffb066"/><path d="M229.65349,202.86391c-1.77577,0.66988 -3.73382,1.13663 -6.05468,1.09713l-6.21993,-0.10586c-4.82741,-0.08216 -8.22826,-2.14034 -10.15227,-3.67329c-1.0987,-0.91883 -1.81586,-2.43125 -1.79033,-3.93104l0.01021,-0.59991l1.00911,-59.29142c0.02723,-1.59977 0.79543,-3.08691 2.01759,-3.96624c2.06789,-1.46502 5.62965,-3.40469 10.08572,-3.32885l6.21993,0.10586c4.82741,0.08216 8.22826,2.14034 10.15227,3.67329c1.0987,0.91883 1.81586,2.43125 1.79033,3.93104l-0.01021,0.59991l-1.0006,58.79149l-0.00851,0.49993c-0.02723,1.59977 -0.79543,3.08691 -2.01759,3.96624c-1.0331,0.68252 -2.3481,1.56027 -4.03104,2.23173z" fill="#00aeff"/><path d="M229.65178,202.9639c-1.77577,0.66988 -3.91948,1.13347 -6.24036,1.09397l-3.06185,-0.15213l3.24922,0.0553c2.32087,0.0395 4.37175,-0.42567 6.05468,-1.09713z" fill="#ebd019"/><path d="M222.13784,186.13359l-2.69221,-0.04582c-9.84049,-0.16748 -11.96813,-6.10455 -11.96813,-6.10455l0.64495,-37.89451c0.0017,-0.09999 0.00511,-0.29996 0.09964,-0.39837l-0.09114,-0.10156c0.09454,-0.09841 0.18907,-0.19681 0.18907,-0.19681c0.19248,-0.39678 0.56893,-0.69042 1.0382,-0.98248c1.88222,-1.46819 5.15527,-2.81268 10.63252,-2.71946l3.15639,0.05372c5.57009,0.0948 8.79378,1.64989 10.53382,3.0797c0.46077,0.20787 0.8253,0.61413 1.00417,1.01724c0.09114,0.10156 0.18226,0.20313 0.18226,0.20313l-0.09454,0.09841c-0.0017,0.09999 0.08773,0.30153 0.08603,0.40152l-0.64495,37.89451c0.09284,0.00158 -2.2356,5.8628 -12.07609,5.69533z" fill="#00aeff"/><path d="M208.7738,180.20532l2.77465,-10.25427c0.09794,-0.29838 1.03139,-0.58253 2.14541,-0.56358l14.57507,0.24806c1.11402,0.01896 2.03726,0.33472 2.12499,0.63625l2.4241,10.34275c-1.41464,1.27612 -4.99002,4.01567 -10.19897,4.5271c-7.4404,0.67348 -12.65541,-3.91593 -13.84524,-4.93632z" fill="#303030"/><path d="M219.97373,138.68989c6.41411,-0.3909 11.10104,2.48927 12.84618,3.61913l-2.87864,5.4518c-0.09624,0.19839 -0.93345,0.28415 -1.95464,0.26677l-13.18254,-0.22436c-1.02118,-0.01738 -1.85499,-0.13158 -1.94443,-0.33313l-2.69145,-5.5466c1.78428,-1.1698 5.15867,-3.01265 9.80552,-3.2336z" fill="#303030"/><path d="M234.21393,180.43826l0.04424,-2.59963l3.91267,-0.73352c0.74608,-0.18733 1.38571,0.42364 1.37211,1.22352v0c-0.01021,0.59991 -0.29552,0.99512 -0.7631,1.18719c-1.86861,0.6683 -4.47309,0.92402 -4.47309,0.92402z" fill="#060202"/><path d="M207.38468,179.98164c0,0 -2.59427,-0.3442 -4.43905,-1.0757c-0.46077,-0.20787 -0.73247,-0.61256 -0.72226,-1.21247v0c0.01362,-0.79988 0.67367,-1.38873 1.41294,-1.17613l3.88545,0.86625l-0.04424,2.59963z" fill="#060202"/><path d="M233.48317,179.72572l-2.41899,-10.6427l0.15485,-9.09868l2.1352,0.03634z" fill="#303030"/><path d="M209.03151,159.60672l2.1352,0.03634l-0.15485,9.09868l-2.77975,10.55422z" fill="#303030"/><path d="M233.37975,158.52089l-2.1352,-0.03634l0.16166,-9.49862l2.70488,-6.15487z" fill="#303030"/><path d="M208.86003,142.40131l2.49387,6.24335l-0.16166,9.49862l-2.1352,-0.03634z" fill="#303030"/><path d="M232.29677,129.39825l0.02042,-1.19983c0.2785,0.00474 1.30309,-0.17785 2.31236,0.53943c0.73417,0.51257 1.00076,1.21721 1.08849,1.51874c-0.29042,0.69516 -0.85593,1.18561 -1.59862,1.17297v0c-1.02118,-0.01738 -1.83968,-1.03145 -1.82266,-2.03131z" fill="#ffb066"/><path d="M209.33082,131.10768v0c-0.74268,-0.01264 -1.29118,-0.52205 -1.65061,-1.22826c0.09794,-0.29838 0.38836,-0.99354 1.13954,-1.48083c1.0331,-0.68252 2.05257,-0.56515 2.32938,-0.46043l-0.02042,1.19983c-0.01701,0.99986 -0.86955,1.98549 -1.79789,1.96969z" fill="#ffb066"/><path d="M215.97655,128.02033c0.00511,-0.29996 0.19418,-0.49677 0.47268,-0.49203c2.04576,-0.16521 4.18268,-0.22886 6.31787,-0.19252c1.76216,0.13001 3.52432,0.26002 5.28308,0.58999c0.2785,0.00474 0.45906,0.30786 0.36113,0.60623c-0.00511,0.29996 -0.28702,0.49519 -0.56382,0.39046c-1.66592,-0.32839 -3.42808,-0.4584 -5.19024,-0.58841c-2.04067,-0.13475 -4.08473,-0.06952 -6.13221,0.19567c-0.28021,0.09525 -0.55531,-0.10946 -0.5485,-0.50941c-0.0017,0.09999 -0.0017,0.09999 0,0z" fill="#fab915"/></g></g></svg>