<svg version="1.1" xmlns="http://www.w3.org/2000/svg" xmlns:xlink="http://www.w3.org/1999/xlink" width="37.314" height="77.5307" viewBox="0,0,37.314,77.5307"><g transform="translate(-202.13925,-126.43644)"><g data-paper-data="{&quot;isPaintingLayer&quot;:true}" fill-rule="nonzero" stroke="none" stroke-width="1" stroke-linecap="butt" stroke-linejoin="miter" stroke-miterlimit="10" stroke-dasharray="" stroke-dashoffset="0" style="mix-blend-mode: normal"><path d="M233.39745,199.31497c-2.08013,1.44758 -5.7509,3.35487 -10.20617,3.24156l-6.21882,-0.15816c-4.82655,-0.12276 -8.20997,-2.20945 -10.12102,-3.75854z" fill="#303030"/><path d="M229.3783,200.31311c-1.78134,0.65492 -3.92887,1.10047 -6.24934,1.04145l-3.06046,-0.17787l3.24864,0.08262c2.32045,0.05902 4.37517,-0.38889 6.0637,-1.04617z" fill="#ebd019"/><path d="M205.81877,133.4569c0.0369,-1.44856 0.72107,-2.78405 1.85703,-3.62491c2.08137,-1.49328 5.84823,-3.52357 11.13887,-3.38922l6.5901,0.16733c5.47628,0.13905 9.04207,2.35552 10.95435,3.85357c0.99886,0.89506 1.61414,2.26354 1.57724,3.7121l-0.01968,0.77257l-1.56225,61.32234l-0.01723,0.67599c-0.0369,1.44856 -0.72107,2.78405 -1.85703,3.62491c-2.08137,1.49328 -5.84823,3.52357 -11.13887,3.38922l-6.5901,-0.16733c-5.47628,-0.13905 -9.04207,-2.35552 -10.9519,-3.95014c-0.99886,-0.89506 -1.61414,-2.26354 -1.57724,-3.7121l1.57947,-61.99833z" fill="#060202"/><path d="M235.41643,196.63339c0,0 -0.51643,5.68824 -7.90991,4.24428z" fill="#ffb066"/><path d="M212.84122,200.5053c-7.45745,1.06687 -7.68357,-4.64022 -7.68357,-4.64022z" fill="#ffb066"/><path d="M229.37765,200.34539c-1.78077,0.63121 -3.74226,1.06458 -6.06271,1.00566l-6.21883,-0.15791c-4.82656,-0.12256 -8.21162,-2.14117 -10.12391,-3.63922c-1.09168,-0.89741 -1.79732,-2.36483 -1.76041,-3.81339l0.01476,-0.57942l1.45892,-57.26638c0.03937,-1.54513 0.81882,-2.97484 2.04759,-3.81333c2.0789,-1.39671 5.65521,-3.23856 10.11049,-3.12544l6.21883,0.15791c4.82656,0.12256 8.21162,2.14117 10.12391,3.63922c1.09168,0.89741 1.79732,2.36483 1.76041,3.81339l-0.01476,0.57942l-1.44662,56.78352l-0.0123,0.48285c-0.03937,1.54513 -0.81882,2.97484 -2.04759,3.81333c-1.03823,0.65007 -2.35982,1.48621 -4.04778,2.11979z" fill="#ffde00"/><path d="M221.9893,184.11669l-2.69173,-0.06834c-9.83875,-0.24982 -11.92123,-6.00405 -11.92123,-6.00405l0.93243,-36.60026c0.00246,-0.09657 0.00738,-0.28971 0.10266,-0.38393l-0.09036,-0.09892c0.09528,-0.09422 0.19056,-0.18843 0.19056,-0.18843c0.19548,-0.38157 0.57414,-0.66186 1.0456,-0.93978c1.89327,-1.40143 5.17636,-2.67092 10.65264,-2.53187l3.15583,0.08013c5.5691,0.1414 8.78084,1.67246 10.50995,3.06922c0.45917,0.20493 0.8206,0.60063 0.9964,0.99163c0.09036,0.09892 0.18071,0.19786 0.18071,0.19786l-0.09528,0.09422c-0.00246,0.09657 0.08544,0.29207 0.08298,0.38864l-0.93243,36.60026c0.09282,0.00235 -2.27997,5.64346 -12.11872,5.39365z" fill="#ffde00"/><path d="M208.67088,178.27044l2.85232,-9.88078c0.1002,-0.28736 1.03576,-0.5535 2.14958,-0.52522l14.57248,0.37002c1.11382,0.02828 2.03462,0.34156 2.12006,0.63363l2.34551,10.01276c-1.42426,1.22007 -5.02024,3.83449 -10.23283,4.28193c-7.44515,0.58402 -12.62509,-3.896 -13.80712,-4.89234z" fill="#303030"/><path d="M220.18526,138.2668c6.41677,-0.32023 11.08162,2.50394 12.8181,3.61099l-2.91986,5.24068c-0.09774,0.19079 -0.93557,0.26614 -1.95657,0.24021l-13.1802,-0.33467c-1.021,-0.02593 -1.85391,-0.14371 -1.94181,-0.3392l-2.64924,-5.38208c1.79307,-1.11407 5.18127,-2.86406 9.82957,-3.03594z" fill="#303030"/><path d="M234.10802,178.72305l0.06397,-2.51084l3.91805,-0.67358c0.74747,-0.17429 1.38243,0.42163 1.36276,1.1942v0c-0.01476,0.57942 -0.30306,0.95864 -0.77207,1.13999c-1.87359,0.62886 -4.47989,0.85258 -4.47989,0.85258z" fill="#060202"/><path d="M207.28353,178.04194c0,0 -2.59153,-0.3557 -4.43068,-1.07883c-0.45917,-0.20493 -0.72778,-0.59828 -0.71303,-1.1777v0c0.01968,-0.77257 0.68417,-1.33549 1.4218,-1.1235l3.87869,0.87155l-0.06397,2.51084z" fill="#060202"/><path d="M233.38269,178.0282l-2.33812,-10.30247l0.22388,-8.78792l2.13482,0.0542z" fill="#303030"/><path d="M209.08486,158.37453l2.13482,0.0542l-0.22388,8.78792l-2.85969,10.17049z" fill="#303030"/><path d="M233.44017,157.54344l-2.13482,-0.0542l0.23372,-9.17421l2.75145,-5.92139z" fill="#303030"/><path d="M209.04394,141.7526l2.44638,6.05337l-0.23372,9.17421l-2.13482,-0.0542z" fill="#303030"/><path d="M232.57819,129.40133l0.02953,-1.15885c0.27845,0.00707 1.30438,-0.16015 2.30815,0.54177c0.73024,0.50171 0.99148,1.18477 1.07691,1.47684c-0.29568,0.66893 -0.86489,1.13764 -1.60744,1.11878v0c-1.021,-0.02593 -1.83176,-1.01284 -1.80716,-1.97855z" fill="#ffb066"/><path d="M209.60039,130.84719v0c-0.74255,-0.01886 -1.28715,-0.51585 -1.64121,-1.20127c0.1002,-0.28736 0.39588,-0.95628 1.15072,-1.42028c1.03823,-0.65007 2.05676,-0.52757 2.33276,-0.42393l-0.02953,1.15885c-0.0246,0.96571 -0.88457,1.9102 -1.81275,1.88663z" fill="#ffb066"/><path d="M226.75956,202.35166c-0.00037,0.28981 -0.18631,0.48279 -0.46485,0.48246c-2.0429,0.19079 -4.17854,0.28487 -6.31404,0.28235c-1.76399,-0.09869 -3.52799,-0.19738 -5.29174,-0.48926c-0.27854,-0.00033 -0.46387,-0.29036 -0.37066,-0.58005c0.00037,-0.28981 0.27916,-0.48268 0.55758,-0.38575c1.6709,0.29178 3.43489,0.39047 5.19889,0.48915c2.04254,0.09902 4.08532,0.00483 6.12835,-0.28256c0.27867,-0.09627 0.55697,0.09726 0.55648,0.48367c0.00012,-0.0966 0.00012,-0.0966 0,0z" fill="#fab915"/></g></g></svg>