<svg version="1.1" xmlns="http://www.w3.org/2000/svg" xmlns:xlink="http://www.w3.org/1999/xlink" width="37.32497" height="80.10792" viewBox="0,0,37.32497,80.10792"><g transform="translate(-202.40152,-126.50854)"><g data-paper-data="{&quot;isPaintingLayer&quot;:true}" fill-rule="nonzero" stroke="none" stroke-width="1" stroke-linecap="butt" stroke-linejoin="miter" stroke-miterlimit="10" stroke-dasharray="" stroke-dashoffset="0" style="mix-blend-mode: normal"><path d="M237.07305,199.03212c-0.00183,1.5 -0.65348,2.8992 -1.76876,3.79784c-2.04462,1.5975 -5.76124,3.79296 -11.05358,3.78648l-6.59222,-0.00806c-5.47804,-0.0067 -9.09643,-2.21113 -11.04441,-3.71351c-1.02023,-0.90125 -1.66845,-2.30204 -1.66662,-3.80204l0.00098,-0.8l0.07767,-63.49995l0.00086,-0.7c0.00183,-1.5 0.65348,-2.8992 1.76876,-3.79784c2.04462,-1.5975 5.76124,-3.79296 11.05358,-3.78648l6.59222,0.00806c5.47804,0.0067 9.09643,2.21113 11.04429,3.81351c1.02023,0.90125 1.66845,2.30204 1.66662,3.80204l-0.07852,64.19995z" fill="#060202"/><path d="M207.90855,131.3964c2.04449,-1.4975 5.66802,-3.49307 10.12473,-3.48762l6.22083,0.00761c4.82811,0.00591 8.26104,2.01011 10.20902,3.51249z" fill="#303030"/><path d="M205.95507,134.39401c0,0 0.37861,-5.89954 7.80487,-4.59046z" fill="#ffb066"/><path d="M228.42996,129.8215c7.42945,-1.29091 7.79362,4.60954 7.79362,4.60954z" fill="#ffb066"/><path d="M211.90224,130.40128c1.76497,-0.69784 3.7154,-1.19546 6.0366,-1.19262l6.22083,0.00761c4.82811,0.00591 8.26104,2.01011 10.20902,3.51249c1.11308,0.90136 1.85403,2.40227 1.85219,3.90227l-0.00073,0.6l-0.07253,59.29996c-0.00196,1.6 -0.74658,3.09909 -1.9547,3.99761c-2.04449,1.4975 -5.57517,3.49318 -10.03189,3.48773l-6.22083,-0.00761c-4.82811,-0.00591 -8.26104,-2.01011 -10.20902,-3.51249c-1.11308,-0.90136 -1.85403,-2.40227 -1.85219,-3.90227l0.00073,-0.6l0.07192,-58.79996l0.00061,-0.5c0.00196,-1.6 0.74658,-3.09909 1.9547,-3.99761c1.02219,-0.69875 2.32316,-1.59716 3.99529,-2.29512z" fill="#ff6666"/><path d="M211.90237,130.30128c1.76497,-0.69784 3.90109,-1.19523 6.2223,-1.19239l3.06387,0.10375l-3.24969,-0.00397c-2.3212,-0.00284 -4.36448,0.49466 -6.0366,1.19262z" fill="#ebd019"/><path d="M219.68119,147.01081l2.6926,0.00329c9.84191,0.01204 12.06305,5.91476 12.06305,5.91476l-0.04636,37.89997c-0.00012,0.1 -0.00037,0.3 -0.09334,0.39989l0.09273,0.10011c-0.09297,0.09989 -0.18594,0.19977 -0.18594,0.19977c-0.18619,0.39977 -0.55795,0.69932 -1.02255,0.99875c-1.8588,1.49773 -5.1102,2.89375 -10.58824,2.88705l-3.15684,-0.00386c-5.57089,-0.00681 -8.81874,-1.51079 -10.58115,-2.91294c-0.464,-0.20057 -0.8349,-0.60102 -1.02011,-1.00125c-0.09273,-0.10011 -0.18545,-0.20023 -0.18545,-0.20023l0.09297,-0.09989c0.00012,-0.1 -0.09248,-0.30011 -0.09236,-0.40011l0.04636,-37.89997c-0.09285,-0.00011 2.14272,-5.89738 11.98463,-5.88535z" fill="#ff6666"/><path d="M233.1372,152.72727l-2.61235,10.29681c-0.09322,0.29989 -1.02206,0.59875 -2.13624,0.59739l-14.57717,-0.01783c-1.11418,-0.00136 -2.04229,-0.3025 -2.13477,-0.60261l-2.58715,-10.30317c1.39431,-1.2983 4.92597,-4.09398 10.1262,-4.68762c7.42883,-0.79091 12.71568,3.71556 13.92148,4.71703z" fill="#303030"/><path d="M222.59436,194.41441c-6.40714,0.49216 -11.13897,-2.31363 -12.90174,-3.41578l2.79217,-5.49659c0.09309,-0.19989 0.92885,-0.29886 1.95018,-0.29761l13.18444,0.01613c1.02133,0.00125 1.85684,0.10227 1.94945,0.30238l2.77872,5.5034c-1.76558,1.19784 -5.11044,3.09375 -9.75322,3.38807z" fill="#303030"/><path d="M207.69656,152.89616l-0.00318,2.6l-3.9006,0.79523c-0.74303,0.19909 -1.39223,-0.4017 -1.39126,-1.2017v0c0.00073,-0.6 0.27977,-0.99966 0.74425,-1.19909c1.85782,-0.69773 4.45794,-0.99455 4.45794,-0.99455z" fill="#060202"/><path d="M234.52968,152.92898c0,0 2.59938,0.30318 4.45549,1.00545c0.464,0.20057 0.74205,0.60091 0.74132,1.20091v0c-0.00098,0.8 -0.65165,1.3992 -1.39419,1.1983l-3.89865,-0.80477l0.00318,-2.6z" fill="#060202"/><path d="M208.43849,153.59707l2.58678,10.60317l-0.01113,9.09999l-2.13551,-0.00261z" fill="#303030"/><path d="M233.20486,173.32737l-2.13551,-0.00261l0.01113,-9.09999l2.61271,-10.59681z" fill="#303030"/><path d="M208.8768,174.79762l2.13551,0.00261l-0.01162,9.49999l-2.60733,6.19682z" fill="#303030"/><path d="M233.64806,190.52793l-2.59217,-6.20318l0.01162,-9.49999l2.13551,0.00261z" fill="#303030"/><path d="M210.41962,203.89953l-0.00147,1.2c-0.27854,-0.00034 -1.30012,0.19841 -2.32059,-0.50284c-0.74217,-0.50091 -1.01986,-1.20125 -1.11234,-1.50136c0.2794,-0.69966 0.8371,-1.19898 1.57989,-1.19807v0c1.02133,0.00125 1.85574,1.00227 1.85452,2.00227z" fill="#ffb066"/><path d="M233.3557,201.82758v0c0.74279,0.00091 1.29926,0.50159 1.6698,1.20204c-0.09322,0.29989 -0.37262,0.99955 -1.11601,1.49864c-1.02219,0.69875 -2.04339,0.5975 -2.32182,0.49716l0.00147,-1.2c0.00122,-1 0.83808,-1.99898 1.76656,-1.99784z" fill="#ffb066"/><path d="M226.75956,205.01951c-0.00037,0.3 -0.18631,0.49977 -0.46485,0.49943c-2.0429,0.1975 -4.17854,0.29489 -6.31404,0.29228c-1.76399,-0.10216 -3.52799,-0.20432 -5.29174,-0.50647c-0.27854,-0.00034 -0.46387,-0.30057 -0.37066,-0.60045c0.00037,-0.3 0.27916,-0.49966 0.55758,-0.39932c1.6709,0.30204 3.43489,0.4042 5.19889,0.50636c2.04254,0.1025 4.08532,0.005 6.12835,-0.2925c0.27867,-0.09966 0.55697,0.10068 0.55648,0.50068c0.00012,-0.1 0.00012,-0.1 0,0z" fill="#fab915"/></g></g></svg>