<svg version="1.1" xmlns="http://www.w3.org/2000/svg" xmlns:xlink="http://www.w3.org/1999/xlink" width="976.70001" height="624.23424" viewBox="0,0,976.70001,624.23424"><g transform="translate(237.79204,134.09133)"><g data-paper-data="{&quot;isPaintingLayer&quot;:true}" fill-rule="nonzero" stroke-width="0.5" stroke-linecap="butt" stroke-linejoin="miter" stroke-miterlimit="10" stroke-dasharray="" stroke-dashoffset="0" style="mix-blend-mode: normal"><path d="" fill="#000000" stroke="#000000"/><path d="" fill="#000000" stroke="#000000"/><path d="" fill="#000000" stroke="#000000"/><path d="" fill="#000000" stroke="#000000"/><path d="" fill="#000000" stroke="#000000"/><path d="" fill="#000000" stroke="#000000"/><path d="" fill="#000000" stroke="#000000"/><path d="" fill="#000000" stroke="#000000"/><path d="" fill="#000000" stroke="#000000"/><path d="" fill="#000000" stroke="#000000"/><path d="" fill="#000000" stroke="#000000"/><path d="" fill="#000000" stroke="#000000"/><path d="" fill="#000000" stroke="#000000"/><path d="" fill="#000000" stroke="#000000"/><path d="" fill="#000000" stroke="#000000"/><path d="" fill="#000000" stroke="#000000"/><path d="" fill="#000000" stroke="#000000"/><path d="" fill="#000000" stroke="#000000"/><path d="" fill="#000000" stroke="#000000"/><path d="" fill="#000000" stroke="#000000"/><path d="" fill="#000000" stroke="#000000"/><path d="" fill="#000000" stroke="#000000"/><path d="" fill="#000000" stroke="#000000"/><path d="" fill="#000000" stroke="#000000"/><path d="" fill="#000000" stroke="#000000"/><path d="" fill="#000000" stroke="#000000"/><path d="" fill="#000000" stroke="#000000"/><path d="" fill="#000000" stroke="#000000"/><path d="" fill="#000000" stroke="none"/><path d="" fill="#000000" stroke="none"/><path d="" fill="#000000" stroke="none"/><path d="" fill="#000000" stroke="#000000"/><path d="" fill="#000000" stroke="#000000"/><path d="" fill="#000000" stroke="#000000"/><path d="" fill="#000000" stroke="#000000"/><path d="" fill="#000000" stroke="#000000"/><path d="" fill="#000000" stroke="#000000"/><path d="" fill="#000000" stroke="#000000"/><path d="" fill="#000000" stroke="#000000"/><path d="" fill="#000000" stroke="#000000"/><path d="" fill="#000000" stroke="#000000"/><path d="" fill="#000000" stroke="#000000"/><path d="" fill="#000000" stroke="#000000"/><path d="" fill="#000000" stroke="#000000"/><path d="" fill="#000000" stroke="#000000"/><path d="" fill="#000000" stroke="#000000"/><path d="" fill="#000000" stroke="#000000"/><path d="" fill="#000000" stroke="#000000"/><path d="" fill="#000000" stroke="#000000"/><path d="" fill="#000000" stroke="#000000"/><path d="" fill="#000000" stroke="#000000"/><path d="" fill="#ffffff" stroke="#000000"/><path d="" fill="#ffffff" stroke="#000000"/><path d="" fill="#ffffff" stroke="#000000"/><path d="" fill="#ffffff" stroke="#000000"/><path d="" fill="#ffffff" stroke="#000000"/><path d="" fill="#ffffff" stroke="#000000"/><path d="" fill="#ffffff" stroke="#000000"/><path d="" fill="#ffffff" stroke="#000000"/><path d="" fill="#ffffff" stroke="#000000"/><path d="" fill="#ffffff" stroke="#000000"/><path d="" fill="#ffffff" stroke="#000000"/><path d="" fill="#ffffff" stroke="#000000"/><path d="" fill="#ffffff" stroke="none"/><path d="" fill="#b9b9b9" stroke="none"/><path d="" fill="#b9b9b9" stroke="#000000"/><path d="M655.63665,450.81245l0.11616,8.10213l-6.22415,9.4972l-0.76062,0.50527l-0.95638,1.58733l-4.74245,2.19832l-1.05245,0.69913l-3.17785,1.26179l-1.3293,0.61618l-0.71875,0.02139l-5.42275,1.54936l-0.58235,0.10515l-0.55969,0.19218l-17,4l-0.53283,0.07043l-0.51535,0.1526l-21,4l-0.8582,0.0762l-0.84098,0.18726l-25,3l-0.60307,0.01192l-0.59439,0.10263l-14,1l-0.89262,-0.02532l-0.88855,0.08886h-5l-1.24556,-0.12456l-2.2483,0.45501l-5.98941,-2.49559l-3.01673,-0.95987l-0.6647,-0.57406l-0.81072,-0.3378l-2.20766,-2.26898l-4.91067,-4.24103l-0.59849,-2.21443l-0.50462,-0.79899l-1.16381,-1.03652l-0.93169,-3.66855l-0.46585,-1.22285l-0.25084,-1.59911l-0.59571,-2.3456l-31.37834,5.1081l-0.33877,0.02093l-0.33017,0.0787l-36.72399,4.9627l-18.72489,2.95656l-0.57502,0.03277l-0.56326,0.12025l-9,1l-1.38379,0.01521l-1.377,0.1377h-5l-3.90625,-0.39062l-8.59375,-2.73437l-3.35904,-2.90099l-0.05503,0.00239l-0.54389,-0.03061l-0.54204,0.0542h-22.85231l-14.52071,0.947l-0.81527,-0.02817l-0.81171,0.08117l-0.81084,0l1.53586,-0.27103l5.83134,-0.72892h4.44356l3.90625,-0.39062l0.67328,-0.21423l2.24178,-0.14159l3.06561,-1.54713l2.61308,-0.83143l1.35756,-1.17244l3.10098,-1.56498l1.19876,-2.14844l2.93644,-2.53602l0.12247,-0.45312l21.78378,0l0.32005,-0.032l0.32077,0.02379l21.89071,-0.5613l0.56222,0.17889l0.58936,0.05894l1.91935,0.48745l1.15049,-0.18047l0.24705,0.0247h44l1.03556,-0.10356l1.04058,0.0172l12,-1l0.204,-0.03771h0.20746l10,-1l1.19847,-0.24211l1.21684,-0.1193l2.57258,-0.51452h2.52451l3.83852,-0.38385l13.4498,-0.85396l5.80543,1.84718l3.90625,0.39063h4l1.03556,-0.10356l1.04058,0.0172l10.96373,-0.91364h14.96014l0.65572,-0.06557l0.65826,0.03102l19,-1l0.71922,-0.11036l0.7276,-0.008l18,-2l0.2687,-0.05736l0.27461,-0.00903l14.89844,-1.98646l7.89833,-0.98729l0.49871,-0.11363l0.5104,-0.03347l6,-1l3.219,-0.87295l0.18282,-0.02868l0.19041,-0.07254l0.19666,-0.05333l0.16472,-0.08434l3.11676,-1.18734l2,-1l0.20992,-0.13258l1.10974,-0.3531l1.49872,-1.29435l0.50078,-0.31628l0.30337,-0.29517l1.298,-0.16225l0.08183,-0.01864z" fill="#ffffff" stroke="none"/><path d="M206.06798,474.81246l-21.4327,0.97421l-0.56859,-0.03087l-0.5666,0.05666h-8l-3.90625,-0.39062l-8.59375,-2.73437l-8.59375,-7.42187l-0.12247,-0.45312h-29.12634l-37.34347,1.96545l-0.65826,-0.03102l-0.65572,0.06557h-95l-0.44549,-0.04455l-0.4468,0.02862l-12.51255,-0.44688l1.84738,-1.22719l1.13531,-0.19089l4.10335,-1.1191l74.34826,0l0.29394,0.04611l1.77027,0.56327l3.90625,0.39063h0.40454l0.993,0.15576l0.61332,-0.15576l1.94927,0l10.96373,0.91364l1.04058,-0.0172l1.03556,0.10356h19l3.90625,-0.39062l8.59375,-2.73437l7.83173,-6.76377l3.11456,-0.11123h31.55371l0.51953,-0.05195l0.52124,0.03028l24,-1l0.43619,-0.06205l0.44046,0.01009l13,-1l1.50845,-0.26895l0.48039,-0.04804l0.26887,-0.08555l1.60707,-0.28653l2.58889,-1.04855l4.12891,-1.31374l0.78178,-0.67517l0.85914,-0.34797l1.49315,-1.50433l0.54775,0.22823l1.81818,2.42424l0.04517,0.04915l0.56989,1.04401l1.40742,1.10777l0.63377,0.68969l2.56762,1.83011l2.47767,1.95016l0.83995,0.41452l1.45851,1.03958l1.16205,0.25369l0.05986,0.02954l8,3l0.44876,0.11895l0.42364,0.18991l9,3l0.06315,0.01426l-0.00455,0.02945l0.16589,0.4219l-0.02409,1.75837l2.90661,7.0589z" fill="#ffffff" stroke="none"/><path d="M-155.21701,436.71817l-0.3341,-1.4796l-0.20238,-0.3627l0.00934,-0.49215l-0.33755,-1.49486l-0.00655,-0.47803l-5.94722,-0.8496l-3.81175,-0.93913l-1.79059,-0.86484l-3.36213,-1.06977l-1.45574,-1.25723l-1.51222,-0.73039l-2.02317,-2.3229l-3.60261,-3.11135l-0.40166,-1.48616l-1.43031,-1.64221l-0.81993,-6.68371l-1.25434,-4.64105l0.47114,-1.74321l-0.21988,-1.79232l1.89808,-4.41702l1.75691,-6.50058l1.64818,-1.42343l0.6078,-1.41442l4.00642,-2.57059l2.33135,-2.01344l1.60032,-0.50919l1.61891,-1.03872l3.47962,-0.58354l1.8949,-0.60292l3.90625,-0.39062h12.65201l0.05333,-0.92188l0.08266,0.20665l1.47793,2.83763l0.07708,0.20069l0.13974,0.2156l0.11868,0.22787l0.1366,0.166l1.74016,2.68482l4,5l1.68082,1.71817l1.29361,1.66321l3.72867,2.06344l3.54582,2.36388l0.59624,0.11078l-1.65388,3.9693l0.54582,2.69701l-0.14275,0.52817l-0.9206,0.29005l-7,3l-3.43654,1.89779l-0.62312,0.53879l-0.73168,0.37845l-3.03835,2.48592l-0.5781,0.5781l-0.54383,0.32354l-0.59201,0.8123l-0.28605,0.28605l-0.34888,0.42641l-0.07975,0.06896l-0.03438,0.07054l-2.02291,2.47245l-0.85348,1.65006l-1.09417,1.5013l-1.60584,3.58227l-0.12793,0.38378l-0.46179,0.89279l-0.04618,0.63111l-0.36411,1.09232l-0.86469,3.82932l-0.05687,4.15185l-0.13415,0.66285z" fill="#ffffff" stroke="none"/><path d="M303.4109,416.48858l-0.39449,0.12552l-0.27294,-0.8578l1.35834,0.27167z" fill="#ffffff" stroke="none"/><path d="M614.38451,159.60409l1.52234,-2.1655l1.85171,-1.26549l6.09866,-9.57826l-0.19497,-7.08973l0.48391,-5.69234l35.83325,-6.58818l1.15094,-0.09477l0.1035,-0.01982l0.11129,0.00213l2.54676,-0.20971l2.40017,0.30459l0.78348,0.01503c-3.32538,-12.8957 -5.6882,-26.06178 -9.78019,-38.73407c-0.66169,-2.04915 -3.56717,-2.52255 -4.88907,-4.22238c-3.25681,-4.1879 -6.55217,-11.63117 -5.89923,-16.85469c-0.00467,-0.19891 -0.00702,-0.3984 -0.00702,-0.59844c0,-1.35177 0.10729,-2.67848 0.31381,-3.97208c0.06844,-1.12585 0.15612,-2.24669 0.35515,-3.33931c15.82439,2.32385 34.56347,2.77177 41.42474,-9.23545c1.41134,-2.46984 2.4829,-5.19847 3.14348,-8.01265c3.06494,2.07768 5.71246,4.80116 7.63783,8.05948c2.85808,4.83675 3.0688,12.12549 4.39899,17.57619c3.87933,15.89634 7.78773,31.78683 11.91816,47.61978c5.84212,22.39428 18.30563,62.40937 19.76471,85.83598c1.13332,18.19637 5.00328,36.53072 2.768,54.62481c-1.89476,15.33769 -3.00398,50.90144 -20.68285,59.86149c-3.91356,1.98348 -8.75851,5.53093 -13.30857,5.1166c-4.64986,-0.42342 -10.14914,0.37535 -13.76875,-2.57404c-2.93424,-2.39092 -5.63822,-5.05609 -8.3255,-7.72158c-3.24382,-3.21751 -3.64375,-9.209 -4.64216,-13.48139c-3.00692,-12.86721 -2.39968,-29.33944 -1.90138,-42.31429c0.37326,-9.71903 1.25011,-17.60118 3.38984,-26.94646c2.06613,-9.02382 8.53779,-11.43444 6.66322,-21.83449c-2.69598,-14.95719 -4.71953,-24.81263 -6.87605,-33.95442l-1.51665,0.80872l-2.00102,1.35997l-2.3649,0.96808l-0.09822,0.05237l-0.10124,0.02928l-1.06876,0.4375l-54.51093,16.20003c-0.30465,-1.74572 -0.62367,-3.50235 -0.95115,-5.27407c-0.47379,-2.5632 -3.52279,-7.21643 -3.53953,-9.39809c-0.03143,-4.09434 0.79212,-10.93556 0.95119,-17.39098z" fill="#ffffff" stroke="none"/><path d="M618.74076,195.93651h1.24689l9.12253,0.91225l0.92824,-0.10268l1.98897,0.6025l1.80826,0.3653l1.4143,0.61087l5.65585,1.71327l0.91299,1.12398l0.29587,0.1278l7.8126,8.24015l0.33627,2.02831l0.08181,0.10072l0.98361,6.32562l1.04703,6.31543l-0.04615,0.12127l0.3159,2.03158l-4.83876,10.27245l-0.24096,0.21403l-0.51503,1.35337l-4.83471,3.39846l-1.15182,1.02309l-1.60287,0.91326l-1.7002,1.19512l-0.9137,0.19321l-8.19416,3.64185l-1.37829,0.45454l-0.11848,0.06557l-1.11954,0.34272l-1.11191,0.3667l-0.13459,0.01489l-1.38774,0.42482l-11.83149,2.3663c2.53149,-5.87176 6.75331,-15.87111 7.53789,-21.97451c1.55658,-12.10889 0.52206,-23.32064 -1.34762,-34.88014z" fill="#ffffff" stroke="none"/><path d="M608.10701,263.95815l1.79773,3.43103l-0.12501,2.75803l0.56408,2.08711l0.82047,0.70859l0.20328,0.06828l0.38423,0.43912l6.84202,5.90902l0.7471,2.76426l1.88559,2.15496l1.12133,8.97063l0.15224,0.56328l-0.05595,0.20702l0.1908,1.52642l-2.49182,8.66719l-0.92419,1.73966l-0.12653,0.46815l5.02481,0.52893l1.34648,0.27932l0.11277,0.00154l1.19006,0.26872l1.19458,0.24781l0.1033,0.04526l1.34138,0.30289l4.26782,1.42261l0.6478,0.04091l1.02148,0.51551l0.0629,0.02097l3.58227,1.60584l0.94943,0.69196l4.52115,2.2817l0.95296,1.70791l0.86452,0.63007l1.81166,3.04513c-3.49378,4.29966 -5.58775,9.78255 -5.58775,15.75452c0,1.40204 0.11541,2.77712 0.33726,4.11626l-28.63805,-8.54523c0.45535,-1.20726 0.85417,-2.43057 1.19099,-3.66669c3.25159,-11.93337 0.88827,-38.29328 -3.67828,-50.18911c-1.78195,-4.64198 -4.49479,-8.9887 -5.53995,-13.84987c-0.05858,-0.27245 0.48644,-1.31318 1.17752,-2.52255z" fill="#ffffff" stroke="none"/><path d="M615.72662,55.53475l0.90887,1.5821l-0.54619,7.46458l2.92506,4.85478l2.84638,3.19593l0.46573,2.30124l0.36789,0.61059l2.26269,0.20279l2.66477,1.43401l2.37824,0.75671l1.60707,1.38793l3.34905,1.80224l1.04328,1.99113l2.59435,2.24058l1.5132,5.59883l1.79773,3.43103l-0.12501,2.75803l0.72033,2.66523l-1.01062,3.73931l-0.26261,5.79377l-2.04652,2.75002l-0.5865,2.17003l-2.87834,2.48584l-1.26772,1.7035l-2.15746,1.25461l-2.29024,1.97793l-2.45352,0.78066l-0.89473,0.5203l-3.5032,1.15446l-0.68541,1.64499l-1.24183,1.20827l-2.49831,-4.46987l-1.77618,-1.36948l-1.3958,-2.24915l-3.62723,-1.62374l-0.34269,-0.26423l-3.53757,-1.70204l-2.72863,-0.99223l-0.12785,-0.05723l-0.03095,-0.00051l-8.11256,-2.95002l-3.80456,-0.96783l-0.12983,-0.00529l-0.12286,-0.04231l-2.44448,-0.30291c-0.09951,-1.23323 -0.22467,-2.45972 -0.4451,-3.65896c-2.42595,-13.19854 -3.9099,-21.75783 -11.59675,-32.52786c-2.8908,-4.0503 -6.03306,-8.44109 -10.36068,-11.16359c-1.95995,-1.233 -4.03905,-2.26743 -6.09574,-3.33124c-1.00021,-0.51735 -2.75704,0.10085 -3.25341,-0.90993c-1.36955,-2.7889 -1.54774,-6.08554 -3.03675,-8.81253c-0.19462,-0.35643 -0.54582,-0.59176 -0.94246,-0.7882c8.04188,0.37525 15.7238,0.5724 19.54133,0.92356c13.82668,1.27185 27.6105,2.97098 41.39034,4.68859z" fill="#ffffff" stroke="none"/><path d="" fill="#ffffff" stroke="none"/><path d="M596.04934,378.14627l-14.8707,1.59329c0.24768,-1.18782 0.50839,-2.44282 0.7851,-3.7768c0.13562,-0.65381 0.2406,-1.29227 0.32664,-1.92199z" fill="#ffffff" stroke="none"/><path d="" fill="#ffffff" stroke="none"/><path d="" fill="#ffffff" stroke="none"/><path d="" fill="#ffffff" stroke="none"/><path d="M-61.96445,-115.93619l0.40048,0.05721l1.00505,-0.01377l0.58513,0.24094l5.00934,0.71562l1.42024,0.34991l18.99007,-5.58531l2.16569,-0.40839l0.26041,-0.09137l0.71908,-0.09333l0.71256,-0.13437l0.27591,0.00607l2.18553,-0.28367l34,-1l2.22035,0.15627l2.22314,0.10951l14.60873,2.19131l244.2034,2.77504c-4.68554,0.68797 -9.36206,1.38076 -14.02585,2.0422c-10.86314,1.54067 -21.63261,3.92914 -32.53929,5.12319c-21.41444,2.34442 -43.13294,0.78023 -64.37878,5.18696c-6.76376,1.40291 -17.24096,2.65306 -23.07674,6.52968c-0.35967,0.23893 -4.15051,3.85377 -5.25331,4.09282c-3.72178,0.80675 -7.45497,1.55743 -11.19448,2.27707c-4.72348,-2.11753 -10.66895,-2.10143 -15.49577,-2.4949c-16.61842,-1.35468 -33.52729,-3.19889 -50.09241,-4.88431c-17.29654,-1.75984 -34.54333,-4.02594 -51.86591,-5.50771c-5.741,-0.49108 -11.32719,-2.12031 -16.99091,-3.17978c-10.98333,-2.05458 -22.13649,-4.05367 -33.13508,-6.02494c-5.16111,-0.92503 -10.7594,-1.66185 -16.46717,-2.30112z" fill="#ffffff" stroke="none"/><path d="M-137.49999,-59.18751l-1.76416,0.17642l-1.77138,0.07485l-7,1l-1.75636,0.43273l-0.22094,0.01604l-0.91241,0.2632l-0.92204,0.22717l-0.19947,0.09634l-1.73801,0.50135l-5,2l-0.92303,0.48075l-0.97254,0.37049l-4,2l-1.89833,1.19895l-1.92133,1.16173l-2.39131,1.79348l-0.58412,0.24338l-0.70094,0.72041l-0.32363,0.24273l-2.89062,2.65625l-1.07825,1.51277l-1.29549,1.33147l-1.9325,3.05979l-1.16381,1.03652l-0.38275,1.50709l-0.03105,-0.1242l-0.72836,-2.12393l0.10256,-0.37927l-0.63222,-2.52889l-0.43484,-0.93809l-0.05257,-1.76622l-0.30209,-2.06427l0.16357,-2.58989l-0.0772,-2.5939l0.37069,-2.05306l0.11138,-1.76349l0.46586,-0.92308l3.74961,-13.12363l1.44872,-3.64864l0.12251,-0.18442l0.06599,-0.21134l0.08422,-0.1502c6.76394,0.57974 13.53209,1.04038 20.31662,1.06262c10.29427,0.03374 20.32142,-0.31719 30.4303,0.15095c-1.03284,3.96022 -2.14981,7.9107 -3.24974,11.84904z" fill="#ffffff" stroke="none"/><path d="M-109.56337,-122.44103l1.92359,-0.2815l0.23355,-0.07431l0.86604,-0.0866l0.86118,-0.12603l0.2446,0.01545l1.93443,-0.19344l6.96809,0c-3.13394,0.59705 -6.05992,1.58866 -8.42124,2.90621c-0.13286,0.07413 -0.25613,0.15961 -0.37182,0.25414c-4.10826,-0.30358 -7.89382,-0.48422 -11.52561,-0.59212z" fill="#ffffff" stroke="none"/><path d="M391.06317,-110.93536l0.96982,0.08216l0.20457,0.06169l0.71448,0.08752l3.10172,1.06336l4.61341,1.3913l0.3847,0.3222l0.43104,0.14777l1.64086,1.48201l24.84681,0.95565l-2.80588,0.37771l-0.8114,0.19296l-0.8298,0.08387l-31.71578,6.44227c0.04445,-1.47548 -0.01049,-3.02029 -0.17229,-4.63824c-0.30113,-3.01125 -1.1618,-5.76093 -2.43259,-8.28011z" fill="#ffffff" stroke="none"/><path d="M489.72352,-115.61112l1.82909,-1.21939l1.66287,-1.43782l2.87728,-1.58894l1.13443,-0.75628l0.82766,-0.15377l19.59717,-8.39879l2.6712,-0.84161l0.24828,-0.11459l0.41694,-0.095l0.40786,-0.1285l0.27217,-0.02644l2.73066,-0.62218l24,-3l3.92454,-0.0969l0.67261,0.12497l0.68276,-0.04312l3.88436,0.56844l11.46486,2.86622l1.10088,0.08055l1.61953,0.83769l0.89581,0.32157c-2.00321,3.59642 -3.14447,7.7387 -3.14447,12.14754c0,4.34427 1.10808,8.42974 3.05701,11.98918l0.44506,1.85561l2.08001,1.90275c1.56253,1.92435 3.40536,3.6119 5.46632,5.00048l0.83194,0.76105l0.94192,0.32961c0.28383,0.15861 0.57106,0.31184 0.86157,0.45957l-27.07948,7.26523l-23.77932,4.14337l0.50541,-1.21299l-1.63078,-8.058l-1.47852,-8.08732l-7.94771,-8.10991l-0.70475,-0.29067l-1.1655,-1.30864l-5.22404,-1.32674l-1.2427,-0.51255l-2.8504,-0.52697l-1.68851,-0.42883l-0.77258,0.12119l-2.93055,-0.24421l-0.25176,-0.18437l-3.48961,-0.13133l-0.0468,-0.01489l-3.90625,-0.39062h-2l-1.31853,0.13185l-0.58581,-0.02205l-0.18069,0.0694l-1.21906,0.0401l-4.69153,0.62554z" fill="#ffffff" stroke="none"/><path d="M631.08177,-59.11113l-0.03635,0.16099l0.18057,2.27915l-1.3262,2.34109l-0.6827,2.04809l-0.5766,1.28626l-0.02837,0.11988l-0.51096,1.08322l-0.48992,1.0929l-0.07256,0.09956l-0.60136,1.27487l-3,5l-1.16113,1.55923l-0.1126,0.21769l-0.55114,0.67362l-0.51983,0.69806l-0.18388,0.16203l-1.23106,1.50463l-0.5781,0.5781l-0.32354,0.54383l-0.8123,0.59201l-0.28605,0.28605l-3.03835,2.48592l-1.65006,0.85348l-1.5013,1.09417l-1.35382,0.60688l0.95961,0.82875l1.58091,5.84935l1.59779,3.21394l-14.27166,-3.53742l0.22589,-0.44915l2.01855,-2.90633l0.38498,-1.87275l0.05854,-0.1164l1.00013,-3.7962l0.64384,-4.04274l0.0266,-0.45606l0.09781,-0.47579l0.00865,-0.02144l-0.00176,-0.01208l0.06763,-0.32901l-0.10816,-0.26183l0.13783,-2.36286l-1.1299,-7.47002l5.04681,-1.35402l1.94638,-0.7366l1.9694,-0.67261l18.19679,-8.31853z" fill="#ffffff" stroke="none"/><path d="M436.40625,-106.64062l1.41171,-1.21921l0.00437,-0.00534l2,-2l3.03835,-2.48592l0.39315,-0.20336l1.74617,-1.50805l3.0386,-0.96683l2.83227,-1.46497l2.30108,-0.16837l0.4218,-0.13421l3.90625,-0.39062h2.84467l1.85096,-0.13544l0.23576,0.13544h0.06861l3.46469,0.34647l0.14724,-0.00076l0.146,0.03008l0.14833,0.01483l0.14031,0.04464l3.41032,0.70273l11.31927,3.53727l-4.08023,0.54403l-0.0154,0.00364l-0.01581,0.00054l-40.80426,5.49288z" fill="#ffffff" stroke="none"/><path d="" fill="#ffffff" stroke="none"/><path d="" fill="#ffffff" stroke="none"/><path d="" fill="#ffffff" stroke="none"/><path d="" fill="#ffffff" stroke="none"/><path d="" fill="#ffffff" stroke="none"/><path d="" fill="#ffffff" stroke="none"/><path d="" data-paper-data="{&quot;noHover&quot;:false,&quot;origItem&quot;:[&quot;Path&quot;,{&quot;applyMatrix&quot;:true,&quot;segments&quot;:[[157.90625,729.4375],[159.02942,730.73801],[163.36068,732.90364],[165.98935,734.56386],[168.73501,736.02249],[172.14493,738.29577],[173.36068,738.90364],[175.98935,740.56386],[178.73501,742.02249],[181.51621,743.87662],[186.8125,744.40625],[186.97853,744.45908],[187.15275,744.46146],[194.81139,746.19084],[196.99604,746.91905],[198.25825,747.01141],[200.04382,747.93498],[200.81139,748.19084],[207.97592,751.40252],[210.97853,753.59086],[212.00938,754.12406],[217,753.625],[217.80908,753.625],[219.79508,753.31347],[221.02173,753.625],[271.05908,753.625],[271.64697,753.53278],[275.1875,752.40625],[283,751.625],[283.80908,751.625],[285.79508,751.31347],[287.02173,751.625],[315,751.625],[322.8125,752.40625],[322.97853,752.45908],[323.15275,752.46146],[328.30555,753.625],[368.97827,753.625],[370.20492,753.31347],[372.19092,753.625],[373,753.625],[380.8125,754.40625],[384.35303,755.53278],[384.94092,755.625],[385,755.625],[392.8125,756.40625],[396.35303,757.53278],[396.94092,757.625],[461,757.625],[468.8125,758.40625],[468.97853,758.45908],[469.15275,758.46146],[474.30555,759.625],[515.05908,759.625],[515.64697,759.53278],[519.1875,758.40625],[527,757.625],[527.80908,757.625],[529.79508,757.31347],[531.02173,757.625],[531.69445,757.625],[536.84725,756.46146],[537.02147,756.45908],[537.1875,756.40625],[545,755.625],[554.97827,755.625],[556.20492,755.31347],[558.19092,755.625],[559,755.625],[566.8125,756.40625],[570.35303,757.53278],[570.94092,757.625],[576.97827,757.625],[578.20492,757.31347],[580.19092,757.625],[581,757.625],[588.8125,758.40625],[592.35303,759.53278],[592.39233,759.53895],[594.07187,759.24729],[594.63981,759.38169],[596.19092,759.625],[597,759.625],[604.8125,760.40625],[608.35303,761.53278],[608.94092,761.625],[611,761.625],[614.86886,762.01189],[615.35806,761.98099],[617.08043,762.23304],[618.8125,762.40625],[619.2796,762.55487],[623.12678,763.11787],[625.15528,763.625],[636.97827,763.625],[638.20492,763.31347],[640.19092,763.625],[641,763.625],[648.8125,764.40625],[652.35303,765.53278],[652.94092,765.625],[659.05908,765.625],[659.64697,765.53278],[663.1875,764.40625],[671,763.625],[671.80908,763.625],[673.79508,763.31347],[675.02173,763.625],[725.05908,763.625],[725.64697,763.53278],[729.1875,762.40625],[729.19763,762.40524],[729.97642,762.10856],[733.64697,761.53278],[737.1875,760.40625],[745,759.625],[745.05908,759.625],[745.64697,759.53278],[749.1875,758.40625],[757,757.625],[757.80908,757.625],[759.79508,757.31347],[761.02173,757.625],[762.93182,757.625],[763.25,756.625],[766.26611,753.13267],[766.67282,752.34636],[771.64466,746.26966],[775.66763,742.24669],[778.09375,739.4375],[778.6187,739.29562],[779.64466,738.26966],[782.65393,735.80753],[782.978,735.43977],[784.37412,734.4001],[785.72136,733.29782],[786.15674,733.07262],[787.82867,731.82757],[787.58734,731.61491],[780.46695,726.09447],[778.46833,722.49608],[776.12535,719.34979],[758.12535,689.34979],[757.5114,688.0482],[754.50781,684.92834],[752.02085,670.60691],[750.62229,664.69687],[750.80842,663.625],[750.62229,662.55313],[752.02085,656.64309],[754.50781,642.32166],[757.5114,639.2018],[758.12535,637.90021],[764.12535,627.90021],[768.81477,621.603],[768.92416,621.50661],[770.94285,618.42636],[776.94279,614.44068],[782.34708,609.67849],[785.84522,608.52693],[785.96666,608.44625],[790.68149,606.57419],[787.4699,601.17598],[783.54713,596.69282],[783.21316,594.02104],[781.83646,591.70702],[782.18051,585.75988],[780.73029,574.15812],[783.38609,564.92056],[783.56584,561.81361],[784.8251,559.91531],[785.71393,556.82374],[789.39749,549.88999],[791.39784,546.88946],[791.89919,545.52169],[793.30291,544.03186],[793.39749,543.88999],[797.34151,539.08857],[797.31831,539.00273],[793.54713,534.69282],[791.30447,516.75155],[791,515.625],[791.1119,515.21097],[790.73029,512.15812],[795.71393,494.82374],[796.6395,493.08148],[795.35806,493.26901],[793.29215,493.13853],[788.20492,493.93653],[782.3389,492.44675],[777.35737,492.13213],[773.56595,490.2187],[766.19362,488.34636],[763.20353,484.98907],[757.08291,481.90015],[751.43104,471.77083],[746.27864,465.98568],[745.18335,460.57368],[742.49287,455.75178],[742.63994,448.00623],[740.33908,436.63729],[742.97597,430.30876],[743.06132,425.81379],[747.44031,419.59436],[749.07373,415.67415],[752.65123,412.19333],[756.1355,407.24466],[760.51735,404.53981],[762.00099,403.09627],[768.63932,398.90364],[772.63932,396.90364],[774.89527,396.04423],[777.05105,394.95772],[803.05105,384.95772],[804.56519,384.54273],[806.00867,383.92531],[832.94093,375.46089],[835.90607,369.37777],[836.28096,364.82385],[840.97482,358.97899],[842.7874,355.26039],[846.62798,351.93959],[850.501,347.11685],[854.94806,344.74554],[[855.43562,344.32396],[0,0],[-3.13781,-1.75341]],[[849.37896,340.9277],[0.3226,0.18619],[-3.36488,-1.94202]],[[839.34976,334.98972],[2.52294,2.95442],[-6.09242,-7.13438]],[[834.18202,312.4904],[0.10836,8.34812],[-0.04784,-3.68564]],[[834.13824,301.43264],[-0.72824,3.61328],[2.04566,-10.14994]],[[847.79447,277.12721],[-6.4494,6.68798],[0,0]],[843.43579,276.53355],[842.28654,276.12216],[833.93218,275.07787],[830.16791,271.78413],[826.45442,270.45484],[809.80767,255.0071],[806.50733,240.80067],[801.86358,226.97496],[807.93061,205.0903],[810.39455,202.01038],[811.87109,197.23143],[818.43542,191.95929],[819.03888,191.20496],[818.13994,190.65006],[816.63932,190.34636],[814.36154,188.31771],[804.1355,182.00534],[798.85821,174.51006],[794.27864,170.43138],[793.31502,166.63712],[791.06132,163.43621],[790.9449,157.30477],[788.68847,148.42008],[790.55078,136.54786],[790.49287,133.49822],[791.23888,132.16122],[791.48356,130.60142],[794.27864,123.26432],[795.72995,120.36171],[795.7864,120.01993],[796.31498,119.19163],[798.27864,115.26432],[802.47127,108.62599],[804.17495,106.87499],[805.4892,104.81555],[810.99078,99.21394],[814.36394,96.40297],[815.04915,95.69873],[815.36892,95.56549],[822.99078,89.21394],[827.09407,86.43632],[827.5209,86.05074],[828.52807,85.46562],[829.49265,84.81267],[830.02539,84.59575],[834.30985,82.10668],[[864.07939,68.57507],[0,0],[-0.63356,-2.06311]],[[863.70626,63.01015],[-0.32661,1.66644],[-2.45115,1.03998]],[[856.35178,66.10791],[2.45115,-1.02601],[-9.29163,3.8893]],[[828.38246,77.42755],[9.42421,-3.55845],[0,0]],[[820.87352,80.26215],[0,0],[-0.57862,0.234]],[[819,80.625],[0.6625,0],[-2.76142,0]],[[814,75.625],[0,2.76142],[0,-1.38071]],[[815.46447,72.08947],[-0.90482,0.90482],[0,0]],[815.46447,72.08947],[[822.53553,65.0184],[0,0],[6.18804,-8.43356]],[[847.57742,46.76476],[-8.65865,5.29982],[6.35664,-3.8908]],[[867.37794,36.73033],[-6.81216,2.86033],[0.04887,-1.03244]],[[867.61786,33.68683],[-0.11356,0.99444],[-1.5435,-7.42762]],[[865.55463,10.33965],[-0.31146,7.80521],[0,0]],[863.97434,10.22495],[861.16088,9.41338],[853.69666,8.11719],[851.63195,6.12943],[846.43047,4.04883],[845.74961,3.69422],[844.20492,3.93653],[835.17464,1.64313],[831.97642,1.14144],[829.53072,0.20975],[822.19362,-1.65364],[821.55116,-2.375],[813,-2.375],[805.1875,-3.15625],[805.02147,-3.20908],[804.84725,-3.21146],[804.44086,-3.30323],[798.02358,-0.85856],[794.35303,-0.28278],[790.8125,0.84375],[784.54269,1.47073],[776.73606,3.7012],[771.34308,4.67493],[770.8125,4.84375],[769.90602,4.9344],[769.00952,5.09627],[768.45298,5.0797],[763,5.625],[733.13813,5.625],[725.21995,6.9447],[721.10416,7.21458],[717,7.625],[660.30555,7.625],[655.15275,8.78854],[654.97853,8.79092],[654.8125,8.84375],[647,9.625],[630.94092,9.625],[630.35303,9.71722],[626.8125,10.84375],[619,11.625],[618.19092,11.625],[616.20492,11.93653],[614.97827,11.625],[586.30555,11.625],[581.15275,12.78854],[580.97853,12.79092],[580.8125,12.84375],[573,13.625],[559.02173,13.625],[557.79508,13.93653],[555.80908,13.625],[555,13.625],[547.1875,12.84375],[544.09603,11.8601],[543.79508,11.93653],[541.80908,11.625],[541,11.625],[533.1875,10.84375],[529.64697,9.71722],[525.97642,9.14144],[525.19763,8.84476],[525.1875,8.84375],[521.64697,7.71722],[521.05908,7.625],[521,7.625],[518.52117,7.37712],[516.35303,7.71722],[512.8125,8.84375],[512.80237,8.84476],[512.02358,9.14144],[508.35303,9.71722],[504.8125,10.84375],[497,11.625],[496.19092,11.625],[494.20492,11.93653],[492.97827,11.625],[449.02173,11.625],[447.79508,11.93653],[445.80908,11.625],[445,11.625],[437.1875,10.84375],[433.64697,9.71722],[433.05908,9.625],[422.94092,9.625],[422.35303,9.71722],[418.8125,10.84375],[411.03585,11.62142],[409.79508,11.93653],[409,11.81181],[408.20492,11.93653],[406.96415,11.62142],[399.1875,10.84375],[395.64697,9.71722],[395.05908,9.625],[395,9.625],[387.1875,8.84375],[383.64697,7.71722],[383.05908,7.625],[305.02173,7.625],[303.79508,7.93653],[301.80908,7.625],[301,7.625],[293.1875,6.84375],[289.64697,5.71722],[289.05908,5.625],[289.02173,5.625],[287.79508,5.93653],[285.80908,5.625],[285,5.625],[277.1875,4.84375],[273.64697,3.71722],[273.05908,3.625],[268.30555,3.625],[263.15275,4.78854],[262.97853,4.79092],[262.8125,4.84375],[258.01983,5.32302],[252.81139,7.05916],[245.15275,8.78854],[244.97853,8.79092],[244.8125,8.84375],[237,9.625],[203.02173,9.625],[201.79508,9.93653],[199.80908,9.625],[199,9.625],[191.1875,8.84375],[187.64697,7.71722],[187.05908,7.625],[186.86278,7.625],[186.39126,7.89587],[182.68933,7.625],[177,7.625],[[175.83949,7.50895],[0,0],[1.30529,0.90218]],[[178,11.625],[0,-1.70681],[0,0.59382]],[[177.70651,13.31686],[0.18997,-0.5284],[0,0]],[174.58114,22.69297],[[174.54955,22.68244],[0,0],[-0.01304,0.07028]],[[174.50963,22.89319],[0.01357,-0.07022],[-1.94353,10.05513]],[[160.71897,50.0061],[5.96488,-8.42607],[-3.31198,8.58859]],[[151.3777,75.97732],[2.85117,-8.74177],[-0.8349,6.19076]],[[147.93544,94.42591],[1.10393,-6.38771],[-1.02763,5.94623]],[[147.96254,114.23592],[0.02587,-5.9454],[0,0]],[147.62774,114.78194],[147.85071,114.83768],[[145.87608,122.73621],[0,0],[-0.16401,0.72274]],[[144.95188,124.68849],[0.4396,-0.56626],[-0.18529,3.3257]],[[144.37258,134.66399],[0.20402,-3.32454],[0.20552,-0.02573]],[[145,134.625],[-0.2125,0],[2.76142,0]],[[150,139.625],[0,-2.76142],[0,0]],[150,147.625],[[149.9335,147.625],[0,0],[0.01802,0.13715]],[[149.98296,148.0374],[-0.01494,-0.13779],[0.52835,4.87428]],[[147.81411,164.08699],[1.34619,-5.43325],[0.0401,0.23886]],[[147.93544,164.82409],[-0.04075,-0.25268],[1.25778,7.79862]],[[148,189.625],[0,-7.91083],[-0.09965,8.02482]],[[151.93544,212.82409],[-1.09007,-7.81472],[0.3139,2.25035]],[[152.01395,219.63515],[0.14725,-2.2824],[1.20651,0.91283]],[[154,223.625],[0,-1.62954],[0,0]],[154,231.625],[153.76336,231.625],[[153.96157,232.24374],[0,0],[-0.13981,0.5616]],[[153.54153,233.92996],[0.14019,-0.56255],[0.96531,2.25828]],[[155.93544,240.82409],[-0.34823,-2.40443],[0.07923,0.54709]],[[156,255.625],[0,-1.94342],[0,6.4522]],[[155.93544,276.42591],[1.03251,-6.40188],[-0.33188,2.05776]],[[153.94756,282.35549],[0.36413,-2.05069],[0.17199,0.86756]],[[154.44563,284.95559],[-0.15973,-0.86539],[3.84085,0.54718]],[[163.38303,289.21895],[-1.61911,-2.52038],[1.96435,3.05778]],[[161.4289,299.94553],[1.4364,-3.33848],[-1.28102,2.97734]],[[155.6446,307.7593],[1.99799,-2.56961],[-0.89032,6.15333]],[[151.934,326.4347],[1.12645,-6.5961],[-0.42224,2.47248]],[[150.52805,333.86867],[0.51322,-2.48204],[0.08748,1.90328]],[[150.31871,339.78],[0.21296,-2.02415],[0.61758,0.7362]],[[151.78546,342.17608],[-0.29118,-0.89493],[0.70547,2.16822]],[[151.96254,349.01408],[-0.32369,-2.25701],[0.68001,4.74152]],[[155.93544,362.82409],[-0.77594,-4.72677],[1.60872,9.79975]],[[155.96254,393.01408],[-1.0688,-9.85463],[0.75251,6.93832]],[[161.93544,412.82409],[-1.12799,-6.78875],[1.15575,6.95583]],[[159.74342,433.20614],[2.11388,-6.53852],[-1.42632,4.19036]],[[153.78546,445.07392],[1.42064,-4.19229],[-0.55256,1.6306]],[[153.96254,450.23592],[0.24254,-1.70451],[-1.00626,7.07172]],[[147.93544,470.42591],[1.15289,-6.88978],[-0.97322,5.81605]],[[147.93544,488.42591],[0.94399,-5.85302],[-0.33568,2.08129]],[[145.93544,494.42591],[0.35902,-2.07739],[-0.83507,4.83201]],[[146.07786,509.68431],[-0.24751,-5.12996],[1.17006,0.91516]],[[148,513.625],[0,-1.60059],[0,0]],[148,519.625],[[147.91179,519.625],[0,0],[0.02597,0.13682]],[[147.98296,520.0374],[-0.02144,-0.13813],[1.07825,6.94649]],[[145.93544,542.82409],[-1.10319,-7.43278],[0.30951,2.08534]],[[147.93544,548.82409],[-0.33568,-2.08129],[1.06248,6.5877]],[[148,569.625],[0,-6.68206],[0,7.88946]],[[147.93544,594.42591],[1.29112,-7.77055],[-0.67066,4.03636]],[[144,606.0579],[0.76053,-4.01259],[0,0]],[[144,607.625],[0,0],[0.6655,2.99335]],[[143.93544,616.82409],[-0.38735,-3.04188],[0.2663,2.0913]],[[145.93544,622.82409],[-0.34658,-2.0795],[0.3288,1.97279]],[[145.93544,628.82409],[-0.3288,-1.97279],[0.34658,2.0795]],[[147.93544,634.82409],[-0.29125,-2.08797],[0.90264,6.47108]],[[147.93544,654.82409],[-1.10919,-6.41816],[0.78042,4.51575]],[[149.93544,668.42591],[0.66667,-4.53394],[-0.92967,6.32259]],[[145.07912,687.07644],[1.60086,-6.21449],[1.72354,0.7891]],[[148,691.625],[0,-2.01956],[0,0]],[[148,699.625],[0,0],[0.7247,3.42167]],[[147.97567,710.11769],[0.00811,-3.49756],[0,0]],[147.7394,710.57288],[147.9029,710.60558],[[147.71872,711.5265],[0,0],[4.06786,4.56939]],[[155.91602,728.71243],[-1.46599,-3.89387],[0,0]],[155.74046,728.85215]],&quot;closed&quot;:true}]}" fill="#afafaf" stroke="none"/><path d="M-195.48872,145.13234l-0.48574,0.36827l-0.8575,1.04202l-1.63164,0.84516l-0.15341,0.11631l-0.78718,0.3709l-7.51046,3.89031l-2.69275,-0.31525l-8.51534,0.30686l-2.56788,-1.60441l-1.09417,-0.1281l-4.38412,-3.29473l-4.65096,-2.90591l-0.51303,-0.9749l-2.42055,-1.81908l-2.77604,-8.05597l-1.26255,-2.39922l0.92904,-8.40704l0.06299,-0.8679l0.05336,-0.18497l0.20183,-1.82642l0.66392,-1.17487l0.16895,-0.58568l4,-10l1.33211,-2.55766l0.09234,-0.24834l0.20872,-0.3297l0.18025,-0.34609l0.16836,-0.20459l1.5425,-2.43656l14.55049,-18.59229h29.50482l0.65591,15.08593l0.17567,1.21905l0.052,1.23055l4.21496,29.50471z" fill="#ffffff" stroke="none"/><path d="" fill="#ffffff" stroke="none"/><path d="" fill="#ffffff" stroke="none"/><path d="" fill="#ffffff" stroke="none"/><path d="M653.5,-30.1875c0.02042,-2.70067 0.4676,-5.39357 1.2952,-7.96379c3.4821,-10.81413 13.69872,-19.45639 27.19866,-17.36666c4.51131,0.69833 8.77814,2.89418 12.36957,6.00721c1.84332,1.51504 3.46603,3.28869 4.81267,5.26548c3.73787,5.16293 5.90207,11.43606 5.47967,17.45531c-1.04458,14.88533 -13.78709,24.75861 -28.64962,23.93292c-8.93004,-0.49611 -15.97327,-8.363 -19.6419,-15.70028z" fill="#ffffff" stroke="none"/><path d="" fill="#afafaf" stroke="#000000"/><path d="" fill="#afafaf" stroke="#000000"/><path d="" fill="#afafaf" stroke="#000000"/><path d="" fill="#afafaf" stroke="#000000"/><path d="" fill="#afafaf" stroke="#000000"/><path d="" fill="#afafaf" stroke="#000000"/><path d="" fill="#afafaf" stroke="#000000"/><path d="" fill="#afafaf" stroke="#000000"/><path d="" fill="#afafaf" stroke="#000000"/><path d="" fill="#afafaf" stroke="none"/><path d="" fill="#afafaf" stroke="none"/><path d="M639.12264,252.97896c-9.56002,6.93193 -19.54945,13.3515 -29.62829,19.50019c-1.33625,-2.86455 -2.6621,-5.73026 -3.32238,-8.80129c-0.14127,-0.65705 3.22801,-5.78245 3.69022,-6.96548c1.31032,-3.35376 8.22067,-18.00823 9.24718,-25.99363c1.1238,-8.74222 0.89702,-17.01681 -0.01954,-25.29225c3.09981,-2.48738 6.02253,-4.92711 8.71158,-7.27073c5.49252,-4.78696 13.39062,-16.08818 22.17465,-16.73091c1.77704,-0.40079 3.62579,-0.61234 5.52394,-0.61234c0.14268,0 0.28508,0.0012 0.42719,0.00358c4.25202,0.07124 8.24565,1.20402 11.72733,3.14478c8.74691,3.89267 14.84548,12.65996 14.84548,22.85164c0,10.29628 -6.22439,19.13878 -15.11562,22.96995c-8.73099,8.61755 -20.84888,17.82147 -28.26174,23.19651z" fill="#afafaf" stroke="none"/><path d="M621.07179,225.20529c2.66031,15.2275 -0.64262,35.51401 -11.30531,47.85743c-1.42526,-3.05989 -2.88941,-6.1053 -3.59452,-9.38486c-0.14127,-0.65705 3.22801,-5.78245 3.69022,-6.96548c1.31032,-3.35376 8.22067,-18.00823 9.24718,-25.99363c0.55549,-4.32125 0.781,-8.52824 0.75632,-12.67756c0.40749,2.36992 0.78584,4.75857 1.2061,7.1641z" fill="#d2d2d2" stroke="none"/><path d="" fill="#ffffff" stroke="#000000"/><path d="" fill="#ffffff" stroke="#000000"/><path d="" fill="#ffffff" stroke="#000000"/><path d="" fill="#ffffff" stroke="#000000"/><path d="" fill="#ffffff" stroke="#000000"/><path d="" fill="#ffffff" stroke="#000000"/><path d="" fill="#ffffff" stroke="#000000"/><path d="" fill="#ffffff" stroke="#000000"/><path d="" fill="#ffffff" stroke="#000000"/><path d="" fill="#ffffff" stroke="#000000"/><path d="" fill="#ffffff" stroke="#000000"/><path d="M635.5,221.8125v-8h4v8z" fill="#ffffff" stroke="#000000"/><path d="M692.5,250.8125v-4h5v4z" fill="#ffffff" stroke="#000000"/><path d="M684.5,189.8125v-4h6v4z" fill="#ffffff" stroke="#000000"/><path d="" fill="#ffffff" stroke="#000000"/><path d="" fill="#adadad" stroke="#000000"/><path d="" fill="#adadad" stroke="#000000"/><path d="" fill="#adadad" stroke="#000000"/><path d="" fill="#adadad" stroke="#000000"/><path d="" fill="#adadad" stroke="#000000"/><path d="" fill="#adadad" stroke="#000000"/><path d="" fill="#adadad" stroke="#000000"/><path d="" fill="#adadad" stroke="#000000"/><path d="" fill="#adadad" stroke="#000000"/><path d="" fill="#adadad" stroke="#000000"/><path d="" fill="#adadad" stroke="#000000"/><path d="" fill="#adadad" stroke="#000000"/><path d="" fill="#adadad" stroke="#000000"/><path d="" fill="#adadad" stroke="#000000"/><path d="" fill="#adadad" stroke="#000000"/><path d="" fill="#adadad" stroke="#000000"/><path d="" fill="#adadad" stroke="#000000"/><path d="" fill="#adadad" stroke="#000000"/><path d="" fill="#adadad" stroke="#000000"/><path d="" fill="#adadad" stroke="#000000"/><path d="" fill="#adadad" stroke="#000000"/><path d="" fill="#adadad" stroke="#000000"/><path d="" fill="#adadad" stroke="#000000"/><path d="" fill="#adadad" stroke="#000000"/><path d="" fill="#adadad" stroke="#000000"/><path d="" fill="#adadad" stroke="#000000"/><path d="" fill="#adadad" stroke="#000000"/><path d="" fill="#adadad" stroke="#000000"/><path d="" fill="#adadad" stroke="#000000"/><path d="" fill="#adadad" stroke="#000000"/><path d="" fill="#adadad" stroke="#000000"/><path d="" fill="#adadad" stroke="#000000"/><path d="" fill="#adadad" stroke="#000000"/><path d="" fill="#adadad" stroke="#000000"/><path d="" fill="#adadad" stroke="#000000"/><path d="" fill="#adadad" stroke="#000000"/><path d="" fill="#adadad" stroke="#000000"/><path d="" fill="#adadad" stroke="#000000"/><path d="" fill="#adadad" stroke="#000000"/><path d="" fill="#adadad" stroke="#000000"/><path d="" fill="#adadad" stroke="#000000"/><path d="" fill="#adadad" stroke="#000000"/><path d="" fill="#adadad" stroke="#000000"/><path d="" fill="#adadad" stroke="#000000"/><path d="" fill="#adadad" stroke="#000000"/><path d="" fill="#adadad" stroke="#000000"/><path d="" fill="#adadad" stroke="#000000"/><path d="" fill="#adadad" stroke="#000000"/><path d="" fill="#adadad" stroke="#000000"/><path d="" fill="#adadad" stroke="#000000"/><path d="" fill="#adadad" stroke="#000000"/><path d="" fill="#adadad" stroke="#000000"/><path d="" fill="#adadad" stroke="#000000"/><path d="" fill="#adadad" stroke="#000000"/><path d="" fill="#adadad" stroke="#000000"/><path d="" fill="#adadad" stroke="#000000"/><path d="" fill="#adadad" stroke="#000000"/><path d="" fill="#adadad" stroke="#000000"/><path d="" fill="#adadad" stroke="#000000"/><path d="" fill="#adadad" stroke="#000000"/><path d="" fill="#adadad" stroke="#000000"/><path d="" fill="#adadad" stroke="#000000"/><path d="" fill="#adadad" stroke="#000000"/><path d="" fill="#adadad" stroke="#000000"/><path d="" fill="#adadad" stroke="#000000"/><path d="" fill="#adadad" stroke="#000000"/><path d="" fill="#adadad" stroke="#000000"/><path d="" fill="#adadad" stroke="#000000"/><path d="" fill="#adadad" stroke="#000000"/><path d="" fill="#adadad" stroke="#000000"/><path d="" fill="#adadad" stroke="#000000"/><path d="" fill="#adadad" stroke="#000000"/><path d="" fill="#adadad" stroke="#000000"/><path d="" fill="#adadad" stroke="#000000"/><path d="" fill="#adadad" stroke="#000000"/><path d="" fill="#adadad" stroke="#000000"/><path d="" fill="#adadad" stroke="#000000"/><path d="" fill="#adadad" stroke="#000000"/><path d="" fill="#adadad" stroke="#000000"/><path d="" fill="#adadad" stroke="#000000"/><path d="" fill="#adadad" stroke="#000000"/><path d="" fill="#adadad" stroke="#000000"/><path d="" fill="#adadad" stroke="#000000"/><path d="M122.5,394.8125v-397h261v397z" fill="#adadad" stroke="#000000"/></g></g></svg>