<svg xmlns="http://www.w3.org/2000/svg" xmlns:xlink="http://www.w3.org/1999/xlink" width="372.8181457519531" height="278.1000061035156" viewBox="23.7818603515625 10.600000381469727 372.8181457519531 278.1000061035156" version="1.1" xml:space="preserve">
  <!-- Generator: Sketch 49.3 (51167) - http://www.bohemiancoding.com/sketch -->
  <defs/>
  <g>
    <title>dragon-c</title>
    <desc>Created with Sketch.</desc>
    <g id="dragon-c" fill-rule="evenodd">
      <g id="Dragon-Fire" fill-rule="nonzero">
        <g id="Fire">
          <g id="Group">
            <g id="Shape">
              <g>
                <path d="M 222 156 C 232.2 171.6 230.3 202.9 215.8 209.3 C 201.3 215.7 184.1 224.7 177.7 227.6 C 171.4 230.4 170.5 233.3 165.1 260.5 C 163.7 267.3 154.7 277.4 154.5 262.7 C 154.5 259.8 154 237.5 157 230 C 162.6 216.3 168.6 217.7 173.1 213.9 C 178.8 209.2 184.7 200.5 177.1 185.8 C 162.7 157.8 196.7 117.4 222 156 Z " fill="#69B229" stroke-width="1" stroke="none"/>
                <path d="M 165 265.7 C 165.7 267.6 169.7 270.5 171.4 271 C 173.1 271.5 173.7 269.8 176 270.9 C 178.2 272 177.9 274.2 176.5 275.2 C 175.1 276.2 174.7 276 173.9 275.8 C 173.9 275.8 173.9 276.7 173.2 277.6 C 172.3 278.7 171 278.6 170 277.8 C 169 277 168.5 277.1 168.5 277.1 C 168.5 277.1 168.5 278.9 167.3 279.6 C 165.6 280.6 164.5 279.8 163.4 277.9 C 162.3 276 160.5 275.3 157.4 274.6 C 155.2 274.1 153.3 269.9 153.8 265.6 C 154.5 259.4 154.6 255.5 158.4 254.7 C 169.4 252.3 163.8 262.3 165 265.7 Z " fill="#69B229" stroke-width="1" stroke="none"/>
                <path d="M 173.9 275.8 C 173.9 275.8 173.9 275.6 173.9 275.3 C 173.9 275.1 173.9 275 173.8 274.7 C 173.7 274.5 173.7 274.2 173.5 274 C 173.2 273.5 172.7 273 172 272.8 C 171.7 272.7 171.3 272.6 170.9 272.6 C 170.5 272.6 170.2 272.6 169.9 272.5 C 169.3 272.4 168.6 272.2 168 271.9 C 167.4 271.6 166.9 271.4 166.5 271.1 C 166.1 270.8 165.7 270.5 165.5 270.3 C 165.3 270.1 165.2 270 165.2 270 C 165.2 270 165.3 270.2 165.4 270.4 C 165.6 270.7 165.8 271 166.2 271.4 C 166.6 271.8 167.1 272.1 167.7 272.5 C 168.3 272.8 169 273.1 169.7 273.2 C 170.1 273.2 170.4 273.2 170.8 273.2 C 171.1 273.2 171.4 273.3 171.7 273.3 C 172 273.4 172.3 273.5 172.5 273.7 C 172.7 273.9 172.9 274 173.1 274.2 C 173.4 274.6 173.6 275 173.6 275.3 C 173.9 275.6 173.9 275.8 173.9 275.8 Z " fill="#519B3D" stroke-width="1" stroke="none"/>
                <path d="M 168.5 277.1 C 168.5 277.1 168.7 276.5 168.4 275.7 C 168.3 275.3 168 274.8 167.6 274.5 C 167.4 274.3 167.2 274.1 166.9 274 C 166.7 273.8 166.4 273.7 166.1 273.6 C 165.1 273.2 164 272.9 163.3 272.7 C 162.5 272.4 162.1 272.1 162.1 272.1 C 162.1 272.1 162.2 272.2 162.3 272.4 C 162.5 272.6 162.7 272.8 163.1 273 C 163.8 273.4 164.9 273.8 165.8 274.2 C 166.8 274.6 167.6 275.2 167.9 275.9 C 168.1 276.2 168.2 276.5 168.3 276.8 C 168.5 277 168.5 277.1 168.5 277.1 Z " fill="#519B3D" stroke-width="1" stroke="none"/>
                <path d="M 167.9 281.2 C 167.9 281.2 168.9 277 166.8 277.4 C 165.5 277.6 166 278.5 166.7 279.2 C 167.3 279.8 167.7 280 167.9 281.2 Z " fill="#A1AF93" stroke-width="1" stroke="none"/>
                <path d="M 173.9 279.5 C 173.9 279.5 174.2 275.2 172.1 275.9 C 170.8 276.4 171.5 277.1 172.3 277.7 C 173.1 278.3 173.5 278.4 173.9 279.5 Z " fill="#A1AF93" stroke-width="1" stroke="none"/>
                <path d="M 178.7 276.6 C 178.7 276.6 177.5 272.4 175.9 273.8 C 174.9 274.6 175.7 275.1 176.6 275.4 C 177.6 275.7 178 275.7 178.7 276.6 Z " fill="#A1AF93" stroke-width="1" stroke="none"/>
                <path d="M 180 203.9 C 180 203.9 180.2 203.6 180.3 203 C 180.5 202.4 180.7 201.5 180.7 200.4 C 180.8 199.9 180.8 199.3 180.8 198.6 C 180.8 198 180.8 197.3 180.7 196.6 C 180.6 195.9 180.6 195.2 180.4 194.5 C 180.3 193.8 180.1 193.1 180 192.4 C 179.8 191.7 179.6 191 179.4 190.3 C 179.2 189.6 179 189 178.7 188.3 C 178.5 187.7 178.2 187.1 178 186.5 C 177.7 185.9 177.5 185.4 177.3 184.9 C 176.9 183.9 176.4 183.1 176.1 182.6 C 175.8 182.1 175.6 181.7 175.6 181.7 C 175.6 181.7 175.7 182 176 182.6 C 176.2 183.2 176.6 184 177 185 C 177.2 185.5 177.4 186 177.6 186.6 C 177.8 187.2 178 187.8 178.2 188.4 C 178.4 189 178.6 189.7 178.8 190.4 C 179 191.1 179.2 191.8 179.3 192.5 C 179.5 193.2 179.6 193.9 179.8 194.6 C 180 195.3 180 196 180.1 196.6 C 180.3 197.9 180.4 199.2 180.3 200.2 C 180.3 201.3 180.2 202.2 180.1 202.8 C 180.1 203.6 180 203.9 180 203.9 Z " fill="#519B3D" stroke-width="1" stroke="none"/>
              </g>
              <path d="M 181.1 226.1 C 181.1 226.1 180.7 226.2 179.9 226.5 C 179.1 226.8 178 227.2 176.8 227.9 C 176.2 228.2 175.5 228.6 174.8 229 C 174.5 229.2 174.1 229.5 173.8 229.8 C 173.5 230.1 173.3 230.5 173 230.9 C 172 232.4 171.2 234.1 170.6 235.9 C 170 237.7 169.5 239.5 169 241.2 C 168.6 242.9 168.2 244.5 167.9 245.9 C 167.6 247.3 167.4 248.4 167.3 249.2 C 167.2 250 167.1 250.5 167.1 250.5 C 167.1 250.5 167.6 248.7 168.3 246 C 168.6 244.6 169.1 243.1 169.6 241.4 C 170.1 239.7 170.6 237.9 171.2 236.2 C 171.8 234.5 172.5 232.7 173.5 231.3 C 173.7 231 174 230.6 174.2 230.3 C 174.4 230 174.8 229.8 175.1 229.5 C 175.7 229 176.4 228.7 177 228.3 C 178.2 227.6 179.3 227.1 180 226.7 C 180.6 226.3 181.1 226.1 181.1 226.1 Z " fill="#519B3D" stroke-width="1" stroke="none"/>
            </g>
            <g id="Shape">
              <path d="M 111 69.7 C 120.5 66 150.7 66.6 135.8 108.4 C 135.8 108.4 176.3 91.4 171.8 134.9 C 171.8 134.9 231.1 102 261.3 140.2 C 261.3 140.2 238.3 77.3 265.8 45.2 C 265.8 45.2 249.5 5.8 186.2 16.8 C 156.5 22.1 111 69.7 111 69.7 Z " fill="#A1C380" stroke-width="1" stroke="none"/>
              <path d="M 283.3 145.2 C 283.3 145.2 252.8 112.1 256.9 91.6 C 261 71.1 281.9 48.2 279.7 36.2 C 277.5 24.2 269.7 14.9 259.6 16.1 C 259.6 16.1 271.9 18.6 270.1 29.1 C 270.1 29.1 229.9 8.1 190.4 11.6 C 159.3 14.4 104.8 75.4 104.8 75.4 C 104.8 75.4 169.4 21.6 192.6 20.3 C 215.9 19 254.2 27.1 257.8 37.3 C 257.8 37.3 209.6 23.2 194.7 34.1 C 179.9 45 155.5 66.6 132.6 113.7 C 132.6 113.7 180.4 49.5 198.5 43.5 C 216.6 37.5 256 46.6 256 46.6 C 256 46.6 206 53.1 191.9 80.6 C 177.8 108.1 169.4 140.7 169.4 140.7 C 169.4 140.7 197.2 77.8 217.5 68.6 C 237 59.7 254.8 56.5 254.8 56.5 C 254.8 56.5 241.9 82.4 245.3 102.7 C 249 125.4 260.1 132.3 263.7 147.6 C 266 157.7 284.5 153.5 283.3 145.2 Z " fill="#69B229" stroke-width="1" stroke="none"/>
              <path d="M 280.6 142.2 C 280.6 142.2 276.9 137.9 272 131 C 269.6 127.5 266.8 123.4 264.3 118.8 C 261.7 114.2 259.3 109.1 257.8 103.7 C 257.1 101 256.7 98.2 256.9 95.5 C 257.2 92.8 257.8 90.1 258.5 87.6 C 260 82.6 261.9 78 263.7 74.2 C 267.3 66.6 270.3 61.8 270.3 61.8 C 270.3 61.8 269.5 63 268.3 65.1 C 267 67.2 265.3 70.3 263.4 74.1 C 261.5 77.9 259.5 82.4 258 87.5 C 257.3 90 256.6 92.7 256.3 95.5 C 256.1 98.3 256.5 101.2 257.2 103.9 C 258.7 109.4 261.2 114.5 263.8 119.1 C 266.4 123.7 269.2 127.8 271.7 131.2 C 274.2 134.6 276.4 137.4 278 139.3 C 279.6 141.2 280.6 142.2 280.6 142.2 Z " fill="#519B3D" stroke-width="1" stroke="none"/>
              <path d="M 259.5 46.1 C 259.5 46.2 258.7 46.3 257.3 46.4 C 255.9 46.6 253.9 46.8 251.6 47.2 C 249.2 47.6 246.5 48.1 243.6 48.8 C 240.7 49.5 237.6 50.3 234.6 51.2 C 231.6 52.2 228.5 53.2 225.8 54.3 C 223 55.4 220.5 56.5 218.3 57.6 C 216.1 58.6 214.4 59.6 213.2 60.2 C 212 60.9 211.3 61.3 211.3 61.3 C 211.3 61.3 212 60.9 213.3 60.3 C 214.5 59.7 216.4 58.9 218.5 57.9 C 220.7 56.9 223.3 55.9 226 54.8 C 228.8 53.7 231.8 52.7 234.8 51.8 C 237.8 50.8 240.9 50 243.8 49.3 C 246.7 48.6 249.4 48 251.7 47.5 C 254 47 256 46.7 257.4 46.4 C 258.7 46.3 259.5 46.2 259.5 46.1 Z " fill="#519B3D" stroke-width="1" stroke="none"/>
              <path d="M 260.7 38.2 C 260.7 38.2 259.9 37.9 258.5 37.4 C 257.1 36.9 255.1 36.3 252.6 35.6 C 251.4 35.2 250 34.9 248.6 34.5 C 247.2 34.2 245.7 33.8 244.1 33.5 C 241 32.8 237.7 32.2 234.3 31.7 C 232.6 31.4 230.9 31.2 229.3 31 C 227.6 30.8 226 30.6 224.4 30.5 C 222.8 30.3 221.3 30.3 219.8 30.2 C 218.3 30.1 217 30.1 215.7 30 C 214.4 30 213.3 29.9 212.2 29.9 C 211.2 29.9 210.3 29.9 209.5 30 C 208 30 207.2 30.1 207.2 30.1 C 207.2 30.1 208 30.1 209.5 30.2 C 210.2 30.2 211.1 30.2 212.2 30.3 C 213.2 30.4 214.4 30.4 215.7 30.5 C 217 30.6 218.3 30.6 219.8 30.8 C 221.2 30.9 222.8 31 224.3 31.2 C 225.9 31.4 227.5 31.5 229.2 31.8 C 230.8 32 232.5 32.2 234.2 32.5 C 237.5 33 240.9 33.6 244 34.2 C 247.1 34.8 250 35.5 252.4 36.1 C 254.9 36.7 256.9 37.3 258.3 37.7 C 259.9 37.9 260.7 38.2 260.7 38.2 Z " fill="#519B3D" stroke-width="1" stroke="none"/>
              <path d="M 270.1 29.2 C 270.1 29.2 269 28.6 267.1 27.7 C 266.2 27.2 265 26.7 263.7 26.1 C 262.4 25.5 260.9 24.8 259.2 24.1 C 257.5 23.4 255.7 22.7 253.8 21.9 C 251.9 21.1 249.8 20.4 247.7 19.7 C 245.5 19 243.3 18.3 241.1 17.6 C 238.8 16.9 236.5 16.2 234.2 15.7 C 233 15.4 231.9 15.1 230.7 14.8 C 229.5 14.6 228.4 14.3 227.2 14.1 C 226 13.9 224.9 13.6 223.7 13.4 C 222.6 13.2 221.4 13 220.3 12.8 C 219.2 12.6 218.1 12.4 217 12.3 C 215.9 12.2 214.9 12.1 213.8 11.9 C 212.8 11.8 211.8 11.7 210.8 11.6 C 209.8 11.5 208.9 11.5 208 11.4 C 206.2 11.3 204.5 11.2 203.1 11.1 C 201.6 11.1 200.4 11.1 199.3 11.1 C 197.2 11.1 196 11.1 196 11.1 C 196 11.1 197.2 11.1 199.3 11.2 C 200.4 11.2 201.6 11.3 203.1 11.3 C 204.6 11.4 206.2 11.6 208 11.7 C 208.9 11.8 209.8 11.8 210.8 12 C 211.8 12.1 212.8 12.3 213.8 12.4 C 214.8 12.5 215.9 12.7 216.9 12.8 C 218 13 219.1 13.2 220.2 13.4 C 221.3 13.6 222.4 13.8 223.6 14 C 224.7 14.2 225.9 14.5 227 14.7 C 228.2 14.9 229.3 15.2 230.5 15.5 C 231.7 15.8 232.8 16.1 234 16.4 C 236.3 16.9 238.6 17.6 240.9 18.3 C 243.2 18.9 245.4 19.7 247.5 20.3 C 249.6 21.1 251.7 21.7 253.6 22.4 C 255.5 23.1 257.4 23.8 259 24.5 C 262.4 25.8 265.1 27 267 27.9 C 269 28.6 270.1 29.2 270.1 29.2 Z " fill="#519B3D" stroke-width="1" stroke="none"/>
              <path d="M 262.5 145.3 C 262.5 145.3 262.5 145.1 262.5 144.7 C 262.5 144.3 262.4 143.7 262.2 142.9 C 261.9 141.4 261.1 139.2 259.9 136.8 C 259.3 135.6 258.6 134.3 257.8 132.9 C 257 131.6 256.2 130.1 255.3 128.7 C 253.5 125.9 251.9 122.6 250.5 119.3 C 249.1 116 247.9 112.6 247.1 109.3 C 246.2 106 245.6 103 245.2 100.3 C 244.8 97.6 244.7 95.4 244.7 93.8 C 244.7 93 244.8 92.4 244.8 92 C 244.8 91.6 244.9 91.4 244.9 91.4 C 244.9 91.4 244.9 91.6 244.8 92 C 244.7 92.4 244.7 93 244.6 93.8 C 244.5 95.4 244.5 97.7 244.9 100.3 C 245.2 103 245.8 106.1 246.6 109.4 C 247.5 112.7 248.6 116.1 250 119.5 C 251.4 122.8 253.1 126.1 254.9 128.9 C 255.8 130.3 256.7 131.7 257.5 133 C 258.3 134.3 259 135.6 259.6 136.8 C 260.2 138 260.7 139.1 261.2 140.1 C 261.6 141.1 261.9 142 262.1 142.8 C 262.3 143.6 262.4 144.2 262.4 144.6 C 262.5 145.1 262.5 145.3 262.5 145.3 Z " fill="#519B3D" stroke-width="1" stroke="none"/>
              <path d="M 257.4 53.2 C 257.4 53.2 257.2 53.3 257 53.6 C 256.7 53.9 256.4 54.3 256 54.8 C 255.2 55.9 254.3 57.4 253.6 59 C 252.9 60.6 252.2 62.2 251.9 63.5 C 251.7 64.1 251.6 64.7 251.5 65 C 251.4 65.4 251.4 65.6 251.4 65.6 C 251.4 65.6 251.5 65.4 251.7 65.1 C 251.9 64.8 252.1 64.3 252.3 63.7 C 252.8 62.5 253.5 60.9 254.3 59.3 C 255 57.7 255.8 56.2 256.5 55.1 C 256.8 54 257.4 53.2 257.4 53.2 Z " fill="#519B3D" stroke-width="1" stroke="none"/>
              <path d="M 257.8 37.3 C 257.8 37.3 257.8 36.9 257.5 36.4 C 257.4 36.1 257.2 35.8 256.9 35.5 C 256.7 35.1 256.3 34.8 256 34.4 C 255.6 34 255.2 33.6 254.7 33.3 C 254.2 32.9 253.7 32.5 253.2 32.2 C 252.7 31.8 252.1 31.5 251.5 31.1 C 250.9 30.8 250.3 30.4 249.7 30.1 C 249.1 29.8 248.4 29.5 247.8 29.2 C 247.2 28.9 246.5 28.7 245.9 28.4 C 244.7 27.9 243.5 27.6 242.6 27.2 C 241.6 26.9 240.8 26.7 240.2 26.5 C 239.6 26.3 239.3 26.3 239.3 26.3 C 239.3 26.3 240.6 26.8 242.5 27.6 C 243.5 28 244.6 28.4 245.8 28.9 C 246.4 29.2 247 29.4 247.6 29.7 C 248.2 30 248.8 30.3 249.4 30.6 C 250 30.9 250.6 31.2 251.2 31.5 C 251.8 31.8 252.4 32.2 252.9 32.5 C 253.4 32.9 254 33.2 254.4 33.5 C 254.9 33.8 255.3 34.2 255.7 34.5 C 256.1 34.8 256.4 35.2 256.7 35.5 C 257 35.8 257.2 36.1 257.4 36.3 C 257.7 36.9 257.8 37.3 257.8 37.3 Z " fill="#519B3D" stroke-width="1" stroke="none"/>
              <path d="M 269.6 23.6 C 269.6 23.6 269.8 24.4 269.9 25.6 C 270 26.2 270 26.9 270 27.6 C 270 28.3 269.8 29.1 269.5 29.8 C 269.4 30 269.3 30.1 269.2 30.2 C 269.1 30.4 268.9 30.5 268.8 30.7 C 268.5 31.1 268.4 31.5 268.3 31.9 C 268.1 32.7 268.3 33.5 268.6 34.1 C 268.9 34.7 269.3 35 269.7 35.2 C 270 35.4 270.3 35.3 270.3 35.3 C 270.3 35.3 270.1 35.3 269.8 35 C 269.5 34.8 269.2 34.4 269 33.9 C 268.8 33.4 268.7 32.7 268.9 32 C 269 31.7 269.2 31.3 269.4 31.1 C 269.5 31 269.7 30.8 269.8 30.6 C 270 30.4 270.1 30.2 270.2 30.1 C 270.6 29.3 270.7 28.4 270.7 27.6 C 270.7 26.8 270.6 26.1 270.4 25.5 C 270 24.3 269.6 23.6 269.6 23.6 Z " fill="#519B3D" stroke-width="1" stroke="none"/>
              <path d="M 236.5 123.9 C 236.5 123.9 236.3 123.8 235.8 123.7 C 235.3 123.5 234.6 123.4 233.8 123.1 C 232.9 122.9 231.8 122.6 230.6 122.4 C 229.3 122.2 227.9 122 226.3 121.9 C 225.5 121.8 224.7 121.8 223.8 121.7 C 223 121.6 222.1 121.7 221.2 121.6 C 219.4 121.5 217.5 121.7 215.5 121.7 C 214.5 121.7 213.5 121.9 212.5 122 C 211.5 122.1 210.5 122.2 209.4 122.3 C 208.4 122.5 207.3 122.6 206.3 122.8 L 204.7 123 L 203.2 123.3 C 201.2 123.8 199.1 124.2 197.1 124.8 C 196.1 125.1 195.1 125.4 194.1 125.6 C 193.6 125.7 193.1 125.9 192.6 126 C 192.1 126.2 191.7 126.3 191.2 126.5 C 189.3 127.1 187.5 127.8 185.8 128.4 C 184.1 129.1 182.6 129.7 181.1 130.3 C 180.4 130.6 179.7 130.9 179 131.2 C 178.4 131.5 177.7 131.8 177.2 132.1 C 176.1 132.7 175.1 133.1 174.2 133.5 C 172.6 134.3 171.6 134.8 171.6 134.8 C 171.6 134.8 172.6 134.4 174.2 133.6 C 175 133.2 176.1 132.8 177.2 132.3 C 177.8 132 178.4 131.8 179.1 131.5 C 179.8 131.2 180.5 131 181.2 130.7 C 182.7 130.1 184.2 129.5 185.9 128.9 C 187.6 128.3 189.4 127.7 191.3 127.1 C 191.8 126.9 192.2 126.8 192.7 126.6 C 193.2 126.5 193.7 126.3 194.1 126.2 C 195.1 125.9 196.1 125.7 197 125.4 C 199 124.8 201 124.4 203.1 124 L 204.6 123.7 L 206.1 123.4 C 207.1 123.2 208.1 123.1 209.2 122.9 C 210.2 122.7 211.2 122.7 212.2 122.5 C 213.2 122.4 214.2 122.3 215.2 122.2 C 217.2 122.1 219 121.9 220.8 122 C 221.7 122 222.6 122 223.4 122 C 224.2 122 225.1 122.1 225.8 122.1 C 226.6 122.1 227.3 122.2 228 122.3 C 228.7 122.4 229.4 122.4 230 122.5 C 231.3 122.7 232.4 122.9 233.3 123 C 234.2 123.2 234.9 123.4 235.4 123.5 C 236.2 123.8 236.5 123.9 236.5 123.9 Z " fill="#7D9950" stroke-width="1" stroke="none"/>
              <path d="M 219.7 67.8 C 219.7 67.8 219.4 67.8 218.8 68 C 218.2 68.2 217.4 68.5 216.3 69.1 C 215.3 69.6 214.1 70.4 212.8 71.4 C 211.5 72.4 210.1 73.6 208.7 75 C 207.3 76.4 205.8 78 204.3 79.7 C 202.8 81.4 201.3 83.3 199.9 85.4 C 198.4 87.4 197 89.5 195.6 91.7 C 194.9 92.8 194.2 93.9 193.5 95 C 192.8 96.1 192.1 97.2 191.4 98.4 C 190 100.7 188.7 103 187.4 105.2 C 186.1 107.5 184.9 109.7 183.7 111.9 C 181.3 116.3 179.2 120.4 177.4 124 C 175.6 127.6 174.2 130.5 173.2 132.6 C 172.2 134.7 171.6 135.9 171.6 135.9 C 171.6 135.9 174.1 131.2 177.7 124.2 C 179.6 120.7 181.7 116.6 184.1 112.2 C 185.3 110 186.5 107.8 187.8 105.5 C 189.1 103.2 190.4 100.9 191.8 98.7 C 192.5 97.6 193.2 96.4 193.9 95.3 C 194.6 94.2 195.3 93.1 196 92 C 197.4 89.8 198.8 87.7 200.3 85.7 C 201.7 83.7 203.2 81.8 204.6 80 C 206 78.2 207.5 76.6 208.9 75.2 C 211.7 72.4 214.3 70.3 216.3 69.2 C 217.3 68.6 218.1 68.3 218.7 68.1 C 219.4 67.9 219.7 67.8 219.7 67.8 Z " fill="#519B3D" stroke-width="1" stroke="none"/>
              <path d="M 138.8 81.4 C 138.8 81.4 138.7 80.9 138.5 80.1 C 138.4 79.7 138.2 79.2 137.9 78.6 C 137.7 78 137.4 77.4 137 76.8 C 136.6 76.1 136.1 75.5 135.6 74.8 C 135 74.2 134.5 73.4 133.7 72.8 C 133 72.1 132.2 71.6 131.4 71 C 131 70.7 130.5 70.5 130.1 70.3 C 129.6 70.1 129.2 69.8 128.7 69.6 L 127.3 69.1 C 126.8 68.9 126.3 68.8 125.8 68.7 C 125.3 68.6 124.8 68.5 124.3 68.4 L 123.6 68.3 C 123.4 68.3 123.1 68.3 122.9 68.2 C 122 68.1 121 68.1 120.2 68.1 C 119.3 68.2 118.5 68.2 117.8 68.2 C 117.4 68.2 117.1 68.2 116.7 68.3 C 116.4 68.4 116 68.4 115.7 68.5 C 115.1 68.6 114.6 68.7 114.1 68.8 C 113.2 69 112.7 69.1 112.7 69.1 C 112.7 69.1 113.2 69.1 114.1 69 C 114.5 69 115.1 68.9 115.7 68.8 C 116 68.8 116.3 68.7 116.7 68.7 C 117 68.7 117.4 68.7 117.8 68.7 C 118.5 68.7 119.4 68.7 120.2 68.7 C 121.1 68.7 121.9 68.9 122.9 68.9 C 123.1 68.9 123.4 68.9 123.6 69 L 124.3 69.1 C 124.8 69.2 125.2 69.3 125.7 69.4 C 126.2 69.5 126.6 69.6 127.1 69.8 L 128.5 70.3 C 129 70.5 129.4 70.7 129.8 70.9 C 130.2 71.1 130.7 71.3 131.1 71.6 C 131.9 72.1 132.7 72.6 133.4 73.3 C 134.1 73.9 134.7 74.6 135.3 75.2 C 135.8 75.9 136.4 76.5 136.7 77.1 C 137.1 77.7 137.4 78.3 137.7 78.8 C 138 79.3 138.2 79.8 138.4 80.2 C 138.7 80.9 138.8 81.4 138.8 81.4 Z " fill="#7D9950" stroke-width="1" stroke="none"/>
              <path d="M 170.5 117.1 C 170.5 117.1 170.4 116.5 170 115.6 C 169.8 115.1 169.5 114.6 169.2 114 C 169 113.7 168.8 113.4 168.6 113 C 168.4 112.7 168.1 112.3 167.9 112 C 167.7 111.6 167.3 111.3 167 111 C 166.7 110.7 166.4 110.3 166 110 C 165.6 109.7 165.2 109.3 164.9 109 C 164.5 108.7 164 108.4 163.6 108.1 C 163.4 107.9 163.1 107.8 162.9 107.6 C 162.7 107.5 162.4 107.3 162.2 107.2 C 161.7 106.9 161.2 106.7 160.7 106.4 C 160.2 106.2 159.6 106 159.1 105.8 L 158.3 105.5 C 158 105.4 157.7 105.4 157.5 105.3 C 156.4 105.1 155.2 104.8 154.1 104.8 C 153 104.7 151.9 104.6 150.8 104.7 C 149.7 104.8 148.7 104.8 147.7 104.9 C 146.7 105.1 145.8 105.2 145 105.4 C 144.1 105.5 143.4 105.8 142.7 106 C 142 106.2 141.4 106.4 141 106.5 C 140 106.8 139.5 107 139.5 107 C 139.5 107 140.1 106.9 141 106.7 C 141.5 106.6 142.1 106.5 142.8 106.3 C 143.5 106.1 144.2 106 145.1 105.9 C 145.9 105.8 146.9 105.7 147.8 105.5 C 148.3 105.4 148.8 105.4 149.3 105.4 C 149.8 105.4 150.3 105.4 150.9 105.3 C 152 105.2 153 105.3 154.2 105.4 C 155.3 105.4 156.4 105.7 157.5 105.9 C 157.8 106 158.1 106 158.3 106.1 L 159.1 106.4 C 159.6 106.6 160.2 106.8 160.7 106.9 C 161.2 107.1 161.7 107.4 162.2 107.6 L 162.9 108 C 163.1 108.1 163.3 108.3 163.6 108.4 C 164 108.7 164.5 109 164.9 109.3 C 165.3 109.6 165.7 109.9 166 110.2 C 166.4 110.5 166.7 110.9 167 111.2 C 167.3 111.5 167.6 111.8 167.9 112.2 C 168.2 112.5 168.4 112.8 168.7 113.1 C 168.9 113.4 169.1 113.7 169.3 114 C 169.7 114.6 170 115.1 170.2 115.5 C 170.3 116.5 170.5 117.1 170.5 117.1 Z " fill="#7D9950" stroke-width="1" stroke="none"/>
              <path d="M 207.8 41.7 C 207.8 41.7 207.1 41.7 205.9 41.9 C 204.7 42.1 202.9 42.3 200.9 42.7 C 199.9 42.9 198.8 43.2 197.6 43.6 C 196.4 44 195.3 44.6 194.2 45.3 C 191.9 46.6 189.7 48.3 187.5 50.2 C 185.4 52 183.4 54 181.5 55.8 C 179.6 57.6 178 59.4 176.5 60.9 C 173.6 63.9 171.8 66 171.8 66 C 171.8 66 173.8 64 176.8 61.1 C 178.3 59.6 180.1 57.9 181.9 56.1 C 183.8 54.3 185.8 52.4 187.9 50.6 C 190 48.8 192.2 47.1 194.4 45.7 C 195.5 45.1 196.6 44.4 197.7 44 C 198.8 43.6 199.9 43.2 200.9 43 C 202.9 42.5 204.6 42.1 205.8 41.9 C 207.1 41.8 207.8 41.7 207.8 41.7 Z " fill="#519B3D" stroke-width="1" stroke="none"/>
              <path d="M 104.8 75.5 C 104.8 75.5 108.1 73 113 69.2 C 115.5 67.3 118.3 65.1 121.4 62.7 C 124.5 60.3 127.7 57.8 131 55.3 C 134.3 52.8 137.6 50.3 140.7 48 C 143.8 45.7 146.7 43.6 149.3 41.8 C 150.6 40.9 151.7 40.1 152.8 39.4 C 153.9 38.7 154.8 38.1 155.5 37.6 C 157.1 36.7 157.9 36.1 157.9 36.1 C 157.9 36.1 157 36.6 155.4 37.5 C 154.6 37.9 153.7 38.5 152.6 39.2 C 151.5 39.8 150.3 40.6 149 41.5 C 146.4 43.2 143.4 45.2 140.3 47.5 C 137.2 49.8 133.8 52.2 130.5 54.7 C 127.2 57.2 123.9 59.7 120.9 62.1 C 117.9 64.5 115 66.8 112.6 68.7 C 110.2 70.6 108.2 72.3 106.8 73.5 C 105.6 74.8 104.8 75.5 104.8 75.5 Z " fill="#519B3D" stroke-width="1" stroke="none"/>
            </g>
            <g id="Shape">
              <path d="M 302.6 171.3 C 309.2 180.8 309.1 202.2 297.4 216.9 C 285.7 231.6 295.1 248.5 299.7 254.3 C 305.5 261.6 308.9 261.9 309.7 265.3 C 310.6 268.8 302.6 274.4 290.8 258 C 280.8 244.1 270 234.6 274.8 221.6 C 280 207.4 271.8 200.3 269.6 186.8 C 267.4 173.5 291.3 155.2 302.6 171.3 Z " fill="#69B229" stroke-width="1" stroke="none"/>
              <path d="M 309.1 263.4 C 310.7 264.6 314.8 267 316.6 267.1 C 318.4 267.2 318.6 265.4 321 265.9 C 323.4 266.5 323.6 268.7 322.5 270 C 321.4 271.2 321 271.2 320.1 271.1 C 320.1 271.1 320.3 272 319.8 273 C 319.2 274.3 317.9 274.4 316.7 273.9 C 315.6 273.3 315 273.6 315 273.6 C 315 273.6 315.4 275.3 314.4 276.3 C 313 277.6 311.7 277.2 310.2 275.6 C 308.7 274 306.7 273.7 303.6 273.7 C 301.3 273.7 300.2 272.4 298.9 271.2 C 298 270.4 296.9 269.9 296.1 270.4 C 294.9 271.2 293.4 271.8 292.8 270.5 C 291.7 268.2 295.6 268.2 295.6 266.7 C 295.6 264.4 291.1 260.2 295 259.5 C 298.9 259 306.2 261.2 309.1 263.4 Z " fill="#69B229" stroke-width="1" stroke="none"/>
              <path d="M 291.4 271.7 C 291.4 271.7 293 268.9 293.7 270.1 C 294.2 270.8 293.6 271.1 292.9 271.1 C 292.4 271.1 292.1 271.1 291.4 271.7 Z " fill="#A1AF93" stroke-width="1" stroke="none"/>
              <path d="M 275.1 220.4 C 275.1 220.4 275.3 220.1 275.5 219.4 C 275.7 218.8 276 217.9 276.3 216.7 C 276.4 216.1 276.5 215.5 276.6 214.9 C 276.7 214.2 276.7 213.5 276.7 212.8 C 276.7 212.1 276.7 211.3 276.6 210.6 C 276.5 209.8 276.5 209.1 276.3 208.3 C 276.1 207.5 276 206.8 275.8 206 C 275.6 205.3 275.4 204.5 275.2 203.9 C 275 203.2 274.7 202.6 274.5 201.9 C 274.2 201.3 274 200.7 273.8 200.2 C 273.6 199.7 273.4 199.2 273.1 198.8 C 272.9 198.4 272.7 198 272.5 197.7 C 272.2 197.1 272 196.8 272 196.8 C 272 196.8 272.1 197.2 272.4 197.8 C 272.6 198.4 273.1 199.3 273.4 200.4 C 273.6 200.9 273.8 201.5 274 202.1 C 274.2 202.7 274.4 203.4 274.6 204.1 C 274.8 204.8 275 205.5 275.1 206.2 C 275.3 206.9 275.4 207.7 275.5 208.4 C 275.6 209.1 275.7 209.9 275.8 210.6 C 275.8 211.3 275.9 212.1 275.9 212.8 C 275.9 213.5 275.9 214.2 275.9 214.8 C 275.9 215.5 275.8 216.1 275.7 216.6 C 275.6 217.2 275.5 217.7 275.4 218.1 C 275.3 218.6 275.2 218.9 275.1 219.3 C 275.2 220 275.1 220.4 275.1 220.4 Z " fill="#519B3D" stroke-width="1" stroke="none"/>
              <path d="M 298.6 252.9 C 298.6 252.9 298.3 252.5 297.8 251.7 C 297.5 251.3 297.3 250.8 296.9 250.3 C 296.6 249.7 296.2 249.1 295.9 248.4 C 295.5 247.7 295.2 247 294.8 246.1 C 294.4 245.3 294.1 244.4 293.8 243.5 C 293.5 242.6 293.2 241.6 292.9 240.7 C 292.7 239.7 292.4 238.7 292.3 237.7 L 292.1 236.2 C 292.1 235.7 292 235.2 292 234.7 C 291.9 233.7 292 232.7 292 231.7 C 292 230.7 292.2 229.8 292.3 228.9 C 292.4 228.5 292.4 228 292.5 227.6 C 292.6 227.2 292.7 226.8 292.8 226.4 C 293 225.7 293.1 224.9 293.3 224.4 C 293.5 223.8 293.7 223.3 293.9 222.9 C 294.2 222 294.4 221.6 294.4 221.6 C 294.4 221.6 294.2 222.1 293.8 222.9 C 293.6 223.3 293.4 223.8 293.1 224.4 C 292.8 225 292.7 225.7 292.5 226.4 C 292.4 226.8 292.3 227.2 292.2 227.6 C 292.1 228 292 228.4 292 228.9 C 291.9 229.8 291.6 230.7 291.6 231.7 C 291.6 232.7 291.5 233.7 291.6 234.7 C 291.6 235.2 291.7 235.7 291.7 236.3 L 291.9 237.9 C 292 238.9 292.3 240 292.6 241 C 292.9 242 293.2 243 293.5 243.9 C 293.9 244.8 294.2 245.7 294.6 246.5 C 295 247.3 295.4 248.1 295.8 248.7 C 296.2 249.4 296.6 250 296.9 250.5 C 297.3 251 297.6 251.5 297.9 251.8 C 298.2 252.5 298.6 252.9 298.6 252.9 Z " fill="#519B3D" stroke-width="1" stroke="none"/>
              <path d="M 295 267.9 C 295 267.9 295.1 267.9 295.2 267.7 C 295.3 267.6 295.5 267.3 295.6 266.9 C 295.8 266.2 295.5 265.1 294.9 264 C 294.3 262.9 293.5 261.7 292.7 260.4 C 291.8 259.1 290.9 257.8 289.9 256.4 C 288.9 255.1 287.9 253.8 287 252.6 C 286 251.4 285.1 250.3 284.3 249.3 C 282.7 247.4 281.6 246.2 281.6 246.2 C 281.6 246.2 282.6 247.5 284 249.5 C 285.5 251.5 287.4 254.1 289.4 256.8 C 290.4 258.1 291.4 259.4 292.2 260.7 C 293.1 262 293.9 263.1 294.5 264.2 C 295.1 265.2 295.5 266.2 295.4 266.9 C 295.4 267.2 295.2 267.5 295.1 267.7 C 295.1 267.8 295 267.9 295 267.9 Z " fill="#519B3D" stroke-width="1" stroke="none"/>
              <path d="M 320.1 271.2 C 320.1 271.2 320.1 271 320 270.7 C 320 270.6 319.9 270.4 319.8 270.2 C 319.7 270 319.6 269.8 319.4 269.6 C 319 269.2 318.4 268.8 317.7 268.8 C 317.3 268.8 317 268.8 316.6 268.8 C 316.2 268.9 315.9 269 315.6 269 C 315 269.1 314.3 269 313.7 268.9 C 313.1 268.8 312.5 268.6 312 268.4 C 311.5 268.2 311.1 268 310.9 267.9 C 310.6 267.7 310.5 267.6 310.5 267.6 C 310.5 267.6 310.6 267.7 310.8 268 C 311 268.2 311.4 268.5 311.8 268.8 C 312.3 269.1 312.9 269.3 313.5 269.5 C 314.2 269.7 314.9 269.8 315.6 269.7 C 316 269.7 316.3 269.6 316.6 269.5 C 316.9 269.4 317.2 269.4 317.5 269.4 C 317.8 269.4 318.1 269.5 318.3 269.6 C 318.5 269.7 318.8 269.8 319 270 C 319.4 270.3 319.6 270.7 319.8 270.9 C 320.1 271 320.1 271.2 320.1 271.2 Z " fill="#519B3D" stroke-width="1" stroke="none"/>
              <path d="M 315.1 273.7 C 315.1 273.7 315.1 273.1 314.7 272.4 C 314.5 272 314.1 271.7 313.6 271.4 C 313.4 271.3 313.1 271.1 312.8 271.1 C 312.5 271 312.2 271 312 270.9 C 310.9 270.7 309.8 270.7 309.1 270.6 C 308.3 270.5 307.8 270.3 307.8 270.3 C 307.8 270.3 307.9 270.4 308.1 270.5 C 308.3 270.6 308.6 270.8 309 270.9 C 309.8 271.2 310.9 271.3 311.9 271.4 C 312.9 271.5 313.8 272 314.4 272.6 C 314.7 272.9 314.8 273.2 314.9 273.4 C 315.1 273.6 315.1 273.7 315.1 273.7 Z " fill="#519B3D" stroke-width="1" stroke="none"/>
              <path d="M 315.5 277.8 C 315.5 277.8 315.6 273.5 313.6 274.3 C 312.4 274.8 313 275.5 313.9 276 C 314.6 276.6 315 276.7 315.5 277.8 Z " fill="#A1AF93" stroke-width="1" stroke="none"/>
              <path d="M 321 274.8 C 321 274.8 320.3 270.5 318.5 271.7 C 317.4 272.4 318.1 273 319.1 273.4 C 319.9 273.8 320.3 273.8 321 274.8 Z " fill="#A1AF93" stroke-width="1" stroke="none"/>
              <path d="M 325 270.9 C 325 270.9 322.9 267.1 321.6 268.8 C 320.8 269.9 321.7 270.2 322.7 270.2 C 323.6 270.3 324 270.2 325 270.9 Z " fill="#A1AF93" stroke-width="1" stroke="none"/>
            </g>
            <g id="Shape">
              <g>
                <path d="M 291.7 146.6 C 276.9 142.2 272.1 145.3 255.7 131.2 C 239.2 117.1 201.3 113.3 176.6 122.9 C 151.9 132.5 130.5 152.4 132.4 177.2 C 133.9 197.4 155.6 199.4 182.8 193.4 C 210 187.4 224.4 223.5 251.8 222.9 C 282.2 222.3 292.7 217 317 185.6 C 326.3 173.6 306 150.8 291.7 146.6 Z " fill="#7CBF2E" stroke-width="1" stroke="none"/>
                <path d="M 247.1 205.9 C 271.2 214.1 300.6 187.7 314.6 165.3 C 319.3 172.5 321.2 180.2 316.9 185.8 C 292.6 217.1 282.1 222.5 251.7 223.1 C 224.3 223.6 209.8 187.2 182.7 193.6 C 159.2 199.1 151.3 196.5 142.6 193.7 C 178.4 166 219.8 196.5 247.1 205.9 Z " fill="#B4D189" stroke-width="1" stroke="none"/>
                <path d="M 304.3 200.9 C 304.3 200.9 304 201.2 303.5 201.8 C 303 202.4 302.2 203.2 301.2 204.2 C 299.2 206.2 296.2 209 292.2 211.9 C 290.2 213.3 288 214.8 285.5 216.1 C 283 217.4 280.3 218.5 277.3 219.4 C 274.4 220.3 271.3 221 268.1 221.5 C 264.9 222 261.7 222.3 258.4 222.5 C 255.1 222.7 251.9 222.7 248.7 222.4 C 245.5 222.1 242.4 221.4 239.5 220.4 C 236.6 219.4 234 218 231.6 216.6 C 229.2 215.1 227 213.6 225 212.2 C 221.1 209.3 217.8 206.8 215.5 205 C 213.2 203.3 211.9 202.3 211.9 202.3 C 211.9 202.3 213.2 203.3 215.4 205.1 C 217.6 206.9 220.8 209.5 224.7 212.5 C 226.7 214 228.8 215.5 231.2 217 C 233.6 218.5 236.3 219.9 239.2 220.9 C 242.1 221.9 245.3 222.7 248.5 223 C 251.7 223.3 255 223.3 258.3 223.1 C 261.6 222.9 264.9 222.6 268.1 222.1 C 271.3 221.6 274.4 220.8 277.3 219.9 C 280.2 219 283 217.8 285.5 216.5 C 288 215.2 290.2 213.7 292.2 212.2 C 296.2 209.2 299.1 206.3 301 204.3 C 302 203.3 302.7 202.4 303.2 201.8 C 304 201.2 304.3 200.9 304.3 200.9 Z " fill="#7D9950" stroke-width="1" stroke="none"/>
              </g>
              <path d="M 242.3 123.6 C 242.3 123.6 240.7 122.8 237.6 121.8 C 234.6 120.8 230.2 119.5 224.8 118.6 C 219.4 117.7 213.1 117 206.2 117.2 C 199.4 117.4 192.1 118.3 185 120 C 181.5 120.9 178 122 174.7 123.3 C 171.4 124.6 168.2 126.1 165.2 127.7 C 159.2 131 154.1 134.8 150 138.5 C 146 142.2 143 145.7 141.1 148.2 C 139.2 150.8 138.3 152.4 138.3 152.4 C 138.3 152.4 139.2 150.8 141.2 148.3 C 143.1 145.8 146.2 142.4 150.2 138.8 C 154.3 135.2 159.4 131.5 165.4 128.2 C 168.4 126.6 171.6 125.1 174.9 123.8 C 178.2 122.5 181.7 121.4 185.2 120.6 C 192.2 118.8 199.4 117.9 206.2 117.7 C 213 117.5 219.3 118 224.7 118.9 C 230.1 119.8 234.5 120.9 237.5 121.9 C 240.6 122.9 242.3 123.6 242.3 123.6 Z " fill="#519B3D" stroke-width="1" stroke="none"/>
            </g>
            <g id="Shape">
              <g>
                <path d="M 152.2 141 C 136.5 147.6 107.9 220.1 79.3 232.9 C 50.9 245.7 25.5 237.1 24.3 221.3 C 24.3 221.3 21.8 250 75.5 244.6 C 129.2 239.2 131.5 209.7 151.3 199.7 C 177.4 186.5 177.4 180.1 178.1 165.4 C 179 149.7 169.6 133.7 152.2 141 Z " fill="#7CBF2E" stroke-width="1" stroke="none"/>
                <path d="M 171.2 184.3 L 181.6 191.5 C 177.9 194.2 162.9 197.8 156.4 201 C 136.6 211 129.2 239.3 75.5 244.6 C 69 245.3 63.2 245.4 58.3 245.2 C 77.3 242.5 103.1 236 117.2 220.2 C 141.2 193.3 171.2 184.3 171.2 184.3 Z " fill="#B4D189" stroke-width="1" stroke="none"/>
              </g>
              <path d="M 39.6 237.3 C 39.6 237.3 40.6 237.6 42.5 238 C 43.4 238.2 44.5 238.4 45.8 238.6 C 47.1 238.8 48.6 238.9 50.2 239 C 51 239 51.8 239.1 52.7 239.1 C 53.6 239.1 54.5 239.1 55.4 239.1 C 57.2 239 59.2 238.9 61.2 238.6 C 63.2 238.3 65.2 238 67.3 237.5 C 69.4 237 71.4 236.5 73.5 235.7 C 75.5 235 77.5 234.1 79.4 233.2 C 81.3 232.2 83.1 231.2 84.7 230 C 86.4 228.9 87.9 227.6 89.3 226.4 C 90 225.8 90.6 225.2 91.3 224.6 C 91.9 224 92.5 223.4 93.1 222.8 C 93.7 222.2 94.2 221.7 94.7 221.1 C 95.2 220.6 95.6 220 96.1 219.5 C 97 218.5 97.7 217.6 98.3 216.9 C 99.5 215.4 100.1 214.6 100.1 214.6 C 100.1 214.6 99.4 215.4 98.2 216.8 C 97.6 217.5 96.8 218.4 95.9 219.3 C 95 220.3 94 221.3 92.9 222.4 C 92.3 223 91.7 223.5 91.1 224.1 C 90.5 224.7 89.8 225.3 89.1 225.9 C 87.7 227.1 86.2 228.3 84.5 229.4 C 82.9 230.5 81.1 231.6 79.2 232.5 C 77.3 233.5 75.4 234.3 73.4 235 C 71.4 235.7 69.3 236.3 67.3 236.8 C 65.3 237.3 63.2 237.7 61.3 237.9 C 59.3 238.2 57.4 238.3 55.6 238.5 C 54.7 238.6 53.8 238.6 52.9 238.6 C 52 238.6 51.2 238.6 50.4 238.6 C 48.8 238.5 47.3 238.4 46 238.3 C 44.7 238.2 43.6 238 42.7 237.8 C 40.7 237.6 39.6 237.3 39.6 237.3 Z " fill="#519B3D" stroke-width="1" stroke="none"/>
              <path d="M 132.1 221.8 C 132.1 221.8 131.3 222.6 129.7 223.9 C 128.9 224.5 128 225.3 126.8 226.1 C 125.7 226.9 124.4 227.8 122.9 228.7 C 122.2 229.2 121.4 229.6 120.6 230.1 C 119.8 230.6 119 231.1 118.1 231.5 C 116.4 232.4 114.6 233.4 112.6 234.3 C 111.6 234.7 110.7 235.3 109.7 235.7 C 108.7 236.1 107.7 236.6 106.6 237 C 105.6 237.5 104.5 237.8 103.4 238.2 C 102.3 238.6 101.3 239 100.2 239.3 C 98 240 95.8 240.6 93.7 241.3 C 91.5 241.8 89.4 242.3 87.3 242.8 C 85.2 243.2 83.2 243.5 81.2 243.8 C 80.2 244 79.3 244.1 78.4 244.2 C 77.5 244.3 76.6 244.4 75.7 244.5 C 74 244.7 72.4 244.9 71 244.9 C 69.6 245 68.4 245 67.4 245.1 C 65.4 245.2 64.3 245.3 64.3 245.3 C 64.3 245.3 65.4 245.3 67.4 245.2 C 68.4 245.2 69.6 245.2 71 245.1 C 72.4 245.1 74 244.9 75.7 244.8 C 76.6 244.7 77.4 244.6 78.4 244.6 C 79.3 244.5 80.3 244.4 81.2 244.3 C 83.1 244 85.2 243.7 87.3 243.3 C 89.4 242.8 91.6 242.3 93.8 241.8 C 96 241.2 98.2 240.6 100.4 239.9 C 101.5 239.5 102.6 239.1 103.6 238.7 C 104.7 238.3 105.7 237.9 106.8 237.5 C 107.8 237.1 108.9 236.6 109.9 236.2 C 110.9 235.8 111.9 235.3 112.9 234.8 C 114.9 233.9 116.7 232.8 118.4 231.9 C 119.3 231.4 120.1 230.9 120.9 230.4 C 121.7 229.9 122.5 229.5 123.2 229 C 123.9 228.5 124.6 228 125.2 227.6 C 125.8 227.1 126.4 226.7 127 226.3 C 128.1 225.5 129 224.7 129.8 224 C 131.3 222.6 132.1 221.8 132.1 221.8 Z " fill="#7D9950" stroke-width="1" stroke="none"/>
            </g>
            <g id="Shape">
              <g>
                <g>
                  <path d="M 310.2 55.3 C 300.9 59.3 294 84.9 301.5 106 C 311.6 134.2 296.9 143.6 278.8 147.4 C 260 151.3 261.6 162.7 266.4 177.2 C 271.2 191.7 295.5 212.6 318.9 185.9 C 337.3 164.9 331.8 131 328.8 117.4 C 325.8 103.8 317.1 85.7 322.8 78.8 C 328.6 71.7 323.6 49.5 310.2 55.3 Z " fill="#7CBF2E" stroke-width="1" stroke="none"/>
                  <path d="M 285.1 196.7 C 304.1 183.4 319.9 160.7 322.5 147.5 C 326.8 125.8 311.9 90.9 317.8 89.6 C 319.3 89.3 320.5 89.8 321.5 90.6 C 323 98.7 327 108.8 328.8 117.2 C 331.8 130.8 337.3 164.7 318.9 185.7 C 306.9 199.4 294.8 200.7 285.1 196.7 Z " fill="#B4D189" stroke-width="1" stroke="none"/>
                </g>
                <path d="M 291.1 143.5 C 291.1 143.5 291.4 143.4 291.9 143.1 C 292.4 142.9 293.2 142.5 294.1 141.9 C 294.6 141.6 295.1 141.3 295.6 140.9 C 296.1 140.5 296.7 140.1 297.3 139.6 C 298.4 138.6 299.7 137.5 300.8 135.9 C 301.9 134.4 302.9 132.6 303.6 130.7 C 304.3 128.7 304.8 126.5 305 124.2 C 305.2 121.9 305.1 119.5 304.8 117.1 C 304.5 114.7 304 112.3 303.1 109.9 C 301.5 105.3 300.2 100.6 299.4 96.1 C 298.6 91.6 298.2 87.3 298.3 83.7 C 298.4 81.9 298.6 80.2 298.8 78.7 C 299 77.2 299.2 75.9 299.4 74.9 C 299.8 72.8 300.1 71.6 300.1 71.6 C 300.1 71.6 299.8 72.8 299.3 74.9 C 299.1 75.9 298.8 77.2 298.6 78.7 C 298.4 80.2 298.1 81.8 298 83.7 C 297.8 87.4 298.1 91.7 298.9 96.2 C 299.7 100.7 300.9 105.5 302.5 110.1 C 303.3 112.4 303.8 114.8 304.2 117.1 C 304.5 119.5 304.6 121.8 304.4 124.1 C 304.2 126.4 303.8 128.5 303.1 130.5 C 302.4 132.5 301.5 134.2 300.4 135.7 C 299.4 137.2 298.2 138.4 297.1 139.4 C 296.5 139.9 296 140.3 295.5 140.7 C 295 141.1 294.5 141.4 294 141.7 C 293.1 142.3 292.4 142.7 291.9 142.9 C 291.4 143.4 291.1 143.5 291.1 143.5 Z " fill="#519B3D" stroke-width="1" stroke="none"/>
              </g>
              <path d="M 317.4 187.7 C 317.4 187.7 318.2 186.7 319.7 185 C 321.1 183.3 323.1 180.7 325 177.3 C 326.9 173.9 328.7 169.7 329.9 165.1 C 331.2 160.4 331.9 155.3 332.2 150.1 C 332.4 147.5 332.4 144.9 332.3 142.4 C 332.2 139.9 332.1 137.4 331.9 135 C 331.7 132.6 331.4 130.3 331.1 128.1 C 330.8 125.9 330.4 123.8 330 122 C 329.2 118.2 328.4 115.1 327.8 112.9 C 327.2 110.7 326.8 109.5 326.8 109.5 C 326.8 109.5 327.1 110.7 327.7 112.9 C 328.2 115.1 329 118.2 329.7 122 C 330.1 123.9 330.4 126 330.7 128.1 C 331 130.3 331.2 132.6 331.4 135 C 331.6 137.4 331.7 139.9 331.8 142.4 C 331.8 144.9 331.8 147.5 331.7 150 C 331.4 155.1 330.7 160.2 329.5 164.9 C 328.3 169.5 326.6 173.7 324.8 177.1 C 323 180.5 321.1 183.1 319.7 184.9 C 318.2 186.7 317.4 187.7 317.4 187.7 Z " fill="#7D9950" stroke-width="1" stroke="none"/>
            </g>
            <g id="Shape">
              <g>
                <path d="M 343.3 89.8 C 349.1 91.3 353.8 86.6 358.7 86.6 C 363.6 86.6 368.3 86 371.2 91 C 371.2 91 368.6 89.3 364.5 89.8 C 364.5 89.8 367.4 94.7 374.7 94.7 C 382 94.7 386.9 96.2 389.5 101.1 C 389.5 101.1 383.4 96.7 383.1 99.9 C 382.8 103.1 388.9 101.4 393.3 105.1 C 397.7 108.8 395 115.6 395 115.6 C 395 115.6 394.1 109.2 390.3 109.8 C 390.3 109.8 391.8 113.3 391.8 114.7 C 391.8 114.7 390.6 111.2 387.1 111.2 C 383.6 111.2 377.2 111.2 374.6 108.6 C 374.6 108.6 375.8 112.6 379.8 113.8 C 379.8 113.8 372.2 112.6 369.9 108.9 C 367.6 105.1 367.3 110.4 367.3 110.4 C 367.3 110.4 363.2 107.8 363.2 105.2 C 363.2 105.2 358.3 105.2 355.6 101.7 C 355.6 101.7 354.4 104.9 357.3 107.5 C 357.3 107.5 351.5 104.6 351.5 100.2 C 351.8 95.9 343.3 89.8 343.3 89.8 Z " fill="#EF8A2E" stroke-width="1" stroke="none"/>
                <path d="M 348 91 C 348 91 350.9 89.6 355.4 89.5 C 359.9 89.3 363.8 92.3 363.8 92.3 C 363.8 92.3 361 90.9 360.2 92.3 C 359.3 93.7 365.7 93.2 368.5 94.4 C 371.3 95.6 373.1 98 373.1 98 C 373.1 98 370.9 96.5 370 97.5 C 370 97.5 370.3 100.3 375.2 99 C 380.1 97.7 379.7 96.4 379.7 96.4 C 379.7 96.4 380.4 99.5 378.2 100.4 C 378.2 100.4 380.6 100.1 382.8 102.6 C 385 105.1 387.6 105.7 391.1 105.9 C 391.1 105.9 386.8 109.9 383 107.6 C 379.2 105.3 375.8 106.2 377.5 107.9 C 377.5 107.9 373.4 107 372.7 104.8 C 372.7 104.8 370.3 106 368.1 104.3 C 365.9 102.6 362.6 102.8 361.4 100.7 C 361.4 100.7 361.9 102.8 364.2 104.1 C 364.2 104.1 358.5 102.7 357.7 99.1 C 356.8 95.5 353.7 97.4 355.1 100.1 C 355.1 100.1 352.2 97.5 351.7 94.8 C 350.9 92.1 348 91 348 91 Z " fill="#EFCE45" stroke-width="1" stroke="none"/>
                <path d="M 351.9 91.4 C 351.9 91.4 354.7 92.9 357.4 91.2 C 357.4 91.2 357.9 92.2 356.2 93.3 C 356.2 93.3 357.6 95 365 94.5 C 365 94.5 365.7 96.4 363.5 96.6 C 363.5 96.6 366.6 95.9 368.5 98.3 C 370.4 100.7 372.5 102.1 376.2 102.1 C 379.9 102.1 380.5 104.3 380.5 104.3 C 380.5 104.3 377.9 102.8 375.2 103.6 C 372.4 104.5 369.9 100.5 369.2 101.9 C 368.5 103.3 371.1 103.8 371.1 103.8 C 371.1 103.8 367 103.5 365.4 101.6 C 363.9 99.7 359.4 97.5 360.1 100.4 C 360.1 100.4 358 98.5 357.9 96.6 C 357.7 94.7 354.3 94.2 354.3 96.9 C 354.2 96.9 353.5 92.1 351.9 91.4 Z " fill="#FAFF97" stroke-width="1" stroke="none"/>
              </g>
              <path d="M 372.7 89.1 C 372.7 89.1 375.2 89.6 375.6 91.9 C 375.6 91.9 372.8 91.5 372.7 89.1 Z " fill="#E05B27" stroke-width="1" stroke="none"/>
              <path d="M 390.3 98.2 C 390.3 98.2 393.7 99.3 394.2 102 C 394.5 103.8 396.1 104.4 396.1 104.4 C 396.1 104.4 393.4 104.2 392.3 102 C 391.3 99.8 391.2 99 390.3 98.2 Z " fill="#E05B27" stroke-width="1" stroke="none"/>
              <path d="M 388.7 114.1 C 388.7 114.1 387.8 112.6 385.4 112.5 C 385.4 112.4 386.9 114.2 388.7 114.1 Z " fill="#E05B27" stroke-width="1" stroke="none"/>
              <path d="M 365.9 111.2 C 365.9 111.2 362.5 109.6 362.6 106.7 C 362.5 106.6 360.4 111.6 365.9 111.2 Z " fill="#E05B27" stroke-width="1" stroke="none"/>
              <path d="M 361.1 106.2 C 361.1 106.2 361.5 107.9 360.7 108.9 C 360.8 109 360.1 107.9 361.1 106.2 Z " fill="#E05B27" stroke-width="1" stroke="none"/>
            </g>
            <g id="Shape">
              <g>
                <path d="M 275.1 280 C 275.1 280 276.7 277.2 277.4 278.4 C 277.9 279.1 277.3 279.4 276.6 279.4 C 276 279.4 275.8 279.4 275.1 280 Z " fill="#A1AF93" stroke-width="1" stroke="none"/>
                <path d="M 286.3 179.6 C 292.9 189.1 292.8 210.5 281.1 225.2 C 269.4 239.9 278.8 256.8 283.4 262.6 C 289.2 269.9 292.6 270.2 293.4 273.6 C 294.3 277.1 286.3 282.7 274.5 266.3 C 264.5 252.4 253.7 242.9 258.5 229.9 C 263.7 215.7 255.5 208.6 253.3 195.1 C 251.1 181.8 275 163.5 286.3 179.6 Z " fill="#7CBF2E" stroke-width="1" stroke="none"/>
                <path d="M 258.8 228.7 C 258.8 228.7 259 228.4 259.2 227.7 C 259.4 227.1 259.7 226.2 260 225 C 260.1 224.4 260.2 223.8 260.3 223.2 C 260.4 222.5 260.4 221.8 260.4 221.1 C 260.4 220.4 260.4 219.6 260.3 218.9 C 260.2 218.1 260.2 217.4 260 216.6 C 259.8 215.8 259.7 215.1 259.5 214.3 C 259.3 213.6 259.1 212.8 258.9 212.2 C 258.7 211.5 258.4 210.9 258.2 210.2 C 257.9 209.6 257.7 209 257.5 208.5 C 257.3 208 257.1 207.5 256.8 207.1 C 256.6 206.7 256.4 206.3 256.2 206 C 255.9 205.4 255.7 205.1 255.7 205.1 C 255.7 205.1 255.8 205.5 256.1 206.1 C 256.3 206.7 256.8 207.6 257.1 208.7 C 257.3 209.2 257.5 209.8 257.7 210.4 C 257.9 211 258.1 211.7 258.3 212.4 C 258.5 213.1 258.7 213.8 258.8 214.5 C 259 215.2 259.1 216 259.2 216.7 C 259.3 217.4 259.4 218.2 259.5 218.9 C 259.5 219.6 259.6 220.4 259.6 221.1 C 259.6 221.8 259.6 222.5 259.6 223.1 C 259.6 223.8 259.5 224.4 259.4 224.9 C 259.3 225.5 259.2 226 259.1 226.4 C 259 226.9 258.9 227.2 258.8 227.6 C 258.9 228.3 258.8 228.7 258.8 228.7 Z " fill="#519B3D" stroke-width="1" stroke="none"/>
                <path d="M 282.3 261.2 C 282.3 261.2 282 260.8 281.5 260 C 281.2 259.6 281 259.1 280.6 258.6 C 280.3 258 279.9 257.4 279.6 256.7 C 279.2 256 278.9 255.3 278.5 254.4 C 278.1 253.6 277.8 252.7 277.5 251.8 C 277.2 250.9 276.9 249.9 276.6 249 C 276.4 248 276.1 247 276 246 L 275.8 244.5 C 275.8 244 275.7 243.5 275.7 243 C 275.6 242 275.7 241 275.7 240 C 275.7 239 275.9 238.1 276 237.2 C 276.1 236.8 276.1 236.3 276.2 235.9 C 276.3 235.5 276.4 235.1 276.5 234.7 C 276.7 234 276.8 233.2 277 232.7 C 277.2 232.1 277.4 231.6 277.6 231.2 C 277.9 230.3 278.1 229.9 278.1 229.9 C 278.1 229.9 277.9 230.4 277.5 231.2 C 277.3 231.6 277.1 232.1 276.8 232.7 C 276.5 233.3 276.4 234 276.2 234.7 C 276.1 235.1 276 235.5 275.9 235.9 C 275.8 236.3 275.7 236.7 275.7 237.2 C 275.6 238.1 275.3 239 275.3 240 C 275.3 241 275.2 242 275.3 243 C 275.3 243.5 275.4 244 275.4 244.6 L 275.6 246.2 C 275.7 247.2 276 248.3 276.3 249.3 C 276.6 250.3 276.9 251.3 277.2 252.2 C 277.6 253.1 277.9 254 278.3 254.8 C 278.7 255.6 279.1 256.4 279.5 257 C 279.9 257.7 280.3 258.3 280.6 258.8 C 281 259.3 281.3 259.8 281.6 260.1 C 281.9 260.8 282.3 261.2 282.3 261.2 Z " fill="#519B3D" stroke-width="1" stroke="none"/>
                <path d="M 292.8 271.7 C 294.4 272.9 298.5 275.3 300.3 275.4 C 302.1 275.5 302.3 273.7 304.7 274.2 C 307.1 274.8 307.3 277 306.2 278.3 C 305.1 279.5 304.7 279.5 303.8 279.4 C 303.8 279.4 304 280.3 303.5 281.3 C 302.9 282.6 301.6 282.7 300.4 282.2 C 299.2 281.7 298.7 281.9 298.7 281.9 C 298.7 281.9 299.1 283.6 298.1 284.6 C 296.7 285.9 295.4 285.5 293.9 283.9 C 292.4 282.3 290.4 282 287.3 282 C 285 282 283.9 280.7 282.6 279.5 C 281.7 278.7 280.6 278.2 279.8 278.7 C 278.6 279.5 277.1 280.1 276.5 278.8 C 275.4 276.5 279.3 276.5 279.3 275 C 279.3 272.7 274.8 268.5 278.7 267.8 C 282.6 267.1 289.9 269.5 292.8 271.7 Z " fill="#7CBF2E" stroke-width="1" stroke="none"/>
                <path d="M 278.7 276.1 C 278.7 276.1 278.8 276.1 279 275.9 C 279.2 275.8 279.3 275.5 279.4 275.1 C 279.5 274.7 279.4 274.2 279.3 273.7 C 279.2 273.2 278.9 272.6 278.6 272 C 278.3 271.4 277.9 270.8 277.5 270.1 C 277.1 269.5 276.6 268.8 276.2 268.1 C 275.2 266.7 274.2 265.3 273.2 263.9 C 272.1 262.5 271 261.1 270 259.8 C 269 258.5 268 257.3 267.1 256.3 C 265.4 254.3 264.2 252.9 264.2 252.9 C 264.2 252.9 265.2 254.3 266.8 256.5 C 268.4 258.6 270.5 261.5 272.6 264.3 C 273.6 265.7 274.7 267.1 275.7 268.5 C 276.2 269.2 276.6 269.8 277.1 270.5 C 277.5 271.1 277.9 271.7 278.3 272.3 C 278.6 272.9 278.9 273.4 279.1 273.9 C 279.3 274.4 279.4 274.8 279.4 275.2 C 279.4 275.6 279.3 275.9 279.1 276 C 278.8 276.1 278.7 276.1 278.7 276.1 Z " fill="#519B3D" stroke-width="1" stroke="none"/>
                <path d="M 303.8 279.5 C 303.8 279.5 303.8 279.3 303.7 279 C 303.7 278.9 303.6 278.7 303.5 278.5 C 303.4 278.3 303.3 278.1 303.1 277.9 C 302.7 277.5 302.1 277.1 301.4 277.1 C 301 277.1 300.7 277.1 300.3 277.1 C 299.9 277.2 299.6 277.3 299.3 277.3 C 298.7 277.4 298 277.3 297.4 277.2 C 296.8 277.1 296.2 276.9 295.7 276.7 C 295.2 276.5 294.8 276.3 294.6 276.2 C 294.3 276 294.2 275.9 294.2 275.9 C 294.2 275.9 294.3 276 294.5 276.3 C 294.7 276.5 295.1 276.8 295.5 277.1 C 296 277.4 296.6 277.6 297.2 277.8 C 297.9 278 298.6 278.1 299.3 278 C 299.7 278 300 277.9 300.3 277.8 C 300.6 277.7 300.9 277.7 301.2 277.7 C 301.5 277.7 301.8 277.8 302 277.9 C 302.2 278 302.5 278.1 302.7 278.3 C 303.1 278.6 303.3 279 303.5 279.2 C 303.8 279.3 303.8 279.5 303.8 279.5 Z " fill="#519B3D" stroke-width="1" stroke="none"/>
                <path d="M 298.8 282 C 298.8 282 298.8 281.4 298.4 280.7 C 298.2 280.3 297.8 280 297.3 279.7 C 297.1 279.6 296.8 279.4 296.5 279.4 C 296.2 279.3 295.9 279.3 295.7 279.2 C 294.6 279 293.5 279 292.8 278.9 C 292 278.8 291.5 278.6 291.5 278.6 C 291.5 278.6 291.6 278.7 291.8 278.8 C 292 278.9 292.3 279.1 292.7 279.2 C 293.5 279.5 294.6 279.6 295.6 279.7 C 296.6 279.8 297.5 280.3 298.1 280.9 C 298.4 281.2 298.5 281.5 298.6 281.7 C 298.8 281.9 298.8 282 298.8 282 Z " fill="#519B3D" stroke-width="1" stroke="none"/>
                <path d="M 299.2 286.1 C 299.2 286.1 299.3 281.8 297.3 282.6 C 296.1 283.1 296.7 283.8 297.6 284.3 C 298.3 284.9 298.7 285 299.2 286.1 Z " fill="#A1AF93" stroke-width="1" stroke="none"/>
                <path d="M 304.6 283.1 C 304.6 283.1 303.9 278.8 302.1 280 C 301 280.7 301.7 281.3 302.7 281.7 C 303.6 282.1 304 282.1 304.6 283.1 Z " fill="#A1AF93" stroke-width="1" stroke="none"/>
                <path d="M 308.7 279.2 C 308.7 279.2 306.6 275.4 305.3 277.1 C 304.5 278.2 305.4 278.5 306.4 278.5 C 307.4 278.5 307.7 278.5 308.7 279.2 Z " fill="#A1AF93" stroke-width="1" stroke="none"/>
              </g>
              <path d="M 290.6 199.8 C 290.6 199.8 290.8 198.5 290.9 196.5 C 290.9 195.5 290.9 194.3 290.9 193.1 C 290.8 191.9 290.7 190.5 290.5 189.2 C 290.4 188.5 290.3 187.9 290.1 187.2 C 290 186.6 289.8 185.9 289.6 185.3 C 289.5 184.7 289.2 184.1 289 183.6 C 288.8 183.1 288.5 182.6 288.3 182.1 C 288.1 181.6 287.8 181.3 287.6 180.9 C 287.5 180.7 287.4 180.6 287.3 180.4 C 287.2 180.3 287.1 180.2 287 180.1 C 286.6 179.7 286.4 179.5 286.4 179.5 C 286.4 179.5 286.6 179.8 286.9 180.2 C 287 180.3 287.1 180.4 287.2 180.6 C 287.3 180.7 287.4 180.9 287.5 181.1 C 287.7 181.5 287.9 181.8 288.1 182.3 C 288.3 182.8 288.5 183.2 288.7 183.8 C 288.9 184.3 289.1 184.9 289.2 185.5 C 289.4 186.1 289.5 186.7 289.6 187.3 C 289.7 187.9 289.8 188.6 289.9 189.2 C 290.1 190.5 290.2 191.8 290.3 193 C 290.4 194.2 290.5 195.4 290.5 196.4 C 290.6 198.4 290.6 199.8 290.6 199.8 Z " fill="#519B3D" stroke-width="1" stroke="none"/>
            </g>
            <g id="Shape">
              <g>
                <g>
                  <path d="M 200.8 161.1 C 211 176.7 205.8 210.9 192.7 216.3 C 172.7 224.5 161 231.7 154.6 234.6 C 148.3 237.4 147.4 240.3 142 267.5 C 140.6 274.3 131.6 284.4 131.4 269.7 C 131.4 266.8 130.9 244.5 133.9 237 C 139.5 223.3 145.5 224.7 150 220.9 C 155.7 216.2 161.6 206.8 154 192.1 C 139.5 164.1 175.5 122.4 200.8 161.1 Z " fill="#7CBF2E" stroke-width="1" stroke="none"/>
                  <path d="M 141.8 272.7 C 142.5 274.6 146.5 277.5 148.2 278 C 149.9 278.5 150.5 276.8 152.8 277.9 C 155 279 154.7 281.2 153.3 282.2 C 151.9 283.2 151.5 283 150.7 282.8 C 150.7 282.8 150.7 283.7 150 284.6 C 149.1 285.7 147.8 285.6 146.8 284.8 C 145.8 284 145.3 284.1 145.3 284.1 C 145.3 284.1 145.3 285.9 144.1 286.6 C 142.4 287.6 141.3 286.8 140.2 284.9 C 139.1 283 137.3 282.3 134.2 281.6 C 132 281.1 130.1 276.9 130.6 272.6 C 131.3 266.4 131.4 262.5 135.2 261.7 C 146.3 259.3 140.6 269.3 141.8 272.7 Z " fill="#7CBF2E" stroke-width="1" stroke="none"/>
                  <path d="M 150.7 282.8 C 150.7 282.8 150.7 282.6 150.7 282.3 C 150.7 282.1 150.7 282 150.6 281.7 C 150.5 281.5 150.5 281.2 150.3 281 C 150 280.5 149.5 280 148.8 279.8 C 148.5 279.7 148.1 279.6 147.7 279.6 C 147.3 279.6 147 279.6 146.7 279.5 C 146.1 279.4 145.4 279.2 144.8 278.9 C 144.2 278.6 143.7 278.4 143.3 278.1 C 142.9 277.8 142.5 277.5 142.3 277.3 C 142.1 277.1 142 277 142 277 C 142 277 142.1 277.2 142.2 277.4 C 142.4 277.7 142.6 278 143 278.4 C 143.4 278.8 143.9 279.1 144.5 279.5 C 145.1 279.8 145.8 280.1 146.5 280.2 C 146.9 280.2 147.2 280.2 147.6 280.2 C 147.9 280.2 148.2 280.3 148.5 280.3 C 148.8 280.4 149.1 280.5 149.3 280.7 C 149.5 280.9 149.7 281 149.9 281.2 C 150.2 281.6 150.4 282 150.4 282.3 C 150.7 282.6 150.7 282.8 150.7 282.8 Z " fill="#519B3D" stroke-width="1" stroke="none"/>
                  <path d="M 145.3 284.1 C 145.3 284.1 145.5 283.5 145.2 282.7 C 145.1 282.3 144.8 281.8 144.4 281.5 C 144.2 281.3 144 281.1 143.7 281 C 143.5 280.8 143.2 280.7 142.9 280.6 C 141.9 280.2 140.8 279.9 140.1 279.7 C 139.3 279.4 138.9 279.1 138.9 279.1 C 138.9 279.1 139 279.2 139.1 279.4 C 139.3 279.6 139.5 279.8 139.9 280 C 140.6 280.4 141.7 280.8 142.6 281.2 C 143.6 281.6 144.4 282.2 144.7 282.9 C 144.9 283.2 145 283.5 145.1 283.8 C 145.3 284 145.3 284.1 145.3 284.1 Z " fill="#519B3D" stroke-width="1" stroke="none"/>
                  <path d="M 144.7 288.2 C 144.7 288.2 145.7 284 143.6 284.4 C 142.3 284.6 142.8 285.5 143.5 286.2 C 144.2 286.8 144.5 287 144.7 288.2 Z " fill="#A1AF93" stroke-width="1" stroke="none"/>
                  <path d="M 150.7 286.5 C 150.7 286.5 151 282.2 148.9 282.9 C 147.6 283.4 148.3 284.1 149.1 284.7 C 150 285.3 150.3 285.4 150.7 286.5 Z " fill="#A1AF93" stroke-width="1" stroke="none"/>
                  <path d="M 155.5 283.7 C 155.5 283.7 154.3 279.5 152.7 280.9 C 151.7 281.7 152.5 282.2 153.4 282.5 C 154.4 282.7 154.8 282.7 155.5 283.7 Z " fill="#A1AF93" stroke-width="1" stroke="none"/>
                  <path d="M 156.8 210.9 C 156.8 210.9 157 210.6 157.1 210 C 157.3 209.4 157.5 208.5 157.5 207.4 C 157.6 206.9 157.6 206.3 157.6 205.6 C 157.6 205 157.6 204.3 157.5 203.6 C 157.4 202.9 157.4 202.2 157.2 201.5 C 157.1 200.8 156.9 200.1 156.8 199.4 C 156.6 198.7 156.4 198 156.2 197.3 C 156 196.6 155.8 196 155.5 195.3 C 155.3 194.7 155 194.1 154.8 193.5 C 154.5 192.9 154.3 192.4 154.1 191.9 C 153.7 190.9 153.2 190.1 152.9 189.6 C 152.6 189.1 152.4 188.7 152.4 188.7 C 152.4 188.7 152.5 189 152.8 189.6 C 153 190.2 153.4 191 153.8 192 C 154 192.5 154.2 193 154.4 193.6 C 154.6 194.2 154.8 194.8 155 195.4 C 155.2 196 155.4 196.7 155.6 197.4 C 155.8 198.1 156 198.8 156.1 199.5 C 156.3 200.2 156.4 200.9 156.6 201.6 C 156.8 202.3 156.8 203 156.9 203.6 C 157.1 204.9 157.2 206.2 157.1 207.2 C 157.1 208.3 157 209.2 156.9 209.8 C 157 210.6 156.8 210.9 156.8 210.9 Z " fill="#519B3D" stroke-width="1" stroke="none"/>
                  <path d="M 206.8 181.9 C 206.8 181.9 206.3 185.7 205.3 191.3 C 204.8 194.1 204.1 197.4 203.2 200.8 C 202.7 202.5 202.2 204.3 201.5 206 C 200.8 207.7 200 209.4 198.9 210.9 C 197.8 212.4 196.4 213.7 194.9 214.7 C 193.4 215.7 191.7 216.5 190.1 217.2 C 186.8 218.6 183.7 219.9 181.1 221.1 C 178.5 222.3 176.4 223.4 174.9 224.2 C 173.4 225 172.6 225.5 172.6 225.5 C 172.6 225.5 173.5 225.1 174.9 224.3 C 176.4 223.6 178.6 222.6 181.2 221.5 C 183.8 220.4 187 219.2 190.3 217.8 C 191.9 217.1 193.6 216.3 195.2 215.3 C 196.8 214.3 198.2 212.9 199.4 211.4 C 200.6 209.8 201.4 208.1 202.1 206.3 C 202.8 204.5 203.3 202.7 203.8 201 C 204.7 197.5 205.3 194.2 205.7 191.4 C 206.1 188.6 206.4 186.2 206.6 184.5 C 206.7 182.8 206.8 181.9 206.8 181.9 Z " fill="#519B3D" stroke-width="1" stroke="none"/>
                </g>
                <g>
                  <path d="M 178.5 163.6 C 182.3 158.5 184.5 151.7 177.2 151.7 C 170 151.7 159.3 155.5 160.1 162.4 C 161 169.1 174.7 168.7 178.5 163.6 Z " stroke-width="1" fill="#89CE30" stroke="none"/>
                  <path d="M 175.5 175.9 C 180.9 174 174.2 170.4 168.7 171.6 C 163.2 172.8 167 178.9 175.5 175.9 Z " stroke-width="1" fill="#89CE30" stroke="none"/>
                  <path d="M 184.9 165.7 C 188.8 164.3 188.3 169.1 185.8 170.8 C 183.3 172.5 180.2 167.4 184.9 165.7 Z " stroke-width="1" fill="#89CE30" stroke="none"/>
                </g>
              </g>
              <path d="M 157.9 233 C 157.9 233 157.5 233.1 156.7 233.4 C 155.9 233.7 154.8 234.1 153.6 234.8 C 153 235.1 152.3 235.5 151.6 235.9 C 151.3 236.1 150.9 236.4 150.6 236.7 C 150.3 237 150.1 237.4 149.8 237.8 C 148.8 239.3 148 241 147.4 242.8 C 146.8 244.6 146.3 246.4 145.8 248.1 C 145.4 249.8 145 251.4 144.7 252.8 C 144.4 254.2 144.2 255.3 144.1 256.1 C 144 256.9 143.9 257.4 143.9 257.4 C 143.9 257.4 144.4 255.6 145.1 252.9 C 145.4 251.5 145.9 250 146.4 248.3 C 146.9 246.6 147.4 244.8 148 243.1 C 148.6 241.4 149.3 239.6 150.3 238.2 C 150.5 237.9 150.8 237.5 151 237.2 C 151.2 236.9 151.6 236.7 151.9 236.4 C 152.5 235.9 153.2 235.6 153.8 235.2 C 155 234.5 156.1 234 156.8 233.6 C 157.4 233.3 157.9 233 157.9 233 Z " fill="#519B3D" stroke-width="1" stroke="none"/>
            </g>
            <g id="Shape">
              <path d="M 90.6 75.6 C 99.9 71.3 130 70.2 117.7 112.7 C 117.7 112.7 157.1 93.4 155.2 137.1 C 155.2 137.1 212.4 100.8 244.9 137.1 C 244.9 137.1 218.2 75.6 243.7 42 C 243.7 42 225.1 3.6 162.5 18.4 C 133.1 25.3 90.6 75.6 90.6 75.6 Z " fill="#B4D189" stroke-width="1" stroke="none"/>
              <path d="M 267 140.7 C 267 140.7 234.5 109.4 237.5 88.8 C 240.5 68.1 259.9 44 257 32.2 C 254.1 20.4 245.8 11.5 235.8 13.3 C 235.8 13.3 248.2 15.1 247 25.7 C 247 25.7 205.6 7.1 166.4 13 C 135.5 17.6 84.8 81.8 84.8 81.8 C 84.8 81.8 146 24.2 169.1 21.5 C 192.3 18.8 231 24.6 235.2 34.5 C 235.2 34.5 186.2 23.3 172.1 35.1 C 157.9 46.9 134.9 69.9 114.9 118.3 C 114.9 118.3 158.8 51.4 176.5 44.3 C 194.2 37.2 234 44 234 44 C 234 44 184.4 53.4 172 81.8 C 159.6 110.1 153.1 143.2 153.1 143.2 C 153.1 143.2 177.1 78.8 196.8 68.4 C 215.8 58.4 233.3 54.1 233.3 54.1 C 233.3 54.1 222 80.7 226.6 100.8 C 231.7 123.2 243.2 129.4 247.6 144.6 C 250.5 154.2 268.8 149 267 140.7 Z " fill="#7CBF2E" stroke-width="1" stroke="none"/>
              <path d="M 264.1 137.9 C 264.1 137.9 260.2 133.8 254.9 127.2 C 252.3 123.9 249.3 119.9 246.5 115.5 C 243.7 111.1 240.9 106.1 239.2 100.8 C 238.3 98.1 237.8 95.4 237.8 92.6 C 237.9 89.9 238.4 87.2 238.9 84.6 C 240.1 79.5 241.7 74.8 243.3 70.9 C 246.4 63.1 249.1 58.1 249.1 58.1 C 249.1 58.1 248.4 59.3 247.3 61.5 C 246.2 63.7 244.6 66.8 242.9 70.8 C 241.3 74.7 239.5 79.4 238.3 84.5 C 237.7 87.1 237.2 89.8 237.1 92.6 C 237.1 95.4 237.6 98.3 238.5 101 C 240.3 106.4 243.1 111.4 246 115.8 C 248.9 120.2 251.9 124.1 254.6 127.4 C 257.3 130.7 259.7 133.3 261.4 135.1 C 263.1 136.9 264.1 137.9 264.1 137.9 Z " fill="#519B3D" stroke-width="1" stroke="none"/>
              <path d="M 237.4 43.3 C 237.4 43.4 236.6 43.5 235.3 43.8 C 233.9 44.1 232 44.4 229.6 45 C 227.3 45.5 224.6 46.2 221.7 47.1 C 218.8 48 215.8 49 212.8 50.1 C 209.8 51.2 206.9 52.5 204.2 53.7 C 201.5 54.9 199 56.3 196.9 57.4 C 194.8 58.5 193.1 59.6 191.9 60.3 C 190.7 61.1 190.1 61.5 190.1 61.5 C 190.1 61.5 190.8 61.1 192 60.4 C 193.2 59.7 195 58.8 197.1 57.7 C 199.2 56.6 201.7 55.4 204.4 54.2 C 207.1 53 210.1 51.8 213 50.7 C 216 49.6 219 48.5 221.8 47.7 C 224.6 46.8 227.3 46 229.6 45.4 C 231.9 44.8 233.8 44.3 235.2 44 C 236.6 43.5 237.4 43.3 237.4 43.3 Z " fill="#519B3D" stroke-width="1" stroke="none"/>
              <path d="M 238.1 35.3 C 238.1 35.3 237.3 35 235.9 34.7 C 234.5 34.3 232.4 33.8 229.9 33.2 C 228.7 32.9 227.3 32.7 225.9 32.4 C 224.5 32.1 223 31.8 221.4 31.6 C 218.3 31.1 214.9 30.7 211.5 30.4 C 209.8 30.2 208.1 30.1 206.5 30 C 204.8 29.9 203.2 29.8 201.6 29.8 C 200 29.7 198.5 29.8 197 29.7 C 195.5 29.7 194.2 29.7 192.9 29.8 C 191.6 29.8 190.5 29.9 189.4 30 C 188.4 30.1 187.5 30.2 186.7 30.2 C 185.2 30.3 184.4 30.4 184.4 30.4 C 184.4 30.4 185.2 30.4 186.7 30.3 C 187.4 30.3 188.3 30.2 189.4 30.2 C 190.4 30.2 191.6 30.2 192.9 30.2 C 194.2 30.2 195.5 30.2 197 30.2 C 198.5 30.2 200 30.2 201.6 30.3 C 203.2 30.4 204.8 30.4 206.5 30.6 C 208.2 30.7 209.8 30.8 211.5 31 C 214.9 31.3 218.2 31.7 221.4 32.2 C 224.5 32.7 227.5 33.1 229.9 33.6 C 232.4 34.1 234.5 34.5 235.9 34.8 C 237.3 35 238.1 35.3 238.1 35.3 Z " fill="#519B3D" stroke-width="1" stroke="none"/>
              <path d="M 247 25.7 C 247 25.7 245.9 25.2 244 24.4 C 243 24 241.8 23.5 240.5 23 C 239.1 22.5 237.6 21.9 235.9 21.3 C 234.2 20.7 232.3 20.1 230.4 19.5 C 228.4 18.9 226.3 18.3 224.2 17.6 C 222 17.1 219.8 16.4 217.4 15.9 C 215.1 15.4 212.7 14.8 210.4 14.4 C 209.2 14.2 208 14 206.8 13.7 C 205.6 13.5 204.4 13.3 203.3 13.2 C 202.1 13 201 12.8 199.8 12.7 C 198.6 12.6 197.5 12.5 196.4 12.3 C 195.3 12.2 194.2 12 193.1 12 C 192 11.9 191 11.9 189.9 11.8 C 188.9 11.7 187.9 11.7 186.9 11.6 C 185.9 11.5 185 11.6 184.1 11.6 C 182.3 11.6 180.6 11.6 179.2 11.6 C 177.7 11.7 176.5 11.8 175.4 11.8 C 173.3 11.9 172.1 12 172.1 12 C 172.1 12 173.3 12 175.4 11.9 C 176.5 11.9 177.7 11.8 179.2 11.8 C 180.7 11.8 182.3 11.9 184.1 11.9 C 185 11.9 185.9 11.9 186.9 12 C 187.9 12.1 188.9 12.1 189.9 12.2 C 190.9 12.3 192 12.3 193.1 12.4 C 194.2 12.5 195.3 12.6 196.4 12.8 C 197.5 12.9 198.7 13.1 199.8 13.2 C 200.9 13.3 202.1 13.5 203.3 13.7 C 204.5 13.9 205.6 14.1 206.8 14.2 C 208 14.4 209.2 14.6 210.3 14.9 C 212.7 15.3 215 15.8 217.3 16.3 C 219.6 16.8 221.9 17.4 224 17.9 C 226.2 18.5 228.3 19 230.3 19.7 C 232.3 20.3 234.1 20.9 235.9 21.4 C 239.3 22.5 242.2 23.5 244.1 24.3 C 245.9 25.2 247 25.7 247 25.7 Z " fill="#519B3D" stroke-width="1" stroke="none"/>
              <path d="M 246.3 142.1 C 246.3 142.1 246.3 141.9 246.3 141.5 C 246.3 141.1 246.2 140.5 245.9 139.7 C 245.5 138.2 244.6 136.1 243.3 133.7 C 242.6 132.5 241.9 131.3 241 130 C 240.2 128.7 239.2 127.3 238.2 126 C 236.2 123.3 234.4 120.2 232.8 116.9 C 231.2 113.7 229.9 110.3 228.8 107.1 C 227.7 103.9 226.9 100.9 226.4 98.2 C 225.9 95.6 225.6 93.3 225.5 91.7 C 225.5 90.9 225.5 90.3 225.5 89.9 C 225.5 89.5 225.5 89.3 225.5 89.3 C 225.5 89.3 225.5 89.5 225.4 89.9 C 225.4 90.3 225.3 90.9 225.3 91.7 C 225.3 93.3 225.5 95.5 225.9 98.2 C 226.4 100.9 227.1 104 228.2 107.2 C 229.3 110.4 230.6 113.8 232.2 117.1 C 233.8 120.3 235.7 123.5 237.7 126.2 C 238.7 127.6 239.7 128.9 240.5 130.1 C 241.4 131.4 242.2 132.6 242.9 133.8 C 243.6 135 244.2 136 244.7 137 C 245.2 138 245.5 138.9 245.8 139.6 C 246.1 140.3 246.2 141 246.2 141.4 C 246.3 141.8 246.3 142.1 246.3 142.1 Z " fill="#519B3D" stroke-width="1" stroke="none"/>
              <path d="M 235.7 50.5 C 235.7 50.5 235.5 50.6 235.3 50.9 C 235.1 51.2 234.7 51.6 234.4 52.2 C 233.7 53.3 232.9 54.9 232.2 56.5 C 231.5 58.1 231 59.8 230.7 61.1 C 230.5 61.7 230.5 62.3 230.4 62.7 C 230.3 63.1 230.3 63.3 230.3 63.3 C 230.3 63.3 230.4 63.1 230.5 62.7 C 230.6 62.3 230.8 61.8 231.1 61.2 C 231.6 60 232.2 58.3 232.8 56.7 C 233.4 55.1 234.1 53.5 234.7 52.3 C 235.2 51.2 235.7 50.5 235.7 50.5 Z " fill="#519B3D" stroke-width="1" stroke="none"/>
              <path d="M 235.2 34.5 C 235.2 34.5 235.1 34.2 234.8 33.6 C 234.6 33.3 234.4 33 234.2 32.7 C 233.9 32.4 233.6 32 233.2 31.7 C 232.8 31.4 232.4 31 231.9 30.6 C 231.4 30.2 230.9 29.9 230.3 29.6 C 229.7 29.3 229.1 29 228.5 28.6 C 227.9 28.3 227.3 28 226.6 27.7 C 226 27.4 225.3 27.2 224.7 27 C 224.1 26.8 223.4 26.6 222.8 26.4 C 221.6 26 220.4 25.7 219.4 25.4 C 218.4 25.1 217.5 25 217 24.9 C 216.4 24.8 216.1 24.7 216.1 24.7 C 216.1 24.7 217.4 25.1 219.4 25.8 C 220.4 26.1 221.5 26.5 222.7 27 C 223.3 27.2 223.9 27.4 224.6 27.7 C 225.2 28 225.9 28.2 226.5 28.5 C 227.1 28.8 227.7 29.1 228.4 29.3 C 229 29.6 229.6 29.9 230.2 30.2 C 230.7 30.5 231.3 30.8 231.8 31.1 C 232.3 31.4 232.7 31.7 233.1 32 C 233.5 32.3 233.9 32.6 234.1 32.9 C 234.4 33.2 234.6 33.5 234.8 33.7 C 235.1 34.2 235.2 34.5 235.2 34.5 Z " fill="#519B3D" stroke-width="1" stroke="none"/>
              <path d="M 246.2 20.1 C 246.2 20.1 246.4 20.9 246.6 22.1 C 246.7 22.7 246.8 23.4 246.8 24.1 C 246.8 24.8 246.7 25.6 246.4 26.3 C 246.3 26.5 246.2 26.6 246.1 26.8 C 246 27 245.9 27.1 245.7 27.3 C 245.5 27.7 245.3 28.1 245.2 28.5 C 245.1 29.3 245.3 30.1 245.6 30.7 C 245.9 31.3 246.4 31.6 246.7 31.7 C 247 31.8 247.3 31.8 247.3 31.8 C 247.3 31.8 247.1 31.8 246.8 31.6 C 246.5 31.4 246.2 31 245.9 30.5 C 245.7 30 245.5 29.3 245.7 28.6 C 245.8 28.3 245.9 27.9 246.1 27.6 C 246.2 27.4 246.3 27.3 246.4 27.1 C 246.5 26.9 246.7 26.7 246.8 26.5 C 247.2 25.7 247.2 24.8 247.2 24 C 247.2 23.2 247 22.5 246.8 21.9 C 246.6 20.8 246.2 20.1 246.2 20.1 Z " fill="#519B3D" stroke-width="1" stroke="none"/>
              <path d="M 219 122.2 C 219 122.2 218.8 122.1 218.3 122 C 217.8 121.9 217.1 121.7 216.2 121.5 C 215.3 121.3 214.2 121.2 212.9 121 C 211.6 120.8 210.2 120.8 208.6 120.7 C 207.8 120.7 207 120.7 206.1 120.7 C 205.3 120.7 204.4 120.8 203.5 120.8 C 201.7 120.8 199.8 121.1 197.8 121.3 C 196.8 121.4 195.8 121.6 194.8 121.8 C 193.8 122 192.8 122.1 191.8 122.3 C 190.8 122.5 189.8 122.7 188.8 123 L 187.3 123.3 L 185.8 123.7 C 183.8 124.3 181.7 124.8 179.8 125.5 C 178.8 125.8 177.9 126.2 176.9 126.5 C 176.4 126.7 175.9 126.8 175.5 127 C 175 127.2 174.6 127.4 174.1 127.6 C 172.3 128.3 170.5 129.1 168.9 129.8 C 167.3 130.6 165.7 131.3 164.3 132 C 163.6 132.3 162.9 132.7 162.3 133 C 161.7 133.4 161.1 133.7 160.5 134 C 159.4 134.6 158.4 135.2 157.6 135.6 C 156 136.5 155.1 137 155.1 137 C 155.1 137 156 136.5 157.7 135.7 C 158.5 135.3 159.5 134.8 160.6 134.2 C 161.2 133.9 161.8 133.6 162.4 133.3 C 163.1 133 163.7 132.7 164.4 132.4 C 165.8 131.7 167.4 131 169 130.3 C 170.7 129.6 172.4 128.9 174.2 128.2 C 174.7 128 175.1 127.8 175.6 127.6 C 176.1 127.4 176.5 127.3 177 127.1 C 178 126.8 178.9 126.4 179.9 126.1 C 181.8 125.4 183.9 124.9 185.9 124.3 L 187.4 123.9 L 188.9 123.6 C 189.9 123.4 190.9 123.1 191.9 122.9 C 192.9 122.7 193.9 122.5 194.9 122.4 C 195.9 122.2 196.9 122 197.8 121.9 C 199.7 121.7 201.6 121.4 203.4 121.3 C 204.3 121.3 205.2 121.2 206 121.2 C 206.8 121.2 207.7 121.2 208.4 121.2 C 209.2 121.2 209.9 121.2 210.6 121.3 C 211.3 121.3 212 121.3 212.6 121.4 C 213.9 121.5 215 121.6 215.9 121.7 C 216.8 121.8 217.5 122 218 122.1 C 218.8 122.1 219 122.2 219 122.2 Z " fill="#7D9950" stroke-width="1" stroke="none"/>
              <path d="M 199 67.3 C 199 67.3 198.7 67.4 198.1 67.6 C 197.5 67.8 196.6 68.2 195.6 68.9 C 193.5 70.2 190.9 72.4 188.1 75.5 C 186.7 77.1 185.3 78.8 183.9 80.7 C 182.5 82.6 181.1 84.7 179.8 86.9 C 178.4 89.1 177.1 91.4 175.8 93.8 C 175.1 95 174.5 96.2 173.8 97.4 C 173.1 98.6 172.5 99.8 171.9 101.1 C 169.4 106 167 111 164.8 115.7 C 163.7 118 162.7 120.3 161.7 122.5 C 160.7 124.7 159.8 126.7 159 128.6 C 157.4 132.4 156 135.6 155.1 137.8 C 154.2 140 153.7 141.3 153.7 141.3 C 153.7 141.3 154.3 140 155.2 137.8 C 156.2 135.6 157.6 132.5 159.3 128.7 C 161 124.9 163 120.6 165.3 115.9 C 167.5 111.2 169.9 106.3 172.5 101.4 C 173.8 99 175 96.5 176.4 94.2 C 177.7 91.8 179 89.5 180.4 87.3 C 183.1 82.9 185.8 78.9 188.5 75.8 C 189.9 74.2 191.2 72.9 192.4 71.7 C 193.6 70.6 194.8 69.7 195.8 69 C 196.8 68.3 197.6 67.9 198.2 67.7 C 198.6 67.3 199 67.3 199 67.3 Z " fill="#519B3D" stroke-width="1" stroke="none"/>
              <path d="M 119 85.7 C 119 85.7 118.9 85.2 118.6 84.4 C 118.4 84 118.2 83.5 118 83 C 117.7 82.5 117.4 81.8 117 81.2 C 116.6 80.6 116 79.9 115.5 79.3 C 114.9 78.7 114.3 78 113.5 77.4 C 112.8 76.8 111.9 76.3 111.1 75.8 C 110.7 75.5 110.2 75.4 109.7 75.2 C 109.2 75 108.8 74.8 108.3 74.6 L 106.8 74.2 C 106.3 74.1 105.8 73.9 105.3 73.9 C 104.8 73.8 104.3 73.8 103.8 73.7 L 103.1 73.6 C 102.9 73.6 102.6 73.6 102.4 73.6 C 101.5 73.6 100.5 73.6 99.7 73.6 C 98.8 73.7 98 73.8 97.3 73.9 C 96.9 74 96.6 74 96.2 74 C 95.9 74.1 95.5 74.2 95.3 74.2 C 94.7 74.3 94.2 74.5 93.8 74.6 C 93 74.8 92.5 74.9 92.5 74.9 C 92.5 74.9 93 74.8 93.9 74.7 C 94.3 74.6 94.9 74.5 95.5 74.4 C 95.8 74.3 96.1 74.3 96.5 74.2 C 96.8 74.2 97.2 74.1 97.6 74.1 C 98.3 74 99.1 74 100 73.9 C 100.9 73.9 101.7 74 102.7 74 C 102.9 74 103.2 74 103.4 74 L 104.1 74.1 C 104.6 74.2 105 74.2 105.5 74.3 C 106 74.3 106.5 74.5 106.9 74.6 L 108.3 75 C 108.8 75.1 109.2 75.4 109.7 75.5 C 110.1 75.7 110.6 75.8 111 76.1 C 111.8 76.6 112.7 77 113.4 77.6 C 114.2 78.1 114.8 78.8 115.4 79.3 C 116 79.9 116.5 80.5 116.9 81.1 C 117.4 81.7 117.7 82.3 118 82.8 C 118.3 83.3 118.6 83.8 118.7 84.2 C 118.9 85.2 119 85.7 119 85.7 Z " fill="#7D9950" stroke-width="1" stroke="none"/>
              <path d="M 152.7 119.4 C 152.7 119.4 152.5 118.9 152.1 118 C 151.9 117.6 151.6 117 151.2 116.4 C 151 116.1 150.8 115.8 150.6 115.5 C 150.3 115.2 150.1 114.9 149.8 114.5 C 149.5 114.2 149.2 113.9 148.9 113.5 C 148.6 113.2 148.2 112.8 147.8 112.5 C 147.4 112.2 147 111.9 146.6 111.6 C 146.2 111.3 145.7 111 145.2 110.8 C 145 110.7 144.7 110.5 144.5 110.4 C 144.2 110.3 144 110.2 143.7 110.1 C 143.2 109.9 142.7 109.7 142.1 109.4 C 141.6 109.2 141 109.1 140.4 108.9 L 139.6 108.7 C 139.3 108.6 139 108.6 138.7 108.6 C 137.6 108.5 136.4 108.2 135.3 108.3 C 134.2 108.3 133 108.2 132 108.4 C 130.9 108.5 129.9 108.6 128.9 108.8 C 127.9 109 127 109.2 126.2 109.4 C 125.4 109.6 124.6 109.9 124 110.1 C 123.3 110.3 122.8 110.5 122.3 110.7 C 121.4 111 120.8 111.2 120.8 111.2 C 120.8 111.2 121.3 111 122.3 110.8 C 122.8 110.7 123.4 110.5 124 110.3 C 124.7 110.1 125.4 109.9 126.3 109.7 C 127.1 109.5 128 109.4 129 109.2 C 129.5 109.1 130 109.1 130.5 109 C 131 109 131.5 108.9 132.1 108.8 C 133.2 108.6 134.2 108.7 135.4 108.7 C 136.5 108.7 137.6 108.9 138.7 109 C 139 109 139.3 109.1 139.5 109.1 L 140.3 109.3 C 140.8 109.4 141.4 109.6 141.9 109.7 C 142.4 109.9 142.9 110.1 143.4 110.3 C 143.7 110.4 143.9 110.5 144.1 110.6 C 144.3 110.7 144.6 110.9 144.8 111 C 145.3 111.3 145.7 111.5 146.1 111.8 C 146.5 112.1 146.9 112.4 147.3 112.7 C 147.7 113 148 113.3 148.4 113.6 C 148.7 113.9 149.1 114.2 149.3 114.5 C 149.6 114.8 149.9 115.1 150.1 115.4 C 150.3 115.7 150.6 116 150.8 116.3 C 151.2 116.8 151.5 117.4 151.8 117.8 C 152.5 118.8 152.7 119.4 152.7 119.4 Z " fill="#7D9950" stroke-width="1" stroke="none"/>
              <path d="M 185.5 41.9 C 185.5 41.9 184.8 42 183.6 42.2 C 182.4 42.4 180.7 42.7 178.7 43.3 C 177.7 43.6 176.6 43.9 175.5 44.4 C 174.4 44.9 173.3 45.6 172.2 46.3 C 170 47.8 167.9 49.6 165.8 51.5 C 163.8 53.5 161.9 55.5 160.2 57.5 C 158.4 59.4 156.9 61.3 155.5 62.9 C 152.8 66.1 151.1 68.3 151.1 68.3 C 151.1 68.3 153 66.2 155.8 63.1 C 157.2 61.6 158.9 59.7 160.6 57.8 C 162.4 55.9 164.3 53.8 166.3 51.9 C 168.3 49.9 170.4 48.1 172.5 46.7 C 173.6 46 174.6 45.3 175.7 44.8 C 176.8 44.3 177.8 43.9 178.8 43.6 C 180.8 43 182.5 42.5 183.7 42.2 C 184.8 42 185.5 41.9 185.5 41.9 Z " fill="#519B3D" stroke-width="1" stroke="none"/>
              <path d="M 84.7 81.7 C 84.7 81.7 87.8 79 92.5 74.9 C 94.8 72.9 97.6 70.5 100.5 67.9 C 103.4 65.4 106.5 62.6 109.7 60 C 112.8 57.3 116 54.6 119 52.2 C 122 49.7 124.8 47.4 127.2 45.5 C 128.4 44.6 129.5 43.7 130.5 42.9 C 131.5 42.2 132.4 41.5 133.1 41 C 134.6 40 135.5 39.4 135.5 39.4 C 135.5 39.4 134.6 39.9 133.1 40.9 C 132.3 41.4 131.4 42 130.4 42.7 C 129.4 43.4 128.2 44.3 127 45.2 C 124.5 47.1 121.6 49.3 118.6 51.7 C 115.6 54.1 112.4 56.8 109.3 59.5 C 106.2 62.2 103.1 64.9 100.2 67.5 C 97.3 70.1 94.6 72.5 92.3 74.6 C 90 76.7 88.1 78.5 86.8 79.7 C 85.5 81 84.7 81.7 84.7 81.7 Z " fill="#519B3D" stroke-width="1" stroke="none"/>
            </g>
            <g>
              <path d="M 329.7 53.6 C 332.5 51.7 329.5 44.7 325.4 44 C 321.4 43.3 316.1 38.6 314.6 40.4 C 313.1 42.2 320.2 59.8 329.7 53.6 Z " id="Shape" fill="#69B229" stroke-width="1" stroke="none"/>
              <g>
                <g id="Shape">
                  <path d="M 335.7 49.1 C 335.7 49.1 330.6 38.4 324.3 35.2 C 318 32 313.7 33.5 308.6 26.7 C 308.6 26.7 310 33.9 315.2 36.8 C 324 41.6 327.2 52 327.2 52 C 327.2 52 331.2 47.8 335.7 49.1 Z " fill="#F1F2DC" stroke-width="1" stroke="none"/>
                  <path d="M 336.6 50 C 336.6 50 336.1 46.7 334 46 C 334 46 327.5 45.2 325.5 48.8 C 325.5 48.8 325.1 51.9 326.6 53 " fill="#7CBF2E" stroke-width="1" stroke="none"/>
                  <path d="M 335.7 47.9 C 335.7 47.9 335.7 47.7 335.6 47.3 C 335.5 47.1 335.4 46.9 335.2 46.7 C 335 46.5 334.8 46.3 334.5 46.1 C 334.2 45.9 333.8 45.8 333.4 45.7 C 333 45.6 332.6 45.6 332.2 45.6 C 331.8 45.6 331.3 45.6 330.9 45.7 C 330.5 45.8 330 45.9 329.6 46 C 329.2 46.1 328.7 46.3 328.3 46.4 C 327.9 46.6 327.5 46.7 327.1 47 C 326.3 47.4 325.7 48 325.4 48.6 C 325 49.2 325 49.8 325.1 50.2 C 325.2 50.6 325.3 50.8 325.3 50.8 C 325.3 50.8 325.2 50.6 325.2 50.2 C 325.2 49.8 325.3 49.3 325.7 48.8 C 326.1 48.3 326.7 47.9 327.4 47.5 C 327.8 47.3 328.1 47.2 328.5 47 C 328.9 46.9 329.3 46.7 329.7 46.6 C 330.1 46.5 330.5 46.4 331 46.3 C 331.4 46.2 331.8 46.2 332.2 46.1 C 332.6 46.1 333 46.1 333.3 46.1 C 333.7 46.1 334 46.2 334.3 46.3 C 334.6 46.4 334.8 46.6 335 46.7 C 335.2 46.9 335.3 47 335.4 47.2 C 335.7 47.6 335.7 47.9 335.7 47.9 Z " fill="#519B3D" stroke-width="1" stroke="none"/>
                  <path d="M 323.9 45.3 C 323.9 45.3 323.5 44.5 322.8 43.5 C 322.1 42.4 321 41.1 319.8 39.9 C 319.2 39.3 318.5 38.8 317.9 38.3 C 317.6 38.1 317.3 37.8 316.9 37.6 C 316.6 37.4 316.3 37.2 316 37.1 C 315.4 36.8 315 36.6 314.6 36.4 C 314.3 36.3 314.1 36.2 314.1 36.2 C 314.1 36.2 314.3 36.3 314.6 36.5 C 314.9 36.7 315.3 37 315.9 37.4 C 316.4 37.8 317 38.2 317.6 38.7 C 318.2 39.2 318.8 39.8 319.4 40.3 C 320.6 41.4 321.8 42.7 322.6 43.6 C 323.4 44.6 323.9 45.3 323.9 45.3 Z " fill="#C9BD9B" stroke-width="1" stroke="none"/>
                  <path d="M 320.4 33.6 C 320.4 33.6 319.6 33.4 318.3 32.9 C 317.1 32.4 315.5 31.8 314 31 C 313.6 30.8 313.2 30.6 312.9 30.4 C 312.6 30.2 312.2 30 311.9 29.7 C 311.6 29.5 311.2 29.2 311 29 C 310.7 28.8 310.4 28.6 310.2 28.3 C 310 28.1 309.8 27.9 309.6 27.7 C 309.4 27.5 309.3 27.3 309.1 27.2 C 308.8 26.9 308.7 26.7 308.7 26.7 C 308.7 26.7 308.8 26.9 309 27.2 C 309.2 27.5 309.5 28 309.9 28.5 C 310.1 28.8 310.4 29 310.6 29.3 C 310.9 29.6 311.2 29.8 311.5 30.1 C 311.8 30.4 312.2 30.6 312.5 30.9 C 312.9 31.2 313.3 31.4 313.6 31.6 C 314.4 32 315.2 32.4 316 32.7 C 316.8 33 317.5 33.2 318.2 33.3 C 319.5 33.5 320.4 33.6 320.4 33.6 Z " fill="#C9BD9B" stroke-width="1" stroke="none"/>
                </g>
                <g>
                  <g>
                    <g>
                      <path d="M 344.3 77.7 C 344.1 78.6 343.7 82.6 344.6 82.9 C 345.5 83.1 347.4 79.5 347.6 78.6 C 347.8 77.7 347.3 76.8 346.4 76.5 C 345.5 76.2 344.6 76.7 344.3 77.7 Z " id="Shape" stroke-width="1" fill="#D1CD9B" stroke="none"/>
                      <circle id="Oval" transform="matrix(-0.9825297418248925,-0.18610563244971956,-0.18610563244971956,0.9825297418248925,353.374914601075,72.56017045118824)" cx="2.29621" cy="7.60337" r="1.69994854" stroke-width="1" fill="#D1CD9B" stroke="none"/>
                      <circle id="Oval" transform="matrix(-0.9825297418248925,-0.18610563244971956,-0.18610563244971956,0.9825297418248925,352.77249808014767,73.95050027489695)" cx="10.00281" cy="5.08985" r="1.69994854" stroke-width="1" fill="#D1CD9B" stroke="none"/>
                      <circle id="Oval" transform="matrix(-0.9825297418248925,-0.18610563244971956,-0.18610563244971956,0.9825297418248925,352.4629472607331,74.65177606629157)" cx="13.89283" cy="3.79171" r="1.69994854" stroke-width="1" fill="#D1CD9B" stroke="none"/>
                      <circle id="Oval" transform="matrix(-0.9825297418248925,-0.18610563244971956,-0.18610563244971956,0.9825297418248925,352.1542150866919,75.35493106412605)" cx="17.79245" cy="2.49887" r="1.69994854" stroke-width="1" fill="#D1CD9B" stroke="none"/>
                    </g>
                    <g>
                      <circle id="Oval" transform="matrix(-0.9928337127034852,-0.11950405398735826,-0.11950405398735826,0.9928337127034852,343.6146050147825,81.25292148285894)" cx="1.30154" cy="13.58893" r="1" stroke-width="1" fill="#D1CD9B" stroke="none"/>
                      <circle id="Oval" transform="matrix(-0.9928337127034852,-0.11950405398735826,-0.11950405398735826,0.9928337127034852,343.34106619483316,81.4171984692779)" cx="2.80804" cy="11.39032" r="1" stroke-width="1" fill="#D1CD9B" stroke="none"/>
                      <path d="M 336.7 89.4 C 336.3 89.8 336.2 90.4 336.6 90.8 C 337 91.2 337.6 91.3 338 90.9 C 338.4 90.5 339.6 88.7 339.2 88.2 C 338.8 87.7 337.2 89 336.7 89.4 Z " id="Shape" stroke-width="1" fill="#D1CD9B" stroke="none"/>
                      <circle id="Oval" transform="matrix(-0.9928337127034852,-0.11950405398735826,-0.11950405398735826,0.9928337127034852,342.75689155779594,81.76529703325828)" cx="6.00255" cy="6.69356" r="1" stroke-width="1" fill="#D1CD9B" stroke="none"/>
                      <circle id="Oval" transform="matrix(-0.9928337127034852,-0.11950405398735826,-0.11950405398735826,0.9928337127034852,342.4479554307363,81.91467480593292)" cx="7.40252" cy="4.19236" r="1" stroke-width="1" fill="#D1CD9B" stroke="none"/>
                      <circle id="Oval" transform="matrix(-0.9928337127034852,-0.11950405398735826,-0.11950405398735826,0.9928337127034852,342.126758069618,82.06335928727557)" cx="8.80284" cy="1.58858" r="1" stroke-width="1" fill="#D1CD9B" stroke="none"/>
                    </g>
                    <path d="M 338.9 76.9 C 338.9 76.9 332.1 75.7 333.2 86.1 L 328.5 74.2 L 338.9 76.9 Z " id="Shape" fill="#C77866" stroke-width="1" stroke="none"/>
                    <path d="M 338.7 99.1 C 341 99.3 342.5 100 341.7 96.6 C 340.8 93.2 335 87.6 333.2 82.4 C 330 73.3 320.5 73.6 321.5 79.7 C 322.4 85.9 335.6 98.9 338.7 99.1 Z " id="Shape" fill="#D37F6C" stroke-width="1" stroke="none"/>
                    <path d="M 326.9 78.2 C 326.9 78.2 330 80 332.5 84.2 C 335 88.4 341.9 97.4 344.6 99.3 C 348.1 101.7 347.9 103.3 347.7 103.6 C 347.3 104 345.2 101.7 345.2 101.7 C 345.2 101.7 346.7 104.3 345.9 104.6 C 345.2 104.9 342.3 100.8 341.3 99.9 C 340.3 99 333.7 91.1 332 87.8 C 330.2 84.5 325.5 79.6 325.5 79.6 " id="Shape" fill="#E89182" stroke-width="1" stroke="none"/>
                    <path d="M 331.1 77.2 C 331.1 77.2 324.3 76 325.4 86.4 L 320.7 74.5 L 331.1 77.2 Z " id="Shape" fill="#E89182" stroke-width="1" stroke="none"/>
                    <g>
                      <path d="M 341.1 79.2 C 341 80.1 341.4 84.1 342.3 84.2 C 343.2 84.3 344.4 80.4 344.5 79.4 C 344.6 78.5 343.9 77.6 342.9 77.6 C 341.9 77.5 341.1 78.2 341.1 79.2 Z " id="Shape" stroke-width="1" fill="#F1F2DC" stroke="none"/>
                      <circle id="Oval" cx="2.3" cy="4.1" r="1.7" stroke-width="1" fill="#F1F2DC" stroke="none" transform="matrix(-1,0,0,1,349,76)"/>
                      <circle id="Oval" cx="10.3" cy="3" r="1.7" stroke-width="1" fill="#F1F2DC" stroke="none" transform="matrix(-1,0,0,1,349,76)"/>
                      <circle id="Oval" cx="14.4" cy="2.5" r="1.7" stroke-width="1" fill="#F1F2DC" stroke="none" transform="matrix(-1,0,0,1,349,76)"/>
                      <circle id="Oval" cx="18.5" cy="2" r="1.7" stroke-width="1" fill="#F1F2DC" stroke="none" transform="matrix(-1,0,0,1,349,76)"/>
                    </g>
                    <g>
                      <circle id="Oval" cx="1" cy="12.8" r="1" stroke-width="1" fill="#F1F2DC" stroke="none" transform="matrix(-1,0,0,1,336,83)"/>
                      <path d="M 332 93.7 C 331.7 94.1 331.8 94.8 332.2 95.1 C 332.6 95.4 333.3 95.3 333.6 94.9 C 333.9 94.5 334.8 92.5 334.3 92.2 C 333.8 91.9 332.3 93.3 332 93.7 Z " id="Shape" stroke-width="1" fill="#F1F2DC" stroke="none"/>
                      <circle id="Oval" cx="5.3" cy="9.3" r="1" stroke-width="1" fill="#F1F2DC" stroke="none" transform="matrix(-1,0,0,1,336,83)"/>
                      <circle id="Oval" cx="7" cy="7.1" r="1" stroke-width="1" fill="#F1F2DC" stroke="none" transform="matrix(-1,0,0,1,336,83)"/>
                      <circle id="Oval" cx="8.7" cy="4.7" r="1" stroke-width="1" fill="#F1F2DC" stroke="none" transform="matrix(-1,0,0,1,336,83)"/>
                      <circle id="Oval" cx="10.2" cy="1.9" r="1" stroke-width="1" fill="#F1F2DC" stroke="none" transform="matrix(-1,0,0,1,336,83)"/>
                    </g>
                  </g>
                  <g>
                    <g id="Shape">
                      <path d="M 325 45.2 C 333 46.5 337.7 47.9 340.6 56.2 C 343.5 64.5 346.7 67.5 353.3 71.3 C 359.7 75 357.7 79.9 356.2 82.1 C 356.2 82.1 351.4 82.4 347.6 80.1 C 344.6 78.3 339.1 78.8 334.6 78.3 C 330.6 77.9 323.5 76.8 323.5 76.8 C 325.8 92.3 336.1 97.3 340.2 99.4 C 340.2 99.4 333.9 99.5 327.4 90.9 C 320 81 304.3 80.6 305.4 67.8 C 306.7 53.9 313.5 43.2 325 45.2 Z " fill="#7CBF2E" stroke-width="1" stroke="none"/>
                      <path d="M 353.6 81.9 C 353.6 81.9 353.1 81.7 352.3 81.5 C 351.9 81.4 351.4 81.2 350.8 81 C 350.2 80.8 349.6 80.6 348.9 80.3 C 348.2 80 347.6 79.6 346.7 79.3 C 345.9 79 345 78.8 344.1 78.6 C 342.3 78.2 340.3 78.2 338.3 78.1 C 334.4 77.9 330.4 77.7 327.5 77.4 C 326 77.3 324.8 77.1 324 76.9 C 323.2 76.7 322.7 76.4 322.7 76.4 C 322.7 76.4 323.1 76.7 323.9 77 C 324.7 77.3 325.9 77.5 327.4 77.7 C 328.9 77.9 330.6 78.1 332.4 78.3 C 334.2 78.5 336.2 78.6 338.2 78.7 C 340.2 78.8 342.1 78.9 343.9 79.3 C 344.8 79.5 345.6 79.7 346.4 80 C 347.2 80.3 347.9 80.7 348.6 81 C 350 81.6 351.2 81.8 352.1 81.9 C 353.1 81.9 353.6 81.9 353.6 81.9 Z " fill="#519B3D" stroke-width="1" stroke="none"/>
                      <path d="M 337.1 59.6 C 337.1 59.6 337 58.8 336.7 57.5 C 336.5 56.9 336.3 56.2 336 55.4 C 335.9 55 335.7 54.7 335.5 54.3 C 335.3 53.9 335.1 53.6 334.9 53.2 C 334.4 52.5 333.9 51.8 333.4 51.2 C 333.1 50.9 332.8 50.6 332.5 50.4 C 332.2 50.2 331.9 50 331.7 49.8 C 331.1 49.5 330.7 49.3 330.3 49.1 C 329.9 49 329.7 48.9 329.7 48.9 C 329.7 48.9 329.9 49 330.2 49.2 C 330.4 49.3 330.6 49.4 330.8 49.5 C 331 49.7 331.2 49.8 331.5 50 C 331.7 50.2 332 50.4 332.2 50.7 C 332.5 50.9 332.7 51.2 333 51.5 C 333.3 51.8 333.5 52.1 333.7 52.4 C 333.9 52.7 334.2 53.1 334.4 53.4 C 335.3 54.8 336 56.3 336.4 57.5 C 336.8 58.8 337.1 59.6 337.1 59.6 Z " fill="#519B3D" stroke-width="1" stroke="none"/>
                      <path d="M 321.4 84.9 C 321.4 84.9 320.6 84.4 319.5 83.6 C 318.3 82.8 316.8 81.8 315.3 80.8 C 314.5 80.3 313.8 79.7 313.1 79.2 C 312.4 78.7 311.8 78.2 311.2 77.8 C 310.7 77.4 310.2 77 309.9 76.7 C 309.6 76.4 309.4 76.3 309.4 76.3 C 309.4 76.3 309.9 77.1 310.9 78.1 C 311.4 78.6 312 79.2 312.7 79.7 C 313.4 80.3 314.1 80.8 314.9 81.3 C 316.4 82.3 318.1 83.3 319.3 83.9 C 320.5 84.6 321.4 84.9 321.4 84.9 Z " fill="#519B3D" stroke-width="1" stroke="none"/>
                      <path d="M 356.4 82 C 356.4 82 356.9 81.4 357.4 80 C 357.6 79.3 357.9 78.5 357.9 77.5 C 357.9 76.5 357.7 75.4 357 74.3 C 356.7 73.8 356.2 73.3 355.7 72.9 C 355.2 72.5 354.7 72 354.1 71.6 C 353 70.8 351.7 70 350.5 69.2 C 349.3 68.4 348.1 67.4 347 66.3 C 345.9 65.2 344.9 64 343.9 62.7 C 343 61.4 342.5 59.9 341.9 58.5 C 341.4 57 340.8 55.6 340.1 54.2 C 339.4 52.8 338.6 51.6 337.7 50.6 C 336.8 49.6 335.8 48.7 334.7 48 C 332.7 46.7 330.7 46.1 329.3 45.8 C 328.6 45.6 328.1 45.5 327.7 45.5 C 327.3 45.4 327.1 45.4 327.1 45.4 C 327.1 45.4 327.3 45.4 327.7 45.5 C 328.1 45.6 328.6 45.7 329.3 45.9 C 330.6 46.3 332.5 46.9 334.5 48.3 C 335.5 49 336.4 49.8 337.3 50.9 C 338.2 51.9 338.9 53.2 339.6 54.5 C 340.3 55.8 340.8 57.3 341.3 58.7 C 341.9 60.2 342.4 61.7 343.3 63.1 C 344.3 64.4 345.3 65.6 346.5 66.7 C 347.6 67.8 348.9 68.8 350.1 69.6 C 351.4 70.4 352.6 71.1 353.7 71.9 C 354.3 72.3 354.8 72.7 355.3 73.1 C 355.8 73.5 356.2 73.9 356.5 74.4 C 357.2 75.4 357.4 76.4 357.4 77.4 C 357.4 78.4 357.3 79.2 357.1 79.9 C 356.8 81.4 356.4 82 356.4 82 Z " fill="#519B3D" stroke-width="1" stroke="none"/>
                    </g>
                    <path d="M 331.4 66.7 C 331.4 66.7 331.5 66.4 331.6 65.9 C 331.6 65.4 331.5 64.7 331.1 64.2 C 331 64.1 330.9 63.9 330.8 63.8 C 330.7 63.7 330.5 63.6 330.4 63.5 C 330.1 63.4 329.8 63.2 329.6 63.2 C 329.4 63.1 329.2 63.2 329 63.2 C 328.9 63.2 328.8 63.2 328.8 63.2 C 328.8 63.2 328.9 63.2 329 63.3 C 329.1 63.4 329.3 63.4 329.5 63.6 C 329.7 63.7 329.9 63.9 330.1 64 C 330.3 64.2 330.5 64.4 330.7 64.6 C 331 65 331.2 65.5 331.4 66 C 331.3 66.4 331.4 66.7 331.4 66.7 Z " id="Shape" fill="#519B3D" stroke-width="1" stroke="none"/>
                    <ellipse id="Oval" fill="#283F1F" transform="matrix(-0.17640321679595292,-0.9843179898305425,-0.9843179898305425,0.17640321679595292,356.3505255934844,94.91044191545335)" cx="31.24743" cy="24.46954" rx="1.99996345" ry="1" stroke-width="1" stroke="none"/>
                    <path d="M 350.7 77.1 C 350.7 77.1 350.9 77.1 351.1 76.9 C 351.2 76.8 351.3 76.7 351.4 76.5 C 351.5 76.3 351.5 76.1 351.4 75.9 C 351.3 75.5 350.9 75.2 350.7 75.1 C 350.6 75 350.4 75 350.4 75 C 350.3 75 350.3 75 350.3 75 C 350.3 75 350.3 75 350.4 75.1 C 350.4 75.2 350.5 75.3 350.6 75.4 C 350.7 75.6 350.9 75.9 350.9 76.1 C 351 76.3 351 76.6 350.9 76.8 C 350.8 76.9 350.7 77.1 350.7 77.1 Z " id="Shape" fill="#34662D" stroke-width="1" stroke="none"/>
                    <path d="M 329.8 68.6 C 329.8 68.6 329.7 68.1 329.1 67.4 C 328.8 67.1 328.5 66.7 328 66.5 C 327.6 66.2 327 66 326.5 65.9 C 326.2 65.9 326 65.8 325.7 65.8 C 325.4 65.8 325.2 65.8 324.9 65.8 C 324.4 65.8 323.9 65.9 323.5 66.1 C 323.1 66.2 322.8 66.4 322.6 66.5 C 322.4 66.6 322.3 66.7 322.3 66.7 C 322.3 66.7 322.4 66.7 322.7 66.7 C 322.9 66.7 323.3 66.6 323.6 66.6 C 323.8 66.6 324 66.6 324.2 66.5 C 324.4 66.5 324.6 66.5 324.9 66.5 C 325.1 66.5 325.4 66.5 325.6 66.5 C 325.8 66.5 326.1 66.6 326.3 66.6 C 326.5 66.7 326.8 66.7 327 66.8 C 327.2 66.9 327.5 67 327.7 67.1 C 328.1 67.3 328.5 67.6 328.8 67.8 C 329.4 68.2 329.8 68.6 329.8 68.6 Z " id="Shape" fill="#519B3D" stroke-width="1" stroke="none"/>
                  </g>
                </g>
                <g id="Shape">
                  <path d="M 324.9 49.9 C 324.9 49.9 319.2 39.5 312.7 36.7 C 306.2 33.9 302 35.7 296.5 29.1 C 296.5 29.1 298.3 36.2 303.7 38.8 C 312.8 43.1 316.6 53.3 316.6 53.3 C 316.6 53.3 320.3 48.8 324.9 49.9 Z " fill="#F1F2DC" stroke-width="1" stroke="none"/>
                  <path d="M 325.8 50.8 C 325.8 50.8 325.1 47.5 322.9 46.9 C 322.9 46.9 316.4 46.5 314.5 50.2 C 314.5 50.2 314.3 53.3 315.8 54.3 " fill="#7CBF2E" stroke-width="1" stroke="none"/>
                  <path d="M 324.8 48.6 C 324.8 48.6 324.8 48.4 324.6 48 C 324.5 47.8 324.4 47.6 324.2 47.4 C 324 47.2 323.7 47 323.4 46.8 C 323.1 46.7 322.7 46.5 322.3 46.5 C 321.9 46.4 321.5 46.4 321.1 46.5 C 320.7 46.5 320.2 46.6 319.8 46.7 C 319.4 46.8 318.9 46.9 318.5 47.1 C 318.1 47.2 317.6 47.4 317.2 47.6 C 316.8 47.8 316.4 48 316 48.2 C 315.3 48.7 314.7 49.2 314.4 49.9 C 314.1 50.5 314.1 51.2 314.2 51.5 C 314.3 51.9 314.4 52.1 314.4 52.1 C 314.4 52.1 314.3 51.9 314.3 51.5 C 314.3 51.1 314.3 50.6 314.7 50.1 C 315 49.6 315.6 49.1 316.3 48.7 C 316.6 48.5 317 48.3 317.4 48.2 C 317.8 48 318.2 47.9 318.6 47.8 C 319 47.7 319.4 47.5 319.8 47.4 C 320.2 47.3 320.6 47.2 321 47.2 C 321.4 47.2 321.8 47.1 322.1 47.2 C 322.5 47.2 322.8 47.3 323.1 47.4 C 323.4 47.5 323.7 47.6 323.9 47.8 C 324.1 48 324.3 48.1 324.4 48.3 C 324.8 48.4 324.8 48.6 324.8 48.6 Z " fill="#519B3D" stroke-width="1" stroke="none"/>
                  <path d="M 312.9 46.8 C 312.9 46.8 312.5 46 311.7 45 C 310.9 44 309.8 42.7 308.5 41.6 C 307.8 41.1 307.2 40.5 306.5 40.1 C 306.2 39.9 305.8 39.7 305.5 39.5 C 305.2 39.3 304.9 39.2 304.6 39 C 304 38.7 303.5 38.5 303.2 38.4 C 302.8 38.3 302.6 38.2 302.6 38.2 C 302.6 38.2 302.8 38.3 303.1 38.5 C 303.4 38.7 303.9 39 304.4 39.3 C 304.9 39.6 305.5 40 306.2 40.5 C 306.8 41 307.5 41.5 308.1 42 C 309.4 43.1 310.6 44.2 311.5 45.1 C 312.3 46.1 312.9 46.8 312.9 46.8 Z " fill="#C9BD9B" stroke-width="1" stroke="none"/>
                  <path d="M 308.6 35.3 C 308.6 35.3 307.7 35.1 306.5 34.7 C 305.3 34.3 303.6 33.8 302 33 C 301.6 32.8 301.2 32.6 300.9 32.4 C 300.5 32.2 300.2 32 299.8 31.8 C 299.5 31.6 299.1 31.4 298.8 31.2 C 298.5 31 298.2 30.8 298 30.6 C 297.8 30.4 297.5 30.2 297.3 30 C 297.1 29.8 297 29.6 296.8 29.5 C 296.5 29.2 296.4 29.1 296.4 29.1 C 296.4 29.1 296.5 29.3 296.7 29.6 C 296.9 29.9 297.2 30.4 297.7 30.9 C 297.9 31.2 298.2 31.4 298.5 31.6 C 298.8 31.9 299.1 32.1 299.4 32.3 C 299.7 32.6 300.1 32.8 300.5 33 C 300.9 33.2 301.3 33.4 301.7 33.6 C 302.5 34 303.3 34.3 304.1 34.5 C 304.9 34.7 305.7 34.9 306.3 35 C 307.7 35.3 308.6 35.3 308.6 35.3 Z " fill="#C9BD9B" stroke-width="1" stroke="none"/>
                </g>
              </g>
              <g id="Shape">
                <path d="M 311.6 56.5 C 314.8 52.8 312.5 47.3 306.6 48 C 300.7 48.7 297.6 49.4 295.9 48.6 C 294.2 47.8 294.6 51.2 297 53.3 C 299.5 55.4 307.7 61 311.6 56.5 Z " fill="#7CBF2E" stroke-width="1" stroke="none"/>
                <path d="M 312.3 55.9 C 312.3 55.9 312 55.9 311.5 55.8 C 311 55.7 310.3 55.5 309.7 55.1 C 309 54.7 308.4 53.9 307.8 53.1 C 307.7 53 307.8 53 307.6 52.9 L 307.5 52.8 C 307.4 52.7 307.3 52.6 307.2 52.5 C 306.9 52.3 306.6 52.2 306.3 52.2 C 305.7 52.1 305.1 52 304.6 52 C 303.5 52 302.3 52 301.3 52 C 300.8 52 300.3 51.9 299.8 51.9 C 299.3 51.8 298.9 51.7 298.5 51.6 C 298.1 51.5 297.8 51.3 297.4 51.2 C 297.1 51 296.8 50.9 296.6 50.8 C 296.2 50.5 296 50.3 296 50.3 C 296 50.3 296.2 50.5 296.5 50.9 C 296.7 51.1 296.9 51.2 297.2 51.4 C 297.5 51.6 297.8 51.8 298.2 51.9 C 298.6 52.1 299 52.2 299.5 52.3 C 300 52.4 300.5 52.5 301 52.5 C 302.1 52.6 303.2 52.6 304.3 52.6 C 304.9 52.6 305.4 52.6 305.9 52.7 C 306.2 52.8 306.4 52.8 306.6 52.9 C 306.7 52.9 306.8 53 306.9 53.1 L 307 53.2 C 307 53.2 307.1 53.3 307.1 53.3 C 307.8 54.1 308.5 54.8 309.3 55.3 C 310.1 55.7 310.8 55.8 311.3 55.8 C 312.1 55.9 312.3 55.9 312.3 55.9 Z " fill="#519B3D" stroke-width="1" stroke="none"/>
                <path d="M 310.2 57.9 C 310.2 57.9 309.7 58 308.9 58 C 308.5 58 308 58 307.6 58 C 307.1 58 306.6 57.9 306.1 57.8 C 305.1 57.6 304.1 57.3 303.4 57.1 C 303 57 302.7 56.8 302.5 56.7 C 302.3 56.6 302.2 56.6 302.2 56.6 C 302.2 56.6 302.3 56.7 302.5 56.8 C 302.7 56.9 302.9 57.2 303.3 57.4 C 303.5 57.5 303.7 57.6 303.9 57.7 C 304.1 57.8 304.3 57.9 304.6 58 C 304.8 58.1 305.1 58.2 305.4 58.2 C 305.7 58.3 305.9 58.3 306.2 58.4 C 307.3 58.6 308.4 58.5 309.2 58.3 C 309.8 58.1 310.2 57.9 310.2 57.9 Z " fill="#519B3D" stroke-width="1" stroke="none"/>
                <path d="M 312.8 51.8 C 312.8 51.8 312.8 51.6 312.6 51.2 C 312.5 50.8 312.2 50.3 311.8 49.7 C 311.4 49.1 310.7 48.6 309.9 48.2 C 309.5 48 309 47.9 308.6 47.8 C 308.1 47.7 307.7 47.7 307.2 47.7 C 305.3 47.8 303.6 48.3 302.3 48.5 C 301 48.8 300.1 48.9 300.1 48.9 C 300.1 48.9 301 49 302.4 48.9 C 303.8 48.8 305.6 48.5 307.3 48.4 C 307.7 48.4 308.2 48.4 308.6 48.4 C 309 48.5 309.4 48.6 309.8 48.7 C 310.6 49 311.2 49.4 311.6 49.9 C 312.1 50.4 312.4 50.8 312.6 51.2 C 312.7 51.6 312.8 51.8 312.8 51.8 Z " fill="#519B3D" stroke-width="1" stroke="none"/>
              </g>
            </g>
          </g>
        </g>
      </g>
    </g>
  </g>
</svg>