<svg xmlns="http://www.w3.org/2000/svg" xmlns:xlink="http://www.w3.org/1999/xlink" width="406.1142578125" height="262.5" viewBox="7.385740280151367 18.799999237060547 406.1142578125 262.5" version="1.1" xml:space="preserve">
  <!-- Generator: Sketch 49.3 (51167) - http://www.bohemiancoding.com/sketch -->
  <defs/>
  <g>
    <title>dragon-b</title>
    <desc>Created with Sketch.</desc>
    <g id="dragon-b" fill-rule="evenodd">
      <g id="Dragon-Flying" fill-rule="nonzero">
        <g id="Flying">
          <g id="Group">
            <g id="Shape">
              <g>
                <path d="M 310.8 241.6 C 310.8 241.6 309.7 238.6 311.1 238.8 C 311.9 238.9 311.7 239.5 311.4 240.1 C 311 240.5 310.8 240.7 310.8 241.6 Z " fill="#A1AF93" stroke-width="1" stroke="none"/>
                <path d="M 324.3 242.7 C 324.1 244.7 325.3 246.2 324.6 247.9 C 323.2 251.3 322.4 253.6 323.2 256 C 324 258.3 318.9 260.8 318.2 259.1 C 317.6 257.5 318.2 257.1 319.1 255.7 C 319.1 255.7 317.9 256.8 316.8 256.9 C 315.4 257.1 314.7 255.9 314.5 254.7 C 314.4 253.4 315.5 252.2 315.5 252.2 C 315.5 252.2 313.8 252.8 312.9 251.4 C 311.8 249.8 312.5 249.7 313.8 248 C 314.8 246.6 315.4 244.9 314.9 243.1 C 314.3 240.9 315 239.3 314.2 237.4 C 313.8 236.3 312.5 240.2 311.6 239.8 C 310.3 239.2 310 238.1 310.7 236.9 C 312 234.7 312.9 234 314.2 233.1 C 316.2 231.9 317.3 225.9 319.9 228.7 C 322.7 231.7 324.7 239.1 324.3 242.7 Z " fill="#69B229" stroke-width="1" stroke="none"/>
                <path d="M 317.6 256.9 C 317.6 256.9 317.8 256.9 318.1 256.8 C 318.4 256.7 318.8 256.6 319.3 256.2 C 319.5 256 319.7 255.8 319.8 255.5 C 319.9 255.2 320.1 254.9 320.1 254.5 C 320.2 254.2 320.2 253.8 320.2 253.4 C 320.2 253 320.1 252.7 320.1 252.4 C 320.1 251.1 320.6 249.8 321 248.9 C 321.2 248.4 321.4 248.1 321.6 247.8 C 321.8 247.6 321.9 247.4 321.9 247.4 C 321.9 247.4 321.7 247.5 321.5 247.7 C 321.3 247.9 320.9 248.2 320.6 248.7 C 320 249.6 319.4 250.9 319.4 252.4 C 319.4 252.8 319.5 253.1 319.5 253.5 C 319.5 253.8 319.5 254.1 319.5 254.4 C 319.4 255 319.2 255.5 318.9 255.9 C 318.6 256.3 318.2 256.5 318 256.7 C 317.8 256.8 317.6 256.9 317.6 256.9 Z " fill="#519B3D" stroke-width="1" stroke="none"/>
                <path d="M 315.3 252.2 C 315.3 252.2 315.9 252.1 316.6 251.6 C 317 251.3 317.4 251 317.7 250.5 C 318 250 318.3 249.5 318.5 248.9 C 318.6 248.6 318.6 248.3 318.7 248.1 C 318.8 247.8 318.8 247.6 318.8 247.3 C 318.9 246.8 319 246.3 319 245.9 C 319.1 245.1 319.4 244.6 319.4 244.6 C 319.4 244.6 319.3 244.7 319.1 244.9 C 319 245.1 318.7 245.4 318.6 245.8 C 318.3 246.6 318 247.8 317.8 248.8 C 317.5 249.8 316.9 250.8 316.3 251.3 C 315.8 251.9 315.3 252.2 315.3 252.2 Z " fill="#519B3D" stroke-width="1" stroke="none"/>
                <path d="M 311.3 251.5 C 311.3 251.5 315.6 252 315 249.9 C 314.6 248.6 313.8 249.2 313.2 250 C 312.6 250.8 312.4 251.1 311.3 251.5 Z " fill="#A1AF93" stroke-width="1" stroke="none"/>
                <path d="M 313.7 257.2 C 313.7 257.2 318 256.9 317 255 C 316.4 253.8 315.7 254.5 315.3 255.4 C 314.9 256.3 314.8 256.6 313.7 257.2 Z " fill="#A1AF93" stroke-width="1" stroke="none"/>
                <path d="M 317.2 261.6 C 317.2 261.6 321.2 259.9 319.6 258.4 C 318.6 257.5 318.2 258.4 318.1 259.4 C 318 260.3 318.1 260.7 317.2 261.6 Z " fill="#A1AF93" stroke-width="1" stroke="none"/>
              </g>
              <g>
                <path d="M 303.1 180.8 C 307.5 191.5 303.2 210.4 289.3 223.1 C 284.6 227.3 285.4 229.2 285.4 229.2 C 285.4 229.2 291 228.5 300.7 229.6 C 308.2 230.5 315.3 226.9 318.6 227.8 C 322.1 228.7 325.2 237.3 303.1 240.8 C 264.5 247 257.6 235.7 265.1 224 C 273.3 211.2 266.7 202.5 267.5 188.9 C 268.3 175.3 295.6 162.7 303.1 180.8 Z " fill="#69B229" stroke-width="1" stroke="none"/>
                <path d="M 265.7 222.8 C 265.7 222.8 266 222.5 266.3 222 C 266.7 221.4 267.2 220.6 267.6 219.6 C 267.8 219.1 268.1 218.5 268.3 217.9 C 268.5 217.3 268.7 216.6 268.9 215.9 C 269.1 215.2 269.2 214.5 269.3 213.7 C 269.4 212.9 269.5 212.2 269.5 211.4 C 269.5 210.6 269.6 209.9 269.5 209.1 C 269.5 208.3 269.5 207.6 269.4 206.9 C 269.3 206.2 269.2 205.5 269.2 204.8 C 269.1 204.2 269 203.5 268.8 203 C 268.7 202.4 268.6 201.9 268.4 201.5 C 268.3 201.1 268.2 200.7 268.1 200.3 C 267.9 199.7 267.8 199.3 267.8 199.3 C 267.8 199.3 267.9 199.7 268 200.3 C 268.1 201 268.3 201.9 268.4 203 C 268.5 203.6 268.6 204.2 268.6 204.8 C 268.6 205.5 268.7 206.1 268.8 206.8 C 268.9 207.5 268.8 208.2 268.9 209 C 268.9 209.7 268.8 210.5 268.8 211.3 C 268.8 212.1 268.7 212.8 268.6 213.5 C 268.5 214.2 268.4 215 268.2 215.7 C 268 216.4 267.9 217.1 267.7 217.7 C 267.5 218.3 267.3 218.9 267.1 219.4 C 266.9 219.9 266.7 220.4 266.5 220.8 C 266.3 221.2 266.1 221.6 266 221.9 C 265.9 222.5 265.7 222.8 265.7 222.8 Z " fill="#519B3D" stroke-width="1" stroke="none"/>
                <path d="M 317.1 227.5 C 317.1 227.5 316.5 227.6 315.5 227.9 C 315 228 314.3 228.2 313.6 228.3 C 312.9 228.4 312 228.6 311.1 228.7 C 310.2 228.8 309.2 228.9 308.2 229 C 307.2 229.1 306.1 229.1 304.9 229.2 C 302.6 229.3 300.2 229.2 297.7 229.1 C 295.3 229.1 292.8 229 290.5 229 C 288.2 229 286 229.1 284.2 229.1 C 282.4 229.2 280.8 229.3 279.8 229.4 C 278.7 229.5 278.1 229.6 278.1 229.6 C 278.1 229.6 278.7 229.6 279.8 229.5 C 280.3 229.5 281 229.4 281.7 229.4 C 282.4 229.4 283.3 229.4 284.2 229.4 C 286 229.4 288.2 229.4 290.5 229.5 C 292.8 229.5 295.2 229.6 297.7 229.7 C 300.2 229.8 302.6 229.8 304.9 229.7 C 306.1 229.7 307.2 229.5 308.2 229.4 C 309.2 229.3 310.2 229.2 311.1 229 C 311.6 228.9 312 228.8 312.4 228.8 C 312.8 228.7 313.2 228.6 313.6 228.5 C 314.3 228.3 315 228.2 315.5 228 C 316.5 227.7 317.1 227.5 317.1 227.5 Z " fill="#519B3D" stroke-width="1" stroke="none"/>
                <path d="M 301.4 241.3 C 301.4 241.3 298.8 241.5 294.8 241.8 C 292.8 241.9 290.5 242.1 288.1 242.2 C 286.9 242.3 285.6 242.3 284.3 242.4 C 283 242.4 281.7 242.5 280.4 242.3 C 279.1 242.2 277.8 242.1 276.5 241.9 C 275.2 241.7 274 241.5 272.8 241.2 C 270.4 240.6 268.3 239.8 266.6 238.7 C 264.9 237.7 263.9 236.4 263.3 235.4 C 262.7 234.4 262.7 233.7 262.7 233.7 C 262.7 233.7 262.7 233.9 262.8 234.2 C 262.9 234.5 263 235 263.2 235.5 C 263.4 236 263.8 236.7 264.3 237.3 C 264.8 237.9 265.5 238.5 266.4 239.1 C 268 240.3 270.3 241.2 272.7 241.8 C 275.1 242.4 277.8 242.7 280.4 242.8 C 283.1 242.9 285.7 242.7 288.2 242.6 C 290.7 242.4 293 242.2 294.9 242 C 298.8 241.6 301.4 241.3 301.4 241.3 Z " fill="#519B3D" stroke-width="1" stroke="none"/>
                <path d="M 302.9 201.4 C 302.9 201.4 303.4 200.2 303.9 198.2 C 304.1 197.2 304.4 196.1 304.6 194.9 C 304.8 193.7 305 192.4 305.1 191 C 305.1 190.3 305.2 189.7 305.2 189 C 305.2 188.3 305.2 187.7 305.1 187.1 C 305.1 186.5 305 185.9 304.9 185.3 C 304.8 184.7 304.6 184.2 304.5 183.7 C 304.4 183.2 304.2 182.8 304 182.4 C 303.9 182.2 303.9 182 303.8 181.9 C 303.7 181.8 303.6 181.6 303.5 181.5 C 303.2 181 303 180.7 303 180.7 C 303 180.7 303.1 181 303.4 181.5 C 303.5 181.6 303.5 181.8 303.6 181.9 C 303.7 182.1 303.7 182.2 303.8 182.4 C 303.9 182.8 304.1 183.2 304.1 183.7 C 304.2 184.2 304.3 184.7 304.4 185.3 C 304.4 185.9 304.5 186.4 304.5 187.1 C 304.5 187.7 304.6 188.3 304.5 189 C 304.5 189.6 304.5 190.3 304.4 190.9 C 304.3 192.2 304.2 193.5 304 194.7 C 303.8 195.9 303.7 197.1 303.5 198 C 303.2 200.1 302.9 201.4 302.9 201.4 Z " fill="#519B3D" stroke-width="1" stroke="none"/>
              </g>
            </g>
            <g id="Shape">
              <g>
                <path d="M 124 264.6 C 122.8 266.2 120.6 270.4 120.5 272.2 C 120.5 274 122.3 274.1 121.8 276.6 C 121.3 279 119.1 279.3 117.8 278.2 C 116.5 277.1 116.6 276.7 116.6 275.8 C 116.6 275.8 115.7 276.1 114.7 275.6 C 113.4 275 113.2 273.7 113.7 272.6 C 114.2 271.5 113.9 270.9 113.9 270.9 C 113.9 270.9 112.2 271.4 111.2 270.4 C 109.8 269.1 110.2 267.7 111.8 266.2 C 113.3 264.7 113.5 262.7 113.4 259.5 C 113.3 257.2 117.3 255.2 120.5 250.4 C 124 245.2 127 247.5 129.4 250.6 C 133.8 256.1 128.5 259 124 264.6 Z " fill="#69B229" stroke-width="1" stroke="none"/>
                <path d="M 116.6 275.8 C 116.6 275.8 116.8 275.8 117.1 275.7 C 117.2 275.7 117.4 275.6 117.6 275.5 C 117.8 275.4 118 275.3 118.2 275.1 C 118.6 274.7 118.9 274.1 119 273.4 C 119 273 119 272.7 118.9 272.3 C 118.8 271.9 118.7 271.6 118.7 271.3 C 118.6 270.7 118.7 270 118.7 269.4 C 118.8 268.8 118.9 268.2 119.1 267.7 C 119.3 267.2 119.4 266.8 119.6 266.6 C 119.7 266.3 119.8 266.2 119.8 266.2 C 119.8 266.2 119.7 266.3 119.5 266.5 C 119.3 266.7 119 267.1 118.8 267.6 C 118.6 268.1 118.3 268.7 118.2 269.3 C 118.1 270 118 270.7 118.1 271.4 C 118.2 271.8 118.3 272.1 118.3 272.4 C 118.4 272.7 118.4 273 118.4 273.3 C 118.4 273.6 118.3 273.9 118.3 274.1 C 118.2 274.4 118.1 274.6 117.9 274.8 C 117.6 275.2 117.2 275.4 117 275.6 C 116.8 275.8 116.6 275.8 116.6 275.8 Z " fill="#519B3D" stroke-width="1" stroke="none"/>
                <path d="M 113.9 271 C 113.9 271 114.5 271 115.2 270.5 C 115.6 270.3 115.9 269.9 116.2 269.4 C 116.3 269.2 116.4 268.9 116.5 268.6 C 116.6 268.3 116.6 268 116.7 267.8 C 116.8 266.7 116.8 265.6 116.9 264.8 C 116.9 264 117.1 263.5 117.1 263.5 C 117.1 263.5 117 263.6 116.9 263.8 C 116.8 264 116.6 264.3 116.5 264.7 C 116.3 265.5 116.2 266.6 116.1 267.7 C 116 268.7 115.6 269.7 115 270.2 C 114.7 270.5 114.5 270.7 114.2 270.8 C 114.1 270.9 113.9 271 113.9 271 Z " fill="#519B3D" stroke-width="1" stroke="none"/>
                <path d="M 109.8 271.4 C 109.8 271.4 114.1 271.3 113.2 269.3 C 112.6 268.1 112 268.8 111.5 269.6 C 111 270.5 110.9 270.9 109.8 271.4 Z " fill="#A1AF93" stroke-width="1" stroke="none"/>
                <path d="M 113 276.8 C 113 276.8 117.3 275.9 116 274.2 C 115.2 273.1 114.7 273.9 114.3 274.8 C 114 275.7 114 276.1 113 276.8 Z " fill="#A1AF93" stroke-width="1" stroke="none"/>
                <path d="M 117 280.7 C 117 280.7 120.7 278.5 119 277.2 C 117.9 276.4 117.6 277.3 117.6 278.3 C 117.6 279.3 117.7 279.7 117 280.7 Z " fill="#A1AF93" stroke-width="1" stroke="none"/>
              </g>
              <path d="M 219.1 173.8 C 224.1 191.8 208.6 222.8 194.4 223.9 C 172.8 225.6 159.5 228.9 152.5 229.6 C 145.7 230.4 143.9 232.8 130.4 257.1 C 127 263.2 115.4 270 119.7 255.9 C 120.5 253.1 127 231.7 132.1 225.6 C 141.6 214.3 146.9 217.4 152.3 215.2 C 159.1 212.5 167.6 205.4 164.9 189 C 159.8 158 206.8 129.3 219.1 173.8 Z " fill="#69B229" stroke-width="1" stroke="none"/>
            </g>
            <g id="Shape">
              <path d="M 111.5 78.4 C 121 74.6 151.2 75.1 136.5 116.9 C 136.5 116.9 176.9 99.7 172.6 143.2 C 172.6 143.2 231.7 110 262.2 148 C 262.2 148 238.8 85.2 266.1 53 C 266.1 53 249.6 13.7 186.3 25.1 C 156.6 30.5 111.5 78.4 111.5 78.4 Z " fill="#A1C380" stroke-width="1" stroke="none"/>
              <path d="M 284.2 152.8 C 284.2 152.8 253.5 119.8 257.5 99.4 C 261.5 79 282.3 55.8 280 43.9 C 277.7 32 269.9 22.7 259.8 23.9 C 259.8 23.9 272.1 26.3 270.3 36.9 C 270.3 36.9 230 16.1 190.5 19.9 C 159.4 22.9 105.3 84.2 105.3 84.2 C 105.3 84.2 169.5 30 192.7 28.5 C 216 27 254.3 34.9 258 45.1 C 258 45.1 209.7 31.3 194.9 42.3 C 180.1 53.3 155.9 75.1 133.3 122.3 C 133.3 122.3 180.7 57.8 198.8 51.7 C 216.9 45.6 256.3 54.5 256.3 54.5 C 256.3 54.5 206.3 61.3 192.4 88.9 C 178.5 116.5 170.3 149.2 170.3 149.2 C 170.3 149.2 197.7 86.2 218 76.8 C 237.5 67.8 255.2 64.5 255.2 64.5 C 255.2 64.5 242.5 90.5 246 110.8 C 249.9 133.4 261 140.3 264.6 155.6 C 267 165.4 285.5 161.2 284.2 152.8 Z " fill="#69B229" stroke-width="1" stroke="none"/>
              <path d="M 281.5 149.9 C 281.5 149.9 277.8 145.6 272.9 138.7 C 270.4 135.3 267.7 131.2 265.1 126.6 C 262.5 122 260 116.9 258.5 111.5 C 257.8 108.8 257.4 106 257.5 103.3 C 257.7 100.6 258.4 97.9 259.1 95.4 C 260.6 90.3 262.5 85.8 264.2 81.9 C 267.8 74.2 270.7 69.4 270.7 69.4 C 270.7 69.4 269.9 70.6 268.7 72.7 C 267.5 74.8 265.7 77.9 263.9 81.7 C 262.1 85.5 260.1 90.1 258.6 95.2 C 257.9 97.8 257.2 100.4 257 103.2 C 256.8 106 257.2 108.9 258 111.6 C 259.5 117.1 262.1 122.2 264.7 126.8 C 267.4 131.4 270.2 135.5 272.7 138.9 C 275.2 142.3 277.5 145 279.1 146.9 C 280.5 148.8 281.5 149.9 281.5 149.9 Z " fill="#519B3D" stroke-width="1" stroke="none"/>
              <path d="M 259.8 53.9 C 259.8 54 259 54.1 257.6 54.2 C 256.2 54.4 254.2 54.6 251.9 55.1 C 249.5 55.5 246.8 56.1 243.9 56.8 C 241 57.5 237.9 58.4 234.9 59.3 C 231.9 60.3 228.9 61.4 226.1 62.5 C 223.3 63.6 220.8 64.8 218.6 65.8 C 216.4 66.8 214.7 67.8 213.5 68.5 C 212.3 69.2 211.6 69.6 211.6 69.6 C 211.6 69.6 212.3 69.2 213.6 68.6 C 214.8 68 216.6 67.1 218.8 66.2 C 221 65.2 223.5 64.2 226.3 63.1 C 229.1 62 232.1 61 235.1 60 C 238.1 59 241.2 58.2 244.1 57.4 C 247 56.7 249.7 56 252 55.6 C 254.3 55.1 256.3 54.7 257.7 54.5 C 259 54.1 259.8 54 259.8 53.9 Z " fill="#519B3D" stroke-width="1" stroke="none"/>
              <path d="M 261 46 C 261 46 260.2 45.7 258.8 45.2 C 257.4 44.7 255.4 44.1 252.9 43.4 C 251.7 43.1 250.3 42.7 248.9 42.4 C 247.5 42.1 246 41.7 244.4 41.4 C 241.3 40.8 238 40.1 234.6 39.6 C 232.9 39.3 231.2 39.2 229.6 39 C 227.9 38.8 226.3 38.7 224.7 38.5 C 223.1 38.3 221.6 38.3 220.1 38.2 C 218.6 38.1 217.3 38.1 216 38.1 C 214.7 38.1 213.6 38 212.5 38.1 C 211.5 38.1 210.6 38.2 209.8 38.2 C 208.3 38.2 207.5 38.3 207.5 38.3 C 207.5 38.3 208.3 38.3 209.8 38.3 C 210.5 38.3 211.4 38.3 212.5 38.3 C 213.5 38.3 214.7 38.4 216 38.5 C 217.3 38.5 218.6 38.6 220.1 38.7 C 221.5 38.8 223.1 38.9 224.7 39.1 C 226.3 39.3 227.9 39.4 229.6 39.6 C 231.2 39.8 232.9 40 234.6 40.3 C 237.9 40.8 241.3 41.4 244.4 42 C 247.5 42.6 250.4 43.2 252.9 43.9 C 255.4 44.5 257.4 45 258.8 45.4 C 260.2 45.7 261 46 261 46 Z " fill="#519B3D" stroke-width="1" stroke="none"/>
              <path d="M 270.3 36.9 C 270.3 36.9 269.2 36.3 267.3 35.4 C 266.4 34.9 265.2 34.4 263.9 33.8 C 262.6 33.2 261 32.5 259.4 31.9 C 257.7 31.2 255.9 30.5 254 29.8 C 252.1 29.1 250 28.4 247.9 27.6 C 245.7 26.9 243.5 26.2 241.2 25.5 C 238.9 24.9 236.6 24.2 234.3 23.6 C 233.1 23.3 232 23 230.8 22.8 C 229.6 22.6 228.5 22.3 227.3 22.1 C 226.1 21.9 225 21.6 223.8 21.4 C 222.7 21.2 221.5 21 220.4 20.9 C 219.3 20.7 218.2 20.5 217.1 20.4 C 216 20.3 215 20.2 213.9 20.1 C 212.9 20 211.9 19.9 210.9 19.8 C 209.9 19.7 209 19.7 208.1 19.6 C 206.3 19.5 204.6 19.4 203.2 19.3 C 201.7 19.3 200.5 19.3 199.4 19.3 C 197.3 19.3 196.1 19.3 196.1 19.3 C 196.1 19.3 197.3 19.3 199.4 19.4 C 200.5 19.4 201.7 19.5 203.2 19.5 C 204.7 19.6 206.3 19.7 208.1 19.9 C 209 20 209.9 20 210.9 20.1 C 211.9 20.2 212.9 20.3 213.9 20.5 C 214.9 20.6 216 20.8 217.1 20.9 C 218.2 21.1 219.3 21.3 220.4 21.4 C 221.5 21.6 222.6 21.8 223.8 22 C 224.9 22.2 226.1 22.5 227.2 22.7 C 228.4 22.9 229.5 23.2 230.7 23.4 C 231.9 23.7 233 24 234.2 24.3 C 236.5 24.8 238.9 25.5 241.1 26.1 C 243.4 26.7 245.6 27.5 247.7 28.1 C 249.8 28.8 251.9 29.5 253.9 30.2 C 255.8 30.9 257.7 31.6 259.4 32.2 C 262.8 33.5 265.5 34.7 267.5 35.5 C 269.2 36.3 270.3 36.9 270.3 36.9 Z " fill="#519B3D" stroke-width="1" stroke="none"/>
              <path d="M 263.4 153.1 C 263.4 153.1 263.4 152.9 263.4 152.5 C 263.4 152.1 263.3 151.5 263.1 150.7 C 262.7 149.2 262 147 260.8 144.6 C 260.2 143.4 259.5 142.1 258.7 140.7 C 257.9 139.4 257.1 138 256.1 136.5 C 254.3 133.7 252.6 130.5 251.2 127.2 C 249.8 123.9 248.6 120.5 247.7 117.2 C 246.8 114 246.1 110.9 245.7 108.2 C 245.3 105.5 245.1 103.3 245.2 101.7 C 245.2 100.9 245.2 100.3 245.3 99.9 C 245.3 99.5 245.4 99.3 245.4 99.3 C 245.4 99.3 245.4 99.5 245.3 99.9 C 245.2 100.3 245.2 100.9 245.1 101.7 C 245 103.3 245 105.6 245.4 108.2 C 245.7 110.9 246.3 114 247.2 117.3 C 248.1 120.6 249.2 124 250.7 127.4 C 252.1 130.7 253.8 134 255.7 136.8 C 256.6 138.2 257.5 139.6 258.3 140.9 C 259.1 142.2 259.8 143.5 260.5 144.7 C 261.1 145.9 261.7 147 262.1 148 C 262.5 149 262.8 149.9 263 150.7 C 263.2 151.5 263.3 152.1 263.3 152.5 C 263.4 152.8 263.4 153.1 263.4 153.1 Z " fill="#519B3D" stroke-width="1" stroke="none"/>
              <path d="M 257.7 61 C 257.7 61 257.5 61.1 257.3 61.4 C 257 61.7 256.7 62.1 256.3 62.6 C 255.5 63.7 254.6 65.2 253.9 66.8 C 253.2 68.4 252.6 70 252.2 71.3 C 252 71.9 251.9 72.5 251.8 72.8 C 251.7 73.2 251.7 73.4 251.7 73.4 C 251.7 73.4 251.8 73.2 252 72.9 C 252.2 72.6 252.4 72.1 252.6 71.5 C 253.1 70.3 253.8 68.7 254.5 67.1 C 255.2 65.5 256 64 256.6 62.8 C 257.2 61.8 257.7 61 257.7 61 Z " fill="#519B3D" stroke-width="1" stroke="none"/>
              <path d="M 258.1 45.1 C 258.1 45.1 258.1 44.7 257.8 44.2 C 257.7 43.9 257.5 43.6 257.2 43.3 C 257 42.9 256.6 42.6 256.3 42.2 C 255.9 41.8 255.5 41.4 255 41.1 C 254.5 40.7 254 40.4 253.5 40 C 253 39.6 252.4 39.3 251.8 38.9 C 251.2 38.6 250.6 38.2 250 37.9 C 249.4 37.6 248.7 37.3 248.1 37 C 247.5 36.7 246.8 36.5 246.2 36.3 C 245 35.8 243.8 35.5 242.9 35.1 C 241.9 34.8 241.1 34.6 240.5 34.4 C 239.9 34.3 239.6 34.2 239.6 34.2 C 239.6 34.2 240.9 34.7 242.8 35.4 C 243.8 35.8 244.9 36.2 246.1 36.7 C 246.7 37 247.3 37.2 247.9 37.5 C 248.5 37.8 249.1 38.1 249.7 38.4 C 250.3 38.7 250.9 39 251.5 39.3 C 252.1 39.6 252.7 40 253.2 40.3 C 253.7 40.7 254.3 41 254.7 41.3 C 255.2 41.6 255.6 42 256 42.3 C 256.4 42.6 256.7 43 257 43.3 C 257.3 43.6 257.5 43.9 257.7 44.1 C 258 44.7 258.1 45.1 258.1 45.1 Z " fill="#519B3D" stroke-width="1" stroke="none"/>
              <path d="M 269.8 31.3 C 269.8 31.3 270 32.1 270.1 33.3 C 270.2 33.9 270.2 34.6 270.2 35.3 C 270.2 36 270 36.8 269.7 37.5 C 269.6 37.7 269.5 37.8 269.4 37.9 C 269.3 38.1 269.1 38.2 269 38.4 C 268.7 38.8 268.6 39.2 268.5 39.6 C 268.3 40.4 268.5 41.2 268.8 41.8 C 269.1 42.4 269.5 42.7 269.9 42.9 C 270.2 43.1 270.5 43 270.5 43 C 270.5 43 270.3 43 270 42.8 C 269.7 42.6 269.4 42.2 269.2 41.7 C 269 41.2 268.9 40.5 269.1 39.8 C 269.2 39.5 269.4 39.1 269.6 38.9 C 269.7 38.8 269.9 38.6 270 38.4 C 270.2 38.2 270.3 38 270.4 37.8 C 270.8 37 270.9 36.1 270.9 35.3 C 270.9 34.5 270.8 33.8 270.6 33.2 C 270.2 32 269.8 31.3 269.8 31.3 Z " fill="#519B3D" stroke-width="1" stroke="none"/>
              <path d="M 237.3 131.8 C 237.3 131.8 237.1 131.7 236.6 131.6 C 236.1 131.4 235.4 131.3 234.5 131 C 233.6 130.8 232.5 130.6 231.3 130.4 C 230 130.2 228.6 130 227 129.9 C 226.2 129.9 225.4 129.8 224.5 129.7 C 223.7 129.6 222.8 129.7 221.9 129.7 C 220.1 129.6 218.2 129.8 216.2 129.9 C 215.2 130 214.2 130.1 213.2 130.2 C 212.2 130.3 211.2 130.4 210.1 130.6 C 209.1 130.8 208.1 130.9 207 131.1 L 205.4 131.4 L 203.9 131.7 C 201.9 132.2 199.8 132.6 197.8 133.2 C 196.8 133.5 195.8 133.8 194.8 134.1 C 194.3 134.2 193.8 134.4 193.4 134.5 C 192.9 134.7 192.5 134.8 192 135 C 190.1 135.6 188.3 136.3 186.7 136.9 C 185 137.6 183.5 138.3 182 138.9 C 181.3 139.2 180.6 139.5 179.9 139.8 C 179.3 140.1 178.6 140.4 178.1 140.7 C 177 141.3 176 141.8 175.1 142.2 C 173.5 143 172.5 143.5 172.5 143.5 C 172.5 143.5 173.5 143.1 175.1 142.3 C 175.9 141.9 177 141.5 178.1 141 C 178.7 140.7 179.3 140.5 180 140.2 C 180.7 139.9 181.4 139.7 182.1 139.4 C 183.6 138.8 185.1 138.2 186.8 137.5 C 188.5 136.9 190.3 136.3 192.2 135.7 C 192.7 135.5 193.1 135.4 193.6 135.2 C 194.1 135.1 194.6 134.9 195 134.8 C 196 134.5 197 134.3 197.9 134 C 199.9 133.4 201.9 133 204 132.5 L 205.5 132.2 L 207 131.9 C 208 131.7 209 131.5 210.1 131.4 C 211.1 131.2 212.1 131.1 213.1 131 C 214.1 130.9 215.1 130.7 216.1 130.7 C 218.1 130.6 219.9 130.4 221.7 130.4 C 222.6 130.4 223.5 130.4 224.3 130.4 C 225.1 130.4 226 130.5 226.7 130.5 C 227.5 130.5 228.2 130.6 228.9 130.7 C 229.6 130.8 230.3 130.8 230.9 130.9 C 232.2 131 233.3 131.2 234.2 131.4 C 235.1 131.6 235.8 131.7 236.3 131.9 C 237 131.7 237.3 131.8 237.3 131.8 Z " fill="#7D9950" stroke-width="1" stroke="none"/>
              <path d="M 220.2 75.9 C 220.2 75.9 219.9 75.9 219.3 76.1 C 218.7 76.3 217.9 76.6 216.8 77.2 C 215.8 77.8 214.6 78.5 213.3 79.5 C 212 80.5 210.6 81.7 209.2 83.1 C 207.8 84.5 206.3 86.1 204.9 87.9 C 203.4 89.7 202 91.6 200.5 93.6 C 199.1 95.6 197.6 97.8 196.2 100 C 195.5 101.1 194.8 102.2 194.1 103.3 C 193.4 104.4 192.7 105.6 192 106.7 C 190.6 109 189.3 111.3 188.1 113.6 C 186.8 115.9 185.6 118.1 184.4 120.3 C 182.1 124.7 180 128.8 178.2 132.4 C 176.4 136 175 139 174 141.1 C 173 143.2 172.4 144.4 172.4 144.4 C 172.4 144.4 174.8 139.7 178.5 132.6 C 180.3 129.1 182.5 125 184.9 120.6 C 186.1 118.4 187.3 116.2 188.6 113.9 C 189.9 111.6 191.2 109.3 192.6 107.1 C 193.3 106 193.9 104.8 194.6 103.7 C 195.3 102.6 196 101.5 196.7 100.4 C 198.1 98.2 199.5 96.1 200.9 94 C 202.3 92 203.8 90 205.2 88.3 C 206.6 86.5 208.1 84.9 209.4 83.5 C 212.2 80.7 214.8 78.6 216.8 77.4 C 217.8 76.8 218.6 76.5 219.2 76.2 C 219.8 75.9 220.2 75.9 220.2 75.9 Z " fill="#519B3D" stroke-width="1" stroke="none"/>
              <path d="M 139.3 89.9 C 139.3 89.9 139.2 89.4 138.9 88.6 C 138.8 88.2 138.6 87.7 138.3 87.1 C 138 86.5 137.8 85.9 137.3 85.3 C 136.9 84.6 136.4 84 135.9 83.3 C 135.3 82.7 134.7 81.9 134 81.3 C 133.3 80.6 132.5 80.1 131.6 79.5 C 131.2 79.2 130.7 79 130.3 78.8 C 129.8 78.6 129.4 78.3 128.9 78.1 L 127.5 77.6 C 127 77.4 126.5 77.3 126 77.2 C 125.5 77.1 125 77 124.5 76.9 L 123.8 76.8 C 123.6 76.8 123.3 76.8 123.1 76.8 C 122.2 76.7 121.2 76.7 120.4 76.7 C 119.5 76.8 118.7 76.8 118 76.9 C 117.6 76.9 117.3 76.9 116.9 77 C 116.6 77.1 116.2 77.1 115.9 77.2 C 115.3 77.3 114.8 77.4 114.3 77.5 C 113.4 77.7 113 77.8 113 77.8 C 113 77.8 113.5 77.7 114.4 77.7 C 114.8 77.7 115.4 77.6 116 77.5 C 116.3 77.5 116.6 77.4 117 77.4 C 117.3 77.4 117.7 77.4 118.1 77.4 C 118.8 77.4 119.7 77.4 120.5 77.3 C 121.4 77.3 122.2 77.5 123.2 77.5 C 123.4 77.5 123.7 77.5 123.9 77.6 L 124.6 77.7 C 125.1 77.8 125.5 77.9 126 78 C 126.5 78.1 126.9 78.2 127.4 78.4 L 128.8 78.9 C 129.3 79.1 129.7 79.3 130.1 79.5 C 130.5 79.7 131 79.9 131.4 80.2 C 132.2 80.7 133 81.2 133.7 81.9 C 134.4 82.5 135 83.1 135.6 83.7 C 136.1 84.4 136.7 85 137 85.6 C 137.4 86.2 137.8 86.8 138 87.3 C 138.3 87.8 138.5 88.3 138.7 88.7 C 139.2 89.4 139.3 89.9 139.3 89.9 Z " fill="#7D9950" stroke-width="1" stroke="none"/>
              <path d="M 171.2 125.4 C 171.2 125.4 171.1 124.8 170.7 123.9 C 170.5 123.4 170.2 122.9 169.9 122.3 C 169.7 122 169.5 121.7 169.3 121.3 C 169.1 121 168.8 120.7 168.6 120.3 C 168.4 119.9 168 119.6 167.7 119.3 C 167.4 119 167.1 118.6 166.7 118.3 C 166.3 118 165.9 117.6 165.6 117.3 C 165.2 117 164.7 116.7 164.3 116.4 C 164.1 116.2 163.8 116.1 163.6 115.9 C 163.4 115.8 163.1 115.7 162.9 115.5 C 162.4 115.3 161.9 115 161.4 114.7 C 160.9 114.5 160.3 114.3 159.8 114.1 L 159 113.8 C 158.7 113.7 158.4 113.7 158.2 113.6 C 157.1 113.4 155.9 113.1 154.8 113.1 C 153.7 113 152.6 112.9 151.5 113 C 150.4 113.1 149.4 113.1 148.4 113.3 C 147.4 113.5 146.5 113.6 145.7 113.8 C 144.8 113.9 144.1 114.2 143.4 114.4 C 142.7 114.6 142.2 114.8 141.7 114.9 C 140.7 115.2 140.2 115.4 140.2 115.4 C 140.2 115.4 140.8 115.3 141.7 115.1 C 142.2 115 142.8 114.9 143.5 114.7 C 144.2 114.5 144.9 114.3 145.8 114.3 C 146.6 114.2 147.6 114 148.5 113.9 C 149 113.8 149.5 113.8 150 113.8 C 150.5 113.8 151 113.8 151.6 113.7 C 152.7 113.6 153.7 113.7 154.9 113.8 C 156 113.8 157.1 114.1 158.2 114.3 C 158.5 114.4 158.8 114.4 159 114.5 L 159.8 114.8 C 160.3 115 160.9 115.1 161.4 115.3 C 161.9 115.5 162.4 115.8 162.9 116 L 163.6 116.4 C 163.8 116.5 164 116.7 164.3 116.8 C 164.7 117.1 165.2 117.4 165.6 117.7 C 166 118 166.4 118.3 166.8 118.6 C 167.2 118.9 167.5 119.3 167.8 119.6 C 168.1 119.9 168.4 120.2 168.7 120.6 C 169 120.9 169.2 121.2 169.5 121.5 C 169.7 121.8 169.9 122.1 170.1 122.4 C 170.5 123 170.8 123.5 171 123.9 C 171 124.9 171.2 125.4 171.2 125.4 Z " fill="#7D9950" stroke-width="1" stroke="none"/>
              <path d="M 208.1 49.8 C 208.1 49.8 207.4 49.8 206.2 50 C 205 50.2 203.3 50.4 201.2 50.9 C 200.2 51.1 199.1 51.4 197.9 51.9 C 196.7 52.3 195.6 53 194.5 53.6 C 192.2 54.9 190 56.7 187.9 58.5 C 185.8 60.4 183.8 62.3 181.9 64.2 C 180 66.1 178.4 67.8 176.9 69.4 C 174 72.5 172.2 74.6 172.2 74.6 C 172.2 74.6 174.2 72.6 177.2 69.7 C 178.7 68.2 180.4 66.5 182.3 64.7 C 184.2 62.9 186.2 60.9 188.3 59.1 C 190.4 57.3 192.6 55.5 194.8 54.2 C 195.9 53.5 197 52.9 198.1 52.4 C 199.2 51.9 200.3 51.6 201.3 51.4 C 203.3 50.9 205 50.5 206.2 50.3 C 207.4 49.9 208.1 49.8 208.1 49.8 Z " fill="#519B3D" stroke-width="1" stroke="none"/>
              <path d="M 105.3 84.2 C 105.3 84.2 108.6 81.6 113.4 77.8 C 115.8 75.9 118.7 73.7 121.7 71.3 C 124.8 68.9 128 66.4 131.3 63.9 C 134.6 61.4 137.9 58.9 141 56.6 C 144.1 54.3 147 52.1 149.6 50.4 C 150.9 49.5 152 48.7 153.1 48 C 154.2 47.3 155 46.7 155.8 46.2 C 157.3 45.3 158.2 44.7 158.2 44.7 C 158.2 44.7 157.3 45.2 155.7 46.1 C 154.9 46.5 154 47.1 152.9 47.8 C 151.8 48.4 150.6 49.2 149.3 50.1 C 146.7 51.8 143.7 53.9 140.6 56.2 C 137.5 58.5 134.2 61 130.9 63.5 C 127.6 66 124.4 68.6 121.3 71 C 118.3 73.4 115.5 75.7 113.1 77.7 C 110.7 79.7 108.7 81.4 107.4 82.5 C 106.1 83.5 105.3 84.2 105.3 84.2 Z " fill="#519B3D" stroke-width="1" stroke="none"/>
            </g>
            <g id="Shape">
              <g>
                <path d="M 292.6 154.2 C 277.7 149.9 273 153.1 256.5 139.1 C 239.9 125.1 202 121.6 177.4 131.3 C 152.8 141 131.5 161.1 133.5 185.9 C 135.1 206.1 156.9 208 184 201.8 C 211.1 195.6 225.7 231.6 253.1 230.9 C 283.5 230.1 294 224.7 318.1 193.3 C 327.4 181 307 158.3 292.6 154.2 Z " fill="#7CBF2E" stroke-width="1" stroke="none"/>
                <path d="M 248.4 213.7 C 272.5 221.8 301.8 195.2 315.7 172.6 C 320.4 179.8 322.4 187.5 318.1 193.1 C 294 224.6 283.5 230 253.1 230.7 C 225.7 231.4 211 195 184 201.6 C 160.6 207.3 152.6 204.7 143.9 202 C 179.5 174.2 221 204.6 248.4 213.7 Z " fill="#B4D189" stroke-width="1" stroke="none"/>
                <path d="M 305.6 208.4 C 305.6 208.4 305.3 208.7 304.8 209.3 C 304.3 209.9 303.5 210.7 302.5 211.7 C 300.5 213.7 297.5 216.6 293.6 219.5 C 291.6 221 289.4 222.4 286.9 223.7 C 284.4 225 281.7 226.1 278.8 227 C 275.9 227.9 272.8 228.7 269.6 229.2 C 266.4 229.7 263.2 230.1 259.9 230.3 C 256.6 230.5 253.4 230.6 250.2 230.3 C 247 230 243.9 229.4 241 228.3 C 238.1 227.3 235.5 226 233.1 224.5 C 230.7 223.1 228.5 221.5 226.5 220.1 C 222.5 217.2 219.3 214.7 217 213 C 214.7 211.3 213.4 210.3 213.4 210.3 C 213.4 210.3 214.7 211.3 216.9 213.1 C 219.2 214.9 222.3 217.5 226.3 220.4 C 228.3 221.9 230.4 223.4 232.8 224.9 C 235.2 226.4 237.9 227.8 240.8 228.8 C 243.7 229.8 246.9 230.5 250.1 230.8 C 253.3 231.1 256.6 231.1 259.9 230.9 C 263.2 230.7 266.5 230.4 269.6 229.8 C 272.8 229.2 275.9 228.5 278.8 227.5 C 281.7 226.6 284.5 225.4 287 224 C 289.5 222.6 291.7 221.1 293.7 219.6 C 297.6 216.6 300.5 213.7 302.5 211.6 C 303.5 210.6 304.2 209.7 304.7 209.1 C 305.3 208.7 305.6 208.4 305.6 208.4 Z " fill="#7D9950" stroke-width="1" stroke="none"/>
              </g>
              <path d="M 243 131.5 C 243 131.5 241.3 130.7 238.3 129.7 C 235.3 128.7 230.9 127.4 225.5 126.5 C 220.1 125.6 213.8 125 206.9 125.2 C 200.1 125.4 192.8 126.4 185.8 128.2 C 182.3 129.1 178.8 130.2 175.5 131.6 C 172.2 132.9 169 134.4 166 136.1 C 160 139.4 154.9 143.3 150.9 147 C 146.9 150.7 144 154.2 142.1 156.8 C 140.2 159.4 139.4 161 139.4 161 C 139.4 161 140.3 159.4 142.2 156.9 C 144.1 154.4 147.1 151 151.2 147.3 C 155.2 143.7 160.4 139.9 166.3 136.7 C 169.3 135.1 172.5 133.6 175.8 132.3 C 179.1 131 182.6 129.9 186.1 129 C 193.1 127.2 200.3 126.2 207.1 126 C 213.9 125.8 220.2 126.3 225.6 127.1 C 231 127.9 235.4 129.1 238.4 130 C 241.4 130.8 243 131.5 243 131.5 Z " fill="#519B3D" stroke-width="1" stroke="none"/>
            </g>
            <g id="Shape">
              <g>
                <path d="M 157.3 146.7 C 140.2 147.3 87.8 204.8 56.5 206.6 C 25.4 208.4 4.7 191.4 9.2 176.2 C 9.2 176.2 -3.3 202.1 48.8 216.2 C 100.9 230.3 113.5 203.6 135.7 201.3 C 164.8 198.2 167 192.2 173 178.8 C 179.3 164.4 176.2 146 157.3 146.7 Z " fill="#7CBF2E" stroke-width="1" stroke="none"/>
                <path d="M 159.6 193.9 L 166.8 204.3 C 162.4 205.5 147.1 203.5 139.9 204.3 C 117.8 206.6 100.9 230.4 48.8 216.3 C 42.5 214.6 37.1 212.7 32.5 210.7 C 51.2 214.9 77.6 218 96.4 208.3 C 128.4 191.7 159.6 193.9 159.6 193.9 Z " fill="#B4D189" stroke-width="1" stroke="none"/>
              </g>
              <path d="M 17.8 196.6 C 17.8 196.6 18.6 197.3 20.2 198.3 C 21 198.8 22 199.4 23.1 200 C 24.2 200.6 25.6 201.3 27 202 C 27.7 202.3 28.5 202.6 29.3 203 C 30.1 203.3 30.9 203.6 31.8 203.9 C 33.5 204.5 35.4 205.1 37.4 205.5 C 39.4 206 41.4 206.4 43.5 206.6 C 45.6 206.9 47.7 207.1 49.9 207.1 C 52.1 207.1 54.2 207.1 56.3 206.8 C 58.4 206.6 60.5 206.2 62.4 205.7 C 64.4 205.3 66.2 204.6 68 204 C 68.9 203.7 69.7 203.3 70.5 203 C 71.3 202.7 72.1 202.3 72.8 202 C 73.5 201.7 74.2 201.3 74.9 201 C 75.5 200.7 76.2 200.3 76.7 200 C 77.9 199.4 78.8 198.8 79.7 198.4 C 81.3 197.4 82.2 196.9 82.2 196.9 C 82.2 196.9 81.3 197.4 79.6 198.3 C 78.8 198.7 77.8 199.3 76.6 199.8 C 75.4 200.4 74.1 201 72.6 201.6 C 71.9 201.9 71.1 202.2 70.3 202.6 C 69.5 202.9 68.7 203.2 67.8 203.5 C 66.1 204.1 64.2 204.7 62.3 205.1 C 60.4 205.6 58.3 205.9 56.2 206.1 C 54.1 206.3 52 206.4 49.9 206.3 C 47.8 206.3 45.6 206.1 43.6 205.8 C 41.5 205.5 39.5 205.2 37.5 204.7 C 35.6 204.3 33.7 203.7 31.9 203.2 C 31 202.9 30.2 202.6 29.4 202.3 C 28.6 202 27.8 201.7 27.1 201.4 C 25.6 200.8 24.3 200.2 23.1 199.6 C 21.9 199 20.9 198.5 20.1 198 C 18.7 197.2 17.8 196.6 17.8 196.6 Z " fill="#519B3D" stroke-width="1" stroke="none"/>
              <path d="M 109.8 215 C 109.8 215 108.7 215.4 106.8 216.1 C 105.8 216.4 104.7 216.8 103.3 217.1 C 102 217.5 100.4 217.8 98.8 218.2 C 98 218.4 97.1 218.5 96.2 218.7 C 95.3 218.8 94.4 219.1 93.4 219.2 C 91.5 219.5 89.4 219.7 87.3 219.9 C 86.2 220 85.2 220.1 84.1 220.1 C 83 220.1 81.9 220.2 80.8 220.2 C 79.7 220.3 78.5 220.2 77.4 220.2 C 76.3 220.2 75.1 220.1 74 220.1 C 71.7 220 69.5 219.8 67.2 219.6 C 65 219.3 62.8 219 60.7 218.7 C 58.6 218.3 56.6 217.9 54.6 217.5 C 53.6 217.3 52.7 217.1 51.8 216.8 C 50.9 216.6 50 216.3 49.2 216.1 C 47.5 215.6 46 215.3 44.7 214.8 C 43.4 214.4 42.2 214 41.3 213.7 C 39.4 213.1 38.3 212.7 38.3 212.7 C 38.3 212.7 39.4 213.1 41.3 213.8 C 42.2 214.1 43.4 214.6 44.7 215 C 46 215.5 47.5 215.9 49.2 216.4 C 50 216.6 50.9 216.9 51.8 217.1 C 52.7 217.4 53.6 217.6 54.6 217.8 C 56.5 218.2 58.6 218.7 60.7 219.1 C 62.8 219.4 65 219.7 67.3 220 C 69.6 220.2 71.8 220.4 74.1 220.5 C 75.2 220.5 76.4 220.5 77.5 220.6 C 78.6 220.6 79.8 220.6 80.9 220.6 C 82 220.6 83.1 220.5 84.3 220.5 C 85.4 220.5 86.5 220.3 87.6 220.2 C 89.7 220.1 91.8 219.7 93.7 219.4 C 94.7 219.3 95.6 219 96.5 218.9 C 97.4 218.7 98.3 218.6 99.1 218.3 C 99.9 218.1 100.7 217.9 101.5 217.7 C 102.3 217.5 103 217.3 103.6 217.1 C 104.9 216.7 106.1 216.3 107 216 C 108.7 215.5 109.8 215 109.8 215 Z " fill="#7D9950" stroke-width="1" stroke="none"/>
            </g>
            <g id="Shape">
              <g>
                <g>
                  <path d="M 375.1 96.7 C 365.1 94.7 344.9 111.9 339.1 133.5 C 331.4 162.5 314.8 159.4 296.9 154.7 C 269.8 147.6 274.1 157.5 269.8 172.2 C 265.5 186.9 273.6 217.9 308.1 209.2 C 335.2 202.4 349.9 171.3 355.2 158.5 C 360.5 145.7 363.5 125.7 372.2 123.3 C 380.9 120.9 389.4 99.6 375.1 96.7 Z " fill="#7CBF2E" stroke-width="1" stroke="none"/>
                  <path d="M 274.1 198.9 C 297.3 198.7 323.2 189 332.8 179.7 C 348.6 164.2 355.2 132.8 361.8 131.3 C 363.3 131 364 131 364.3 132.3 C 360.9 139.8 358.5 150.4 355.2 158.4 C 349.9 171.3 341.9 193.6 317.2 206.7 C 289.7 221.4 291.3 221.9 274.1 198.9 Z " fill="#B4D189" stroke-width="1" stroke="none"/>
                </g>
                <path d="M 309.5 157.5 C 309.5 157.5 309.8 157.5 310.4 157.6 C 311 157.7 311.8 157.8 312.8 157.9 C 313.3 158 313.9 158 314.6 158 C 315.2 158 315.9 158 316.7 157.9 C 317.4 157.9 318.2 157.7 319 157.6 C 319.8 157.4 320.7 157.2 321.5 156.9 C 323.2 156.3 325.1 155.5 326.8 154.3 C 328.5 153.1 330.2 151.7 331.7 149.9 C 333.2 148.2 334.5 146.2 335.6 144 C 336.7 141.9 337.6 139.6 338.2 137.2 C 339.5 132.6 341.1 128 343 123.9 C 344.9 119.8 347 116.1 349.1 113.2 C 350.2 111.8 351.3 110.5 352.3 109.4 C 353.3 108.3 354.2 107.4 354.9 106.6 C 356.4 105.1 357.3 104.3 357.3 104.3 C 357.3 104.3 356.4 105.1 354.8 106.5 C 354 107.2 353.1 108.1 352.1 109.2 C 351.1 110.3 349.9 111.5 348.8 112.9 C 346.6 115.8 344.4 119.4 342.5 123.6 C 340.6 127.7 338.9 132.3 337.6 136.9 C 337 139.2 336.1 141.5 335.1 143.6 C 334 145.7 332.8 147.7 331.3 149.4 C 329.9 151.1 328.2 152.6 326.6 153.8 C 324.9 155 323.1 155.8 321.4 156.4 C 319.7 157 318.1 157.3 316.6 157.4 C 315.9 157.5 315.2 157.5 314.6 157.5 C 314 157.5 313.4 157.5 312.9 157.5 C 311.8 157.5 311 157.4 310.5 157.3 C 309.8 157.5 309.5 157.5 309.5 157.5 Z " fill="#519B3D" stroke-width="1" stroke="none"/>
              </g>
              <path d="M 305.8 212.8 C 305.8 212.8 307 212.2 309.1 211.3 C 311.2 210.3 314.1 208.9 317.6 207 C 321 205 324.9 202.5 328.7 199.4 C 332.5 196.3 336.2 192.5 339.5 188.4 C 342.8 184.3 345.6 179.8 348 175.5 C 350.3 171.2 352.2 166.9 353.7 163.3 C 355.2 159.7 356.3 156.6 357 154.4 C 357.7 152.2 358.1 151 358.1 151 C 358.1 151 357.6 152.2 356.9 154.4 C 356.1 156.5 354.9 159.6 353.3 163.2 C 351.7 166.8 349.8 171 347.5 175.3 C 345.1 179.6 342.3 184 339 188.1 C 335.8 192.2 332.1 195.9 328.4 199.1 C 324.7 202.3 320.9 204.8 317.5 206.8 C 314.1 208.8 311.2 210.3 309.2 211.3 C 307 212.2 305.8 212.8 305.8 212.8 Z " fill="#7D9950" stroke-width="1" stroke="none"/>
            </g>
            <g>
              <g>
                <path d="M 385.5 93.4 C 387.9 91 383.6 84.7 379.5 84.8 C 375.4 84.9 369.3 81.3 368.2 83.3 C 367 85.4 377.4 101.4 385.5 93.4 Z " id="Shape" fill="#69B229" stroke-width="1" stroke="none"/>
                <g id="Shape">
                  <path d="M 390.1 88.4 C 390.1 88.4 382.6 79.2 375.8 77.6 C 368.9 76 365.1 78.5 358.5 73 C 358.5 73 361.5 79.7 367.3 81.2 C 377 83.9 382.6 93.2 382.6 93.2 C 382.6 93.2 385.4 88.2 390.1 88.4 Z " fill="#F1F2DC" stroke-width="1" stroke="none"/>
                  <path d="M 391.2 89.1 C 391.2 89.1 389.9 86 387.7 85.8 C 387.7 85.8 381.2 86.6 380.1 90.6 C 380.1 90.6 380.5 93.7 382.2 94.4 " fill="#7CBF2E" stroke-width="1" stroke="none"/>
                  <path d="M 389.8 87.2 C 389.8 87.2 389.8 87 389.5 86.6 C 389.4 86.4 389.2 86.3 389 86.1 C 388.8 85.9 388.5 85.8 388.1 85.7 C 387.8 85.6 387.4 85.6 387 85.6 C 386.6 85.6 386.2 85.7 385.8 85.8 C 385.4 85.9 385 86 384.6 86.2 C 384.2 86.4 383.8 86.6 383.4 86.8 C 383 87 382.6 87.3 382.2 87.5 C 381.8 87.8 381.5 88 381.2 88.3 C 380.6 88.9 380.1 89.6 379.9 90.2 C 379.7 90.9 379.8 91.5 380 91.9 C 380.2 92.3 380.3 92.4 380.3 92.4 C 380.3 92.4 380.2 92.2 380.1 91.8 C 380 91.4 380 90.9 380.2 90.3 C 380.4 89.7 380.9 89.2 381.5 88.7 C 381.8 88.4 382.1 88.2 382.5 88 C 382.9 87.8 383.2 87.5 383.6 87.4 C 384 87.2 384.4 87 384.8 86.8 C 385.2 86.6 385.6 86.5 386 86.4 C 386.4 86.3 386.8 86.2 387.1 86.2 C 387.5 86.2 387.8 86.2 388.1 86.2 C 388.4 86.3 388.7 86.3 388.9 86.5 C 389.1 86.6 389.3 86.8 389.4 86.9 C 389.7 87 389.8 87.2 389.8 87.2 Z " fill="#519B3D" stroke-width="1" stroke="none"/>
                  <path d="M 377.7 87.4 C 377.7 87.4 377.2 86.7 376.2 85.9 C 375.3 85 373.9 84 372.4 83.1 C 371.7 82.7 370.9 82.3 370.1 82 C 369.7 81.8 369.4 81.7 369 81.6 C 368.7 81.5 368.3 81.4 368 81.3 C 367.4 81.1 366.9 81 366.5 81 C 366.1 80.9 365.9 80.9 365.9 80.9 C 365.9 80.9 366.1 81 366.4 81.1 C 366.8 81.2 367.2 81.4 367.8 81.7 C 368.4 81.9 369.1 82.2 369.8 82.6 C 370.5 82.9 371.2 83.3 372 83.8 C 373.5 84.6 374.8 85.6 375.9 86.3 C 377.1 86.9 377.7 87.4 377.7 87.4 Z " fill="#C9BD9B" stroke-width="1" stroke="none"/>
                  <path d="M 371.5 76.9 C 371.5 76.9 370.6 76.9 369.3 76.7 C 368 76.6 366.3 76.3 364.6 75.9 C 364.2 75.8 363.8 75.7 363.4 75.5 C 363 75.4 362.6 75.2 362.2 75.1 C 361.8 74.9 361.5 74.8 361.1 74.6 C 360.8 74.4 360.4 74.3 360.2 74.1 C 359.9 73.9 359.7 73.8 359.4 73.7 C 359.2 73.6 359 73.4 358.8 73.3 C 358.5 73.1 358.3 73 358.3 73 C 358.3 73 358.5 73.2 358.7 73.4 C 359 73.7 359.4 74.1 359.9 74.5 C 360.2 74.7 360.5 74.9 360.8 75.1 C 361.1 75.3 361.5 75.5 361.9 75.7 C 362.3 75.9 362.7 76 363.1 76.2 C 363.5 76.4 363.9 76.5 364.4 76.6 C 365.3 76.8 366.1 77 367 77.1 C 367.8 77.2 368.6 77.2 369.3 77.2 C 370.6 77.1 371.5 76.9 371.5 76.9 Z " fill="#C9BD9B" stroke-width="1" stroke="none"/>
                </g>
                <path d="M 378 86.9 C 386.1 86 390.9 86 396 93.2 C 401.1 100.3 401.7 107.4 408.1 111.2 C 414.5 115 413.1 122.3 412.2 124.8 L 409.5 124.8 C 409.5 124.8 409.5 126.2 407.8 126.8 C 406.1 127.4 397.7 124.5 393.3 124.2 C 388.9 123.9 371.2 126.7 365.4 114 C 359.6 101.3 366.3 88.2 378 86.9 Z " id="Shape" fill="#7CBF2E" stroke-width="1" stroke="none"/>
                <path d="M 406.3 119.9 C 406.9 119.9 406.6 118 405.3 117.9 C 404 117.7 405 119.8 406.3 119.9 Z " id="Shape" fill="#46893D" stroke-width="1" stroke="none"/>
                <path d="M 406.3 119.9 C 406.3 119.9 406.5 119.8 406.6 119.6 C 406.7 119.5 406.7 119.3 406.8 119.1 C 406.8 118.9 406.8 118.7 406.7 118.5 C 406.5 118.1 406.1 118 405.8 117.9 C 405.7 117.9 405.5 117.9 405.5 117.9 C 405.4 117.9 405.4 117.9 405.4 117.9 C 405.4 117.9 405.4 117.9 405.5 118 C 405.6 118.1 405.6 118.1 405.7 118.2 C 405.9 118.4 406.1 118.6 406.2 118.8 C 406.3 119 406.4 119.2 406.4 119.5 C 406.3 119.7 406.3 119.9 406.3 119.9 Z " id="Shape" fill="#34662D" stroke-width="1" stroke="none"/>
                <ellipse id="Oval" fill="#283F1F" transform="matrix(-0.3373877274935575,-0.9413657744664042,-0.9413657744664042,0.3373877274935575,429.23064044881914,124.0730323629704)" cx="28.16412" cy="37.06586" rx="2.00007272" ry="1.00003636" stroke-width="1" stroke="none"/>
                <path d="M 392.4 121.1 C 392.4 121.1 392 120.2 391.3 119.2 C 391 118.8 390.3 119 390.3 119.5 C 390.2 120.2 390.2 121 390.4 121.5 L 392.4 121.1 Z " id="Shape" fill="#F1F2DC" stroke-width="1" stroke="none"/>
                <path d="M 409.4 124.8 C 409.4 124.8 408 124.6 405.9 124.2 C 404.8 124 403.6 123.7 402.4 123.3 C 401.8 123.1 401.1 122.9 400.5 122.5 C 400.2 122.4 399.9 122.2 399.6 122 L 398.8 121.3 C 398.6 121.1 398.1 120.9 397.8 120.7 C 397.4 120.6 397.1 120.5 396.7 120.5 C 396 120.4 395.2 120.5 394.6 120.6 C 393.2 120.8 392 121.2 391 121.4 C 390.5 121.5 390 121.6 389.6 121.7 C 389.2 121.8 388.8 121.8 388.5 121.8 C 388.2 121.8 387.9 121.8 387.8 121.7 C 387.6 121.7 387.5 121.6 387.5 121.6 C 387.5 121.6 387.6 121.6 387.7 121.7 C 387.9 121.8 388.1 121.8 388.4 121.9 C 388.7 122 389.1 122 389.5 121.9 C 389.9 121.9 390.4 121.8 391 121.7 C 392.1 121.5 393.3 121.3 394.6 121.1 C 395.3 121 395.9 121 396.6 121.1 C 396.9 121.1 397.3 121.2 397.6 121.3 C 397.9 121.4 398.1 121.5 398.4 121.8 L 399.3 122.5 C 399.6 122.7 399.9 122.9 400.3 123.1 C 401 123.4 401.6 123.7 402.3 123.9 C 403.6 124.3 404.9 124.5 405.9 124.7 C 407.9 124.8 409.4 124.8 409.4 124.8 Z " id="Shape" fill="#519B3D" stroke-width="1" stroke="none"/>
                <path d="M 388.2 109.5 C 388.2 109.5 387.8 109.1 387.1 108.7 C 386.7 108.5 386.3 108.3 385.8 108.2 C 385.3 108.1 384.7 108 384.2 108 C 383.6 108 383.1 108.1 382.6 108.2 C 382.1 108.3 381.6 108.4 381.3 108.6 C 380.9 108.7 380.6 108.9 380.4 109 C 380.2 109.1 380.1 109.2 380.1 109.2 C 380.1 109.2 380.2 109.2 380.5 109.1 C 380.7 109.1 381.1 109 381.5 108.9 C 381.9 108.8 382.3 108.8 382.8 108.7 C 383.3 108.7 383.8 108.6 384.3 108.6 C 385.3 108.6 386.4 108.8 387.1 109 C 387.8 109.2 388.2 109.5 388.2 109.5 Z " id="Shape" fill="#519B3D" stroke-width="1" stroke="none"/>
                <path d="M 389.1 107.7 C 389.1 107.7 389.2 107.4 389.1 106.9 C 389.1 106.4 388.8 105.8 388.3 105.3 C 388.2 105.2 388 105.1 387.9 105 C 387.8 104.9 387.6 104.9 387.5 104.8 C 387.2 104.7 386.9 104.6 386.7 104.6 C 386.5 104.6 386.3 104.6 386.1 104.7 C 386 104.7 385.9 104.7 385.9 104.7 C 385.9 104.7 386 104.7 386.1 104.8 C 386.2 104.8 386.4 104.9 386.6 105 C 386.8 105.1 387 105.2 387.3 105.3 C 387.5 105.4 387.8 105.6 387.9 105.8 C 388.3 106.2 388.6 106.6 388.8 107 C 389 107.4 389.1 107.7 389.1 107.7 Z " id="Shape" fill="#519B3D" stroke-width="1" stroke="none"/>
                <path d="M 386.7 111.2 C 386.7 111.2 386.5 111.3 386.1 111.4 C 385.8 111.5 385.4 111.7 385 111.8 C 384.6 112 384.2 112.2 383.9 112.3 C 383.8 112.4 383.6 112.5 383.5 112.5 C 383.4 112.6 383.4 112.6 383.4 112.6 C 383.4 112.6 383.6 112.7 384 112.7 C 384.3 112.7 384.8 112.6 385.2 112.4 C 385.6 112.2 386 111.9 386.2 111.7 C 386.6 111.4 386.7 111.2 386.7 111.2 Z " id="Shape" fill="#519B3D" stroke-width="1" stroke="none"/>
                <g id="Shape">
                  <path d="M 379.8 91.7 C 379.8 91.7 371.8 83 364.8 81.8 C 357.9 80.6 354.2 83.4 347.2 78.3 C 347.2 78.3 350.7 84.8 356.5 86 C 366.3 88.1 372.5 97 372.5 97 C 372.5 97 375.1 91.8 379.8 91.7 Z " fill="#F1F2DC" stroke-width="1" stroke="none"/>
                  <path d="M 380.9 92.3 C 380.9 92.3 379.4 89.3 377.2 89.2 C 377.2 89.2 370.8 90.4 369.9 94.4 C 369.9 94.4 370.5 97.5 372.2 98.1 " fill="#7CBF2E" stroke-width="1" stroke="none"/>
                  <path d="M 379.4 90.5 C 379.4 90.5 379.3 90.3 379.1 90 C 379 89.8 378.8 89.7 378.6 89.5 C 378.4 89.3 378.1 89.2 377.7 89.1 C 377.4 89 377 89 376.6 89.1 C 376.2 89.1 375.8 89.2 375.4 89.4 C 375 89.5 374.6 89.7 374.2 89.9 C 373.8 90.1 373.4 90.3 373 90.5 C 372.6 90.7 372.2 91 371.9 91.3 C 371.6 91.6 371.2 91.9 370.9 92.2 C 370.3 92.8 369.8 93.5 369.7 94.2 C 369.5 94.9 369.7 95.5 369.9 95.8 C 370.1 96.2 370.3 96.3 370.3 96.3 C 370.3 96.3 370.2 96.1 370 95.8 C 369.9 95.4 369.8 94.9 370 94.3 C 370.2 93.7 370.7 93.1 371.2 92.6 C 371.5 92.3 371.8 92.1 372.1 91.8 C 372.5 91.5 372.8 91.3 373.2 91.1 C 373.6 90.9 373.9 90.6 374.3 90.5 C 374.7 90.3 375.1 90.1 375.4 90 C 375.8 89.9 376.1 89.8 376.5 89.7 C 376.9 89.6 377.2 89.6 377.5 89.6 C 377.8 89.6 378.1 89.7 378.3 89.8 C 378.5 89.9 378.7 90 378.9 90.2 C 379.3 90.3 379.4 90.5 379.4 90.5 Z " fill="#519B3D" stroke-width="1" stroke="none"/>
                  <path d="M 367.4 91.5 C 367.4 91.5 366.8 90.9 365.8 90.1 C 364.8 89.3 363.4 88.3 361.8 87.6 C 361 87.2 360.2 86.9 359.5 86.6 C 359.1 86.5 358.8 86.3 358.4 86.3 C 358 86.2 357.7 86.1 357.4 86.1 C 356.8 86 356.2 85.9 355.9 85.9 C 355.5 85.9 355.3 85.8 355.3 85.8 C 355.3 85.8 355.5 85.9 355.9 86 C 356.3 86.1 356.8 86.3 357.4 86.5 C 358 86.7 358.7 87 359.4 87.3 C 360.1 87.6 360.9 87.9 361.6 88.3 C 363.1 89 364.6 89.9 365.6 90.5 C 366.7 91.1 367.4 91.5 367.4 91.5 Z " fill="#C9BD9B" stroke-width="1" stroke="none"/>
                  <path d="M 360.5 81.4 C 360.5 81.4 359.6 81.4 358.3 81.3 C 357 81.2 355.3 81.1 353.6 80.8 C 353.2 80.7 352.8 80.6 352.4 80.5 C 352 80.4 351.6 80.3 351.2 80.2 C 350.8 80.1 350.4 80 350.1 79.8 C 349.8 79.6 349.4 79.5 349.1 79.4 C 348.8 79.3 348.5 79.1 348.3 79 C 348.1 78.9 347.9 78.7 347.7 78.6 C 347.4 78.4 347.2 78.3 347.2 78.3 C 347.2 78.3 347.4 78.4 347.6 78.7 C 347.9 79 348.3 79.3 348.9 79.7 C 349.2 79.9 349.5 80 349.8 80.2 C 350.1 80.4 350.5 80.5 350.9 80.7 C 351.3 80.9 351.7 81 352.1 81.1 C 352.5 81.2 353 81.3 353.4 81.4 C 354.3 81.6 355.2 81.7 356 81.7 C 356.8 81.7 357.6 81.7 358.3 81.7 C 359.6 81.7 360.5 81.4 360.5 81.4 Z " fill="#C9BD9B" stroke-width="1" stroke="none"/>
                </g>
                <path d="M 393.5 100.6 C 393.5 100.6 393.4 99.8 392.9 98.6 C 392.7 98 392.4 97.3 392 96.6 C 391.8 96.2 391.6 95.9 391.4 95.5 C 391.2 95.1 390.9 94.8 390.7 94.5 C 390.2 93.8 389.6 93.2 389 92.7 C 388.7 92.5 388.4 92.2 388.1 92 C 387.8 91.8 387.5 91.6 387.2 91.5 C 386.6 91.2 386.1 91.1 385.7 91 C 385.3 90.9 385.1 90.9 385.1 90.9 C 385.1 90.9 385.3 91 385.6 91.1 C 385.8 91.2 386 91.3 386.2 91.4 C 386.4 91.5 386.7 91.7 386.9 91.8 C 387.2 92 387.4 92.2 387.7 92.4 C 388 92.6 388.2 92.9 388.5 93.1 C 388.8 93.4 389 93.7 389.3 94 C 389.6 94.3 389.8 94.6 390.1 94.9 C 391.1 96.2 391.9 97.6 392.5 98.8 C 393.2 99.8 393.5 100.6 393.5 100.6 Z " id="Shape" fill="#519B3D" stroke-width="1" stroke="none"/>
                <path d="M 386.8 124.3 C 386.8 124.3 385.8 124.2 384.3 124 C 383.6 123.9 382.7 123.8 381.8 123.7 C 380.9 123.6 379.9 123.5 379 123.3 C 378.5 123.2 378 123.1 377.6 123.1 C 377.1 123 376.7 122.9 376.2 122.8 C 375.3 122.6 374.5 122.4 373.8 122.1 C 373.5 122 373.1 121.9 372.9 121.8 C 372.6 121.7 372.4 121.6 372.2 121.5 C 371.8 121.3 371.6 121.2 371.6 121.2 C 371.6 121.2 371.8 121.3 372.2 121.6 C 372.4 121.7 372.6 121.9 372.9 122 C 373.2 122.1 373.5 122.3 373.8 122.5 C 374.5 122.8 375.3 123.1 376.2 123.4 C 376.7 123.5 377.1 123.7 377.6 123.7 C 378.1 123.8 378.6 123.9 379.1 124 C 380.1 124.2 381.1 124.3 382 124.4 C 382.9 124.5 383.8 124.5 384.5 124.5 C 385.8 124.4 386.8 124.3 386.8 124.3 Z " id="Shape" fill="#519B3D" stroke-width="1" stroke="none"/>
                <path d="M 413 120.2 C 413 120.2 413 119.4 412.7 118 C 412.6 117.3 412.4 116.5 412 115.6 C 411.6 114.7 411.1 113.7 410.3 112.8 C 410.1 112.6 409.9 112.4 409.7 112.1 C 409.5 111.9 409.2 111.7 408.9 111.5 C 408.3 111.2 407.8 110.8 407.2 110.4 C 406.1 109.6 405.2 108.6 404.3 107.4 C 403.4 106.2 402.7 104.9 402 103.5 C 401.3 102.1 400.7 100.7 399.9 99.2 C 399.5 98.5 399 97.8 398.7 97.1 C 398.3 96.4 398 95.7 397.6 95 C 396.8 93.6 395.9 92.4 394.9 91.2 C 394.4 90.6 393.8 90.1 393.3 89.7 C 392.7 89.3 392.2 88.8 391.6 88.5 C 391 88.2 390.4 87.8 389.8 87.6 C 389.2 87.3 388.6 87.1 388 87 C 386.9 86.6 385.7 86.5 384.8 86.4 C 383.8 86.4 383 86.3 382.3 86.4 C 380.9 86.5 380.1 86.6 380.1 86.6 C 380.1 86.6 380.9 86.6 382.3 86.5 C 383 86.5 383.8 86.6 384.8 86.6 C 385.7 86.8 386.8 86.9 387.9 87.3 C 388.5 87.4 389 87.7 389.6 88 C 390.2 88.2 390.7 88.6 391.3 88.9 C 392.4 89.6 393.5 90.5 394.5 91.7 C 395.5 92.8 396.3 94 397.1 95.4 C 397.5 96.1 397.8 96.8 398.2 97.5 C 398.6 98.2 399 98.9 399.4 99.6 C 400.1 101 400.8 102.4 401.5 103.8 C 402.2 105.2 403 106.6 403.9 107.8 C 404.8 109 405.8 110.1 407 110.9 C 407.6 111.2 408.2 111.6 408.7 111.9 C 408.9 112.1 409.2 112.3 409.4 112.5 C 409.6 112.7 409.8 112.9 410 113.1 C 410.8 114 411.3 114.9 411.7 115.8 C 412.1 116.7 412.3 117.5 412.5 118.2 C 413 119.4 413 120.2 413 120.2 Z " id="Shape" fill="#519B3D" stroke-width="1" stroke="none"/>
              </g>
              <g id="Shape">
                <path d="M 368.3 100.4 C 370.9 96.3 367.7 91.2 362 92.9 C 356.3 94.5 353.3 95.7 351.5 95.1 C 349.7 94.6 350.6 97.9 353.4 99.5 C 356.1 101.1 365.1 105.4 368.3 100.4 Z " fill="#7CBF2E" stroke-width="1" stroke="none"/>
                <path d="M 368.9 99.6 C 368.9 99.6 368.6 99.6 368.1 99.6 C 367.6 99.6 366.9 99.5 366.2 99.2 C 365.5 98.9 364.7 98.2 364 97.5 C 363.9 97.4 363.9 97.4 363.8 97.3 L 363.6 97.2 C 363.5 97.1 363.4 97 363.2 97 C 362.9 96.9 362.6 96.8 362.3 96.8 C 361.7 96.8 361.1 96.8 360.6 96.9 C 359.5 97.1 358.4 97.3 357.4 97.4 C 356.9 97.5 356.4 97.5 355.9 97.5 C 355.4 97.5 355 97.5 354.6 97.4 C 354.2 97.3 353.8 97.3 353.5 97.2 C 353.2 97.1 352.9 97 352.7 96.9 C 352.3 96.7 352 96.6 352 96.6 C 352 96.6 352.2 96.8 352.6 97.1 C 352.8 97.2 353.1 97.4 353.4 97.5 C 353.7 97.6 354.1 97.8 354.5 97.9 C 354.9 98 355.4 98.1 355.9 98.1 C 356.4 98.1 356.9 98.1 357.4 98.1 C 358.5 98 359.6 97.8 360.7 97.7 C 361.2 97.6 361.8 97.6 362.3 97.6 C 362.6 97.6 362.8 97.7 363 97.7 C 363.1 97.7 363.2 97.8 363.3 97.9 L 363.5 98 C 363.5 98 363.6 98.1 363.6 98.1 C 364.4 98.8 365.2 99.4 366.1 99.7 C 366.9 100 367.7 100 368.2 99.9 C 368.6 99.7 368.9 99.6 368.9 99.6 Z " fill="#519B3D" stroke-width="1" stroke="none"/>
                <path d="M 367.1 101.9 C 367.1 101.9 366.6 102.1 365.8 102.2 C 365.4 102.3 365 102.3 364.5 102.4 C 364 102.4 363.5 102.5 363 102.5 C 362 102.5 360.9 102.4 360.2 102.2 C 359.8 102.1 359.5 102.1 359.3 102 C 359.1 101.9 358.9 101.9 358.9 101.9 C 358.9 101.9 359 102 359.2 102.1 C 359.4 102.2 359.7 102.4 360.1 102.5 C 360.3 102.6 360.5 102.7 360.7 102.7 C 360.9 102.8 361.2 102.8 361.4 102.9 C 361.7 102.9 361.9 103 362.2 103 C 362.5 103 362.7 103.1 363 103 C 364.1 103 365.2 102.8 365.9 102.4 C 366.7 102.2 367.1 101.9 367.1 101.9 Z " fill="#519B3D" stroke-width="1" stroke="none"/>
                <path d="M 368.7 95.5 C 368.7 95.5 368.6 95.3 368.4 94.9 C 368.2 94.6 367.9 94 367.4 93.6 C 366.9 93.1 366.2 92.6 365.3 92.4 C 364.9 92.3 364.4 92.2 363.9 92.2 C 363.4 92.2 362.9 92.3 362.5 92.4 C 360.7 92.8 359 93.5 357.7 94 C 356.4 94.5 355.6 94.7 355.6 94.7 C 355.6 94.7 356.5 94.6 357.8 94.3 C 359.1 94 360.8 93.4 362.6 93 C 363 92.9 363.5 92.9 363.9 92.8 C 364.3 92.8 364.7 92.8 365.1 92.9 C 365.9 93.1 366.6 93.4 367.1 93.8 C 367.6 94.2 368 94.6 368.2 94.9 C 368.6 95.3 368.7 95.5 368.7 95.5 Z " fill="#519B3D" stroke-width="1" stroke="none"/>
              </g>
            </g>
            <path d="M 143.7 207.9 C 143.7 207.9 144 207.6 144.3 207.1 C 144.7 206.6 145.1 205.8 145.5 204.8 C 145.7 204.3 145.9 203.7 146.1 203.2 C 146.3 202.6 146.5 202 146.6 201.3 C 146.7 200.6 146.9 199.9 147 199.2 C 147.1 198.5 147.2 197.8 147.2 197.1 C 147.3 196.4 147.3 195.7 147.3 194.9 C 147.3 194.2 147.3 193.5 147.3 192.8 C 147.3 192.1 147.2 191.5 147.2 190.9 C 147.1 190.3 147.1 189.7 147 189.2 C 146.9 188.1 146.7 187.2 146.6 186.6 C 146.5 186 146.4 185.6 146.4 185.6 C 146.4 185.6 146.4 186 146.5 186.6 C 146.5 187.2 146.6 188.1 146.7 189.2 C 146.7 189.7 146.8 190.3 146.8 190.9 C 146.8 191.5 146.8 192.2 146.8 192.8 C 146.8 193.5 146.8 194.2 146.8 194.9 C 146.8 195.6 146.8 196.3 146.7 197 C 146.7 197.7 146.6 198.4 146.5 199.1 C 146.4 199.8 146.3 200.5 146.2 201.1 C 145.9 202.4 145.7 203.6 145.3 204.6 C 145 205.6 144.6 206.4 144.3 207 C 143.9 207.6 143.7 207.9 143.7 207.9 Z " id="Shape" fill="#519B3D" stroke-width="1" stroke="none"/>
            <path d="M 199.3 196.1 C 199.3 196.1 198 199.7 195.5 204.7 C 194.3 207.2 192.7 210.1 190.7 213 C 189.7 214.5 188.6 215.9 187.4 217.3 C 186.2 218.7 184.8 219.9 183.3 220.9 C 181.8 221.9 180.1 222.7 178.3 223.2 C 176.5 223.7 174.7 223.9 173 224.1 C 169.5 224.4 166.2 224.7 163.4 225.1 C 160.6 225.4 158.3 225.8 156.6 226.1 C 155 226.4 154.1 226.6 154.1 226.6 C 154.1 226.6 155 226.5 156.7 226.2 C 158.3 226 160.7 225.7 163.5 225.4 C 164.9 225.3 166.4 225.1 168 225 C 169.6 224.9 171.3 224.8 173.1 224.6 C 174.9 224.4 176.7 224.2 178.5 223.7 C 180.3 223.2 182.1 222.5 183.7 221.4 C 185.3 220.3 186.7 219 187.9 217.6 C 189.1 216.2 190.2 214.7 191.2 213.2 C 193.2 210.2 194.6 207.3 195.8 204.7 C 197 202.1 197.8 199.9 198.4 198.4 C 199.1 197 199.3 196.1 199.3 196.1 Z " id="Shape" fill="#519B3D" stroke-width="1" stroke="none"/>
            <g id="Shape">
              <g>
                <path d="M 105.6 264.7 C 104.4 266.3 102.2 270.5 102.1 272.3 C 102.1 274.1 103.9 274.2 103.4 276.7 C 102.9 279.1 100.7 279.4 99.4 278.3 C 98.1 277.2 98.2 276.8 98.2 275.9 C 98.2 275.9 97.3 276.2 96.3 275.7 C 95 275.1 94.8 273.8 95.3 272.7 C 95.8 271.6 95.5 271 95.5 271 C 95.5 271 93.8 271.5 92.8 270.5 C 91.4 269.2 91.8 267.8 93.4 266.3 C 94.9 264.8 95.1 262.8 95 259.6 C 94.9 257.3 98.9 255.3 102.1 250.5 C 105.6 245.3 108.6 247.6 111 250.7 C 115.5 256.2 110.1 259.1 105.6 264.7 Z " fill="#7CBF2E" stroke-width="1" stroke="none"/>
                <path d="M 98.2 275.9 C 98.2 275.9 98.4 275.9 98.7 275.8 C 98.8 275.8 99 275.7 99.2 275.6 C 99.4 275.5 99.6 275.4 99.8 275.2 C 100.2 274.8 100.5 274.2 100.6 273.5 C 100.6 273.1 100.6 272.8 100.5 272.4 C 100.4 272 100.3 271.7 100.3 271.4 C 100.2 270.8 100.3 270.1 100.3 269.5 C 100.4 268.9 100.5 268.3 100.7 267.8 C 100.9 267.3 101 266.9 101.2 266.7 C 101.3 266.4 101.4 266.3 101.4 266.3 C 101.4 266.3 101.3 266.4 101.1 266.6 C 100.9 266.8 100.6 267.2 100.4 267.7 C 100.2 268.2 99.9 268.8 99.8 269.4 C 99.7 270.1 99.6 270.8 99.7 271.5 C 99.8 271.9 99.9 272.2 99.9 272.5 C 100 272.8 100 273.1 100 273.4 C 100 273.7 99.9 274 99.9 274.2 C 99.8 274.5 99.7 274.7 99.5 274.9 C 99.2 275.3 98.8 275.5 98.6 275.7 C 98.4 275.9 98.2 275.9 98.2 275.9 Z " fill="#519B3D" stroke-width="1" stroke="none"/>
                <path d="M 95.6 271.1 C 95.6 271.1 96.2 271.1 96.9 270.6 C 97.3 270.4 97.6 270 97.9 269.5 C 98 269.3 98.1 269 98.2 268.7 C 98.3 268.4 98.3 268.1 98.4 267.9 C 98.5 266.8 98.5 265.7 98.6 264.9 C 98.6 264.1 98.8 263.6 98.8 263.6 C 98.8 263.6 98.7 263.7 98.6 263.9 C 98.5 264.1 98.3 264.4 98.2 264.8 C 98 265.6 97.9 266.7 97.8 267.8 C 97.7 268.8 97.3 269.8 96.7 270.3 C 96.4 270.6 96.2 270.8 95.9 270.9 C 95.7 271 95.6 271.1 95.6 271.1 Z " fill="#519B3D" stroke-width="1" stroke="none"/>
                <path d="M 91.5 271.5 C 91.5 271.5 95.8 271.4 94.9 269.4 C 94.3 268.2 93.7 268.9 93.2 269.7 C 92.7 270.7 92.6 271 91.5 271.5 Z " fill="#A1AF93" stroke-width="1" stroke="none"/>
                <path d="M 94.7 276.9 C 94.7 276.9 99 276 97.7 274.3 C 96.9 273.2 96.4 274 96 274.9 C 95.7 275.8 95.6 276.2 94.7 276.9 Z " fill="#A1AF93" stroke-width="1" stroke="none"/>
                <path d="M 98.7 280.8 C 98.7 280.8 102.4 278.6 100.7 277.3 C 99.6 276.5 99.3 277.4 99.3 278.4 C 99.3 279.4 99.4 279.8 98.7 280.8 Z " fill="#A1AF93" stroke-width="1" stroke="none"/>
              </g>
              <g>
                <path d="M 200.7 173.9 C 205.7 191.9 190.2 222.9 176 224 C 154.4 225.7 141.1 229 134.1 229.7 C 127.3 230.5 125.5 232.9 112 257.2 C 108.6 263.3 97 270.1 101.3 256 C 102.1 253.2 108.6 231.8 113.7 225.7 C 123.2 214.4 128.5 217.5 133.9 215.3 C 140.7 212.6 149.2 205.5 146.5 189.1 C 141.5 158.1 188.5 129.4 200.7 173.9 Z " fill="#7CBF2E" stroke-width="1" stroke="none"/>
                <g>
                  <path d="M 178.7 169.4 C 183.9 165.7 188 159.9 181.1 157.6 C 174.2 155.4 162.9 155.8 161.6 162.5 C 160.4 169.4 173.5 173.1 178.7 169.4 Z " stroke-width="1" fill="#89CE30" stroke="none"/>
                  <path d="M 172.1 180.3 C 177.8 180.2 172.6 174.6 166.9 174.2 C 161.3 173.7 163.1 180.5 172.1 180.3 Z " stroke-width="1" fill="#89CE30" stroke="none"/>
                  <path d="M 184.2 173.4 C 188.4 173.2 186.4 177.7 183.4 178.5 C 180.5 179.4 179.2 173.6 184.2 173.4 Z " stroke-width="1" fill="#89CE30" stroke="none"/>
                </g>
              </g>
            </g>
            <path d="M 137.8 229.3 C 137.8 229.3 137.3 229.3 136.5 229.4 C 135.7 229.5 134.5 229.5 133.1 229.7 C 132.4 229.8 131.6 229.9 130.9 230.2 C 130.5 230.3 130.1 230.4 129.7 230.7 C 129.3 230.9 129 231.2 128.6 231.5 C 127.2 232.6 125.9 234 124.8 235.5 C 123.7 237 122.6 238.6 121.7 240.1 C 120.8 241.6 119.9 243 119.3 244.2 C 118.6 245.4 118.1 246.5 117.7 247.2 C 117.3 247.9 117.1 248.3 117.1 248.3 C 117.1 248.3 118.1 246.7 119.6 244.3 C 120.3 243.1 121.2 241.7 122.2 240.3 C 123.2 238.8 124.2 237.3 125.4 235.8 C 126.5 234.3 127.7 232.9 129.1 231.8 C 129.4 231.5 129.8 231.2 130.1 231.1 C 130.4 230.9 130.8 230.8 131.2 230.6 C 131.9 230.4 132.7 230.2 133.4 230 C 134.8 229.7 135.9 229.5 136.7 229.4 C 137.4 229.4 137.8 229.3 137.8 229.3 Z " id="Shape" fill="#519B3D" stroke-width="1" stroke="none"/>
            <g id="Shape">
              <path d="M 91.1 84.4 C 100.4 80.1 130.5 78.7 118.4 121.3 C 118.4 121.3 157.7 101.7 156 145.4 C 156 145.4 213 108.7 245.7 144.9 C 245.7 144.9 218.7 83.6 244 49.8 C 244 49.8 225.2 11.5 162.7 26.7 C 133.3 33.9 91.1 84.4 91.1 84.4 Z " fill="#B4D189" stroke-width="1" stroke="none"/>
              <path d="M 267.9 148.5 C 267.9 148.5 235.3 117.4 238.1 96.8 C 240.9 76.1 260.2 51.8 257.2 40 C 254.2 28.2 245.9 19.4 235.8 21.2 C 235.8 21.2 248.2 22.9 247.1 33.5 C 247.1 33.5 205.6 15.2 166.4 21.3 C 135.5 26.1 85.2 90.5 85.2 90.5 C 85.2 90.5 146.1 32.6 169.2 29.7 C 192.4 26.9 231.1 32.4 235.4 42.3 C 235.4 42.3 186.4 31.4 172.3 43.3 C 158.2 55.2 135.3 78.3 115.6 126.8 C 115.6 126.8 159.1 59.6 176.8 52.4 C 194.5 45.2 234.4 51.7 234.4 51.7 C 234.4 51.7 184.9 61.4 172.7 89.8 C 160.5 118.2 154.2 151.3 154.2 151.3 C 154.2 151.3 177.8 86.8 197.5 76.2 C 216.4 66 233.9 61.7 233.9 61.7 C 233.9 61.7 222.8 88.4 227.5 108.5 C 232.7 130.9 244.3 137 248.8 152.1 C 251.5 162.1 269.7 156.7 267.9 148.5 Z " fill="#7CBF2E" stroke-width="1" stroke="none"/>
              <path d="M 265 145.7 C 265 145.7 261 141.7 255.7 135.1 C 253 131.8 250.1 127.9 247.2 123.4 C 244.3 119 241.5 114 239.8 108.7 C 238.9 106 238.3 103.3 238.3 100.5 C 238.4 97.8 238.8 95.1 239.4 92.5 C 240.6 87.4 242.2 82.7 243.7 78.8 C 246.8 70.9 249.5 65.9 249.5 65.9 C 249.5 65.9 248.8 67.1 247.7 69.3 C 246.6 71.5 245 74.7 243.4 78.6 C 241.8 82.5 240.1 87.2 238.9 92.4 C 238.3 95 237.8 97.7 237.7 100.5 C 237.7 103.3 238.3 106.2 239.2 108.9 C 241 114.3 243.9 119.2 246.8 123.7 C 249.7 128.1 252.8 132 255.5 135.3 C 258.2 138.6 260.6 141.1 262.3 142.9 C 264 144.7 265 145.7 265 145.7 Z " fill="#519B3D" stroke-width="1" stroke="none"/>
              <path d="M 237.7 51.2 C 237.7 51.3 236.9 51.4 235.6 51.7 C 234.2 52 232.3 52.3 230 52.9 C 227.7 53.5 225 54.2 222.1 55 C 219.2 55.9 216.2 56.9 213.2 58 C 210.2 59.2 207.3 60.4 204.6 61.7 C 201.9 63 199.4 64.3 197.3 65.4 C 195.2 66.6 193.5 67.6 192.4 68.4 C 191.2 69.2 190.6 69.6 190.6 69.6 C 190.6 69.6 191.3 69.2 192.5 68.5 C 193.7 67.8 195.5 66.9 197.6 65.7 C 199.7 64.6 202.2 63.4 204.9 62.1 C 207.6 60.9 210.5 59.6 213.5 58.5 C 216.5 57.3 219.5 56.3 222.3 55.4 C 225.1 54.5 227.8 53.7 230.1 53.1 C 232.4 52.5 234.3 52 235.7 51.7 C 236.9 51.4 237.7 51.2 237.7 51.2 Z " fill="#519B3D" stroke-width="1" stroke="none"/>
              <path d="M 238.4 43.2 C 238.4 43.2 237.6 43 236.2 42.6 C 234.8 42.2 232.7 41.7 230.2 41.2 C 229 40.9 227.6 40.7 226.2 40.4 C 224.8 40.2 223.3 39.9 221.7 39.6 C 218.6 39.1 215.2 38.7 211.8 38.4 C 210.1 38.2 208.4 38.2 206.8 38 C 205.1 37.9 203.5 37.9 201.9 37.8 C 200.3 37.7 198.8 37.8 197.3 37.8 C 195.8 37.8 194.5 37.8 193.2 37.9 C 191.9 38 190.8 38 189.7 38.1 C 188.7 38.2 187.8 38.3 187 38.3 C 185.5 38.4 184.7 38.5 184.7 38.5 C 184.7 38.5 185.5 38.5 187 38.4 C 187.7 38.4 188.6 38.3 189.7 38.3 C 190.7 38.3 191.9 38.3 193.2 38.3 C 194.5 38.3 195.8 38.3 197.3 38.3 C 198.8 38.3 200.3 38.3 201.9 38.4 C 203.5 38.5 205.1 38.5 206.8 38.6 C 208.5 38.7 210.1 38.8 211.8 39 C 215.2 39.3 218.5 39.7 221.7 40.1 C 224.8 40.5 227.8 41 230.3 41.5 C 232.8 42 234.9 42.4 236.3 42.7 C 237.6 43 238.4 43.2 238.4 43.2 Z " fill="#519B3D" stroke-width="1" stroke="none"/>
              <path d="M 247.2 33.5 C 247.2 33.5 246.1 33 244.2 32.2 C 243.2 31.8 242 31.3 240.7 30.8 C 239.3 30.3 237.8 29.7 236.1 29.1 C 234.4 28.5 232.5 27.9 230.6 27.3 C 228.6 26.7 226.5 26.1 224.3 25.5 C 222.1 25 219.9 24.3 217.5 23.8 C 215.2 23.3 212.8 22.7 210.5 22.3 C 209.3 22.1 208.1 21.9 206.9 21.7 C 205.7 21.5 204.5 21.4 203.4 21.2 C 202.2 21 201.1 20.9 199.9 20.7 C 198.7 20.6 197.6 20.5 196.5 20.4 C 195.4 20.3 194.3 20.2 193.2 20.1 C 192.1 20 191.1 20 190 19.9 C 189 19.9 188 19.8 187 19.8 C 186 19.8 185.1 19.8 184.2 19.8 C 182.4 19.8 180.7 19.8 179.3 19.8 C 177.8 19.9 176.6 20 175.5 20 C 173.4 20.1 172.2 20.2 172.2 20.2 C 172.2 20.2 173.4 20.2 175.5 20.1 C 176.6 20.1 177.8 20 179.3 20 C 180.8 20 182.4 20.1 184.2 20.1 C 185.1 20.1 186 20.1 187 20.2 C 188 20.3 189 20.3 190 20.4 C 191 20.5 192.1 20.5 193.2 20.6 C 194.3 20.7 195.4 20.8 196.5 20.9 C 197.6 21 198.8 21.1 199.9 21.3 C 201 21.4 202.2 21.6 203.4 21.8 C 204.6 22 205.7 22.1 206.9 22.3 C 208.1 22.5 209.3 22.7 210.4 22.9 C 212.8 23.3 215.1 23.8 217.4 24.3 C 219.7 24.8 222 25.4 224.2 25.9 C 226.4 26.5 228.5 27 230.5 27.6 C 232.5 28.2 234.4 28.7 236.1 29.3 C 239.5 30.4 242.4 31.4 244.3 32.1 C 246.1 33.1 247.2 33.5 247.2 33.5 Z " fill="#519B3D" stroke-width="1" stroke="none"/>
              <path d="M 247.2 149.9 C 247.2 149.9 247.2 149.7 247.2 149.3 C 247.2 148.9 247.1 148.3 246.8 147.5 C 246.4 146 245.5 143.9 244.1 141.5 C 243.4 140.3 242.7 139.1 241.8 137.8 C 240.9 136.5 240 135.2 239 133.8 C 237 131.1 235.2 128 233.6 124.8 C 232 121.6 230.6 118.3 229.5 115.1 C 228.4 111.9 227.5 108.9 227 106.2 C 226.4 103.6 226.1 101.3 226.1 99.8 C 226.1 99 226.1 98.4 226.1 98 C 226.1 97.6 226.1 97.4 226.1 97.4 C 226.1 97.4 226.1 97.6 226 98 C 226 98.4 225.9 99 225.9 99.8 C 225.9 101.4 226.1 103.6 226.6 106.3 C 227.1 109 227.8 112.1 228.9 115.3 C 230 118.5 231.3 121.9 232.9 125.1 C 234.5 128.3 236.4 131.5 238.4 134.2 C 239.4 135.6 240.4 136.9 241.3 138.1 C 242.2 139.4 243 140.6 243.7 141.7 C 244.4 142.9 245 143.9 245.5 144.9 C 246 145.9 246.3 146.8 246.6 147.5 C 246.9 148.2 247 148.9 247 149.3 C 247.2 149.7 247.2 149.9 247.2 149.9 Z " fill="#519B3D" stroke-width="1" stroke="none"/>
              <path d="M 236 58.4 C 236 58.4 235.8 58.5 235.6 58.8 C 235.4 59.1 235 59.5 234.7 60.1 C 234 61.2 233.2 62.8 232.5 64.4 C 231.9 66 231.4 67.7 231.1 69 C 230.9 69.6 230.9 70.2 230.8 70.6 C 230.7 71 230.7 71.2 230.7 71.2 C 230.7 71.2 230.8 71 230.9 70.6 C 231 70.2 231.2 69.7 231.4 69.1 C 231.8 67.9 232.4 66.2 233.1 64.6 C 233.7 63 234.4 61.4 235 60.2 C 235.6 59.1 236 58.4 236 58.4 Z " fill="#519B3D" stroke-width="1" stroke="none"/>
              <path d="M 235.4 42.5 C 235.4 42.5 235.3 42.2 235 41.6 C 234.8 41.3 234.6 41 234.4 40.7 C 234.1 40.4 233.8 40 233.4 39.7 C 233 39.4 232.6 39 232.1 38.7 C 231.6 38.3 231.1 38 230.5 37.7 C 229.9 37.4 229.3 37.1 228.7 36.7 C 228.1 36.4 227.4 36.1 226.8 35.8 C 226.2 35.6 225.5 35.3 224.9 35.1 C 224.3 34.9 223.6 34.7 223 34.5 C 221.8 34.1 220.6 33.8 219.6 33.5 C 218.6 33.3 217.7 33.1 217.2 33 C 216.6 32.9 216.3 32.8 216.3 32.8 C 216.3 32.8 217.6 33.2 219.6 33.8 C 220.6 34.1 221.7 34.5 222.9 34.9 C 223.5 35.1 224.1 35.3 224.8 35.6 C 225.4 35.9 226.1 36.1 226.7 36.4 C 227.3 36.7 228 36.9 228.6 37.2 C 229.2 37.5 229.8 37.8 230.4 38.1 C 230.9 38.4 231.5 38.7 232 39 C 232.5 39.3 232.9 39.6 233.4 39.9 C 233.8 40.2 234.2 40.5 234.5 40.8 C 234.8 41.1 235 41.4 235.2 41.6 C 235.3 42.1 235.4 42.5 235.4 42.5 Z " fill="#519B3D" stroke-width="1" stroke="none"/>
              <path d="M 246.3 28 C 246.3 28 246.5 28.8 246.7 30 C 246.8 30.6 246.9 31.3 246.9 32 C 246.9 32.7 246.8 33.5 246.5 34.2 C 246.4 34.4 246.3 34.5 246.2 34.7 C 246.1 34.9 246 35 245.8 35.2 C 245.6 35.6 245.4 36 245.4 36.4 C 245.3 37.2 245.5 38 245.8 38.6 C 246.1 39.2 246.6 39.5 246.9 39.6 C 247.2 39.7 247.5 39.7 247.5 39.7 C 247.5 39.7 247.3 39.7 247 39.5 C 246.7 39.3 246.4 38.9 246.1 38.4 C 245.9 37.9 245.7 37.2 245.9 36.5 C 246 36.2 246.1 35.8 246.3 35.5 C 246.4 35.3 246.5 35.2 246.6 35 C 246.7 34.8 246.9 34.6 247 34.4 C 247.4 33.6 247.4 32.7 247.4 31.9 C 247.3 31.1 247.2 30.4 247 29.8 C 246.7 28.7 246.3 28 246.3 28 Z " fill="#519B3D" stroke-width="1" stroke="none"/>
              <path d="M 219.8 130.2 C 219.8 130.2 219.6 130.1 219.1 130 C 218.6 129.9 217.9 129.7 217 129.6 C 216.1 129.4 215 129.3 213.7 129.2 C 212.4 129.1 211 129 209.4 128.9 C 208.6 128.9 207.8 128.9 206.9 128.9 C 206.1 128.9 205.2 129 204.3 129 C 202.5 129 200.6 129.3 198.6 129.5 C 197.6 129.6 196.6 129.8 195.6 130 C 194.6 130.2 193.6 130.3 192.6 130.5 C 191.6 130.7 190.6 131 189.6 131.2 L 188.1 131.5 L 186.6 131.9 C 184.6 132.5 182.5 133 180.6 133.8 C 179.6 134.1 178.7 134.5 177.7 134.8 C 177.2 135 176.7 135.1 176.3 135.3 C 175.8 135.5 175.4 135.7 174.9 135.9 C 173.1 136.7 171.3 137.4 169.7 138.1 C 168.1 138.9 166.6 139.6 165.1 140.3 C 164.4 140.6 163.7 141 163.1 141.3 C 162.5 141.7 161.9 142 161.3 142.3 C 160.2 142.9 159.2 143.5 158.4 143.9 C 156.8 144.8 155.9 145.3 155.9 145.3 C 155.9 145.3 156.8 144.8 158.5 144 C 159.3 143.6 160.3 143.1 161.4 142.5 C 162 142.2 162.6 141.9 163.2 141.6 C 163.8 141.3 164.5 141 165.2 140.7 C 166.6 140 168.2 139.3 169.8 138.6 C 171.5 137.9 173.2 137.2 175 136.5 C 175.5 136.3 175.9 136.1 176.4 135.9 C 176.9 135.7 177.3 135.6 177.8 135.4 C 178.8 135.1 179.7 134.7 180.7 134.4 C 182.6 133.7 184.7 133.2 186.7 132.6 L 188.2 132.2 L 189.7 131.8 C 190.7 131.6 191.7 131.3 192.7 131.1 C 193.7 130.9 194.7 130.7 195.7 130.5 C 196.7 130.3 197.7 130.1 198.6 130 C 200.5 129.8 202.4 129.5 204.2 129.4 C 205.1 129.3 206 129.2 206.8 129.2 C 207.6 129.2 208.5 129.2 209.2 129.2 C 210 129.2 210.7 129.2 211.4 129.2 C 212.1 129.2 212.8 129.2 213.4 129.3 C 214.7 129.4 215.8 129.5 216.7 129.6 C 217.6 129.7 218.3 129.8 218.8 130 C 219.6 130.2 219.8 130.2 219.8 130.2 Z " fill="#7D9950" stroke-width="1" stroke="none"/>
              <path d="M 199.4 75.4 C 199.4 75.4 199.1 75.5 198.5 75.7 C 197.9 75.9 197 76.3 196 77 C 193.9 78.3 191.3 80.5 188.5 83.6 C 187.1 85.2 185.7 86.9 184.4 88.9 C 183 90.8 181.7 92.9 180.3 95.2 C 179 97.4 177.6 99.7 176.3 102.1 C 175.6 103.3 175 104.5 174.3 105.7 C 173.7 106.9 173 108.1 172.4 109.4 C 169.9 114.3 167.5 119.3 165.4 124 C 164.3 126.3 163.3 128.6 162.4 130.8 C 161.5 133 160.6 135 159.8 136.9 C 158.2 140.7 156.9 143.9 156 146.1 C 155.1 148.3 154.6 149.6 154.6 149.6 C 154.6 149.6 155.2 148.3 156.1 146.1 C 157.1 143.9 158.5 140.7 160.1 137 C 161.8 133.2 163.8 128.8 166 124.2 C 168.2 119.5 170.6 114.6 173.1 109.7 C 174.3 107.2 175.6 104.8 176.9 102.4 C 178.2 100 179.5 97.7 180.8 95.5 C 183.4 91.1 186.1 87.1 188.8 83.9 C 190.1 82.3 191.4 81 192.7 79.8 C 193.9 78.7 195.1 77.8 196.1 77.1 C 197.1 76.4 197.9 76 198.5 75.7 C 199.1 75.5 199.4 75.4 199.4 75.4 Z " fill="#519B3D" stroke-width="1" stroke="none"/>
              <path d="M 119.6 94.3 C 119.6 94.3 119.5 93.8 119.2 93 C 119 92.6 118.8 92.1 118.5 91.6 C 118.2 91.1 117.9 90.4 117.4 89.8 C 117 89.2 116.4 88.5 115.9 87.9 C 115.3 87.3 114.7 86.6 113.9 86 C 113.2 85.4 112.3 84.9 111.4 84.4 C 111 84.1 110.5 84 110 83.8 C 109.5 83.6 109.1 83.4 108.6 83.2 L 107.1 82.8 C 106.6 82.7 106.1 82.5 105.6 82.5 C 105.1 82.4 104.6 82.4 104.1 82.3 L 103.4 82.2 C 103.2 82.2 102.9 82.2 102.7 82.2 C 101.8 82.2 100.8 82.2 100 82.2 C 99.1 82.3 98.3 82.4 97.6 82.5 C 97.2 82.6 96.9 82.6 96.5 82.7 C 96.2 82.8 95.9 82.9 95.6 82.9 C 95 83 94.5 83.2 94.1 83.3 C 93.3 83.5 92.8 83.6 92.8 83.6 C 92.8 83.6 93.3 83.5 94.2 83.4 C 94.6 83.3 95.2 83.2 95.8 83.1 C 96.1 83 96.4 83 96.8 82.9 C 97.1 82.9 97.5 82.8 97.9 82.8 C 98.6 82.7 99.4 82.7 100.3 82.6 C 101.2 82.6 102 82.7 103 82.7 C 103.2 82.7 103.5 82.7 103.7 82.7 L 104.4 82.8 C 104.9 82.9 105.3 82.9 105.8 83 C 106.3 83 106.8 83.2 107.2 83.3 L 108.6 83.7 C 109.1 83.8 109.5 84.1 110 84.2 C 110.4 84.4 110.9 84.5 111.3 84.8 C 112.1 85.3 113 85.7 113.7 86.3 C 114.5 86.8 115.1 87.5 115.7 88 C 116.3 88.6 116.8 89.2 117.3 89.8 C 117.8 90.4 118.1 91 118.4 91.5 C 118.7 92 119 92.5 119.2 92.9 C 119.4 93.8 119.6 94.3 119.6 94.3 Z " fill="#7D9950" stroke-width="1" stroke="none"/>
              <path d="M 153.5 127.8 C 153.5 127.8 153.3 127.3 152.9 126.4 C 152.7 126 152.4 125.4 152 124.8 C 151.8 124.5 151.6 124.2 151.4 123.9 C 151.1 123.6 150.9 123.3 150.6 123 C 150.3 122.7 150 122.4 149.7 122 C 149.4 121.7 149 121.3 148.6 121 C 148.2 120.7 147.8 120.4 147.4 120.1 C 147 119.8 146.5 119.6 146 119.3 C 145.8 119.2 145.5 119 145.3 118.9 C 145 118.8 144.8 118.7 144.5 118.6 C 144 118.4 143.5 118.2 142.9 117.9 C 142.4 117.7 141.8 117.6 141.2 117.4 L 140.4 117.2 C 140.1 117.1 139.8 117.1 139.5 117.1 C 138.4 117 137.2 116.8 136.1 116.8 C 135 116.8 133.8 116.8 132.8 116.9 C 131.7 117 130.7 117.1 129.7 117.3 C 128.7 117.5 127.8 117.8 127 118 C 126.2 118.2 125.4 118.5 124.8 118.7 C 124.1 118.9 123.6 119.1 123.1 119.3 C 122.2 119.7 121.6 119.9 121.6 119.9 C 121.6 119.9 122.1 119.7 123.1 119.5 C 123.6 119.4 124.2 119.2 124.8 119 C 125.5 118.8 126.2 118.6 127.1 118.4 C 127.9 118.2 128.8 118 129.8 117.8 C 130.3 117.7 130.8 117.7 131.3 117.6 C 131.8 117.5 132.3 117.5 132.9 117.4 C 134 117.2 135 117.3 136.2 117.3 C 137.3 117.3 138.4 117.5 139.5 117.6 C 139.8 117.6 140.1 117.7 140.3 117.7 L 141.1 117.9 C 141.6 118 142.2 118.2 142.7 118.3 C 143.2 118.5 143.7 118.7 144.2 118.9 C 144.5 119 144.7 119.1 144.9 119.2 C 145.1 119.3 145.4 119.5 145.6 119.6 C 146.1 119.9 146.5 120.1 146.9 120.4 C 147.3 120.7 147.7 121 148.1 121.3 C 148.5 121.6 148.8 121.9 149.2 122.2 C 149.5 122.5 149.9 122.8 150.2 123.1 C 150.5 123.4 150.8 123.7 151 124 C 151.2 124.3 151.5 124.6 151.7 124.9 C 152.1 125.4 152.4 126 152.7 126.4 C 153.3 127.3 153.5 127.8 153.5 127.8 Z " fill="#7D9950" stroke-width="1" stroke="none"/>
              <path d="M 185.8 50.1 C 185.8 50.1 185.1 50.2 183.9 50.4 C 182.7 50.6 181 51 179 51.6 C 178 51.9 176.9 52.3 175.8 52.8 C 174.7 53.3 173.6 54 172.5 54.7 C 170.3 56.2 168.2 58 166.2 60 C 164.2 62 162.3 64 160.6 66 C 158.9 68 157.3 69.8 156 71.5 C 153.3 74.7 151.6 76.9 151.6 76.9 C 151.6 76.9 153.5 74.8 156.3 71.7 C 157.7 70.1 159.3 68.3 161.1 66.4 C 162.9 64.5 164.8 62.4 166.7 60.5 C 168.7 58.5 170.8 56.7 172.9 55.2 C 174 54.5 175 53.7 176.1 53.2 C 177.2 52.7 178.2 52.3 179.2 52 C 181.2 51.3 182.9 50.9 184.1 50.6 C 185.1 50.3 185.8 50.1 185.8 50.1 Z " fill="#519B3D" stroke-width="1" stroke="none"/>
              <path d="M 85.3 90.6 C 85.3 90.6 88.4 87.9 93 83.8 C 95.3 81.7 98 79.4 100.9 76.8 C 103.8 74.2 106.9 71.5 110 68.8 C 113.1 66.1 116.2 63.4 119.2 60.9 C 122.2 58.4 124.9 56.1 127.4 54.2 C 128.6 53.2 129.7 52.3 130.7 51.6 C 131.7 50.9 132.6 50.2 133.3 49.7 C 134.8 48.7 135.6 48.1 135.6 48.1 C 135.6 48.1 134.7 48.7 133.2 49.6 C 132.4 50.1 131.5 50.7 130.5 51.4 C 129.5 52.1 128.3 53 127.1 53.9 C 124.6 55.8 121.8 58 118.8 60.5 C 115.8 63 112.7 65.6 109.5 68.3 C 106.4 71 103.3 73.8 100.4 76.4 C 97.5 79 94.9 81.5 92.6 83.6 C 90.3 85.7 88.5 87.5 87.2 88.7 C 86 89.9 85.3 90.6 85.3 90.6 Z " fill="#519B3D" stroke-width="1" stroke="none"/>
            </g>
            <g id="Shape">
              <g>
                <path d="M 291.1 253.6 C 291.1 253.6 290.2 250.5 291.6 250.8 C 292.4 251 292.2 251.6 291.8 252.1 C 291.3 252.6 291.1 252.7 291.1 253.6 Z " fill="#A1AF93" stroke-width="1" stroke="none"/>
                <path d="M 304.5 255.7 C 304.2 257.7 305.3 259.3 304.5 260.9 C 302.9 264.2 301.9 266.4 302.5 268.9 C 303.1 271.3 297.9 273.4 297.3 271.6 C 296.8 270 297.4 269.6 298.5 268.3 C 298.5 268.3 297.2 269.3 296.1 269.3 C 294.7 269.4 294 268.2 294 266.9 C 294 265.6 295.1 264.5 295.1 264.5 C 295.1 264.5 293.4 264.9 292.5 263.5 C 291.5 261.8 292.2 261.8 293.6 260.1 C 294.7 258.8 295.4 257.1 295 255.3 C 294.6 253.1 295.4 251.5 294.7 249.6 C 294.3 248.5 292.8 252.3 291.9 251.8 C 290.6 251.1 290.4 250 291.3 248.8 C 292.8 246.7 293.7 246 295.1 245.3 C 297.2 244.2 298.7 238.3 301.1 241.4 C 303.5 244.5 305.1 252.1 304.5 255.7 Z " fill="#7CBF2E" stroke-width="1" stroke="none"/>
                <path d="M 296.8 269.4 C 296.8 269.4 297 269.4 297.3 269.4 C 297.6 269.3 298.1 269.2 298.5 268.9 C 298.7 268.7 298.9 268.5 299.1 268.2 C 299.3 267.9 299.4 267.6 299.5 267.3 C 299.6 267 299.6 266.6 299.6 266.2 C 299.6 265.8 299.6 265.5 299.6 265.2 C 299.7 263.9 300.3 262.6 300.8 261.7 C 301.1 261.3 301.3 260.9 301.5 260.7 C 301.7 260.5 301.8 260.3 301.8 260.3 C 301.8 260.3 301.6 260.4 301.4 260.6 C 301.2 260.8 300.8 261.1 300.5 261.5 C 299.8 262.3 299.1 263.6 299 265.2 C 299 265.6 299 265.9 299 266.3 C 299 266.6 299 266.9 298.9 267.2 C 298.8 267.8 298.6 268.3 298.2 268.7 C 297.9 269.1 297.5 269.3 297.2 269.4 C 297 269.3 296.8 269.4 296.8 269.4 Z " fill="#519B3D" stroke-width="1" stroke="none"/>
                <path d="M 294.8 264.5 C 294.8 264.5 295.4 264.4 296.2 264 C 296.6 263.8 297 263.4 297.4 263 C 297.8 262.6 298.1 262 298.3 261.5 C 298.4 261.2 298.5 260.9 298.6 260.7 C 298.7 260.4 298.7 260.2 298.8 259.9 C 298.9 259.4 299 258.9 299.1 258.5 C 299.3 257.7 299.6 257.2 299.6 257.2 C 299.6 257.2 299.5 257.3 299.3 257.5 C 299.1 257.7 298.9 258 298.7 258.4 C 298.3 259.2 298 260.3 297.7 261.4 C 297.4 262.4 296.7 263.3 296.1 263.8 C 295.4 264.3 294.8 264.5 294.8 264.5 Z " fill="#519B3D" stroke-width="1" stroke="none"/>
                <path d="M 290.8 263.5 C 290.8 263.5 295.1 264.3 294.6 262.1 C 294.3 260.8 293.5 261.3 292.8 262.1 C 292.2 262.9 292 263.2 290.8 263.5 Z " fill="#A1AF93" stroke-width="1" stroke="none"/>
                <path d="M 292.9 269.4 C 292.9 269.4 297.2 269.4 296.4 267.4 C 295.9 266.2 295.2 266.8 294.7 267.7 C 294.1 268.5 294 268.9 292.9 269.4 Z " fill="#A1AF93" stroke-width="1" stroke="none"/>
                <path d="M 296.1 274 C 296.1 274 300.2 272.6 298.7 271 C 297.8 270 297.3 270.9 297.1 271.8 C 296.9 272.8 297 273.2 296.1 274 Z " fill="#A1AF93" stroke-width="1" stroke="none"/>
              </g>
              <g>
                <path d="M 287.8 192.5 C 291.5 203.5 285.8 222.1 271 233.7 C 266 237.6 266.6 239.5 266.6 239.5 C 266.6 239.5 272.2 239.2 281.8 241 C 289.2 242.4 296.5 239.4 299.8 240.5 C 303.2 241.6 305.7 250.4 283.4 252.3 C 244.4 255.7 238.4 243.9 246.7 232.8 C 255.8 220.6 249.9 211.5 251.6 198 C 253.4 184.5 281.6 173.8 287.8 192.5 Z " fill="#7CBF2E" stroke-width="1" stroke="none"/>
                <path d="M 247.4 231.7 C 247.4 231.7 247.7 231.4 248.1 230.9 C 248.5 230.4 249.1 229.6 249.6 228.6 C 249.9 228.1 250.1 227.5 250.4 226.9 C 250.7 226.3 250.9 225.6 251.1 224.9 C 251.3 224.2 251.5 223.5 251.7 222.7 C 251.8 222 252 221.2 252.1 220.4 C 252.2 219.6 252.3 218.9 252.3 218.1 C 252.3 217.3 252.4 216.6 252.3 215.9 C 252.3 215.2 252.2 214.5 252.2 213.8 C 252.1 213.1 252 212.5 252 212 C 251.9 211.4 251.9 210.9 251.8 210.5 C 251.7 210 251.6 209.6 251.6 209.3 C 251.5 208.6 251.4 208.3 251.4 208.3 C 251.4 208.3 251.4 208.7 251.5 209.3 C 251.6 210 251.7 210.9 251.8 212 C 251.8 212.6 251.9 213.2 251.9 213.8 C 251.9 214.5 251.9 215.1 251.9 215.9 C 251.9 216.6 251.8 217.3 251.8 218.1 C 251.8 218.8 251.6 219.6 251.6 220.3 C 251.5 221.1 251.4 221.8 251.3 222.5 C 251.1 223.2 251 223.9 250.8 224.6 C 250.6 225.3 250.4 225.9 250.2 226.5 C 250 227.1 249.7 227.7 249.5 228.2 C 249.2 228.7 249 229.2 248.8 229.6 C 248.6 230 248.4 230.4 248.2 230.6 C 247.7 231.4 247.4 231.7 247.4 231.7 Z " fill="#519B3D" stroke-width="1" stroke="none"/>
                <path d="M 298.4 240 C 298.4 240 297.8 240.1 296.7 240.3 C 296.2 240.4 295.5 240.5 294.8 240.5 C 294.1 240.6 293.2 240.7 292.3 240.7 C 291.4 240.8 290.4 240.8 289.3 240.8 C 288.3 240.8 287.1 240.8 286 240.7 C 283.7 240.6 281.3 240.4 278.8 240.1 C 276.4 239.9 273.9 239.6 271.6 239.4 C 269.3 239.2 267.2 239.1 265.3 239.1 C 263.5 239.1 261.9 239.1 260.9 239.1 C 259.8 239.1 259.2 239.2 259.2 239.2 C 259.2 239.2 259.8 239.2 260.9 239.3 C 261.4 239.3 262.1 239.3 262.8 239.4 C 263.5 239.4 264.4 239.5 265.3 239.5 C 267.1 239.6 269.3 239.8 271.5 240 C 273.8 240.2 276.2 240.5 278.7 240.7 C 281.1 240.9 283.6 241.1 285.9 241.2 C 287.1 241.3 288.2 241.2 289.2 241.2 C 290.3 241.1 291.3 241.1 292.2 241 C 292.7 241 293.1 240.9 293.5 240.9 C 293.9 240.8 294.3 240.8 294.7 240.7 C 295.4 240.6 296.1 240.5 296.6 240.3 C 297.8 240.2 298.4 240 298.4 240 Z " fill="#519B3D" stroke-width="1" stroke="none"/>
                <path d="M 281.7 252.6 C 281.7 252.6 279.1 252.6 275.1 252.7 C 273.1 252.7 270.8 252.7 268.3 252.6 C 267.1 252.6 265.8 252.5 264.5 252.5 C 263.2 252.4 261.9 252.4 260.6 252.1 C 259.3 251.9 258 251.7 256.7 251.4 C 255.4 251.1 254.2 250.8 253.1 250.4 C 250.8 249.7 248.7 248.6 247.1 247.5 C 245.5 246.4 244.5 245 244 244 C 243.5 243 243.5 242.3 243.5 242.3 C 243.5 242.3 243.5 242.5 243.5 242.8 C 243.5 243.1 243.6 243.6 243.8 244.1 C 244 244.6 244.3 245.3 244.8 245.9 C 245.3 246.6 245.9 247.2 246.7 247.9 C 248.3 249.2 250.4 250.2 252.8 251 C 255.2 251.8 257.8 252.3 260.4 252.6 C 263 252.9 265.7 252.9 268.2 252.9 C 270.7 252.9 273 252.9 275 252.8 C 279.1 252.8 281.7 252.6 281.7 252.6 Z " fill="#519B3D" stroke-width="1" stroke="none"/>
                <path d="M 286.1 213 C 286.1 213 286.7 211.8 287.3 209.9 C 287.6 209 288 207.8 288.2 206.6 C 288.5 205.4 288.8 204.1 288.9 202.8 C 289 202.1 289.1 201.5 289.1 200.8 C 289.2 200.1 289.2 199.5 289.2 198.9 C 289.2 198.3 289.1 197.7 289.1 197.1 C 289.1 196.5 288.9 196 288.8 195.5 C 288.7 195 288.5 194.6 288.4 194.2 C 288.3 194 288.3 193.8 288.2 193.7 C 288.1 193.5 288 193.4 288 193.3 C 287.7 192.8 287.6 192.5 287.6 192.5 C 287.6 192.5 287.7 192.8 287.9 193.3 C 288 193.4 288 193.6 288.1 193.7 C 288.1 193.9 288.2 194.1 288.2 194.2 C 288.3 194.6 288.4 195 288.5 195.5 C 288.5 196 288.7 196.5 288.6 197.1 C 288.6 197.7 288.6 198.2 288.6 198.9 C 288.6 199.5 288.6 200.1 288.5 200.8 C 288.5 201.4 288.4 202.1 288.3 202.7 C 288.1 204 287.9 205.3 287.6 206.5 C 287.3 207.7 287.1 208.8 286.8 209.8 C 286.5 211.7 286.1 213 286.1 213 Z " fill="#519B3D" stroke-width="1" stroke="none"/>
              </g>
            </g>
          </g>
        </g>
      </g>
    </g>
  </g>
</svg>