<svg version="1.1" xmlns="http://www.w3.org/2000/svg" xmlns:xlink="http://www.w3.org/1999/xlink" width="217" height="52" viewBox="0,0,217,52"><defs><linearGradient x1="241" y1="154" x2="241" y2="206" gradientUnits="userSpaceOnUse" id="color-1"><stop offset="0" stop-color="#ff3030"/><stop offset="1" stop-color="#5f30ff"/></linearGradient></defs><g transform="translate(-132.5,-154)"><g data-paper-data="{&quot;isPaintingLayer&quot;:true}" fill-rule="nonzero" stroke="none" stroke-linecap="butt" stroke-linejoin="miter" stroke-miterlimit="10" stroke-dasharray="" stroke-dashoffset="0" style="mix-blend-mode: normal"><path d="M276.75,185.81231c0.00019,-0.75 0.75019,-0.74981 0.75019,-0.74981l1.20212,0.00031c2.00066,0.0031 4.00126,0.00877 6.0019,0.01702c10.48502,0.04323 21.12201,3.05286 30.90575,6.55717c3.53401,1.2658 6.79978,2.77191 9.89935,4.48591c-0.0062,0.22911 -0.00933,0.45899 -0.00933,0.6896c0,0.34657 0.00705,0.69149 0.02102,1.03463c-3.24783,-1.8461 -6.67737,-3.45859 -10.41685,-4.79798c-9.62469,-3.44734 -20.09075,-6.4268 -30.40614,-6.46933c-1.99936,-0.00824 -3.99867,-0.01391 -5.99804,-0.017l-1.20019,-0.00031c0,0 -0.75,-0.00019 -0.74981,-0.75019z" fill="#31e1ff" stroke-width="0.5"/><path d="M132.5,206v-52h217v32.99816c-1.59638,3.01314 -2.48,6.33052 -2.48,9.81434c0,3.24388 0.76611,6.34347 2.16037,9.1875z" fill="url(#color-1)" stroke-width="0"/></g></g></svg>