<svg version="1.1" xmlns="http://www.w3.org/2000/svg" xmlns:xlink="http://www.w3.org/1999/xlink" width="96.52866" height="67.13384" viewBox="0,0,96.52866,67.13384"><g transform="translate(-208.61883,-122.50691)"><g data-paper-data="{&quot;isPaintingLayer&quot;:true}" fill-rule="nonzero" stroke-miterlimit="10" stroke-dasharray="" stroke-dashoffset="0" style="mix-blend-mode: normal"><path d="" fill="#e2a355" stroke="none" stroke-width="1" stroke-linecap="butt" stroke-linejoin="miter"/><path d="" fill="#b02024" stroke="none" stroke-width="1" stroke-linecap="butt" stroke-linejoin="miter"/><path d="" fill="#e2a355" stroke="none" stroke-width="1" stroke-linecap="butt" stroke-linejoin="miter"/><path d="" fill="#e2a355" stroke="none" stroke-width="1" stroke-linecap="butt" stroke-linejoin="miter"/><path d="M253.87,168.31l2.46,-1.93l0.62539,0.38133c-0.60312,0.46853 -1.15117,1.0046 -1.63279,1.59684c-0.12623,0.00521 -0.25081,0.00863 -0.37367,0.01015c-0.38472,0.00474 -0.76963,0.00509 -1.15465,0.00154z" fill="#e6e7e8" stroke="none" stroke-width="1" stroke-linecap="butt" stroke-linejoin="miter"/><path d="M256.59,166.84c0.04646,0.03403 0.09285,0.06815 0.13916,0.10237" fill="none" stroke="#371f0f" stroke-width="1.56" stroke-linecap="round" stroke-linejoin="round"/><path d="" fill="#e6e7e8" stroke="none" stroke-width="1" stroke-linecap="butt" stroke-linejoin="miter"/><path d="M225.35,164.5c0.11,-0.1 0.21,-0.22 0.33,-0.31c3.73566,-3.11014 8.42941,-4.83718 13.29,-4.89c1.48367,-0.00149 2.96285,0.16286 4.41,0.49c3.30197,0.76149 6.38256,2.27782 9,4.43c0.19,0.15 0.37,0.32 0.55,0.48l0.57,0.5l0.25,0.22c0.12,0.11 0.22,0.25 0.34,0.36c0.52667,0.50667 1.03667,1.04 1.53,1.6l0.28323,0.32443c-0.20282,0.20929 -0.39658,0.42741 -0.58064,0.65374c-0.12623,0.00521 -0.25081,0.00863 -0.37367,0.01015c-6.57156,0.08104 -13.19471,-1.12095 -19.62376,-1.12095c-1.84046,0 -3.68614,0.47137 -5.60704,0.26965c-1.8878,-0.19825 -3.88479,-0.92414 -5.9004,-1.63351c0.49673,-0.48688 1.00749,-0.94806 1.53227,-1.38351z" fill="#e6e7e8" stroke="none" stroke-width="1" stroke-linecap="butt" stroke-linejoin="miter"/><path d="" fill="#b02024" stroke="none" stroke-width="1" stroke-linecap="butt" stroke-linejoin="miter"/><path d="" fill="#ffffff" stroke="none" stroke-width="1" stroke-linecap="butt" stroke-linejoin="miter"/><path d="" fill="#e2a355" stroke="none" stroke-width="1" stroke-linecap="butt" stroke-linejoin="miter"/><path d="" fill="#b02024" stroke="none" stroke-width="1" stroke-linecap="butt" stroke-linejoin="miter"/><path d="" fill="#e2a355" stroke="none" stroke-width="1" stroke-linecap="butt" stroke-linejoin="miter"/><path d="" fill="#e6e7e8" stroke="none" stroke-width="1" stroke-linecap="butt" stroke-linejoin="miter"/><path d="M225.11,133.65l-0.26,-2.54v-0.5l0.11,-0.98" fill="#e2a355" stroke="none" stroke-width="1" stroke-linecap="butt" stroke-linejoin="miter"/><path d="M261.97,149.61c0.02406,2.88496 -0.48445,5.74959 -1.5,8.45c-0.44604,1.37669 -1.04653,2.69844 -1.79,3.94c-0.062,0.12657 -0.13565,0.24709 -0.22,0.36c-0.37142,0.65428 -0.78217,1.28544 -1.23,1.89c-0.33134,0.4827 -0.72094,0.92269 -1.16,1.31l-0.1,0.07c-0.18077,0.15825 -0.37113,0.3052 -0.57,0.44c-0.17,0.12 -0.35,0.21 -0.53,0.31c-0.19839,0.09241 -0.40629,0.16282 -0.62,0.21l-1.1,0.2c-1.56728,0.52802 -3.16051,0.96994 -4.77254,1.32435c-4.38852,-0.33209 -8.7636,-0.86698 -13.0523,-0.86698c-1.84046,0 -3.68614,0.47137 -5.60704,0.26965c-2.34824,-0.2466 -4.86541,-1.30961 -7.37722,-2.14171c-12.58456,-16.25872 -4.71687,-25.45457 -2.1709,-27.77531c-0.03285,-0.01942 -0.06309,-0.04295 -0.09,-0.07l-0.11,-0.07l-0.24,-0.14c-0.36977,-0.26835 -0.70557,-0.58064 -1,-0.93c-0.30899,-0.36956 -0.57099,-0.77599 -0.78,-1.21c-1.21,-2.59 -0.44,-5.58 1.79,-6.68c2.23,-1.1 5.08,0.11 6.32,2.65c0.1101,0.27008 0.20345,0.54669 0.27953,0.82825c-0.11379,-0.45269 5.96113,-2.16839 6.47047,-2.27825c3.28376,-0.74181 6.68099,-0.83354 10,-0.27c1.68,0.25 3.53,0.16 4.68,0.59c-0.40487,-0.46302 -0.61298,-1.06582 -0.58,-1.68c0,-2.8 1.71,-5.06 3.82,-5.06c2.11,0 3.82,2.27 3.82,5.06c0.00726,1.05106 -0.26172,2.08558 -0.78,3c-0.04289,0.13404 -0.0964,0.26445 -0.16,0.39c5.34281,4.39248 8.41522,10.96361 8.36,17.88z" fill="#e2a355" stroke="none" stroke-width="1" stroke-linecap="butt" stroke-linejoin="miter"/><path d="M253.83,124.17c0,0 -5.09,1.62 -5.19,6.56l-1.42,-0.55l-0.25,-0.06c0,-0.72 0.25,-9.58 6.86,-5.95z" fill="#bd782a" stroke="none" stroke-width="1" stroke-linecap="butt" stroke-linejoin="miter"/><path d="M253.33,132.4c5.07,4.11 8.64,9.89 8.64,17.21c0.00932,2.89144 -0.51618,5.75968 -1.55,8.46c-0.74746,2.21598 -1.83733,4.30124 -3.23,6.18c-0.65589,0.9866 -1.57829,1.76682 -2.66,2.25M253.45,132.65c-8.32404,-4.84323 -18.54982,-5.08104 -27.09,-0.63" fill="none" stroke="#371f0f" stroke-width="1.681" stroke-linecap="round" stroke-linejoin="round"/><path d="M216.32,154.66c-0.6987,-2.48715 -1.0024,-5.06861 -0.9,-7.65c0.01,-0.24 0.09,-0.48 0.09,-0.71c0.03333,-0.22667 0.07333,-0.45333 0.12,-0.68c0.09333,-0.46 0.20667,-0.91333 0.34,-1.36c0.17333,-0.42 0.33333,-0.82333 0.48,-1.21c0.14667,-0.38667 0.31333,-0.76333 0.5,-1.13c0.18,-0.36667 0.36333,-0.7 0.55,-1c0.18667,-0.3 0.38,-0.59667 0.58,-0.89c0.20667,-0.28667 0.4,-0.54333 0.58,-0.77c0.18,-0.22667 0.36667,-0.44667 0.56,-0.66l0.51,-0.54l0.23,-0.23l0.11,-0.1v-0.09c0.07,-0.07 0,-0.07 0,-0.07l-0.1,-0.08l-0.22,-0.13c-0.36977,-0.26835 -0.70557,-0.58064 -1,-0.93c-0.30899,-0.36956 -0.57099,-0.77599 -0.78,-1.21c-1.21,-2.59 -0.45,-5.58 1.79,-6.68c1.09508,-0.5174 2.36047,-0.53563 3.47,-0.05c0.1,0.09 0.48,0.24 0.48,0.24c0,0 -3.05,-0.29 -3.68,2.52c-0.67,3.03 2.25,6.31 2.25,6.31c0,0 -6.63948,15.98247 5.00308,29.46683c-1.64015,-0.45606 -3.32988,-1.12044 -5.01642,-1.67604c-2.5698,-3.2003 -4.58123,-6.81459 -5.94666,-10.69079z" fill="#bd782a" stroke="none" stroke-width="1" stroke-linecap="butt" stroke-linejoin="miter"/><path d="M241.74,143.24c0.36,2.75 -1,5.2 -3,5.47c-2,0.27 -4,-1.74 -4.34,-4.49c-0.34,-2.75 1,-5.2 3,-5.47c2,-0.27 3.98,1.74 4.34,4.49z" fill="#c57a2a" stroke="none" stroke-width="1" stroke-linecap="butt" stroke-linejoin="miter"/><path d="M242.04,143.14c0.36,2.75 -1,5.2 -3,5.47c-2,0.27 -4,-1.74 -4.34,-4.49c-0.34,-2.75 1,-5.2 3,-5.47c2,-0.27 3.98,1.74 4.34,4.49z" fill="#371f0f" stroke="none" stroke-width="1" stroke-linecap="butt" stroke-linejoin="miter"/><path d="M256.78,143.02c-1.58056,-0.01018 -3.15926,0.11023 -4.72,0.36c-0.80138,-0.90646 -1.30417,-2.03773 -1.44,-3.24c-0.35,-2.64 0.91,-5 2.82,-5.24c1.91,-0.24 3.72,1.69 4.07,4.33c0.19977,1.30969 -0.05804,2.64821 -0.73,3.79z" fill="#c57a2a" stroke="none" stroke-width="1" stroke-linecap="butt" stroke-linejoin="miter"/><path d="M257.05,143.02c-1.58056,-0.01018 -3.15926,0.11023 -4.72,0.36c-0.80138,-0.90646 -1.30417,-2.03773 -1.44,-3.24c-0.35,-2.64 0.91,-5 2.82,-5.24c1.91,-0.24 3.72,1.69 4.07,4.33c0.19977,1.30969 -0.05804,2.64821 -0.73,3.79z" fill="#371f0f" stroke="none" stroke-width="1" stroke-linecap="butt" stroke-linejoin="miter"/><path d="M238.18559,143.20135c-0.3058,-1.76308 0.16092,-3.31629 1.04246,-3.46919c0.88154,-0.1529 1.84407,1.1524 2.14988,2.91548c0.3058,1.76308 -0.16092,3.31629 -1.04246,3.46919c-0.88154,0.1529 -1.84407,-1.1524 -2.14988,-2.91548z" fill="#ffffff" stroke="none" stroke-width="1" stroke-linecap="butt" stroke-linejoin="miter"/><path d="M254.34159,138.89038c-0.28621,-1.57023 0.11163,-2.95796 0.88859,-3.09958c0.77697,-0.14162 1.63884,1.0165 1.92505,2.58673c0.28621,1.57023 -0.11163,2.95796 -0.88859,3.09958c-0.77697,0.14162 -1.63884,-1.0165 -1.92505,-2.58673z" fill="#ffffff" stroke="none" stroke-width="1" stroke-linecap="butt" stroke-linejoin="miter"/><path d="M251.97,123.88c0,0 5.33,1.2 1,7.93c-0.05,0 1.67,-5.15 -1,-7.93z" fill="#efbc72" stroke="none" stroke-width="1" stroke-linecap="butt" stroke-linejoin="miter"/><g stroke="none" stroke-width="1" stroke-linecap="butt" stroke-linejoin="miter" opacity="0.75"><path d="M238.97,136.04l-5.5,14.78c-1.38083,-0.45746 -2.59754,-1.30915 -3.5,-2.45l4.48,-11.94h0.33z" fill="#ffffff"/><path d="M252.65,134.8l-4.28,11.47c-0.42707,-0.70119 -0.76311,-1.45391 -1,-2.24l-0.13,-0.46c-0.39,-1.6 -1.23,-2.24 -2.51,-2.13c-1.28,0.11 -1.99,0.96 -2.12,2.53l-0.29,1.76c-0.41107,2.72118 -2.50342,4.8818 -5.21,5.38l-0.54,0.07h-0.94c-0.72399,-0.01296 -1.44196,-0.1343 -2.13,-0.36l5.47,-14.78l2.39,-0.17l1.5,-0.14zM234.41,136.47l-4.44,11.9c-0.9188,-1.16691 -1.472,-2.57948 -1.59,-4.06v-0.2c-0.33146,-3.74201 2.31338,-7.09301 6.03,-7.64zM255.15,149.53c-0.22,0.09 -0.44,0.09 -0.66,0.09c-0.27315,0.01402 -0.54685,0.01402 -0.82,0c-0.68562,-0.04776 -1.35999,-0.1995 -2,-0.45l5.17,-13.87c2.52335,1.08997 4.24153,3.48081 4.47,6.22c0.32816,3.86157 -2.34362,7.33575 -6.16,8.01z" fill="#69dcff"/><path d="M256.84,135.3l-5.17,13.86c-1.4021,-0.56865 -2.57411,-1.58932 -3.33,-2.9l4.32,-11.47l0.64,-0.06c1.20899,-0.10599 2.42538,0.08987 3.54,0.57z" fill="#ffffff"/></g><path d="M264.44,139.16l0.35,4.16c0.05262,0.61055 -0.391,1.15176 -1,1.22l-1.12,0.1c-0.35426,1.26641 -0.97475,2.44261 -1.82,3.45c-1.56325,1.87758 -3.81515,3.04857 -6.25,3.25h-0.18c-0.47442,0.01255 -0.94911,-0.01085 -1.42,-0.07c-0.68498,-0.08773 -1.35665,-0.25901 -2,-0.51c-0.84619,-0.32918 -1.63059,-0.79915 -2.32,-1.39c-0.41222,-0.35403 -0.79052,-0.74572 -1.13,-1.17c-0.86737,-1.10211 -1.51263,-2.36207 -1.9,-3.71l-0.13,-0.42v-0.08c-0.03806,-0.2837 -0.15597,-0.55075 -0.34,-0.77c-0.10768,-0.03195 -0.22232,-0.03195 -0.33,0c-0.11195,-0.00468 -0.22189,0.03078 -0.31,0.1c-0.14448,0.2491 -0.22039,0.53203 -0.22,0.82v0.14l-0.29,1.76c-0.59641,3.67389 -3.59512,6.48363 -7.3,6.84h-0.31c-1.19821,0.08778 -2.40186,-0.06522 -3.54,-0.45c-1.12489,-0.38178 -2.16436,-0.97964 -3.06,-1.76c-0.17333,-0.15333 -0.34333,-0.31333 -0.51,-0.48c-0.80269,-0.81407 -1.44698,-1.77033 -1.9,-2.82l-1.17,0.1c-0.60682,0.04692 -1.14179,-0.3952 -1.21,-1l-0.35,-4.16c-0.05262,-0.61055 0.391,-1.15176 1,-1.22l1.29,-0.11c0.34759,-1.17849 0.93676,-2.27169 1.73,-3.21c1.48595,-1.79581 3.62835,-2.92282 5.95,-3.13h0.51l4,-0.37l2.9,-0.27l0.91,-0.08l10.1,-0.9h0.2c2.13991,-0.16362 4.26786,0.44285 6,1.71c0.17333,0.09333 0.35667,0.22 0.55,0.38c0.19333,0.16 0.37667,0.32667 0.55,0.5c0.76821,0.76344 1.39462,1.65734 1.85,2.64l1.09,-0.09c0.57665,-0.00383 1.06367,0.42717 1.13,1zM261.25661,143.02029c0.3727,-3.27604 -1.44076,-6.41049 -4.46661,-7.72029c-1.11462,-0.48013 -2.33101,-0.67599 -3.54,-0.57l-0.67,0.05l-9.76,0.9l-1.5,0.14l-2.35,0.22l-4.21,0.44h-0.33c-3.72869,0.5327 -6.39005,3.88794 -6.06,7.64v0.2c0.12282,1.47812 0.67943,2.88704 1.6,4.05c0.9228,1.12142 2.15325,1.94866 3.54,2.38c0.68804,0.2257 1.40601,0.34704 2.13,0.36h0.94l0.54,-0.07c2.68137,-0.49313 4.7631,-2.61889 5.2,-5.31l0.25,-1.71c0.12,-1.53 0.85,-2.42 2.12,-2.53c1.27,-0.11 2.12,0.54 2.51,2.13l0.13,0.42c0.23689,0.78609 0.57293,1.53881 1,2.24c1.09684,1.95921 3.11827,3.22261 5.36,3.35c0.27315,0.01402 0.54685,0.01402 0.82,0c0.23,-0.02 0.44,-0.09 0.66,-0.09c3.24273,-0.59666 5.71391,-3.24367 6.08661,-6.51971z" fill="#020b3f" stroke="none" stroke-width="1" stroke-linecap="butt" stroke-linejoin="miter"/><path d="M261.56,158.99c-1.51,1.55 -6.69,6.18 -13.78,5.55h-0.34c-0.29,-0.04 -0.55,-0.1 -0.82,-0.15l-0.65,-0.12l-0.61,-0.13c-0.23,-0.06 -0.46,-0.1 -0.69,-0.17l-0.53,-0.15l-0.28,-0.08c-0.38412,-0.13788 -0.75279,-0.31551 -1.1,-0.53c-0.2713,-0.1465 -0.53498,-0.30671 -0.79,-0.48c-2.34889,-1.37769 -3.82266,-3.86799 -3.9,-6.59c-0.92,-6.17 6.15,-10.09 11.15,-12.09c1.36683,-0.63119 2.79871,-1.11072 4.27,-1.43l0.46,-0.12v0.06c5.16,-0.94 9.8,0.47 11.62,4c1.91,3.71 0.14,8.65 -4.01,12.43z" fill="#f3cca5" stroke="none" stroke-width="1" stroke-linecap="butt" stroke-linejoin="miter"/><path d="M260.27,150.43c1.76,3.55 4,3.65 4,3.65h0.39l-3.65,5.46c-9.51,2.65 -13.37,-1.35 -13.37,-1.35c7.8,0.05 12.66,-7.79 12.63,-7.76z" fill="#371f0f" stroke="none" stroke-width="1" stroke-linecap="butt" stroke-linejoin="miter"/><path d="M249.34,144.45c6.7,-1.25 10.39,-1.2 10.7,-1.1c0.31,0.1 0.08,0.3 0.08,0.3c-0.5613,0.0652 -1.11644,0.17555 -1.66,0.33c-0.59534,0.27309 -1.12421,0.6723 -1.55,1.17c-0.16958,0.16694 -0.37469,0.29342 -0.6,0.37l-4.49,0.92c0,0 -3.18,0.84 -2.74,0c0.25029,-0.56345 0.25029,-1.20655 0,-1.77c0.03501,-0.11864 0.1372,-0.20511 0.26,-0.22z" fill="#f6e1cb" stroke="none" stroke-width="1" stroke-linecap="butt" stroke-linejoin="miter"/><path d="M267.23,150.78c-1.71975,7.1909 -7.31747,12.81563 -14.5,14.57c-7.43,1.3 -11.36,-1.71 -13.43,-4.83c-1.11821,-1.58168 -1.86041,-3.39786 -2.17,-5.31v-0.12c-0.07292,-0.74932 -0.05614,-1.50466 0.05,-2.25l1.3,-0.31c-1.09507,3.82862 0.49561,7.91778 3.89,10c0.90013,0.57314 1.86741,1.03327 2.88,1.37c4.44024,1.3182 9.24262,0.44977 12.94,-2.34c0.62,-0.53 1.12,-1.03 1.62,-1.53c1.69624,-1.62578 3.16609,-3.47233 4.37,-5.49c3.7,-6.52 -0.36,-9.91 -2.21,-10.91l-0.19,-0.08c-1.11164,-0.40908 -2.30025,-0.56619 -3.48,-0.46c-1.55558,0.03167 -3.10809,0.15187 -4.65,0.36c-1.83857,0.16879 -3.64908,0.56515 -5.39,1.18c-1.61241,0.61415 -3.1655,1.37396 -4.64,2.27c-0.34,0.21 -0.67,0.43 -1,0.66l-0.16,-0.37c0.75,-0.6 1.53,-1.13 2.33,-1.66c0.82967,-0.55648 1.69113,-1.06401 2.58,-1.52c0.39,-0.2 0.78,-0.4 1.19,-0.57c0.9754,-0.34443 1.97929,-0.60209 3,-0.77c1.02,-0.21 2.08,-0.39 3.08,-0.53c1.25618,-0.17168 2.52216,-0.26187 3.79,-0.27c0.75536,-0.00597 1.51031,0.03746 2.26,0.13c0.25,0.03 0.5,0.08 0.75,0.13c7.2,1.6 5.79,8.65 5.79,8.65z" fill="#371f0f" stroke="none" stroke-width="1" stroke-linecap="butt" stroke-linejoin="miter"/><path d="M236.72,152.85h-0.31c-0.33308,0.01853 -0.66692,0.01853 -1,0l0.16,-1.71h0.99l0.54,-0.07c2.14316,-0.39642 3.94117,-1.84837 4.78,-3.86l2.16,-1.27v0.11c-0.61477,3.66483 -3.61988,6.45646 -7.32,6.8z" fill="#020b3f" stroke="none" stroke-width="1" stroke-linecap="butt" stroke-linejoin="miter"/><path d="M246.19,129.38c0,0 0.25,-7.16 5.9,-5.85c5.65,1.31 1.65,8.44 1.65,8.44" fill="none" stroke="#371f0f" stroke-width="1.726" stroke-linecap="round" stroke-linejoin="round"/><path d="M215.76,151.75c-0.7,-5.07 0.45,-10.49 4.3,-14.07l3.10514,27.97529c-0.29335,-0.10165 -0.58689,-0.20172 -0.88034,-0.29852c-3.10494,-3.99363 -5.81577,-8.51298 -6.5248,-13.60677z" fill="none" stroke="#371f0f" stroke-width="1.681" stroke-linecap="butt" stroke-linejoin="miter"/><path d="M220.15,137.63c-2.14517,-1.30793 -3.17138,-3.87345 -2.52,-6.3c0.32441,-1.27215 1.21727,-2.32366 2.42,-2.85c1.11995,-0.48045 2.39581,-0.43645 3.48,0.12c1.29444,0.82016 2.29299,2.03243 2.85,3.46z" fill="none" stroke="#371f0f" stroke-width="1.681" stroke-linecap="butt" stroke-linejoin="miter"/><path d="M225.52,144.17l-8.93,3.09" fill="none" stroke="#020b3f" stroke-width="2.241" stroke-linecap="round" stroke-linejoin="round"/><path d="M254.62,166.48c-1.89607,0.6828 -3.8254,1.23911 -5.7757,1.66887" fill="none" stroke="#371f0f" stroke-width="1.681" stroke-linecap="round" stroke-linejoin="round"/><path d="M258.16,159.56c-1.08941,0.3284 -2.22221,0.49023 -3.36,0.48c-2.24338,0.02354 -4.44787,-0.5865 -6.36,-1.76c0,0 3.65,0.19 7.51,-3.19c0.39677,-0.26768 0.86156,-0.41683 1.34,-0.43c1.4486,0.01101 2.61555,1.19137 2.61,2.64c-0.00637,0.66687 -0.27173,1.30515 -0.74,1.78c-0.29574,0.22875 -0.63654,0.39234 -1,0.48z" fill="#ed1c24" stroke="none" stroke-width="1" stroke-linecap="butt" stroke-linejoin="miter"/><path d="M258.13,159.55c-1.08941,0.3284 -2.22221,0.49023 -3.36,0.48c-2.24338,0.02354 -4.44787,-0.5865 -6.36,-1.76c0.15384,0.04544 0.31098,0.07888 0.47,0.1c0.45333,0.1 0.90667,0.18667 1.36,0.26c0.65,0.11 1.29,0.19 1.94,0.25c0.73117,0.06916 1.46574,0.09588 2.2,0.08c0.72326,-0.01072 1.44358,-0.09448 2.15,-0.25c0.34105,-0.0722 0.67553,-0.17255 1,-0.3l0.43,-0.2c0.11661,-0.07565 0.24057,-0.13931 0.37,-0.19h0.15c0.17945,0.00929 0.35119,0.07589 0.49,0.19c0.22201,0.22684 0.29913,0.55848 0.2,0.86c-0.30753,0.2339 -0.66249,0.39773 -1.04,0.48z" fill="#b71327" stroke="none" stroke-width="1" stroke-linecap="butt" stroke-linejoin="miter"/><path d="M257.8,155.45c1.41,0.41 1.41,2.41 1.41,2.41" fill="none" stroke="#f74854" stroke-width="0.548" stroke-linecap="round" stroke-linejoin="round"/><path d="M264.9,154.17c-3.45,-0.31 -4.61,-3.75 -4.61,-3.75c-0.6,0.78 -1.23,1.54 -1.89,2.26c-2.34,2.54 -5.28,4.84 -8.77,5.4c-2.46404,0.44102 -5.00044,-0.16409 -7,-1.67" fill="none" stroke="#371f0f" stroke-width="0.996" stroke-linecap="round" stroke-linejoin="round"/><path d="M263.3,147.34c0,0 -0.85,2.6 -2.29,3c-0.1504,0.03719 -0.30512,0.05401 -0.46,0.05c-1.06882,-0.16707 -2.0641,-0.64731 -2.86,-1.38c0,0 -3.34,-3 -0.95,-4.39c0.65214,-0.3658 1.3626,-0.61615 2.1,-0.74c1.04135,-0.19056 2.10865,-0.19056 3.15,0c2.23,0.6 1.31,3.46 1.31,3.46z" fill="#683113" stroke="none" stroke-width="1" stroke-linecap="butt" stroke-linejoin="miter"/><path d="M260.55,150.37c-1.06882,-0.16707 -2.0641,-0.64731 -2.86,-1.38c0,0 -3.34,-3 -0.95,-4.39c0.65214,-0.3658 1.3626,-0.61615 2.1,-0.74c-0.91619,0.78665 -1.22982,2.06934 -0.78,3.19c0.54618,1.29354 1.40113,2.43347 2.49,3.32z" fill="#371f0f" stroke="none" stroke-width="1" stroke-linecap="butt" stroke-linejoin="miter"/><path d="M263.07,146.73c-0.01407,0.16103 -0.0936,0.30924 -0.22,0.41c-0.1154,-0.11433 -0.2012,-0.25506 -0.25,-0.41c-0.17887,-0.61691 -0.48551,-1.18931 -0.9,-1.68c-0.46,-0.52 -2.7,-0.68 -2,-1c1.01277,-0.31224 2.11191,-0.15836 3,0.42c0.87,0.62 0.37,2.26 0.37,2.26z" fill="#995728" stroke="none" stroke-width="1" stroke-linecap="butt" stroke-linejoin="miter"/><path d="M227.17435,166.65063c1.17928,-0.13679 2.35377,-0.31401 3.51657,-0.54728c13.85915,-1.391 27.41177,-3.46813 41.3926,-3.46813c6.92165,0 13.95313,-0.47194 20.60422,1.70456c3.9684,1.19166 10.90823,2.52755 12.24491,7.28745c1.26363,4.49979 -3.2997,7.67319 -7.07025,9.9014c-0.63359,-0.12586 -1.28873,-0.19186 -1.95929,-0.19186c-3.41173,0 -6.42441,1.70854 -8.2291,4.31668c-4.77038,0.27797 -9.58006,0.41978 -14.36312,0.24161c-1.96301,-0.07312 -3.90755,-0.63422 -5.86918,-0.53047c-4.69288,0.24821 -9.35329,1.29341 -14.10863,1.36281c-2.85316,0.12979 -5.73991,-0.0263 -8.55673,0.44583c-1.84832,0.3098 -3.5871,1.32595 -5.46117,1.33635c-4.5412,0.02519 -5.34764,-0.63816 -9.41783,-1.38263c-0.72523,-0.13265 -9.62589,-1.4663 -10.12889,-1.59646c-6.21838,-1.60907 -15.82683,-9.39774 -8.52713,-15.73399c2.99749,-2.60187 9.7699,-3.13488 13.47317,-3.92985c0,0 1.5661,-0.33559 2.45986,0.78397zM222.64337,171.40921c-0.16855,0.03909 -0.3368,0.07946 -0.50468,0.12146c-1.39955,0.35016 -12.19828,1.82108 -7.4005,5.51048c0.7044,0.54167 1.55507,0.86189 2.30915,1.33194c1.20174,0.7491 2.66233,2.01093 4.13299,2.36089c3.16045,0.75208 6.43773,0.89328 9.63344,1.47768c3.57693,0.65411 4.48664,1.27463 8.29507,1.30219c2.03982,0.01476 2.68297,-0.91166 4.70278,-1.24666c1.29137,-0.21418 8.38592,-0.49274 9.37282,-0.53757c4.72165,-0.06353 9.34942,-1.13674 14.01304,-1.35906c5.83201,-0.27801 11.84401,0.77666 17.74119,0.52891c1.64832,-0.06925 3.40322,0.42257 4.94673,-0.15996c2.76951,-1.04522 6.29756,-4.01324 8.61429,-5.8478c0.66168,-0.52397 1.96743,-1.19357 1.60699,-1.95676c-1.08119,-2.28925 -6.80924,-3.19334 -8.92806,-3.82836c-6.08231,-2.07249 -12.74486,-1.47138 -19.09511,-1.47138c-13.73049,0 -27.04066,2.05696 -40.65267,3.41308c-2.06538,0.41185 -4.16582,0.64997 -6.26545,0.81415l0.39697,0.00809c0,0 -1.74132,0.87066 -2.91899,-0.46133z" fill="#fffea0" stroke="none" stroke-width="0.5" stroke-linecap="butt" stroke-linejoin="miter"/><path d="M225.5127,171.86473l-0.39698,-0.00803c2.09963,-0.16418 4.2005,-0.40524 6.26588,-0.81708c13.61201,-1.35612 27.0158,-3.4274 40.7463,-3.4274c6.35024,0 13.01755,-0.5873 19.09986,1.48519c2.11883,0.63502 7.84764,1.54531 8.92883,3.83456c0.36044,0.76318 -0.94522,1.43502 -1.6069,1.95898c-2.31673,1.83456 -5.84539,4.81112 -8.6149,5.85635c-1.54351,0.58253 -3.29869,0.09231 -4.94701,0.16156c-5.89718,0.24775 -11.91299,-0.79514 -17.745,-0.51713c-4.66362,0.22232 -9.36212,1.31742 -14.08376,1.38095c-0.9869,0.04483 -8.10044,0.30328 -9.39181,0.51747c-2.01981,0.335 -2.66414,1.25899 -4.70396,1.24423c-3.80843,-0.02756 -4.72098,-0.65616 -8.29791,-1.31028c-3.19571,-0.5844 -6.47403,-0.73082 -9.63448,-1.48289c-1.47066,-0.34996 -2.93164,-1.61545 -4.13339,-2.36455c-0.75408,-0.47005 -1.60484,-0.79204 -2.30924,-1.33371c-4.79778,-3.6894 6.00124,-5.16784 7.40079,-5.518c0.16787,-0.042 0.43544,-0.07066 0.60399,-0.10975c1.17766,1.33199 2.81969,0.44952 2.81969,0.44952z" data-paper-data="{&quot;noHover&quot;:false,&quot;origItem&quot;:[&quot;Path&quot;,{&quot;applyMatrix&quot;:true,&quot;segments&quot;:[[[445.28674,342.81843],[2.35533,2.66398],[-0.3371,0.07818]],[[444.27739,343.06135],[0.33575,-0.084],[-2.7991,0.70031]],[[429.4764,354.08232],[-9.59557,-7.3788],[1.40879,1.08334]],[[434.09469,356.74619],[-1.50815,-0.9401],[2.40348,1.4982]],[[442.36067,361.46797],[-2.94131,-0.69993],[6.3209,1.50415]],[[461.62755,364.42333],[-6.39142,-1.1688],[7.15386,1.30823]],[[478.2177,367.0277],[-7.61686,-0.05512],[4.07963,0.02952]],[[487.62326,364.53438],[-4.03962,0.67],[2.58275,-0.42837]],[[506.36889,363.45924],[-1.9738,0.08965],[9.44329,-0.12706]],[[534.39496,360.74113],[-9.32723,0.44463],[11.66401,-0.55603]],[[569.87734,361.79895],[-11.79435,0.4955],[3.29664,-0.1385]],[[579.7708,361.47903],[-3.08701,1.16505],[5.53902,-2.09045]],[[596.99939,349.78343],[-4.63346,3.66912],[1.32336,-1.04794]],[[600.21336,345.86992],[0.72088,1.52637],[-2.16238,-4.57851]],[[582.35723,338.2132],[4.23766,1.27004],[-12.16461,-4.14497]],[[544.16702,335.27043],[12.70049,0],[-27.46099,0]],[[462.86169,342.0966],[27.22401,-2.71224],[-4.13076,0.82369]],[[450.33078,343.7249],[4.19927,-0.32835],[0,0]],[451.12471,343.74108]],&quot;closed&quot;:true}]}" fill="#fffb15" stroke="none" stroke-width="0.5" stroke-linecap="butt" stroke-linejoin="miter"/><path d="M271.17148,171.48711c0,-1.38071 1.11929,-2.5 2.5,-2.5c1.38071,0 2.5,1.11929 2.5,2.5c0,1.38071 -1.11929,2.5 -2.5,2.5c-1.38071,0 -2.5,-1.11929 -2.5,-2.5z" fill="#fffea0" stroke="none" stroke-width="0.5" stroke-linecap="butt" stroke-linejoin="miter"/><path d="M283.34594,172.81042c0,-1.38071 1.11929,-2.5 2.5,-2.5c1.38071,0 2.5,1.11929 2.5,2.5c0,1.38071 -1.11929,2.5 -2.5,2.5c-1.38071,0 -2.5,-1.11929 -2.5,-2.5z" fill="#fffea0" stroke="none" stroke-width="0.5" stroke-linecap="butt" stroke-linejoin="miter"/><path d="M291.55047,172.81042c0,-1.38071 1.11929,-2.5 2.5,-2.5c1.38071,0 2.5,1.11929 2.5,2.5c0,1.38071 -1.11929,2.5 -2.5,2.5c-1.38071,0 -2.5,-1.11929 -2.5,-2.5z" fill="#fffea0" stroke="none" stroke-width="0.5" stroke-linecap="butt" stroke-linejoin="miter"/><path d="M227.27173,186.97557c0,0 1.18525,-2.20118 3.38643,-1.01593c1.34479,0.72412 1.4256,1.82744 1.28492,2.57634c-1.37401,-0.71062 -2.93387,-1.11198 -4.58747,-1.11198c-0.10981,0 -0.21922,0.00177 -0.32818,0.00528c0.08143,-0.15124 0.16286,-0.30247 0.2443,-0.45371z" fill="#fffb15" stroke="none" stroke-width="0.5" stroke-linecap="butt" stroke-linejoin="miter"/><path d="M244.56965,187.21424c1.45209,-0.6702 2.40399,0.01727 2.90141,0.59963c-1.61055,0.25679 -3.09285,0.89811 -4.34983,1.82689c-0.07731,-0.75276 0.10144,-1.80483 1.44842,-2.42652z" fill="#fffb15" stroke="none" stroke-width="0.5" stroke-linecap="butt" stroke-linejoin="miter"/><path d="M262.98154,185.82746c1.2937,-0.49758 2.146,-0.00201 2.64868,0.53839c-1.48294,0.01473 -2.88861,0.35225 -4.15012,0.94566c0.17162,-0.56401 0.59012,-1.13355 1.50144,-1.48406z" fill="#fffb15" stroke="none" stroke-width="0.5" stroke-linecap="butt" stroke-linejoin="miter"/><path d="M278.24636,186.29558c1.10626,-0.33188 1.85476,0.00064 2.33996,0.45451c-1.50762,0.23528 -2.90368,0.80738 -4.10879,1.6369c0.05582,-0.74226 0.41424,-1.68503 1.76884,-2.09141z" fill="#fffb15" stroke="none" stroke-width="0.5" stroke-linecap="butt" stroke-linejoin="miter"/><path d="M289.20954,183.61817c0.1512,-0.0378 0.29533,-0.06382 0.43268,-0.07937c-0.91822,0.73817 -1.70332,1.63519 -2.31359,2.64934c-0.04236,-0.73433 0.12232,-2.13032 1.88091,-2.56996z" fill="#fffb15" stroke="none" stroke-width="0.5" stroke-linecap="butt" stroke-linejoin="miter"/></g></g></svg>