<svg version="1.1" xmlns="http://www.w3.org/2000/svg" xmlns:xlink="http://www.w3.org/1999/xlink" width="106.26585" height="81.72165" viewBox="0,0,106.26585,81.72165"><g transform="translate(-198.88166,-107.91911)"><g data-paper-data="{&quot;isPaintingLayer&quot;:true}" fill-rule="nonzero" stroke-miterlimit="10" stroke-dasharray="" stroke-dashoffset="0" style="mix-blend-mode: normal"><path d="" fill="#e2a355" stroke="none" stroke-width="1" stroke-linecap="butt" stroke-linejoin="miter"/><path d="" fill="#b02024" stroke="none" stroke-width="1" stroke-linecap="butt" stroke-linejoin="miter"/><path d="" fill="#e2a355" stroke="none" stroke-width="1" stroke-linecap="butt" stroke-linejoin="miter"/><path d="" fill="#e2a355" stroke="none" stroke-width="1" stroke-linecap="butt" stroke-linejoin="miter"/><path d="M253.87,168.31l2.46,-1.93l0.62539,0.38133c-0.60312,0.46853 -1.15117,1.0046 -1.63279,1.59684c-0.12623,0.00521 -0.25081,0.00863 -0.37367,0.01015c-0.38472,0.00474 -0.76963,0.00509 -1.15465,0.00154z" fill="#e6e7e8" stroke="none" stroke-width="1" stroke-linecap="butt" stroke-linejoin="miter"/><path d="M256.59,166.84c0.04646,0.03403 0.09285,0.06815 0.13916,0.10237" fill="none" stroke="#371f0f" stroke-width="1.56" stroke-linecap="round" stroke-linejoin="round"/><path d="" fill="#e6e7e8" stroke="none" stroke-width="1" stroke-linecap="butt" stroke-linejoin="miter"/><path d="M252.93,164.7l0.57,0.5l0.25,0.22c0.12,0.11 0.22,0.25 0.34,0.36c0.52667,0.50667 1.03667,1.04 1.53,1.6l0.28323,0.32443c-0.20282,0.20929 -0.39658,0.42741 -0.58064,0.65374c-0.12623,0.00521 -0.25081,0.00863 -0.37367,0.01015c-6.57156,0.08104 -13.19471,-1.12095 -19.62376,-1.12095c-1.84046,0 -3.68614,0.47137 -5.60704,0.26965c-0.13947,-0.01465 -0.27954,-0.03217 -0.42016,-0.05236c4.93505,-0.4489 9.85834,-1.98706 14.70801,-2.59326c2.52505,-0.31563 5.32522,0.50874 7.70038,0c0.35294,-0.0756 0.72264,-0.17144 1.10332,-0.27942c0.04019,0.03628 0.08026,0.0724 0.12034,0.10802z" fill="#e6e7e8" stroke="none" stroke-width="1" stroke-linecap="butt" stroke-linejoin="miter"/><path d="" fill="#b02024" stroke="none" stroke-width="1" stroke-linecap="butt" stroke-linejoin="miter"/><path d="" fill="#ffffff" stroke="none" stroke-width="1" stroke-linecap="butt" stroke-linejoin="miter"/><path d="" fill="#e2a355" stroke="none" stroke-width="1" stroke-linecap="butt" stroke-linejoin="miter"/><path d="" fill="#b02024" stroke="none" stroke-width="1" stroke-linecap="butt" stroke-linejoin="miter"/><path d="" fill="#e2a355" stroke="none" stroke-width="1" stroke-linecap="butt" stroke-linejoin="miter"/><path d="" fill="#e6e7e8" stroke="none" stroke-width="1" stroke-linecap="butt" stroke-linejoin="miter"/><path d="" fill="#e2a355" stroke="none" stroke-width="1" stroke-linecap="butt" stroke-linejoin="miter"/><path d="M257.23,164.25c-0.33134,0.4827 -0.72094,0.92269 -1.16,1.31l-0.1,0.07c-0.18077,0.15825 -0.37113,0.3052 -0.57,0.44c-0.17,0.12 -0.35,0.21 -0.53,0.31c-0.19839,0.09241 -0.40629,0.16282 -0.62,0.21l-1.1,0.2c-1.56728,0.52802 -3.16051,0.96994 -4.77254,1.32435c-4.38852,-0.33209 -8.7636,-0.86698 -13.0523,-0.86698c-1.84046,0 -3.68614,0.47137 -5.60704,0.26965c-0.13947,-0.01465 -0.27954,-0.03217 -0.42017,-0.05236c4.93505,-0.4489 9.85834,-1.98706 14.70801,-2.59327c2.52505,-0.31563 5.32522,0.50874 7.70038,0c1.90813,-0.40871 4.30654,-1.40928 6.2774,-1.71896c-0.23802,0.37465 -0.48943,0.74074 -0.75375,1.09757z" fill="#e2a355" stroke="none" stroke-width="1" stroke-linecap="butt" stroke-linejoin="miter"/><path d="" fill="#bd782a" stroke="none" stroke-width="1" stroke-linecap="butt" stroke-linejoin="miter"/><path d="M257.95046,163.15772c-0.24238,0.37119 -0.49596,0.73546 -0.76046,1.09228c-0.65589,0.9866 -1.57829,1.76682 -2.66,2.25l-0.0847,-2.40689" fill="none" stroke="#371f0f" stroke-width="1.681" stroke-linecap="round" stroke-linejoin="round"/><path d="" fill="#bd782a" stroke="none" stroke-width="1" stroke-linecap="butt" stroke-linejoin="miter"/><path d="" fill="#c57a2a" stroke="none" stroke-width="1" stroke-linecap="butt" stroke-linejoin="miter"/><path d="" fill="#371f0f" stroke="none" stroke-width="1" stroke-linecap="butt" stroke-linejoin="miter"/><path d="" fill="#c57a2a" stroke="none" stroke-width="1" stroke-linecap="butt" stroke-linejoin="miter"/><path d="" fill="#371f0f" stroke="none" stroke-width="1" stroke-linecap="butt" stroke-linejoin="miter"/><path d="" fill="#ffffff" stroke="none" stroke-width="1" stroke-linecap="butt" stroke-linejoin="miter"/><path d="" fill="#ffffff" stroke="none" stroke-width="1" stroke-linecap="butt" stroke-linejoin="miter"/><path d="" fill="#efbc72" stroke="none" stroke-width="1" stroke-linecap="butt" stroke-linejoin="miter"/><g stroke="none" stroke-width="1" stroke-linecap="butt" stroke-linejoin="miter" opacity="0.75"><path d="" fill="#ffffff"/><path d="" fill="#69dcff"/><path d="" fill="#69dcff"/><path d="" fill="#69dcff"/><path d="" fill="#ffffff"/></g><path d="" fill="#020b3f" stroke="none" stroke-width="1" stroke-linecap="butt" stroke-linejoin="miter"/><path d="" fill="#f3cca5" stroke="none" stroke-width="1" stroke-linecap="butt" stroke-linejoin="miter"/><path d="" fill="#371f0f" stroke="none" stroke-width="1" stroke-linecap="butt" stroke-linejoin="miter"/><path d="" fill="#f6e1cb" stroke="none" stroke-width="1" stroke-linecap="butt" stroke-linejoin="miter"/><path d="M252.73,165.35c-3.41268,0.5971 -6.08698,0.28494 -8.18181,-0.52951c2.37865,-0.15429 4.95178,0.52349 7.15816,0.05091c1.96475,-0.42083 4.44929,-1.46918 6.45168,-1.74467c-1.6636,0.99319 -3.488,1.74941 -5.42803,2.22327z" fill="#371f0f" stroke="none" stroke-width="1" stroke-linecap="butt" stroke-linejoin="miter"/><path d="" fill="#020b3f" stroke="none" stroke-width="1" stroke-linecap="butt" stroke-linejoin="miter"/><path d="M254.62,166.48c-1.89607,0.6828 -3.8254,1.23911 -5.7757,1.66887" fill="none" stroke="#371f0f" stroke-width="1.681" stroke-linecap="round" stroke-linejoin="round"/><path d="" fill="#ed1c24" stroke="none" stroke-width="1" stroke-linecap="butt" stroke-linejoin="miter"/><path d="" fill="#b71327" stroke="none" stroke-width="1" stroke-linecap="butt" stroke-linejoin="miter"/><path d="" fill="#683113" stroke="none" stroke-width="1" stroke-linecap="butt" stroke-linejoin="miter"/><path d="" fill="#371f0f" stroke="none" stroke-width="1" stroke-linecap="butt" stroke-linejoin="miter"/><path d="" fill="#995728" stroke="none" stroke-width="1" stroke-linecap="butt" stroke-linejoin="miter"/><path d="M292.68774,164.33978c3.9684,1.19166 10.90823,2.52755 12.24491,7.28745c1.26363,4.49979 -3.2997,7.67319 -7.07025,9.9014c-0.63359,-0.12586 -1.28873,-0.19186 -1.95929,-0.19186c-3.41173,0 -6.42441,1.70854 -8.2291,4.31668c-4.77038,0.27797 -9.58006,0.41978 -14.36312,0.24161c-1.96301,-0.07312 -3.90755,-0.63422 -5.86918,-0.53047c-4.69288,0.24821 -9.35329,1.29341 -14.10863,1.36281c-2.85316,0.12979 -5.73991,-0.0263 -8.55673,0.44583c-1.84832,0.3098 -3.5871,1.32595 -5.46117,1.33635c-4.5412,0.02519 -5.34764,-0.63816 -9.41783,-1.38263c-0.72523,-0.13265 -9.62589,-1.4663 -10.12889,-1.59646c-6.21838,-1.60907 -15.82683,-9.39774 -8.52713,-15.73399c1.13247,-0.983 2.80376,-1.6707 4.6448,-2.18879c3.63576,0.00246 7.27151,-0.00185 10.90722,-0.01853c5.77226,-0.02649 11.54276,-2.00905 17.21262,-2.71778c2.52505,-0.31563 5.32522,0.50874 7.70038,0c1.65592,-0.35469 3.68107,-1.15511 5.4756,-1.56291c1.03746,-0.08545 2.07586,-0.16472 3.11551,-0.23665c3.25377,0.05441 9.18114,0.2562 13.87545,-0.07075c0.35721,0.03863 0.72006,0.05846 1.08755,0.05846c1.05648,0 2.0747,-0.16383 3.03063,-0.46748c4.87328,-0.00283 9.72865,0.22016 14.39666,1.74772zM222.64337,171.40921c-0.16855,0.03909 -0.3368,0.07946 -0.50468,0.12146c-1.39955,0.35016 -12.19828,1.82108 -7.4005,5.51048c0.7044,0.54167 1.55507,0.86189 2.30915,1.33194c1.20174,0.7491 2.66233,2.01093 4.13299,2.36089c3.16045,0.75208 6.43773,0.89328 9.63344,1.47768c3.57693,0.65411 4.48664,1.27463 8.29507,1.30219c2.03982,0.01476 2.68297,-0.91166 4.70278,-1.24666c1.29137,-0.21418 8.38592,-0.49274 9.37282,-0.53757c4.72165,-0.06353 9.34942,-1.13674 14.01304,-1.35906c5.83201,-0.27801 11.84401,0.77666 17.74119,0.52891c1.64832,-0.06925 3.40322,0.42257 4.94673,-0.15996c2.76951,-1.04522 6.29756,-4.01324 8.61429,-5.8478c0.66168,-0.52397 1.96743,-1.19357 1.60699,-1.95676c-1.08119,-2.28925 -6.80924,-3.19334 -8.92806,-3.82836c-6.08231,-2.07249 -12.74486,-1.47138 -19.09511,-1.47138c-13.73049,0 -27.04066,2.05696 -40.65267,3.41308c-2.06538,0.41185 -4.16582,0.64997 -6.26545,0.81415l0.39697,0.00809c0,0 -1.74132,0.87066 -2.91899,-0.46133z" fill="#fffea0" stroke="none" stroke-width="0.5" stroke-linecap="butt" stroke-linejoin="miter"/><path d="M225.5127,171.86473l-0.39698,-0.00803c2.09963,-0.16418 4.2005,-0.40524 6.26588,-0.81708c13.61201,-1.35612 27.0158,-3.4274 40.7463,-3.4274c6.35024,0 13.01755,-0.5873 19.09986,1.48519c2.11883,0.63502 7.84764,1.54531 8.92883,3.83456c0.36044,0.76318 -0.94522,1.43502 -1.6069,1.95898c-2.31673,1.83456 -5.84539,4.81112 -8.6149,5.85635c-1.54351,0.58253 -3.29869,0.09231 -4.94701,0.16156c-5.89718,0.24775 -11.91299,-0.79514 -17.745,-0.51713c-4.66362,0.22232 -9.36212,1.31742 -14.08376,1.38095c-0.9869,0.04483 -8.10044,0.30328 -9.39181,0.51747c-2.01981,0.335 -2.66414,1.25899 -4.70396,1.24423c-3.80843,-0.02756 -4.72098,-0.65616 -8.29791,-1.31028c-3.19571,-0.5844 -6.47403,-0.73082 -9.63448,-1.48289c-1.47066,-0.34996 -2.93164,-1.61545 -4.13339,-2.36455c-0.75408,-0.47005 -1.60484,-0.79204 -2.30924,-1.33371c-4.79778,-3.6894 6.00124,-5.16784 7.40079,-5.518c0.16787,-0.042 0.43544,-0.07066 0.60399,-0.10975c1.17766,1.33199 2.81969,0.44952 2.81969,0.44952z" data-paper-data="{&quot;noHover&quot;:false,&quot;origItem&quot;:[&quot;Path&quot;,{&quot;applyMatrix&quot;:true,&quot;segments&quot;:[[[445.28674,342.81843],[2.35533,2.66398],[-0.3371,0.07818]],[[444.27739,343.06135],[0.33575,-0.084],[-2.7991,0.70031]],[[429.4764,354.08232],[-9.59557,-7.3788],[1.40879,1.08334]],[[434.09469,356.74619],[-1.50815,-0.9401],[2.40348,1.4982]],[[442.36067,361.46797],[-2.94131,-0.69993],[6.3209,1.50415]],[[461.62755,364.42333],[-6.39142,-1.1688],[7.15386,1.30823]],[[478.2177,367.0277],[-7.61686,-0.05512],[4.07963,0.02952]],[[487.62326,364.53438],[-4.03962,0.67],[2.58275,-0.42837]],[[506.36889,363.45924],[-1.9738,0.08965],[9.44329,-0.12706]],[[534.39496,360.74113],[-9.32723,0.44463],[11.66401,-0.55603]],[[569.87734,361.79895],[-11.79435,0.4955],[3.29664,-0.1385]],[[579.7708,361.47903],[-3.08701,1.16505],[5.53902,-2.09045]],[[596.99939,349.78343],[-4.63346,3.66912],[1.32336,-1.04794]],[[600.21336,345.86992],[0.72088,1.52637],[-2.16238,-4.57851]],[[582.35723,338.2132],[4.23766,1.27004],[-12.16461,-4.14497]],[[544.16702,335.27043],[12.70049,0],[-27.46099,0]],[[462.86169,342.0966],[27.22401,-2.71224],[-4.13076,0.82369]],[[450.33078,343.7249],[4.19927,-0.32835],[0,0]],[451.12471,343.74108]],&quot;closed&quot;:true}]}" fill="#fffb15" stroke="none" stroke-width="0.5" stroke-linecap="butt" stroke-linejoin="miter"/><path d="M271.17148,171.48711c0,-1.38071 1.11929,-2.5 2.5,-2.5c1.38071,0 2.5,1.11929 2.5,2.5c0,1.38071 -1.11929,2.5 -2.5,2.5c-1.38071,0 -2.5,-1.11929 -2.5,-2.5z" fill="#fffea0" stroke="none" stroke-width="0.5" stroke-linecap="butt" stroke-linejoin="miter"/><path d="M283.34594,172.81042c0,-1.38071 1.11929,-2.5 2.5,-2.5c1.38071,0 2.5,1.11929 2.5,2.5c0,1.38071 -1.11929,2.5 -2.5,2.5c-1.38071,0 -2.5,-1.11929 -2.5,-2.5z" fill="#fffea0" stroke="none" stroke-width="0.5" stroke-linecap="butt" stroke-linejoin="miter"/><path d="M291.55047,172.81042c0,-1.38071 1.11929,-2.5 2.5,-2.5c1.38071,0 2.5,1.11929 2.5,2.5c0,1.38071 -1.11929,2.5 -2.5,2.5c-1.38071,0 -2.5,-1.11929 -2.5,-2.5z" fill="#fffea0" stroke="none" stroke-width="0.5" stroke-linecap="butt" stroke-linejoin="miter"/><path d="M227.27173,186.97557c0,0 1.18525,-2.20118 3.38643,-1.01593c1.34479,0.72412 1.4256,1.82744 1.28492,2.57634c-1.37401,-0.71062 -2.93387,-1.11198 -4.58747,-1.11198c-0.10981,0 -0.21922,0.00177 -0.32818,0.00528c0.08143,-0.15124 0.16286,-0.30247 0.2443,-0.45371z" fill="#fffb15" stroke="none" stroke-width="0.5" stroke-linecap="butt" stroke-linejoin="miter"/><path d="M244.56965,187.21424c1.45209,-0.6702 2.40399,0.01727 2.90141,0.59963c-1.61055,0.25679 -3.09285,0.89811 -4.34983,1.82689c-0.07731,-0.75276 0.10144,-1.80483 1.44842,-2.42652z" fill="#fffb15" stroke="none" stroke-width="0.5" stroke-linecap="butt" stroke-linejoin="miter"/><path d="M262.98154,185.82746c1.2937,-0.49758 2.146,-0.00201 2.64868,0.53839c-1.48294,0.01473 -2.88861,0.35225 -4.15012,0.94566c0.17162,-0.56401 0.59012,-1.13355 1.50144,-1.48406z" fill="#fffb15" stroke="none" stroke-width="0.5" stroke-linecap="butt" stroke-linejoin="miter"/><path d="M278.24636,186.29558c1.10626,-0.33188 1.85476,0.00064 2.33996,0.45451c-1.50762,0.23528 -2.90368,0.80738 -4.10879,1.6369c0.05582,-0.74226 0.41424,-1.68503 1.76884,-2.09141z" fill="#fffb15" stroke="none" stroke-width="0.5" stroke-linecap="butt" stroke-linejoin="miter"/><path d="M289.20954,183.61817c0.1512,-0.0378 0.29533,-0.06382 0.43268,-0.07937c-0.91822,0.73817 -1.70332,1.63519 -2.31359,2.64934c-0.04236,-0.73433 0.12232,-2.13032 1.88091,-2.56996z" fill="#fffb15" stroke="none" stroke-width="0.5" stroke-linecap="butt" stroke-linejoin="miter"/><path d="M219.31075,158.4951c0,-1.38071 1.11929,-2.5 2.5,-2.5h2.71778v0.01507l0.04805,-0.01461c6.2019,0.23774 12.40456,0.46161 18.60583,0.71515c1.78285,0.07289 3.67542,-0.39071 5.34803,0.23075c0.11098,0.04123 0.22006,0.08597 0.32742,0.13388l0.01534,-0.04603l2.66309,0.8877c0.58252,0.17915 1.07433,0.56543 1.38946,1.07288c0.63124,-0.20325 1.1636,-0.49432 1.54246,-0.90367c1.1271,-1.21778 1.55196,-2.93372 2.29403,-4.41786c1.37528,-2.29212 2.43496,-4.79226 3.91019,-7.02267c1.42229,0.8887 2.94038,1.63836 4.53524,2.22994c-0.04141,0.05749 -0.08296,0.11598 -0.12464,0.17555c-1.53359,2.19172 -2.56131,4.72918 -3.93774,7.02323c-0.58679,1.17359 -2.21747,4.65776 -3.14153,5.54734c-0.75718,0.72893 -1.57844,1.25671 -2.44519,1.63663c0.00441,0.07088 0.00668,0.14396 0.00668,0.21932l-0.00002,0c0,2.5 -2.5,2.5 -2.5,2.5c-1.40859,-0.01205 -2.75777,0.12986 -4.07654,0.37156c-0.39882,0.85094 -1.26306,1.4403 -2.26495,1.4403c-0.00897,0 -0.01793,-0.00005 -0.02688,-0.00014l-2.78034,-0.0256l0.0002,-0.02183l-0.05033,0.02086c-0.05588,-0.00278 -0.11178,-0.00557 -0.1677,-0.00836c-1.21601,0.38939 -2.44007,0.80193 -3.69647,1.1922c-3.718,1.1549 -7.8161,1.37834 -11.64379,2.00509l-0.2062,-0.06853v0.07705h-2.71778c-1.38071,0 -2.5,-1.11929 -2.5,-2.5c0,-0.88153 0.45626,-1.6565 1.14551,-2.10163l0.85126,-0.5675c-0.31694,-0.11522 -0.66059,-0.30162 -0.94303,-0.60315c-0.67708,-0.03353 -1.35407,-0.06131 -2.03085,-0.08208c0.40373,0.53085 1.19904,1.92056 -0.19068,3.31028c-1.76777,1.76777 -3.53553,0 -3.53553,0c-1.28085,-1.29769 -2.25675,-2.86456 -3.37349,-4.30591c-4.27223,-5.51402 -9.70391,-10.69731 -10.91363,-17.88719c-0.40636,-2.41515 -1.06453,-4.72534 0.30973,-7.11169c0.23014,-0.39963 0.52328,-0.75471 0.85841,-1.07738c2.13582,-0.07307 4.26955,-0.1526 6.32343,-0.44118c1.42888,-0.20076 2.87713,-0.45262 4.33355,-0.75082c-1.09669,0.77232 -2.2135,1.58415 -3.40232,2.41633c-1.22504,0.85753 -2.97334,1.13761 -3.80059,2.3833c-1.19492,1.79933 0.8848,6.37358 1.79933,7.86679c2.11089,3.44659 4.30113,6.90393 6.77718,10.11033h2.43416c-0.17028,-0.33783 -0.26617,-0.71957 -0.26617,-1.12371z" fill="#f9ffa7" stroke="none" stroke-width="0.5" stroke-linecap="butt" stroke-linejoin="miter"/><path d="M236.6604,129.5138c0.21216,-0.12002 0.42249,-0.2421 0.63123,-0.36604c0.06592,0.09157 0.13244,0.18267 0.19956,0.2733c-0.27699,0.03063 -0.55395,0.06145 -0.83078,0.09274z" fill="#f9ffa7" stroke="none" stroke-width="0.5" stroke-linecap="butt" stroke-linejoin="miter"/><path d="M243.97253,138.80482c0.16382,-0.99599 0.14347,-2.16571 0.54905,-2.93367c2.55506,1.57057 5.41409,2.69457 8.46835,3.26327c0.32471,0.49443 0.66648,0.97665 1.02448,1.44583c-0.26226,0.98113 -0.76649,1.87694 -1.48504,2.508c-1.50021,1.31753 -3.86926,1.8611 -5.81779,1.42549c-0.89647,-0.20041 -1.3587,-1.08815 -1.81462,-1.9859c-0.27285,-0.30742 -0.40928,-0.58028 -0.40928,-0.58028l-0.10205,-0.36387c-0.08175,-0.13166 -0.16734,-0.25722 -0.25858,-0.37386c0,0 -0.74628,-1.2438 -0.15453,-2.40501z" fill="#000000" stroke="none" stroke-width="0.5" stroke-linecap="butt" stroke-linejoin="miter"/><path d="M228.78445,143.93963c-2.09286,-1.06242 -2.75025,-2.38931 -2.56371,-3.6668c-0.02002,-0.07405 -0.03634,-0.14994 -0.04866,-0.22782c-0.69732,-4.40646 3.58195,-8.56827 7.8246,-4.60697c0.51288,0.47887 0.92505,1.81232 1.03699,3.32566l0.10184,0.00849l-0.03562,0.42742c0.23142,0.2963 0.4131,0.69191 0.50094,1.21891c0.19589,1.17532 -0.26176,1.88383 -0.79447,2.30352l-0.08411,1.00931c-0.09421,1.29477 -1.17452,2.31595 -2.49333,2.31595c-0.69036,0 -1.31536,-0.27982 -1.76777,-0.73223l-1.10728,-1.10728c-0.18439,-0.07979 -0.37415,-0.16903 -0.56941,-0.26815z" fill="#000000" stroke="none" stroke-width="0.5" stroke-linecap="butt" stroke-linejoin="miter"/><path d="M229.27595,140.37656c0,-1.38071 1.11929,-2.5 2.5,-2.5c1.38071,0 2.5,1.11929 2.5,2.5c0,1.38071 -1.11929,2.5 -2.5,2.5c-1.38071,0 -2.5,-1.11929 -2.5,-2.5z" fill="#ffffff" stroke="none" stroke-width="0.5" stroke-linecap="butt" stroke-linejoin="miter"/><path d="M246.94153,139.92359c0,-0.93764 0.51619,-1.75472 1.2799,-2.18257c1.12281,0.45442 2.28616,0.82963 3.4831,1.11871c0.15202,0.3228 0.237,0.6834 0.237,1.06385c0,1.38071 -1.11929,2.5 -2.5,2.5c-1.38071,0 -2.5,-1.11929 -2.5,-2.5z" fill="#ffffff" stroke="none" stroke-width="0.5" stroke-linecap="butt" stroke-linejoin="miter"/><path d="M250.80042,148.29472c2.5,0 2.5,2.5 2.5,2.5l-0.54783,2.92063c-0.77804,0.91792 -1.34202,2.07283 -2.33411,2.75377c-4.31496,2.96166 -12.04985,2.26915 -16.51643,0.22059c-2.58495,-1.18556 -4.17637,-3.23928 -6.58309,-4.65719c0,0 -2.14373,-1.28624 -0.85749,-3.42997c1.28624,-2.14373 3.42997,-0.85749 3.42997,-0.85749c2.15729,1.31309 3.8182,3.37878 6.09989,4.40209c3.94853,1.77085 10.16429,2.15264 12.85691,-1.55527l-0.54783,0.20285c0,0 0,-2.5 2.5,-2.5z" fill="#ff4444" stroke="none" stroke-width="0.5" stroke-linecap="butt" stroke-linejoin="miter"/><path d="" fill="#3c1010" stroke="none" stroke-width="0.5" stroke-linecap="butt" stroke-linejoin="miter"/><path d="" fill="#3c1010" stroke="none" stroke-width="0.5" stroke-linecap="butt" stroke-linejoin="miter"/><path d="M244.71073,135.43592c0.411,-2.46598 2.87698,-2.05499 2.87698,-2.05499l2.90941,0.49267c1.96313,0.65914 3.88505,1.49104 5.66621,2.54737c0,0 2.14373,1.28624 0.85749,3.42997c-1.28624,2.14373 -3.42997,0.85749 -3.42997,0.85749c-1.34798,-0.82039 -2.80046,-1.48781 -4.29899,-1.98227l-2.52615,-0.41326c0,0 -2.46598,-0.411 -2.05499,-2.87698z" fill="#3c1010" stroke="none" stroke-width="0.5" stroke-linecap="butt" stroke-linejoin="miter"/><path d="M271.28667,117.51213c1.25773,0.96039 1.56195,2.80213 1.91187,4.34543c0.12848,0.56666 0.19993,1.1226 0.22681,1.67035c0.50834,1.14165 0.89826,2.38216 1.13208,3.76522c0.03585,0.21208 0.05517,0.49943 0.06365,0.83462c0.19522,0.65035 0.37542,1.2679 0.54648,1.83407l-0.56053,-0.16311c-0.03134,1.18694 -0.08395,2.44043 -0.02583,3.12424c0.19869,2.33782 1.06215,3.83491 0.37077,6.3091c-1.01218,3.62224 -5.84333,7.70851 -8.21153,10.47188l-5.09144,-0.21171c0,0 -2.32119,-0.92848 -1.39272,-3.24967c0.78403,-1.96009 2.56116,-1.60295 3.09512,-1.4444c-0.19766,-0.72774 -0.02854,-1.40421 -0.02854,-1.40421c0.86502,-3.45206 1.87937,-6.88443 2.36136,-10.38672c-0.54862,-2.37067 -1.128,-4.99946 -1.04727,-5.24579c0.24208,-0.73868 0.72465,-1.32563 1.31232,-1.84627c-1.80012,-1.34212 -3.54703,-3.0158 -4.00258,-4.77943c-1.62309,-0.00067 -4.49496,-0.00538 -4.50716,-0.00625c-3.20994,-0.22791 -6.39373,-1.16312 -9.63263,-0.90739c-6.69359,0.5285 -13.83995,2.59689 -20.14618,4.8336c-2.06073,0.73091 -4.02792,1.79495 -5.96519,2.93425c-1.77338,1.53874 -3.51638,3.11236 -5.35076,4.61877c-0.98485,0.80877 -2.38619,1.21032 -3.05983,2.2921c-0.86655,1.39159 -0.87864,3.15875 -1.31797,4.73812l-3.66431,-3.93429c-0.04972,-0.08746 -0.1037,-0.17429 -0.16116,-0.2606c-0.24366,0.61776 -0.49945,1.27189 -0.86449,1.99398c-1.30011,2.57172 -2.00888,3.13135 -3.92906,5.44493c0,0 -1.60046,1.92055 -3.52101,0.32009c-1.92055,-1.60046 -0.32009,-3.52101 -0.32009,-3.52101c2.84248,-3.39559 3.9498,-7.69254 6.85546,-10.94162c1.63739,-1.83091 3.77696,-3.16423 5.43229,-4.97895c0.56244,-0.6166 1.05152,-1.33293 1.52017,-2.08096c-0.40822,-0.31969 -0.8208,-0.62973 -1.24828,-0.90669l2.58123,-1.26395c0.72375,-1.13051 1.51659,-2.18469 2.56238,-2.92623c0.52277,-0.37068 1.08256,-0.66947 1.66729,-0.91948l-0.89832,-0.56828l5.17282,-2.1221c1.58677,0.01889 3.17201,0.09026 4.75693,0.17398c8.00331,-1.98465 16.62423,-1.96685 24.74544,-3.3209c2.3564,-0.38577 4.93262,-0.9822 7.32687,-0.4201c1.19008,0.2794 1.98694,0.57769 2.59192,0.93341l0.60029,-0.07505l0.06887,0.55095c0.82945,0.70823 1.33608,1.63548 2.557,2.98022c0.99294,1.09364 1.99503,2.12767 2.95188,3.16512c1.12251,0.02194 2.07295,0.19747 2.5356,0.55075zM216.87221,125.12716c0.23671,-0.14081 0.4733,-0.28235 0.7099,-0.42419c-0.10917,-0.08293 -0.21132,-0.17463 -0.30539,-0.27405c-0.13547,0.23564 -0.2701,0.46959 -0.40451,0.69825zM262.94415,146.44996c0.25729,-0.30011 0.51157,-0.60279 0.76401,-0.90704c-0.11776,-0.15783 -0.20657,-0.32428 -0.27288,-0.49182z" fill="#3c1010" stroke="none" stroke-width="0.5" stroke-linecap="butt" stroke-linejoin="miter"/><path d="M242.71781,123.05939c1.18429,-0.53625 2.37953,-1.04912 3.5921,-1.5342c0.63523,-0.25409 1.27239,-0.51825 1.91276,-0.78093c-2.83321,0.00169 -5.20531,-0.01548 -7.95091,0.96017c-0.49956,0.17733 -1.00318,0.34396 -1.50955,0.50306c1.35134,0.1237 2.59188,0.39253 3.31435,0.7386l0.11755,-0.07918c0,0 0.30289,0 0.5237,0.19248zM239.7695,120.291c3.14039,-1.11594 7.3331,-1.70595 10.69809,-1.03812c0.3274,0.06498 0.65679,0.14414 0.96381,0.25264c1.94928,-0.67376 3.94557,-1.16493 6.02236,-1.16825c0.48988,-0.00078 3.13853,-0.0637 3.41823,0.25036c0.62788,0.70502 0.38523,1.41089 -0.21203,2.04331l0.06655,0.3407c0.1892,-0.15677 0.43711,-0.28073 0.77272,-0.34948c0.78261,-0.16033 1.35277,-0.09061 1.73614,0.28954c0.93766,-2.13158 2.03291,-4.2308 3.35277,-6.37557c0.40642,-0.53522 0.58044,-1.39694 1.21925,-1.60567c1.76919,-0.57808 2.59266,2.55731 2.8944,3.56366c1.19951,4.00052 1.29498,8.8979 -0.04858,13.10796c0.43506,-0.17363 0.8747,-0.30454 1.31636,-0.38398c2.1354,-0.38409 4.06559,1.492 3.56233,3.65233c-0.20585,0.88365 -1.32091,2.04092 -1.86287,2.68288c-2.49364,1.74212 -5.20471,3.20738 -8.01124,4.47661c-0.55344,1.1187 -1.36387,2.15935 -1.91593,3.27846c-0.75263,0.77206 -1.50526,1.54412 -2.2579,2.31617l-1.40429,1.01824c-0.27511,2.45238 -1.51493,5.01527 -3.27659,7.05391c-0.88244,1.5823 -1.96503,3.30881 -3.19316,4.02486c-0.15662,0.28483 -0.31368,0.5697 -0.47116,0.85473l-0.23854,0.04177l0.04746,0.09491l-0.89243,0.44622c-0.10422,0.05487 -0.22294,0.08593 -0.34891,0.08593c-0.15123,0 -0.292,-0.04476 -0.4098,-0.12175c-0.29899,0.37156 -0.5898,0.73899 -0.8676,1.102c-0.07805,0.14297 -0.1624,0.28528 -0.25506,0.42794l0.27077,0.18051l-0.8256,1.2384c-0.13354,0.20678 -0.36603,0.34365 -0.63049,0.34365c-0.41421,0 -0.75,-0.33579 -0.75,-0.75c0,-0.08907 0.01553,-0.17452 0.04402,-0.25378l0.44743,-1.34228l0.03916,0.01305l0.00584,-0.11978c0.15815,-0.21941 0.31628,-0.44462 0.47469,-0.67454c0.35625,-3.72903 3.76873,-7.56604 5.4475,-11.23636c-0.31005,-0.08379 -0.62283,-0.20368 -0.93378,-0.36767c-0.90102,0.26095 -2.04471,1.45015 -2.22303,1.53832c-2.2,1.08771 -4.89155,1.9956 -7.22114,3.15927c-4.07978,1.665 -8.43178,-0.03888 -11.26179,-2.86888c-0.46667,-0.46667 -1.85936,-1.27421 -2.54144,-2.19684c-0.44426,-0.19803 -0.92284,-0.3159 -1.45787,-0.30127c0,0 -0.50752,0 -0.68758,-0.4175c-0.35035,0.12918 -0.72908,0.19971 -1.12428,0.19971c-0.18607,0 -0.36849,-0.01564 -0.54601,-0.04567c0.03342,0.24679 0.1062,0.48178 0.24199,0.6986c0.46052,0.73533 1.47466,0.91533 2.22782,1.34606l2.841,4.33585c0,0 1.73925,5.21776 -3.47851,6.95701c-2.06578,0.68859 -3.58632,0.28669 -4.66954,-0.45015c-0.93751,0.74221 -2.12261,1.18536 -3.41121,1.18536c-1.99766,0 -3.74657,-1.06501 -4.70991,-2.65822c-0.62294,-0.39645 -0.99103,-0.76455 -0.99103,-0.76455l-1.73305,-1.96529c-0.90593,-1.50988 -1.81185,-3.01976 -2.71778,-4.52964c0,0 -0.78223,-1.30372 -0.83869,-2.95153c-1.34153,-1.00296 -2.20991,-2.60399 -2.20991,-4.40783c0,-2.70564 1.95369,-4.95498 4.5273,-5.41426c0.05238,-0.14714 0.09552,-0.23341 0.09552,-0.23341l1.37423,-2.46159c0.221,-0.221 0.44199,-0.44199 0.66299,-0.66299c0.46357,-1.45319 1.59934,-3.00106 4.27726,-3.44738c0.38496,-0.06416 0.74715,-0.09645 1.08787,-0.10107c4.10634,-2.72262 8.45212,-5.43762 13.06328,-6.95158c0.41952,-0.13774 0.8395,-0.25731 1.25992,-0.36109l-1.37094,0c-0.41421,0 -0.75,-0.33579 -0.75,-0.75c0,-0.37812 0.27982,-0.69089 0.64368,-0.74252l0.98003,-0.15631c2.22456,-0.63754 4.48645,-1.19841 6.66688,-1.97411zM256.07986,148.46913c0.00264,0.55298 -0.01709,1.1483 -0.03571,1.4698c0.15013,-0.29044 0.29838,-0.5814 0.44419,-0.87301c0.11695,-0.23389 0.24713,-0.56169 0.38705,-0.93299c-0.22052,0.03754 -0.45049,0.06406 -0.68737,0.07514c-0.03554,0.08732 -0.0716,0.17433 -0.10817,0.26106zM230.35454,145.70596c0.3127,-0.26872 0.97032,-0.1356 1.42141,-0.19087c0.98502,-0.1207 2.04862,-0.04556 3.1133,0.12376c-0.00464,-0.09264 -0.00699,-0.18589 -0.00699,-0.27969c0,-1.87874 0.94199,-3.53747 2.37943,-4.52964c-1.43744,-0.99217 -2.37943,-2.6509 -2.37943,-4.52964c0,-0.452 0.05452,-0.89127 0.15735,-1.31158c-3.25188,1.22653 -6.37455,3.18413 -9.33746,5.15986c0.0515,0.15348 0.10294,0.30698 0.15401,0.46061c0.42147,-0.19974 0.89276,-0.31147 1.39015,-0.31147c1.79493,0 3.25,1.45507 3.25,3.25c0,0.76902 -0.2671,1.47566 -0.71359,2.03221c0.19629,0.03168 0.38659,0.07427 0.57182,0.12645zM235.65447,150.2058c2.21754,1.33128 5.78662,1.68992 7.86402,0.88517c-0.39819,-0.01803 -0.71549,-0.34657 -0.71549,-0.74922c0,-0.0145 0.00041,-0.0289 0.00122,-0.0432c-0.73076,0.359 -1.55282,0.5606 -2.42197,0.5606c-1.16518,0 -2.24573,-0.36233 -3.13514,-0.98045c-0.37651,0.25879 -0.90949,0.3652 -1.59265,0.3271zM247.25408,143.01697c0.84805,0.82952 0.70235,2.29055 0.10141,3.65454c0.05063,-0.009 0.10148,-0.01846 0.15257,-0.02839l0.12161,-0.24323c0.20884,-0.66028 0.48647,-1.27373 0.86783,-1.58761c0.5273,-0.434 1.33622,-0.80535 2.24784,-1.13236c-0.82781,-3.43642 2.43978,-5.61482 2.43978,-5.61482l0.52065,-0.21874c0.42341,-0.40534 0.84682,-0.81069 1.27023,-1.21603c-0.38119,-0.52102 -1.24815,-2.11687 -1.25835,-3.27019c-0.78766,0.22043 -1.6553,0.0672 -2.46602,0.21157c-1.92021,0.34195 -3.87744,0.49566 -5.82914,0.52338c0.29568,0.67497 0.45975,1.42073 0.45975,2.2048c0,1.87874 -0.94199,3.53747 -2.37943,4.52964c0.66866,0.46153 1.2301,1.06729 1.6394,1.77234c0.88918,-0.11858 1.67052,-0.01658 2.11185,0.41511zM272.65891,134.44439c1.7457,-2.0893 1.63505,-4.67713 -1.64108,-3.34012c-0.39709,0.16206 -0.80008,0.37781 -1.20312,0.63459c-0.88179,1.862 -2.10126,3.50657 -3.69428,4.7641c0.11751,0.52437 0.17784,1.05144 0.13138,1.58249c2.22722,-1.0583 4.3814,-2.2519 6.40711,-3.64105zM268.70658,130.6614c1.02057,-2.5486 1.39918,-5.40307 1.27047,-8.07953c-0.08637,-1.79601 -0.18772,-3.9261 -0.71148,-5.65503c-0.31913,-1.05344 -0.67072,-3.56534 -1.39993,-1.60457c-2.40791,3.91286 -4.03341,7.64975 -5.33456,11.73827c1.11936,1.69474 1.91854,3.77304 2.54638,6.14121c0.05171,0.19504 0.11017,0.39009 0.17273,0.5852c1.02848,-1.14874 2.20395,-2.27075 3.4564,-3.12555zM233.94823,123.58255c-0.07313,0.02049 -0.14624,0.04102 -0.21931,0.06162v0.23842c0.47813,-0.11434 0.95682,-0.20857 1.43605,-0.28616c-0.40978,0.00325 -0.81685,0.00112 -1.21673,-0.01387zM251.41115,121.099c-0.74165,0.27088 -1.47638,0.5642 -2.2075,0.86294l0.60279,0.00087l0,0.00009l0.0003,-0.00009c0.42747,0.00121 0.85511,0.01102 1.28243,0.02942c0.16033,-0.1355 0.28403,-0.27055 0.35085,-0.3996c0.10873,-0.20999 0.08351,-0.37084 -0.02887,-0.49363zM246.86699,122.9179c-0.2193,0.08771 -0.43801,0.17634 -0.65618,0.26587c0.32164,-0.01717 0.64338,-0.03867 0.96522,-0.06553c0.22898,-0.01911 0.45684,-0.04703 0.68389,-0.08136c-0.04762,-0.09855 -0.07432,-0.20911 -0.07432,-0.32591c0,-0.06 0.00705,-0.11836 0.02036,-0.17428c-0.31318,0.12853 -0.62608,0.25605 -0.93896,0.3812zM252.80713,120.62265c0.15295,0.3601 0.19307,0.8149 0.07148,1.39481c-0.00689,0.03284 -0.01629,0.06602 -0.02806,0.09951c0.00733,0.00072 0.01466,0.00145 0.022,0.00218c0.16844,0.01684 0.37147,0.04908 0.60067,0.09195c0.20724,0.01122 0.41091,0.02583 0.61106,0.04379c0.76725,-0.13305 1.55868,-0.35939 2.41454,-0.79173c0.70884,-0.35808 1.37188,-0.80041 2.05797,-1.20035c0.39575,-0.2307 1.63941,-0.79302 1.19655,-0.6759c-1.17415,0.31053 -2.25004,0.10117 -3.4355,0.24588c-1.19888,0.14635 -2.36521,0.42972 -3.5107,0.78986zM261.06946,122.75708c0.10487,0.57431 0.21123,1.20251 0.30263,1.85687c0.42822,-1.03845 1.0214,-2.52423 0.81108,-2.62388c-0.45039,-0.2134 -0.81384,0.22176 -1.11371,0.767zM245.8939,145.59798c0.08266,-0.50987 0.60019,-1.10035 0.29952,-1.52035c-0.05249,-0.07332 -0.22437,-0.08402 -0.47298,-0.04819c0.10572,0.42581 0.16182,0.87121 0.16182,1.32971c0,0.12629 -0.00426,0.25159 -0.01263,0.37575c0.00872,-0.0453 0.01682,-0.09094 0.02428,-0.13693zM232.84433,147.02618c0.39326,0.28677 0.78254,0.5922 1.182,0.89529c0.2141,0.16245 1.58241,0.96677 2.12741,0.95496c-0.37009,-0.44444 -0.67144,-0.94815 -0.88771,-1.49479c-0.65414,-0.11857 -1.32063,-0.37223 -2.1312,-0.36656c-0.08452,0.00059 -0.18362,0.00536 -0.29051,0.0111zM249.79576,145.82067c0.06005,-0.07018 0.12109,-0.13993 0.1827,-0.20899c-0.19677,0.11591 -0.37572,0.23686 -0.53333,0.36336c-0.16169,0.12978 -0.29015,0.29542 -0.40734,0.47262l0.0981,-0.00693c0.17476,-0.23243 0.35793,-0.44859 0.65988,-0.62006zM259.2376,123.04795c0.00671,-0.41418 0.03385,-0.82648 0.08526,-1.2429h-0.21317v-0.00795c-0.77833,0.46086 -1.55951,0.81547 -1.93454,1.00493c-0.03074,0.01553 -0.06145,0.03097 -0.09211,0.04631c0.17761,0.05795 0.35157,0.11953 0.52199,0.1847c0.64541,0.08271 1.22128,0.10554 1.63258,0.01492zM249.54993,148.5011c-0.13371,-0.01997 -0.25775,-0.05719 -0.36797,-0.11353c-0.94108,0.57448 -1.95033,1.03105 -2.96777,1.49876c1.12653,-0.46871 2.26982,-0.91719 3.33574,-1.38523zM246.42571,148.24764c-0.00173,0.00228 -0.00346,0.00455 -0.00519,0.00682c0.00642,-0.00259 0.01284,-0.00519 0.01925,-0.00778c-0.00468,0.00032 -0.00937,0.00064 -0.01406,0.00096z" fill="#fff6cc" stroke="none" stroke-width="0.5" stroke-linecap="butt" stroke-linejoin="miter"/><path d="M267.56007,113.80763l0.15593,0.75c0,-1.96284 0,-3.92568 0,-5.88853c0,0 0,-0.75 0.75,-0.75c0.75,0 0.75,0.75 0.75,0.75c0,0.37008 0,0.74016 0,1.11024c0.45397,0.16612 0.45296,0.70303 0.45296,0.70303l-0.00101,0.53606c-0.00294,1.54863 0.00223,3.07389 -0.0671,4.58536c0.01668,0.03632 0.03055,0.0742 0.04132,0.11336l0.42618,1.4206l-0.071,0.0213c0.31435,0.55995 0.61806,1.12759 0.91461,1.70073l0.0467,-0.09339c0.12026,-0.25368 0.37868,-0.42912 0.67809,-0.42912c0.41421,0 0.75,0.33579 0.75,0.75v0.90593c0,0.23533 -0.00056,0.4708 -0.00166,0.7064c0.15923,0.31411 0.26608,0.67801 0.34564,1.05419c0.08231,-0.03105 0.17151,-0.04804 0.26468,-0.04804c0.41421,0 0.75,0.33579 0.75,0.75c0,0.0001 0,0.0002 0,0.00031l-0.00048,1.3776c0.26685,0.11489 0.45367,0.38022 0.45367,0.68919c0,0.03804 -0.00283,0.07542 -0.0083,0.11194l-0.09639,0.71894c0.24426,0.4897 0.49254,0.97752 0.74687,1.46214c0.04097,-0.18027 0.08173,-0.3612 0.12263,-0.54291v-1.29715c0,-0.41421 0.33579,-0.75 0.75,-0.75c0.33738,0 0.62273,0.22277 0.71698,0.52924l0.44749,1.34248l-0.38929,0.12976c0.35794,1.24727 0.45153,2.63767 0.35875,4.0709c0.10594,0.16492 0.21329,0.32903 0.32215,0.49226l0.82636,1.23954c0.08304,0.12072 0.13165,0.26696 0.13165,0.42456c0,0.41421 -0.33579,0.75 -0.75,0.75c-0.17176,0 -0.33003,-0.05774 -0.45647,-0.15486l-0.39577,-0.29728c-0.49686,2.58498 -1.4462,5.12579 -2.40586,7.05363l-0.4457,0.89139c-0.12026,0.25368 -0.37868,0.42912 -0.67809,0.42912c-0.35693,0 -0.65562,-0.24933 -0.73141,-0.58332l-0.36,-1.43999l0.23763,-0.05941c-0.01223,-0.04536 -0.02422,-0.0908 -0.03597,-0.13631c-0.10575,0.00796 -0.22054,0.00485 -0.34527,-0.01078l-0.20922,0.83688c-0.07579,0.33399 -0.37449,0.58332 -0.73141,0.58332c-0.39436,0 -0.71764,-0.30438 -0.74771,-0.69102l-0.08849,-0.99477l0.26054,-0.02318c-0.22727,-1.43135 0.07675,-2.70074 0.17674,-4.40322c-0.73777,1.93873 -1.38674,3.89749 -1.84222,5.80808c-0.62358,2.61572 -0.6249,5.01561 -1.48326,7.36135l0.25721,0.07767l-0.42874,1.41979c-0.08774,0.31679 -0.37814,0.54935 -0.72286,0.54935c-0.41421,0 -0.75,-0.33579 -0.75,-0.75v-1.5l0.01395,0l-0.0126,-0.04508c0.63202,-5.2795 1.26597,-10.55355 1.90238,-15.83211c0.15616,-1.29525 0.25114,-2.51285 0.41645,-3.70381c-0.12443,-0.37928 -0.24655,-0.76006 -0.36721,-1.14153v1.2451c0,0.41421 -0.33579,0.75 -0.75,0.75c-0.2994,0 -0.55783,-0.17544 -0.67809,-0.42912l-0.4457,-0.89139l0.01186,-0.00593l-0.02799,-0.02847c-1.13978,-2.99953 -1.92914,-6.42329 -1.66291,-9.67213h-0.212v-1.5c0,-0.41421 0.33579,-0.75 0.75,-0.75c0.2994,0 0.55783,0.17544 0.67809,0.42912l0.4457,0.89139l-0.0034,0.0017l0.00836,0.00842c0.06565,0.14178 0.13073,0.28391 0.19525,0.42637c-0.10509,-1.08513 -0.2678,-2.17166 -0.5196,-3.27182h-0.19552v-1.35889c0,-0.41421 0.33579,-0.75 0.75,-0.75c0.38457,0 0.70154,0.28945 0.74494,0.66238l0.12739,0.96762c0.08452,0.35343 0.16477,0.71415 0.24035,1.08104c0.16865,-0.44622 0.69918,-0.44622 0.69918,-0.44622zM267.56007,115.30763c0,0 -0.10532,0 -0.23703,-0.03947c0.27995,0.69498 0.50387,1.45568 0.70949,2.19136c0.02494,-0.16083 0.04539,-0.326 0.05745,-0.49617c0.04535,-0.64 0.06903,-1.28512 0.08049,-1.93218zM267.31139,126.15421c-0.0095,0.06029 -0.01923,0.12045 -0.02917,0.18048l0.08599,0c-0.01897,-0.06015 -0.03791,-0.12031 -0.05682,-0.18048zM274.08084,129.76814c-0.09657,-0.15294 -0.2003,-0.31465 -0.31397,-0.48633c-0.03208,0.58655 -0.06584,1.1873 -0.10912,1.78732c0.15397,-0.46764 0.27405,-0.83236 0.27533,-0.83624c0.05109,-0.15502 0.10027,-0.3099 0.14777,-0.46474zM273.44879,137.709c0.66571,-1.51328 1.27422,-3.22412 1.52431,-4.69999c0.0909,-0.53645 0.12049,-1.10212 0.12731,-1.68078c-0.51727,1.64575 -1.05725,3.2849 -1.51384,4.96022c0.42667,0.50747 -0.0606,0.99474 -0.0606,0.99474l-0.05946,0.05946c-0.00402,0.12284 -0.00984,0.24502 -0.01771,0.36636zM267.63556,121.61624c0.2325,0.61831 0.45996,1.2392 0.68417,1.86143c0.06306,-0.08364 0.14322,-0.15365 0.23529,-0.20484c-0.15696,-0.41234 -0.31131,-0.82212 -0.45647,-1.23529c-0.00861,-0.01553 -0.0172,-0.03108 -0.02575,-0.04666c-0.15318,-0.09449 -0.26981,-0.24253 -0.32378,-0.41803l-0.11728,-0.35185c0.00203,0.13181 0.00331,0.26357 0.00382,0.39524zM270.82434,123.38724c-0.65407,-0.96122 -1.16416,-1.99091 -1.60833,-3.08194l0,0.6249c0.43267,0.86401 0.9902,1.6747 1.60833,2.45704zM269.6298,126.33518c-0.0073,0.25043 -0.01322,0.51728 -0.01927,0.79634c0.14789,0.42157 0.29591,0.84266 0.44463,1.26287c0.01584,-0.04391 0.03169,-0.08782 0.04755,-0.13171c-0.13231,-0.63921 -0.28579,-1.28077 -0.47291,-1.92749z" fill="#524f42" stroke="none" stroke-width="0.5" stroke-linecap="butt" stroke-linejoin="miter"/></g></g></svg>