<svg version="1.1" xmlns="http://www.w3.org/2000/svg" xmlns:xlink="http://www.w3.org/1999/xlink" width="714.38185" height="289" viewBox="0,0,714.38185,289"><g transform="translate(230.5,-75.8125)"><g data-paper-data="{&quot;isPaintingLayer&quot;:true}" fill-rule="nonzero" stroke="#000000" stroke-width="2" stroke-linejoin="miter" stroke-miterlimit="10" stroke-dasharray="" stroke-dashoffset="0" style="mix-blend-mode: normal"><path d="" fill="#e59aff" stroke-linecap="butt"/><path d="" fill="#ffb5eb" stroke-linecap="butt"/><path d="" fill="#ffb5eb" stroke-linecap="butt"/><path d="" fill="#ffb5eb" stroke-linecap="butt"/><path d="M-12.34424,354.41496c0,-8.58624 -0.17081,-18.04577 -0.15576,-26.632c0.0041,-2.34012 1.15576,-4.90877 1.15576,-7.368c0,-9.55558 -0.1708,-20.07643 -0.15576,-29.632c0.00777,-4.93871 1.8031,-9.96216 2,-14.97046c0.74663,-18.9909 0.86317,-31.83738 1,-53.92236c0.0722,-11.65403 4.16839,-25.11108 4.15576,-36.47518c-0.00843,-7.58511 -1.80086,-15.18172 -4.2683,-22.60246l491.4554,0c-0.11151,2.91552 -0.21158,5.68884 -0.34287,8.2233c-0.45504,8.78413 -3.15576,17.44511 -3.15576,26.17424c0,3.31697 0.31756,6.63666 0.15576,9.94968c-0.10938,2.23983 -0.97338,4.41043 -1,6.65277c-0.20234,17.04539 1.06764,32.43415 1,49.02954c-0.01856,4.55403 -2.70175,9.03274 -3.15576,13.57292c-0.61157,6.11566 1.45793,13.59909 2.34882,19.49841c0.39922,2.64358 1.5123,5.08819 2.04522,7.67091c0.09806,0.47525 -0.23694,2.8888 -0.23828,3.22823c-0.05649,14.3296 0.05119,28.65951 0,42.98913c-0.01091,3.05405 0.87756,6.17826 0.39063,9.10462c-0.20034,1.20397 0.67623,3.00552 -0.36434,3.64341c-1.16086,0.71163 -2.632,-0.70308 -3.96289,-0.99072c-1.99369,-0.43089 -4.65183,-0.89996 -6.66585,-0.9022c-3.39357,-0.00377 -6.66122,1.63512 -9.9464,1.68069c-2.99325,0.04152 -6.34469,-1.36911 -9.45115,-1.52492c-20.65681,-1.03607 -41.27464,-2.92235 -62.02954,-3c-5.74096,-0.02148 -11.58489,-2.15576 -17.368,-2.15576c-7.54465,0 -16.149,0.42933 -23.50815,2.43868c-4.20135,1.14714 -7.57656,3.36028 -11.93337,3.9898c-8.94121,1.29193 -19.17967,1.38312 -28.29496,1.72729c-4.62854,0.17476 -9.2637,0.01505 -13.89552,0c-3.59159,-0.01167 -7.23047,-1.97204 -10.97046,-2c-29.72969,-0.22225 -59.26243,-0.58046 -88.92236,-1c-6.38787,-0.09036 -12.55101,-2.32246 -19.07764,-2c-6.45001,0.31868 -12.5384,2.9767 -18.97046,3c-13.48772,0.04886 -27.21268,-0.15576 -40.632,-0.15576c-2.19276,0 -4.51587,0.94193 -6.60704,0.96106c-1.94866,0.01783 -3.84196,-0.77704 -5.7905,-0.80529c-8.36617,-0.12133 -16.84239,0.7772 -25.09375,-0.60937c-3.80169,-0.63884 -7.08091,-0.35717 -10.93579,-0.39062c-8.57446,-0.07442 -17.77824,-2.15576 -26.57292,-2.15576c-7.11924,0 -13.08678,3.2022 -20.41558,2.15757c-9.92365,-1.41449 -22.94983,-3.39744 -32.60778,1.13418c-0.01256,-2.69562 0.78159,-6.71016 0.78159,-7.53352z" fill="#ffb5eb" stroke-linecap="butt"/><path d="M-229.5,175.8125l39,24" fill="none" stroke-linecap="round"/><path d="M-185.5,76.8125l-33,134" fill="none" stroke-linecap="round"/><path d="M1.5,361.8125v-197h479v197z" fill="#ffb5eb" stroke-linecap="butt"/><path d="M-6.5,163.8125v-2h8v2z" fill="#ffb5eb" stroke-linecap="butt"/></g></g></svg>