<svg version="1.1" xmlns="http://www.w3.org/2000/svg" xmlns:xlink="http://www.w3.org/1999/xlink" width="64.99606" height="75.64834" viewBox="0,0,64.99606,75.64834"><g transform="translate(-207.51266,-142.17583)"><g data-paper-data="{&quot;isPaintingLayer&quot;:true}" fill-rule="nonzero" stroke-linejoin="miter" stroke-miterlimit="10" stroke-dasharray="" stroke-dashoffset="0" style="mix-blend-mode: normal"><path d="" fill="#000000" stroke="none" stroke-width="0.5" stroke-linecap="butt"/><path d="" fill="#000000" stroke="none" stroke-width="0.5" stroke-linecap="butt"/><path d="" fill="#000000" stroke="none" stroke-width="0.5" stroke-linecap="butt"/><path d="" fill="#000000" stroke="none" stroke-width="0.5" stroke-linecap="butt"/><path d="" fill="#000000" stroke="none" stroke-width="0.5" stroke-linecap="butt"/><path d="" fill="#000000" stroke="none" stroke-width="0.5" stroke-linecap="butt"/><path d="" fill="#000000" stroke="none" stroke-width="0.5" stroke-linecap="butt"/><path d="" fill="#000000" stroke="none" stroke-width="0.5" stroke-linecap="butt"/><path d="M240.38418,182.50252c2.47487,0.35355 2.12132,2.82843 2.12132,2.82843l-0.28181,1.79503c-0.01909,3.12705 -0.66553,5.7201 -1.27631,8.77767c0,0 -0.49029,2.45145 -2.94174,1.96116c-2.45145,-0.49029 -1.96116,-2.94174 -1.96116,-2.94174c0.54656,-2.72966 1.20036,-5.02291 1.17921,-7.79709l0.33207,-2.50213c0,0 0.35355,-2.47487 2.82843,-2.12132z" fill="#000000" stroke="none" stroke-width="0.5" stroke-linecap="butt"/><path d="M269.95137,144.24319l1.53596,72.58098h-62.97467v-73.64834" fill="none" stroke="#005fff" stroke-width="2" stroke-linecap="round"/><path d="M228.08283,182.16295c-0.14207,1.22809 -0.35035,2.47245 -0.73678,3.77633c0,0 -0.10505,0.35016 -0.36698,0.75238c0.0729,0.06315 0.14668,0.12531 0.22129,0.18649c-1.05097,3.32311 -1.72531,6.61341 -1.70747,10.41622c0,0 0,2.66842 -2.66842,2.66842c-2.66842,0 -2.66842,-2.66842 -2.66842,-2.66842c0.01748,-4.29569 0.7992,-8.15814 1.97102,-11.97619c-0.00999,-0.52172 0.10722,-0.91243 0.10722,-0.91243c0.99245,-3.26221 0.65474,-5.96092 1.24075,-9.21026c0.0809,-0.44856 1.77477,-4.8009 2.03047,-5.51584c0.72552,-2.02849 0.39702,-4.82435 2.13223,-6.10114c3.87704,-2.85277 9.53384,3.93461 10.71402,6.71534c2.51771,5.9322 -1.64661,9.87665 -6.47112,12.3511l-1.84858,0.28171c0,0 -1.15889,0 -1.94923,-0.76372zM228.46646,178.05361c0.73454,-0.46379 1.5656,-0.46379 1.5656,-0.46379l-0.53811,0.28171c1.69945,-0.82068 4.10295,-1.83037 4.43206,-4.06889c0.12774,-0.86883 -1.35637,-2.58812 -1.67096,-2.95861c-0.53611,-0.63134 -1.22814,-1.13408 -1.73127,-1.78758c0.0419,2.81951 -1.3081,4.23399 -1.79751,7.09125c-0.11082,0.64702 -0.1927,1.28049 -0.25979,1.90591z" fill="#000000" stroke="none" stroke-width="0.5" stroke-linecap="butt"/><path d="M239.8131,180.58587c0,-1.47372 1.19469,-2.66842 2.66842,-2.66842c1.47372,0 2.66842,1.19469 2.66842,2.66842c0,1.47372 -1.19469,2.66842 -2.66842,2.66842c-1.47372,0 -2.66842,-1.19469 -2.66842,-2.66842z" fill="#000000" stroke="none" stroke-width="0.5" stroke-linecap="butt"/><path d="M244.72738,183.53443c0,-0.83446 0.38302,-1.57945 0.98285,-2.06876v-1.53503l0.00586,-3.78052l0.67278,-5.09021c0,0 0.35267,-2.64501 2.99768,-2.29234c2.64501,0.35267 2.29234,2.99768 2.29234,2.99768l-0.63769,4.73832l0.00586,3.42707v7.53521h-5.33684v-1.86265c-0.59983,-0.48931 -0.98285,-1.2343 -0.98285,-2.06876z" fill="#000000" stroke="none" stroke-width="0.5" stroke-linecap="butt"/><path d="M254.65087,197.29437c0,1.47372 -1.19469,2.66842 -2.66842,2.66842c-0.89962,0 -1.69526,-0.44518 -2.17864,-1.12726c-0.75922,-0.26109 -1.36358,-0.85508 -1.63875,-1.60764l-0.03518,-0.01237l-1.36542,-3.89472l-0.69052,-3.12423l-0.32164,-2.91397l-0.61764,-2.44575c0,0 -0.64719,-2.58875 1.94156,-3.23594c2.58875,-0.64719 3.23594,1.94156 3.23594,1.94156l0.69283,2.79613l0.33359,2.98315l0.61995,2.77289l-0.05495,1.34717l1.38127,-0.04665l-0.35132,1.40529c1.00408,0.38315 1.71732,1.35525 1.71732,2.49394z" fill="#000000" stroke="none" stroke-width="0.5" stroke-linecap="butt"/></g></g></svg>