<svg version="1.1" xmlns="http://www.w3.org/2000/svg" xmlns:xlink="http://www.w3.org/1999/xlink" width="61.02139" height="71" viewBox="0,0,61.02139,71"><g transform="translate(-209.5,-144.5)"><g data-paper-data="{&quot;isPaintingLayer&quot;:true}" fill-rule="nonzero" stroke-linejoin="miter" stroke-miterlimit="10" stroke-dasharray="" stroke-dashoffset="0" style="mix-blend-mode: normal"><path d="M268.06098,146.5l1.43902,68h-59v-69" fill="none" stroke="#005fff" stroke-width="2" stroke-linecap="round"/><path d="" fill="#000000" stroke="none" stroke-width="0.5" stroke-linecap="butt"/><path d="" fill="#000000" stroke="none" stroke-width="0.5" stroke-linecap="butt"/><path d="M220.27747,196.6148c0,-0.22872 0.03071,-0.45026 0.08824,-0.66073l0.57099,-2.28398v-2.57606l-0.11626,-0.5813l0.01184,-0.24872l-0.06039,-0.24157v-6.92197l0.06039,-0.24157l-0.01184,-0.24872l0.32962,-1.64809l0.0261,-0.05509v-0.06096l0.16481,-0.65924l0.12956,-0.24293l0.05973,-0.26876l0.32962,-0.65924l0.83853,-0.97828l0.09857,-0.00548l0.04898,-0.08571l0.94569,-0.23642l0.33778,-0.11259l0.40069,-0.03082l0.38988,-0.09747h0.65924l0.29857,0.07464h0.30776l0.65924,0.16481l0.08649,0.04613l0.09774,0.00752l0.98885,0.32962l0.20051,0.12759l0.13566,-0.00936l0.35084,0.31895l0.40002,0.25456l0.02667,0.13334l0.17586,0.15987l0.07788,0.11682l0.269,0.1614l0.82404,0.82404l0.07243,0.12071l0.11198,0.08532l0.57274,0.71592l0.39652,0.39652l0.12811,0.21352l0.18425,0.1675l0.32962,0.49443l0.05313,0.14877l0.10281,0.11994l0.32962,0.65924l0.18634,0.83853l0.09317,0.13975l-0.03106,0.13975l0.03106,0.13975l-0.09317,0.13975l-0.18634,0.83853l-0.32962,0.65924l-0.26154,0.30513l-0.20676,0.34461l-0.31938,0.31938l-0.43558,0.65338l-0.0952,0.19041l-0.13284,0.15498l-0.00692,0.12453l-0.37626,0.32251l-0.32251,0.37626l-0.12453,0.00692l-0.15498,0.13284l-0.65924,0.32962l-0.17566,0.03903l-0.15181,0.09661l-0.49443,0.16481l-0.15751,0.01212l-0.14277,0.06763l-0.82404,0.16481l-0.24872,-0.01184l-0.24157,0.06039h-0.31687l-0.72176,0.16039l0.0291,0.1455l-0.01184,0.24872l0.06039,0.24157v3.13137l-0.07464,0.29857v0.30776l-0.64655,2.58621c-0.09642,0.42488 -0.30105,0.80865 -0.58339,1.12082l-0.03563,0.0668l-0.03731,0.01049c-0.45347,0.46066 -1.08423,0.74628 -1.7817,0.74628c-1.13479,0 -2.09299,-0.75608 -2.39832,-1.79196l-0.02703,-0.02591v-0.07335c-0.04876,-0.19487 -0.07464,-0.3988 -0.07464,-0.60878zM227.48651,184.38505l-0.06886,-0.05247l-0.57274,-0.71592l-0.40585,-0.40585l-0.00887,0.00061l-0.47854,-0.43504l-0.05585,-0.04787l-0.1239,0.61951v1.81893l0.46656,-0.11664h0.06966l0.07009,-0.01558l0.02336,0.01558h0.24857l0.42868,-0.08574l0.02744,-0.00915z" fill="#000000" stroke="none" stroke-width="0.5" stroke-linecap="butt"/><path d="M233.95661,198.4277c0,-1.38071 1.11929,-2.5 2.5,-2.5c1.38071,0 2.5,1.11929 2.5,2.5c0,1.38071 -1.11929,2.5 -2.5,2.5c-1.38071,0 -2.5,-1.11929 -2.5,-2.5z" fill="#000000" stroke="none" stroke-width="0.5" stroke-linecap="butt"/></g></g></svg>