<svg version="1.1" xmlns="http://www.w3.org/2000/svg" xmlns:xlink="http://www.w3.org/1999/xlink" width="61.02139" height="71" viewBox="0,0,61.02139,71"><g transform="translate(-209.5,-144.5)"><g data-paper-data="{&quot;isPaintingLayer&quot;:true}" fill-rule="nonzero" stroke-linejoin="miter" stroke-miterlimit="10" stroke-dasharray="" stroke-dashoffset="0" style="mix-blend-mode: normal"><path d="M268.06098,146.5l1.43902,68h-59v-69" fill="none" stroke="#005fff" stroke-width="2" stroke-linecap="round"/><path d="" fill="#000000" stroke="none" stroke-width="0.5" stroke-linecap="butt"/><path d="" fill="#000000" stroke="none" stroke-width="0.5" stroke-linecap="butt"/><path d="" fill="#000000" stroke="none" stroke-width="0.5" stroke-linecap="butt"/><path d="" fill="#000000" stroke="none" stroke-width="0.5" stroke-linecap="butt"/><path d="" fill="#000000" stroke="none" stroke-width="0.5" stroke-linecap="butt"/><path d="M225.27562,191.00007c0.36388,0.01742 2.44607,0.21678 2.44607,2.49833c0,2.5 -2.5,2.5 -2.5,2.5l-0.84119,-0.07464c-3.152,-0.82497 -7.53409,-2.26469 -8.61158,-5.97772c-0.73298,-2.52585 2.32459,-9.73916 4.61716,-10.9157c1.22098,-0.62661 2.73903,0.17713 4.10855,0.2657c0,0 2.45967,0.44721 2.01246,2.90689c-0.44721,2.45967 -2.90689,2.01246 -2.90689,2.01246c-0.35274,-0.22457 -0.70134,-0.89163 -1.05823,-0.67372c-0.42961,0.2623 -0.08954,1.01611 -0.27131,1.48549c-0.47521,1.2271 -2.10633,2.32143 -1.68744,3.56887c0.47552,1.41609 3.35148,2.09728 4.6924,2.40404z" fill="#000000" stroke="none" stroke-width="0.5" stroke-linecap="butt"/><path d="M243.5403,198.07583c-2.5,0 -2.5,-2.5 -2.5,-2.5l0.00504,-0.26152c-1.57837,0.64754 -3.39727,0.86069 -4.921,0.62025c-4.62361,-0.72959 -8.13579,-5.72263 -4.02973,-9.80999c0.6047,-0.60195 1.50155,-0.69615 2.39906,-0.78918c0.98536,-1.42294 2.79158,-0.82087 2.79158,-0.82087l0.57179,0.19465c1.16566,0.33287 2.71977,0.65208 4.04964,1.28623c0.05154,-1.16651 0.07304,-2.34921 0.07304,-3.5714c0,0 0,-2.5 2.5,-2.5c2.5,0 2.5,2.5 2.5,2.5c0,4.12539 -0.24092,7.88952 -0.97974,11.95506l0.04033,1.19676c0,0 0,2.5 -2.5,2.5zM237.51954,189.74902c-0.43345,0.23253 -0.81251,0.30145 -0.81251,0.30145c-3.66172,-0.13656 0.88071,0.93367 1.93088,0.76967c0.41066,-0.06413 1.55382,-0.2159 1.18108,-0.39979c-0.71708,-0.35378 -1.50941,-0.51091 -2.29946,-0.67133z" fill="#000000" stroke="none" stroke-width="0.5" stroke-linecap="butt"/><path d="M262.64947,197.9838c-2.37171,0.79057 -3.16228,-1.58114 -3.16228,-1.58114l-0.50991,-1.5419c-0.1018,-0.38075 -0.26123,-0.75518 -0.39422,-1.1325c-0.93066,0.89088 -1.98778,1.71667 -3.21202,1.79612c-1.0254,0.06655 -1.45237,-1.45467 -2.2048,-2.15448c-0.37444,-0.34826 0.1402,1.01594 0.14442,1.52729c0.0065,0.78627 0.00673,1.57259 0.0101,2.35888c0,0 0,2.5 -2.5,2.5c-2.5,0 -2.5,-2.5 -2.5,-2.5c0.01492,-4.1479 -0.19276,-8.74312 5.79102,-8.79595c0.86331,-0.00762 0.77531,1.69769 1.55287,2.07289c0.36871,0.17791 -0.05578,-0.93191 0.2518,-1.20208c1.18381,-1.03982 2.44831,-2.83154 3.99437,-2.52762c2.55415,0.50208 3.34109,4.76066 3.89029,6.74186l0.42951,1.27635c0,0 0.79057,2.37171 -1.58114,3.16228z" fill="#000000" stroke="none" stroke-width="0.5" stroke-linecap="butt"/></g></g></svg>