<svg version="1.1" xmlns="http://www.w3.org/2000/svg" xmlns:xlink="http://www.w3.org/1999/xlink" width="102.79548" height="119.46822" viewBox="0,0,102.79548,119.46822"><g transform="translate(-188.60226,-120.26589)"><g data-paper-data="{&quot;isPaintingLayer&quot;:true}" fill-rule="nonzero" stroke="none" stroke-width="0.5" stroke-linecap="butt" stroke-linejoin="miter" stroke-miterlimit="10" stroke-dasharray="" stroke-dashoffset="0" style="mix-blend-mode: normal"><path d="" fill="#000000"/><path d="" fill="#000000"/><path d="" fill="#000000"/><path d="" fill="#000000"/><path d="" fill="#000000"/><path d="" fill="#000000"/><path d="" fill="#000000"/><path d="" fill="#000000"/><path d="" fill="#000000"/><path d="" fill="#000000"/><path d="" fill="#000000"/><path d="" fill="#000000"/><path d="" fill="#000000"/><path d="" fill="#000000"/><path d="" fill="#000000"/><path d="M285.70381,120.42723c2.37171,-0.79057 3.16228,1.58114 3.16228,1.58114l0.79493,2.3848c1.54272,4.63908 1.71816,8.64789 1.71816,13.50952c0,8.74395 0.04176,17.48899 0,26.23283c-0.01308,2.73849 -1.27112,5.68373 -0.82722,8.34382c0.94387,5.6561 0.82722,11.27002 0.82722,17.09408c0,6.27513 -0.04616,11.70754 -1.6086,17.79401c0.02012,3.08744 0.37356,6.47926 0,9.53921c-0.37827,3.0985 -1.15235,5.77521 -0.78837,8.98741c0.15213,1.34254 0.68384,2.62812 0.79493,3.97467c0.17875,2.16649 0.61887,8.0265 -2.16473,9.63682c-1.19734,0.69266 -2.73903,-0.38966 -4.10547,-0.60472c-1.45991,-0.22978 -2.90101,-0.59987 -4.37318,-0.72973c-6.46273,-0.57008 -13.77497,-1.57895 -19.88361,-4.17987c-3.42487,-1.45823 -6.12862,-2.88765 -9.87123,-3.82186c-5.67448,-1.13385 -11.32732,-2.34275 -16.8707,-4.02231c-1.37393,-0.41628 -2.61855,-1.31138 -4.04406,-1.48133c-0.70364,-0.08388 -1.28333,0.65912 -1.98435,0.76265c-1.77244,0.26176 -3.58541,0.30792 -5.32333,0.74346c-7.24111,1.81473 -16.09496,3.08474 -23.45285,1.61169c-2.56017,-0.51255 -5.94576,-2.25903 -7.24759,-4.49977c-0.33573,-0.57786 -0.26393,-6.85224 -0.26393,-7.81165c0,-5.45316 0,-10.90632 0,-16.35947c0.01675,-2.27006 0.49555,-4.51417 0.82722,-6.75993c1.27695,-8.64649 -0.82722,-17.74642 -0.82722,-26.39692c0,-5.12353 0.52142,-10.72399 0.01873,-15.82362c-0.59315,-6.0173 -1.6086,-11.65362 -1.6086,-17.79401c0,0 0,-2.5 2.5,-2.5c2.5,0 2.5,2.5 2.5,2.5c0,5.93067 1.01314,11.36411 1.57114,17.1831c0.75328,7.85547 -1.00208,16.03228 0,23.84803c0.81143,6.32879 1.67389,13.34851 0.78138,19.78434c-0.27508,1.98356 -0.78074,3.95656 -0.76265,5.95902c0,5.45316 0,10.90632 0,16.35947c0,1.17129 0.05538,2.3439 0,3.51388c-0.03276,0.69207 -0.59747,1.45443 -0.26393,2.0617c0.39589,0.7208 1.3623,0.93306 2.10394,1.28839c3.57691,1.71377 7.27935,0.8338 10.99308,0.56133c5.96441,-0.43759 11.80886,-1.59392 17.65371,-2.40447c0.95932,-0.13304 1.82193,-0.92717 2.78526,-0.82722c1.88867,0.19597 3.61489,1.16683 5.44277,1.68095c5.4926,1.54489 10.97639,2.82499 16.56892,3.9445c8.6035,2.1539 16.3377,6.83313 25.28988,7.92072c1.98139,0.24072 7.15705,-0.94938 9.01442,0.79771c-0.06603,-1.21114 0.14301,-2.43907 0.02131,-3.64819c-0.13531,-1.34434 -0.64845,-2.63151 -0.79493,-3.97467c-0.38852,-3.56258 0.36064,-6.65253 0.8015,-10.09101c0.38861,-3.031 -0.01642,-6.48376 0,-9.53921c1.74771,-7.14949 1.57114,-13.79135 1.57114,-21.15777c0,-3.10207 0.4877,-6.84996 0.03228,-9.93369c-0.12242,-0.82894 -0.6911,-1.55333 -0.79493,-2.3848c-0.26498,-2.12182 0.48253,-4.2501 0.79493,-6.36545c0.42283,-2.86309 -0.03228,-6.24115 -0.03228,-9.13876c0,-6.62445 0,-13.24891 0,-19.87336c0,-4.33364 -0.08325,-7.80387 -1.46158,-11.92838l-0.79493,-2.3848c0,0 -0.79057,-2.37171 1.58114,-3.16228z" fill="#9966ff"/><path d="M245.27299,210.24171c0,2.5 -2.5,2.5 -2.5,2.5h-2.3848c-5.06423,0 -9.625,-0.18405 -14.30882,-1.11216v0.31723h-3.17974c0,0 0,0 0,0c-1.38071,0 -2.5,-1.11929 -2.5,-2.5c0,-0.40772 0.0976,-0.79265 0.27072,-1.13269c-0.64019,-1.10335 -0.00679,-2.37015 -0.00679,-2.37015l0.60565,-1.07817c0.74513,-2.98053 1.94749,-6.19199 2.32889,-9.23833c0.45384,-3.62495 -0.36518,-7.42844 -0.00656,-11.06997c0.70632,-7.17233 1.49572,-14.34417 0.03638,-21.52153c0,0 -0.49029,-2.45145 1.96116,-2.94174c2.45145,-0.49029 2.94174,1.96116 2.94174,1.96116c1.51418,7.68392 0.81699,15.31305 0.03638,22.9948c-0.37434,3.6838 0.45262,7.50986 -0.00656,11.18819c-0.14534,1.16424 -0.39793,2.34957 -0.69881,3.5377c3.97981,-5.38075 8.42292,-10.42103 13.1434,-15.15014c0,0 1.76777,-1.76777 3.53553,0c1.76777,1.76777 0,3.53553 0,3.53553c-5.85367,5.84231 -10.96259,12.21298 -15.72469,18.93551c0.81666,0.17326 1.63575,0.39825 2.45285,0.48043c3.02213,0.30393 6.08799,0.16433 9.11928,0.16433h2.3848c0,0 2.5,0 2.5,2.5z" fill="#9966ff"/></g></g></svg>