<svg version="1.1" xmlns="http://www.w3.org/2000/svg" xmlns:xlink="http://www.w3.org/1999/xlink" width="61.02139" height="71" viewBox="0,0,61.02139,71"><g transform="translate(-57.5,-262.8125)"><g data-paper-data="{&quot;isPaintingLayer&quot;:true}" fill-rule="nonzero" stroke-linejoin="miter" stroke-miterlimit="10" stroke-dasharray="" stroke-dashoffset="0" style="mix-blend-mode: normal"><path d="M58.5,263.8125v69h59l-1.43902,-68" fill="none" stroke="#005fff" stroke-width="2" stroke-linecap="round"/><path d="M87.5,306.3125c-2.5,0 -2.5,-2.5 -2.5,-2.5l0.03228,-2.59954c-0.21964,-0.69538 -0.34241,-1.42915 -0.65891,-2.08613c-1.77924,-3.69324 -5.68059,4.08786 -6.62703,4.17351c-1.79372,0.16232 -3.19679,-1.80955 -4.37297,-3.17351c-0.503,-0.58329 0.14513,-1.68409 -0.33515,-2.28622c-0.25353,-0.31785 -0.7315,0.42374 -1.13777,0.43961c-0.40495,0.01582 -1.14869,-0.75463 -1.16439,-0.34968c-0.02033,0.52463 0.88981,0.62749 1.13564,1.0914c0.73081,1.3791 1.26018,2.95239 2.39606,4.0228c0,0 1.76777,1.76777 0,3.53553c-1.76777,1.76777 -3.53553,0 -3.53553,0c-1.61247,-1.67712 -3.03933,-3.7202 -3.60394,-5.9772c-0.40319,-1.61171 -1.6618,-3.45112 -0.86436,-4.9086c1.24727,-2.27964 7.63846,-3.22052 9.69784,-1.91007c0.93111,0.59249 1.20337,1.81523 1.47243,2.95318c0.90589,-3.09328 4.92902,-4.3811 8.0225,-3.23478c3.23171,1.19755 3.59095,4.22412 4.51101,6.90924l0.03228,3.40046c0,0 0,2.5 -2.5,2.5z" fill="#000000" stroke="none" stroke-width="0.5" stroke-linecap="butt"/><path d="M92,304.8125c0,-1.38071 1.11929,-2.5 2.5,-2.5c1.38071,0 2.5,1.11929 2.5,2.5c0,1.38071 -1.11929,2.5 -2.5,2.5c-1.38071,0 -2.5,-1.11929 -2.5,-2.5z" fill="#000000" stroke="none" stroke-width="0.5" stroke-linecap="butt"/></g></g></svg>