<svg version="1.1" xmlns="http://www.w3.org/2000/svg" xmlns:xlink="http://www.w3.org/1999/xlink" width="69.04088" height="112.25633" viewBox="0,0,69.04088,112.25633"><g transform="translate(-205.17912,-122.50691)"><g data-paper-data="{&quot;isPaintingLayer&quot;:true}" fill-rule="nonzero" stroke-miterlimit="10" stroke-dasharray="" stroke-dashoffset="0" style="mix-blend-mode: normal"><path d="M242.04,224.56c0.11282,-0.82447 0.26971,-1.64231 0.47,-2.45c0.2,-1.11 0.44,-2.19 0.68,-3.19c1.15,-4.63 2.19,-7.35 2.56,-9.53h0.15c1.75156,1.74925 4.16929,2.66318 6.64,2.51c2.82551,0.00725 5.4616,-1.42001 7,-3.79h0.24c-0.38045,3.69733 -0.97141,7.36996 -1.77,11c-0.7,3.13 -1.41,6.36 -3.08,9.13c-0.17,0.28 -0.37,0.57 -0.59,0.86c-0.22,0.29 -0.58,0.93 -0.91,1.37c-0.33638,0.44259 -0.70044,0.86342 -1.09,1.26c-0.7077,0.77738 -1.5603,1.40919 -2.51,1.86c-1.26384,0.5394 -2.67157,0.64145 -4,0.29c-1.00414,-0.25344 -1.90107,-0.82103 -2.56,-1.62c-0.53224,-0.69833 -0.90746,-1.50333 -1.1,-2.36c-0.37835,-1.75603 -0.42245,-3.56763 -0.13,-5.34z" fill="#dc8547" stroke="none" stroke-width="1" stroke-linecap="butt" stroke-linejoin="miter"/><path d="M242.55,222.83c0.2,-1 0.45,-1.92 0.7,-2.79c0.84278,-2.83299 1.51071,-5.71509 2,-8.63v-0.25l0.8,-4.86c1.47,1.2 14.1,-2.34 14.1,-2.34l-0.28,3.23c-0.34515,4.36765 -0.96303,8.70945 -1.85,13c-0.13,0.48 -0.61,2.8 -0.74,3.28c-2.78,1.89 -7.87,2.61 -15.06,0.71c0.13,-0.45 0.21,-0.92 0.33,-1.35z" fill="#b02024" stroke="none" stroke-width="1" stroke-linecap="butt" stroke-linejoin="miter"/><path d="M260.15,204.67c-0.31,3.16 -0.73,6.3 -1.22,9.44c-0.45051,3.2714 -1.18665,6.49705 -2.2,9.64c-1.51,4.46 -4.54,11.72 -10.56,9.88c-0.95413,-0.27817 -1.79921,-0.84389 -2.42,-1.62c-0.52397,-0.7082 -0.89204,-1.51933 -1.08,-2.38c-0.36966,-1.77417 -0.41034,-3.60114 -0.12,-5.39c0.11044,-0.82744 0.26399,-1.64856 0.46,-2.46c0.19,-1.12 0.43,-2.2 0.67,-3.21c1.17,-4.86 2,-9.89 2.36,-12.13" fill="none" stroke="#371f0f" stroke-width="1.681" stroke-linecap="round" stroke-linejoin="round"/><path d="M273.48,197.29c-0.27443,1.26265 -1.02703,2.37004 -2.1,3.09c-0.36765,0.2381 -0.76871,0.4201 -1.19,0.54c-0.83828,0.25099 -1.73172,0.25099 -2.57,0c-1.30991,-0.44293 -2.38945,-1.38933 -3,-2.63l-0.08,-0.15c-0.33869,-0.6763 -0.62293,-1.37852 -0.85,-2.1c-0.17,-0.54 -0.64,-1.78 -1.3,-3.41c-0.53,-8.02 -7.16,-16.22 -9.74,-19.11c-0.38886,-0.51533 -0.82037,-0.99703 -1.29,-1.44l-0.31,-0.35c2.5541,-1.08879 4.89654,-2.61881 6.92,-4.52c3.49215,3.34367 6.703,6.96926 9.6,10.84c4.04,5.82 7.47,13 5.91,19.24z" fill="#dc8547" stroke="none" stroke-width="1" stroke-linecap="butt" stroke-linejoin="miter"/><path d="M267.61,178.16c-0.02,0.06 -0.1,0.13 -0.1,0.19c-0.46092,0.97474 -1.17599,1.80725 -2.07,2.41c-0.27,0.21 -0.53,0.42 -0.78,0.59c-0.25856,0.17559 -0.52925,0.33265 -0.81,0.47l-0.22,0.1c-1.38204,0.58516 -2.83416,0.98853 -4.32,1.2l-4.94,-7.46c-0.83,-1 -1.89,-2.18 -3.59,-3.93l-0.49,-0.59l3.58,-2.83l2.46,-1.93l1.64,1l0.14,0.35c0.1575,-0.05005 0.32972,-0.00308 0.44,0.12c3.35784,3.1244 6.3931,6.57843 9.06,10.31z" fill="#e6e7e8" stroke="none" stroke-width="1" stroke-linecap="butt" stroke-linejoin="miter"/><path d="M256.59,166.84c2.41695,1.77018 4.63044,3.80257 6.6,6.06c3.33044,3.76188 6.07155,8.00673 8.13,12.59c1.05747,2.14203 1.77281,4.43652 2.12,6.8c0.29,2.77 0.12,6.55 -2.37,8.33c-2.79,1.99 -6.06,0.42 -7.24,-2.58c-0.99,-2.48 -1.09,-5.17 -1.71,-7.73c-1.80768,-6.81669 -5.39722,-13.02937 -10.4,-18" fill="none" stroke="#371f0f" stroke-width="1.56" stroke-linecap="round" stroke-linejoin="round"/><path d="M262.97,198.68v0.22c-0.18667,0.9 -0.40334,1.78 -0.65,2.64c-0.07,0.23 -0.14,0.39 -0.23,0.69c-0.09,0.3 -0.19,0.59 -0.29,0.88c-0.3,0.89334 -0.63333,1.76666 -1,2.62c-0.08,0.19 -0.15,0.39 -0.24,0.58c-0.45333,1.00666 -0.95,1.98 -1.49,2.92c-0.12,0.21 -0.25,0.41 -0.37,0.61c-0.25,0.41 -0.48,0.83 -0.75,1.23c-0.13,0.2 -0.29,0.36 -0.43,0.56c-0.49,0.7 -1.01,1.36 -1.55,2c-0.2,0.25 -0.38,0.53 -0.59,0.77c-0.13,0.14 -0.28,0.27 -0.41,0.41l-0.58,0.57c-0.58667,0.59333 -1.19333,1.15 -1.82,1.67c-0.11,0.1 -0.21,0.22 -0.33,0.31c-3.73567,3.11014 -8.42941,4.83718 -13.29,4.89c-1.43241,0.00027 -2.86067,-0.15395 -4.26,-0.46c-3.30197,-0.76149 -6.38255,-2.27782 -9,-4.43c-0.19,-0.16 -0.37,-0.32 -0.55,-0.48l-0.58,-0.5l-0.25,-0.22c-0.12,-0.11 -0.22,-0.25 -0.34,-0.36c-0.53333,-0.51334 -1.06667,-1.05667 -1.6,-1.63l-0.55,-0.63c-0.57,-0.69 -1.12,-1.41 -1.64,-2.16l-0.15,-0.2c-0.57,-0.83 -1.08,-1.7 -1.57,-2.6c-0.13,-0.25 -0.25,-0.5 -0.38,-0.75c-0.35333,-0.69333 -0.68667,-1.40667 -1,-2.14c-0.12,-0.28 -0.25,-0.55 -0.36,-0.84c-0.36,-0.94 -0.7,-1.89 -1,-2.89v-0.14c-0.31,-1.04 -0.56,-2.11 -0.78,-3.19c-0.06,-0.31 -0.11,-0.62 -0.17,-0.93c-0.14667,-0.82 -0.26667,-1.65333 -0.36,-2.5c-0.04,-0.34 -0.11,-0.67 -0.11,-1c-0.1,-1.14 -0.17,-2.3 -0.17,-3.47c0,-1.21 0.08,-2.43 0.22,-3.64c0.03,-0.3 0.1,-0.61 0.1,-0.91c0.12627,-1.11022 0.29976,-2.21455 0.52,-3.31v-0.23c0.18667,-0.89334 0.40333,-1.77 0.65,-2.63c0.07,-0.23 0.14,-0.39 0.23,-0.69c0.09,-0.3 0.19,-0.59 0.29,-0.88c0.3,-0.89334 0.63333,-1.76667 1,-2.62c0.08,-0.2 0.15,-0.4 0.24,-0.59c0.46,-1 0.95667,-1.97333 1.49,-2.92c0.12,-0.21 0.25,-0.41 0.37,-0.61c0.25,-0.41 0.49,-0.83 0.75,-1.23c0.13,-0.2 0.29,-0.36 0.43,-0.56c0.49,-0.7 1.01,-1.36 1.55,-2c0.2,-0.25 0.38,-0.53 0.59,-0.77c0.13,-0.14 0.28,-0.27 0.41,-0.41l0.56,-0.56c0.58667,-0.59333 1.19333,-1.15 1.82,-1.67c0.11,-0.1 0.21,-0.22 0.33,-0.31c3.73567,-3.11014 8.42941,-4.83718 13.29,-4.89c1.48367,-0.00149 2.96285,0.16286 4.41,0.49c3.30197,0.76149 6.38255,2.27782 9,4.43c0.19,0.15 0.37,0.32 0.55,0.48l0.57,0.5l0.25,0.22c0.12,0.11 0.22,0.25 0.34,0.36c0.52667,0.50666 1.03666,1.04 1.53,1.6l0.55,0.63c0.57,0.69 1.12,1.41 1.64,2.16l0.15,0.2c0.57,0.83 1.08,1.7 1.57,2.6c0.13,0.25 0.25,0.5 0.38,0.75c0.35334,0.69333 0.68667,1.40667 1,2.14c0.12,0.28 0.25,0.55 0.36,0.84c0.36,0.94 0.7,1.89 1,2.89v0.14c0.3138,1.02994 0.57744,2.07451 0.79,3.13c0.06,0.31 0.11,0.62 0.17,0.93c0.14666,0.82 0.26666,1.65333 0.36,2.5c0.04,0.34 0.11,0.67 0.11,1c0.1,1.14 0.17,2.3 0.17,3.47c0,1.25 -0.08,2.47 -0.19,3.68c-0.03,0.3 -0.1,0.61 -0.1,0.91c-0.13,1.13 -0.3,2.24 -0.61,3.33z" fill="#e6e7e8" stroke="none" stroke-width="1" stroke-linecap="butt" stroke-linejoin="miter"/><path d="M263.68,194.43c-0.2126,2.40257 -0.65121,4.77975 -1.31,7.1c-0.96657,3.38763 -2.45074,6.60559 -4.4,9.54c-0.77312,1.16941 -1.62863,2.28224 -2.56,3.33c-4.42,4.84 -10.13,7.84 -16.42,7.84c-1.43241,0.00036 -2.86068,-0.15387 -4.26,-0.46c-10.83,-2.37 -19.24,-13.59 -20.44,-27.59c15.85419,6.25281 33.4758,6.33844 49.39,0.24z" fill="#b02024" stroke="none" stroke-width="1" stroke-linecap="butt" stroke-linejoin="miter"/><path d="M263.8,190.77c0,1.24 -0.08,2.46 -0.19,3.66c-0.03,0.32 -0.1,0.63 -0.1,0.93c-0.06,0.49 -0.16,0.98 -0.23,1.49c-0.07,0.51 -0.14,1.02 -0.23,1.51v0.32v0.22c-0.18667,0.9 -0.40334,1.78 -0.65,2.64c-0.1,0.33 -0.22,0.66 -0.33,1l-0.18,0.55c-0.3,0.89334 -0.63333,1.76667 -1,2.62c-0.08,0.2 -0.15,0.4 -0.24,0.59c-0.50059,1.10654 -1.06143,2.18482 -1.68,3.23l-0.27,0.3c-0.25,0.41 -0.48,0.83 -0.75,1.23c-0.13,0.2 -0.29,0.36 -0.43,0.56c-0.49,0.7 -1.01,1.36 -1.55,2c-0.2,0.25 -0.46,0.62 -0.59,0.77c-0.13,0.15 -0.28,0.28 -0.41,0.42l-0.51,0.6c-0.58,0.59333 -1.18333,1.15 -1.81,1.67c-0.12,0.1 -0.22,0.22 -0.34,0.31l-1.25,0.91l-0.45,0.31c-0.39,0.26 -0.78,0.51 -1.18,0.75l-0.59,0.32c-0.46,0.25 -0.94,0.49 -1.39,0.71c-0.45,0.22 -0.96,0.43 -1.45,0.61c-0.29,0.1 -0.47,0.15 -0.86,0.28c-0.39,0.13 -0.78,0.25 -1.17,0.35l-0.82,0.19c-0.45,0.1 -0.9,0.17 -1.36,0.24l-0.69,0.1c-0.70068,0.07767 -1.40503,0.11773 -2.11,0.12c-1.43197,-0.00769 -2.8594,-0.16183 -4.26,-0.46c-0.76862,-0.17253 -1.52656,-0.38956 -2.27,-0.65l-0.49,-0.19c-0.61334,-0.22666 -1.21334,-0.48 -1.8,-0.76l-0.35,-0.18c-0.68546,-0.34238 -1.353,-0.71954 -2,-1.13c-0.73695,-0.4678 -1.44799,-0.97521 -2.13,-1.52c-0.06514,-0.03965 -0.12554,-0.08662 -0.18,-0.14l-0.38,-0.33l-0.59,-0.51l-0.25,-0.22l-0.21,-0.21c-0.74483,-0.70998 -1.44927,-1.46115 -2.11,-2.25l-0.08,-0.21l-0.14,-0.19c-0.44,-0.53333 -0.86334,-1.09 -1.27,-1.67c-0.07,-0.1 -0.16,-0.19 -0.23,-0.3l-0.15,-0.2c-0.08,-0.12 -0.15,-0.26 -0.23,-0.38c-0.44,-0.66 -0.85334,-1.34334 -1.24,-2.05l-0.23,-0.17l-0.28,-0.55l-0.1,-0.19l-0.09,-0.19c-0.3,-0.61 -0.6,-1.23 -0.87,-1.86v-0.09c-0.12,-0.28 -0.25,-0.55 -0.36,-0.84c-0.04,-0.1 -0.11,-0.2 -0.11,-0.3c-0.22,-0.59 -0.43,-1.19 -0.63,-1.8c-0.09,-0.27 -0.2,-0.52 -0.28,-0.79v-0.14c-0.07,-0.25 -0.12,-0.51 -0.19,-0.77c-0.19,-0.71 -0.37,-1.42 -0.52,-2.14c-0.07,-0.1 -0.07,-0.19 -0.07,-0.28c-0.06,-0.31 -0.11,-0.62 -0.17,-0.93v-0.26c-0.38824,-2.21247 -0.58895,-4.45376 -0.6,-6.7c0,-1.21 0.08,-2.43 0.22,-3.64c0.03,-0.3 0.1,-0.61 0.1,-0.91c0.12627,-1.11022 0.29976,-2.21455 0.52,-3.31v-0.23c0.18667,-0.89334 0.40333,-1.77 0.65,-2.63c0.07,-0.23 0.14,-0.39 0.23,-0.69c0.09,-0.3 0.19,-0.59 0.29,-0.88c0.3,-0.89334 0.63333,-1.76667 1,-2.62c0.08,-0.2 0.15,-0.4 0.24,-0.59c0.46,-1 0.95667,-1.97 1.49,-2.91c0.12,-0.21 0.25,-0.41 0.37,-0.61c0.25,-0.41 0.49,-0.83 0.75,-1.23c0.13,-0.2 0.29,-0.36 0.43,-0.56c0.49,-0.7 1.01,-1.36 1.55,-2c0.2,-0.25 0.46,-0.62 0.59,-0.77c0.13,-0.15 0.28,-0.28 0.41,-0.42l0.53,-0.56c0.58667,-0.59333 1.19333,-1.15 1.82,-1.67c0.11,-0.1 0.21,-0.22 0.33,-0.31c3.749,-3.10728 8.45102,-4.83348 13.32,-4.89c1.47029,0.00147 2.9359,0.16581 4.37,0.49c3.30197,0.76149 6.38255,2.27782 9,4.43c0.20684,0.14708 0.40392,0.30741 0.59,0.48l0.57,0.5l0.25,0.22c0.12,0.11 0.22,0.25 0.34,0.36c0.52667,0.50666 1.03666,1.04 1.53,1.6l0.55,0.63c0.57,0.69 1.12,1.41 1.64,2.16l0.15,0.2c0.57,0.83 1.08,1.7 1.57,2.6c0.13,0.25 0.25,0.5 0.38,0.75c0.35334,0.69333 0.68667,1.40667 1,2.14c0.12,0.28 0.25,0.55 0.36,0.84c0.36,0.94 0.7,1.89 1,2.89v0.14c0.31,1 0.57,2.06 0.79,3.14c0.06,0.31 0.11,0.62 0.17,0.93c0.14666,0.82 0.26666,1.65333 0.36,2.5c0.04,0.34 0.11,0.67 0.11,1c0.09,1.14 0.1,2.23 0.1,3.47z" fill="none" stroke="#371f0f" stroke-width="1.659" stroke-linecap="butt" stroke-linejoin="miter"/><path d="M253.5,169.64c0.84015,1.03138 1.58644,2.13577 2.23,3.3c1.42962,2.49784 2.48105,5.1938 3.12,8c0.17987,0.75212 0.32006,1.51317 0.42,2.28c0.15,0.75 0.15,1.51 0.22,2.23c0.03643,0.69619 0.03643,1.39381 0,2.09c0.00136,0.62197 -0.03872,1.24336 -0.12,1.86c-0.0693,0.91824 -0.20296,1.83048 -0.4,2.73l-0.2,1l0.11,-1c0.1216,-0.9115 0.17842,-1.83047 0.17,-2.75c0.04097,-0.60931 0.04097,-1.22069 0,-1.83c-0.03525,-0.66986 -0.10535,-1.33743 -0.21,-2c-0.13,-0.7 -0.2,-1.42 -0.4,-2.14c-0.162,-0.72673 -0.36228,-1.4444 -0.6,-2.15c-0.83885,-2.59903 -2.05881,-5.05917 -3.62,-7.3c-0.67326,-1.00384 -1.43641,-1.94438 -2.28,-2.81z" fill="#ffffff" stroke="none" stroke-width="1" stroke-linecap="butt" stroke-linejoin="miter"/><path d="M235.45,229.63c-0.19254,0.85666 -0.56776,1.66167 -1.1,2.36c-0.65746,0.80267 -1.55455,1.37386 -2.56,1.63c-1.32732,0.35461 -2.73503,0.25607 -4,-0.28c-0.95243,-0.44674 -1.80844,-1.07516 -2.52,-1.85c-0.37959,-0.4007 -0.73363,-0.82488 -1.06,-1.27c-0.32,-0.44 -0.69,-1.08 -0.91,-1.37c-0.22,-0.29 -0.42,-0.58 -0.59,-0.86c-1.67,-2.77 -2.38,-6 -3.09,-9.13c-0.80195,-3.62985 -1.39624,-7.30248 -1.78,-11h0.24c1.54074,2.36618 4.17641,3.78944 7,3.78c2.47222,0.15057 4.89018,-0.76709 6.64,-2.52h0.16c0.37,2.17 1.41,4.9 2.57,9.52c0.25,1 0.49,2.08 0.69,3.19c0.20029,0.80769 0.35718,1.62553 0.47,2.45c0.28386,1.77751 0.22957,3.59263 -0.16,5.35z" fill="#dc8547" stroke="none" stroke-width="1" stroke-linecap="butt" stroke-linejoin="miter"/><path d="M235.43,223.95c-7.18,1.91 -12.28,1.2 -15.06,-0.69c-0.13,-0.48 -0.61,-2.8 -0.74,-3.28c-0.89705,-4.28991 -1.52495,-8.63172 -1.88,-13l-0.32,-3.25c0,0 12.64,3.48 14.15,2.31l0.8,4.86v0.25c0.4897,2.91154 1.15761,5.79029 2,8.62c0.26,0.87 0.5,1.79 0.71,2.79c0.12,0.43 0.2,0.87 0.34,1.39z" fill="#b02024" stroke="none" stroke-width="1" stroke-linecap="butt" stroke-linejoin="miter"/><path d="M231.57,206.18c0.32,2.24 1.2,7.28 2.38,12.13c0.24,1.01 0.48,2.09 0.67,3.21c0.19601,0.81144 0.34956,1.63256 0.46,2.46c0.29363,1.78825 0.25635,3.61522 -0.11,5.39c-0.1876,0.85287 -0.55212,1.65687 -1.07,2.36c-0.6167,0.77812 -1.45822,1.34729 -2.41,1.63c-6.02,1.85 -9.06,-5.4 -10.58,-9.86c-1.01678,-3.14263 -1.75628,-6.36829 -2.21,-9.64c-0.5,-3.13 -0.93,-6.27 -1.24,-9.43" fill="none" stroke="#371f0f" stroke-width="1.681" stroke-linecap="round" stroke-linejoin="round"/><path d="M230.79,171.11l-0.33,0.35c-4.85,3.91 -9.37,12.28 -9.37,12.28c-1.45,1.62 -1.6,2.39 -1.17,2.72c-1.53,3.8 -1.64,6.3 -2.45,8.8c-0.23028,0.72157 -0.52479,1.42104 -0.88,2.09l-0.08,0.15c-0.69542,1.27159 -1.88038,2.20367 -3.28,2.58c-0.94359,0.25108 -1.93641,0.25108 -2.88,0c-0.4762,-0.12539 -0.93357,-0.31372 -1.36,-0.56c-1.19315,-0.68926 -2.07702,-1.8093 -2.47,-3.13c-1.92,-6.37 1.67,-13.51 6,-19.27c3.13957,-3.86087 6.60934,-7.44106 10.37,-10.7c2.36541,1.97599 5.03267,3.55947 7.9,4.69z" fill="#dc8547" stroke="none" stroke-width="1" stroke-linecap="butt" stroke-linejoin="miter"/><path d="M231.14,171.06c-2.40251,2.14428 -4.59265,4.51526 -6.54,7.08c-0.98589,1.12714 -1.88512,2.32723 -2.69,3.59c-0.94,1 -3.38,0.3 -6.05,-1.27c-0.29,-0.17 -0.59,-0.32 -0.89,-0.54c-0.99267,-0.56416 -1.81751,-1.3821 -2.39,-2.37c-0.03,0 -0.08,0.06 -0.08,0c2.8864,-3.70611 6.16179,-7.09212 9.77,-10.1c0.23,-0.2 0.38,0.28 0.48,0.28h0.15l0.13,-0.6c0.05,0.01 0.05,-0.64 0.05,-0.64h0.05l0.15,0.12l1.23,0.91l0.88,0.59l0.37,0.25l0.58,0.37c0.63,0.39 1.15,0.7 1.72,0.99c0.77,0.37 1.54,0.71 2.39,1.09c0,0 0.38,0.16 0.69,0.25z" fill="#e6e7e8" stroke="none" stroke-width="1" stroke-linecap="butt" stroke-linejoin="miter"/><path d="M228.49,173.58c-1.55754,1.4693 -2.99855,3.05741 -4.31,4.75c-2.64366,3.51551 -4.55784,7.52406 -5.63,11.79c-0.85,3.58 -0.9,8.75 -5.29,9.94c-0.94359,0.25108 -1.93641,0.25108 -2.88,0c-0.4762,-0.12539 -0.93357,-0.31372 -1.36,-0.56c-1.19315,-0.68926 -2.07702,-1.8093 -2.47,-3.13c-1.92,-6.37 1.67,-13.51 6,-19.27c3.13639,-3.86045 6.6028,-7.44062 10.36,-10.7" fill="none" stroke="#371f0f" stroke-width="1.681" stroke-linecap="round" stroke-linejoin="round"/><path d="M225.11,133.65l-0.26,-2.54v-0.5l0.11,-0.98" fill="#e2a355" stroke="none" stroke-width="1" stroke-linecap="butt" stroke-linejoin="miter"/><path d="M261.97,149.61c0.02406,2.88496 -0.48446,5.74959 -1.5,8.45c-0.44604,1.37669 -1.04653,2.69844 -1.79,3.94c-0.062,0.12657 -0.13565,0.24709 -0.22,0.36c-0.37142,0.65428 -0.78217,1.28544 -1.23,1.89c-0.33134,0.4827 -0.72095,0.92269 -1.16,1.31l-0.1,0.07c-0.18077,0.15825 -0.37113,0.3052 -0.57,0.44c-0.17,0.12 -0.35,0.21 -0.53,0.31c-0.19839,0.09241 -0.40629,0.16282 -0.62,0.21l-1.1,0.2c-3.69372,1.24442 -7.53161,2.01065 -11.42,2.28c-6.17619,0.41378 -12.37249,-0.41942 -18.22,-2.45c-0.12245,-0.04979 -0.23699,-0.11717 -0.34,-0.2c-13.75,-16.91 -5.6,-26.45 -3,-28.82c-0.03285,-0.01943 -0.06309,-0.04295 -0.09,-0.07l-0.11,-0.07l-0.24,-0.14c-0.36977,-0.26835 -0.70557,-0.58064 -1,-0.93c-0.30899,-0.36956 -0.57099,-0.77599 -0.78,-1.21c-1.21,-2.59 -0.44,-5.58 1.79,-6.68c2.23,-1.1 5.08,0.11 6.32,2.65c0.11032,0.27064 0.20384,0.54783 0.28,0.83c-0.13,-0.45 5.96,-2.17 6.47,-2.28c3.28376,-0.74182 6.68099,-0.83354 10,-0.27c1.68,0.25 3.53,0.16 4.68,0.59c-0.40487,-0.46302 -0.61298,-1.06582 -0.58,-1.68c0,-2.8 1.71,-5.06 3.82,-5.06c2.11,0 3.82,2.27 3.82,5.06c0.00726,1.05106 -0.26172,2.08559 -0.78,3c-0.04289,0.13404 -0.0964,0.26445 -0.16,0.39c5.34281,4.39247 8.41522,10.96361 8.36,17.88z" fill="#e2a355" stroke="none" stroke-width="1" stroke-linecap="butt" stroke-linejoin="miter"/><path d="M253.83,124.17c0,0 -5.09,1.62 -5.19,6.56l-1.42,-0.55l-0.25,-0.06c0,-0.72 0.25,-9.58 6.86,-5.95z" fill="#bd782a" stroke="none" stroke-width="1" stroke-linecap="butt" stroke-linejoin="miter"/><path d="M253.33,132.4c5.07,4.11 8.64,9.89 8.64,17.21c0.00932,2.89145 -0.51618,5.75967 -1.55,8.46c-0.74746,2.21598 -1.83733,4.30124 -3.23,6.18c-0.65589,0.98659 -1.57828,1.76682 -2.66,2.25M253.45,132.65c-8.32404,-4.84323 -18.54982,-5.08104 -27.09,-0.63" fill="none" stroke="#371f0f" stroke-width="1.681" stroke-linecap="round" stroke-linejoin="round"/><path d="M227.4,167.17h-0.24c-1.02,-0.13 -2.09,-0.28 -3.09,-0.44l-0.37,-0.17h-0.45l-0.16,-0.21l-0.12,-0.15c-2.90793,-3.40466 -5.16236,-7.31688 -6.65,-11.54c-0.6987,-2.48714 -1.0024,-5.06861 -0.9,-7.65c0.01,-0.24 0.09,-0.48 0.09,-0.71c0.03333,-0.22666 0.07334,-0.45334 0.12,-0.68c0.09333,-0.46 0.20667,-0.91334 0.34,-1.36c0.17334,-0.42 0.33333,-0.82333 0.48,-1.21c0.14667,-0.38666 0.31333,-0.76334 0.5,-1.13c0.18,-0.36667 0.36334,-0.7 0.55,-1c0.18667,-0.3 0.38,-0.59666 0.58,-0.89c0.20666,-0.28666 0.4,-0.54334 0.58,-0.77c0.18,-0.22666 0.36667,-0.44666 0.56,-0.66l0.51,-0.54l0.23,-0.23l0.11,-0.1v-0.09c0.07,-0.07 0,-0.07 0,-0.07l-0.1,-0.08l-0.22,-0.13c-0.36977,-0.26835 -0.70557,-0.58064 -1,-0.93c-0.30899,-0.36956 -0.57099,-0.77599 -0.78,-1.21c-1.21,-2.59 -0.45,-5.58 1.79,-6.68c1.09508,-0.5174 2.36047,-0.53563 3.47,-0.05c0.1,0.09 0.48,0.24 0.48,0.24c0,0 -3.05,-0.29 -3.68,2.52c-0.67,3.03 2.25,6.31 2.25,6.31c0,0 -6.68,16.08 5.11,29.59z" fill="#bd782a" stroke="none" stroke-width="1" stroke-linecap="butt" stroke-linejoin="miter"/><path d="M241.74,143.24c0.36,2.75 -1,5.2 -3,5.47c-2,0.27 -4,-1.74 -4.34,-4.49c-0.34,-2.75 1,-5.2 3,-5.47c2,-0.27 3.98,1.74 4.34,4.49z" fill="#c57a2a" stroke="none" stroke-width="1" stroke-linecap="butt" stroke-linejoin="miter"/><path d="M242.04,143.14c0.36,2.75 -1,5.2 -3,5.47c-2,0.27 -4,-1.74 -4.34,-4.49c-0.34,-2.75 1,-5.2 3,-5.47c2,-0.27 3.98,1.74 4.34,4.49z" fill="#371f0f" stroke="none" stroke-width="1" stroke-linecap="butt" stroke-linejoin="miter"/><path d="M256.78,143.02c-1.58056,-0.01018 -3.15926,0.11023 -4.72,0.36c-0.80139,-0.90646 -1.30417,-2.03773 -1.44,-3.24c-0.35,-2.64 0.91,-5 2.82,-5.24c1.91,-0.24 3.72,1.69 4.07,4.33c0.19977,1.30969 -0.05804,2.64822 -0.73,3.79z" fill="#c57a2a" stroke="none" stroke-width="1" stroke-linecap="butt" stroke-linejoin="miter"/><path d="M257.05,143.02c-1.58056,-0.01018 -3.15927,0.11023 -4.72,0.36c-0.80139,-0.90646 -1.30417,-2.03773 -1.44,-3.24c-0.35,-2.64 0.91,-5 2.82,-5.24c1.91,-0.24 3.72,1.69 4.07,4.33c0.19977,1.30969 -0.05804,2.64822 -0.73,3.79z" fill="#371f0f" stroke="none" stroke-width="1" stroke-linecap="butt" stroke-linejoin="miter"/><path d="M238.18559,143.20135c-0.3058,-1.76308 0.16092,-3.31629 1.04246,-3.46919c0.88154,-0.1529 1.84407,1.1524 2.14987,2.91548c0.3058,1.76308 -0.16092,3.31629 -1.04246,3.46919c-0.88154,0.1529 -1.84407,-1.1524 -2.14988,-2.91548z" fill="#ffffff" stroke="none" stroke-width="1" stroke-linecap="butt" stroke-linejoin="miter"/><path d="M254.34159,138.89038c-0.28621,-1.57023 0.11163,-2.95796 0.8886,-3.09958c0.77697,-0.14162 1.63884,1.0165 1.92505,2.58673c0.28621,1.57023 -0.11163,2.95796 -0.8886,3.09958c-0.77696,0.14162 -1.63884,-1.0165 -1.92505,-2.58673z" fill="#ffffff" stroke="none" stroke-width="1" stroke-linecap="butt" stroke-linejoin="miter"/><path d="M251.97,123.88c0,0 5.33,1.2 1,7.93c-0.05,0 1.67,-5.15 -1,-7.93z" fill="#efbc72" stroke="none" stroke-width="1" stroke-linecap="butt" stroke-linejoin="miter"/><g stroke="none" stroke-width="1" stroke-linecap="butt" stroke-linejoin="miter" opacity="0.75"><path d="M238.97,136.04l-5.5,14.78c-1.38083,-0.45746 -2.59753,-1.30915 -3.5,-2.45l4.48,-11.94h0.33z" fill="#ffffff"/><path d="M252.65,134.8l-4.28,11.47c-0.42708,-0.70119 -0.76311,-1.45391 -1,-2.24l-0.13,-0.46c-0.39,-1.6 -1.23,-2.24 -2.51,-2.13c-1.28,0.11 -1.99,0.96 -2.12,2.53l-0.29,1.76c-0.41107,2.72117 -2.50342,4.8818 -5.21,5.38l-0.54,0.07h-0.94c-0.724,-0.01296 -1.44196,-0.13431 -2.13,-0.36l5.47,-14.78l2.39,-0.17l1.5,-0.14zM234.41,136.47l-4.44,11.9c-0.9188,-1.16691 -1.47199,-2.57948 -1.59,-4.06v-0.2c-0.33146,-3.74201 2.31338,-7.09301 6.03,-7.64zM255.15,149.53c-0.22,0.09 -0.44,0.09 -0.66,0.09c-0.27316,0.01402 -0.54685,0.01402 -0.82,0c-0.68562,-0.04776 -1.35999,-0.1995 -2,-0.45l5.17,-13.87c2.52335,1.08997 4.24153,3.48082 4.47,6.22c0.32817,3.86157 -2.34361,7.33575 -6.16,8.01z" fill="#69dcff"/><path d="M256.84,135.3l-5.17,13.86c-1.40211,-0.56865 -2.57411,-1.58931 -3.33,-2.9l4.32,-11.47l0.64,-0.06c1.20899,-0.10599 2.42538,0.08987 3.54,0.57z" fill="#ffffff"/></g><path d="M264.44,139.16l0.35,4.16c0.05262,0.61055 -0.391,1.15177 -1,1.22l-1.12,0.1c-0.35426,1.26641 -0.97474,2.44261 -1.82,3.45c-1.56324,1.87759 -3.81515,3.04857 -6.25,3.25h-0.18c-0.47442,0.01254 -0.94911,-0.01085 -1.42,-0.07c-0.68499,-0.08774 -1.35664,-0.25901 -2,-0.51c-0.84619,-0.32918 -1.63059,-0.79914 -2.32,-1.39c-0.41222,-0.35403 -0.79052,-0.74572 -1.13,-1.17c-0.86737,-1.10211 -1.51263,-2.36206 -1.9,-3.71l-0.13,-0.42v-0.08c-0.03806,-0.2837 -0.15598,-0.55075 -0.34,-0.77c-0.10768,-0.03196 -0.22232,-0.03196 -0.33,0c-0.11195,-0.00468 -0.22189,0.03078 -0.31,0.1c-0.14448,0.2491 -0.22039,0.53203 -0.22,0.82v0.14l-0.29,1.76c-0.59642,3.67389 -3.59512,6.48363 -7.3,6.84h-0.31c-1.19821,0.08778 -2.40186,-0.06522 -3.54,-0.45c-1.12489,-0.38178 -2.16436,-0.97965 -3.06,-1.76c-0.17334,-0.15333 -0.34333,-0.31333 -0.51,-0.48c-0.80269,-0.81408 -1.44698,-1.77033 -1.9,-2.82l-1.17,0.1c-0.60682,0.04692 -1.14179,-0.3952 -1.21,-1l-0.35,-4.16c-0.05262,-0.61055 0.391,-1.15177 1,-1.22l1.29,-0.11c0.34759,-1.17849 0.93675,-2.27169 1.73,-3.21c1.48595,-1.79581 3.62835,-2.92282 5.95,-3.13h0.51l4,-0.37l2.9,-0.27l0.91,-0.08l10.1,-0.9h0.2c2.13992,-0.16362 4.26785,0.44284 6,1.71c0.17334,0.09333 0.35667,0.22 0.55,0.38c0.19333,0.16 0.37667,0.32666 0.55,0.5c0.76821,0.76344 1.39462,1.65734 1.85,2.64l1.09,-0.09c0.57665,-0.00383 1.06367,0.42717 1.13,1zM261.2566,143.02029c0.3727,-3.27604 -1.44075,-6.41049 -4.4666,-7.72029c-1.11461,-0.48013 -2.33101,-0.67599 -3.54,-0.57l-0.67,0.05l-9.76,0.9l-1.5,0.14l-2.35,0.22l-4.21,0.44h-0.33c-3.72869,0.5327 -6.39005,3.88794 -6.06,7.64v0.2c0.12282,1.47812 0.67943,2.88704 1.6,4.05c0.9228,1.12142 2.15324,1.94867 3.54,2.38c0.68804,0.2257 1.406,0.34705 2.13,0.36h0.94l0.54,-0.07c2.68137,-0.49312 4.7631,-2.6189 5.2,-5.31l0.25,-1.71c0.12,-1.53 0.85,-2.42 2.12,-2.53c1.27,-0.11 2.12,0.54 2.51,2.13l0.13,0.42c0.23689,0.78609 0.57292,1.53881 1,2.24c1.09684,1.95921 3.11827,3.2226 5.36,3.35c0.27316,0.01402 0.54684,0.01402 0.82,0c0.23,-0.02 0.44,-0.09 0.66,-0.09c3.24274,-0.59665 5.71391,-3.24367 6.0866,-6.51971z" fill="#020b3f" stroke="none" stroke-width="1" stroke-linecap="butt" stroke-linejoin="miter"/><path d="M261.56,158.99c-1.51,1.55 -6.69,6.18 -13.78,5.55h-0.34c-0.29,-0.04 -0.55,-0.1 -0.82,-0.15l-0.65,-0.12l-0.61,-0.13c-0.23,-0.06 -0.46,-0.1 -0.69,-0.17l-0.53,-0.15l-0.28,-0.08c-0.38412,-0.13788 -0.75279,-0.31551 -1.1,-0.53c-0.27131,-0.1465 -0.53498,-0.30671 -0.79,-0.48c-2.34889,-1.37769 -3.82267,-3.86799 -3.9,-6.59c-0.92,-6.17 6.15,-10.09 11.15,-12.09c1.36683,-0.63119 2.79871,-1.11073 4.27,-1.43l0.46,-0.12v0.06c5.16,-0.94 9.8,0.47 11.62,4c1.91,3.71 0.14,8.65 -4.01,12.43z" fill="#f3cca5" stroke="none" stroke-width="1" stroke-linecap="butt" stroke-linejoin="miter"/><path d="M260.27,150.43c1.76,3.55 4,3.65 4,3.65h0.39l-3.65,5.46c-9.51,2.65 -13.37,-1.35 -13.37,-1.35c7.8,0.05 12.66,-7.79 12.63,-7.76z" fill="#61371a" stroke="none" stroke-width="1" stroke-linecap="butt" stroke-linejoin="miter"/><path d="M249.34,144.45c6.7,-1.25 10.39,-1.2 10.7,-1.1c0.31,0.1 0.08,0.3 0.08,0.3c-0.56131,0.06519 -1.11644,0.17555 -1.66,0.33c-0.59533,0.27309 -1.1242,0.67231 -1.55,1.17c-0.16958,0.16694 -0.37469,0.29343 -0.6,0.37l-4.49,0.92c0,0 -3.18,0.84 -2.74,0c0.25029,-0.56346 0.25029,-1.20655 0,-1.77c0.03501,-0.11864 0.1372,-0.20511 0.26,-0.22z" fill="#f6e1cb" stroke="none" stroke-width="1" stroke-linecap="butt" stroke-linejoin="miter"/><path d="M267.23,150.78c-1.71976,7.1909 -7.31747,12.81563 -14.5,14.57c-7.43,1.3 -11.36,-1.71 -13.43,-4.83c-1.11821,-1.58168 -1.86042,-3.39786 -2.17,-5.31v-0.12c-0.07292,-0.74932 -0.05614,-1.50466 0.05,-2.25l1.3,-0.31c-1.09507,3.82862 0.49561,7.91778 3.89,10c0.90014,0.57314 1.86741,1.03327 2.88,1.37c4.44024,1.3182 9.24262,0.44976 12.94,-2.34c0.62,-0.53 1.12,-1.03 1.62,-1.53c1.69624,-1.62578 3.16609,-3.47234 4.37,-5.49c3.7,-6.52 -0.36,-9.91 -2.21,-10.91l-0.19,-0.08c-1.11164,-0.40908 -2.30025,-0.56619 -3.48,-0.46c-1.55557,0.03167 -3.10809,0.15186 -4.65,0.36c-1.83857,0.16879 -3.64908,0.56515 -5.39,1.18c-1.61241,0.61415 -3.1655,1.37396 -4.64,2.27c-0.34,0.21 -0.67,0.43 -1,0.66l-0.16,-0.37c0.75,-0.6 1.53,-1.13 2.33,-1.66c0.82967,-0.55648 1.69114,-1.06401 2.58,-1.52c0.39,-0.2 0.78,-0.4 1.19,-0.57c0.9754,-0.34443 1.9793,-0.6021 3,-0.77c1.02,-0.21 2.08,-0.39 3.08,-0.53c1.25618,-0.17168 2.52217,-0.26187 3.79,-0.27c0.75536,-0.00597 1.51031,0.03746 2.26,0.13c0.25,0.03 0.5,0.08 0.75,0.13c7.2,1.6 5.79,8.65 5.79,8.65z" fill="#371f0f" stroke="none" stroke-width="1" stroke-linecap="butt" stroke-linejoin="miter"/><path d="M236.72,152.85h-0.31c-0.33308,0.01854 -0.66692,0.01854 -1,0l0.16,-1.71h0.99l0.54,-0.07c2.14317,-0.39642 3.94117,-1.84837 4.78,-3.86l2.16,-1.27v0.11c-0.61477,3.66483 -3.61988,6.45646 -7.32,6.8z" fill="#020b3f" stroke="none" stroke-width="1" stroke-linecap="butt" stroke-linejoin="miter"/><path d="M246.19,129.38c0,0 0.25,-7.16 5.9,-5.85c5.65,1.31 1.65,8.44 1.65,8.44" fill="none" stroke="#371f0f" stroke-width="1.726" stroke-linecap="round" stroke-linejoin="round"/><path d="M226.38,132.06c-0.55702,-1.42757 -1.55556,-2.63985 -2.85,-3.46c-1.08419,-0.55645 -2.36005,-0.60045 -3.48,-0.12c-1.20273,0.52634 -2.09559,1.57785 -2.42,2.85c-0.65138,2.42655 0.37483,4.99207 2.52,6.3M223.27,166.6l-0.31,-0.39c-3.38,-4.2 -6.44,-9 -7.2,-14.46c-0.7,-5.07 0.45,-10.49 4.3,-14.07" fill="none" stroke="#371f0f" stroke-width="1.681" stroke-linecap="round" stroke-linejoin="round"/><path d="M225.52,144.17l-8.93,3.09" fill="none" stroke="#020b3f" stroke-width="2.241" stroke-linecap="round" stroke-linejoin="round"/><path d="M254.62,166.48c-10.12543,3.64631 -21.19923,3.68517 -31.35,0.11" fill="none" stroke="#371f0f" stroke-width="1.681" stroke-linecap="round" stroke-linejoin="round"/><path d="M258.16,159.56c-1.08941,0.3284 -2.22221,0.49023 -3.36,0.48c-2.24338,0.02355 -4.44787,-0.5865 -6.36,-1.76c0,0 3.65,0.19 7.51,-3.19c0.39677,-0.26767 0.86156,-0.41683 1.34,-0.43c1.4486,0.01101 2.61555,1.19137 2.61,2.64c-0.00637,0.66688 -0.27172,1.30516 -0.74,1.78c-0.29574,0.22876 -0.63654,0.39234 -1,0.48z" fill="#ed1c24" stroke="none" stroke-width="1" stroke-linecap="butt" stroke-linejoin="miter"/><path d="M258.13,159.55c-1.08941,0.3284 -2.22221,0.49023 -3.36,0.48c-2.24338,0.02355 -4.44787,-0.5865 -6.36,-1.76c0.15384,0.04545 0.31098,0.07887 0.47,0.1c0.45334,0.1 0.90667,0.18667 1.36,0.26c0.65,0.11 1.29,0.19 1.94,0.25c0.73117,0.06916 1.46573,0.09588 2.2,0.08c0.72325,-0.01072 1.44358,-0.09448 2.15,-0.25c0.34105,-0.0722 0.67552,-0.17255 1,-0.3l0.43,-0.2c0.1166,-0.07566 0.24057,-0.13931 0.37,-0.19h0.15c0.17945,0.0093 0.3512,0.07588 0.49,0.19c0.22201,0.22684 0.29913,0.55847 0.2,0.86c-0.30753,0.2339 -0.66249,0.39773 -1.04,0.48z" fill="#b71327" stroke="none" stroke-width="1" stroke-linecap="butt" stroke-linejoin="miter"/><path d="M257.8,155.45c1.41,0.41 1.41,2.41 1.41,2.41" fill="none" stroke="#f74854" stroke-width="0.548" stroke-linecap="round" stroke-linejoin="round"/><path d="M264.9,154.17c-3.45,-0.31 -4.61,-3.75 -4.61,-3.75c-0.6,0.78 -1.23,1.54 -1.89,2.26c-2.34,2.54 -5.28,4.84 -8.77,5.4c-2.46404,0.44102 -5.00044,-0.16409 -7,-1.67" fill="none" stroke="#371f0f" stroke-width="0.996" stroke-linecap="round" stroke-linejoin="round"/><path d="M263.3,147.34c0,0 -0.85,2.6 -2.29,3c-0.1504,0.03719 -0.30512,0.054 -0.46,0.05c-1.06882,-0.16707 -2.0641,-0.64731 -2.86,-1.38c0,0 -3.34,-3 -0.95,-4.39c0.65215,-0.3658 1.3626,-0.61615 2.1,-0.74c1.04136,-0.19055 2.10865,-0.19055 3.15,0c2.23,0.6 1.31,3.46 1.31,3.46z" fill="#683113" stroke="none" stroke-width="1" stroke-linecap="butt" stroke-linejoin="miter"/><path d="M260.55,150.37c-1.06882,-0.16707 -2.0641,-0.64731 -2.86,-1.38c0,0 -3.34,-3 -0.95,-4.39c0.65215,-0.3658 1.3626,-0.61615 2.1,-0.74c-0.91618,0.78665 -1.22982,2.06934 -0.78,3.19c0.54618,1.29354 1.40113,2.43347 2.49,3.32z" fill="#371f0f" stroke="none" stroke-width="1" stroke-linecap="butt" stroke-linejoin="miter"/><path d="M263.07,146.73c-0.01407,0.16103 -0.09359,0.30924 -0.22,0.41c-0.1154,-0.11433 -0.20121,-0.25505 -0.25,-0.41c-0.17888,-0.61692 -0.48552,-1.1893 -0.9,-1.68c-0.46,-0.52 -2.7,-0.68 -2,-1c1.01277,-0.31224 2.11192,-0.15836 3,0.42c0.87,0.62 0.37,2.26 0.37,2.26z" fill="#995728" stroke="none" stroke-width="1" stroke-linecap="butt" stroke-linejoin="miter"/></g></g></svg>