<svg version="1.1" xmlns="http://www.w3.org/2000/svg" xmlns:xlink="http://www.w3.org/1999/xlink" width="479.97773" height="360" viewBox="0,0,479.97773,360"><g transform="translate(-1.5182,-8.45953)"><g data-paper-data="{&quot;isPaintingLayer&quot;:true}" fill-rule="nonzero" stroke-linejoin="miter" stroke-miterlimit="10" stroke-dasharray="" stroke-dashoffset="0" style="mix-blend-mode: normal"><path d="M1.5182,8.45953h479.97773v360h-479.97773z" fill="#ffffff" stroke="none" stroke-width="1" stroke-linecap="butt"/><path d="M265.03055,170.55731c-4.13811,2.30952 -8.14415,4.57547 -12.05989,6.8745c-0.52836,-2.11087 -1.72761,-3.95581 -3.35802,-5.29509l-3.54297,-2.95248c-0.85073,-1.48931 -1.8002,-2.91561 -3.01663,-4.46551c2.30757,-4.74127 4.47826,-9.53957 6.42991,-14.39619c1.83587,2.0698 3.68576,4.13632 5.60946,6.16028c4.11638,4.33091 8.42,8.43466 12.79548,12.46112c-1.36873,0.77381 -2.37742,1.34551 -2.85735,1.61336z" fill="#ffffff" stroke="none" stroke-width="1" stroke-linecap="butt"/><path d="M275.30581,139.49632c9.78893,2.55394 19.73443,4.42489 29.20401,8.10213c1.58439,0.61525 3.22373,1.31481 4.8542,2.07911c-3.82781,1.29193 -7.69064,2.49129 -11.48995,3.85857c-0.9204,-0.25065 -1.8379,-0.50907 -2.75235,-0.77223c-1.17671,-0.92937 -2.41358,-1.80186 -3.70469,-2.61983c-2.32235,-1.3911 -4.64135,-2.78778 -6.95781,-4.18867l-5.39048,-1.27197c0,0 -1.14243,-0.22849 -2.7254,-0.13954c-3.82823,-2.38924 -7.49624,-5.01836 -11.01243,-7.83859c5.5991,1.56757 9.9104,2.7742 9.97489,2.79102z" fill="#ffffff" stroke="none" stroke-width="1" stroke-linecap="butt"/><path d="M314.50078,197.78364c-1.52879,-3.56491 -5.07016,-6.06203 -9.19477,-6.06203c-1.67957,0 -3.26243,0.41407 -4.65207,1.1457l-1.18789,0.59395c0.62375,-1.73662 1.25691,-3.5397 1.91055,-5.43119c0.00064,-0.00185 0.00128,-0.0037 0.00192,-0.00556c1.12807,-0.60831 2.09562,-1.29034 2.91786,-2.03375c1.12921,0.23627 2.3645,0.50064 3.75141,0.81381c8.84679,1.99766 11.84882,3.07175 18.14327,3.83817c-3.91816,2.34915 -7.81375,4.73102 -11.69028,7.14091z" fill="#ffffff" stroke="none" stroke-width="1" stroke-linecap="butt"/><path d="M257.64151,279.20002c2.00432,-1.88395 3.96081,-3.82334 5.91176,-5.76911c12.83754,-6.8942 25.41372,-14.24604 37.67919,-22.12136c-9.38647,6.6015 -18.93897,12.95096 -28.41082,19.26651c-6.23005,4.15401 -12.53907,8.19874 -18.9239,12.12366c1.25002,-1.16436 2.49906,-2.32975 3.74376,-3.49969z" fill="#ffffff" stroke="none" stroke-width="1" stroke-linecap="butt"/><path d="M233.77223,135.13134c0.01319,-0.15516 0.02615,-0.31033 0.03887,-0.46552c0.03111,0.0269 0.06222,0.05381 0.09332,0.08072c-0.04388,0.12831 -0.08794,0.25658 -0.13219,0.3848z" fill="#ff003e" stroke="none" stroke-width="1" stroke-linecap="butt"/><path d="M267.4768,208.56858c2.56903,-2.69112 5.13148,-5.3938 7.73937,-8.04982c-1.10534,2.54047 -2.31031,5.11931 -3.73335,7.96147c-2.95655,1.71745 -5.89516,3.46561 -8.81645,5.24256c1.58654,-1.73618 3.18891,-3.45563 4.81043,-5.15421z" fill="#ffffff" stroke="none" stroke-width="1" stroke-linecap="butt"/><path d="M197.72645,254.88791c0.73453,0.26641 2.58952,0.2932 4.9921,0.16281c-0.05329,0.13819 -0.10678,0.27629 -0.16049,0.41431c-0.35627,0.27535 -0.71232,0.55097 -1.06815,0.82685c-1.63531,1.26788 -3.25167,2.52597 -4.8506,3.78173c0.34875,-1.73863 0.67374,-3.48131 0.97363,-5.22749c0.03784,0.01414 0.07568,0.02808 0.11351,0.0418z" fill="#ffffff" stroke="none" stroke-width="1" stroke-linecap="butt"/><path d="M203.26989,302.80528c1.00273,-0.45307 2.00455,-0.90822 3.00558,-1.36531c-2.1339,2.34472 -4.21438,4.7354 -6.22256,7.18688c1.11267,-1.92502 2.18246,-3.86539 3.21699,-5.82157z" fill="#ffffff" stroke="none" stroke-width="1" stroke-linecap="butt"/><path d="M345.43224,215.15404c2.13512,-2.66663 4.65786,-5.13907 6.97425,-7.72686c0.54385,-0.37034 1.08861,-0.73894 1.63426,-1.10536c-0.46313,0.57968 -0.87498,1.06927 -1.22343,1.4472c-2.70987,2.93909 -5.49878,5.79552 -8.35629,8.57853c0.32724,-0.39576 0.65102,-0.7936 0.97122,-1.1935z" fill="#ffffff" stroke="none" stroke-width="1" stroke-linecap="butt"/><path d="M237.03224,212.18152c0.32457,-0.25506 0.64872,-0.50815 0.97252,-0.75934c-1.83962,2.13821 -3.66662,4.28796 -5.48584,6.44291c0.09127,-0.65937 0.17843,-1.31937 0.2614,-1.97997c1.38622,-1.3195 2.80142,-2.56371 4.25193,-3.7036z" fill="#ffffff" stroke="none" stroke-width="1" stroke-linecap="butt"/><path d="M168.1417,206.97225c-0.06459,0.09945 -0.13,0.20012 -0.19617,0.30196c-6.35809,2.00081 -12.72184,3.98304 -19.08978,5.95248c7.59041,-2.72321 12.666,-4.29346 19.28594,-6.25444z" fill="#ffffff" stroke="none" stroke-width="1" stroke-linecap="butt"/><path d="M72,128l0.3,0.3" fill="none" stroke="#ccd8ff" stroke-width="2" stroke-linecap="round"/></g></g></svg>