<svg version="1.1" xmlns="http://www.w3.org/2000/svg" xmlns:xlink="http://www.w3.org/1999/xlink" width="45" height="45" viewBox="0,0,45,45"><g transform="translate(-218,-158)"><g data-paper-data="{&quot;isPaintingLayer&quot;:true}" fill-rule="nonzero" stroke="none" stroke-linecap="butt" stroke-linejoin="miter" stroke-miterlimit="10" stroke-dasharray="" stroke-dashoffset="0" style="mix-blend-mode: normal"><path d="M218,180.5c0,-12.42641 10.07359,-22.5 22.5,-22.5c12.42641,0 22.5,10.07359 22.5,22.5c0,12.42641 -10.07359,22.5 -22.5,22.5c-12.42641,0 -22.5,-10.07359 -22.5,-22.5zM239.9375,190.85156c5.52285,0 10,-4.47715 10,-10c0,-5.52285 -4.47715,-10 -10,-10c-5.52285,0 -10,4.47715 -10,10c0,5.52285 4.47715,10 10,10z" fill="#ff8a8a" stroke-width="1"/><path d="M229.8875,180.85156c0,-5.52285 4.52715,-10.05 10.05,-10.05c5.52285,0 10.05,4.52715 10.05,10.05c0,5.52285 -4.52715,10.05 -10.05,10.05c-5.52285,0 -10.05,-4.52715 -10.05,-10.05z" data-paper-data="{&quot;noHover&quot;:false,&quot;origItem&quot;:[&quot;Path&quot;,{&quot;applyMatrix&quot;:true,&quot;segments&quot;:[[[239.9375,190.85156],[-5.52285,0],[5.52285,0]],[[249.9375,180.85156],[0,5.52285],[0,-5.52285]],[[239.9375,170.85156],[5.52285,0],[-5.52285,0]],[[229.9375,180.85156],[0,-5.52285],[0,5.52285]]],&quot;closed&quot;:true,&quot;fillColor&quot;:[1,1,1]}]}" fill="#ffffff" stroke-width="0.5"/></g></g></svg>