<svg version="1.1" xmlns="http://www.w3.org/2000/svg" xmlns:xlink="http://www.w3.org/1999/xlink" width="40.96434" height="119.82991" viewBox="0,0,40.96434,119.82991"><g transform="translate(-223.56049,-122.5)"><g data-paper-data="{&quot;isPaintingLayer&quot;:true}" fill-rule="nonzero" stroke="none" stroke-linecap="butt" stroke-linejoin="miter" stroke-miterlimit="10" stroke-dasharray="" stroke-dashoffset="0" style="mix-blend-mode: normal"><g stroke-width="1"><path d="M263.3,191.8c0,0 0.9,2.3 0.3,2.9c-0.7,0.7 -3.3,1 -3.9,0.1c-0.6,-1 0.2,-3.7 1.1,-3.7c0.8,-0.1 1.9,-0.3 2.5,0.7z" fill="#ffc19f"/><path d="M262.3,192.1c0,0 -0.7,2.1 -2.6,1.4c0,0 -1,1.5 -1.8,0.9c-0.8,-0.6 0.5,-1 1,-1.5c0.5,-0.5 1.2,-1.9 2.1,-2c0.8,-0.2 1.3,0.8 1.3,1.2zM263.7,193.8c0,0 0,0.5 0.3,1.2c0.2,0.7 0.7,2.7 0,2.2c-0.7,-0.5 -1.2,-2.5 -1.2,-2.5c0,-0.1 0.9,-0.9 0.9,-0.9z" fill="#ffc19f"/><path d="M262.8,194.3c0.1,0.1 0.2,2.1 0.2,2.5c0.1,0.4 0.2,1.8 -0.3,1.7c-0.6,-0.1 -0.5,-1.3 -0.6,-2.1c-0.1,-0.6 -0.5,-1.8 -0.5,-1.8z" fill="#ffc19f"/><path d="M261.7,194.4l0.1,0.7l-0.3,2.1c-0.1,0.8 0.1,1.6 -0.4,1.5c-0.7,-0.1 -0.6,-1.5 -0.6,-2.2c0,-0.7 -0.1,-1.8 -0.1,-1.8c0.1,-0.1 1.3,-0.3 1.3,-0.3z" fill="#ffc19f"/><path d="M259.5,194c0,0 0,1.3 -0.2,1.9c-0.2,0.6 -0.5,1.5 -0.3,1.9c0.3,0.4 0.6,0.2 0.8,-0.4l1,-2.5l-0.1,-0.5zM226.3,179.4c-0.5,0.1 -0.9,0.2 -1.2,0.3l0.1,-4.9c0,-0.3 0,-1.8 0.4,-3.8c0.2,-1.4 0.5,-1.6 0.6,-1.7c1.5,-1.6 5.1,-0.7 5.3,2.8c0.1,1.8 -0.4,4.4 -1.1,7.6c-0.8,-0.2 -1.8,-0.4 -2.9,-0.4c-0.5,0 -0.9,0 -1.2,0.1zM227.9,191.1c0.9,0 1.7,2.7 1.1,3.7c-0.6,0.9 -3.2,0.6 -3.9,-0.1c-0.6,-0.6 0.3,-2.9 0.3,-2.9c0.6,-1 1.7,-0.8 2.5,-0.7z" fill="#ff0000"/><path d="M227.7,190.9c0.9,0.1 1.6,1.5 2.1,2c0.5,0.5 1.8,0.9 1,1.5c-0.8,0.6 -1.8,-0.9 -1.8,-0.9c-1.9,0.7 -2.6,-1.4 -2.6,-1.4c0,-0.4 0.5,-1.4 1.3,-1.2zM225.9,194.7c0,0 -0.5,2 -1.2,2.5c-0.7,0.5 -0.2,-1.5 0,-2.2c0.3,-0.7 0.3,-1.2 0.3,-1.2z" fill="#ffc19f"/><path d="M227.1,194.6c0,0 -0.4,1.2 -0.5,1.8c-0.1,0.8 0,2 -0.6,2.1c-0.5,0.1 -0.4,-1.3 -0.3,-1.7c0,-0.4 0.1,-2.4 0.2,-2.5z" fill="#ffc19f"/><path d="M228.3,194.7c0,0 -0.1,1.1 -0.1,1.8c0,0.7 0.1,2.1 -0.6,2.2c-0.5,0.1 -0.3,-0.7 -0.4,-1.5l-0.3,-2.1l0.1,-0.7c0,0 1.2,0.2 1.3,0.3z" fill="#ffc19f"/><path d="M229.2,194c0,0 0,1.3 0.2,1.9c0.2,0.6 0.5,1.5 0.3,1.9c-0.3,0.4 -0.6,0.2 -0.8,-0.4l-1,-2.5l0.1,-0.5zM225.4,191.7c-0.2,-4.6 -0.6,-7.8 -0.6,-10.9c0,-4 5.3,-5.2 5.6,-0.3c0.2,2.6 -0.4,6.8 -1.5,11.9c-0.2,0.7 -3.4,0.1 -3.5,-0.7z" fill="#ff0000"/></g><path d="M234.3,173.3c-3.1,-0.6 -6,-0.9 -9.7,-2.6c1.5,-4.7 3.6,-11.1 5.2,-12.4c0.8,-0.4 5,-1.8 8.5,-2c-0.1,0.1 -0.2,0.1 -0.3,0.1c-3,4.8 -2.1,10.6 -3.7,16.9z" fill="#ff0000" stroke-width="1"/><g><path d="M257.8,167.1c-0.2,4.6 0.2,7.8 0.2,10.9c0,4 5.6,5.2 5.9,0.3c0.2,-2.6 -0.7,-6.8 -1.8,-11.9c-0.2,-0.8 -4.3,-0.1 -4.3,0.7zM257.2,193.8c0.1,3 0,5.6 -0.2,7.5c-0.3,2.9 -0.7,5.3 -1.1,7.9c-0.3,1.6 -0.5,3 -0.7,4l-7.6,-0.4c0,0 -3.2,-12 -3.6,-19z" fill="#ff0000" stroke-width="1"/><path d="M262.10844,166.35072c1.1,5.1 2.01961,9.39067 1.81961,11.99067c-0.3,4.9 -5.95594,3.70012 -5.95594,-0.29988c0,-3.1 -0.3928,-6.38702 -0.1928,-10.98702c0,-0.8 4.12913,-1.50376 4.32913,-0.70376z" data-paper-data="{&quot;noHover&quot;:false,&quot;origItem&quot;:[&quot;Path&quot;,{&quot;applyMatrix&quot;:true,&quot;segments&quot;:[[[515.6,334.2],[0,-1.6],[-0.4,9.2]],[[516,356],[0,-6.2],[0,8]],[[527.8,356.6],[-0.6,9.8],[0.4,-5.2]],[[524.2,332.8],[2.2,10.2],[-0.4,-1.6]]],&quot;closed&quot;:true,&quot;fillColor&quot;:[0,0,0,1]}]}" fill="#ff0000" stroke-width="0.5"/><path d="M255.3,212.7c-0.1,3.3 -0.4,6.9 -0.8,10.5c-0.4,4.1 -1,8 -1.6,11.6h-6c-0.8,-8.3 -2.4,-18.5 0.6,-22.6zM233.1,201.9c1.1,5.2 0.5,10.9 0.5,10.9l8,0.4c0,0 1,-5.6 1.6,-10.8z" fill="#ffc19f" stroke-width="1"/><path d="M243.23501,202.3643c-0.6,5.2 -1.60895,10.87838 -1.60895,10.87838l-8.0588,-0.40489c0,0 0.59942,-5.77507 -0.50057,-10.97506z" data-paper-data="{&quot;noHover&quot;:false,&quot;origItem&quot;:[&quot;Path&quot;,{&quot;applyMatrix&quot;:true,&quot;segments&quot;:[[[466.2,403.8],[0,0],[2.2,10.4]],[467.2,425.6],[483.2,426.4],[[486.4,404.8],[-1.2,10.4],[0,0]]],&quot;closed&quot;:true,&quot;fillColor&quot;:[0,0,0,1]}]}" fill="#ff0000" stroke-width="0.5"/><path d="M241.6,212.7c-0.1,3.3 -0.4,6.9 -0.8,10.5c-0.4,4.1 -1,8 -1.6,11.6h-6c-0.8,-8.3 -2.4,-18.5 0.6,-22.6z" fill="#ffc19f" stroke-width="1"/></g><path d="M257.2,185.6l1,13.7l0.5,9.9c-2.2,0.6 -9.3,0.4 -9.3,0.4c0,0 -1.5,-0.2 -2,-0.2c-1.2,-0.1 -2,-0.2 -2,-0.2l-0.9,-11.7v0c-1.9,-6.4 -2.7,-10.7 -2.7,-11.4l3.3,0.2h3l1.7,-0.1c-0.1,-0.1 -0.1,0 0,0z" fill="#ff0000" stroke-width="1"/><path d="M244.4,197.6v0c-1.9,-6.4 -2.7,-10.7 -2.7,-11.4l3.3,0.2h0.8l1.7,11.4l-0.3,11.7l-1.8,-0.2z" fill="#ff0000" stroke-width="1"/><g fill="#ff0000" stroke-width="1"><path d="M245.5,186.4l-0.2,13.7l-0.3,9.9c-2.2,0.4 -6.2,-0.1 -9.2,-0.4v0c0,-0.1 -1.5,-0.3 -2,-0.4c-1.1,-0.2 -1.9,-0.4 -1.9,-0.4l0.2,-11.7v0c-1.4,-6.6 0.9,-11 1,-11.6l0.5,0.4l2.9,0.2h1.7z"/><path d="M238.1,186.2c0.2,1.8 1.2,14.4 -2.3,23.3c-0.7,-0.1 -1.4,-0.2 -1.9,-0.3c-1.2,-0.2 -2,-0.4 -2,-0.4l0.2,-11.7v0c-1.4,-6.6 0.9,-11 1,-11.6l0.5,0.4l2.9,0.2z"/></g><path d="M254.7,173.9c-0.6,-4.4 1,-16.1 1.1,-16.4c2.1,0.4 3.1,0.6 3.6,1.4c1.2,1.8 2,4.7 4.9,12.5c-0.6,0.7 -9.2,3.5 -9.6,2.5z" fill="#ff0000" stroke-width="1"/><path d="M259.8,192.4c-1.1,-5.1 -1.7,-9.3 -1.5,-11.9c0.3,-4.9 5.6,-3.7 5.6,0.3c0,3.1 -0.4,6.3 -0.6,10.9c-0.1,0.8 -3.4,1.4 -3.5,0.7z" fill="#ff0000" stroke-width="1"/><path d="M258.3,191c-9.6,4.1 -20.8,4.3 -28.1,-1c0.8,-13.1 2.1,-24.8 7.4,-33.6c8,-1.2 12.1,-0.6 19.4,1.4c0.5,0.2 0.9,0.4 1.2,0.6c-2.5,10.5 0.2,32.6 0.1,32.6z" fill="#ff0000" stroke-width="1"/><path d="M257.3,178.6c-6.7,2 -13.1,2.3 -26,-0.9c0.5,-4.1 1.1,-7.2 2.2,-10c8.7,1.8 16.4,2.4 23.6,1c-0.1,1.4 -0.1,2.9 0,4.4c0.1,1.8 0.1,3.7 0.2,5.5zM244.5,161.9c-3.7,-0.2 -6.6,-2.7 -6.4,-5.5c0.1,-0.2 9.7,-1 13.5,0.1v0.7c-0.2,2.8 -3.3,4.8 -7.1,4.7z" fill="#ff0000" stroke-width="1"/><path d="M250.4,148.5l-0.5,8.2c-0.1,1.8 -2.4,3.1 -5.2,2.9c-2.8,-0.2 -4.9,-1.8 -4.8,-3.5l0.5,-8.2zM258.1,143.9c0,1.8 -1.4,3.3 -2.6,3.4c-1.3,0.1 -1.8,-1.2 -2,-3c-0.2,-1.7 0.7,-3.2 1.9,-3.4c1.7,0 2.7,1.3 2.7,3z" fill="#f4b18c" stroke-width="1"/><path d="M257.8,137c0.2,8.7 -5.2,12.7 -13,13c-7.7,0.3 -14.6,-6 -14.8,-14.6c0.8,-6.6 5.9,-9.2 13.7,-9.5c2.7,-0.1 5.3,0.1 7.4,0.8c1.4,0.5 2.6,0.7 2.2,-1.6c2.6,1.3 2.5,3.1 2,4.2c1.5,1.7 2.5,4.2 2.5,7.7z" fill="#2b1407" stroke-width="1"/><path d="M244.6,129.4c5.8,-0.3 9.5,0.2 11.4,5.2c0.6,1.4 1.1,13.4 -0.4,16.2c-1.2,2.4 -6.6,4.4 -8.2,4.5c-2.3,0.1 -9.4,-1.9 -11.2,-3.9c-1.7,-1.9 -2.8,-14.9 -2.1,-16.6c1.7,-4.2 5.1,-5.3 10.5,-5.4z" fill="#ffc19f" stroke-width="1"/><path d="M246.9,147.4c-0.1,0 -0.2,-0.1 -0.2,-0.1c0.1,-0.5 0.5,-0.9 1.1,-0.9c0.6,0 1,0.3 1.1,0.9c0,0 0,0.1 -0.1,0.1c0,0 -0.1,0 -0.1,-0.1c-0.1,-0.4 -0.4,-0.7 -0.9,-0.7c-0.4,0 -0.7,0.3 -0.8,0.7c0,0.1 0,0.1 -0.1,0.1z" fill="#f4b18c" stroke-width="1"/><path d="M235.4,142.9c-0.3,4.3 -0.7,3.6 -2.1,3.7c-1.4,0.1 -3.3,-5.3 -3.2,-11.7c0.4,-1.3 4,-3.3 4.6,-3.6c0.4,2.5 0.8,9.6 0.7,11.6z" fill="#2b1407" stroke-width="1"/><path d="M254,141.1c1.5,0.8 2,2.9 1.1,4.1c-0.9,1.2 -3.3,1.1 -4.4,0.3c-0.7,-0.5 -0.8,-2 -0.1,-3.3c0.7,-1.3 2.1,-1.9 3.4,-1.1z" fill="#f9feff" stroke-width="1"/><path d="M255.2,145.3c0.3,-0.5 0.4,-1.3 0.3,-2c-0.2,-0.9 -0.8,-1.7 -1.5,-2.1c-1.2,-0.7 -2.7,-0.2 -3.4,1.1c0.7,-1.8 3.4,-2.6 4.6,-0.6c0.9,1.5 0.3,3.3 0,3.6zM252.9,142.1c0.8,0.4 1.2,1.4 0.9,2.3c-0.3,0.9 -1.2,1.3 -2,1c-0.8,-0.4 -1.2,-1.4 -0.9,-2.3c0.3,-0.9 1.2,-1.4 2,-1z" fill="#000000" stroke-width="1"/><path d="M251.6,142.6c0.3,0.1 0.4,0.3 0.3,0.6c-0.1,0.3 -0.4,0.4 -0.6,0.3c-0.3,-0.1 -0.4,-0.3 -0.3,-0.6c0.1,-0.2 0.4,-0.4 0.6,-0.3z" fill="#fefffe" stroke-width="1"/><path d="M244.3,142.4c0.9,1.3 0.8,2.7 0.1,3.3c-1.2,0.9 -4,1.1 -5.1,0c-1,-1.1 -0.6,-3.3 1.1,-4.2c1.4,-0.9 3,-0.4 3.9,0.9z" fill="#f9feff" stroke-width="1"/><path d="M239.1,142.1c1.3,-2.1 4.4,-1.4 5.3,0.3c-0.9,-1.3 -2.6,-1.7 -3.9,-0.9c-0.8,0.5 -1.4,1.3 -1.5,2.2c-0.1,0.7 0.1,1.5 0.5,2c-0.6,-0.3 -1.4,-2 -0.4,-3.6z" fill="#000000" stroke-width="1"/><path d="M240,144c0,-0.99411 0.80589,-1.8 1.8,-1.8c0.99411,0 1.8,0.80589 1.8,1.8c0,0.99411 -0.80588,1.8 -1.8,1.8c-0.99411,0 -1.8,-0.80589 -1.8,-1.8z" fill="#000000" stroke-width="1"/><path d="M240.2,143.4c0,-0.27614 0.22386,-0.5 0.5,-0.5c0.27614,0 0.5,0.22386 0.5,0.5c0,0.27614 -0.22386,0.5 -0.5,0.5c-0.27614,0 -0.5,-0.22386 -0.5,-0.5z" fill="#fefffe" stroke-width="1"/><path d="M255.5,139.2c0.2,-0.2 0.2,-0.5 0,-0.7c-1,-1.1 -2.8,-1.5 -4.4,-1.1c-0.3,0 -0.5,0.3 -0.4,0.6c0,0.3 0.3,0.5 0.6,0.4c1.2,-0.3 2.7,0 3.4,0.8c0.1,0.1 0.2,0.2 0.3,0.2c0.2,0 0.3,0 0.5,-0.2zM239.4,139.6c0.7,-0.8 2.2,-1.1 3.4,-0.8c0.2,0 0.5,-0.1 0.6,-0.4c0,-0.2 -0.1,-0.5 -0.4,-0.6c-1.6,-0.5 -3.4,0 -4.4,1c-0.2,0.2 -0.2,0.5 0,0.7c0.1,0.1 0.3,0.1 0.4,0.1c0.1,0 0.2,-0.1 0.4,0zM252.2,131.6c-1.6,1.2 -4.7,2 -8.7,2.1c-3.2,0.1 -7.5,-1.3 -10.5,-0.6c-0.6,-1.7 0.2,-4.6 4.6,-5.7c6.3,-1.7 8.3,-1.6 10.1,-4.1c0.2,0.7 0.2,1.4 0.1,2l3.4,-2.8c1.7,2.4 1.7,4.3 1,5.8c1,-0.9 1.6,-2 1.3,-3.2c2,2.3 0.5,5.1 -1.3,6.5z" fill="#2b1407" stroke-width="1"/><path d="M233.9,141.1c1.5,0.2 2.5,2 2.3,4c-0.2,2 -0.9,3.6 -2.4,3.5c-1.5,-0.2 -3.1,-1.9 -3.1,-4.1c0,-2.1 1.2,-3.6 3.2,-3.4z" fill="#ffc19f" stroke-width="1"/><path d="M251.3,149.9c0.3,1.3 -1.7,3.3 -3.7,3.3c-1.9,0 -3.3,-1.6 -3.3,-3c0.1,-0.8 1.4,-0.6 3.3,-0.7c1.9,-0.1 3.5,-0.4 3.7,0.4z" fill="#000000" stroke-width="1"/><path d="M249.9,152.4c-0.5,0.6 -1.3,0.8 -2.1,0.8c-0.7,0 -1.4,-0.3 -1.9,-0.6c0.4,-0.4 1.1,-0.7 2,-0.7c0.8,0 1.8,0.1 2,0.5z" fill="#b71521" stroke-width="1"/><path d="M247.7,150.3c-1.2,0.1 -2.1,-0.2 -2.4,-0.8c0.6,-0.1 1.4,0 2.5,-0.1c0.9,-0.1 1.9,-0.3 2.6,-0.1c-0.2,0.7 -1.3,1 -2.7,1z" fill="#ffffff" stroke-width="1"/><path d="M259.9,241.3c-1.8,1.8 -13.2,0.4 -13.2,0.4c-0.1,-1.2 -0.5,-6.3 -0.5,-7.3c-0.1,-0.5 7.2,-1 7.3,-0.7c0.1,0.4 0.2,2.6 0.3,2.9c3.9,1.2 6,1.8 6.1,4.7z" fill="#09598c" stroke-width="1"/><path d="M259.8,241.1c0.1,0.1 0.1,0.2 0,0.3c-1.7,1.9 -13.2,0.3 -13.2,0.3v-0.7c2.9,0.3 10.1,1 13.2,0.1z" fill="#b3b3b3" stroke-width="1"/><path d="M253.7,235.4l-7.4,1.1l-0.1,-2.1c-0.1,-0.5 7.2,-1 7.3,-0.7c0.1,0.2 0.2,1.1 0.2,1.7z" fill="#1c000b" stroke-width="1" opacity="0.22"/><path d="M254,235.4l-8.1,0.4c0,-0.8 -0.1,-1.4 -0.1,-1.7c0,-0.4 7.9,-0.8 8,-0.6c0.1,0.2 0.2,1.2 0.2,1.9z" fill="#e6e6e6" stroke-width="1"/><path d="M253.4,237.7c0,0.1 0,0.1 -0.1,0.1h-0.1c-0.1,0 -0.2,-0.1 -0.1,-0.2c0.4,-0.7 1.2,-1.1 1.9,-1c0,0 0.1,0.1 0.1,0.2c0,0 -0.1,0.1 -0.2,0.1c-0.6,-0.1 -1.3,0.3 -1.5,0.8zM254.1,237.9c0,0.1 -0.1,0.1 -0.1,0.1h-0.1c0,0 -0.1,-0.1 0,-0.2c0.4,-0.6 1.2,-0.9 1.9,-0.9c0.1,0 0.2,0.1 0.2,0.2c0,0.1 -0.1,0.2 -0.2,0.2c-0.4,0 -1.1,0.1 -1.7,0.6zM257,237.3c0,0.1 -0.1,0.2 -0.2,0.2c-0.5,-0.1 -1.2,0.3 -1.7,0.8c0,0.1 -0.1,0.1 -0.1,0.1h-0.1c-0.1,0 -0.1,-0.1 0,-0.2c0.5,-0.6 1.3,-1 2,-0.9c0,0 0.1,0.1 0.1,0z" fill="#e9edf4" stroke-width="1"/><path d="M246.4,241.3c-1.8,1.8 -13.2,0.4 -13.2,0.4c-0.1,-1.2 -0.5,-6.3 -0.5,-7.3c-0.1,-0.5 7.2,-1 7.3,-0.7c0.1,0.4 0.2,2.6 0.3,2.9c3.9,1.2 6,1.8 6.1,4.7z" fill="#09598c" stroke-width="1"/><path d="M246.3,241.1c0.1,0.1 0.1,0.2 0,0.3c-1.7,1.9 -13.2,0.3 -13.2,0.3v-0.7c2.9,0.3 10.1,1 13.2,0.1z" fill="#b3b3b3" stroke-width="1"/><path d="M240.2,235.5l-7.4,1l-0.1,-2.1c-0.1,-0.5 7.2,-1 7.3,-0.7z" fill="#1c000b" stroke-width="1" opacity="0.22"/><path d="M240.5,235.4l-8.1,0.4c0,-0.8 -0.1,-1.4 -0.1,-1.7c0,-0.4 7.9,-0.8 8,-0.6c0.1,0.2 0.2,1.2 0.2,1.9z" fill="#e6e6e6" stroke-width="1"/><path d="M239.9,237.7c0,0.1 0,0.1 -0.1,0.1h-0.1c-0.1,0 -0.2,-0.1 -0.1,-0.2c0.4,-0.7 1.2,-1.1 1.9,-1c0,0 0.1,0.1 0.1,0.2c0,0 -0.1,0.1 -0.2,0.1c-0.6,-0.1 -1.3,0.3 -1.5,0.8zM240.6,237.9c0,0.1 -0.1,0.1 -0.1,0.1h-0.1c0,0 -0.1,-0.1 0,-0.2c0.4,-0.6 1.2,-0.9 1.9,-0.9c0.1,0 0.2,0.1 0.2,0.2c0,0.1 -0.1,0.2 -0.2,0.2c-0.4,0 -1.1,0.1 -1.7,0.6zM243.4,237.3c0,0.1 -0.1,0.2 -0.2,0.2c-0.5,-0.1 -1.2,0.3 -1.7,0.8c0,0.1 -0.1,0.1 -0.1,0.1h-0.1c-0.1,0 -0.1,-0.1 0,-0.2c0.5,-0.6 1.3,-1 2,-0.9c0.1,0 0.2,0.1 0.1,0z" fill="#e9edf4" stroke-width="1"/><path d="M229.65071,184.74271c-0.23278,0.65103 -0.47781,1.29886 -0.73996,1.94378l0.37044,0.07409l-0.56517,2.82585c-0.16789,0.93478 -0.98533,1.6441 -1.96843,1.6441c-1.01862,0 -1.85938,-0.7615 -1.98406,-1.74627l-0.28206,-1.97442c-0.31396,-2.2371 -1.14508,-4.23355 -0.86377,-6.53779c0.27476,-2.25058 1.4451,-4.3408 1.71731,-6.58301c0.22466,-1.85057 0.12096,-3.75423 0.21499,-5.60047c-1.88789,-2.22593 -0.53074,-4.07798 0.64116,-6.0829c1.76227,-3.01495 5.92426,-5.86862 9.16596,-6.88216l1.95911,-0.55975c0.18762,-0.05826 0.38708,-0.08964 0.59386,-0.08964c1.10457,0 2,0.89543 2,2c0,0.00118 0,0.00235 0,0.00353c0.00118,0 0.00235,0 0.00353,0c0.84107,0 1.56088,0.51917 1.85645,1.25453l0.8405,1.96116l-0.08698,0.03728l0.17441,0.21056c0.42382,2.86357 -0.03322,5.73411 0.34117,8.56292c0.18837,1.42331 1.05043,2.71658 1.15955,4.14816c0.15348,2.01339 -1.1942,5.69032 0.2113,7.56986c1.0186,1.36216 2.95299,1.22102 4.57239,1.35804c0.12641,-0.28244 0.25684,-0.56759 0.38969,-0.85514c-0.24318,-0.76388 -0.19984,-1.53133 0.27646,-2.21211l0,-2.00353c0,0 0,0 0,0c0,-0.74 0.40189,-1.38613 0.99932,-1.73204c0.05029,-0.19074 0.09301,-0.36239 0.12543,-0.51125c0.08995,-0.41295 0.18434,-0.82549 0.28117,-1.23785c-0.12003,-0.00977 -0.21608,-0.10433 -0.22816,-0.22369l-0.05677,-0.49364c-0.03904,-0.33954 -0.07069,-0.67719 -0.09665,-1.01379c-0.10658,-0.24454 -0.16568,-0.51453 -0.16568,-0.79832v-2.28974c0,-0.4291 0.00126,-0.84404 0.00513,-1.24702c-0.07998,-1.50069 -0.44565,-3.96484 -0.45891,-6.11702c-0.2591,-0.63145 -0.48436,-1.26534 -0.40087,-1.92145c0.69247,-5.44173 6.88936,-4.66676 9.91577,-1.93357c2.11931,1.91398 2.42765,4.07805 3.16225,6.66255c1.48197,5.21394 2.24779,10.24125 1.18452,15.53102c-0.20451,1.01743 -0.11325,2.72309 -0.21513,4.2938c0.4999,0.36358 0.82487,0.9531 0.82487,1.61853v2.00353l-0.13863,0c0.03977,0.09247 0.07953,0.18493 0.1193,0.2774l-0.14909,0.24591l0.09147,0.02613l-0.56029,1.96101c-0.22442,0.8591 -1.00577,1.49307 -1.93519,1.49307c-0.70523,0 -1.3252,-0.36501 -1.68131,-0.91641l-0.06138,-0.09206c-0.28148,0.04031 -0.56559,0.02901 -0.85333,-0.05355c-0.98699,-0.2832 -1.45763,-3.15481 -1.71662,-5.33656c0.01042,0.42647 0.01427,0.89057 0.01542,1.40588c0.52748,1.29036 0.61008,2.66814 -0.48867,4.01689c-0.47885,0.5878 -1.10677,0.88007 -1.79749,0.99356c-0.11295,0.20307 -0.23538,0.39231 -0.36833,0.56544c-2.86164,3.72659 -9.93049,1.25056 -13.87963,0.78182c-1.08834,-0.4568 -2.12922,-1.27079 -3.29,-1.35887c-0.36176,0.51553 -0.96066,0.85251 -1.63828,0.85251c-0.35496,0 -0.68831,-0.09247 -0.9773,-0.25463c-1.26785,0.44076 -2.55526,0.78413 -3.88388,-0.34361c-0.86845,-0.73715 -0.165,-2.27273 -0.28722,-3.40528c-0.15757,-1.46011 -0.23151,-2.86434 -0.26378,-4.2928c-0.05789,0.16395 -0.12137,0.33084 -0.1912,0.50116zM241.06563,184.45416c0.54756,0.147 1.1141,0.16898 1.68511,0.16634c-0.69077,-0.45921 -1.27704,-0.95021 -1.60915,-1.39245c-0.02834,-0.03773 -0.05604,-0.07567 -0.08311,-0.11381l-0.03508,0.1754c-0.06676,0.37172 -0.23624,0.70779 -0.47801,0.97778c0.16652,0.07562 0.33981,0.13831 0.52024,0.18675zM231.44596,164.08901c-0.57821,0.52669 -1.07256,1.1018 -1.41271,1.75204c0.07453,-0.02542 0.15274,-0.05337 0.23474,-0.08394l1.01514,-0.84595c0.03036,-0.132 0.05873,-0.26325 0.08478,-0.39364c0.02743,-0.13731 0.05318,-0.2805 0.07805,-0.42851zM229.81467,170.18997c-0.15732,0.02594 -0.31782,0.0445 -0.47997,0.05578c0.00528,0.42918 0.01852,0.861 0.03159,1.2902c0.08316,-0.12704 0.18039,-0.24405 0.28947,-0.3488c0.03629,-0.32882 0.09089,-0.66168 0.15891,-0.99718zM252.67694,185.91254c0.03352,-0.27921 0.06428,-0.55881 0.09358,-0.8374c-0.04558,-0.02482 -0.09112,-0.05019 -0.13658,-0.0761c-0.02469,-0.00745 -0.04936,-0.01494 -0.07399,-0.02244zM251.26268,175.24656l-0.01319,-0.11867c-0.00924,0.04053 -0.01936,0.08312 -0.0303,0.12767c0.01444,-0.00316 0.02893,-0.00616 0.04348,-0.009zM258.1838,162.62154c0.00773,0.20725 0.0088,0.42225 0.00486,0.64243c0.05699,-0.06211 0.11785,-0.1206 0.18221,-0.1751c-0.05919,-0.15853 -0.12144,-0.31457 -0.18707,-0.46732z" fill="#000000" stroke-width="0.5"/></g></g></svg>