<svg version="1.1" xmlns="http://www.w3.org/2000/svg" xmlns:xlink="http://www.w3.org/1999/xlink" width="55.06611" height="119.92991" viewBox="0,0,55.06611,119.92991"><g transform="translate(-222.94339,-122.4)"><g data-paper-data="{&quot;isPaintingLayer&quot;:true}" fill-rule="nonzero" stroke="none" stroke-linecap="butt" stroke-linejoin="miter" stroke-miterlimit="10" stroke-dasharray="" stroke-dashoffset="0" style="mix-blend-mode: normal"><path d="M234.6,161.9c-1.1,5.2 -3.2,11.8 -4.6,14.1c-2.6,4.2 -8.3,0 -6.4,-3.7c1.4,-2.9 4,-7 6.4,-11.1c0.4,-0.7 4.8,-0.1 4.6,0.7z" fill="#ffc19f" stroke-width="1"/><path d="M232.1,173.3c-3.1,-0.9 -6.1,-2.2 -8.1,-3.4c2.5,-4.6 4.3,-9.9 5.8,-11.4c0.8,-0.5 5,-2 8.5,-2.2c-0.1,0 -0.2,0.2 -0.3,0.2c-3,4.8 -4.4,10.5 -5.9,16.8z" fill="#000000" stroke-width="1"/><g fill="#000000"><path d="M244,193.7h13.2c0.1,4 0,5.6 -0.2,7.5c-0.3,2.9 -0.7,5.4 -1.1,8c-0.3,1.6 -0.5,3 -0.7,4l-7.6,-0.4c0,0 -3.2,-13 -3.6,-19z" stroke-width="1"/><path d="M255.2,212.7c-0.1,3.3 -0.4,6.9 -0.8,10.5c-0.4,4.1 -1,8 -1.6,11.6h-6c-0.8,-8.3 -2.4,-18.5 0.6,-22.6zM233.1,202c1.1,5.2 0.5,10.9 0.5,10.9l8,0.4c0,0 1,-5.6 1.6,-10.8z" stroke-width="1"/><path d="M243.23501,202.4643c-0.6,5.2 -1.60895,10.87837 -1.60895,10.87837l-8.0588,-0.40489c0,0 0.59943,-5.77506 -0.50057,-10.97506z" data-paper-data="{&quot;noHover&quot;:false,&quot;origItem&quot;:[&quot;Path&quot;,{&quot;applyMatrix&quot;:true,&quot;segments&quot;:[[[233.1,202],[0,0],[1.1,5.2]],[233.6,212.9],[241.6,213.3],[[243.2,202.5],[-0.6,5.2],[0,0]]],&quot;closed&quot;:true,&quot;fillColor&quot;:[0,0,0,1]}]}" stroke-width="0.5"/><path d="M241.6,212.7c-0.1,3.3 -0.4,6.9 -0.8,10.5c-0.4,4.1 -1,8 -1.6,11.6h-6c-0.8,-8.3 -2.4,-18.5 0.6,-22.6z" stroke-width="1"/></g><path d="M258.2,186.5l-0.2,13.7l-0.3,9.9c-2.2,0.5 -9.3,-0.4 -9.3,-0.4c-0.1,0 -1.5,-0.2 -2,-0.3c-1.1,-0.2 -1.9,-0.4 -1.9,-0.4l0.1,-11.7c-1.4,-6.6 -1.8,-11 -1.7,-11.6l3.3,0.4l2.9,0.2h1.7c0,-0.1 0,0 0,0z" fill="#000000" stroke-width="1"/><path d="M244.4,197.1c-1.4,-6.6 -1.8,-11 -1.7,-11.6l3.3,0.4l0.8,0.1l0.7,11.5l-1.3,11.7l-1.8,-0.3z" fill="#000000" stroke-width="1"/><g fill="#000000" stroke-width="1"><path d="M245.5,186.6l-0.2,13.7l-0.3,9.9c-2.2,0.4 -6.2,-0.1 -9.2,-0.4c0,-0.1 -1.5,-0.3 -2,-0.4c-1.1,-0.2 -1.9,-0.4 -1.9,-0.4l0.2,-11.7c-1.4,-6.6 0.9,-11 1,-11.6l0.5,0.4l2.9,0.2h1.7c0,-0.1 0,0 0,0z"/><path d="M238.1,186.4c0.2,1.8 1.2,14.4 -2.3,23.3c-0.7,-0.1 -1.4,-0.2 -1.9,-0.3c-1.2,-0.2 -2,-0.4 -2,-0.4l0.2,-11.7c-1.4,-6.6 0.9,-11 1,-11.6l0.5,0.4l2.9,0.2z"/></g><path d="M257.5,162.9c3.1,4.3 6.5,10.1 7.2,12.6c1.4,4.7 -5.5,6.1 -6.9,2.3c-1.1,-2.9 -2.4,-7.6 -3.8,-12c-0.3,-0.8 3,-3.6 3.5,-2.9z" fill="#ffc19f" stroke-width="1"/><path d="M254.7,173.9c-0.6,-4.4 1,-16.1 1.1,-16.4c2.1,0.4 3.1,0.6 3.6,1.4c1.2,1.8 2,4.7 4.9,12.5c-0.6,0.7 -9.2,3.5 -9.6,2.5z" fill="#000000" stroke-width="1"/><path d="M273.5,170.6c-3.4,4 -8.4,8.6 -10.6,9.9c-4.2,2.4 -7.2,-3.9 -3.8,-6.2c2.6,-1.8 7.5,-4.5 11.5,-6.8c0.5,-0.5 3.4,2.5 2.9,3.1z" fill="#000000" stroke-width="1"/><path d="M237.9,156.3c8.4,-1.7 13.8,-0.3 20.5,2.1c-3.2,11.9 -0.1,27.3 1.6,32.7c-10.1,4 -22,4.3 -29.8,-1.1c0.8,-13.2 2.2,-24.8 7.7,-33.7z" fill="#000000" stroke-width="1"/><path d="M257.1,168.6c-0.2,3.4 0.3,6.8 0.5,9.9c-6.8,2.1 -13.4,2.4 -26.4,-0.8c0.6,-3.5 1.3,-6.9 2.3,-10c8.7,1.8 16.4,2.4 23.6,0.9zM244.5,161.9c-3.7,-0.2 -6.6,-2.7 -6.4,-5.5c0,-0.2 9.6,-1.1 13.4,0c0.1,0.3 0.1,0.4 0.1,0.8c-0.2,2.8 -3.4,4.8 -7.1,4.7z" fill="#000000" stroke-width="1"/><path d="M250.4,148.5l-0.5,8.2c-0.1,1.8 -2.4,3.1 -5.2,2.9c-2.8,-0.2 -4.9,-1.8 -4.8,-3.5l0.5,-8.2zM258.1,143.9c0,1.8 -1.4,3.3 -2.6,3.4c-1.3,0.1 -1.8,-1.2 -2,-3c-0.2,-1.7 0.7,-3.2 1.9,-3.4c1.7,0 2.7,1.3 2.7,3z" fill="#f4b18c" stroke-width="1"/><path d="M257.8,137c0.2,8.7 -5.2,12.7 -13,13c-7.7,0.3 -14.6,-6 -14.8,-14.6c0.8,-6.6 5.9,-9.2 13.7,-9.5c2.7,-0.1 5.3,0.1 7.4,0.8c1.4,0.5 2.6,0.7 2.2,-1.6c2.6,1.3 2.5,3.1 2,4.2c1.5,1.7 2.5,4.2 2.5,7.7z" fill="#000000" stroke-width="1"/><path d="M244.6,129.4c5.8,-0.3 9.5,0.2 11.4,5.2c0.6,1.4 1.1,13.4 -0.4,16.2c-1.2,2.4 -6.6,4.4 -8.2,4.5c-2.3,0.1 -9.4,-1.9 -11.2,-3.9c-1.8,-1.9 -2.8,-14.9 -2.2,-16.6c1.8,-4.2 5.1,-5.3 10.6,-5.4z" fill="#ffc19f" stroke-width="1"/><path d="M246.7,147.3c0.1,-0.5 0.5,-0.9 1.1,-0.9c0.6,0 1,0.3 1.1,0.9c0,0 0,0.1 -0.1,0.1c0,0 -0.1,0 -0.1,-0.1c-0.1,-0.4 -0.4,-0.7 -0.9,-0.7c-0.4,0 -0.7,0.3 -0.8,0.7c0,0.1 0,0.1 -0.1,0.1c-0.1,0 -0.2,-0.1 -0.2,-0.1z" fill="#f4b18c" stroke-width="1"/><path d="M235.4,142.9c-0.3,4.3 -0.7,3.6 -2.1,3.7c-1.4,0.1 -3.3,-5.3 -3.2,-11.7c0.4,-1.3 4,-3.3 4.6,-3.6c0.4,2.5 0.8,9.6 0.7,11.6z" fill="#000000" stroke-width="1"/><path d="M254,141.1c1.5,0.8 2,2.9 1.1,4.1c-0.9,1.2 -3.3,1.1 -4.4,0.3c-0.7,-0.5 -0.8,-2 -0.1,-3.3c0.7,-1.3 2.1,-1.9 3.4,-1.1z" fill="#f9feff" stroke-width="1"/><path d="M255.2,145.3c0.3,-0.5 0.4,-1.3 0.3,-2c-0.2,-0.9 -0.8,-1.7 -1.5,-2.1c-1.2,-0.7 -2.7,-0.2 -3.4,1.1c0.7,-1.8 3.4,-2.6 4.6,-0.6c0.9,1.5 0.3,3.3 0,3.6zM252.9,142.1c0.8,0.4 1.2,1.4 0.9,2.3c-0.3,0.9 -1.2,1.3 -2,1c-0.8,-0.4 -1.2,-1.4 -0.9,-2.3c0.3,-0.9 1.2,-1.4 2,-1z" fill="#000000" stroke-width="1"/><path d="M251.6,142.6c0.3,0.1 0.4,0.3 0.3,0.6c-0.1,0.3 -0.4,0.4 -0.6,0.3c-0.3,-0.1 -0.4,-0.3 -0.3,-0.6c0.1,-0.2 0.4,-0.4 0.6,-0.3z" fill="#fefffe" stroke-width="1"/><path d="M244.3,142.4c0.9,1.3 0.8,2.7 0.1,3.3c-1.2,0.9 -4,1.1 -5.1,0c-1,-1.1 -0.6,-3.3 1.1,-4.2c1.4,-0.9 3,-0.4 3.9,0.9z" fill="#f9feff" stroke-width="1"/><path d="M239,142.1c1.3,-2.1 4.4,-1.4 5.3,0.3c-0.9,-1.3 -2.6,-1.7 -3.9,-0.9c-0.8,0.5 -1.4,1.3 -1.5,2.2c-0.1,0.7 0.1,1.5 0.5,2c-0.5,-0.3 -1.3,-2 -0.4,-3.6z" fill="#000000" stroke-width="1"/><path d="M240,144c0,-0.99411 0.80589,-1.8 1.8,-1.8c0.99411,0 1.8,0.80589 1.8,1.8c0,0.99411 -0.80589,1.8 -1.8,1.8c-0.99411,0 -1.8,-0.80589 -1.8,-1.8z" fill="#000000" stroke-width="1"/><path d="M240.2,143.4c0,-0.27614 0.22386,-0.5 0.5,-0.5c0.27614,0 0.5,0.22386 0.5,0.5c0,0.27614 -0.22386,0.5 -0.5,0.5c-0.27614,0 -0.5,-0.22386 -0.5,-0.5z" fill="#fefffe" stroke-width="1"/><path d="M255.5,139.2c0.2,-0.2 0.2,-0.5 0,-0.7c-1,-1.1 -2.8,-1.5 -4.4,-1.1c-0.3,0 -0.5,0.3 -0.4,0.6c0,0.3 0.3,0.5 0.6,0.4c1.2,-0.3 2.7,0 3.4,0.8c0.1,0.1 0.2,0.2 0.3,0.2c0.1,0 0.3,0 0.5,-0.2zM239.4,139.6c0.7,-0.8 2.2,-1.1 3.4,-0.8c0.2,0 0.5,-0.1 0.6,-0.4c0,-0.2 -0.1,-0.5 -0.4,-0.6c-1.6,-0.5 -3.4,0 -4.4,1c-0.2,0.2 -0.2,0.5 0,0.7c0.1,0.1 0.3,0.1 0.4,0.1c0.1,0 0.2,-0.1 0.4,0zM252.2,131.5c-1.6,1.2 -4.7,2 -8.7,2.1c-3.2,0.1 -7.5,-1.3 -10.5,-0.6c-0.6,-1.7 0.2,-4.6 4.6,-5.7c6.3,-1.7 8.3,-1.6 10.1,-4.1c0.2,0.7 0.2,1.4 0.1,2l3.4,-2.8c1.7,2.4 1.7,4.3 1,5.8c1,-0.9 1.6,-1.9 1.3,-3.1c2,2.3 0.5,5.1 -1.3,6.4z" fill="#000000" stroke-width="1"/><path d="M233.9,141.1c1.5,0.2 2.5,2 2.3,4c-0.2,2 -0.9,3.6 -2.4,3.5c-1.5,-0.2 -3.1,-1.9 -3.1,-4.1c0,-2.1 1.2,-3.6 3.2,-3.4z" fill="#ffc19f" stroke-width="1"/><path d="M251.3,149.9c0.3,1.3 -1.7,3.3 -3.7,3.3c-1.9,0 -3.3,-1.6 -3.3,-3c0.1,-0.8 1.4,-0.6 3.3,-0.7c1.9,-0.1 3.5,-0.4 3.7,0.4z" fill="#000000" stroke-width="1"/><path d="M249.8,152.4c-0.5,0.6 -1.3,0.8 -2.1,0.8c-0.7,0 -1.4,-0.3 -1.9,-0.6c0.4,-0.4 1.1,-0.7 2,-0.7c0.8,0 1.9,0.1 2,0.5z" fill="#b71521" stroke-width="1"/><path d="M247.7,150.3c-1.2,0.1 -2.1,-0.2 -2.4,-0.8c0.6,-0.1 1.4,0 2.5,-0.1c0.9,-0.1 1.9,-0.3 2.6,-0.1c-0.2,0.7 -1.3,1 -2.7,1z" fill="#ffffff" stroke-width="1"/><path d="M274.1,162.8c1.7,1.5 2.3,5.1 3.2,6.2c-2.3,1.4 -3.6,1.6 -4.4,1.5c-1.5,-0.2 -2.8,-1.4 -2.9,-3.1c0,-1.3 0.2,-2.2 1.5,-4c0.7,0 2,0.3 2.6,-0.6z" fill="#ffc19f" stroke-width="1"/><path d="M272.5,164.7c0.4,0.4 1.1,-1.4 2.5,-0.7c1.1,1 1.3,4.7 1.6,5c-1.5,1 -3.7,0.7 -4.5,-1.2c1,-0.9 1,-2.2 0.4,-3.1z" fill="#e2a285" stroke-width="1"/><g fill="#ffc19f" stroke-width="1"><path d="M276.7,164.3c0.3,0.4 -0.2,1.3 -1.1,1.9c-0.9,0.6 -1.9,0.8 -2.2,0.4c-0.3,-0.4 0.2,-1.3 1.1,-1.9c0.9,-0.7 1.9,-0.9 2.2,-0.4z"/><path d="M275.6,162.7c0.4,0.4 0,1.2 -0.8,2c-0.9,0.7 -1.8,1.1 -2.2,0.7c-0.4,-0.4 0,-1.2 0.8,-2c0.9,-0.8 1.8,-1.1 2.2,-0.7zM277.9,165.9c0.3,0.4 -0.3,1.3 -1.3,1.8c-1,0.5 -2,0.6 -2.3,0.1c-0.3,-0.4 0.3,-1.3 1.3,-1.8c1,-0.6 2.1,-0.6 2.3,-0.1z"/><path d="M278,167.9c0.1,0.5 -0.6,1.1 -1.6,1.4c-1,0.3 -1.9,0.1 -2,-0.4c-0.1,-0.5 0.6,-1.1 1.6,-1.4c1.1,-0.2 2,-0.1 2,0.4z"/></g><path d="M275,164.9c-0.2,0.6 -0.9,1.2 -1.8,0.8c-0.8,-0.4 -1.6,-1.4 -1.4,-2c0.2,-0.6 1.2,-0.7 2.2,-0.4c0.8,0.4 1.2,1.1 1,1.6z" fill="#541000" stroke-width="1" opacity="0.2"/><g stroke-width="1"><path d="M273.6,163.2c-1,-0.4 -2,-0.2 -2.2,0.3c-0.2,0.6 0.4,1.3 1.4,1.7c1,0.4 2,0.2 2.2,-0.3c0.2,-0.5 -0.4,-1.2 -1.4,-1.7zM233.5,184.9c-3.9,-2.8 -8.5,-6.8 -9.9,-8.8c-1.7,-2.4 0.2,-4.6 2.3,-5l3.5,1.6l6.3,8.7c0.4,0.6 -1.7,4 -2.2,3.5z" fill="#000000"/><path d="M239.3,184.7c-1.1,-0.1 -0.4,0.8 -0.2,1.4c0.2,0.6 -3.1,-3.6 -3.3,-3.9c-0.2,-0.3 -0.6,-0.8 -0.3,-0.8c2.9,-0.5 5.1,0.3 5.7,1.4c1.2,2.1 -0.1,3.7 -0.3,3.7c-0.6,0.1 -0.3,-1.5 -1.6,-1.8z" fill="#ffc19f"/></g><path d="M240.8,185.4c-0.5,0.4 -3,-2.1 -2.6,-2.5c0.5,-0.4 1.1,-0.1 1.8,0.5c0.7,0.6 1.2,1.6 0.8,2z" fill="#e2a285" stroke-width="1"/><path d="M238.1,181.7c0.8,0.8 0.9,3.1 3.4,2.2c0.5,-0.2 0.8,1.5 0.2,2c-0.4,0.2 0,0.5 -0.7,1c-0.4,0.3 -0.8,0.4 -0.9,0.6c-0.4,0.9 -1.1,0.5 -1.3,0.8c-0.3,0.5 -0.9,0.5 -1.2,0.4c-0.9,-0.2 -2.3,-1.7 -3.9,-3.3c-1,-1 0.1,-3.5 0.5,-3.7c1.8,-0.7 3.4,-0.5 3.9,0z" fill="#ffc19f" stroke-width="1"/><path d="M259.9,241.3c-1.8,1.8 -13.2,0.4 -13.2,0.4c-0.1,-1.2 -0.5,-6.3 -0.5,-7.3c-0.1,-0.5 7.2,-1 7.3,-0.7c0.1,0.4 0.2,2.6 0.3,2.9c3.9,1.2 6,1.8 6.1,4.7z" fill="#000000" stroke-width="1"/><path d="M259.8,241.1c0.1,0.1 0.1,0.2 0,0.3c-1.7,1.9 -13.2,0.3 -13.2,0.3v-0.7c2.9,0.3 10.2,1.1 13.2,0.1z" fill="#b3b3b3" stroke-width="1"/><path d="M253.7,235.4l-7.4,1.1l-0.1,-2.1c-0.1,-0.5 7.2,-1 7.3,-0.7c0.1,0.2 0.2,1.1 0.2,1.7z" fill="#1c000b" stroke-width="1" opacity="0.22"/><path d="M254,235.4l-8.1,0.4c0,-0.8 -0.1,-1.4 -0.1,-1.7c0,-0.4 7.9,-0.8 8,-0.6c0.1,0.2 0.2,1.2 0.2,1.9z" fill="#000000" stroke-width="1"/><path d="M253.4,237.7c0,0.1 0,0.1 -0.1,0.1h-0.1c-0.1,0 -0.2,-0.1 -0.1,-0.2c0.4,-0.7 1.2,-1.1 1.9,-1c0,0 0.1,0.1 0.1,0.2c0,0 -0.1,0.1 -0.2,0.1c-0.6,-0.1 -1.3,0.3 -1.5,0.8zM254.1,237.9c0,0.1 -0.1,0.1 -0.1,0.1h-0.1c0,0 -0.1,-0.1 0,-0.2c0.4,-0.6 1.2,-0.9 1.9,-0.9c0.1,0 0.2,0.1 0.2,0.2c0,0.1 -0.1,0.2 -0.2,0.2c-0.3,0 -1.1,0.1 -1.7,0.6zM257,237.3c0,0.1 -0.1,0.2 -0.2,0.2c-0.5,-0.1 -1.2,0.3 -1.7,0.8c0,0.1 -0.1,0.1 -0.1,0.1h-0.1c-0.1,0 -0.1,-0.1 0,-0.2c0.5,-0.6 1.3,-1 2,-0.9c0.1,0 0.1,0.1 0.1,0z" fill="#e9edf4" stroke-width="1"/><path d="M246.4,241.3c-1.8,1.8 -13.2,0.4 -13.2,0.4c-0.1,-1.2 -0.5,-6.3 -0.5,-7.3c-0.1,-0.5 7.2,-1 7.3,-0.7c0.1,0.4 0.2,2.6 0.3,2.9c3.9,1.2 6,1.8 6.1,4.7z" fill="#000000" stroke-width="1"/><path d="M246.3,241.1c0.1,0.1 0.1,0.2 0,0.3c-1.7,1.9 -13.2,0.3 -13.2,0.3v-0.7c2.9,0.3 10.1,1.1 13.2,0.1z" fill="#b3b3b3" stroke-width="1"/><path d="M240.2,235.5l-7.4,1l-0.1,-2.1c-0.1,-0.5 7.2,-1 7.3,-0.7c0.1,0.2 0.2,1.1 0.2,1.8z" fill="#1c000b" stroke-width="1" opacity="0.22"/><path d="M240.5,235.4l-8.1,0.4c0,-0.8 -0.1,-1.4 -0.1,-1.7c0,-0.4 7.9,-0.8 8,-0.6c0.1,0.2 0.2,1.2 0.2,1.9z" fill="#000000" stroke-width="1"/><path d="M239.9,237.7c0,0.1 0,0.1 -0.1,0.1h-0.1c-0.1,0 -0.2,-0.1 -0.1,-0.2c0.4,-0.7 1.2,-1.1 1.9,-1c0,0 0.1,0.1 0.1,0.2c0,0 -0.1,0.1 -0.2,0.1c-0.6,-0.1 -1.3,0.3 -1.5,0.8zM240.6,237.9c0,0.1 -0.1,0.1 -0.1,0.1h-0.1c0,0 -0.1,-0.1 0,-0.2c0.4,-0.6 1.2,-0.9 1.9,-0.9c0.1,0 0.2,0.1 0.2,0.2c0,0.1 -0.1,0.2 -0.2,0.2c-0.4,0 -1.1,0.1 -1.7,0.6zM243.5,237.3c0,0.1 -0.1,0.2 -0.2,0.2c-0.5,-0.1 -1.2,0.3 -1.7,0.8c0,0.1 -0.1,0.1 -0.1,0.1h-0.1c-0.1,0 -0.1,-0.1 0,-0.2c0.5,-0.6 1.3,-1 2,-0.9c0,0 0.1,0.1 0.1,0z" fill="#e9edf4" stroke-width="1"/></g></g></svg>