<svg version="1.1" xmlns="http://www.w3.org/2000/svg" xmlns:xlink="http://www.w3.org/1999/xlink" width="40.72605" height="118.76953" viewBox="0,0,40.72605,118.76953"><defs><clipPath id="clip-1"><path d="M255.9,208.8c-3.8,1.1 -9.1,2.3 -15.6,2.4c-7,0.1 -12.8,-1.2 -16.8,-2.4l3.9,-22.9h24.6z" fill="none"/></clipPath></defs><g transform="translate(-219.2,-123.96038)"><g data-paper-data="{&quot;isPaintingLayer&quot;:true}" fill-rule="nonzero" stroke="none" stroke-linecap="butt" stroke-linejoin="miter" stroke-miterlimit="10" stroke-dasharray="" stroke-dashoffset="0" style="mix-blend-mode: normal"><path d="M252.8,139.2c1.6,10 -0.2,16.7 -2,19c-0.1,-0.3 -0.1,-8.3 -0.3,-8.6c0,1.1 -0.3,8.4 -0.5,8.7c-3.7,0.9 -15.7,2.6 -18.9,1.7c-1.1,-0.3 -4.7,-1.4 -5.5,-2c-1.4,-3.8 -1.1,-8.8 -1.2,-11.4c-0.3,0.9 -1.5,8.2 0.1,10.8c-2.5,-2 -2.5,-5.9 -0.3,-18.1c-2.5,9.7 -1.9,13.7 -2,15.6c-0.4,-4 -0.7,-10.3 2.1,-21.4l27.6,-1.6c3.6,13.8 3.2,18.4 0.7,25.1c1.4,-5.5 2.4,-9.8 0.2,-17.8z" fill="#000000" stroke-width="1"/><g fill="#ffc19f" stroke-width="1"><path d="M221.6,180.2c-0.5,0.1 -0.9,0.2 -1.2,0.3l0.1,-4.9c0,-0.3 0,-1.8 0.4,-3.7c0.2,-1.4 0.5,-1.6 0.6,-1.7c1.5,-1.5 5.1,-0.6 5.3,2.9c0.1,1.8 -0.4,4.4 -1.1,7.6c-0.8,-0.3 -1.8,-0.5 -2.9,-0.5zM223.3,192c0.9,0.1 1.7,2.8 1.1,3.8c-0.7,0.9 -3.3,0.6 -4,-0.1c-0.6,-0.6 0.3,-2.9 0.3,-2.9c0.6,-1.1 1.7,-0.8 2.6,-0.8z"/><path d="M223.1,191.9c0.9,0.1 1.6,1.5 2.1,2c0.5,0.5 1.8,0.9 1,1.5c-0.8,0.6 -1.8,-0.9 -1.8,-0.9c-2,0.7 -2.7,-1.4 -2.7,-1.4c0,-0.4 0.5,-1.4 1.4,-1.2zM221.2,195.7c0,0 -0.5,2 -1.2,2.5c-0.7,0.5 -0.2,-1.5 0,-2.2c0.3,-0.7 0.3,-1.2 0.3,-1.2c0,0 0.9,0.8 0.9,0.9z"/><path d="M222.4,195.6c0,0 -0.4,1.2 -0.5,1.8c-0.1,0.8 0,2 -0.6,2.1c-0.5,0.1 -0.4,-1.3 -0.3,-1.7c0,-0.4 0.1,-2.4 0.2,-2.5z"/><path d="M223.6,195.6c0,0.1 -0.1,1.2 -0.1,1.9c0,0.7 0.1,2.1 -0.6,2.2c-0.5,0.1 -0.3,-0.7 -0.4,-1.5l-0.3,-2.1l0.1,-0.7c0,0 1.2,0.1 1.3,0.2z"/><path d="M223.3,195.4l-0.1,0.4l1,2.6c0.2,0.6 0.5,0.8 0.8,0.4c0.2,-0.4 -0.1,-1.3 -0.3,-1.9c-0.2,-0.6 -0.2,-1.9 -0.2,-1.9zM224.2,193.4c1.1,-5.1 1.7,-9.3 1.5,-12c-0.3,-4.9 -5.7,-3.8 -5.7,0.3c0,3.1 0.4,6.3 0.6,11c0.2,0.8 3.5,1.4 3.6,0.7zM256.4,167.2c1.1,5.3 1.6,9.7 1.5,12.5c-0.3,5.1 -5.8,3.9 -5.8,-0.3c0,-3.3 -0.4,-6.6 -0.2,-11.4c0.1,-0.9 4.4,-1.6 4.5,-0.8z"/><path d="M249.9,213c-0.1,3.4 -0.4,6.9 -0.8,10.6c-0.4,4.1 -1,8 -1.6,11.7h-6.1c-0.8,-8.3 -2.4,-18.6 0.6,-22.7z"/><path d="M237.3,213c-0.1,3.4 -0.4,6.9 -0.8,10.6c-0.4,4.1 -1,8 -1.6,11.7h-6.1c-0.8,-8.3 -2.4,-18.6 0.6,-22.7z"/></g><path d="M254.6,241.8c-1.8,1.8 -13.3,0.4 -13.3,0.4c-0.1,-1.2 -0.5,-6.3 -0.5,-7.3c0,-0.5 7.3,-1 7.4,-0.7c0.1,0.3 0.2,2.6 0.3,2.9c3.9,1.1 6,1.8 6.1,4.7z" fill="#754c24" stroke-width="1"/><path d="M254.6,241.5c0.1,0.1 0.1,0.2 0,0.3c-1.7,1.9 -13.3,0.3 -13.3,0.3v-0.7c2.8,0.4 10.2,1.1 13.3,0.1z" fill="#b3b3b3" stroke-width="1"/><path d="M248.3,235.8l-7.4,1.1l-0.1,-2.1c0,-0.5 7.3,-1 7.4,-0.7c0.1,0.3 0.1,1.1 0.1,1.7z" fill="#1c000b" stroke-width="1" opacity="0.22"/><path d="M248.8,235.8l-8.2,0.4c0,-0.8 -0.1,-1.4 -0.1,-1.7c-0.1,-0.4 7.9,-0.8 8,-0.6z" fill="#fffbf9" stroke-width="1"/><path d="M248,238.2c0,0.1 0,0.1 -0.1,0.1h-0.1c-0.1,0 -0.2,-0.1 -0.1,-0.2c0.4,-0.7 1.2,-1.1 1.9,-1c0,0 0.1,0.1 0.1,0.2c0,0 -0.1,0.1 -0.2,0.1c-0.5,-0.1 -1.2,0.2 -1.5,0.8zM248.7,238.3c0,0.1 -0.1,0.1 -0.1,0.1h-0.1c0,0 -0.1,-0.1 0,-0.2c0.5,-0.6 1.2,-0.9 2,-0.9c0.1,0 0.2,0.1 0.2,0.2c0,0.1 -0.1,0.2 -0.2,0.2c-0.4,0 -1.1,0.1 -1.8,0.6zM251.8,237.8c0,0.1 -0.1,0.2 -0.2,0.2c-0.6,-0.1 -1.3,0.3 -1.8,0.8c0,0.1 -0.1,0.1 -0.1,0.1h-0.1c-0.1,0 -0.1,-0.1 0,-0.2c0.5,-0.6 1.3,-1 2,-0.9c0.1,0 0.2,-0.1 0.2,0z" fill="#e9edf4" stroke-width="1"/><path d="M242.1,241.8c-1.8,1.8 -13.3,0.4 -13.3,0.4c-0.1,-1.2 -0.5,-6.3 -0.5,-7.3c0,-0.5 7.3,-1 7.4,-0.7c0.1,0.3 0.2,2.6 0.3,2.9c3.9,1.1 6,1.8 6.1,4.7z" fill="#754c24" stroke-width="1"/><path d="M242.1,241.5c0.1,0.1 0.1,0.2 0,0.3c-1.7,1.9 -13.3,0.3 -13.3,0.3v-0.7c2.8,0.4 10.2,1.1 13.3,0.1z" fill="#b3b3b3" stroke-width="1"/><path d="M235.8,235.8l-7.4,1.1l-0.1,-2.1c0,-0.5 7.3,-1 7.4,-0.7c0.1,0.3 0.1,1.1 0.1,1.7z" fill="#1c000b" stroke-width="1" opacity="0.22"/><path d="M236.3,235.8l-8.2,0.4c0,-0.8 -0.1,-1.4 -0.1,-1.7c-0.1,-0.4 7.9,-0.8 8,-0.6z" fill="#fffbf9" stroke-width="1"/><path d="M235.6,238.2c0,0.1 0,0.1 -0.1,0.1h-0.1c-0.1,0 -0.2,-0.1 -0.1,-0.2c0.4,-0.7 1.2,-1.1 1.9,-1c0,0 0.1,0.1 0.1,0.2c0,0 -0.1,0.1 -0.2,0.1c-0.6,-0.1 -1.3,0.2 -1.5,0.8zM236.2,238.3c0,0.1 -0.1,0.1 -0.1,0.1h-0.1c0,0 -0.1,-0.1 0,-0.2c0.5,-0.6 1.2,-0.9 2,-0.9c0.1,0 0.2,0.1 0.2,0.2c0,0.1 -0.1,0.2 -0.2,0.2c-0.4,0 -1.1,0.1 -1.8,0.6zM239.3,237.8c0,0.1 -0.1,0.2 -0.2,0.2c-0.6,-0.1 -1.3,0.3 -1.8,0.8c0,0.1 -0.1,0.1 -0.1,0.1h-0.1c-0.1,0 -0.1,-0.1 0,-0.2c0.5,-0.6 1.3,-1 2,-0.9c0.1,0 0.2,-0.1 0.2,0z" fill="#e9edf4" stroke-width="1"/><path d="M238.6,205.3c-0.2,2 -0.5,2.8 -0.7,4.3l-0.7,3.9l-7.7,-0.4l-1.8,-7.8zM251.2,205.3c-0.2,2 -0.5,2.8 -0.7,4.3l-0.7,3.9l-7.7,-0.4l-1.8,-7.8z" fill="#ffc19f" stroke-width="1"/><path d="M255.9,208.8c-3.8,1.1 -9.1,2.3 -15.6,2.4c-7,0.1 -12.8,-1.2 -16.8,-2.4c0.4,-3.6 0.9,-7.3 1.5,-11.3c0.7,-4.1 1.5,-8 2.3,-11.6h24.6c0.9,3.7 1.7,7.6 2.4,11.8c0.8,3.9 1.3,7.6 1.6,11.1z" fill="#2e3192" stroke-width="1"/><g clip-path="url(#clip-1)" stroke-width="1"><path d="M232.4,212l2.6,-19.7l-1.1,19.4zM243,212l-0.2,-19.8l1.6,19.3zM253.9,210.7l-2.8,-19.6l4.2,19z" fill="#262d7f"/></g><path d="M232.5,210.9c-0.9,0 -2.1,0 -3.5,-0.3c-1.3,-0.2 -2.3,-0.6 -3.2,-0.9c1.1,-6.5 2.8,-12.9 3.9,-19.4l5.5,1zM243,211.4c-0.9,0.2 -2.1,0.3 -3.5,0.3c-1.3,0 -2.4,-0.2 -3.3,-0.4c0.1,-6.6 0.8,-13.2 0.9,-19.8l5.6,0.1zM254.4,209.7c-0.9,0.3 -2,0.7 -3.4,0.9c-1.3,0.2 -2.4,0.2 -3.3,0.2c-1.1,-6.5 -1.7,-13.1 -2.8,-19.6l5.5,-0.9z" fill="#2e3192" stroke-width="1"/><path d="M225.9,209.7c0,0 0.1,-1.2 0.5,-3.1l0.7,-3.1l0.8,-3.6l1.4,-6.7l0.7,-3c0,0 -0.1,1.2 -0.5,3.1l-1.4,6.7l-0.8,3.6l-0.6,3.1zM236.2,211.3c0,0 -0.1,-1.2 0,-3.1c0,-0.9 0.1,-2 0.2,-3.2l0.2,-3.6l0.3,-6.8l0.2,-3.1v3.1c0,1.9 -0.2,4.3 -0.4,6.8l-0.2,3.6l-0.1,3.2c0,1.9 -0.1,3.1 -0.2,3.1zM247.8,210.8l-0.6,-3c-0.2,-0.9 -0.3,-2 -0.4,-3.2c-0.1,-1.2 -0.3,-2.4 -0.5,-3.6l-0.9,-6.7l-0.4,-3.1l0.6,3l0.9,6.8c0.1,1.2 0.3,2.5 0.5,3.6l0.5,3.1zM223.5,208.8l0.4,-3.6l0.5,-3.7l0.3,-2.1l0.3,-2.2l1.5,-7.8l0.8,-3.5l-0.6,3.6l-1.6,7.8l-0.6,4.2c-0.1,1.4 -0.3,2.6 -0.5,3.7zM252,185.9l0.9,3.5c0.3,1.1 0.5,2.3 0.7,3.7l0.8,4.2l0.6,4.2l0.5,3.7l0.4,3.6l-0.6,-3.6l-0.5,-3.7l-0.3,-2.1c-0.1,-0.7 -0.1,-1.4 -0.3,-2.1l-0.8,-4.2l-0.8,-3.6z" fill="#3942a8" stroke-width="1"/><path d="M229.3,183.8h20.2v1.6h-20.2z" fill="#3a4ca5" stroke-width="1"/><path d="M248.8,173.9c-0.6,-4.4 1,-16.2 1.1,-16.4c2.1,0.4 3.1,0.6 3.7,1.4c1.2,1.9 2,4.7 5,12.6c-0.7,0.7 -9.3,3.5 -9.8,2.4z" fill="#fffbf9" stroke-width="1"/><path d="M258.5,171.5c-0.6,0.7 -9.2,3.5 -9.7,2.4c0,-0.2 0,-0.4 -0.1,-0.6c1.5,0.4 8.9,-2 9.4,-2.6z" fill="#fffbf9" stroke-width="1"/><g stroke-width="1"><path d="M233.1,156.3c7.9,-1.8 13.1,-0.3 19.5,2c-3.1,12 -0.2,27.5 1.4,32.9c-9.7,4.1 -21,4.4 -28.4,-1c0.8,-13.3 2.1,-25 7.5,-33.9z" fill="#fffbf9"/><path d="M252.6,158.3c-1.2,4.6 -1.5,9.7 -1.3,14.5c-0.3,-4.8 -0.1,-9.9 1,-14.6c0.1,0 0.2,0.1 0.3,0.1z" fill="#ff3746"/></g><path d="M253.9,191.2c-9.7,4.1 -21,4.4 -28.4,-1c0.1,-0.4 0.1,-0.7 0.1,-1c7.4,5.3 18.5,5 28.1,1c0.1,0.3 0.2,0.7 0.2,1z" fill="#fffbf9" stroke-width="1"/><path d="M227.3,173.2c-3.1,-1 -6.1,-2.3 -8.1,-3.5c2.6,-4.7 4.4,-10 5.9,-11.5c0.9,-0.4 5,-1.8 8.6,-2c-0.1,0.1 -0.2,0.1 -0.3,0.1c-3,4.9 -4.4,10.5 -6.1,16.9z" fill="#fffbf9" stroke-width="1"/><path d="M227.7,172.2l-0.3,1.1c-3.1,-1 -6.1,-2.3 -8.1,-3.5c0.2,-0.3 0.3,-0.7 0.5,-1c1.9,1.1 4.9,2.4 7.9,3.4z" fill="#fffbf9" stroke-width="1"/><path d="M233.7,156.2c-0.1,0.1 -0.2,0.1 -0.3,0.1c0.1,0 0.2,-0.1 0.3,-0.1z" fill="#ff3746" stroke-width="1"/><path d="M240.2,159.6h-0.3c-1.8,0 -3.2,-1.4 -3.2,-3.2v-5h6.8v5c-0.1,1.8 -1.5,3.2 -3.3,3.2z" fill="#fcb490" stroke-width="1"/><path d="M238.5,124c7.9,-0.5 12.9,3.8 13.7,9.1c1.3,9.6 -4.5,16.8 -12.8,17.2c-8.3,0.4 -15.9,-5.9 -15.2,-15.8c0.5,-7.7 5.8,-10.1 14.3,-10.5z" fill="#000000" stroke-width="1"/><path d="M253,143.3c0,1.9 -1.5,3.5 -3,3.7c-1.5,0.2 -2.2,-1.2 -2.5,-3c-0.3,-1.8 0.7,-3.4 2.2,-3.6c2,-0.2 3.2,1.1 3.3,2.9z" fill="#ffc19f" stroke-width="1"/><path d="M250.3,142.5h0.3c1,0.1 1.5,0.9 1.3,1.8c-0.2,1 -1.1,1.6 -1.9,1.5c-0.1,0 -0.2,0 -0.2,-0.1z" fill="#f4b18c" stroke-width="1"/><path d="M238.4,127.2c6,-0.2 10.6,-0.3 12.6,4.9c0.6,1.6 0,14.3 -1.5,17.2c-1.3,2.5 -6.2,4.7 -7.8,4.8c-1.5,0.1 -8.7,-1.4 -10.6,-3.5c-1.8,-1.9 -4.2,-16.7 -3.5,-18.4c1.7,-4.4 5.1,-4.6 10.8,-5z" fill="#ffc19f" stroke-width="1"/><g fill="#eaa583" stroke-width="1"><path d="M230.9,131.2h14.5l0.3,3.5c-1.1,-0.2 -2.3,-0.5 -3.8,-0.5l-3.7,0.2c-0.1,-0.3 -0.3,-0.6 -0.5,-1c-0.2,-0.3 -0.4,-0.6 -0.6,-0.8c0,0 -0.1,1 0.1,2c-0.9,0.1 -2.4,0.2 -3.5,0.5l-2.8,0.9c0,-0.8 0,-2.3 0.1,-2.7c-0.2,0.3 -1.2,2.3 -1.3,3.1c-0.2,0.1 -0.4,0.2 -0.7,0.3c-0.3,0.1 -0.5,0.3 -0.7,0.4c0.1,-0.8 -0.5,-3 0.1,-4.2c0.5,-1 2.2,-0.6 2.5,-1.7zM251.1,136.5c-0.2,-0.2 -0.5,-0.4 -0.9,-0.6c-0.4,-0.2 -0.8,-0.3 -1.1,-0.4c-0.2,-0.8 -0.7,-2.4 -0.9,-2.5l-0.1,2.2c-0.2,-0.1 -0.5,-0.1 -0.8,-0.2c-0.4,-0.1 -0.7,-0.1 -1,-0.1l-0.6,-3.6h2.8l2,1.3z"/><path d="M245.3,129.7c0.1,0.2 0.3,0.7 0.4,1.5h-0.3c0,-0.9 -0.1,-1.4 -0.1,-1.5z"/></g><path d="M226.7,134.7l3.7,-2.6c-0.6,1.3 -1.2,3 -1.6,5c-0.3,1.4 -0.4,2.8 -0.5,3.9l-2.7,-5.6zM251.9,139.1l-1,1.4c0.1,-1 0.2,-2.2 0,-3.6c-0.1,-1.1 -0.4,-2.1 -0.6,-2.9c0.5,0 1.1,-0.1 1.6,-0.1z" fill="#000000" stroke-width="1"/><path d="M240.1,146.2c-0.1,0 -0.1,-0.1 -0.2,-0.2c0.1,-0.6 0.6,-1.1 1.2,-1.1c0.7,0 1.2,0.4 1.3,1c0,0.1 0,0.2 -0.1,0.2c-0.1,0 -0.2,0 -0.2,-0.1c-0.1,-0.4 -0.5,-0.7 -1,-0.7c-0.5,0 -0.8,0.3 -0.9,0.8c0,0 0,0.1 -0.1,0.1z" fill="#f4b18c" stroke-width="1"/><path d="M231.7,138.5c-0.2,-0.2 -0.2,-0.4 0,-0.6c1.2,-1.2 3.3,-1.5 5,-0.8c0.2,0.1 0.3,0.4 0.2,0.6c-0.1,0.3 -0.3,0.4 -0.5,0.3c-1.5,-0.6 -3.3,-0.4 -4.2,0.6c-0.1,0.1 -0.2,0.1 -0.3,0.1c-0.1,0 -0.2,-0.1 -0.2,-0.2zM248.9,137.6c0.1,-0.2 0.1,-0.5 -0.1,-0.6c-1.3,-0.9 -3.4,-0.9 -5,0.1c-0.2,0.1 -0.2,0.4 -0.1,0.6c0.1,0.2 0.3,0.3 0.5,0.2c1.3,-0.8 3.1,-0.9 4.2,-0.1c0.1,0.1 0.2,0.1 0.3,0.1c0.1,-0.1 0.2,-0.1 0.2,-0.3z" fill="#000000" stroke-width="1"/><path d="M227.9,140.9c1.5,-0.2 2.9,1.2 3,3c0.1,1.8 -0.3,3.3 -1.8,3.5c-1.5,0.2 -3.4,-1 -3.8,-2.9c-0.3,-1.8 0.6,-3.3 2.6,-3.6z" fill="#ffc19f" stroke-width="1"/><path d="M247.5,139.8c1.5,0.9 2,3 1.1,4.2c-0.9,1.3 -3.4,1.1 -4.5,0.3c-0.7,-0.5 -0.9,-2 -0.1,-3.3c0.7,-1.3 2.1,-1.9 3.5,-1.2z" fill="#f9feff" stroke-width="1"/><path d="M248.6,144.1c0.3,-0.5 0.4,-1.3 0.3,-2c-0.2,-0.9 -0.8,-1.7 -1.5,-2.1c-1.2,-0.7 -2.6,-0.2 -3.4,1.1c0.7,-1.8 3.4,-2.6 4.6,-0.6c0.9,1.5 0.3,3.3 0,3.6zM246.3,140.8c0.8,0.3 1.2,1.4 0.9,2.3c-0.3,1 -1.2,1.4 -2,1.1c-0.8,-0.3 -1.2,-1.4 -0.9,-2.3c0.3,-0.9 1.2,-1.4 2,-1.1z" fill="#000000" stroke-width="1"/><path d="M245.1,141.4c0.3,0.1 0.4,0.3 0.3,0.6c-0.1,0.3 -0.4,0.4 -0.6,0.3c-0.3,-0.1 -0.4,-0.3 -0.3,-0.6c0,-0.2 0.3,-0.4 0.6,-0.3z" fill="#fefffe" stroke-width="1"/><path d="M237.7,141.2c0.9,1.3 0.8,2.8 0.1,3.3c-1.2,0.9 -4,1.2 -5.1,0c-1,-1.1 -0.6,-3.3 1.1,-4.2c1.4,-0.9 3,-0.4 3.9,0.9z" fill="#f9feff" stroke-width="1"/><path d="M232.4,140.9c1.3,-2.1 4.4,-1.4 5.3,0.3c-0.88836,-1.30644 -2.63768,-1.70004 -4,-0.9c-0.8,0.5 -1.4,1.3 -1.5,2.2c-0.1,0.7 0.1,1.5 0.5,2c-0.5,-0.2 -1.2,-2 -0.3,-3.6z" fill="#000000" stroke-width="1"/><path d="M233.3,142.8c0,-0.99411 0.80589,-1.8 1.8,-1.8c0.99411,0 1.8,0.80589 1.8,1.8c0,0.99411 -0.80589,1.8 -1.8,1.8c-0.99411,0 -1.8,-0.80589 -1.8,-1.8z" fill="#000000" stroke-width="1"/><path d="M233.6,142.2c0,-0.27614 0.22386,-0.5 0.5,-0.5c0.27614,0 0.5,0.22386 0.5,0.5c0,0.27614 -0.22386,0.5 -0.5,0.5c-0.27614,0 -0.5,-0.22386 -0.5,-0.5z" fill="#fefffe" stroke-width="1"/><path d="M228.8,145.7c0,0.1 -0.1,0.1 -0.2,0.1c-0.8,0.1 -1.7,-0.5 -1.9,-1.5c-0.2,-0.9 0.3,-1.7 1.3,-1.8h0.3c0.2,1.2 0.3,2.3 0.5,3.2z" fill="#f4b18c" stroke-width="1"/><path d="M227.4,128.2l7.8,-2.5c0.4,0 8.8,0.7 8.8,0.7c0,0 2,0.7 2.3,0.6c0.4,-0.1 2.8,1.3 2.8,1.3l1.6,1.8l0.8,2v2.3l-1.2,0.4l-1.7,-2.8l-3.1,-3.1l-3.1,0.3c-1,0.2 -6.2,0.2 -6.3,0.3c-0.2,0.1 -5.6,1.4 -5.6,1.4l-3.4,1.9z" fill="#000000" stroke-width="1"/><path d="M251.6,136.4c-0.8,-0.5 -1.6,-0.9 -2.5,-1.3c-0.2,-0.7 -0.7,-2.4 -0.9,-2.5c0,0.2 -0.1,1.5 -0.1,2.2c-0.5,-0.1 -1.1,-0.3 -1.7,-0.4c-0.1,-1.2 -0.6,-2.8 -0.9,-3.3l0.3,3.2c-1.7,-0.3 -3.8,-0.3 -6.6,-0.2c-0.3,0.1 -0.6,0.1 -0.9,0.1c-0.2,-1.4 -1.1,-1.9 -1.1,-1.9c-0.1,0.1 -0.1,0.5 -0.1,1c0,0.2 0,0.5 0.1,0.9h-0.3c-2,0.2 -4.2,0.7 -6,1.3c0,-0.8 0,-2.3 0.1,-2.7c-0.2,0.3 -1.2,2.3 -1.3,3.1c-1.4,0.5 -2.7,1.2 -3.4,1.9c-0.7,0.7 0.6,-6.6 2,-7.6c2.1,-1.6 6.1,-2.3 10,-2.5c3.6,-0.2 7.6,0.2 9.8,1.3c1.8,0.8 4.4,7.9 3.5,7.4zM241,148c-1.9,0.1 -3.2,-0.1 -3.3,0.7c0,1.4 1.4,3 3.3,3c2,0 4,-1.9 3.7,-3.3c-0.2,-0.8 -1.8,-0.5 -3.7,-0.4z" fill="#000000" stroke-width="1"/><path d="M243.3,150.9c-0.5,0.6 -1.3,0.8 -2.1,0.8c-0.8,0 -1.5,-0.3 -2,-0.6c0.4,-0.4 1.1,-0.7 2,-0.7c0.8,0 1.8,0.1 2.1,0.5z" fill="#b71521" stroke-width="1"/><path d="M241,148.9c-1.2,0.1 -2.1,-0.2 -2.4,-0.8c0.6,-0.1 1.4,0 2.5,-0.1c0.9,-0.1 1.9,-0.3 2.6,-0.1c-0.1,0.6 -1.3,1 -2.7,1z" fill="#ffffff" stroke-width="1"/><g fill="#ffc19f" stroke-width="1"><path d="M258.5,192.6c0,0 1.1,2.2 0.5,2.9c-0.6,0.7 -3.3,1.3 -3.9,0.4c-0.7,-0.9 -0.1,-3.8 0.8,-3.8c0.9,-0.2 1.9,-0.5 2.6,0.5z"/><path d="M257.5,192.9c0,0 -0.5,2.1 -2.5,1.6c0,0 -0.9,1.6 -1.7,1c-0.8,-0.6 0.4,-1 0.8,-1.6c0.5,-0.5 1,-2 1.9,-2.2c0.9,-0.1 1.5,0.9 1.5,1.2zM259,194.5c0,0 0.1,0.5 0.4,1.2c0.3,0.7 0.9,2.6 0.2,2.2c-0.7,-0.4 -1.4,-2.3 -1.3,-2.4c0,-0.1 0.7,-1 0.7,-1z"/><path d="M258.2,195.1c0.1,0.1 0.3,2 0.4,2.5c0.1,0.4 0.4,1.8 -0.2,1.8c-0.6,0 -0.6,-1.3 -0.8,-2.1c-0.1,-0.6 -0.6,-1.7 -0.6,-1.7z"/><path d="M257.1,195.3l0.2,0.7l-0.1,2.2c0,0.8 0.2,1.6 -0.3,1.5c-0.7,-0.1 -0.7,-1.5 -0.7,-2.2l-0.3,-1.8c0,-0.1 1.2,-0.4 1.2,-0.4z"/><path d="M256.1,195.4l0.1,0.4l-0.8,2.6c-0.1,0.6 -0.5,0.8 -0.7,0.4c-0.3,-0.4 0,-1.3 0.2,-1.9c0.2,-0.6 0.1,-1.9 0.1,-1.9zM254.9,193.5c-1.5,-5 -2.3,-9.2 -2.3,-11.9c-0.1,-4.9 5.2,-4.1 5.5,-0.1c0.3,3.1 0.1,6.3 0.2,11c0.1,0.8 -3.2,1.7 -3.4,1z"/></g><path d="M241.65307,170.19841c0.04403,0.24609 -0.20206,0.29012 -0.20206,0.29012l-0.29617,0.0487c0.12165,0.57042 0.09975,1.1462 -0.09476,1.50587c-1.04114,0.63659 -1.83647,0.71359 -3.03554,0.71873l-0.0055,0c0.05571,0.16252 0.12486,0.32582 0.20732,0.48934c0,0 0.1118,0.22361 -0.1118,0.33541c-0.22361,0.1118 -0.33541,-0.1118 -0.33541,-0.1118c-0.59468,-1.20098 -0.59132,-2.7815 0.32505,-3.85092c-0.1484,0.07412 -0.27822,-0.0557 -0.27822,-0.0557c-0.96907,-0.96907 -5.85,-4.77438 -2.78262,-6.34254c0.31231,-0.15967 1.07336,-0.25857 1.45345,-0.39291c4.23003,-1.48994 7.63797,1.6716 3.95919,5.30162c-0.46204,0.17543 -0.84922,0.4419 -1.24999,0.68806c0.08652,-0.03121 0.17082,-0.05227 0.2528,-0.06403c0.01255,-0.05651 0.04905,-0.11535 0.13426,-0.15795c0.22361,-0.1118 0.33541,0.1118 0.33541,0.1118c0.0159,0.03245 0.03095,0.06499 0.04516,0.09761c0.47529,0.17168 0.83486,0.67459 1.04507,1.25213l0.34424,-0.0656c0,0 0.24609,-0.04403 0.29012,0.20206zM238.98325,171.85761c-0.19674,-0.15425 -0.0425,-0.35099 -0.0425,-0.35099l0.06291,-0.08024c0.17898,-0.22661 0.33594,-0.47741 0.45277,-0.74101c-0.41289,-0.06734 -0.82448,-0.17129 -1.27387,-0.19018c-0.30527,0.54771 -0.40042,1.14717 -0.29288,1.76667l0.13272,-0.00004c1.05298,-0.00451 1.74902,-0.0441 2.6774,-0.56543c0.11301,-0.21058 0.09602,-0.61004 -0.01106,-1.0272c-0.24933,0.06412 -0.48677,0.08139 -0.71891,0.07224c-0.13551,0.35103 -0.33388,0.68681 -0.57269,0.99343l-0.06291,0.08024c0,0 -0.15425,0.19674 -0.35099,0.0425zM239.59927,169.22875c-0.11313,-0.00292 -0.22978,0.03297 -0.34773,0.11724c-0.29946,0.21397 -0.5502,0.44507 -0.75302,0.68992c0.37833,0.05781 0.74304,0.15807 1.11099,0.20583c0.08221,-0.3348 0.08978,-0.67937 -0.01025,-1.01299zM240.16026,169.5627c0.01749,0.23558 -0.0008,0.4711 -0.04897,0.70289c0.13847,-0.00702 0.27843,-0.0271 0.42073,-0.06503c-0.10029,-0.24092 -0.22699,-0.46544 -0.37176,-0.63786zM241.37323,165.42555c-0.00576,0.24993 -0.2557,0.24417 -0.2557,0.24417l-0.4427,-0.01045c-0.87947,-0.06851 -1.70843,-0.05853 -2.54692,-0.03538c-0.06627,0.83409 -0.13765,1.66225 -0.15548,2.49147l-0.00336,0.42695c0,0 -0.00186,0.23436 -0.2289,0.24745c0.02147,0.02028 0.04281,0.04048 0.064,0.06059l0.24928,-0.01939c0.80269,-0.2412 1.34504,-0.83496 2.13201,-1.11712c2.74087,-2.83677 0.90074,-5.01278 -2.00707,-4.74901c0.07437,0.07407 0.07437,0.18548 0.07437,0.18548c0,0.67314 -0.03901,1.3383 -0.08815,1.99893c0.84932,-0.01838 1.69943,-0.03453 2.54378,0.01115l0.42067,0.00946c0,0 0.24993,0.00576 0.24417,0.2557zM236.30064,165.66979c0,0 -0.25,0 -0.25,-0.25c0,-0.25 0.25,-0.25 0.25,-0.25c0.45356,0.00557 0.90873,-0.00081 1.3645,-0.00993c0.04892,-0.66316 0.08761,-1.33126 0.08761,-2.00956c0,0 0,-0.07047 0.03742,-0.13659c-0.36423,0.05851 -0.74197,0.15426 -1.12691,0.29046c-3.52952,1.24465 -1.06224,3.48531 0.80584,5.23121l0.00346,-0.43165c0.02045,-0.82276 0.09076,-1.64105 0.15582,-2.46507c-0.43419,0.01327 -0.87405,0.02659 -1.32774,0.03111zM238.23512,169.29794c0.02097,0.04606 0.0344,0.10728 0.00951,0.1734c0.11808,-0.11942 0.24894,-0.23121 0.3931,-0.33391c-0.12862,0.06081 -0.26205,0.1153 -0.40261,0.16051z" fill="#000000" stroke-width="0.5"/><path d="M249.38748,169.06525c0.04245,-0.24637 0.28882,-0.20392 0.28882,-0.20392l0.48765,0.31063c-0.0226,0.35258 -0.05996,0.7044 -0.1087,1.05433c-0.10827,0.20949 -0.46876,1.02805 -0.77333,1.02169c-0.63254,-0.01322 -0.87631,-1.62778 -0.95595,-2.03276c-0.1042,-0.52987 -0.12209,-1.40104 -0.2039,-2.21025c-0.08364,0.12408 -0.17465,0.20522 -0.2724,0.20904c-0.20265,0.00793 -1.01239,-1.63748 -1.11832,-1.59944c-0.00231,0.00083 -0.00461,0.0017 -0.0069,0.00261l-0.00425,0.01847c-0.13108,0.56574 -0.2668,1.62147 -0.58273,2.2594c2.29622,-0.98098 0.5361,2.43085 -1.01062,2.18928c-1.56078,-0.24377 -2.23673,-3.12786 -2.80873,-4.26905c0,0 -0.1118,-0.22361 0.1118,-0.33541c0.22361,-0.1118 0.33541,0.1118 0.33541,0.1118c0.46625,0.93465 1.15739,3.79237 2.43952,3.99878c0.58092,0.09352 2.68706,-1.97083 1.0629,-1.21069l-0.37336,0.29564c-0.04289,0.03459 -0.09744,0.0553 -0.15683,0.0553c-0.13807,0 -0.25,-0.11193 -0.25,-0.25c0,-0.02399 0.00338,-0.04719 0.00969,-0.06915l0.12586,-0.47803l0.04373,0.01151c0.03446,-0.23603 0.07995,-0.46687 0.13181,-0.69577c-0.15634,0.00038 -0.36085,-0.16032 -0.64368,-0.58293c0,0 -0.1118,-0.22361 0.1118,-0.33541c0.22361,-0.1118 0.33541,0.1118 0.33541,0.1118c0.0977,0.51192 0.31122,-0.03546 0.54754,-0.57271c0.02862,-0.11427 0.05653,-0.22962 0.08319,-0.34645l0.03676,-0.15982c0,0 0.05214,-0.22668 0.27449,-0.19245c0.02873,-0.02509 0.05703,-0.04113 0.08473,-0.04612c0.6422,-0.11564 1.12123,1.20068 1.22375,1.58884c0.06236,0.23612 0.10195,-0.09409 0.1611,-0.48085c-0.06927,-0.35559 -0.16604,-0.66381 -0.30817,-0.87677c-0.62945,-0.94318 -1.18353,-1.26203 -1.0854,-2.2198l-0.07033,-0.00067l0.00477,-0.49968c0.00112,-0.13711 0.11262,-0.24792 0.24999,-0.24792c0.12777,0 0.23316,0.09586 0.24817,0.21958l0.06563,0.47885c0.02729,0.09613 0.05434,0.19232 0.08129,0.28854c0.14007,0.20961 0.2651,0.43392 0.37748,0.66952c2.27839,-3.73595 2.93309,2.63398 1.8789,3.54497c-0.74394,0.64288 -1.024,-0.2865 -1.06668,-1.15534c-0.014,0.03819 -0.02837,0.07629 -0.04311,0.11397c0.14507,0.71223 0.25585,1.4269 0.37451,2.08347c0.04785,0.26476 0.29245,2.07237 0.57944,2.11641c0.24003,0.03683 0.16416,-0.45894 0.27843,-0.67321c0.03854,-0.3106 0.06646,-0.62262 0.0863,-0.93498l-0.07355,0.21395c0,0 -0.24637,-0.04245 -0.20392,-0.28882zM247.76369,164.47385c0.14624,0.36883 0.26754,0.75821 0.37173,1.15692c0.01229,-0.039 0.02533,-0.07413 0.0392,-0.10422l0.05009,-0.46246c0.01207,-0.12682 0.11888,-0.22602 0.24886,-0.22602c0.11808,0 0.21704,0.08186 0.24322,0.19193l0.12511,0.47858l-0.09465,0.02474c0.15935,0.61238 0.03561,1.10859 0.18699,1.82252c0.09948,0.46915 0.15064,-0.9504 0.15923,-1.42991c0.00645,-0.36005 0.25617,-2.64079 0.13282,-2.77834c-0.17018,-0.18977 -0.33631,0.38615 -0.53271,0.54863c-0.31486,0.26048 -0.6159,0.52346 -0.92991,0.77761z" fill="#000000" stroke-width="0.5"/></g></g></svg>