<svg version="1.1" xmlns="http://www.w3.org/2000/svg" xmlns:xlink="http://www.w3.org/1999/xlink" width="40.02099" height="119.82991" viewBox="0,0,40.02099,119.82991"><g transform="translate(-224.3395,-122.5)"><g data-paper-data="{&quot;isPaintingLayer&quot;:true}" fill-rule="nonzero" stroke="none" stroke-linecap="butt" stroke-linejoin="miter" stroke-miterlimit="10" stroke-dasharray="" stroke-dashoffset="0" style="mix-blend-mode: normal"><g stroke-width="1"><path d="M263.3,191.8c0,0 0.9,2.3 0.3,2.9c-0.7,0.7 -3.3,1 -3.9,0.1c-0.6,-1 0.2,-3.7 1.1,-3.7c0.8,-0.1 1.9,-0.3 2.5,0.7z" fill="#ffc19f"/><path d="M262.3,192.1c0,0 -0.7,2.1 -2.6,1.4c0,0 -1,1.5 -1.8,0.9c-0.8,-0.6 0.5,-1 1,-1.5c0.5,-0.5 1.2,-1.9 2.1,-2c0.8,-0.2 1.3,0.8 1.3,1.2zM263.7,193.8c0,0 0,0.5 0.3,1.2c0.2,0.7 0.7,2.7 0,2.2c-0.7,-0.5 -1.2,-2.5 -1.2,-2.5c0,-0.1 0.9,-0.9 0.9,-0.9z" fill="#ffc19f"/><path d="M262.8,194.3c0.1,0.1 0.2,2.1 0.2,2.5c0.1,0.4 0.2,1.8 -0.3,1.7c-0.6,-0.1 -0.5,-1.3 -0.6,-2.1c-0.1,-0.6 -0.5,-1.8 -0.5,-1.8z" fill="#ffc19f"/><path d="M261.7,194.4l0.1,0.7l-0.3,2.1c-0.1,0.8 0.1,1.6 -0.4,1.5c-0.7,-0.1 -0.6,-1.5 -0.6,-2.2c0,-0.7 -0.1,-1.8 -0.1,-1.8c0.1,-0.1 1.3,-0.3 1.3,-0.3z" fill="#ffc19f"/><path d="M259.5,194c0,0 0,1.3 -0.2,1.9c-0.2,0.6 -0.5,1.5 -0.3,1.9c0.3,0.4 0.6,0.2 0.8,-0.4l1,-2.5l-0.1,-0.5zM226.3,179.4c-0.5,0.1 -0.9,0.2 -1.2,0.3l0.1,-4.9c0,-0.3 0,-1.8 0.4,-3.8c0.2,-1.4 0.5,-1.6 0.6,-1.7c1.5,-1.6 5.1,-0.7 5.3,2.8c0.1,1.8 -0.4,4.4 -1.1,7.6c-0.8,-0.2 -1.8,-0.4 -2.9,-0.4c-0.5,0 -0.9,0 -1.2,0.1zM227.9,191.1c0.9,0 1.7,2.7 1.1,3.7c-0.6,0.9 -3.2,0.6 -3.9,-0.1c-0.6,-0.6 0.3,-2.9 0.3,-2.9c0.6,-1 1.7,-0.8 2.5,-0.7z" fill="#ffffff"/><path d="M227.7,190.9c0.9,0.1 1.6,1.5 2.1,2c0.5,0.5 1.8,0.9 1,1.5c-0.8,0.6 -1.8,-0.9 -1.8,-0.9c-1.9,0.7 -2.6,-1.4 -2.6,-1.4c0,-0.4 0.5,-1.4 1.3,-1.2zM225.9,194.7c0,0 -0.5,2 -1.2,2.5c-0.7,0.5 -0.2,-1.5 0,-2.2c0.3,-0.7 0.3,-1.2 0.3,-1.2z" fill="#ffc19f"/><path d="M227.1,194.6c0,0 -0.4,1.2 -0.5,1.8c-0.1,0.8 0,2 -0.6,2.1c-0.5,0.1 -0.4,-1.3 -0.3,-1.7c0,-0.4 0.1,-2.4 0.2,-2.5z" fill="#ffc19f"/><path d="M228.3,194.7c0,0 -0.1,1.1 -0.1,1.8c0,0.7 0.1,2.1 -0.6,2.2c-0.5,0.1 -0.3,-0.7 -0.4,-1.5l-0.3,-2.1l0.1,-0.7c0,0 1.2,0.2 1.3,0.3z" fill="#ffc19f"/><path d="M229.2,194c0,0 0,1.3 0.2,1.9c0.2,0.6 0.5,1.5 0.3,1.9c-0.3,0.4 -0.6,0.2 -0.8,-0.4l-1,-2.5l0.1,-0.5zM225.4,191.7c-0.2,-4.6 -0.6,-7.8 -0.6,-10.9c0,-4 5.3,-5.2 5.6,-0.3c0.2,2.6 -0.4,6.8 -1.5,11.9c-0.2,0.7 -3.4,0.1 -3.5,-0.7z" fill="#ffc19f"/></g><path d="M234.3,173.3c-3.1,-0.6 -6,-0.9 -9.7,-2.6c1.5,-4.7 3.6,-11.1 5.2,-12.4c0.8,-0.4 5,-1.8 8.5,-2c-0.1,0.1 -0.2,0.1 -0.3,0.1c-3,4.8 -2.1,10.6 -3.7,16.9z" fill="#ffffff" stroke-width="1"/><g><path d="M257.8,167.1c-0.2,4.6 0.2,7.8 0.2,10.9c0,4 5.6,5.2 5.9,0.3c0.2,-2.6 -0.7,-6.8 -1.8,-11.9c-0.2,-0.8 -4.3,-0.1 -4.3,0.7zM257.2,193.8c0.1,3 0,5.6 -0.2,7.5c-0.3,2.9 -0.7,5.3 -1.1,7.9c-0.3,1.6 -0.5,3 -0.7,4l-7.6,-0.4c0,0 -3.2,-12 -3.6,-19z" fill="#ffc19f" stroke-width="1"/><path d="M262.10844,166.35072c1.1,5.1 2.01961,9.39067 1.81961,11.99067c-0.3,4.9 -5.95593,3.70011 -5.95593,-0.29989c0,-3.1 -0.39281,-6.38702 -0.19281,-10.98702c0,-0.8 4.12913,-1.50376 4.32913,-0.70376z" data-paper-data="{&quot;noHover&quot;:false,&quot;origItem&quot;:[&quot;Path&quot;,{&quot;applyMatrix&quot;:true,&quot;segments&quot;:[[[257.8,167.1],[0,-0.8],[-0.2,4.6]],[[258,178],[0,-3.1],[0,4]],[[263.9,178.3],[-0.3,4.9],[0.2,-2.6]],[[262.1,166.4],[1.1,5.1],[-0.2,-0.8]]],&quot;closed&quot;:true,&quot;fillColor&quot;:[0,0,0,1]}]}" fill="#ffffff" stroke-width="0.5"/><path d="M255.3,212.7c-0.1,3.3 -0.4,6.9 -0.8,10.5c-0.4,4.1 -1,8 -1.6,11.6h-6c-0.8,-8.3 -2.4,-18.5 0.6,-22.6zM233.1,201.9c1.1,5.2 0.5,10.9 0.5,10.9l8,0.4c0,0 1,-5.6 1.6,-10.8z" fill="#ffc19f" stroke-width="1"/><path d="M243.23501,202.3643c-0.6,5.2 -1.60895,10.87837 -1.60895,10.87837l-8.0588,-0.40489c0,0 0.59943,-5.77506 -0.50057,-10.97506z" data-paper-data="{&quot;noHover&quot;:false,&quot;origItem&quot;:[&quot;Path&quot;,{&quot;applyMatrix&quot;:true,&quot;segments&quot;:[[[233.1,201.9],[0,0],[1.1,5.2]],[233.6,212.8],[241.6,213.2],[[243.2,202.4],[-0.6,5.2],[0,0]]],&quot;closed&quot;:true,&quot;fillColor&quot;:[0,0,0,1]}]}" fill="#ffc19f" stroke-width="0.5"/><path d="M241.6,212.7c-0.1,3.3 -0.4,6.9 -0.8,10.5c-0.4,4.1 -1,8 -1.6,11.6h-6c-0.8,-8.3 -2.4,-18.5 0.6,-22.6z" fill="#ffc19f" stroke-width="1"/></g><path d="M257.2,185.6l1,13.7l0.5,9.9c-2.2,0.6 -9.3,0.4 -9.3,0.4c0,0 -1.5,-0.2 -2,-0.2c-1.2,-0.1 -2,-0.2 -2,-0.2l-0.9,-11.7v0c-1.9,-6.4 -2.7,-10.7 -2.7,-11.4l3.3,0.2h3l1.7,-0.1c-0.1,-0.1 -0.1,0 0,0z" fill="#454551" stroke-width="1"/><path d="M244.4,197.6v0c-1.9,-6.4 -2.7,-10.7 -2.7,-11.4l3.3,0.2h0.8l1.7,11.4l-0.3,11.7l-1.8,-0.2z" fill="#383842" stroke-width="1"/><g fill="#454551" stroke-width="1"><path d="M245.5,186.4l-0.2,13.7l-0.3,9.9c-2.2,0.4 -6.2,-0.1 -9.2,-0.4v0c0,-0.1 -1.5,-0.3 -2,-0.4c-1.1,-0.2 -1.9,-0.4 -1.9,-0.4l0.2,-11.7v0c-1.4,-6.6 0.9,-11 1,-11.6l0.5,0.4l2.9,0.2h1.7z"/><path d="M238.1,186.2c0.2,1.8 1.2,14.4 -2.3,23.3c-0.7,-0.1 -1.4,-0.2 -1.9,-0.3c-1.2,-0.2 -2,-0.4 -2,-0.4l0.2,-11.7v0c-1.4,-6.6 0.9,-11 1,-11.6l0.5,0.4l2.9,0.2z"/></g><path d="M254.7,173.9c-0.6,-4.4 1,-16.1 1.1,-16.4c2.1,0.4 3.1,0.6 3.6,1.4c1.2,1.8 2,4.7 4.9,12.5c-0.6,0.7 -9.2,3.5 -9.6,2.5z" fill="#ffffff" stroke-width="1"/><path d="M259.8,192.4c-1.1,-5.1 -1.7,-9.3 -1.5,-11.9c0.3,-4.9 5.6,-3.7 5.6,0.3c0,3.1 -0.4,6.3 -0.6,10.9c-0.1,0.8 -3.4,1.4 -3.5,0.7z" fill="#ffc19f" stroke-width="1"/><path d="M258.3,191c-9.6,4.1 -20.8,4.3 -28.1,-1c0.8,-13.1 2.1,-24.8 7.4,-33.6c8,-1.2 12.1,-0.6 19.4,1.4c0.5,0.2 0.9,0.4 1.2,0.6c-2.5,10.5 0.2,32.6 0.1,32.6z" fill="#ffffff" stroke-width="1"/><path d="M257.3,178.6c-6.7,2 -13.1,2.3 -26,-0.9c0.5,-4.1 1.1,-7.2 2.2,-10c8.7,1.8 16.4,2.4 23.6,1c-0.1,1.4 -0.1,2.9 0,4.4c0.1,1.8 0.1,3.7 0.2,5.5zM244.5,161.9c-3.7,-0.2 -6.6,-2.7 -6.4,-5.5c0.1,-0.2 9.7,-1 13.5,0.1v0.7c-0.2,2.8 -3.3,4.8 -7.1,4.7z" fill="#ffffff" stroke-width="1"/><path d="M250.4,148.5l-0.5,8.2c-0.1,1.8 -2.4,3.1 -5.2,2.9c-2.8,-0.2 -4.9,-1.8 -4.8,-3.5l0.5,-8.2zM258.1,143.9c0,1.8 -1.4,3.3 -2.6,3.4c-1.3,0.1 -1.8,-1.2 -2,-3c-0.2,-1.7 0.7,-3.2 1.9,-3.4c1.7,0 2.7,1.3 2.7,3z" fill="#f4b18c" stroke-width="1"/><path d="M257.8,137c0.2,8.7 -5.2,12.7 -13,13c-7.7,0.3 -14.6,-6 -14.8,-14.6c0.8,-6.6 5.9,-9.2 13.7,-9.5c2.7,-0.1 5.3,0.1 7.4,0.8c1.4,0.5 2.6,0.7 2.2,-1.6c2.6,1.3 2.5,3.1 2,4.2c1.5,1.7 2.5,4.2 2.5,7.7z" fill="#2b1407" stroke-width="1"/><path d="M244.6,129.4c5.8,-0.3 9.5,0.2 11.4,5.2c0.6,1.4 1.1,13.4 -0.4,16.2c-1.2,2.4 -6.6,4.4 -8.2,4.5c-2.3,0.1 -9.4,-1.9 -11.2,-3.9c-1.7,-1.9 -2.8,-14.9 -2.1,-16.6c1.7,-4.2 5.1,-5.3 10.5,-5.4z" fill="#ffc19f" stroke-width="1"/><path d="M246.9,147.4c-0.1,0 -0.2,-0.1 -0.2,-0.1c0.1,-0.5 0.5,-0.9 1.1,-0.9c0.6,0 1,0.3 1.1,0.9c0,0 0,0.1 -0.1,0.1c0,0 -0.1,0 -0.1,-0.1c-0.1,-0.4 -0.4,-0.7 -0.9,-0.7c-0.4,0 -0.7,0.3 -0.8,0.7c0,0.1 0,0.1 -0.1,0.1z" fill="#f4b18c" stroke-width="1"/><path d="M235.4,142.9c-0.3,4.3 -0.7,3.6 -2.1,3.7c-1.4,0.1 -3.3,-5.3 -3.2,-11.7c0.4,-1.3 4,-3.3 4.6,-3.6c0.4,2.5 0.8,9.6 0.7,11.6z" fill="#2b1407" stroke-width="1"/><path d="M254,141.1c1.5,0.8 2,2.9 1.1,4.1c-0.9,1.2 -3.3,1.1 -4.4,0.3c-0.7,-0.5 -0.8,-2 -0.1,-3.3c0.7,-1.3 2.1,-1.9 3.4,-1.1z" fill="#f9feff" stroke-width="1"/><path d="M255.2,145.3c0.3,-0.5 0.4,-1.3 0.3,-2c-0.2,-0.9 -0.8,-1.7 -1.5,-2.1c-1.2,-0.7 -2.7,-0.2 -3.4,1.1c0.7,-1.8 3.4,-2.6 4.6,-0.6c0.9,1.5 0.3,3.3 0,3.6zM252.9,142.1c0.8,0.4 1.2,1.4 0.9,2.3c-0.3,0.9 -1.2,1.3 -2,1c-0.8,-0.4 -1.2,-1.4 -0.9,-2.3c0.3,-0.9 1.2,-1.4 2,-1z" fill="#000000" stroke-width="1"/><path d="M251.6,142.6c0.3,0.1 0.4,0.3 0.3,0.6c-0.1,0.3 -0.4,0.4 -0.6,0.3c-0.3,-0.1 -0.4,-0.3 -0.3,-0.6c0.1,-0.2 0.4,-0.4 0.6,-0.3z" fill="#fefffe" stroke-width="1"/><path d="M244.3,142.4c0.9,1.3 0.8,2.7 0.1,3.3c-1.2,0.9 -4,1.1 -5.1,0c-1,-1.1 -0.6,-3.3 1.1,-4.2c1.4,-0.9 3,-0.4 3.9,0.9z" fill="#f9feff" stroke-width="1"/><path d="M239.1,142.1c1.3,-2.1 4.4,-1.4 5.3,0.3c-0.9,-1.3 -2.6,-1.7 -3.9,-0.9c-0.8,0.5 -1.4,1.3 -1.5,2.2c-0.1,0.7 0.1,1.5 0.5,2c-0.6,-0.3 -1.4,-2 -0.4,-3.6z" fill="#000000" stroke-width="1"/><path d="M240,144c0,-0.99411 0.80589,-1.8 1.8,-1.8c0.99411,0 1.8,0.80589 1.8,1.8c0,0.99411 -0.80588,1.8 -1.8,1.8c-0.99411,0 -1.8,-0.80589 -1.8,-1.8z" fill="#000000" stroke-width="1"/><path d="M240.2,143.4c0,-0.27614 0.22386,-0.5 0.5,-0.5c0.27614,0 0.5,0.22386 0.5,0.5c0,0.27614 -0.22386,0.5 -0.5,0.5c-0.27614,0 -0.5,-0.22386 -0.5,-0.5z" fill="#fefffe" stroke-width="1"/><path d="M255.5,139.2c0.2,-0.2 0.2,-0.5 0,-0.7c-1,-1.1 -2.8,-1.5 -4.4,-1.1c-0.3,0 -0.5,0.3 -0.4,0.6c0,0.3 0.3,0.5 0.6,0.4c1.2,-0.3 2.7,0 3.4,0.8c0.1,0.1 0.2,0.2 0.3,0.2c0.2,0 0.3,0 0.5,-0.2zM239.4,139.6c0.7,-0.8 2.2,-1.1 3.4,-0.8c0.2,0 0.5,-0.1 0.6,-0.4c0,-0.2 -0.1,-0.5 -0.4,-0.6c-1.6,-0.5 -3.4,0 -4.4,1c-0.2,0.2 -0.2,0.5 0,0.7c0.1,0.1 0.3,0.1 0.4,0.1c0.1,0 0.2,-0.1 0.4,0zM252.2,131.6c-1.6,1.2 -4.7,2 -8.7,2.1c-3.2,0.1 -7.5,-1.3 -10.5,-0.6c-0.6,-1.7 0.2,-4.6 4.6,-5.7c6.3,-1.7 8.3,-1.6 10.1,-4.1c0.2,0.7 0.2,1.4 0.1,2l3.4,-2.8c1.7,2.4 1.7,4.3 1,5.8c1,-0.9 1.6,-2 1.3,-3.2c2,2.3 0.5,5.1 -1.3,6.5z" fill="#2b1407" stroke-width="1"/><path d="M233.9,141.1c1.5,0.2 2.5,2 2.3,4c-0.2,2 -0.9,3.6 -2.4,3.5c-1.5,-0.2 -3.1,-1.9 -3.1,-4.1c0,-2.1 1.2,-3.6 3.2,-3.4z" fill="#ffc19f" stroke-width="1"/><path d="M251.3,149.9c0.3,1.3 -1.7,3.3 -3.7,3.3c-1.9,0 -3.3,-1.6 -3.3,-3c0.1,-0.8 1.4,-0.6 3.3,-0.7c1.9,-0.1 3.5,-0.4 3.7,0.4z" fill="#000000" stroke-width="1"/><path d="M249.9,152.4c-0.5,0.6 -1.3,0.8 -2.1,0.8c-0.7,0 -1.4,-0.3 -1.9,-0.6c0.4,-0.4 1.1,-0.7 2,-0.7c0.8,0 1.8,0.1 2,0.5z" fill="#b71521" stroke-width="1"/><path d="M247.7,150.3c-1.2,0.1 -2.1,-0.2 -2.4,-0.8c0.6,-0.1 1.4,0 2.5,-0.1c0.9,-0.1 1.9,-0.3 2.6,-0.1c-0.2,0.7 -1.3,1 -2.7,1z" fill="#ffffff" stroke-width="1"/><path d="M259.9,241.3c-1.8,1.8 -13.2,0.4 -13.2,0.4c-0.1,-1.2 -0.5,-6.3 -0.5,-7.3c-0.1,-0.5 7.2,-1 7.3,-0.7c0.1,0.4 0.2,2.6 0.3,2.9c3.9,1.2 6,1.8 6.1,4.7z" fill="#09598c" stroke-width="1"/><path d="M259.8,241.1c0.1,0.1 0.1,0.2 0,0.3c-1.7,1.9 -13.2,0.3 -13.2,0.3v-0.7c2.9,0.3 10.1,1 13.2,0.1z" fill="#b3b3b3" stroke-width="1"/><path d="M253.7,235.4l-7.4,1.1l-0.1,-2.1c-0.1,-0.5 7.2,-1 7.3,-0.7c0.1,0.2 0.2,1.1 0.2,1.7z" fill="#1c000b" stroke-width="1" opacity="0.22"/><path d="M254,235.4l-8.1,0.4c0,-0.8 -0.1,-1.4 -0.1,-1.7c0,-0.4 7.9,-0.8 8,-0.6c0.1,0.2 0.2,1.2 0.2,1.9z" fill="#e6e6e6" stroke-width="1"/><path d="M253.4,237.7c0,0.1 0,0.1 -0.1,0.1h-0.1c-0.1,0 -0.2,-0.1 -0.1,-0.2c0.4,-0.7 1.2,-1.1 1.9,-1c0,0 0.1,0.1 0.1,0.2c0,0 -0.1,0.1 -0.2,0.1c-0.6,-0.1 -1.3,0.3 -1.5,0.8zM254.1,237.9c0,0.1 -0.1,0.1 -0.1,0.1h-0.1c0,0 -0.1,-0.1 0,-0.2c0.4,-0.6 1.2,-0.9 1.9,-0.9c0.1,0 0.2,0.1 0.2,0.2c0,0.1 -0.1,0.2 -0.2,0.2c-0.4,0 -1.1,0.1 -1.7,0.6zM257,237.3c0,0.1 -0.1,0.2 -0.2,0.2c-0.5,-0.1 -1.2,0.3 -1.7,0.8c0,0.1 -0.1,0.1 -0.1,0.1h-0.1c-0.1,0 -0.1,-0.1 0,-0.2c0.5,-0.6 1.3,-1 2,-0.9c0,0 0.1,0.1 0.1,0z" fill="#e9edf4" stroke-width="1"/><path d="M246.4,241.3c-1.8,1.8 -13.2,0.4 -13.2,0.4c-0.1,-1.2 -0.5,-6.3 -0.5,-7.3c-0.1,-0.5 7.2,-1 7.3,-0.7c0.1,0.4 0.2,2.6 0.3,2.9c3.9,1.2 6,1.8 6.1,4.7z" fill="#09598c" stroke-width="1"/><path d="M246.3,241.1c0.1,0.1 0.1,0.2 0,0.3c-1.7,1.9 -13.2,0.3 -13.2,0.3v-0.7c2.9,0.3 10.1,1 13.2,0.1z" fill="#b3b3b3" stroke-width="1"/><path d="M240.2,235.5l-7.4,1l-0.1,-2.1c-0.1,-0.5 7.2,-1 7.3,-0.7z" fill="#1c000b" stroke-width="1" opacity="0.22"/><path d="M240.5,235.4l-8.1,0.4c0,-0.8 -0.1,-1.4 -0.1,-1.7c0,-0.4 7.9,-0.8 8,-0.6c0.1,0.2 0.2,1.2 0.2,1.9z" fill="#e6e6e6" stroke-width="1"/><path d="M239.9,237.7c0,0.1 0,0.1 -0.1,0.1h-0.1c-0.1,0 -0.2,-0.1 -0.1,-0.2c0.4,-0.7 1.2,-1.1 1.9,-1c0,0 0.1,0.1 0.1,0.2c0,0 -0.1,0.1 -0.2,0.1c-0.6,-0.1 -1.3,0.3 -1.5,0.8zM240.6,237.9c0,0.1 -0.1,0.1 -0.1,0.1h-0.1c0,0 -0.1,-0.1 0,-0.2c0.4,-0.6 1.2,-0.9 1.9,-0.9c0.1,0 0.2,0.1 0.2,0.2c0,0.1 -0.1,0.2 -0.2,0.2c-0.4,0 -1.1,0.1 -1.7,0.6zM243.4,237.3c0,0.1 -0.1,0.2 -0.2,0.2c-0.5,-0.1 -1.2,0.3 -1.7,0.8c0,0.1 -0.1,0.1 -0.1,0.1h-0.1c-0.1,0 -0.1,-0.1 0,-0.2c0.5,-0.6 1.3,-1 2,-0.9c0.1,0 0.2,0.1 0.1,0z" fill="#e9edf4" stroke-width="1"/><path d="M251.5664,166.95563c0.23611,-0.08216 0.31827,0.15395 0.31827,0.15395l0.01203,0.03456c0.16974,0.50043 0.4465,0.90352 0.69726,1.33067c0.22094,-0.40336 0.41795,-0.83289 0.67405,-1.1782l0.13796,-0.44166c0.02999,-0.10445 0.12623,-0.18088 0.24032,-0.18088c0.13731,0 0.24876,0.1107 0.24999,0.24771l0.00523,0.49964l-0.09604,0.001c0.01481,0.71838 -0.31137,1.24224 -0.82598,1.58251l0.13223,0.26263c0.01848,0.03488 0.02895,0.07466 0.02895,0.11689c0,0.13807 -0.11193,0.25 -0.25,0.25c-0.0429,0 -0.08328,-0.01081 -0.11855,-0.02984l-0.44043,-0.22611l0.00136,-0.00264l-0.01166,-0.00296c-0.00227,-0.00149 -0.00454,-0.00298 -0.00682,-0.00446c-0.32928,0.32608 -0.68258,0.56373 -1.04399,0.59217c-0.23672,0.16378 -0.61993,0.05965 -1.16251,-0.52168l-0.19366,-0.10316c-0.20624,-0.0517 -0.40935,-0.11649 -0.60601,-0.19414c-0.02869,-0.01133 -0.05647,-0.02258 -0.08336,-0.03376c-0.02198,0.67314 -0.06538,1.32319 -0.25684,1.66598c-1.12187,2.00867 -2.14912,-0.97354 -2.14912,-1.86482c0,0 0,-0.25 0.25,-0.25c0.25,0 0.25,0.25 0.25,0.25c0,0.30928 -0.10139,0.63211 -0.01066,0.92778c0.64914,2.11541 1.12519,0.62416 1.44681,-0.97319c-0.34057,-0.2401 -0.23019,-0.42885 0.10383,-0.54431c0.1648,-0.90593 0.27928,-1.71532 0.34699,-1.76347c0.42011,-0.29873 1.32138,0.46224 1.63519,0.66049c0.33678,0.32022 0.56159,0.82336 0.66253,1.31621c0.03736,0.02015 0.07315,0.04126 0.10719,0.06334c0.20283,0.02265 0.40418,0.07726 0.59516,0.15619c-0.35058,-0.43226 -0.63308,-1.02566 -0.78163,-1.44362l-0.01203,-0.03456c0,0 -0.08216,-0.23611 0.15395,-0.31827zM249.2524,168.23008c0.50018,-0.07119 1.17933,-0.04568 1.73814,0.10543c-0.12508,-0.29277 -0.28908,-0.56828 -0.45541,-0.72381c-0.057,-0.03563 -1.01914,-0.66539 -1.02501,-0.65891c-0.17866,0.19689 -0.23247,0.69465 -0.25772,1.2773zM253.46736,167.87642c-0.18857,0.27636 -0.40591,0.59899 -0.64396,0.90681c0.18183,-0.0336 0.33301,-0.0798 0.44098,-0.13989c0.20682,-0.11512 0.20097,-0.43864 0.20299,-0.76692zM248.93099,168.29658c0.03087,-0.00894 0.06323,-0.01733 0.09695,-0.02518c-0.11926,-0.0375 -0.18599,-0.0483 -0.11125,0.01369c0.00463,0.00384 0.0094,0.00767 0.0143,0.01149zM249.24775,168.34638c-0.00142,0.0384 -0.00274,0.07709 -0.004,0.11603c0.39888,0.15743 1.02242,0.2785 1.66828,0.34206c-0.42043,-0.15918 -0.85899,-0.23213 -1.3228,-0.34603c-0.08072,-0.01982 -0.21313,-0.06681 -0.34147,-0.11205z" fill="#000000" stroke-width="0.5"/><path d="M245.31538,168.34582c-0.00479,0.12981 -0.07453,0.18968 -0.14044,0.21725c0.04255,0.22699 0.08482,0.45471 0.11174,0.69784c0.21289,-0.01852 0.37975,-0.06054 0.43106,-0.14388c0.3847,-0.62478 -0.2806,-2.48147 -0.87985,-2.83632c-0.60014,-0.35537 -1.74684,1.1353 -1.59682,1.82366c0.03693,-0.01719 0.08311,-0.02528 0.14051,-0.0159c-0.00599,-0.04262 0.00063,-0.09258 0.02928,-0.14988c0.1118,-0.22361 0.33541,-0.1118 0.33541,-0.1118c0.25946,0.13286 0.55015,0.21638 0.84074,0.24165c-0.03328,-0.2245 -0.05676,-0.45913 -0.05732,-0.71668l-0.00035,-0.44605c0,0 -0.00019,-0.25 0.24981,-0.25019c0.25,-0.00019 0.25019,0.24981 0.25019,0.24981l0.00035,0.44535c0.00057,0.26483 0.02605,0.50591 0.06158,0.73768c0.05554,0.00724 0.23189,0.04684 0.22413,0.25747zM244.55732,168.56769c-0.32972,-0.03225 -0.65868,-0.12096 -0.96077,-0.25874c0.00368,0.04844 -0.00506,0.08531 -0.00506,0.08531l-0.05868,0.24758c-0.15113,0.51173 -0.12448,0.63053 0.42567,0.58938c0.12242,-0.00084 0.47182,0.0312 0.82865,0.03992c-0.02691,-0.24264 -0.06949,-0.47064 -0.11233,-0.69903zM245.31554,169.7677c0,0 0,0.25 -0.25,0.25c-0.25,0 -0.25,-0.25 -0.25,-0.25c0,-0.00218 0,-0.00436 -0.00001,-0.00654c-0.33178,-0.00405 -0.64837,-0.03137 -0.85522,-0.02995c-0.86183,-0.03945 -1.0748,-0.32924 -0.92629,-1.14055c-0.13041,-0.01184 -0.19562,-0.14225 -0.19562,-0.14225c-0.4589,-0.99387 0.94653,-3.14651 2.21289,-2.61987c0.87178,0.36254 1.6435,2.78125 1.07931,3.5705c-0.15447,0.21609 -0.46593,0.30888 -0.81514,0.34398c0.00005,0.0082 0.00007,0.01643 0.00007,0.02467z" fill="#000000" stroke-width="0.5"/><path d="M247.60529,161.46653c0.00024,0.07094 -0.01971,0.12182 -0.04843,0.15831c0.3126,0.84147 0.22297,1.84832 -0.50259,2.27059c-0.88242,0.71854 -1.82191,0.40867 -2.62328,-0.19825c-1.98411,-0.27033 -0.25144,-2.75269 1.01976,-3.28344c0.03396,-0.23514 0.09479,-0.45753 0.19293,-0.66119l0.033,-0.32379c0,0 0.0351,-0.24752 0.28263,-0.21242c0.24752,0.0351 0.21242,0.28263 0.21242,0.28263l-0.08049,0.47651c-0.05168,0.09955 -0.09156,0.20769 -0.12156,0.32279c0.59172,-0.01532 1.08468,0.3794 1.39647,0.91965c0.0494,0.00354 0.23841,0.0313 0.23916,0.24863zM247.06085,161.71811c-0.46671,0.02343 -0.78984,0.11668 -1.09109,0.25375c0.08338,0.6338 0.20444,1.27347 0.20444,1.78526c0,0 0,0.01616 -0.00411,0.04025c0.20398,-0.04002 0.40697,-0.13942 0.60452,-0.31643c0.57274,-0.2554 0.57707,-1.08919 0.28798,-1.76284zM244.89113,162.54964c0,0 -0.22361,0.1118 -0.33541,-0.1118c-0.1118,-0.22361 0.1118,-0.33541 0.1118,-0.33541c0.3023,-0.14971 0.55174,-0.29363 0.79047,-0.42048c-0.02306,-0.22335 -0.03932,-0.44475 -0.04225,-0.66045c-0.65513,0.44699 -1.61065,1.45896 -1.36857,1.93836l0.39927,0.10318c0.05902,0.05249 0.1195,0.10434 0.18124,0.15479c0.04741,0.00267 0.09792,0.00373 0.15164,0.00308c0,0 0.25,0 0.25,0.25c0,0.01285 -0.00066,0.02503 -0.00191,0.0366c0.2095,0.13096 0.42791,0.23234 0.64941,0.28036c-0.00263,-0.01874 -0.00263,-0.03073 -0.00263,-0.03073c0,-0.47661 -0.08146,-1.01113 -0.15301,-1.55122c-0.18697,0.10523 -0.38806,0.22171 -0.63006,0.34374zM245.89779,160.79325c-0.01136,0.21269 -0.00336,0.4381 0.01581,0.66934c0.25539,-0.10587 0.52882,-0.18474 0.86966,-0.22341c-0.24025,-0.30737 -0.55223,-0.50119 -0.88547,-0.44594z" fill="#000000" stroke-width="0.5"/></g></g></svg>