<svg version="1.1" xmlns="http://www.w3.org/2000/svg" xmlns:xlink="http://www.w3.org/1999/xlink" width="54.0725" height="110.55396" viewBox="0,0,54.0725,110.55396"><g transform="translate(-198.20898,-84.17787)"><g data-paper-data="{&quot;isPaintingLayer&quot;:true}" fill-rule="nonzero" stroke="none" stroke-width="1" stroke-linecap="butt" stroke-linejoin="miter" stroke-miterlimit="10" stroke-dasharray="" stroke-dashoffset="0" style="mix-blend-mode: normal"><path d="M205.6342,118.20464c2.21729,-1.47432 6.14028,-3.42885 10.93995,-3.37305l6.69955,0.07789c5.19965,0.06045 8.87615,2.10333 10.95857,3.62764z" fill="#303030"/><path d="M203.49946,121.18002c0,0 0.46856,-5.89495 8.45291,-4.50204z" fill="#fafae2"/><path d="M227.7513,116.86167c8.01457,-1.20691 8.34596,4.69734 8.34596,4.69734z" fill="#fafae2"/><path d="M209.94669,117.1547c1.90801,-0.67786 4.21367,-1.15109 6.7135,-1.12203l3.29861,0.13836l-3.49976,-0.04069c-2.49983,-0.02906 -4.7055,0.44533 -6.51351,1.12435z" fill="#ebd019"/><path d="M247.98337,184.47249c-0.02353,2.06812 -0.98999,3.98715 -2.62324,5.20879c-2.9935,2.17074 -8.42512,5.13986 -16.11599,5.04848l-9.57986,-0.11381c-7.96072,-0.09457 -13.18839,-3.19033 -15.99834,-5.29211c-1.47008,-1.25851 -2.39262,-3.19997 -2.36908,-5.26809l0.01255,-1.103l0.9961,-87.55043l0.01098,-0.96512c0.02353,-2.06812 0.98999,-3.98715 2.62324,-5.20879c2.9935,-2.17074 8.42512,-5.13986 16.11599,-5.04848l9.57986,0.11381c7.96072,0.09457 13.18839,3.19033 15.99677,5.42998c1.47008,1.25851 2.39262,3.19997 2.36908,5.26809l-1.00709,88.51555z" fill="#003aff"/><path d="M212.19052,89.2821c2.57461,-0.93466 5.41593,-1.59038 8.78911,-1.5503l9.04015,0.1074c7.01623,0.08335 11.97718,2.90016 14.78713,5.00194c1.60502,1.26011 2.6609,3.34105 2.63738,5.40918l-0.00942,0.82725l-0.93023,81.75969c-0.0251,2.20599 -1.12804,4.26129 -2.89623,5.48133c-2.99194,2.03285 -8.15055,4.72944 -14.62708,4.6525l-9.04015,-0.1074c-7.01623,-0.08335 -11.97718,-2.90016 -14.78713,-5.00194c-1.60502,-1.26011 -2.6609,-3.34105 -2.63738,-5.40918l0.00942,-0.82725l0.92239,-81.07032l0.00784,-0.68938c0.0251,-2.20599 1.12804,-4.26129 2.89623,-5.48133c1.49518,-0.94748 3.39829,-2.16592 5.83797,-3.1022z" fill="#000000"/><path d="M223.77004,119.54286l3.91289,0.04648c14.30232,0.16991 17.44803,8.34299 17.44803,8.34299l-0.59453,52.25451c-0.00157,0.13787 -0.00471,0.41362 -0.1412,0.5499l0.13336,0.13948c-0.1365,0.13627 -0.27299,0.27254 -0.27299,0.27254c-0.27613,0.5483 -0.82055,0.95551 -1.49989,1.36111c-2.72208,2.03606 -7.4665,3.91021 -15.42723,3.81564l-4.58754,-0.05451c-8.09565,-0.09617 -12.79459,-2.2204 -15.33625,-4.1811c-0.6715,-0.28377 -1.20493,-0.84167 -1.46852,-1.39638c-0.13336,-0.13948 -0.26672,-0.27895 -0.26672,-0.27895l0.1365,-0.13627c0.00157,-0.13787 -0.13023,-0.41522 -0.12865,-0.55311l0.59453,-52.25451c-0.13492,-0.0016 3.19588,-8.09773 17.49821,-7.92783z" fill="#000000"/><path d="M242.73911,120.73994l-3.93954,14.15621c-0.13963,0.41202 -1.49361,0.80961 -3.11275,0.79038l-21.18363,-0.25167c-1.61913,-0.01923 -2.9637,-0.4489 -3.09392,-0.86412l-3.6164,-14.24597c2.0443,-1.76832 7.21548,-5.56791 14.78083,-6.30539c10.80675,-0.97476 18.42703,5.32097 20.16541,6.72055z" fill="#2e1ad3"/><path d="M226.83816,177.88019c-9.31785,0.57877 -16.15523,-3.36347 -18.70159,-4.91055l4.13411,-7.53502c0.13807,-0.27414 1.35398,-0.39759 2.83819,-0.37997l19.15971,0.22762c1.48421,0.01764 2.69698,0.16993 2.82877,0.44728l3.96155,7.63119c-2.58245,1.62404 -7.46965,4.18595 -14.22073,4.51944z" fill="#4200ff"/><path d="M205.9345,120.40412l-0.04079,3.58474l-5.67951,1.03567c-1.08256,0.26293 -2.01764,-0.57554 -2.00509,-1.67854v0c0.00942,-0.82725 0.42046,-1.37393 1.09825,-1.64167c2.70953,-0.93306 6.49221,-1.3018 6.49221,-1.3018z" fill="#000000"/><path d="M244.75988,120.86737c0,0 3.77326,0.45851 6.46084,1.45568c0.6715,0.28377 1.07001,0.84007 1.0606,1.66732v0c-0.01255,1.103 -0.96646,1.91903 -2.04274,1.63045l-5.65441,-1.17032l0.04079,-3.58474z" fill="#000000"/><path d="M206.83426,122.0715l3.61169,14.65959l-0.14275,12.5466l-3.10333,-0.03687z" fill="#0008ff"/><path d="M242.71956,149.14373l-3.10333,-0.03687l0.14275,-12.5466l3.94425,-14.56983z" fill="#4200ff"/><path d="M207.17635,150.44717l3.10333,0.03687l-0.14902,13.0981l-3.87523,8.50335z" fill="#1d00ff"/><path d="M242.95571,172.86619l-3.68071,-8.59311l0.14902,-13.0981l3.10333,0.03687z" fill="#1000ff"/><path d="M209.01363,190.7683l-0.01882,1.6545c-0.40478,-0.00481 -1.89212,0.25331 -3.36535,-0.72945c-1.07157,-0.7022 -1.46539,-1.67213 -1.5956,-2.08736c0.41577,-0.96032 1.23317,-1.64008 2.3126,-1.62725v0c1.48421,0.01764 2.68286,1.4108 2.66717,2.78956z" fill="#d32027"/><path d="M242.37368,188.26886v0c1.07943,0.01282 1.88114,0.71181 2.40987,1.68334c-0.13963,0.41202 -0.5554,1.37233 -1.64267,2.04889c-1.49518,0.94748 -2.97782,0.79198 -3.38103,0.6493l0.01882,-1.6545c0.01569,-1.37874 1.24572,-2.74306 2.59499,-2.72704z" fill="#d32027"/><path d="M232.74362,192.56704c-0.00471,0.41362 -0.2777,0.68617 -0.68248,0.68135c-2.97155,0.24048 -6.07644,0.3415 -9.17978,0.30463c-2.56206,-0.16833 -5.12411,-0.33666 -7.68302,-0.78074c-0.40478,-0.00481 -0.66993,-0.42164 -0.5303,-0.83366c0.00471,-0.41362 0.41262,-0.68457 0.81584,-0.54188c2.42399,0.44248 4.98605,0.61081 7.5481,0.77914c2.96684,0.17314 5.93681,0.07053 8.90992,-0.30783c0.40635,-0.13307 0.808,0.14749 0.80173,0.69899c0.00157,-0.13787 0.00157,-0.13787 0,0z" fill="#fab915"/></g></g></svg>