<svg xmlns="http://www.w3.org/2000/svg" xmlns:xlink="http://www.w3.org/1999/xlink" version="1.1" id="Layer_1" x="0px" y="0px" viewBox="-0.5 20.68752670288086 81 38.62494659423828" style="enable-background:new 0 0 80 80;" xml:space="preserve" width="81" height="38.62494659423828">
<style type="text/css">
	.st0{fill:#A7B839;}
	.st1{fill:#BBD646;}
	.st2{fill:#E9E8D8;}
	.st3{fill:#2D2D2D;}
	.st4{fill:#D32027;}
</style>
<g>
	<path class="st0" d="M58.8,22.9c1.7-0.2,3.5-0.4,5.2-0.4h3.7C74.5,22.5,80,28,80,34.8V40v5.2c0,6.8-5.5,12.3-12.3,12.3H64   c-1.8,0-3.5-0.1-5.2-0.4l-5.1-0.7c-11.6,0.4-23.1,0.7-34.7,1.1H9.5C4.2,57.5,0,53.3,0,48v-8v-8c0-5.2,4.2-9.5,9.5-9.5H19   c11.6,0.4,23.1,0.7,34.7,1.1L58.8,22.9z" stroke-width="1"/>
	<path class="st1" d="M57.7,56.2c1.6,0.2,3.3,0.4,4.9,0.4h3.5c6.4,0,11.6-5.2,11.6-11.6V40v-4.9c0-6.4-5.2-11.6-11.6-11.6h-3.5   c-1.7,0-3.3,0.1-4.9,0.4c-2.2,0-4.3,0-6.5-0.1c-9.7-0.1-19.4-0.3-29-0.6c-3.4,0.1-6.9,0.2-10.3,0.3c-0.6,0-4.2-0.2-7.1,2.6   c-2.5,2.5-2.6,5.7-2.6,6.3V40v7.6c0,4.9,4,8.9,8.9,8.9h8.9c7.6,0.1,13.7,0.1,17.9,0c3.4-0.1,10-0.2,14.7-0.3   C54.3,56.3,56.3,56.2,57.7,56.2z" stroke-width="1"/>
	<path class="st2" d="M72.5,25.4c0.8,0.6,1.6,1.4,2.5,2.5c0.7,0.9,1.3,1.7,1.7,2.5c0.6-1.2,0.5-2.7-0.3-3.8   C75.5,25.4,74,25,72.5,25.4z" stroke-width="1"/>
	<path class="st2" d="M72.5,54.6c0.8-0.6,1.6-1.4,2.5-2.5c0.7-0.9,1.3-1.7,1.7-2.5c0.6,1.2,0.5,2.7-0.3,3.8   C75.5,54.6,74,55.1,72.5,54.6z" stroke-width="1"/>
	<path class="st0" d="M54.5,25.5c-0.1-0.2-0.2-0.5-0.3-0.8c-0.5-1.1-1.2-2.8-1.2-3c-0.1-0.3,0.8-0.8,1.8-0.3c1,0.5,3,3.4,3,3.4   l-0.2,0.1L57.1,25C56.6,25.1,55.7,25.3,54.5,25.5z" stroke-width="1"/>
	<path class="st0" d="M52.9,58.3c0.1-0.2,0.7-1.8,1.2-2.9c0,0,0-0.1,0-0.1c0.1-0.3,0.2-0.5,0.3-0.7c1.9,0.3,3.1,0.6,3.2,0.6   c-0.1,0.1-2,2.9-3,3.4C53.7,59.1,52.9,58.6,52.9,58.3z" stroke-width="1"/>
	<path class="st3" d="M36.3,26.6c0.3-0.8,0.5-1.6,0.9-2.4c4.7,0,10.3,0.2,17,0.5c1.1,0.1,2.2,0.1,3.4,0.2c0.1,0,0.1,0,0.2,0   c0,0-0.2,0-0.6,0.1c-0.5,0.1-1.5,0.3-2.6,0.5c-2.3,0.4-5.6,0.8-9.4,1C42.9,26.6,39.8,26.6,36.3,26.6z" stroke-width="1"/>
	<path class="st3" d="M36.5,24.2c-16.9-0.1-21.1,1.1-21.1,1.1c3.4,0.9,12.5,1.2,20.3,1.3C35.9,25.8,36.3,25,36.5,24.2z" stroke-width="1"/>
	<path class="st3" d="M37.1,55.8c-0.4-0.8-0.5-1.6-0.9-2.4c3.6,0,6.6,0,8.8,0.1c3.7,0.2,7.1,0.6,9.4,1c1.9,0.3,3.1,0.6,3.2,0.6   c-1.2,0.1-2.4,0.1-3.6,0.2C47.4,55.7,41.8,55.8,37.1,55.8z" stroke-width="1"/>
	<path class="st3" d="M36.5,55.9c-16.9,0.1-21.1-1.1-21.1-1.1c3.4-0.9,12.5-1.2,20.3-1.3C35.9,54.2,36.3,55,36.5,55.9z" stroke-width="1"/>
	<path class="st4" d="M2.6,30.1c-0.9-0.9-0.9-2.3-0.2-3.3C3,26.1,4,25.7,5.1,26c-0.3,0.6-0.6,1.3-1,2C3.6,28.8,3.1,29.5,2.6,30.1z" stroke-width="1"/>
	<path class="st4" d="M2.6,50c-0.8,1-0.9,2.3-0.2,3.3c0.6,0.8,1.7,1.1,2.7,0.9c-0.3-0.6-0.6-1.3-1-2C3.6,51.3,3.1,50.6,2.6,50z" stroke-width="1"/>
	<path class="st3" d="M19.1,39.9c0,7.7,1.5,11.2,1.5,11.2l-9.5,2.8c-1.2,0.4-2.5-0.3-2.9-1.5c-0.9-2.5-2.3-7-2.3-12.5l0,0l0,0l0,0   l0,0c0-5.4,1.4-10,2.3-12.5c0.5-1.2,1.7-1.8,2.9-1.5l9.5,2.8C20.6,28.7,19.1,32.2,19.1,39.9z" stroke-width="1"/>
	<path class="st3" d="M66.6,40L66.6,40L66.6,40L66.6,40L66.6,40c0-6.7-2.1-10.4-3.9-12.3c-1.1-1.2-2.7-1.8-4.3-1.6l-10.1,1.3   c0,0,1.4,6.5,1.4,12.6c0,6.2-1.4,12.6-1.4,12.6l10.1,1.3c1.6,0.2,3.2-0.4,4.3-1.6C64.5,50.4,66.6,46.7,66.6,40z" stroke-width="1"/>
	<path class="st2" d="M75.3,26" stroke-width="1"/>
</g>
</svg>