<svg xmlns="http://www.w3.org/2000/svg" xmlns:xlink="http://www.w3.org/1999/xlink" version="1.1" id="Layer_1" x="0px" y="0px" viewBox="-0.5 19.400001525878906 81.10000610351562 41.19999694824219" style="enable-background:new 0 0 80 80;" xml:space="preserve" width="81.10000610351562" height="41.19999694824219">
<style type="text/css">
	.st0{fill:#DBC225;enable-background:new    ;}
	.st1{fill:#3D3C3E;enable-background:new    ;}
	.st2{fill:#FFFFFF;}
	.st3{fill:#EBD019;enable-background:new    ;}
	.st4{fill:#E4CB1F;enable-background:new    ;}
	.st5{fill:#303030;}
	.st6{fill:#D32027;}
	.st7{enable-background:new    ;}
	.st8{fill:#3D3C3E;}
</style>
<g>
	<path class="st0" d="M8.3,57.3h64.2c1.5,0,2.9-0.7,3.8-1.8c1.6-2.1,3.8-6,3.8-11.9v-7.1c0-5.7-2.2-9.7-3.8-11.9   c-0.9-1.2-2.3-1.9-3.8-1.9h-0.7H8.3H7.5c-1.5,0-2.9,0.7-3.8,1.8C2.2,26.6,0,30.5,0,36.4v7.1c0,5.7,2.2,9.7,3.8,11.9   c0.9,1.2,2.3,1.9,3.8,1.9H8.3z" stroke-width="1"/>
	<path class="st1" d="M75.2,54.4c1.5-2.1,3.5-5.8,3.5-11v-6.7c0-4.8-2-8.7-3.5-10.9V54.4z" stroke-width="1"/>
	<path class="st2" d="M72.2,23.7c0,0,5.9,0.4,4.6,8.4L72.2,23.7z" stroke-width="1"/>
	<path class="st2" d="M72.2,56.3c0,0,5.9-0.4,4.6-8.4L72.2,56.3z" stroke-width="1"/>
	<path class="st3" d="M76.2,30.1c0.7,1.9,1.2,4,1.2,6.5v6.7c0,5.2-2,8.9-3.5,11c-0.9,1.2-2.4,2-3.9,2h-0.6H10.1   c-1.6,0-3.1-0.8-4-2.1c-1.5-2.2-3.5-6-3.5-10.8l0-6.7c0-5.2,2-8.9,3.5-11c0.9-1.2,2.4-2,3.9-2l0.6,0l58.8,0l0.5,0   c1.6,0,3.1,0.8,4,2.1C74.6,26.9,75.5,28.3,76.2,30.1z" stroke-width="1"/>
	<path class="st3" d="M76.3,30.1c0.7,1.9,1.2,4.2,1.2,6.7l-0.1,3.3v-3.5c0-2.5-0.5-4.7-1.2-6.5L76.3,30.1z" stroke-width="1"/>
	<path class="st4" d="M59.6,38.5l0,2.9c0,10.6-5.9,13-5.9,13l-37.9,0c-0.1,0-0.3,0-0.4-0.1l-0.1,0.1c-0.1-0.1-0.2-0.2-0.2-0.2   c-0.4-0.2-0.7-0.6-1-1.1c-1.5-2-2.9-5.5-2.9-11.4v-3.4c0-6,1.5-9.5,2.9-11.4c0.2-0.5,0.6-0.9,1-1.1c0.1-0.1,0.2-0.2,0.2-0.2   l0.1,0.1c0.1,0,0.3-0.1,0.4-0.1l37.9,0C53.7,25.5,59.6,27.9,59.6,38.5z" stroke-width="1"/>
	<path class="st5" d="M58.6,38c-0.6-5.6-3.4-9.4-4.7-10.9l-10.3,2.8c-0.3,0.1-0.6,1.1-0.6,2.3v15.7c0,1.2,0.3,2.2,0.6,2.3l10.3,2.8   C54.9,51.7,59.4,46,58.6,38z" stroke-width="1"/>
	<path class="st5" d="M15.6,52.2l5.5-3c0.2-0.1,0.3-1,0.3-2.1l0-14.2c0-1.1-0.1-2-0.3-2.1l-5.5-3c-1.1,1.9-3.9,7-3.4,13.9   C12.5,46.7,14.4,50.3,15.6,52.2z" stroke-width="1"/>
	<path class="st0" d="M53.7,25.5c0,0-0.3-2.8-1-4.8c-0.2-0.5-0.6-0.8-1.2-0.8l0,0c-0.8,0-1.4,0.7-1.2,1.5l0.8,4.2H53.7z" stroke-width="1"/>
	<path class="st0" d="M53.7,54.5c0,0-0.3,2.8-1,4.8c-0.2,0.5-0.6,0.8-1.2,0.8l0,0c-0.8,0-1.4-0.7-1.2-1.5l0.8-4.2H53.7z" stroke-width="1"/>
	<polygon class="st5" points="53,26.4 42.4,29.2 33.3,29.2 33.3,26.9  " stroke-width="1"/>
	<polygon class="st5" points="53,53.6 42.4,50.8 33.3,50.8 33.3,53.1  " stroke-width="1"/>
	<polygon class="st5" points="16.1,26.4 22.3,29.2 31.8,29.2 31.8,26.9  " stroke-width="1"/>
	<polygon class="st5" points="16.1,53.6 22.3,50.8 31.8,50.8 31.8,53.1  " stroke-width="1"/>
	<path class="st6" d="M4.7,26.6L4.7,26.6c0-0.8-0.5-1.4-1.2-1.7c-0.3,0.1-1,0.4-1.5,1.2c-0.7,1.1-0.5,2.2-0.5,2.5l1.2,0   C3.7,28.6,4.7,27.7,4.7,26.6z" stroke-width="1"/>
	<path class="st6" d="M4.8,53.3L4.8,53.3c0,0.8-0.5,1.4-1.2,1.8c-0.3-0.1-1-0.4-1.5-1.2c-0.7-1.1-0.6-2.2-0.5-2.5l1.2,0   C3.8,51.4,4.8,52.3,4.8,53.3z" stroke-width="1"/>
	<g class="st7">
		<path class="st8" d="M1.6,46.2c-0.3,0-0.5-0.2-0.5-0.5c-0.2-2.2-0.3-4.5-0.3-6.8c0.1-1.9,0.2-3.8,0.5-5.7c0-0.3,0.3-0.5,0.6-0.4    c0.3,0,0.5,0.3,0.4,0.6c-0.3,1.8-0.4,3.7-0.5,5.6c-0.1,2.2,0,4.4,0.3,6.6C2.2,45.9,2,46.2,1.6,46.2C1.7,46.2,1.7,46.2,1.6,46.2z" stroke-width="1"/>
	</g>
</g>
</svg>