<svg version="1.1" xmlns="http://www.w3.org/2000/svg" xmlns:xlink="http://www.w3.org/1999/xlink" width="56" height="65" viewBox="0,0,56,65"><g transform="translate(-212,-147.5)"><g data-paper-data="{&quot;isPaintingLayer&quot;:true}" fill-rule="nonzero" stroke-linecap="butt" stroke-linejoin="miter" stroke-miterlimit="10" stroke-dasharray="" stroke-dashoffset="0" style="mix-blend-mode: normal"><path d="M213,211.5v-63h54v63z" fill="#ff6666" stroke="#000000" stroke-width="2"/><path d="" fill="#000000" stroke="#000000" stroke-width="2"/><path d="M254.26777,184.58027c-1.76777,1.76777 -3.53553,0 -3.53553,0c-1.16255,-1.16255 -3.00085,-3.00085 -4.72932,-4.72932c-0.00117,0.44524 -0.00292,0.78839 -0.00292,0.96155c0,1.41033 0.00598,8.10238 -0.03228,8.40046c-0.72326,5.63498 -5.14682,10.13058 -4.96772,15.59954c0,0 0,2.5 -2.5,2.5c-2.5,0 -2.5,-2.5 -2.5,-2.5c0.03576,-1.57482 -0.31514,-3.20693 0.10727,-4.72446c0.35746,-1.28421 1.55269,-2.18068 2.14694,-3.37392c1.05457,-2.11753 2.4946,-5.95766 2.77807,-8.30208c0.46562,-3.85088 0.2716,-8.72321 0.15802,-12.64284c-0.02477,-0.85474 -4.0476,1.02039 -4.37597,1.16992c-1.77553,0.80848 -1.00463,1.91172 -1.00463,3.83008l-2.54193,2.81106c0,0 -1.76777,1.76777 -3.53553,0c-1.76777,-1.76777 0,-3.53553 0,-3.53553l1.45807,-1.18894c0,-1 -0.43673,-2.10041 0,-3c1.47176,-3.03156 3.66346,-3.58006 6.51913,-4.415c1.43721,-0.42021 2.92999,-1.48923 4.36495,-1.06141c1.04313,0.311 1.95561,1.03171 2.68563,1.90457c0.88067,0.13371 1.50775,0.76079 1.50775,0.76079c2,2 4,4 6,6l2,2c0,0 1.76777,1.76777 0,3.53553z" fill="#000000" stroke="none" stroke-width="0.5"/><path d="M260.02725,194.31856c-2.5,0 -2.5,-2.5 -2.5,-2.5v-0.41416c0.01761,-5.56643 -1.39711,-11.78703 -4.58048,-16.46902c-1.81306,-2.66658 -4.34381,-4.76791 -6.44948,-7.21004c-1.09935,-1.27502 -2.02764,-2.74 -3.35586,-3.77445c0,0 -0.43148,-0.34518 -0.72645,-0.91383c-0.31282,0.14082 -0.65982,0.21917 -1.02513,0.21917c-1.38071,0 -2.5,-1.11929 -2.5,-2.5c0,-1.38071 1.11929,-2.5 2.5,-2.5c0.99545,0 1.85501,0.5818 2.2572,1.42391c1.3238,-0.66883 2.61786,0.36641 2.61786,0.36641c1.57366,1.28429 2.77237,2.9708 4.0991,4.50884c2.23716,2.59349 4.88954,4.85968 6.80379,7.69988c3.70563,5.49809 5.34158,12.6302 5.35946,19.14913v0.41416c0,0 0,2.5 -2.5,2.5z" fill="#ff6666" stroke="none" stroke-width="0.5"/><path d="M216.52497,164.06954c0,-1.38071 1.11929,-2.5 2.5,-2.5c1.38071,0 2.5,1.11929 2.5,2.5c0,1.38071 -1.11929,2.5 -2.5,2.5c-1.38071,0 -2.5,-1.11929 -2.5,-2.5z" fill="#ff6666" stroke="none" stroke-width="0.5"/></g></g></svg>