<svg version="1.1" xmlns="http://www.w3.org/2000/svg" xmlns:xlink="http://www.w3.org/1999/xlink" width="717" height="363.1875" viewBox="0,0,717,363.1875"><g transform="translate(139.5,-63.625)"><g data-paper-data="{&quot;isPaintingLayer&quot;:true}" fill-rule="nonzero" stroke-linecap="butt" stroke-linejoin="miter" stroke-miterlimit="10" stroke-dasharray="" stroke-dashoffset="0" style="mix-blend-mode: normal"><path d="" fill="#ff6666" stroke="#000000" stroke-width="2"/><path d="M-77.5,213.07576c1.71131,-2.20093 3.42602,-4.39901 5.14458,-6.59384c17.95036,2.05647 35.90001,4.12229 53.85059,6.18005c-1.5305,0.43753 -3.02718,0.9706 -4.47048,1.65431l-5.50653,0.91776c-3.68214,0.54696 -6.70947,3.10113 -7.93368,6.51422c-13.69519,-0.41853 -27.39002,-0.8469 -41.08448,-1.28904z" fill="#ff6666" stroke="#000000" stroke-width="2"/><path d="" fill="#ff6666" stroke="#000000" stroke-width="2"/><path d="" fill="#ff6666" stroke="#000000" stroke-width="2"/><path d="M-12.02572,384.97342c-2.26439,1.07804 -4.52848,2.15675 -6.7924,3.23577c-19.56485,1.03577 -39.1209,2.37862 -58.67694,3.56383c-0.00092,0.00006 -0.00257,0.00016 -0.00494,0.0003v-2.38922c9.23873,-3.22113 18.50692,-6.36027 27.77891,-9.46885c15.4793,0.1307 30.95874,0.23906 46.43832,0.32992c-2.90308,1.59789 -5.81689,3.17503 -8.74295,4.72826z" fill="#ff6666" stroke="#000000" stroke-width="2"/><path d="M-77.5,416.09441v-4.28661c0.40501,-0.02309 0.80996,-0.04687 1.21484,-0.07141c1.57996,-0.09576 3.15931,-0.19244 4.73813,-0.28963c0.56844,0.37966 1.17797,0.70262 1.8205,0.96081c-2.59116,1.22895 -5.18231,2.4579 -7.77347,3.68684z" fill="#ff6666" stroke="#000000" stroke-width="2"/><path d="M390.58559,407.33763c0.12204,4.32319 1.06956,8.71099 1.08166,13.01908c-9.34493,-0.49829 -18.6909,-0.97514 -28.03355,-1.48474c-7.58162,-0.41354 -15.16114,-0.8413 -22.73915,-1.28205c-0.35586,-0.06121 -0.71172,-0.12231 -1.06758,-0.18332c-19.55925,-3.35301 -39.34406,-6.14188 -58.79443,-10.07287c-1.76507,-0.35673 -3.52868,-0.72796 -5.29095,-1.11151c0.84857,-0.73984 1.69712,-1.4797 2.54564,-2.2196c11.52231,0.17327 23.04462,0.34654 34.56693,0.5198c25.88877,0.3893 51.78107,0.60222 77.67508,0.70868c0.01781,0.7022 0.03653,1.40437 0.05635,2.10651z" fill="#ff6666" stroke="#000000" stroke-width="2"/><path d="" fill="#ff6666" stroke="#000000" stroke-width="2"/><path d="" fill="#ff6666" stroke="#000000" stroke-width="2"/><path d="M-13.44963,425.8125c3.33004,-2.04287 6.66239,-4.07648 10.00208,-6.08886c2.04928,-1.23482 4.09859,-2.46961 6.14791,-3.70437c3.93389,0.16647 7.86777,0.33404 11.80156,0.5045c-2.14343,1.8341 -3.50192,4.55902 -3.50192,7.60123c0,0.57513 0.04855,1.13892 0.14178,1.6875z" fill="#ff6666" stroke="#000000" stroke-width="2"/><path d="M59.10255,425.8125h-3.02163c1.10207,-0.33427 2.20369,-0.67043 3.30491,-1.0082c0.36858,-0.0655 0.73715,-0.13098 1.10573,-0.19645c-0.46329,0.40123 -0.9263,0.80277 -1.38901,1.20465z" fill="#ff6666" stroke="#000000" stroke-width="2"/><path d="" fill="#ff6666" stroke="#000000" stroke-width="2"/><path d="M477.11316,425.8125h-11.03954c-2.01222,-0.22165 -4.02487,-0.43358 -6.03801,-0.63373c-16.37986,-1.62854 -32.79586,-2.78158 -49.22429,-3.75385c-0.04947,-4.54829 -0.15192,-10.47144 -0.26115,-16.13151c18.48609,0.04015 36.97281,0.03523 55.45949,0.01069c3.73741,6.81679 7.47064,13.63581 11.10349,20.5084z" fill="#ff6666" stroke="#000000" stroke-width="2"/><path d="" fill="#ff6666" stroke="#000000" stroke-width="2"/><path d="" fill="#ff6666" stroke="#000000" stroke-width="2"/><path d="M512.42265,422.40829c0.03951,1.1338 0.0632,2.26876 0.08026,3.40421h-12.84977c-1.2492,-2.4425 -2.50973,-4.87904 -3.78462,-7.30802c-0.0262,-0.04992 -3.32593,-6.13456 -7.17876,-13.23858c7.7139,-0.01516 15.42774,-0.03192 23.14148,-0.04844c0.19529,5.73034 0.39172,11.46064 0.5914,17.19083z" fill="#ff6666" stroke="#000000" stroke-width="2"/><path d="" fill="#ff6666" stroke="#000000" stroke-width="2"/><path d="" fill="#ff6666" stroke="#000000" stroke-width="2"/><path d="M566.72523,425.8125h-29.93888c-0.08949,-6.88091 -0.14326,-13.76342 -0.18367,-20.64497c8.91256,-0.01603 17.82492,-0.02909 26.73701,-0.03634c1.10605,6.89706 2.23529,13.79083 3.38555,20.68131z" fill="#ff6666" stroke="#000000" stroke-width="2"/><path d="M536.36465,366.03985c-0.00249,-0.24369 -0.00501,-0.48737 -0.00757,-0.73104c0.09387,-0.00314 0.18773,-0.00629 0.2816,-0.00944c1.60714,0.2319 3.21437,0.46323 4.8217,0.69397c-1.69858,0.01551 -3.39715,0.03101 -5.09573,0.04651z" fill="#ff6666" stroke="#000000" stroke-width="2"/><path d="M564.48041,196.00887c4.00845,0.63555 8.01487,1.28807 12.01959,1.95443v0.78947c-6.77713,-1.00145 -13.56003,-1.96466 -20.34603,-2.90789c-0.03105,-0.36752 -0.0619,-0.73507 -0.09256,-1.10265c2.81072,0.40217 5.61753,0.82246 8.419,1.26665z" fill="#ff6666" stroke="#000000" stroke-width="2"/><path d="" fill="#ff6666" stroke="#000000" stroke-width="2"/><path d="M153.8265,425.8125h-63.80607c1.88714,-1.65468 3.77421,-3.30944 5.6612,-4.96428c19.38475,1.23577 38.7615,2.589 58.13532,3.98643c0.00302,0.32595 0.00621,0.6519 0.00954,0.97785z" fill="#ff6666" stroke="#000000" stroke-width="2"/><path d="" fill="#ff6666" stroke="#000000" stroke-width="2"/><path d="" fill="#ff6666" stroke="#000000" stroke-width="2"/><path d="" fill="#ff6666" stroke="#000000" stroke-width="2"/><path d="" fill="#ff6666" stroke="#000000" stroke-width="2"/><path d="" fill="#ff6666" stroke="#000000" stroke-width="2"/><path d="M-8.78237,302.67327c-0.88106,0.39628 -1.76207,0.79267 -2.64304,1.18918c-1.30565,0.30545 -2.61266,0.60475 -3.92188,0.89403c-11.69843,0.23627 -23.39892,0.42016 -35.10077,0.57042c10.79109,-1.31599 21.58218,-2.63197 32.37327,-3.94796c3.09665,0.44294 6.19409,0.87501 9.29242,1.29433z" fill="#ff6666" stroke="#000000" stroke-width="2"/><path d="" fill="#ff6666" stroke="#000000" stroke-width="2"/><path d="" fill="#ff6666" stroke="#000000" stroke-width="2"/><path d="" fill="#ff6666" stroke="#000000" stroke-width="2"/><path d="" fill="#ff6666" stroke="#000000" stroke-width="2"/><path d="" fill="#ff6666" stroke="#000000" stroke-width="2"/><path d="" fill="#ff6666" stroke="#000000" stroke-width="2"/><path d="" fill="#ff6666" stroke="#000000" stroke-width="2"/><path d="" fill="#ff6666" stroke="#000000" stroke-width="2"/><path d="" fill="#ff6666" stroke="#000000" stroke-width="2"/><path d="" fill="#ff6666" stroke="#000000" stroke-width="2"/><path d="M179.53861,403.94402c-0.49473,0.86812 -0.98946,1.73624 -1.48418,2.60436c-1.35059,-0.09903 -2.70119,-0.19799 -4.0518,-0.29685c0.01801,-0.459 0.03678,-0.91804 0.05627,-1.37713c1.8265,-0.31044 3.65307,-0.62056 5.47971,-0.93037z" fill="#ff6666" stroke="#000000" stroke-width="2"/><path d="" fill="#ff6666" stroke="#000000" stroke-width="2"/><path d="" fill="#ff6666" stroke="#000000" stroke-width="2"/><path d="" fill="#ff6666" stroke="#000000" stroke-width="2"/><path d="" fill="#ff6666" stroke="#000000" stroke-width="2"/><path d="" fill="#ff6666" stroke="#000000" stroke-width="2"/><path d="" fill="#ff6666" stroke="#000000" stroke-width="2"/><path d="" fill="#ff6666" stroke="#000000" stroke-width="2"/><path d="" fill="#ff6666" stroke="#000000" stroke-width="2"/><path d="" fill="#ff6666" stroke="#000000" stroke-width="2"/><path d="" fill="#ff6666" stroke="#000000" stroke-width="2"/><path d="" fill="#ff6666" stroke="#000000" stroke-width="2"/><path d="" fill="#ff6666" stroke="#000000" stroke-width="2"/><path d="" fill="#ff6666" stroke="#000000" stroke-width="2"/><path d="" fill="#ff6666" stroke="#000000" stroke-width="2"/><path d="" fill="#ff6666" stroke="#000000" stroke-width="2"/><path d="" fill="#ff6666" stroke="#000000" stroke-width="2"/><path d="" fill="#ff6666" stroke="#000000" stroke-width="2"/><path d="" fill="#ff6666" stroke="#000000" stroke-width="2"/><path d="" fill="#ff6666" stroke="#000000" stroke-width="2"/><path d="" fill="#ff6666" stroke="#000000" stroke-width="2"/><path d="" fill="#ff6666" stroke="#000000" stroke-width="2"/><path d="" fill="#ff6666" stroke="#000000" stroke-width="2"/><path d="" fill="#ff6666" stroke="#000000" stroke-width="2"/><path d="" fill="#ff6666" stroke="#000000" stroke-width="2"/><path d="" fill="#ff6666" stroke="#000000" stroke-width="2"/><path d="" fill="#ff6666" stroke="#000000" stroke-width="2"/><path d="" fill="#ff6666" stroke="#000000" stroke-width="2"/><path d="" fill="#ff6666" stroke="#000000" stroke-width="2"/><path d="" fill="#ff6666" stroke="#000000" stroke-width="2"/><path d="" fill="#ff6666" stroke="#000000" stroke-width="2"/><path d="" fill="#ff6666" stroke="#000000" stroke-width="2"/><path d="" fill="#ff6666" stroke="#000000" stroke-width="2"/><path d="" fill="#ff6666" stroke="#000000" stroke-width="2"/><path d="" fill="#ff6666" stroke="#000000" stroke-width="2"/><path d="" fill="#ff6666" stroke="#000000" stroke-width="2"/><path d="" fill="#ff6666" stroke="#000000" stroke-width="2"/><path d="" fill="#ff6666" stroke="#000000" stroke-width="2"/><path d="" fill="#ff6666" stroke="#000000" stroke-width="2"/><path d="" fill="#ff6666" stroke="#000000" stroke-width="2"/><path d="" fill="#ff6666" stroke="#000000" stroke-width="2"/><path d="M145,235.5v-111h190v111z" fill="#ff6666" stroke="#000000" stroke-width="2"/><path d="M371.76777,287.89277c-1.76777,1.76777 -3.53553,0 -3.53553,0l-0.0228,-0.39606c-4.59385,-1.56367 -7.2741,-4.36707 -11.11397,-7.06239c-8.18487,-5.74521 -16.35615,-11.50988 -24.53419,-17.2648c0,0 -2.04452,-1.43873 -0.60578,-3.48325c1.43873,-2.04452 3.48325,-0.60578 3.48325,-0.60578c8.17805,5.75492 16.36263,11.50068 24.53419,17.2648c3.43428,2.4225 5.72632,5.07967 9.81764,6.40801l1.9772,1.60394c0,0 1.76777,1.76777 0,3.53553z" fill="#66ff72" stroke="none" stroke-width="0.5"/><path d="M-139.5,66.125c0,-1.38071 1.11929,-2.5 2.5,-2.5c1.38071,0 2.5,1.11929 2.5,2.5c0,1.38071 -1.11929,2.5 -2.5,2.5c-1.38071,0 -2.5,-1.11929 -2.5,-2.5z" fill="#66ff72" stroke="none" stroke-width="0.5"/></g></g></svg>