<svg version="1.1" xmlns="http://www.w3.org/2000/svg" xmlns:xlink="http://www.w3.org/1999/xlink" width="220.13574" height="264.93834" viewBox="0,0,220.13574,264.93834"><g transform="translate(-126.77481,-50.01106)"><g data-paper-data="{&quot;isPaintingLayer&quot;:true}" fill-rule="nonzero" stroke-linejoin="miter" stroke-miterlimit="10" stroke-dasharray="" stroke-dashoffset="0" style="mix-blend-mode: normal"><path d="M277,180c0,49.15334 -16.56546,89 -37,89c-20.43454,0 -37,-39.84666 -37,-89c0,-49.15334 16.56546,-89 37,-89c20.43454,0 37,39.84666 37,89zM241,204.25c10.63148,0 19.25,-8.61852 19.25,-19.25c0,-10.63148 -8.61852,-19.25 -19.25,-19.25c-10.63148,0 -19.25,8.61852 -19.25,19.25c0,10.63148 8.61852,19.25 19.25,19.25z" fill="#ff9b3f" stroke="#063eff" stroke-width="2" stroke-linecap="butt"/><path d="M251.5,101.8125l-12,-48l-13,44l-4,11" fill="none" stroke="#ff9b3f" stroke-width="2" stroke-linecap="round"/><path d="M244.44786,75.53954c0.0826,-0.03513 0.16971,-0.06812 0.26157,-0.09874c2.37171,-0.79057 3.16228,1.58114 3.16228,1.58114l1.09601,3.39011c0.03295,3.47131 0.03279,6.37281 -0.37679,9.40046h0.40907v3c0,1.29979 -0.99193,2.3679 -2.2601,2.48864l2.11459,1.40973c0.68925,0.44514 1.14551,1.2201 1.14551,2.10163c0,1.38071 -1.11929,2.5 -2.5,2.5c-0.18573,0 -0.36673,-0.02025 -0.54091,-0.05867l-4.85228,-0.97046l0.08379,-0.41897c-3.1254,-0.0961 -6.23705,-0.3348 -9.40982,-0.62073c-0.29244,0.22485 -0.59054,0.4414 -0.89403,0.64896c0,0 -0.60504,0.40336 -1.38003,0.44869l-0.23895,0.23895c-0.45241,0.45241 -1.07741,0.73223 -1.76777,0.73223c-1.38071,0 -2.5,-1.11929 -2.5,-2.5c0,-0.69036 0.27982,-1.31536 0.73223,-1.76777l1.26802,-1.26802c0.00949,-0.67615 0.2874,-1.2874 0.73198,-1.73198l0.24746,-0.24746c-0.59566,-0.45695 -0.9797,-1.17601 -0.9797,-1.98477c0,-0.52532 0.16203,-1.0128 0.43883,-1.41519l1.96042,-2.94063c0.20727,-0.82581 0.41942,-1.65029 0.6369,-2.47401c0.37191,-3.29321 0.46173,-6.77164 2.9319,-9.22076c0.02384,-0.116 0.04534,-0.2326 0.06423,-0.34987c0.67673,-4.19961 0.76377,-8.26931 2.09601,-12.39011l0.98177,-2.94531c0.31417,-1.02156 1.26534,-1.76412 2.38994,-1.76412c1.1246,0 2.07576,0.74256 2.38994,1.76412l0.98177,2.94531c0.49256,0.92555 0.85977,1.96831 1.09601,3.39011c0.47844,2.87947 0.55366,5.98536 0.48014,9.12749zM238.98876,81.73275c-0.1337,0.55626 -0.25703,1.10868 -0.37537,1.6576l0.38524,0.38524c-0.00388,-0.68092 -0.00716,-1.36187 -0.00986,-2.04283z" fill="#ff4040" stroke="none" stroke-width="0.5" stroke-linecap="butt"/><path d="M202.5,165.8125l-73,28l74,30" fill="none" stroke="#063eff" stroke-width="2" stroke-linecap="round"/><path d="M276.5,160.8125l68,29l-70,34" fill="none" stroke="#063eff" stroke-width="2" stroke-linecap="round"/><path d="M207.75,214.8125c0,4.00406 -3.24594,7.25 -7.25,7.25c-0.31122,0 -0.61785,-0.01961 -0.91874,-0.05766c-0.3412,0.03774 -0.70127,0.05766 -1.08126,0.05766c-7.25,0 -7.25,-7.25 -7.25,-7.25c0.17059,-3.35048 -1.89526,-5.44355 -2,-9c-0.04222,-1.43359 0.87711,-2.74355 1.09362,-4.16132c0.30609,-2.00435 0.62668,-4.00708 1,-6c0.46508,-2.4828 -0.71783,-4.329 -1,-6.67736c-0.52892,-4.402 0.67232,-7.70566 2.00489,-11.64078c-0.02864,-0.18497 -0.04986,-0.36771 -0.06476,-0.54709l-0.03375,0.02655c0,0 0,-0.11624 0.01472,-0.3193c-0.07868,-1.66534 0.35733,-2.97336 0.35733,-2.97336c0.33333,-1 0.66667,-2 1,-3l-0.37205,0.29265c0,0 0,-7.25 7.25,-7.25c7.25,0 7.25,7.25 7.25,7.25l-0.37205,4.29265c-0.21621,0.64863 -0.43242,1.29726 -0.64863,1.94588l-0.35137,4.05412c-0.54434,1.63303 -1.2522,3.21254 -1.72157,4.86867c-0.34637,1.22216 0.80823,2.42162 1,3.67736c0.12482,0.81737 0.12482,7.50528 0,8.32264c-0.15913,1.04201 -0.82671,1.96025 -1,3c-0.1644,0.98639 0.18412,2.0171 0,3c-0.12581,0.67163 -0.8321,1.15941 -0.90638,1.83868c-0.03428,0.31342 0.51238,0.41401 0.62795,0.70735c0.38033,0.96534 0.75356,1.94453 1.02062,2.94783c1.44531,1.32535 2.35142,3.22927 2.35142,5.34482z" fill="#ff4040" stroke="none" stroke-width="0.5" stroke-linecap="butt"/><path d="M271.25,217.8125c0,-0.35826 0.02599,-0.71045 0.07618,-1.05479c-1.07618,-1.91269 -1.07618,-3.94521 -1.07618,-3.94521l2.12348,-7.12652c0.15879,-0.11339 0.30053,-0.29692 0.45062,-0.44611c-1.09212,-1.89031 -0.63988,-5.26206 -0.48048,-6.58869c0.36004,-2.99646 1.44219,-6.02216 2,-9c0.29702,-1.58562 -0.09362,-3.22548 -0.09362,-4.83868c0,-5.33333 0,-10.66667 0,-16c0,0 0,-7.25 7.25,-7.25c7.25,0 7.25,7.25 7.25,7.25c0,10.83428 0.73368,21.76433 -2.09362,32.16132c-0.43391,1.59563 1.24208,3.19178 1.09362,4.83868c-0.42137,4.67424 -1.20962,5.95453 -3.08741,7.9688c-0.00807,0.05426 -0.01689,0.11028 -0.02652,0.16792c0.70563,1.1184 1.11393,2.44315 1.11393,3.86327c0,4.00406 -3.24594,7.25 -7.25,7.25c-4.00406,0 -7.25,-3.24594 -7.25,-7.25z" fill="#ff4040" stroke="none" stroke-width="0.5" stroke-linecap="butt"/><path d="M167.88172,208.3978c-2.23619,-0.56994 -4.38226,-1.36757 -6.19327,-2.41808c-0.50647,-0.29379 -0.42505,-1.23771 -0.9629,-1.46909c-0.44724,-0.1924 -0.90367,0.51793 -1.38687,0.45826c-1.04615,-0.12919 -1.96393,-0.80592 -3,-1c-1.96581,-0.36824 -4.02683,0.32647 -6,0c-0.73107,-0.12096 -5.98646,-1.89681 -7.13133,-2.27843l-2.8414,-0.94713c-2.96253,-0.91111 -5.11595,-3.66948 -5.11595,-6.93082c0,-2.89422 1.6959,-5.39234 4.14818,-6.55484l3.85952,-1.92976l0.06976,0.13953c0.13157,-0.11884 0.26423,-0.23656 0.39808,-0.35306c1.30135,-1.1327 3.49935,-0.55557 4.9629,-1.46909c1.11791,-0.69778 1.79322,-2.09573 3.0371,-2.53091c1.60731,-0.56233 6.51083,-0.59567 8.77445,-0.55187c0.72987,0.01412 1.63381,0.55742 2.18845,0.08278c0.71632,-0.613 1.19155,-1.51493 2,-2c0.90388,-0.54233 2.09612,-0.45767 3,-1c0.80845,-0.48507 1.07694,-1.80802 2,-2c2.74533,-0.57097 5.85476,-1.75651 8.59011,-1.48069c0.32773,-3.70053 3.43574,-6.60209 7.22144,-6.60209c2.55644,0 4.80385,1.32315 6.09474,3.32199l0.28173,0.42259c0.57825,0.34101 1.16415,0.79299 1.75005,1.3789c2.13237,2.13237 2.49083,4.26475 2.18216,6.02819c0.59229,3.0811 -1.64671,5.22614 -2.1523,8.25966c-0.1866,1.1196 -0.37352,2.24113 -0.56052,3.3631c-0.00409,2.26639 -0.11322,4.50041 -0.43948,6.6369c-0.15913,1.04201 -0.77962,1.9692 -1,3c-0.10837,0.5069 0.45261,1.62299 0.10072,1.68348l0.56733,1.702c0.05541,0.15413 0.10575,0.31068 0.15082,0.46945l0.15879,0.05293c2.96253,0.91111 5.11595,3.66948 5.11595,6.93082c0,4.00406 -3.24594,7.25 -7.25,7.25c-0.59456,0 -1.17241,-0.07157 -1.72539,-0.20657l-8.84735,-1.96608l0.05708,-0.25687c-0.303,0.00834 -0.60634,0.01235 -0.91003,0.01168c-3.64962,-0.0081 -8.2124,-5.25322 -11.17072,-7.22544z" fill="#4099ff" stroke="none" stroke-width="0.5" stroke-linecap="butt"/><path d="M334.5,182.5625c4.00406,0 7.25,3.24594 7.25,7.25c0,1.98 -0.79372,3.77462 -2.08035,5.08303c-0.5228,3.49035 -3.53365,6.16697 -7.16965,6.16697h-3c-1.63882,-0.08344 -3.22006,0.63661 -4.83868,0.90638c-1.89864,0.31644 -4.55311,-0.11061 -6.34977,1.01083c-1.11791,0.69778 -1.79322,2.09573 -3.0371,2.53091c-1.3495,0.47213 -2.80802,0.44722 -4.25465,0.47653c-0.74501,1.52718 -2.0108,2.7537 -3.56619,3.44839l-0.07566,0.6696l-0.94713,2.8414c-0.91111,2.96253 -3.66948,5.11595 -6.93082,5.11595c-0.89353,0 -1.7493,-0.16164 -2.53967,-0.45728l-0.3338,0.3338c0,0 -5.12652,5.12652 -10.25305,0c-2.2551,-2.2551 -2.52621,-4.51021 -2.12244,-6.32894l-1.96575,-3.08319c1.20266,-2.77027 2.18942,-5.64465 3.60799,-8.31082c0.14497,-0.27246 0.70421,0.05321 0.9086,-0.17804c0.13161,-0.1489 -0.51836,-0.02966 -0.55187,-0.22555c-0.33729,-1.97135 0,-4 0,-6c0,-6 0,-12 0,-18c0,0 0,-7.25 7.25,-7.25c2.56082,0 4.21712,0.90453 5.28838,2.07459c0.89622,-0.17074 1.93387,-0.17372 3.13346,0.0662c2.41373,0.48275 3.84405,1.6211 4.68048,2.91424c0.29413,-0.03632 0.59372,-0.05503 0.89767,-0.05503c2.00203,0 3.81453,0.81148 5.12652,2.12348l2,2c1.43078,2.00365 4.41462,1.45737 6.73432,2.1194c1.69292,0.48315 3.40971,0.98858 4.95071,1.8399c0.82525,0.45591 1.21226,1.48196 2,2c0.45866,0.30163 1,0.46706 1.57207,0.57665c1.25391,-1.03658 2.86241,-1.65943 4.61638,-1.65943z" fill="#4099ff" stroke="none" stroke-width="0.5" stroke-linecap="butt"/><path d="M259.5,256.8125l-15,50l-5,6l-14,-54" fill="none" stroke="#063eff" stroke-width="2" stroke-linecap="round"/><path d="M249.5,293.8125v-10l38,-1l-34,-16" fill="none" stroke="#063eff" stroke-width="2" stroke-linecap="round"/><path d="M228.5,274.8125l-29,8l39,4" fill="none" stroke="#063eff" stroke-width="2" stroke-linecap="round"/><path d="M235.93475,299.59512l0.04429,-0.02215c-0.067,-0.11534 -0.12805,-0.2346 -0.18223,-0.35841c-0.30032,-0.68629 -0.41363,-1.64261 -0.42873,-2.70647c-0.24236,-0.41183 -0.45236,-0.83578 -0.57127,-1.29353c-0.16762,-0.64525 0.15446,-1.35147 0,-2c-0.34539,-1.45015 -1.7008,-2.53962 -2,-4c-0.34267,-1.67253 0.32244,-3.45004 -0.02422,-5.12175c-0.25617,-1.23532 -0.56281,-2.42351 -0.8918,-3.60075c-1.27041,-2.45819 -1.80643,-4.61589 -1.99168,-6.91913l-0.23799,0.0595l-0.83936,-3.35743c-0.04027,-0.14733 -0.06177,-0.30241 -0.06177,-0.46251c0,-0.48817 0.19989,-0.92966 0.52228,-1.24708c-0.7065,-0.46266 -1.41192,-0.92632 -2.00971,-1.51549c0,0 -1.23744,-1.23744 0,-2.47487c0.32116,-0.32116 0.64232,-0.47561 0.94184,-0.52826c-0.05945,-0.11676 -0.11388,-0.23608 -0.16202,-0.35861c-0.51677,-1.31557 -0.45503,-2.83932 -1.10764,-4.09307l-0.98426,-1.96851c-0.12803,-0.24319 -0.2005,-0.52019 -0.2005,-0.81411c0,-0.9665 0.7835,-1.75 1.75,-1.75c0.07554,0 0.14997,0.00479 0.22299,0.01407c0.01599,-0.43377 0.02701,-0.85724 0.02701,-1.26407c0,-1.05109 -0.10425,-4.68731 0.51256,-5.23744c1.28299,-1.14428 2.95368,-0.84191 4.53446,-0.16721c0.18261,-0.7714 0.87577,-1.34535 1.70298,-1.34535c0.6986,0 1.3016,0.40936 1.5822,1.00129l0.98305,1.96609l-0.14965,0.07483l0.28759,0.30573c0.00113,0.09919 0.003,0.1984 0.00559,0.29762c1.27552,0.63639 3.34958,1.68307 3.53127,1.86962c1.78227,1.82986 2.70058,4.93661 3.63973,7.84552c0.28701,-1.61074 0.71022,-3.22502 1.37023,-4.86293l0,-1.74776c0,-0.9665 0.7835,-1.75 1.75,-1.75c0.9665,0 1.75,0.7835 1.75,1.75v2l-0.48553,0c0.01402,0.06337 0.02771,0.12677 0.04109,0.19019l0.41314,0.1393c-0.08947,0.22952 -0.17478,0.45987 -0.25616,0.69099c0.07545,0.44949 0.13609,0.90043 0.18367,1.3527c0.64665,0.25708 1.10379,0.88857 1.10379,1.62682c0,0.29393 -0.07246,0.57093 -0.2005,0.81411l-0.7765,1.55301c-0.02474,0.83262 -0.07551,1.66845 -0.1418,2.50677c0.01473,-0.01397 0.02949,-0.02797 0.04428,-0.04197l1.25964,-1.88947c1.15225,-3.57384 2.51698,-7.19081 3.8713,-10.45308c0.66552,-1.6031 2.63777,-6.83496 6.11361,-4.97801c3.1862,1.70221 0.09092,4.36911 -0.22159,5.9103c-0.20721,1.02189 0.09884,2.09428 -0.039,3.12782c-0.50819,3.81048 -2.41049,6.86573 -4.0942,10.23314c-0.7382,1.47639 -1.41832,3.25602 -2.23043,4.96116c0.10895,0.21508 0.21746,0.44901 0.32537,0.70282c0.58368,1.37276 -0.94891,2.83154 -1.5297,4.20553c-0.50739,1.20034 -1.05444,2.33727 -1.64659,3.41979c0.16861,0.26902 0.26609,0.58717 0.26609,0.92808l0,2c0,5.59156 -1.63734,13.44044 -5.33033,18.02324c-0.39191,0.48633 -0.80876,0.98834 -1.25977,1.44025l0.05747,-0.02874l0.42126,0.84252l1.78104,-0.30052c-0.28818,0.53428 -0.53155,1.10062 -0.7786,1.66432l0.59636,0.59636l-2,2l-0.02901,-0.02901c-0.0597,0.07186 -0.12137,0.14232 -0.18518,0.21125c-0.49157,0.53092 -1.09378,0.92174 -1.73684,1.26271c-1.16043,1.09999 -2.62573,2.06763 -3.94951,2.10573l-1.52277,0.76139c-0.24319,0.12803 -0.52019,0.2005 -0.81411,0.2005c-0.9665,0 -1.75,-0.7835 -1.75,-1.75c0,-0.20784 0.03623,-0.40721 0.10272,-0.59215l0.98708,-2.96125l0.04052,0.01351c0.03922,-0.12783 0.08272,-0.25459 0.13103,-0.38014c0.09689,-0.25178 0.22408,-0.49436 0.37486,-0.73009c-0.38858,-0.32098 -0.63622,-0.80651 -0.63622,-1.34988c0,-0.29393 0.07246,-0.57093 0.2005,-0.81411l0.84294,-1.68589zM238.07051,267.76601c0.08283,-0.15071 0.19763,-0.27341 0.33412,-0.37749c-2.08781,-4.55462 -4.04613,-9.29462 -4.50734,-13.93125c-0.19729,-0.25627 -0.39008,-0.51406 -0.55748,-0.77994c-0.2125,-0.09651 -0.42068,-0.19579 -0.62243,-0.29958c-0.54379,-0.27976 -1.11155,-0.52145 -1.61944,-0.86206c-0.16305,-0.10935 -0.45001,-0.64047 -0.3605,-0.46575c1.20641,2.35474 0.33973,5.39982 0.37736,8.1236c0.54412,0.2042 0.95953,0.67159 1.09117,1.24713c2.08835,2.2527 4.03172,4.75048 5.86454,7.34535zM256.31825,257.68882c-0.63319,1.79093 -1.3679,3.58644 -2.06825,5.38797l0,0.17967c0.66132,-1.50784 1.2504,-2.97639 1.73425,-4.29856c0.15141,-0.41375 0.25758,-0.83792 0.334,-1.26909zM245.17143,294.35459c0.46367,-1.08606 0.87639,-2.1717 1.22839,-3.26681c-0.50652,1.0895 -0.95202,2.16664 -1.19663,3.12679c-0.01185,0.04651 -0.0224,0.09319 -0.03176,0.14002z" fill="#ff9b3f" stroke="none" stroke-width="0.5" stroke-linecap="butt"/><path d="M285.25,279.8125c0,0.1995 -0.02274,0.37625 -0.06304,0.53286c0.04109,0.14871 0.06304,0.30536 0.06304,0.46714c0,0.89485 -0.67164,1.63283 -1.53832,1.73733c0.33179,0.31847 0.53832,0.76645 0.53832,1.26267c0,0.9665 -0.7835,1.75 -1.75,1.75h-2v-0.30426l-0.6697,0.17105c-0.66667,-0.66667 -1.17759,-1.539 -2,-2c-0.38874,-0.21791 -0.88501,0.1154 -1.3303,0.13321c-2.47973,0.09919 -5.02363,0.01566 -7.5,0c-1.99802,-0.01264 -3.97064,-0.53513 -5.90207,-1.04681c-2.44975,-0.649 -4.4207,-0.01886 -6.73211,-0.55669c-0.26911,0.10911 -0.54323,0.19592 -0.82086,0.25741c-0.29161,0.21741 -0.65326,0.3461 -1.04496,0.3461c-0.06623,0 -0.1316,-0.00368 -0.19592,-0.01084c-0.57537,-0.03362 -1.31192,-0.32045 -2.31797,-0.98916h-1.48611c-0.9665,0 -1.75,-0.7835 -1.75,-1.75c0,-0.9665 0.7835,-1.75 1.75,-1.75h0.21472c0.02913,-0.22637 0.05909,-0.44605 0.08209,-0.65207c0.09595,-0.85934 0.60704,-2.16719 1.31809,-3.52821c-0.22877,-0.29579 -0.36491,-0.66686 -0.36491,-1.06973c0,-0.9665 0.7835,-1.75 1.75,-1.75h0.34183c0.90432,-1.26499 1.85888,-2.29499 2.63492,-2.66967c0.08455,-0.04082 0.17009,-0.07864 0.25653,-0.11375l-0.01591,-0.03182l1.96851,-0.98426c0.24319,-0.12803 0.52019,-0.2005 0.81411,-0.2005c0.69734,0 1.29942,0.40787 1.58067,0.99807c0.49506,0.01651 1.00095,0.05427 1.41933,0.00193c1.57875,-0.19752 4.91079,-0.38386 6.40207,0.04681c2.44066,0.70486 3.388,2.2983 4.23292,4.06997c0.01162,0.00526 0.02319,0.01073 0.03471,0.01642c0.96355,0.47632 1.49174,1.563 2.35751,2.19998c1.976,1.45381 3.88357,2.47089 5.73087,3.6697c0.08075,0.00041 0.1614,-0.00054 0.24192,-0.0029h2c0,0 1.75,0 1.75,1.75zM271.19171,277.59754c-1.85117,-1.13825 -3.66188,-2.31336 -5.46057,-3.21299c-0.10184,-0.05094 -0.20744,-0.09408 -0.31573,-0.13152l1.02838,1.02838c0.83656,0.29165 1.6472,0.70295 2.29366,1.29366c0.46195,0.42211 0.29065,1.26098 0.68259,1.7488c0.4721,0.58758 1.0921,-0.01049 1.77168,-0.72632zM266.83495,280.23418c-0.08267,-0.22519 -0.16008,-0.45761 -0.25711,-0.67338c-0.02581,0.00113 -0.05176,0.0017 -0.07784,0.0017h-1.69115c0.34817,0.23096 0.69216,0.47183 1.09321,0.54681c0.30954,0.05788 0.62061,0.09822 0.93289,0.12486zM272.96065,280.05194c0.38373,-0.01554 0.82593,-0.04626 1.29727,-0.07884c-0.16974,-0.17103 -0.33621,-0.3458 -0.49928,-0.52359c-0.26245,0.14253 -0.52803,0.36036 -0.798,0.60244z" fill="#58ec3b" stroke="none" stroke-width="0.5" stroke-linecap="butt"/><path d="M235.44917,279.50387c-1.03697,0.2815 -2.15095,-0.04875 -3.22576,-0.00578c0.00136,0.01135 0.00269,0.02271 0.00399,0.03408c0.16004,1.39321 0.44247,2.97455 -0.23876,4.20035c-0.5772,1.0386 -1.95936,1.40733 -3.08657,1.78316c-2.84504,0.94857 -7.42906,0.04681 -10.40207,0.04681c-3.70701,0 -7.0057,0.25395 -10.5534,-1.0898c-1.30878,-0.49572 -3.05971,-0.49324 -3.86628,-1.63695c-2.51045,-3.55985 2.02561,-5.87671 4.65075,-6.6283c0.23849,-0.27864 0.52018,-0.57284 0.84889,-0.88358c0.06777,-0.06407 0.13497,-0.12354 0.20162,-0.17863c-0.02074,-0.10772 -0.03159,-0.21896 -0.03159,-0.33274c0,-0.9665 0.7835,-1.75 1.75,-1.75c4.41667,0 10.83333,0 15.25,0v-0.25c0,-0.9665 0.7835,-1.75 1.75,-1.75c0.9665,0 1.75,0.7835 1.75,1.75l0,0.2498c3.01095,-0.0047 5.57241,-0.08634 8.25,0.36447v-0.36427h2c0.9665,0 1.75,0.7835 1.75,1.75c0,0.69175 -0.40136,1.28976 -0.98391,1.57385l-2.40577,1.23508c-1.1362,0.62957 -2.15781,1.5422 -3.41115,1.88244zM229.03105,281.8301c-0.17908,0.16457 -0.37745,0.31887 -0.59652,0.46163c0.27585,-0.02726 0.48875,-0.13598 0.57683,-0.39926c0.0069,-0.02062 0.01346,-0.04141 0.01969,-0.06237zM223.57346,282.04906c-0.64502,-0.20676 -1.2766,-0.39996 -1.86932,-0.48617c-1.40138,0.00122 -2.80277,0.00466 -4.20414,-0.00038c-1.09346,-0.00393 -2.20107,0.15313 -3.28032,-0.0226c-1.54131,-0.25097 -4.01537,-0.55866 -5.44926,-1.42465c-0.15759,0.09898 -0.31808,0.19161 -0.48779,0.26249c-0.43791,0.1829 -1.82801,0.31696 -1.36295,0.41151c0.707,0.14374 1.43661,0.1772 2.13372,0.36305c1.77859,0.47417 3.60591,0.91901 5.4466,0.9102c1.33332,-0.00638 2.66667,0 4,0c1.69081,0 3.38225,-0.01225 5.07346,-0.01344z" fill="#58ec3b" stroke="none" stroke-width="0.5" stroke-linecap="butt"/><path d="M231.5,261.0625c1.75,0 1.75,1.75 1.75,1.75v2c0,1.12598 -0.13531,2.5451 -0.17526,3.9202c0.14868,-0.20683 0.36425,-0.3929 0.6752,-0.51903c0.00002,-0.01599 0.00004,-0.03196 0.00006,-0.0479v-2.35327c0,-0.9665 0.7835,-1.75 1.75,-1.75c0.9665,0 1.75,0.7835 1.75,1.75l0,2.075c0.00016,0.11513 0.00106,0.23001 0.00266,0.34468c0.36313,0.17326 0.65716,0.46798 0.82954,0.83161l0.22326,0.44652c0.93483,0.21754 1.87887,0.42205 2.47855,1.11316c1.34273,1.54745 1.34315,5.11958 1.46525,7.13833l-0.0182,0.05071h0.01893v2c0,0.9665 -0.7835,1.75 -1.75,1.75c-0.48967,0 -0.93237,-0.20112 -1.25,-0.52525v1.77525c0,0.9665 -0.7835,1.75 -1.75,1.75c-0.6986,0 -1.3016,-0.40936 -1.5822,-1.00129l-0.02185,-0.0437c-0.12723,0.02943 -0.25977,0.04498 -0.39595,0.04498c-0.9665,0 -1.75,-0.7835 -1.75,-1.75v-1.27513l-1.48744,-1.48744l0.02317,-0.02317c-0.09531,-0.09369 -0.18694,-0.19157 -0.27438,-0.29423c-0.84339,-0.99032 -0.86275,-2.45442 -1.27835,-3.68702c-1.18086,-3.5022 -0.98301,-6.57009 -0.98301,-10.23301v-2c0,0 0,-1.75 1.75,-1.75z" fill="#ed7d37" stroke="none" stroke-width="0.5" stroke-linecap="butt"/></g></g></svg>