<svg version="1.1" xmlns="http://www.w3.org/2000/svg" xmlns:xlink="http://www.w3.org/1999/xlink" width="97.96964" height="208.23522" viewBox="0,0,97.96964,208.23522"><g transform="translate(-190.99872,-30.26473)"><g data-paper-data="{&quot;isPaintingLayer&quot;:true}" fill-rule="nonzero" stroke-linecap="butt" stroke-linejoin="miter" stroke-miterlimit="10" stroke-dasharray="" stroke-dashoffset="0" style="mix-blend-mode: normal"><path d="M287.96835,182.06611c-0.9725,31.73544 -23.23703,56.53707 -49.72923,55.39599c-26.49219,-1.14108 -47.17998,-27.79277 -46.20748,-59.52821c0.9725,-31.73544 23.23703,-56.53707 49.72923,-55.39599c26.49219,1.14108 47.17998,27.79277 46.20748,59.52821z" fill="#ff9b3f" stroke="#000000" stroke-width="2"/><path d="M262.5,39.3125c1.07382,0 1.98952,0.67702 2.34353,1.6275c0.44106,-0.39047 1.02108,-0.6275 1.65647,-0.6275c1.38071,0 2.5,1.11929 2.5,2.5v3c0.28867,1.30171 0,2.66667 0,4c0,1.26328 0,2.52656 0,3.78983c0.80412,0.23198 1.65095,0.77803 2.52811,1.74839c1.45073,1.60488 -1.48509,6.94611 -2.11284,8.61382c-0.12536,0.33304 -0.25383,0.66295 -0.38526,0.98998c0.01422,0.55057 0.03267,1.10507 0.05353,1.66251c0.84476,-1.10834 1.52509,-1.99874 1.60239,-2.09035l2.71244,-4.06866c0.44514,-0.68925 1.2201,-1.14551 2.10163,-1.14551c1.38071,0 2.5,1.11929 2.5,2.5c0,0.43765 -0.11246,0.84903 -0.31005,1.20683l-1.40513,2.66999l-0.02692,-0.01417l-0.00653,0.07562c-2.2325,3.72127 -4.55854,7.38921 -6.92735,11.03152c-0.04296,1.47297 -0.14594,2.92436 -0.34274,4.33566c-0.18982,1.3612 -0.80068,2.64016 -1,4c-0.29006,1.97886 0.27622,4.01917 0,6c-0.18982,1.3612 -0.80068,2.64016 -1,4c-0.70023,4.77718 0.22412,9.72012 0.98645,14.29409c0.33333,2 0.35882,4.07646 1,6c0,3.3697 1.04913,6.00437 1.03228,9.40046c-0.00591,1.19165 0.40663,2.48083 -0.06688,3.57438c-0.94583,2.18435 -1.76564,5.16767 -4.03267,5.89334c-3.02981,0.96983 -5.034,-3.74974 -5.67761,-6.19046c-0.06917,0.31485 -0.14341,0.63241 -0.22285,0.95295v3.76979c0,1.38071 -1.11929,2.5 -2.5,2.5c-1.38071,0 -2.5,-1.11929 -2.5,-2.5v-2.62283c-0.98898,-0.73562 -0.73464,-2.64155 -1.81433,-3.25055c-0.82422,-0.4649 -1.77809,-0.52847 -2.75132,-0.54157l-2.23758,2.87859c-0.4567,0.59931 -1.17802,0.9861 -1.98967,0.9861c-1.27327,0 -2.32422,-0.95187 -2.48007,-2.18283l-0.13378,-0.93643c-0.93246,-0.36306 -1.59326,-1.26961 -1.59326,-2.33049v-0.54831c-0.53214,-0.08566 -1.06441,-0.17068 -1.59659,-0.25622l-1.51347,4.54042c-0.31417,1.02156 -1.26534,1.76412 -2.38994,1.76412c-1.38071,0 -2.5,-1.11929 -2.5,-2.5v-3c0.0005,-0.55794 0.0113,-1.10854 0.03041,-1.65348c-2.63809,0.13379 -5.36363,1.23613 -7.74431,2.02667c-1.81769,0.60359 -3.83604,0.7571 -5.47177,1.75343c-0.71198,0.43367 -1.07511,1.29005 -1.72936,1.80673c-1.37419,1.08523 -2.9423,1.92022 -4.57167,2.60229c-0.18885,0.75851 -0.40099,1.51071 -0.64159,2.25492c0,0 -0.79057,2.37171 -3.16228,1.58114c-1.21389,-0.40463 -1.59939,-1.22345 -1.68648,-1.92649c-0.16865,0.03589 -0.3436,0.05478 -0.52295,0.05478c-1.38071,0 -2.5,-1.11929 -2.5,-2.5c0,-0.94657 0.52607,-1.77027 1.30179,-2.19469l3.11102,-1.77772c0.33993,-1.98605 0.55544,-4.01504 0.75427,-6.03822c-0.61464,-2.79959 0.00171,-6.46483 0.39614,-7.95654c0.46906,-1.77399 0.93696,-3.53411 1.42508,-5.28098c-0.01107,-0.32027 -0.00934,-0.63991 0.02022,-0.95804c0.31115,-3.34944 1.46907,-6.57138 1.96389,-9.89865c0.30404,-2.04444 -0.23981,-4.15358 0.04633,-6.20061c0.19026,-1.36114 0.80068,-2.64016 1,-4c0.72844,-4.96964 -0.01873,-10.64895 -0.01873,-15.69454c0,-0.78339 -0.02879,-6.29602 0.10727,-6.72446c0.40347,-1.2705 1.53631,-2.18898 2.14694,-3.37392c0.80361,-1.55942 0.51065,-3.47124 0.76452,-5.20708c0.19981,-1.36621 0.70065,-2.66815 1.16295,-3.97822c-0.40262,-0.94051 -0.6594,-2.07938 -1.05339,-2.92575c-0.55635,-1.19516 -1.48142,-2.52044 -1.12829,-3.79057c0.07125,-0.25628 0.16121,-0.50393 0.26648,-0.74451l-0.13819,-0.04606l0.98177,-2.94531c0.27179,-0.88373 1.02027,-1.55867 1.94536,-1.72471c-0.00754,-0.04698 -0.01525,-0.09331 -0.02314,-0.13896c-0.17951,-1.0387 -1.03527,-1.9465 -1,-3c0.06414,-1.91584 -0.48174,-4.86822 1.28807,-5.60464c1.68878,-0.7027 3.14449,-0.25899 4.36081,0.71065c1.04462,0.07481 1.91162,0.79143 2.20878,1.75766l0.68058,2.04174c0.48028,0.91241 0.85679,1.78905 1.12781,2.45957c1.18938,1.92017 2.21111,3.95022 3.13512,6.33733l-0.76095,0.24837c1.23057,3.78299 2.30894,7.78079 2.89522,11.24842c0.38127,2.25509 0.39206,4.57806 0.95764,6.79412c0.23634,0.96266 0.42934,1.92515 0.59329,2.88765c0.91049,2.95647 1.62353,5.9784 2.35001,8.90887l1.78843,4.47109c0.12865,0.30123 0.19986,0.63286 0.19986,0.98112c0,0.82585 -0.40044,1.55817 -1.01775,2.01339c1.4664,2.61878 3.41725,4.99579 4.76041,7.76734c0.39963,-2.87821 0.96544,-5.75447 1.5942,-8.42102c0.97047,-4.11571 3.16501,-8.25022 3.83846,-12.40255c0.80652,-4.97276 1.14859,-10.03601 2,-15c0.62665,-3.65357 2.42609,-6.59257 4.22193,-9.69792c0.77641,-1.34257 0.72156,-3.48352 2.12775,-4.13769c0.44266,-0.20593 1.45986,-0.06339 2.63748,0.22142c0.41445,-0.30509 0.92645,-0.48535 1.48055,-0.48535zM255,122.41571v-0.60321h0.05964c-0.01589,-0.1013 -0.02959,-0.2031 -0.04091,-0.30546c-0.02568,-0.2322 -0.01867,-0.46164 0.01149,-0.68923l-0.76246,0.76246c-0.12539,0.12539 -0.26403,0.23751 -0.41365,0.3341c0.38073,0.14595 0.76509,0.31336 1.14588,0.50134zM227.10849,46.63028c0.06845,0.57842 0.12514,1.15153 0.09067,1.70014c0.09863,-0.01183 0.19902,-0.01792 0.30084,-0.01792c0.07153,0 0.14235,0.003 0.21236,0.00889c-0.20328,-0.56466 -0.40631,-1.12838 -0.60387,-1.69112zM264.92691,125.40436c0.03842,-0.36069 0.07802,-0.71978 0.1097,-1.07014c-0.0571,0.35635 -0.09666,0.71302 -0.1097,1.07014z" fill="#ff4040" stroke="none" stroke-width="0.5"/><path d="M238.91812,106.03147c0.08784,0.01526 0.17515,0.03174 0.26186,0.04944c-0.09249,-0.08581 -0.18304,-0.17099 -0.27132,-0.25517zM243.1903,94.85579c0.12054,-0.30762 0.28816,-0.59496 0.48239,-0.87036c0.9449,-3.63975 1.81447,-7.3796 3.60771,-10.59146c0.11646,-0.63213 0.18167,-1.30201 0.54195,-1.76552l0.18124,-2.95121c0.07026,-1.31781 1.16107,-2.36474 2.4964,-2.36474c0.92839,0 1.73858,0.50605 2.16979,1.25736c0.44647,-0.24807 0.90987,-0.35235 1.40459,-0.19049c1.8391,0.60172 2.33562,3.17975 2.89334,5.03267c1.30367,4.33124 -1.29874,8.71379 -1.99925,12.79626c-0.28957,1.68759 0.15655,3.43731 0.08556,5.14386c0.14471,-0.02606 0.29375,-0.03966 0.44597,-0.03966c1.38071,0 2.5,1.11929 2.5,2.5c0,0.69036 -0.27982,1.31536 -0.73223,1.76777l-1.99373,1.99373c-0.08784,0.08923 -0.17482,0.17932 -0.26098,0.27024c0.0382,0.85126 -0.18584,1.7248 -0.04534,2.56781c0.17329,1.03975 0.84666,1.95712 1,3c0.48247,3.28125 -0.86283,5.77029 -0.96274,8.90046h2.49502c1.38071,0 2.5,1.11929 2.5,2.5c0,1.1246 -0.74256,2.07576 -1.76412,2.38994l-2.94531,0.98177l-0.02765,-0.08296c-0.119,0.06269 -0.23976,0.12244 -0.36246,0.17897c-1.02956,0.47424 -2.26693,0.02656 -3.40046,0.03228c-2.95057,0.01488 -5.84161,0.33235 -8.60852,-0.61003c-2.32938,0.02065 -4.62318,-0.07247 -6.79194,-0.42225c-0.24359,-0.03929 -0.48064,-0.10493 -0.71418,-0.18478c-1.21781,0.64665 -2.44339,1.28773 -3.76621,1.18827c-0.23493,-0.01766 -0.46712,-0.04727 -0.69693,-0.08726l-0.00962,0.04809l-3.23411,-0.64682l-0.83568,2.0892c-0.35452,0.94948 -1.26971,1.62559 -2.34282,1.62559c-1.38071,0 -2.5,-1.11929 -2.5,-2.5v-3h0.16872l-0.13644,-0.40046c0.01138,-0.03519 0.02275,-0.07038 0.03413,-0.10556c-0.46454,0.10969 -1.02603,0.0713 -1.68444,-0.25791c-2.23607,-1.11803 -1.11803,-3.3541 -1.11803,-3.3541c3.43265,-6.86529 5.60923,-13.4046 6.5736,-21.09224c0.30827,-2.45744 0.61818,-5.93913 0.19475,-8.38927c-0.57858,-3.34788 -1.58388,-6.24413 -1,-9.80091c0.4096,-2.49516 1.45415,-4.84545 2.06742,-7.29851l0.06368,-0.0799l-0.03509,-0.0117l0.98177,-2.94531c0.31417,-1.02156 1.26534,-1.76412 2.38994,-1.76412c1.38071,0 2.5,1.11929 2.5,2.5v3c0.32436,1.30817 -0.26866,4.21715 -0.03228,5.59954c0.65242,3.81542 2.12088,6.95003 3.78364,10.31354c0.42949,0.86879 0.37514,1.94244 0.87527,2.77259c0.48653,0.80758 1.52243,1.18709 2,2c1.06787,1.81772 0.92119,4.18876 2,6c0.0331,0.05558 0.07053,0.10791 0.11148,0.15757c0.10918,-1.88012 0.9203,-4.16416 1.25836,-5.20859c-0.02311,-0.54885 -0.00355,-1.08765 0.19384,-1.59136zM229.19726,109.12687c-0.0235,-0.07295 -0.04685,-0.14595 -0.07006,-0.21898c-0.0395,0.14991 -0.07952,0.29957 -0.12006,0.44901c0.06138,-0.07784 0.12478,-0.15452 0.19012,-0.23003z" fill="#fff940" stroke="none" stroke-width="0.5"/></g></g></svg>