<svg version="1.1" xmlns="http://www.w3.org/2000/svg" xmlns:xlink="http://www.w3.org/1999/xlink" width="99.42912" height="190.49895" viewBox="0,0,99.42912,190.49895"><g transform="translate(-189.53923,-121.50005)"><g data-paper-data="{&quot;isPaintingLayer&quot;:true}" fill-rule="nonzero" stroke-linecap="butt" stroke-linejoin="miter" stroke-miterlimit="10" stroke-dasharray="" stroke-dashoffset="0" style="mix-blend-mode: normal"><path d="M287.96835,182.06611c-0.9725,31.73544 -23.23703,56.53707 -49.72923,55.39599c-26.49219,-1.14108 -47.17998,-27.79277 -46.20748,-59.52821c0.9725,-31.73544 23.23703,-56.53707 49.72923,-55.39599c26.49219,1.14108 47.17998,27.79277 46.20748,59.52821z" fill="#ff9b3f" stroke="#000000" stroke-width="2"/><path d="M213.13792,217.68198c3.88051,2.3283 7.75304,4.4237 10.7103,8.05388c0.63713,0.78211 1.15303,4.17258 2.08466,4.57525c2.29165,0.99051 5.83268,-0.36215 8.37474,-0.13376c1.71674,0.15424 7.34908,2.2118 8.08137,1.6714c2.47541,-1.82677 3.94388,-3.89588 7.14847,-4.76199c1.15819,-0.31303 2.38318,-0.28678 3.57973,-0.37433c1.05734,-0.07737 2.45431,1.07434 3.16726,0.28971c1.68247,-1.85161 2.2005,-4.8589 4.37269,-6.10015c6.75451,-3.85972 15.7859,-2.46319 19.61719,4.64063c3.8655,7.16725 1.58466,20.38944 -0.76303,28.0984c-1.49192,4.89891 -4.84799,10.22491 -4.9743,15.44992c-0.35855,14.83195 -1.99767,22.95466 -9.88928,35.58184c-2.3009,3.68162 -9.65596,8.33844 -14.4072,7.13177c-3.7847,-0.96119 -5.16952,-1.92036 -7.63748,-4.66536c-1.44932,-1.61202 -6.7922,-4.12054 -8.80899,-5.89619c-3.77331,-3.32213 -6.8221,-7.51687 -10.45463,-10.93249c-0.40608,-0.38183 -0.78844,0.79245 -1.12781,1.23464c-1.88977,2.46236 -2.35676,6.25714 -4.23273,8.44577c-5.14947,6.00771 -12.1866,6.90115 -19.1306,4.00781c-9.76304,-4.06793 -7.44168,-21.67965 -7.73998,-29.1371c-0.16698,-4.17447 -1.56908,-8.45577 -1.56908,-12.6344c0,-9.73078 1.23302,-17.8107 1.75345,-27.20719c0.08088,-1.46039 0.13978,-3.20383 0.31284,-4.95513c0.02549,-1.41619 0.26905,-2.77914 0.69852,-4.05668c0.24947,-0.89937 0.57017,-1.73117 0.98675,-2.44557c3.97939,-6.82425 12.74751,-8.37887 19.71547,-5.89031z" fill="#ff6666" stroke="none" stroke-width="0.5"/><path d="M235.2976,224.52257c1.63998,0.34079 3.59057,0.14362 4.875,1.21875c1.61498,1.35182 1.55653,4.09119 3.13473,5.48578c0.03946,0.03487 1.15119,-1.7921 1.51487,-2.30954c1.02861,-1.4635 3.63957,-5.22664 5.38497,-5.1487c6.44992,0.28801 8.46803,-0.42895 12.62067,4.65842c4.85191,5.94404 -0.66035,17.18758 -1.44561,23.2502c-0.51415,3.96953 0.65854,8.94064 0.49499,12.7894c-0.50261,11.82767 -5.50141,29.1153 -19.59972,29.1153c-5.54753,0 -12.06604,-3.94473 -15.65051,-7.82525c-1.2961,-1.40315 -2.48791,-3.8836 -3.58429,-5.54028c-0.09337,-0.14108 -0.03623,-0.52058 -0.19695,-0.46777c-5.63966,1.85305 -14.37284,5.37276 -17.05833,-3.99183c-0.06242,-0.21768 -1.31631,-3.88736 -1.09008,-4.90537c0.6828,-3.0726 1.47794,-6.45842 3.07004,-9.26017c0.82748,-1.45618 2.91643,-3.11049 3.40159,-4.77657c2.03698,-6.99511 2.55122,-14.4965 5.35597,-21.26776c0.80076,-1.9332 2.30767,-6.36337 4.56108,-6.48856l5.3018,-1.56612c0.10111,0 0.20186,0.00154 0.30223,0.00459c2.83054,-0.08948 4.1593,-3.89888 8.60757,-2.97453z" fill="#ffeb66" stroke="none" stroke-width="0.5"/></g></g></svg>