<svg version="1.1" xmlns="http://www.w3.org/2000/svg" xmlns:xlink="http://www.w3.org/1999/xlink" width="80" height="37.62495" viewBox="0,0,80,37.62495"><g transform="translate(-181,-149.18752)"><g data-paper-data="{&quot;isPaintingLayer&quot;:true}" fill-rule="nonzero" stroke-linejoin="miter" stroke-miterlimit="10" stroke-dasharray="" stroke-dashoffset="0" style="mix-blend-mode: normal"><path d="M239.8,150.9c1.7,-0.2 3.5,-0.4 5.2,-0.4h3.7c6.8,0 12.3,5.5 12.3,12.3v5.2v5.2c0,6.8 -5.5,12.3 -12.3,12.3h-3.7c-1.8,0 -3.5,-0.1 -5.2,-0.4l-5.1,-0.7c-11.6,0.4 -23.1,0.7 -34.7,1.1h-9.5c-5.3,0 -9.5,-4.2 -9.5,-9.5v-8v-8c0,-5.2 4.2,-9.5 9.5,-9.5h9.5c11.6,0.4 23.1,0.7 34.7,1.1z" fill="#a7b839" stroke="none" stroke-width="1" stroke-linecap="butt"/><path d="M233.6,184.2c-4.7,0.1 -11.3,0.2 -14.7,0.3c-4.2,0.1 -10.3,0.1 -17.9,0h-8.9c-4.9,0 -8.9,-4 -8.9,-8.9v-7.6v-7.6c0,-0.6 0.1,-3.8 2.6,-6.3c2.9,-2.8 6.5,-2.6 7.1,-2.6c3.4,-0.1 6.9,-0.2 10.3,-0.3c9.6,0.3 19.3,0.5 29,0.6c2.2,0.1 4.3,0.1 6.5,0.1c1.6,-0.3 3.2,-0.4 4.9,-0.4h3.5c6.4,0 11.6,5.2 11.6,11.6v4.9v5c0,6.4 -5.2,11.6 -11.6,11.6h-3.5c-1.6,0 -3.3,-0.2 -4.9,-0.4c-1.4,0 -3.4,0.1 -5.1,0z" fill="#bbd646" stroke="none" stroke-width="1" stroke-linecap="butt"/><path d="M257.4,154.6c0.8,1.1 0.9,2.6 0.3,3.8c-0.4,-0.8 -1,-1.6 -1.7,-2.5c-0.9,-1.1 -1.7,-1.9 -2.5,-2.5c1.5,-0.4 3,0 3.9,1.2z" fill="#e9e8d8" stroke="none" stroke-width="1" stroke-linecap="butt"/><path d="M253.5,182.6c0.8,-0.6 1.6,-1.4 2.5,-2.5c0.7,-0.9 1.3,-1.7 1.7,-2.5c0.6,1.2 0.5,2.7 -0.3,3.8c-0.9,1.2 -2.4,1.7 -3.9,1.2z" fill="#e9e8d8" stroke="none" stroke-width="1" stroke-linecap="butt"/><path d="M235.5,153.5c-0.1,-0.2 -0.2,-0.5 -0.3,-0.8c-0.5,-1.1 -1.2,-2.8 -1.2,-3c-0.1,-0.3 0.8,-0.8 1.8,-0.3c1,0.5 3,3.4 3,3.4l-0.2,0.1l-0.5,0.1c-0.5,0.1 -1.4,0.3 -2.6,0.5z" fill="#a7b839" stroke="none" stroke-width="1" stroke-linecap="butt"/><path d="M233.9,186.3c0.1,-0.2 0.7,-1.8 1.2,-2.9v-0.1c0.1,-0.3 0.2,-0.5 0.3,-0.7c1.9,0.3 3.1,0.6 3.2,0.6c-0.1,0.1 -2,2.9 -3,3.4c-0.9,0.5 -1.7,0 -1.7,-0.3z" fill="#a7b839" stroke="none" stroke-width="1" stroke-linecap="butt"/><path d="M217.3,154.6c0.3,-0.8 0.5,-1.6 0.9,-2.4c4.7,0 10.3,0.2 17,0.5c1.1,0.1 2.2,0.1 3.4,0.2c0.1,0 0.1,0 0.2,0c0,0 -0.2,0 -0.6,0.1c-0.5,0.1 -1.5,0.3 -2.6,0.5c-2.3,0.4 -5.6,0.8 -9.4,1c-2.3,0.1 -5.4,0.1 -8.9,0.1z" fill="#2d2d2d" stroke="none" stroke-width="1" stroke-linecap="butt"/><path d="M216.7,154.6c-7.8,-0.1 -16.9,-0.4 -20.3,-1.3c0,0 4.2,-1.2 21.1,-1.1c-0.2,0.8 -0.6,1.6 -0.8,2.4z" fill="#2d2d2d" stroke="none" stroke-width="1" stroke-linecap="butt"/><path d="M218.1,183.8c-0.4,-0.8 -0.5,-1.6 -0.9,-2.4c3.6,0 6.6,0 8.8,0.1c3.7,0.2 7.1,0.6 9.4,1c1.9,0.3 3.1,0.6 3.2,0.6c-1.2,0.1 -2.4,0.1 -3.6,0.2c-6.6,0.4 -12.2,0.5 -16.9,0.5z" fill="#2d2d2d" stroke="none" stroke-width="1" stroke-linecap="butt"/><path d="M217.5,183.9c-16.9,0.1 -21.1,-1.1 -21.1,-1.1c3.4,-0.9 12.5,-1.2 20.3,-1.3c0.2,0.7 0.6,1.5 0.8,2.4z" fill="#2d2d2d" stroke="none" stroke-width="1" stroke-linecap="butt"/><path d="M183.6,158.1c-0.9,-0.9 -0.9,-2.3 -0.2,-3.3c0.6,-0.7 1.6,-1.1 2.7,-0.8c-0.3,0.6 -0.6,1.3 -1,2c-0.5,0.8 -1,1.5 -1.5,2.1z" fill="#d32027" stroke="none" stroke-width="1" stroke-linecap="butt"/><path d="M185.1,180.2c0.4,0.7 0.7,1.4 1,2c-1,0.2 -2.1,-0.1 -2.7,-0.9c-0.7,-1 -0.6,-2.3 0.2,-3.3c0.5,0.6 1,1.3 1.5,2.2z" fill="#d32027" stroke="none" stroke-width="1" stroke-linecap="butt"/><path d="M200.1,167.9c0,7.7 1.5,11.2 1.5,11.2l-9.5,2.8c-1.2,0.4 -2.5,-0.3 -2.9,-1.5c-0.9,-2.5 -2.3,-7 -2.3,-12.5v0v0v0v0c0,-5.4 1.4,-10 2.3,-12.5c0.5,-1.2 1.7,-1.8 2.9,-1.5l9.5,2.8c0,0 -1.5,3.5 -1.5,11.2z" fill="#2d2d2d" stroke="none" stroke-width="1" stroke-linecap="butt"/><path d="M243.7,180.3c-1.1,1.2 -2.7,1.8 -4.3,1.6l-10.1,-1.3c0,0 1.4,-6.4 1.4,-12.6c0,-6.1 -1.4,-12.6 -1.4,-12.6l10.1,-1.3c1.6,-0.2 3.2,0.4 4.3,1.6c1.8,1.9 3.9,5.6 3.9,12.3v0v0v0v0c0,6.7 -2.1,10.4 -3.9,12.3z" fill="#2d2d2d" stroke="none" stroke-width="1" stroke-linecap="butt"/><path d="M256.3,154" fill="#e9e8d8" stroke="none" stroke-width="1" stroke-linecap="butt"/><path d="M225.6125,165.72656l-2.375,0.625" fill="none" stroke="#bbd646" stroke-width="2" stroke-linecap="round"/></g></g></svg>