<svg version="1.1" xmlns="http://www.w3.org/2000/svg" xmlns:xlink="http://www.w3.org/1999/xlink" width="120" height="52.288" viewBox="0,0,120,52.288"><defs><linearGradient x1="181.0479" y1="176.9307" x2="301.0479" y2="176.9307" gradientUnits="userSpaceOnUse" id="color-1"><stop offset="0" stop-color="#fbb040"/><stop offset="1" stop-color="#f15a29"/></linearGradient><linearGradient x1="185.5508" y1="176.9297" x2="296.5439" y2="176.9297" gradientUnits="userSpaceOnUse" id="color-2"><stop offset="0" stop-color="#ed7340"/><stop offset="0.5181" stop-color="#f4aa46"/><stop offset="1" stop-color="#f29746"/></linearGradient></defs><g transform="translate(-181.048,-150.787)"><g data-paper-data="{&quot;isPaintingLayer&quot;:true}" fill-rule="nonzero" stroke="none" stroke-linecap="butt" stroke-linejoin="miter" stroke-miterlimit="10" stroke-dasharray="" stroke-dashoffset="0" style="mix-blend-mode: normal"><path d="M301.048,176.931c0,14.415 -11.73,26.144 -26.146,26.144h-67.711c-14.415,0 -26.143,-11.728 -26.143,-26.144c0,-14.416 11.727,-26.144 26.143,-26.144h67.711c14.416,0 26.145,11.727 26.146,26.144z" fill="url(#color-1)" stroke-width="1"/><path d="M296.544,176.929c0,11.953 -9.689,21.641 -21.642,21.641h-67.711c-11.952,0 -21.64,-9.688 -21.64,-21.641v0c0,-11.951 9.688,-21.64 21.64,-21.64h67.711c11.952,0 21.642,9.689 21.642,21.64z" fill="url(#color-2)" stroke-width="1"/><path d="M239.79628,189.95426c-1,0 -1,-1 -1,-1l0.00023,-0.14122c-0.09292,-4.41142 -0.24794,-8.8441 -0.37428,-13.26171c-0.01443,-0.50455 -0.1522,-1.20707 -0.22163,-1.89569c-2.03894,1.87798 -5.11395,2.72369 -7.77265,3.39999c0,0 -0.97014,0.24254 -1.21268,-0.72761c-0.24254,-0.97014 0.72761,-1.21268 0.72761,-1.21268c2.71075,-0.66377 6.42999,-1.56736 7.84488,-4.08708l0.64195,-1.12342c0.16976,-0.31029 0.49925,-0.52072 0.87787,-0.52072c0.55228,0 1,0.44772 1,1v1.14027l-0.14497,0c1.18601,5.33037 0.51688,12.00864 0.63342,17.24529l0.00023,0.18457c0,0 0,1 -1,1z" fill="#00ffce" stroke-width="0.5"/></g></g></svg>