<svg version="1.1" xmlns="http://www.w3.org/2000/svg" xmlns:xlink="http://www.w3.org/1999/xlink" width="120" height="52.288" viewBox="0,0,120,52.288"><defs><linearGradient x1="181.0479" y1="176.9307" x2="301.0479" y2="176.9307" gradientUnits="userSpaceOnUse" id="color-1"><stop offset="0" stop-color="#fbb040"/><stop offset="1" stop-color="#f15a29"/></linearGradient><linearGradient x1="185.5508" y1="176.9297" x2="296.5439" y2="176.9297" gradientUnits="userSpaceOnUse" id="color-2"><stop offset="0" stop-color="#ed7340"/><stop offset="0.5181" stop-color="#f4aa46"/><stop offset="1" stop-color="#f29746"/></linearGradient></defs><g transform="translate(-181.048,-150.787)"><g data-paper-data="{&quot;isPaintingLayer&quot;:true}" fill-rule="nonzero" stroke="none" stroke-linecap="butt" stroke-linejoin="miter" stroke-miterlimit="10" stroke-dasharray="" stroke-dashoffset="0" style="mix-blend-mode: normal"><path d="M301.048,176.931c0,14.415 -11.73,26.144 -26.146,26.144h-67.711c-14.415,0 -26.143,-11.728 -26.143,-26.144c0,-14.416 11.727,-26.144 26.143,-26.144h67.711c14.416,0 26.145,11.727 26.146,26.144z" fill="url(#color-1)" stroke-width="1"/><path d="M296.544,176.929c0,11.953 -9.689,21.641 -21.642,21.641h-67.711c-11.952,0 -21.64,-9.688 -21.64,-21.641v0c0,-11.951 9.688,-21.64 21.64,-21.64h67.711c11.952,0 21.642,9.689 21.642,21.64z" fill="url(#color-2)" stroke-width="1"/><path d="M227.89622,184.71534c0.16652,-0.98604 1.15256,-0.81952 1.15256,-0.81952l0.98798,0.169c4.13819,0.14872 6.10814,-0.33156 9.92287,-1.95635c1.32887,-0.566 4.33027,-0.96894 3.65934,-3.14636c-0.09507,-0.30854 -2.45152,-0.80831 -2.60595,-0.85134c-2.4349,-0.67851 -4.13889,-0.94637 -5.85477,-1.93258l-0.2099,0.34108l-1.68823,-1.03891c-0.29392,-0.17415 -0.49099,-0.49453 -0.49099,-0.86094c0,-0.55228 0.44772,-1 1,-1h0.4292c-1.98892,-3.02804 -2.09513,-5.91601 -6.23006,-6.31266c0,0 -0.99504,-0.0995 -0.89553,-1.09454c0.0995,-0.99504 1.09454,-0.89553 1.09454,-0.89553c4.14984,0.42976 8.63434,5.012 7.57618,9.34352l0.25309,0.15575l-0.01548,0.02516c2.58925,0.07063 6.28995,1.04041 8.18341,2.14763c1.68986,0.98816 2.00177,3.62564 0.61241,5.13903c-0.19748,0.21511 -3.59155,1.6325 -4.03354,1.82075c-4.06238,1.73027 -6.49316,2.27402 -10.91055,2.10587l-1.11705,-0.18649c0,0 -0.98604,-0.16652 -0.81952,-1.15256z" fill="#00ffce" stroke-width="0.5"/></g></g></svg>