<svg version="1.1" xmlns="http://www.w3.org/2000/svg" xmlns:xlink="http://www.w3.org/1999/xlink" width="120" height="52.288" viewBox="0,0,120,52.288"><defs><linearGradient x1="181.0479" y1="176.9307" x2="301.0479" y2="176.9307" gradientUnits="userSpaceOnUse" id="color-1"><stop offset="0" stop-color="#fbb040"/><stop offset="1" stop-color="#f15a29"/></linearGradient><linearGradient x1="185.5508" y1="176.9297" x2="296.5439" y2="176.9297" gradientUnits="userSpaceOnUse" id="color-2"><stop offset="0" stop-color="#ed7340"/><stop offset="0.5181" stop-color="#f4aa46"/><stop offset="1" stop-color="#f29746"/></linearGradient></defs><g transform="translate(-181.048,-150.787)"><g data-paper-data="{&quot;isPaintingLayer&quot;:true}" fill-rule="nonzero" stroke="none" stroke-linecap="butt" stroke-linejoin="miter" stroke-miterlimit="10" stroke-dasharray="" stroke-dashoffset="0" style="mix-blend-mode: normal"><path d="M301.048,176.931c0,14.415 -11.73,26.144 -26.146,26.144h-67.711c-14.415,0 -26.143,-11.728 -26.143,-26.144c0,-14.416 11.727,-26.144 26.143,-26.144h67.711c14.416,0 26.145,11.727 26.146,26.144z" fill="url(#color-1)" stroke-width="1"/><path d="M296.544,176.929c0,11.953 -9.689,21.641 -21.642,21.641h-67.711c-11.952,0 -21.64,-9.688 -21.64,-21.641v0c0,-11.951 9.688,-21.64 21.64,-21.64h67.711c11.952,0 21.642,9.689 21.642,21.64z" fill="url(#color-2)" stroke-width="1"/><path d="M250.60927,179.1591c0.14187,-0.09811 0.33279,-0.16412 0.58972,-0.16412c1,0 1,1 1,1l-1,1.1629c-4.3856,-0.00402 -10.06834,0.04783 -14.80529,-1.25787c-4.96738,3.68905 -10.25744,7.02597 -15.24488,10.5245l-0.45285,0.23866c0,0 -0.89443,0.44721 -1.34164,-0.44721c-0.44721,-0.89443 0.44721,-1.34164 0.44721,-1.34164l0.19874,-0.08714c4.59792,-3.22529 9.46781,-6.30934 14.09331,-9.66829c-0.83576,-0.34591 -1.62278,-0.75057 -2.34523,-1.22397c0,0 -0.83205,-0.5547 -0.27735,-1.38675c0.5547,-0.83205 1.38675,-0.27735 1.38675,-0.27735c0.91208,0.62152 1.96579,1.11196 3.11151,1.4988c2.72789,-2.06366 5.34261,-4.24655 7.73284,-6.63838c1.19235,-1.1888 2.18941,-3.07577 3.50209,-4.22597c-0.42138,0.04276 -0.85784,-0.03842 -1.28423,-0.03387c-1.99223,0.02125 -3.96819,0.15429 -5.96079,0.15454c-5.49971,0.00071 -11.89938,0.56851 -17.1294,-1.36684c0,0 -0.93633,-0.35112 -0.58521,-1.28745c0.35112,-0.93633 1.28745,-0.58521 1.28745,-0.58521c5.98729,2.28032 14.03925,1.35847 20.33938,1.11549c0.64724,-0.02496 5.40928,-0.41675 5.73481,0.43538c0.80357,2.10352 -3.20219,5.91688 -4.48988,7.20814c-2.09726,2.09591 -4.36149,4.03418 -6.72147,5.87333c4.01616,0.83643 8.63988,0.7906 12.21442,0.78033z" fill="#00ffce" stroke-width="0.5"/></g></g></svg>