<svg version="1.1" xmlns="http://www.w3.org/2000/svg" xmlns:xlink="http://www.w3.org/1999/xlink" width="120" height="52.288" viewBox="0,0,120,52.288"><defs><linearGradient x1="181.0479" y1="176.9307" x2="301.0479" y2="176.9307" gradientUnits="userSpaceOnUse" id="color-1"><stop offset="0" stop-color="#fbb040"/><stop offset="1" stop-color="#f15a29"/></linearGradient><linearGradient x1="185.5508" y1="176.9297" x2="296.5439" y2="176.9297" gradientUnits="userSpaceOnUse" id="color-2"><stop offset="0" stop-color="#ed7340"/><stop offset="0.5181" stop-color="#f4aa46"/><stop offset="1" stop-color="#f29746"/></linearGradient></defs><g transform="translate(-181.048,-150.787)"><g data-paper-data="{&quot;isPaintingLayer&quot;:true}" fill-rule="nonzero" stroke="none" stroke-linecap="butt" stroke-linejoin="miter" stroke-miterlimit="10" stroke-dasharray="" stroke-dashoffset="0" style="mix-blend-mode: normal"><path d="M301.048,176.931c0,14.415 -11.73,26.144 -26.146,26.144h-67.711c-14.415,0 -26.143,-11.728 -26.143,-26.144c0,-14.416 11.727,-26.144 26.143,-26.144h67.711c14.416,0 26.145,11.727 26.146,26.144z" fill="url(#color-1)" stroke-width="1"/><path d="M296.544,176.929c0,11.953 -9.689,21.641 -21.642,21.641h-67.711c-11.952,0 -21.64,-9.688 -21.64,-21.641v0c0,-11.951 9.688,-21.64 21.64,-21.64h67.711c11.952,0 21.642,9.689 21.642,21.64z" fill="url(#color-2)" stroke-width="1"/><path d="M234.88678,177.38864c0,-1 1,-1 1,-1l1.15626,0.01613c0.32114,0.05846 0.64371,0.11184 0.96734,0.16153c3.18424,-4.00366 7.65292,-6.98561 12.04089,-9.49387c0,0 0.86824,-0.49614 1.36438,0.3721c0.49614,0.86824 -0.3721,1.36438 -0.3721,1.36438c-3.79911,2.17016 -7.74974,4.72197 -10.70437,8.06921c2.02771,0.24913 4.06125,0.48535 6.00967,1.04459c3.36997,1.67457 5.72676,4.15767 6.9391,7.78317c0.92227,2.75804 0.40032,5.57124 -2.77655,6.48599c-4.45817,1.28369 -10.76298,-1.88439 -14.46918,-3.99835c-3.41773,-2.11937 -1.77639,-5.35288 -0.25792,-8.23673c0.28579,-0.54276 0.59466,-1.06914 0.92435,-1.58006c-0.0078,-0.00141 -0.01559,-0.00282 -0.02338,-0.00424l-0.79849,0.01613c0,0 -1,0 -1,-1zM238.89266,178.70085c-0.49132,0.69444 -0.93904,1.4205 -1.33518,2.18108c-0.8471,1.62643 -2.78987,4.45705 -0.52298,5.57513c3.17757,1.81931 9.03692,4.90941 12.89733,3.82065c2.11211,-0.59568 2.02351,-2.23852 1.45875,-3.93935c-1.00877,-3.038 -2.95607,-5.13604 -5.76678,-6.55167c-2.16557,-0.61498 -4.46829,-0.8024 -6.73115,-1.08583z" fill="#00ffce" stroke-width="0.5"/></g></g></svg>