<svg version="1.1" xmlns="http://www.w3.org/2000/svg" xmlns:xlink="http://www.w3.org/1999/xlink" width="144.48416" height="74.41386" viewBox="0,0,144.48416,74.41386"><defs><linearGradient x1="181.0181" y1="176.9307" x2="301.0176" y2="176.9307" gradientUnits="userSpaceOnUse" id="color-1"><stop offset="0" stop-color="#27aae1"/><stop offset="1" stop-color="#115489"/></linearGradient><linearGradient x1="185.5205" y1="176.9307" x2="296.5137" y2="176.9307" gradientUnits="userSpaceOnUse" id="color-2"><stop offset="0" stop-color="#2f7eba"/><stop offset="0.506" stop-color="#3f9dd6"/><stop offset="1" stop-color="#3e97d1"/></linearGradient></defs><g transform="translate(-156.53384,-128.66014)"><g data-paper-data="{&quot;isPaintingLayer&quot;:true}" fill-rule="nonzero" stroke="none" stroke-linecap="butt" stroke-linejoin="miter" stroke-miterlimit="10" stroke-dasharray="" stroke-dashoffset="0" style="mix-blend-mode: normal"><path d="M301.018,176.93c0,14.416 -11.729,26.144 -26.144,26.144h-67.713c-14.415,0 -26.143,-11.727 -26.143,-26.144c0,-14.415 11.727,-26.143 26.143,-26.143h67.713c14.415,0 26.144,11.728 26.144,26.143z" fill="url(#color-1)" stroke-width="1"/><path d="M296.514,176.93c0,11.952 -9.688,21.641 -21.64,21.641h-67.713c-11.952,0 -21.641,-9.689 -21.641,-21.641v0c0,-11.951 9.689,-21.64 21.641,-21.64h67.713c11.952,0 21.64,9.689 21.64,21.64z" fill="url(#color-2)" stroke-width="1"/><path d="" fill="#9966ff" stroke-width="0.5"/><path d="M156.53384,129.66014c0,-0.55228 0.44772,-1 1,-1c0.55228,0 1,0.44772 1,1c0,0.55228 -0.44772,1 -1,1c-0.55228,0 -1,-0.44772 -1,-1z" fill="#000000" stroke-width="0.5"/><path d="M211.1266,184.53344c3.71555,0.04895 5.09404,-1.75443 4.24895,-5.08601c-0.12277,-0.484 -0.2244,-0.95378 -0.64234,-1.28112c-0.7052,-0.55235 -1.55101,-0.77542 -2.421,-1.05389l-0.03778,0.0054l-0.11939,0.41787l-1.11902,-0.31972c-0.00321,-0.00084 -0.00641,-0.00169 -0.0096,-0.00256c0.03094,2.43623 -0.26743,5.00275 -0.3468,7.40067zM211.16263,175.25634l1.12572,-0.16082l0.00774,0.05421l0.12491,-0.06422c2.6319,0.50726 -0.02146,-4.51369 -2.49058,-4.56571c0.28766,1.33086 0.66312,2.58957 0.8801,3.93943c0.04542,0.28258 0.0826,0.5689 0.11257,0.8584c0.07576,-0.02985 0.15605,-0.05072 0.23954,-0.06129zM215.17613,172.52939c0.47223,1.46357 0.53975,2.74876 0.01232,3.58149c0.74166,0.44757 1.4024,1.08619 1.70344,1.61436c2.77096,4.86157 -0.76313,8.75853 -5.7653,8.8082l-0.51547,0.1196c-0.08524,0.29411 -0.31753,0.69488 -0.95059,0.69488c-1,0 -1,-1 -1,-1v-0.65158c0,-3.52383 0.67226,-7.46688 0.17581,-10.91674c-0.25438,-1.76765 -0.87518,-3.54932 -1.14313,-5.39433c0,0 -0.14142,-0.98995 0.84853,-1.13137c0.51242,-0.0732 0.79749,0.15673 0.95328,0.39559c2.28399,-0.04275 4.9684,1.67101 5.68111,3.87991z" fill="#00ffce" stroke-width="0.5"/><path d="M230.32684,181.47362c-1.68684,0.22913 -3.25146,0.03195 -4.86214,-0.47931c-0.4158,1.65465 -0.78343,3.31079 -0.96413,4.97536c0,0 -0.11043,0.99388 -1.10432,0.88345c-0.99388,-0.11043 -0.88345,-1.10432 -0.88345,-1.10432c0.58376,-5.14818 2.92622,-10.24564 2.92853,-15.43557l0.02945,-0.0674l-0.02191,-0.00313l0.16082,-1.12572c0.06234,-0.49238 0.48272,-0.87313 0.99203,-0.87313c0.31149,0 0.58971,0.14241 0.77311,0.36568l0.80959,0.97151l-0.27821,0.23184c0.92736,1.23443 1.18616,2.54613 1.9109,4.45148c1.44774,3.8061 2.8597,7.66283 4.68356,11.31056l0.32579,0.65158c0,0 0.44721,0.89443 -0.44721,1.34164c-0.89443,0.44721 -1.34164,-0.44721 -1.34164,-0.44721l-0.32579,-0.65158c-0.81537,-1.63074 -1.54994,-3.30192 -2.24242,-4.9916zM227.94741,174.97447c-0.16817,-0.44146 -0.45962,-1.01115 -0.72914,-1.61659c-0.27074,1.90753 -0.75756,3.80305 -1.25234,5.69696c1.23149,0.41356 2.45051,0.61688 3.72774,0.48371c-0.5947,-1.5185 -1.1676,-3.04507 -1.74625,-4.56408z" fill="#00ffce" stroke-width="0.5"/><path d="M239.61076,186.34792c0,-1 1,-1 1,-1h0.81448c0.83892,0.00174 2.33103,-0.30301 2.8107,0.59426c0.18449,0.34511 -0.1954,-0.76208 -0.22448,-1.15233c-0.06585,-0.88382 -0.13643,-1.17622 -0.5942,-1.98845c-1.12463,-1.99549 -4.68764,-4.05852 -4.93124,-6.37744c-0.33884,-3.22554 3.07536,-4.49054 5.65598,-4.26449c0,0 0.99388,0.11043 0.88345,1.10432c-0.11043,0.99388 -1.10432,0.88345 -1.10432,0.88345c-1.3155,-0.19209 -4.49763,0.64071 -3.12506,2.53117c1.94337,2.67664 4.95257,4.25165 5.21035,7.96967c0.06211,0.89576 0.08773,2.5228 -0.87606,3.08296c-0.27516,0.15993 -3.12841,-0.38447 -3.70513,-0.38311h-0.81448c0,0 -1,0 -1,-1z" fill="#00ffce" stroke-width="0.5"/><path d="M242.54289,191.88638c0,-0.55228 0.44772,-1 1,-1c0.55228,0 1,0.44772 1,1c0,0.55228 -0.44772,1 -1,1c-0.55228,0 -1,-0.44772 -1,-1z" fill="#00ffce" stroke-width="0.5"/><path d="M257.32374,184.21633c0.24608,-0.1652 0.75358,-0.3862 1.26109,0.12131c0.70711,0.70711 0,1.41421 0,1.41421l-0.87,0.45579c-1.78236,0 -5.19037,0.8516 -6.78613,0.0642c-1.6035,-0.79122 -1.28015,-2.53587 -1.37878,-3.92544c-0.22423,-3.15931 -0.99346,-6.11295 -0.64798,-9.30349c0,0 0.11043,-0.99388 1.10432,-0.88345c0.99388,0.11043 0.88345,1.10432 0.88345,1.10432c-0.34859,3.04907 0.4378,5.91591 0.65518,8.94085c0.00794,0.11055 -0.17705,2.17745 0.25018,2.26461c1.61285,0.32903 3.78233,-0.17933 5.52866,-0.25291z" fill="#00ffce" stroke-width="0.5"/><path d="M265.85963,183.27552c-0.5788,-0.0113 -1.16512,-0.10244 -1.72472,-0.27125c-0.18497,1.00748 -0.48056,2.00163 -0.96457,2.97638c0,0 -0.44721,0.89443 -1.34164,0.44721c-0.89443,-0.44721 -0.44721,-1.34164 -0.44721,-1.34164c1.65235,-3.27889 0.87132,-7.0833 1.37054,-10.60823l0.16082,-1.12572c0.06234,-0.49238 0.48272,-0.87313 0.99203,-0.87313c0.3992,0 0.74377,0.23392 0.90412,0.57216l0.80479,1.60958l-0.36218,0.18109c1.34545,2.73135 1.84571,5.8804 3.25659,8.70959l0.77151,1.07484c0,0 0.58124,0.81373 -0.2325,1.39497c-0.81373,0.58124 -1.39497,-0.2325 -1.39497,-0.2325l-0.85745,-1.2057c-0.20717,-0.41329 -0.43268,-0.85112 -0.66377,-1.30766zM264.45272,179.47691c-0.01632,0.5049 -0.03768,1.00828 -0.07324,1.50942c0.24179,0.10885 0.50042,0.1873 0.76414,0.23506c-0.25325,-0.57074 -0.48994,-1.15515 -0.6909,-1.74448z" fill="#00ffce" stroke-width="0.5"/></g></g></svg>