<svg version="1.1" xmlns="http://www.w3.org/2000/svg" xmlns:xlink="http://www.w3.org/1999/xlink" width="120" height="52.288" viewBox="0,0,120,52.288"><defs><linearGradient x1="181.0479" y1="176.9307" x2="301.0479" y2="176.9307" gradientUnits="userSpaceOnUse" id="color-1"><stop offset="0" stop-color="#fbb040"/><stop offset="1" stop-color="#f15a29"/></linearGradient><linearGradient x1="185.5508" y1="176.9297" x2="296.5439" y2="176.9297" gradientUnits="userSpaceOnUse" id="color-2"><stop offset="0" stop-color="#ed7340"/><stop offset="0.5181" stop-color="#f4aa46"/><stop offset="1" stop-color="#f29746"/></linearGradient></defs><g transform="translate(-181.048,-150.787)"><g data-paper-data="{&quot;isPaintingLayer&quot;:true}" fill-rule="nonzero" stroke="none" stroke-linecap="butt" stroke-linejoin="miter" stroke-miterlimit="10" stroke-dasharray="" stroke-dashoffset="0" style="mix-blend-mode: normal"><path d="M301.048,176.931c0,14.415 -11.73,26.144 -26.146,26.144h-67.711c-14.415,0 -26.143,-11.728 -26.143,-26.144c0,-14.416 11.727,-26.144 26.143,-26.144h67.711c14.416,0 26.145,11.727 26.146,26.144z" fill="url(#color-1)" stroke-width="1"/><path d="M296.544,176.929c0,11.953 -9.689,21.641 -21.642,21.641h-67.711c-11.952,0 -21.64,-9.688 -21.64,-21.641v0c0,-11.951 9.688,-21.64 21.64,-21.64h67.711c11.952,0 21.642,9.689 21.642,21.64z" fill="url(#color-2)" stroke-width="1"/><path d="M242.34709,195.68851c-0.70711,-0.70711 0,-1.41421 0,-1.41421l0.18517,-0.14911c1.35979,-2.17318 2.84968,-4.21895 4.29337,-6.33349c0.01165,-0.01707 1.19829,-1.75234 1.944,-2.71675c-0.72269,0.10619 -1.87244,-0.00909 -2.49909,-0.00843c-4.51687,-0.37858 -8.91236,-1.73682 -13.35093,-2.62526c-0.4608,-0.09224 -3.50317,-0.49844 -3.67003,-1.1165c-0.12992,-0.48122 1.32331,-2.37895 1.787,-3.01156c2.75883,-3.76386 5.51939,-7.52645 8.27909,-11.28967c0,0 0.59136,-0.8064 1.39777,-0.21504c0.8064,0.59136 0.21504,1.39777 0.21504,1.39777c-2.36545,3.22562 -4.73091,6.45124 -7.09636,9.67686c-0.08263,0.11267 -0.84851,1.50112 -1.61101,2.28215c1.45075,0.13546 3.28268,0.79605 4.52764,1.06283c3.19143,0.68388 6.34766,1.57011 9.60496,1.84015c0.67619,0.00082 4.03335,-0.48911 4.4059,-0.03994c1.17699,1.41907 -0.51851,3.3033 -1.14543,4.24166c-1.77784,2.66104 -3.68846,5.2023 -5.38645,7.91608l-0.46642,0.50247c0,0 -0.70711,0.70711 -1.41421,0z" fill="#00ffce" stroke-width="0.5"/></g></g></svg>