<svg version="1.1" xmlns="http://www.w3.org/2000/svg" xmlns:xlink="http://www.w3.org/1999/xlink" width="120" height="52.288" viewBox="0,0,120,52.288"><defs><linearGradient x1="181.0479" y1="176.9307" x2="301.0479" y2="176.9307" gradientUnits="userSpaceOnUse" id="color-1"><stop offset="0" stop-color="#fbb040"/><stop offset="1" stop-color="#f15a29"/></linearGradient><linearGradient x1="185.5508" y1="176.9297" x2="296.5439" y2="176.9297" gradientUnits="userSpaceOnUse" id="color-2"><stop offset="0" stop-color="#ed7340"/><stop offset="0.5181" stop-color="#f4aa46"/><stop offset="1" stop-color="#f29746"/></linearGradient></defs><g transform="translate(-181.048,-150.787)"><g data-paper-data="{&quot;isPaintingLayer&quot;:true}" fill-rule="nonzero" stroke="none" stroke-linecap="butt" stroke-linejoin="miter" stroke-miterlimit="10" stroke-dasharray="" stroke-dashoffset="0" style="mix-blend-mode: normal"><path d="M301.048,176.931c0,14.415 -11.73,26.144 -26.146,26.144h-67.711c-14.415,0 -26.143,-11.728 -26.143,-26.144c0,-14.416 11.727,-26.144 26.143,-26.144h67.711c14.416,0 26.145,11.727 26.146,26.144z" fill="url(#color-1)" stroke-width="1"/><path d="M296.544,176.929c0,11.953 -9.689,21.641 -21.642,21.641h-67.711c-11.952,0 -21.64,-9.688 -21.64,-21.641v0c0,-11.951 9.688,-21.64 21.64,-21.64h67.711c11.952,0 21.642,9.689 21.642,21.64z" fill="url(#color-2)" stroke-width="1"/><path d="M232.45339,192.23365c0.14142,-0.98995 1.13137,-0.84853 1.13137,-0.84853l1.00762,0.15288c2.49026,-0.33032 4.97046,-0.65018 7.48444,-0.65162c0.72539,-0.00042 2.93919,0.3805 3.58692,-0.08712c0.54685,-0.39479 0.00337,-2.50208 -0.02391,-2.92314c-0.3321,-5.12715 -3.35434,-5.54617 -7.75107,-7.24651c-1.53301,-0.30197 -3.90821,-0.23303 -4.83842,-1.79173c-0.56863,-0.95282 -0.18107,-2.21179 -0.27745,-3.31719c-0.16213,-1.85957 -1.21719,-6.11401 -0.3037,-7.83892c0.71002,-1.34071 4.24596,-0.82767 5.23322,-0.72526c3.77894,0.392 7.36782,1.07181 11.00951,2.14246c0,0 0.95937,0.28217 0.6772,1.24153c-0.28217,0.95937 -1.24153,0.6772 -1.24153,0.6772c-3.53031,-1.03876 -6.99372,-1.67915 -10.65497,-2.07222c-0.62265,-0.06685 -1.24531,-0.15812 -1.87151,-0.1641c-0.51032,-0.00488 -1.44941,-0.43422 -1.52943,0.06981c-0.2932,1.84694 0.51208,4.63277 0.67367,6.49592c0.07337,0.846 -0.26388,1.75737 0.04834,2.54706c0.21385,0.5409 3.01834,0.6902 3.63217,0.8146c5.16188,1.97523 8.7763,2.99466 9.19011,9.04308c0.09858,1.44094 0.67509,3.4192 -0.67549,4.57007c-0.82311,0.7014 -2.44835,0.56209 -3.4176,0.56447c-3.03107,0.00744 -5.96124,0.29417 -8.96805,0.65155l-1.27292,-0.17291c0,0 -0.98995,-0.14142 -0.84853,-1.13137z" fill="#00ffce" stroke-width="0.5"/></g></g></svg>