<svg version="1.1" xmlns="http://www.w3.org/2000/svg" xmlns:xlink="http://www.w3.org/1999/xlink" width="120" height="52.288" viewBox="0,0,120,52.288"><defs><linearGradient x1="181.0479" y1="176.9307" x2="301.0479" y2="176.9307" gradientUnits="userSpaceOnUse" id="color-1"><stop offset="0" stop-color="#fbb040"/><stop offset="1" stop-color="#f15a29"/></linearGradient><linearGradient x1="185.5508" y1="176.9297" x2="296.5439" y2="176.9297" gradientUnits="userSpaceOnUse" id="color-2"><stop offset="0" stop-color="#ed7340"/><stop offset="0.5181" stop-color="#f4aa46"/><stop offset="1" stop-color="#f29746"/></linearGradient></defs><g transform="translate(-181.048,-150.787)"><g data-paper-data="{&quot;isPaintingLayer&quot;:true}" fill-rule="nonzero" stroke="none" stroke-linecap="butt" stroke-linejoin="miter" stroke-miterlimit="10" stroke-dasharray="" stroke-dashoffset="0" style="mix-blend-mode: normal"><path d="M301.048,176.931c0,14.415 -11.73,26.144 -26.146,26.144h-67.711c-14.415,0 -26.143,-11.728 -26.143,-26.144c0,-14.416 11.727,-26.144 26.143,-26.144h67.711c14.416,0 26.145,11.727 26.146,26.144z" fill="url(#color-1)" stroke-width="1"/><path d="M296.544,176.929c0,11.953 -9.689,21.641 -21.642,21.641h-67.711c-11.952,0 -21.64,-9.688 -21.64,-21.641v0c0,-11.951 9.688,-21.64 21.64,-21.64h67.711c11.952,0 21.642,9.689 21.642,21.64z" fill="url(#color-2)" stroke-width="1"/><path d="M242.30923,174.76732c0.15695,-0.4388 0.3008,-0.89995 0.43101,-1.38554c0.6908,-2.57623 1.4321,-4.92112 -1.0145,-6.86384c-2.69771,-1.15467 -5.10055,0.01731 -7.12679,1.84208c-0.64386,0.57984 -1.28537,0.81889 -0.86996,1.8383c1.32186,3.24381 5.36525,4.03222 8.26458,4.75412l0.16651,-0.1629c0,0 0.05799,-0.0145 0.14915,-0.02223zM241.37736,176.8598c-3.39114,-0.8514 -8.2314,-2.08599 -9.52284,-5.96409c-1.8455,-5.54192 7.34713,-7.61696 10.89918,-6.09338c5.57692,4.48047 1.32628,14.53895 -3.50908,18.11871c-2.62384,1.94251 -5.88853,3.0927 -8.74799,4.63314c0,0 -0.88047,0.4741 -1.35457,-0.40637c-0.4741,-0.88047 0.40637,-1.35457 0.40637,-1.35457c5.07453,-2.73118 9.36492,-4.42013 11.82893,-8.93344z" fill="#00ffce" stroke-width="0.5"/></g></g></svg>