<svg version="1.1" xmlns="http://www.w3.org/2000/svg" xmlns:xlink="http://www.w3.org/1999/xlink" width="120" height="52.288" viewBox="0,0,120,52.288"><defs><linearGradient x1="181.0479" y1="176.9307" x2="301.0479" y2="176.9307" gradientUnits="userSpaceOnUse" id="color-1"><stop offset="0" stop-color="#fbb040"/><stop offset="1" stop-color="#f15a29"/></linearGradient><linearGradient x1="185.5508" y1="176.9297" x2="296.5439" y2="176.9297" gradientUnits="userSpaceOnUse" id="color-2"><stop offset="0" stop-color="#ed7340"/><stop offset="0.5181" stop-color="#f4aa46"/><stop offset="1" stop-color="#f29746"/></linearGradient></defs><g transform="translate(-181.048,-150.787)"><g data-paper-data="{&quot;isPaintingLayer&quot;:true}" fill-rule="nonzero" stroke="none" stroke-linecap="butt" stroke-linejoin="miter" stroke-miterlimit="10" stroke-dasharray="" stroke-dashoffset="0" style="mix-blend-mode: normal"><path d="M301.048,176.931c0,14.415 -11.73,26.144 -26.146,26.144h-67.711c-14.415,0 -26.143,-11.728 -26.143,-26.144c0,-14.416 11.727,-26.144 26.143,-26.144h67.711c14.416,0 26.145,11.727 26.146,26.144z" fill="url(#color-1)" stroke-width="1"/><path d="M296.544,176.929c0,11.953 -9.689,21.641 -21.642,21.641h-67.711c-11.952,0 -21.64,-9.688 -21.64,-21.641v0c0,-11.951 9.688,-21.64 21.64,-21.64h67.711c11.952,0 21.642,9.689 21.642,21.64z" fill="url(#color-2)" stroke-width="1"/><path d="M235.35265,186.8582c-0.99897,-0.04544 -0.95353,-1.04441 -0.95353,-1.04441l0.02191,-0.47433c0.3384,-4.71733 -0.16927,-9.47321 0.14247,-14.21175c0.04466,-0.67889 0.03254,-1.46056 0.09041,-2.22587c-1.34736,1.53751 -2.93928,2.88151 -4.46928,4.19629c0,0 -0.75926,0.65079 -1.41005,-0.10847c-0.65079,-0.75926 0.10847,-1.41005 0.10847,-1.41005c2.04967,-1.75272 4.39459,-3.59697 5.75262,-5.98001l0.29513,-0.8854c0.12567,-0.40862 0.50614,-0.70565 0.95598,-0.70565c0.52246,0 0.95134,0.40067 0.99614,0.9115l0.1618,1.61796l-0.34272,0.03427c0.19901,1.48042 -0.01327,2.77035 -0.14352,4.69721c-0.32017,4.73629 0.19308,9.49302 -0.14252,14.21247l-0.01889,0.42271c0,0 -0.04544,0.99897 -1.04441,0.95353z" fill="#00ffce" stroke-width="0.5"/><path d="M246.63045,167.49221c-1.05165,0.76268 -1.83858,2.31166 -2.3289,3.44305c-1.63667,3.77651 -2.27437,10.45663 2.52962,11.82518c4.31212,0.49072 9.00746,-2.04977 9.5656,-6.6361c0.17518,-1.43948 0.44394,-3.09696 -0.48956,-4.36835c-1.52997,-2.08378 -2.79123,-2.71975 -5.16665,-3.51156c-1.08996,-0.32229 -1.5776,-0.38054 -2.64615,-0.00665l-0.47912,0.05132c0,0 -0.85954,0 -0.98484,-0.79689zM249.76212,166.02354c0.48141,0.03988 0.98171,0.14672 1.56952,0.31022c1.56495,0.52165 3.09734,0.83613 4.32106,2.04008c7.27769,7.16009 -0.22949,17.32815 -9.20805,16.34889c-6.21432,-1.77937 -6.17289,-9.41614 -3.98622,-14.56396c1.20475,-2.83621 3.28447,-5.68588 6.53966,-4.98009c0,0 0.71622,0.17906 0.76403,0.84486z" fill="#00ffce" stroke-width="0.5"/></g></g></svg>