<svg version="1.1" xmlns="http://www.w3.org/2000/svg" xmlns:xlink="http://www.w3.org/1999/xlink" width="120" height="52.288" viewBox="0,0,120,52.288"><defs><linearGradient x1="181.0479" y1="176.9307" x2="301.0479" y2="176.9307" gradientUnits="userSpaceOnUse" id="color-1"><stop offset="0" stop-color="#fbb040"/><stop offset="1" stop-color="#f15a29"/></linearGradient><linearGradient x1="185.5508" y1="176.9297" x2="296.5439" y2="176.9297" gradientUnits="userSpaceOnUse" id="color-2"><stop offset="0" stop-color="#ed7340"/><stop offset="0.5181" stop-color="#f4aa46"/><stop offset="1" stop-color="#f29746"/></linearGradient></defs><g transform="translate(-181.048,-150.787)"><g data-paper-data="{&quot;isPaintingLayer&quot;:true}" fill-rule="nonzero" stroke="none" stroke-linecap="butt" stroke-linejoin="miter" stroke-miterlimit="10" stroke-dasharray="" stroke-dashoffset="0" style="mix-blend-mode: normal"><path d="M301.048,176.931c0,14.415 -11.73,26.144 -26.146,26.144h-67.711c-14.415,0 -26.143,-11.728 -26.143,-26.144c0,-14.416 11.727,-26.144 26.143,-26.144h67.711c14.416,0 26.145,11.727 26.146,26.144z" fill="url(#color-1)" stroke-width="1"/><path d="M296.544,176.929c0,11.953 -9.689,21.641 -21.642,21.641h-67.711c-11.952,0 -21.64,-9.688 -21.64,-21.641v0c0,-11.951 9.688,-21.64 21.64,-21.64h67.711c11.952,0 21.642,9.689 21.642,21.64z" fill="url(#color-2)" stroke-width="1"/><path d="M229.88416,175.78512c0.33755,-0.11757 0.70952,-0.19066 1.11574,-0.21096c0,0 1,0 1,1c0,1 -1,1 -1,1c-0.16944,-0.01703 -0.32311,-0.01344 -0.46188,0.00835c-0.03407,0.16398 -0.12245,0.33861 -0.29708,0.51323c-0.2285,0.2285 -0.457,0.30932 -0.66164,0.31405c-0.45944,1.29479 0.41069,3.68069 1.55375,4.28042c0.45885,0.24075 2.87331,0.43358 2.94243,0.44124c2.8739,0.31848 5.85435,0.4594 8.72008,0.0067c0.2484,-0.03924 2.40098,-0.48563 2.39757,-0.8299c-0.00482,-0.48738 -0.37313,-0.90056 -0.5597,-1.35084c-0.97138,-3.36248 -1.39318,-6.40577 -5.19055,-7.68308c-2.18271,-0.7342 -4.79749,-0.70007 -7.07194,-0.91737c-0.58787,-0.05616 -2.351,-0.61481 -2.81358,0.20177c-0.51874,0.91571 -0.09694,2.15798 0.3268,3.22638zM228.23542,177.00879c-0.62822,-1.73427 -1.52648,-3.88677 -0.35406,-5.54137c1.86269,-2.62876 9.69861,-0.96398 12.26833,-0.06402c4.39747,1.54007 5.25807,5.02821 6.40518,8.99895c0.18349,0.83067 0.73528,1.66164 0.55046,2.49202c-0.3156,1.41795 -2.81874,2.02805 -3.97368,2.21536c-3.86317,0.62654 -11.48554,1.27945 -14.34625,-1.84521c-1.61966,-1.7691 -1.78793,-4.56535 -0.54998,-6.25573z" fill="#00ffce" stroke-width="0.5"/></g></g></svg>