<svg version="1.1" xmlns="http://www.w3.org/2000/svg" xmlns:xlink="http://www.w3.org/1999/xlink" width="120" height="52.288" viewBox="0,0,120,52.288"><defs><linearGradient x1="181.0479" y1="176.9307" x2="301.0479" y2="176.9307" gradientUnits="userSpaceOnUse" id="color-1"><stop offset="0" stop-color="#fbb040"/><stop offset="1" stop-color="#f15a29"/></linearGradient><linearGradient x1="185.5508" y1="176.9297" x2="296.5439" y2="176.9297" gradientUnits="userSpaceOnUse" id="color-2"><stop offset="0" stop-color="#ed7340"/><stop offset="0.5181" stop-color="#f4aa46"/><stop offset="1" stop-color="#f29746"/></linearGradient></defs><g transform="translate(-181.048,-150.787)"><g data-paper-data="{&quot;isPaintingLayer&quot;:true}" fill-rule="nonzero" stroke="none" stroke-linecap="butt" stroke-linejoin="miter" stroke-miterlimit="10" stroke-dasharray="" stroke-dashoffset="0" style="mix-blend-mode: normal"><path d="M301.048,176.931c0,14.415 -11.73,26.144 -26.146,26.144h-67.711c-14.415,0 -26.143,-11.728 -26.143,-26.144c0,-14.416 11.727,-26.144 26.143,-26.144h67.711c14.416,0 26.145,11.727 26.146,26.144z" fill="url(#color-1)" stroke-width="1"/><path d="M296.544,176.929c0,11.953 -9.689,21.641 -21.642,21.641h-67.711c-11.952,0 -21.64,-9.688 -21.64,-21.641v0c0,-11.951 9.688,-21.64 21.64,-21.64h67.711c11.952,0 21.642,9.689 21.642,21.64z" fill="url(#color-2)" stroke-width="1"/><path d="M229.2611,185.9134c0.08502,-0.19507 0.25456,-0.38232 0.5732,-0.50181c0.93633,-0.35112 1.28745,0.58521 1.28745,0.58521c0.1984,0.54575 0.5069,1.06223 0.89905,1.54283c0.21771,0.08382 0.52509,0.26879 0.61123,0.65855c2.14259,2.04861 5.79154,3.27037 8.36702,3.01905c0.85877,-0.0838 2.0534,0.55577 2.58561,-0.1234c2.26778,-2.89395 1.24051,-6.68255 -0.67041,-9.34744c-0.83565,-1.00702 -2.16617,-2.03948 -3.55054,-3.14181c-2.3757,0.73021 -5.07067,1.02261 -7.08075,1.69095c-0.61125,0.20323 -3.07499,0.77135 -3.65052,1.36286c-1.04863,1.07774 -0.36883,2.92693 0.62865,4.25502zM241.36043,177.82146c1.26326,0.97541 2.44468,1.87493 3.13687,2.70266c2.37587,3.33724 3.7903,8.81611 0.30696,12.15482c-0.4046,0.3878 -3.32012,0.50135 -3.60443,0.52819c-3.30795,0.31223 -7.60748,-1.22433 -10.16384,-3.82409l-0.82296,-0.12584c-2.75565,-1.36214 -5.61158,-6.01516 -3.03574,-8.97086c2.06557,-2.37018 6.93224,-2.45865 10.30243,-3.23612c-2.57195,-2.25249 -4.60351,-4.83598 -2.9893,-8.06319c1.63918,-3.27712 7.45826,-2.0824 9.36557,0.47374c0.88503,1.18611 0.84726,2.70392 0.84726,4.08928c-0.3749,2.13789 -1.66123,3.42228 -3.34283,4.27142zM239.54973,176.38065c1.4,-0.57553 3.03915,-1.44773 3.15857,-2.9724c0,-2.54372 -1.00719,-3.90303 -3.70881,-4.31528c-0.88142,-0.1345 -2.31605,-0.24542 -2.69375,0.7335c-0.94975,2.46157 0.96079,4.63792 3.24399,6.55417z" fill="#00ffce" stroke-width="0.5"/></g></g></svg>