<svg version="1.1" xmlns="http://www.w3.org/2000/svg" xmlns:xlink="http://www.w3.org/1999/xlink" width="120" height="52.288" viewBox="0,0,120,52.288"><defs><linearGradient x1="181.0479" y1="176.9307" x2="301.0479" y2="176.9307" gradientUnits="userSpaceOnUse" id="color-1"><stop offset="0" stop-color="#fbb040"/><stop offset="1" stop-color="#f15a29"/></linearGradient><linearGradient x1="185.5508" y1="176.9297" x2="296.5439" y2="176.9297" gradientUnits="userSpaceOnUse" id="color-2"><stop offset="0" stop-color="#ed7340"/><stop offset="0.5181" stop-color="#f4aa46"/><stop offset="1" stop-color="#f29746"/></linearGradient></defs><g transform="translate(-181.048,-150.787)"><g data-paper-data="{&quot;isPaintingLayer&quot;:true}" fill-rule="nonzero" stroke="none" stroke-linecap="butt" stroke-linejoin="miter" stroke-miterlimit="10" stroke-dasharray="" stroke-dashoffset="0" style="mix-blend-mode: normal"><path d="M301.048,176.931c0,14.415 -11.73,26.144 -26.146,26.144h-67.711c-14.415,0 -26.143,-11.728 -26.143,-26.144c0,-14.416 11.727,-26.144 26.143,-26.144h67.711c14.416,0 26.145,11.727 26.146,26.144z" fill="url(#color-1)" stroke-width="1"/><path d="M296.544,176.929c0,11.953 -9.689,21.641 -21.642,21.641h-67.711c-11.952,0 -21.64,-9.688 -21.64,-21.641v0c0,-11.951 9.688,-21.64 21.64,-21.64h67.711c11.952,0 21.642,9.689 21.642,21.64z" fill="url(#color-2)" stroke-width="1"/><path d="M253.01348,183.41579c0,1 -1,1 -1,1h-1.30317c-6.08941,0 -12.22289,0.47137 -18.30351,0.85067c-3.33371,0.20795 -6.66623,0.40981 -9.89334,-0.16511l-0.02149,0.27937l-1.98532,-0.15272c-0.52062,-0.03491 -0.9321,-0.46827 -0.9321,-0.99773c0,-0.464 0.31601,-0.85419 0.74456,-0.96708l1.16145,-0.33449c2.29203,-0.76415 4.5249,-1.67107 6.81705,-2.43547c2.10314,-0.70057 6.04984,-1.44711 7.20842,-3.59865c1.96959,-3.65762 -2.55737,-6.6853 -5.88848,-6.49135c-1.41559,0.08242 -2.8285,1.40325 -3.85722,2.22782c0,0 -0.78087,0.6247 -1.40556,-0.15617c-0.6247,-0.78087 0.15617,-1.40556 0.15617,-1.40556c1.36663,-1.09137 3.09017,-2.53846 4.93916,-2.65906c4.92405,-0.32118 10.53709,4.37942 7.79478,9.47245c-1.4709,2.73175 -5.61978,3.60895 -8.31482,4.50789c-0.79508,0.2649 -1.58307,0.54684 -2.36886,0.83408c1.32013,0.06273 2.63997,0.20423 3.7559,0.16897c6.80316,-0.21491 13.58709,-0.97786 20.3932,-0.97786h1.30317c0,0 1,0 1,1z" fill="#00ffce" stroke-width="0.5"/></g></g></svg>