<svg version="1.1" xmlns="http://www.w3.org/2000/svg" xmlns:xlink="http://www.w3.org/1999/xlink" width="131.27607" height="208.65814" viewBox="0,0,131.27607,208.65814"><defs><radialGradient cx="231.42427" cy="204.89312" r="58.5" gradientUnits="userSpaceOnUse" id="color-1"><stop offset="0" stop-color="#66ff6e"/><stop offset="1" stop-color="#ffcc00"/></radialGradient><radialGradient cx="241.42427" cy="134.89312" r="58.5" gradientUnits="userSpaceOnUse" id="color-2"><stop offset="0" stop-color="#66ff6e"/><stop offset="1" stop-color="#ffe866"/></radialGradient><radialGradient cx="253.42427" cy="118.89312" r="30" gradientUnits="userSpaceOnUse" id="color-3"><stop offset="0" stop-color="#66ff6e"/><stop offset="1" stop-color="#ffe866"/></radialGradient><radialGradient cx="247.42427" cy="111.89312" r="28" gradientUnits="userSpaceOnUse" id="color-4"><stop offset="0" stop-color="#66ff6e"/><stop offset="1" stop-color="#ffcc00"/></radialGradient><radialGradient cx="178.42427" cy="268.89312" r="27.03115" gradientUnits="userSpaceOnUse" id="color-5"><stop offset="0" stop-color="#66ff6e"/><stop offset="1" stop-color="#ffcc00"/></radialGradient><radialGradient cx="260.42427" cy="257.89312" r="28.15222" gradientUnits="userSpaceOnUse" id="color-6"><stop offset="0" stop-color="#66ff6e"/><stop offset="1" stop-color="#ffcc00"/></radialGradient></defs><g transform="translate(-174.36196,-74.44874)"><g data-paper-data="{&quot;isPaintingLayer&quot;:true}" fill-rule="nonzero" stroke-linejoin="miter" stroke-miterlimit="10" stroke-dasharray="" stroke-dashoffset="0" style="mix-blend-mode: normal"><path d="M206.42427,253.89312v-117h55v117zM235.42427,187.89312c5.52285,0 10,-4.47715 10,-10c0,-5.52285 -4.47715,-10 -10,-10c-5.52285,0 -10,4.47715 -10,10c0,5.52285 4.47715,10 10,10z" fill="url(#color-1)" stroke="url(#color-2)" stroke-width="2" stroke-linecap="butt"/><path d="M207.42427,136.89312l29,-60l24,58" fill="none" stroke="url(#color-3)" stroke-width="2" stroke-linecap="round"/><path d="M210.42427,132.89312c0,-5.16353 2.66621,-7.66086 5.24521,-8.86868c1.73937,-2.67238 3.3454,-5.59417 3.88391,-8.73314c0.41157,-2.39901 -0.49543,-4.99558 0.29995,-7.29602c0.97309,-2.8144 3.38313,-4.90161 5.06441,-7.35947c0.37845,-0.55326 0.34763,-1.28707 0.50651,-1.94567v-1.79702c0,-5.52285 4.47715,-10 10,-10c2.76142,0 5.26142,1.11929 7.07107,2.92893l2,2l-0.24823,0.24823c0.30663,0.15419 0.61028,0.31491 0.91058,0.48295c1.36977,0.76649 5.0655,8.50696 5.50537,9.51305c2.25875,5.1663 4.4333,10.22034 6.24804,15.66456c0.66667,2 1.80782,3.90059 2,6c0.33358,3.64407 2.29335,7.91924 0.27923,10.97437c-2.39665,3.63536 -7.54082,4.40052 -11.54423,6.11298c-0.80313,0.34354 -1.7586,-0.19917 -2.62001,-0.0542c-1.03948,0.17493 -1.95735,0.84513 -3,1c-3.04792,0.45272 -6.3748,-0.42692 -9.37999,0.0542c-2.69269,0.43109 -5.10667,0.77862 -7.6554,0.95295c-0.51035,0.08029 -1.03353,0.12197 -1.56643,0.12197c-0.20511,0 -0.40879,-0.00618 -0.61084,-0.01835c-0.45502,0.01208 -0.91738,0.01835 -1.38916,0.01835h-1c0,0 -10,0 -10,-10z" fill="url(#color-4)" stroke="none" stroke-width="0.5" stroke-linecap="butt"/><path d="M179.95213,278.83739c-8.94427,-4.47214 -4.47214,-13.41641 -4.47214,-13.41641l2.8732,-4.59893c6.98003,-6.98003 16.32362,-11.99854 21.75056,-20.47593c0,0 3.5221,-5.28315 9.16303,-4.62323c1.03755,-1.33657 2.61988,-2.52482 4.9952,-3.3166c9.48683,-3.16228 12.64911,6.32456 12.64911,6.32456c1.30489,4.29965 1.51317,7.71329 1.51317,12.16228l-2.05573,6.47214c0,0 -4.47214,8.94427 -13.41641,4.47214c-1.2285,-0.61425 -2.2039,-1.31287 -2.97254,-2.06109c-2.23877,2.38246 -4.6175,4.63155 -7.0033,6.67135c-3.58748,3.06721 -7.17074,5.20631 -10.48095,8.51653l0.8732,-0.59893c0,0 -4.47214,8.94427 -13.41641,4.47214z" fill="url(#color-5)" stroke="none" stroke-width="0.5" stroke-linecap="butt"/><path d="M302.49534,279.96419c-7.07107,7.07107 -14.14214,0 -14.14214,0l0.52407,0.24944c-2.30592,-1.57284 -4.61146,-3.21645 -6.52407,-5.24944c-0.76972,-0.81816 -1.27221,-1.91158 -2.18624,-2.56456c-0.59654,-0.42616 -1.4794,-0.19764 -2.1362,-0.52336c-3.79338,-1.88117 -7.94134,-4.22545 -11.62575,-6.33405c-2.02077,-1.15649 -4.23535,-1.95507 -6.23804,-3.14259c-1.04543,-0.6199 -1.95264,-1.80462 -3.16805,-1.80508c0,0 -9.70143,-2.42536 -7.27607,-12.12678c2.42536,-9.70143 12.12678,-7.27607 12.12678,-7.27607c2.16721,0.66648 4.45354,1.02664 6.50163,1.99943c0.964,0.45787 1.41872,1.64058 2.33032,2.19549c0.62623,0.3812 1.4794,0.19764 2.1362,0.52336c1.28771,0.63859 2.37732,1.62173 3.62575,2.33405c3.36013,1.9172 6.95046,3.94112 10.37425,5.66595c1.23135,0.62033 2.74181,0.67528 3.8638,1.47664c3.70778,2.64824 5.63232,5.84468 9.28969,8.18601l2.52407,2.24944c0,0 7.07107,7.07107 0,14.14214z" fill="url(#color-6)" stroke="none" stroke-width="0.5" stroke-linecap="butt"/></g></g></svg>