<svg version="1.1" xmlns="http://www.w3.org/2000/svg" xmlns:xlink="http://www.w3.org/1999/xlink" width="131.27893" height="241.51479" viewBox="0,0,131.27893,241.51479"><defs><radialGradient cx="231.35191" cy="188.47016" r="58.5" gradientUnits="userSpaceOnUse" id="color-1"><stop offset="0" stop-color="#66ff6e"/><stop offset="1" stop-color="#ffcc00"/></radialGradient><radialGradient cx="241.27619" cy="118.45939" r="58.5" gradientUnits="userSpaceOnUse" id="color-2"><stop offset="0" stop-color="#66ff6e"/><stop offset="1" stop-color="#ffe866"/></radialGradient><radialGradient cx="253.25888" cy="102.44642" r="30" gradientUnits="userSpaceOnUse" id="color-3"><stop offset="0" stop-color="#66ff6e"/><stop offset="1" stop-color="#ffe866"/></radialGradient><radialGradient cx="247.25131" cy="95.45291" r="28" gradientUnits="userSpaceOnUse" id="color-4"><stop offset="0" stop-color="#66ff6e"/><stop offset="1" stop-color="#ffcc00"/></radialGradient><radialGradient cx="178.42116" cy="252.52745" r="27.03115" gradientUnits="userSpaceOnUse" id="color-5"><stop offset="0" stop-color="#66ff6e"/><stop offset="1" stop-color="#ffcc00"/></radialGradient><radialGradient cx="260.40922" cy="241.43877" r="28.15222" gradientUnits="userSpaceOnUse" id="color-6"><stop offset="0" stop-color="#66ff6e"/><stop offset="1" stop-color="#ffcc00"/></radialGradient><radialGradient cx="205.52382" cy="277.41752" r="39.99323" gradientUnits="userSpaceOnUse" id="color-7"><stop offset="0" stop-color="#f9ff00"/><stop offset="1" stop-color="#ff002d"/></radialGradient><radialGradient cx="252.49783" cy="253.3667" r="39.35955" gradientUnits="userSpaceOnUse" id="color-8"><stop offset="0" stop-color="#f9ff00"/><stop offset="1" stop-color="#ff002d"/></radialGradient></defs><g transform="translate(-174.36054,-58.02038)"><g data-paper-data="{&quot;isPaintingLayer&quot;:true}" fill-rule="nonzero" stroke-linejoin="miter" stroke-miterlimit="10" stroke-dasharray="" stroke-dashoffset="0" style="mix-blend-mode: normal"><path d="M206.40492,237.49717l-0.12654,-116.99993l54.99997,-0.05949l0.12654,116.99993zM235.33352,171.46585c5.52285,-0.00597 9.99516,-4.48797 9.98918,-10.01081c-0.00597,-5.52285 -4.48797,-9.99516 -10.01081,-9.98918c-5.52285,0.00597 -9.99516,4.48797 -9.98918,10.01081c0.00597,5.52285 4.48797,9.99516 10.01081,9.98918z" fill="url(#color-1)" stroke="url(#color-2)" stroke-width="2" stroke-linecap="butt"/><path d="M207.27838,120.49616l28.93509,-60.03133l24.06272,57.974" fill="none" stroke="url(#color-3)" stroke-width="2" stroke-linecap="round"/><path d="M210.27405,116.49292c-0.00558,-5.16353 2.65792,-7.66374 5.23562,-8.87435c1.73647,-2.67426 3.33934,-5.59779 3.87446,-8.73734c0.40897,-2.39945 -0.50083,-4.99505 0.29206,-7.29634c0.97004,-2.81545 3.37782,-4.90527 5.05645,-7.36494c0.37786,-0.55367 0.34624,-1.28744 0.5044,-1.94622l-0.00195,-1.79702c-0.00597,-5.52285 4.46633,-10.00483 9.98918,-10.01081c2.76142,-0.00299 5.26263,1.11359 7.07424,2.92128l2.00216,1.99783l-0.24796,0.2485c0.3068,0.15386 0.61062,0.31425 0.9111,0.48197c1.3706,0.76501 5.0747,8.50148 5.51565,9.50709c2.26434,5.16385 4.44435,10.21553 6.26497,15.6578c0.66884,1.99928 1.81204,3.89863 2.00649,5.99783c0.33752,3.64371 2.30191,7.91676 0.2911,10.97406c-2.39272,3.63795 -7.53605,4.40867 -11.53761,6.12546c-0.80276,0.34441 -1.75881,-0.19727 -2.62007,-0.05137c-1.03929,0.17605 -1.95643,0.84725 -2.99892,1.00324c-3.04743,0.45601 -6.37526,-0.42003 -9.37993,0.06434c-2.69223,0.43401 -5.10583,0.78414 -7.65437,0.96123c-0.51026,0.08084 -1.0334,0.12309 -1.5663,0.12366c-0.20511,0.00023 -0.4088,-0.00574 -0.61086,-0.01769c-0.45501,0.01258 -0.91736,0.01934 -1.38914,0.01985l-1,0.00108c0,0 -9.99999,0.01081 -10.01081,-9.98918z" fill="url(#color-4)" stroke="none" stroke-width="0.5" stroke-linecap="butt"/><path d="M179.95978,262.47006c-8.9491,-4.46247 -4.48664,-13.41157 -4.48664,-13.41157l2.86823,-4.60204c6.97248,-6.98758 16.31063,-12.01619 21.7284,-20.49945c0,0 3.51639,-5.28696 9.15802,-4.63314c1.03611,-1.33769 2.61715,-2.52765 4.99161,-3.322c9.4834,-3.17254 12.65594,6.31088 12.65594,6.31088c1.30954,4.29824 1.52151,7.71165 1.52632,12.16063l-2.04873,6.47436c0,0 -4.46247,8.9491 -13.41157,4.48664c-1.22916,-0.61293 -2.20532,-1.31048 -2.97477,-2.05787c-2.23619,2.38488 -4.61249,4.63654 -6.99608,6.67892c-3.58416,3.07109 -7.1651,5.21407 -10.47173,8.52786l0.87255,-0.59987c0,0 -4.46247,8.9491 -13.41157,4.48664z" fill="url(#color-5)" stroke="none" stroke-width="0.5" stroke-linecap="butt"/><path d="M302.50413,263.46432c-7.06342,7.07872 -14.14213,0.0153 -14.14213,0.0153l0.52434,0.24888c-2.30762,-1.57034 -4.61494,-3.21146 -6.52975,-5.24238c-0.7706,-0.81733 -1.27428,-1.9102 -2.18901,-2.56219c-0.597,-0.42552 -1.47961,-0.19604 -2.13676,-0.52105c-3.79541,-1.87707 -7.9459,-4.21685 -11.63259,-6.32148c-2.02202,-1.1543 -4.23746,-1.95049 -6.24143,-3.13584c-1.0461,-0.61877 -1.95459,-1.80251 -3.17,-1.80166c0,0 -9.70404,-2.41487 -7.28918,-12.1189c2.41487,-9.70404 12.1189,-7.28918 12.1189,-7.28918c2.16793,0.66413 4.45465,1.02183 6.50379,1.9924c0.96449,0.45682 1.42049,1.63905 2.33269,2.19297c0.62664,0.38052 1.47961,0.19604 2.13676,0.52105c1.2884,0.63719 2.37907,1.61916 3.62827,2.33012c3.3622,1.91357 6.95472,3.9336 10.38037,5.65472c1.23202,0.619 2.74254,0.67232 3.8654,1.47246c3.71065,2.64423 5.63864,5.83859 9.29854,8.17596l2.5265,2.24671c0,0 7.07872,7.06342 0.0153,14.14213z" fill="url(#color-6)" stroke="none" stroke-width="0.5" stroke-linecap="butt"/><path d="M249.04837,233.4666c0.90335,-0.42892 1.33227,0.47443 1.33227,0.47443l0.44286,0.93271c1.69066,3.56278 3.38958,7.05905 5.78231,10.2039c2.37218,3.11787 5.81195,5.52693 8.37008,8.51972c3.51928,4.11722 6.24203,8.89782 8.62613,13.72424c0.54996,1.22372 0.56111,2.63232 1.01559,3.89462c0.43602,1.21102 1.7094,1.95378 2.31925,3.08725c0.65918,1.22517 0.71575,2.68977 1.13192,4.0173c1.16318,3.71033 3.69281,7.41439 4.44687,11.23252c0.68338,3.4602 0.24816,8.72817 -3.79645,9.75752c-2.89442,0.73663 -5.75876,-0.49362 -8.38239,-1.48014c-5.07032,-2.70887 -8.45161,-6.59493 -11.84989,-11.11724c-2.02041,-2.68871 -4.53305,-4.81013 -6.45683,-7.63956c-2.06979,-3.04417 -4.95057,-6.26454 -6.01977,-9.90768c-0.90724,3.20013 0.12608,6.50498 -0.63936,9.70492c-1.0384,4.34108 -2.9587,9.07611 -5.11085,13.19198c-1.39991,1.58277 -2.27529,2.93898 -3.27152,4.77875c-0.43207,0.79791 -0.53234,2.02137 -1.37937,2.34678c-0.81277,0.31225 -1.63392,-0.6037 -2.46265,-0.87077c-0.7878,-0.25389 -1.83405,-0.07366 -2.38488,-0.69146c-0.89211,-1.0006 -0.96151,-4.89959 -1.30777,-6.22029c-1.16202,-4.43224 -1.79433,-9.09167 -2.51249,-13.71723c-0.24062,-1.54976 -0.78129,-3.30193 -0.79507,-4.93733c-1.84726,1.40148 -3.1937,3.31676 -4.71566,5.09632c-0.89929,1.05151 -2.27705,1.57596 -3.36071,2.43621c-1.1788,0.93578 -1.21482,1.93413 -2.12243,3.1017c-2.34735,3.01968 -6.24503,5.66594 -10.02168,7.21309l0.10197,0.19989l-1.76387,0.8999c-0.14031,0.07528 -0.30067,0.11806 -0.47103,0.11824c-0.55228,0.0006 -1.00049,-0.44664 -1.00108,-0.99892c-0.00016,-0.14548 0.03076,-0.28373 0.08648,-0.40849l0.71649,-1.70787c0.23445,-3.52085 2.16704,-6.12688 3.09399,-9.42679c1.07374,-3.82247 2.66106,-7.53144 3.95078,-11.35889c4.78039,-11.07698 8.10225,-22.41139 11.88866,-33.833c0,0 0.3152,-0.94903 1.26423,-0.63382c0.94903,0.3152 0.63382,1.26423 0.63382,1.26423c-3.80752,11.44351 -7.11775,22.81912 -11.91933,33.91878c-1.26763,3.77268 -2.82053,7.43109 -3.89392,11.188c-0.8959,3.13563 -2.66536,5.63305 -3.03065,8.89547c1.71271,-1.59701 4.28975,-2.50798 6.0884,-3.93381c2.17518,-1.72429 3.07757,-4.34962 5.13963,-6.05124c1.98759,-1.64019 4.15958,-3.0476 5.89723,-4.95792c0.80821,-0.88852 1.44089,-2.01639 2.46286,-2.63719l0.30432,-1.61932c0.07945,-0.47229 0.49005,-0.83235 0.98502,-0.83288c0.46522,-0.00051 0.85657,0.31675 0.96876,0.74689l0.5426,1.90205l-0.26726,0.07624c2.30867,6.03021 2.10616,13.46856 3.68457,19.49055c0.33257,1.26883 0.64591,2.54297 0.93355,3.82274c0.11573,0.51489 -0.40516,1.18265 -0.06023,1.58205c0.33475,0.3876 1.05246,-0.05921 1.53161,0.12165c0.44787,0.16905 0.6744,1.02417 1.13205,0.88373c0.424,-0.13012 0.09671,-0.89031 0.24799,-1.30724c0.23873,-0.65795 0.55602,-1.28878 0.91252,-1.8911c0.81864,-1.38315 1.47908,-2.01211 2.52714,-3.18238c2.03841,-3.94827 3.77877,-8.40955 4.81522,-12.53309c0.8103,-3.22383 -0.28477,-6.61547 0.69501,-9.8905l0.33432,-1.90819c0.07474,-0.47787 0.48792,-0.84372 0.98686,-0.84426c0.32205,-0.00035 0.60872,0.15158 0.79187,0.38783l1.23366,1.56171l-0.27829,0.21984c1.14472,1.60399 1.61723,3.1917 2.91284,5.28216c2.82711,4.5615 6.78218,8.09249 9.9782,12.30418c3.20814,4.22766 6.324,7.94677 11.07892,10.5007c2.34236,0.87486 8.0744,3.24075 9.19451,-0.58194c0.18454,-0.62981 0.15879,-3.12387 0.1664,-3.68933c0.00807,-0.59974 0.14493,-1.21037 0.03039,-1.79914c-0.72504,-3.72634 -3.23968,-7.38848 -4.39154,-11.0156c-0.38281,-1.20546 -0.37379,-2.55622 -0.98232,-3.66499c-0.42028,-0.76575 -2.15968,-2.61747 -2.43661,-3.34562c-0.45611,-1.19928 -0.40212,-2.56919 -0.94649,-3.73108c-2.30671,-4.66851 -4.93205,-9.30259 -8.34004,-13.28364c-2.58905,-3.02442 -6.02523,-5.45895 -8.43937,-8.60537c-2.48799,-3.24268 -4.25067,-6.87859 -5.99989,-10.56046l-0.44286,-0.93271c0,0 -0.42892,-0.90335 0.47443,-1.33227z" fill="url(#color-7)" stroke="none" stroke-width="0.5" stroke-linecap="butt"/><path d="M260.57335,287.82059c-0.80219,-0.26544 -1.72049,-0.28082 -2.4278,-0.74081c-3.84313,-2.49935 -7.75451,-7.20864 -9.83112,-11.20519c-0.57632,-1.10915 -0.6814,-2.40928 -0.98179,-3.6298c-1.03786,0.92948 -2.29754,1.97387 -3.41841,2.68044c0.35903,1.26379 0.91456,2.58788 1.439,3.86659c1.56548,1.9484 5.36862,7.88448 -0.56513,13.83109c-7.23999,7.25568 -14.49568,0.01567 -14.49568,0.01567l-3.48157,-5.00275c-0.58729,-1.75552 -1.23314,-3.48424 -1.8122,-5.22154c-0.40053,0.40796 -0.80765,0.8178 -1.22028,1.23132c0,0 -7.23999,7.25568 -14.49568,0.01567c-7.25568,-7.23999 -0.01567,-14.49568 -0.01567,-14.49568c0.68621,-0.6877 4.18455,-3.49994 4.52419,-4.14579c1.11701,-2.12403 0.28403,-6.1557 0.5926,-8.25376c0.15338,-1.04287 0.79205,-1.96706 0.99676,-3.00108c0.84623,-4.27471 -2.10928,-7.60869 1.06729,-12.19584c2.17072,-3.13462 5.64133,-5.29376 9.05933,-6.98346c1.78885,-0.88433 3.97682,-0.34639 5.96981,-0.44627c6.17636,-0.30952 12.32735,-0.27919 18.24297,1.50627c5.39146,2.09317 8.19961,2.28971 11.23794,8.78936c0.37428,0.80066 0.71512,4.79871 0.79569,8.19036c5.16441,2.92357 5.28292,7.44018 11.48132,17.33014c0.67613,1.07882 1.69306,2.01439 2.41288,3.06824c0.12255,0.04226 0.24737,0.07909 0.37474,0.10976l0.70154,1.19442c0.04012,0.00875 0.08014,0.01772 0.12008,0.02693l0.36143,-0.54342l2.86978,1.90871c2.82792,1.82199 4.70201,4.99734 4.70591,8.61161c0.00612,5.66092 -4.57799,10.25496 -10.23891,10.26108l-3,0.00324l-0.00048,-0.44601c-0.52484,-0.15978 -1.03185,-0.36054 -1.51729,-0.59857c-0.78879,0.15486 -1.58961,0.24955 -2.40557,0.26859c-3.06723,0.07156 -4.85891,-3.77685 -7.01071,-5.9638c-0.01167,-0.01186 -0.02335,-0.02377 -0.03502,-0.03573zM236.96635,254.54086c-0.46037,0.03623 -0.92153,0.07593 -1.38131,0.11133c-0.04471,0.37336 -0.09703,0.74611 -0.15501,1.11834c0.57258,-0.42218 1.06954,-0.83224 1.53632,-1.22967z" fill="url(#color-8)" stroke="none" stroke-width="0.5" stroke-linecap="butt"/></g></g></svg>