<svg xmlns="http://www.w3.org/2000/svg" xmlns:xlink="http://www.w3.org/1999/xlink" version="1.1" width="107.32185363769531" height="137.572265625" viewBox="-0.08692550659179688 -0.012265622615814209 107.32185363769531 137.572265625">
  <!-- Exported by Scratch - http://scratch.mit.edu/ -->
  <g id="ID0.994110323023051">
    <g id="Page-1">
      <g id="ben-b-[sports,soccer,football,people,alex-eben-meyer]">
        <g id="Group-7">
          <path id="Shape" fill="#A0640A" stroke="none" stroke-width="1" d="M 28.315 107.415 C 29.46 105.755 29.475 103.835 29.625 102 C 31.01 100.875 40.235 103.04 42.055 103.715 C 41.38 107.25 40.475 110.81 38.295 113.78 C 36.795 113.665 34.835 111.595 33.515 110.78 C 31.785 109.68 29.94 108.655 28.315 107.415 Z "/>
          <g id="Group-6">
            <path id="Shape" fill="#000000" stroke="none" stroke-width="1" d="M 28.105 106.36 C 27.88 106.775 27.195 107.905 26.945 108.24 C 25.406 110.261 23.281 111.758 20.86 112.525 C 16.52 113.725 11.14 111.975 7.675 109.3 L 7.04 110.18 C 6.455 110.095 5.07 108.9 4.605 109.53 L 4.855 110.22 C 5.6 110.154 6.328 110.466 6.795 111.05 L 6.575 111.55 C 5.94 111.625 4.355 110.615 3.825 111.235 C 3.825 112.275 5.555 112.145 6.29 112.27 L 6 113.25 C 5.79 113.22 3.585 112.62 3.155 112.75 L 3.2 113.38 L 3.65 113.66 C 4.41 113.455 5.005 113.765 5.685 114.035 L 5.405 114.97 C 4.64 115.38 4.115 114.575 3.455 114.735 C 3.24 115.615 4.275 115.69 4.855 115.825 C 4.75 116.285 4.515 116.635 4.83 117.065 L 5.41 116.99 C 5.77 116.09 5.87 115.13 6.575 114.35 C 9.538 116.438 12.724 118.188 16.075 119.57 C 18 120.345 22.395 121.12 22.665 121.125 C 24.936 121.234 27.212 121.014 29.42 120.47 C 31.655 120.175 33.52 119.69 34.525 118.97 C 36.095 117.845 38.85 114.65 39.965 113.06 L 28.105 106.36 Z "/>
            <path id="Shape" fill="#BE0A3C" stroke="none" stroke-width="1" d="M 18.15 112.41 L 18.3 116.545 L 21.7 116.59 L 21.11 111.985 L 18.15 112.41 "/>
            <path id="Shape" fill="#F01446" stroke="none" stroke-width="1" d="M 28.21 119.925 C 28.87 118.34 25.625 115.58 21.89 114.82 C 18.495 114.13 14.62 115.365 14.35 115.47 L 14.28 115.435 C 11.38 117.59 15.315 121.125 19.945 122.36 C 23.125 123.215 26.955 122.95 28.21 119.925 Z "/>
          </g>
          <path id="Shape" fill="#000000" stroke="none" stroke-width="1" d="M 40.035 85.345 C 31.49 83.345 29.65 90.4 29.65 90.4 L 26.94 102.145 L 44.5 106.645 L 46.575 95.02 C 46.575 95.02 48.575 87.35 40.035 85.345 Z "/>
        </g>
        <g id="Group-5">
          <path id="Shape" fill="#A0640A" stroke="none" stroke-width="1" d="M 64.57 100.09 L 52.205 100.09 C 53.705 103.38 57.375 110.88 57.375 110.88 C 57.375 110.88 64.11 111.22 66.625 110.235 C 66.5 109.12 65.3 103.085 64.57 100.09 Z "/>
          <g id="Group-4">
            <path id="Shape" fill="#000000" stroke="none" stroke-width="1" d="M 72.085 133.44 L 67.585 109.845 L 55.5 109.845 C 56.755 112.585 58 115.14 58.3 115.875 C 60.65 122.025 66.535 134.375 66.74 134.56 C 66.765 135.025 66.585 136.83 67.285 137.06 L 67.785 136.85 C 67.685 136.06 67.665 134.305 67.665 134.305 L 69.06 134.24 L 69.21 136.575 C 69.455 136.715 69.76 136.695 69.985 136.525 C 69.985 136.525 69.73 134.905 70.07 134.225 C 71.205 134.225 71.62 134.15 71.715 134.26 C 71.81 134.37 72.005 137.33 72.885 136.37 C 72.685 135.655 72.305 134.91 72.695 134.125 C 73.265 134.18 73.765 134.225 74 134.53 C 74.235 134.835 74.35 136.17 74.69 136.43 C 74.835 136.285 75.065 136.31 75.115 136.26 L 74.615 134.205 C 75.16 134.148 75.708 134.136 76.255 134.17 C 76.255 134.17 76.19 133.715 76.16 133.585 C 75.275 133.535 72.785 133.465 72.085 133.44 Z "/>
            <path id="Shape" fill="#BE0A3C" stroke="none" stroke-width="1" d="M 58.595 120.11 L 59.65 123.375 L 65.38 123.025 L 64.675 119.86 L 58.595 120.11 "/>
            <path id="Shape" fill="#F01446" stroke="none" stroke-width="1" d="M 67.74 112.805 C 66.996 112.808 66.253 112.853 65.515 112.94 L 65.455 112.94 C 62.28 114.075 62.57 117.855 63.18 120.83 C 64.015 124.895 65.61 126.52 69.155 128.145 C 69.78 128.145 70.41 128.235 71.035 128.22 C 72.835 126.19 74.345 126.815 72.755 119.455 C 71.165 112.095 67.855 112.89 67.74 112.805 Z "/>
          </g>
          <path id="Shape" fill="#000000" stroke="none" stroke-width="1" d="M 65.54 96.515 C 65.54 96.515 64.705 89.015 56.945 88.045 C 49.185 87.075 48.14 91.36 48.14 91.36 L 52 105.29 L 67.05 105.545 L 65.54 96.515 Z "/>
        </g>
        <path id="Shape" fill="#000000" stroke="none" stroke-width="1" d="M 65.54 96.515 L 63.815 86.25 L 32.045 80.03 L 29.65 90.405 C 29.65 90.405 64.43 96.305 65.54 96.515 Z "/>
        <g id="Group-3">
          <path id="Shape" fill="#824600" stroke="none" stroke-width="1" d="M 68.165 33.405 C 68.165 33.405 73.94 34.985 75.52 29.53 C 77.1 24.075 69.145 25.6 68.085 28.345 C 67.605 29.59 68.165 33.405 68.165 33.405 Z "/>
          <path id="Shape" fill="#A0640A" stroke="none" stroke-width="1" d="M 70.54 14.17 C 70 13.515 61.15 11.605 61.15 11.605 L 41.65 22.26 C 42.112 24.478 42.73 26.66 43.5 28.79 C 45.755 34.2 49.675 40.075 53.77 41.38 C 55.985 42.085 64.47 43.02 68.73 38.45 C 71.2 35.8 73.765 30.45 73.64 24.6 C 73.57 20.345 71.19 14.955 70.54 14.17 Z "/>
          <path id="Shape" fill="#000000" stroke="none" stroke-width="1" d="M 39.65 9.72 L 40.22 9.37 C 39.36 6.975 37.28 3.12 41.22 2.37 C 43.6 1.9 47.12 4.52 47.85 6.735 C 48.245 6.905 48.245 6.905 48.605 6.595 C 48.255 4.77 47.51 2.515 49.04 1.095 C 53.57 -1.505 55.765 4.93 58.32 7.465 L 58.87 7.365 C 59.32 5.365 57.945 2.54 60.945 2.46 C 62.91 2.41 63.81 4.145 64.82 5.46 C 67.195 8.555 70.58 14.195 70.58 14.195 C 70.58 14.195 70.615 17.65 65.365 18.6 C 62.745 19.1 58.29 16.385 51.365 19.1 C 44.44 21.815 44.595 31.205 44.595 31.205 C 44.595 31.205 37.08 17.25 36.22 15.25 C 35.57 13.75 33.6 9.32 35.22 8.045 C 36.5 7.025 38.66 9.05 39.65 9.72 Z "/>
          <path id="Shape" fill="#A0640A" stroke="none" stroke-width="1" d="M 45.765 32.905 C 45.765 32.905 39.99 34.485 38.41 29.03 C 36.83 23.575 44.785 25.1 45.845 27.845 C 46.325 29.09 45.765 32.905 45.765 32.905 Z "/>
          <path id="Shape" fill="#000000" stroke="none" stroke-width="1" d="M 56.605 31.48 C 59.605 31.825 62.3 32.865 65.075 34.04 C 63.68 38.79 53.825 35.83 56.605 31.48 Z "/>
          <path id="Shape" fill="#824600" stroke="none" stroke-width="1" d="M 62.025 29.96 C 60.305 26.985 66.805 24.275 67.61 28.695 C 68.235 32.115 64.03 30.5 62.025 29.96 Z "/>
          <path id="Shape" fill="#000000" stroke="none" stroke-width="1" d="M 56.46 27.03 L 56.085 28.07 L 55.35 28 C 55.16 26.75 56.06 24.965 56.46 27.03 Z "/>
          <path id="Shape" fill="#000000" stroke="none" stroke-width="1" d="M 71.42 29.495 L 70.83 29.415 L 70.575 28 C 70.955 27.58 70.955 27.58 71.4 27.71 C 71.649 28.278 71.656 28.922 71.42 29.495 Z "/>
        </g>
        <g id="Group-2">
          <path id="Shape" fill="#A0640A" stroke="none" stroke-width="1" d="M 103.345 62.535 C 102.745 61.975 106.425 60.295 106.185 59.775 C 105.945 59.255 102.63 61.175 102.185 60.655 C 101.74 60.135 105.225 58.58 105.045 58.22 C 104.865 57.86 103.545 58.645 100.785 59.46 C 99.785 59.75 97.565 60.56 96.36 60.735 C 94.824 61.008 93.259 61.075 91.705 60.935 C 91.77 61.02 83.585 59.525 81.205 58.745 C 79.805 58.29 75.07 55.745 70.975 54.055 L 70.975 66.555 C 74.915 67.48 84.295 69.49 92.795 68.055 C 99.795 66.85 106.51 62.265 106.7 61.71 C 107.1 60.455 103.945 63.095 103.345 62.535 Z "/>
          <path id="Shape" fill="#BE0A3C" stroke="none" stroke-width="1" d="M 61.175 48.49 C 61.175 48.49 53.115 44.445 50.175 51.765 C 47.235 59.085 60.105 64.695 60.105 64.695 C 62.945 66.13 73.79 69.57 73.79 69.57 C 73.79 69.57 77.375 55.24 77.375 54.98 C 76.585 54.565 61.09 48.42 61.175 48.49 Z "/>
          <path id="Shape" fill="#824600" stroke="none" stroke-width="1" d="M 97.5 62.75 C 95.81 62.63 95.375 60.905 95.375 60.905 C 95.375 60.905 99.795 56.76 100.275 57.16 C 100.755 57.56 99.865 58.66 99.195 59.92 C 101.055 61.25 99.18 62.855 97.5 62.75 Z "/>
        </g>
        <g id="Group">
          <path id="Shape" fill="#824600" stroke="none" stroke-width="1" d="M 9.325 77.595 C 7.125 76.97 10.215 68.285 10.745 67.48 C 11.155 68.35 10.31 77.135 9.325 77.595 Z "/>
          <path id="Shape" fill="#A0640A" stroke="none" stroke-width="1" d="M 19.6 46.185 C 15.937 48.306 12.83 51.268 10.535 54.825 C 6.14 61.525 -0.125 77.07 0.45 77.79 C 1.025 78.51 2.03 74.13 3.32 74.56 C 4.61 74.99 2.03 79.3 2.675 79.875 C 3.32 80.45 5.405 75.135 5.98 75.565 C 6.555 75.995 4.545 79.655 4.905 79.945 C 5.265 80.235 11.575 69.025 15.27 64.755 C 17.01 62.755 20.215 58.97 22.415 57.47 C 25.25 55.535 29.365 54.325 32.915 54.97 L 35.315 42.47 C 31.71 42.01 22.66 44.36 19.6 46.185 Z "/>
          <path id="Shape" fill="#F01446" stroke="none" stroke-width="1" d="M 40.285 41.41 C 32.755 40.83 30.105 41.825 30.105 41.825 L 30.86 55.91 C 30.86 55.91 37.305 56.225 42.86 58.61 C 42.86 58.61 51.905 62.87 57.275 56.89 C 62.645 50.91 59.58 47.53 59.58 47.53 C 59.38 47.46 47.82 41.985 40.285 41.41 Z "/>
        </g>
        <path id="Shape" fill="#F01446" stroke="none" stroke-width="1" d="M 69.16 64.815 C 69.36 56.315 64.16 45.91 54.555 46.745 C 51.39 47.02 47.42 47.945 44.84 49.82 C 44.495 50.07 39.475 55.675 38.635 57.375 C 34.72 65.3 27.685 85.035 27.685 85.035 L 65.055 88.305 C 65.055 88.305 69.055 69.25 69.16 64.815 Z "/>
      </g>
    </g>
  </g>
</svg>