<svg xmlns="http://www.w3.org/2000/svg" xmlns:xlink="http://www.w3.org/1999/xlink" width="107.32185363769531" height="139.457275390625" viewBox="-0.08692550659179688 -0.26226574182510376 107.32185363769531 139.457275390625" version="1.1" xml:space="preserve">
  <!-- Generator: Sketch 52.4 (67378) - http://www.bohemiancoding.com/sketch -->
  <g>
    <title>Slice 1</title>
    <desc>Created with Sketch.</desc>
    <g id="Page-1" fill-rule="evenodd">
      <g id="ben-a-[sports,soccer,football,people,alex-eben-meyer]">
        <g id="Group-7">
          <path d="M 34.085 98.27 C 33.16 103.405 31.625 110.6 31.455 111.425 L 43.315 111.775 C 44.065 110.54 48.51 101.555 50.28 98.275 L 34.085 98.27 Z " id="Shape" fill="#824600" stroke-width="1" stroke="none"/>
          <path d="M 48.95 104.145 C 48.95 104.145 58.2 86.685 58.45 84.065 L 35.9 84.65 C 34.84 86.815 34.71 89.845 34.13 92.18 C 33.1057 96.1621 31.8435 100.0791 30.35 103.91 L 48.95 104.145 Z " id="Shape" fill="#000000" stroke-width="1" stroke="none"/>
          <g id="Group-6">
            <path d="M 44.905 110.1 C 40.33 110.15 35.75 110.1 31.175 110.265 C 28.88 118.64 25.745 127.115 23.935 135.55 L 24.27 136.2 C 24.08 136.605 23.13 137.935 23.735 138.51 L 24.28 138.555 C 24.53 137.6 24.72 136.625 25.55 135.97 C 26.23 136.06 26.935 135.79 27.67 136.13 L 26.91 138.295 L 27.675 138.58 C 28.415 136.83 28.36 136.08 30.49 136.08 L 29.81 137.695 C 30.615 139.17 31.07 136.28 31.42 136.02 C 32.16 136.18 33.03 135.56 33.73 136.02 C 33.5268 136.8753 33.2508 137.7117 32.905 138.52 L 33.82 138.695 C 33.98 137.595 34.105 136.58 34.78 135.64 C 35.6 135.775 36.54 136.24 37.145 135.5 L 36.69 134.875 C 34.515 135.005 31.875 134.725 29.8 135.295 C 30.115 133.915 31.51 132.385 32.24 131.22 C 33.8533 128.6333 35.46 126.0433 37.06 123.45 C 39.52 119.45 42.25 115.565 44.195 111.3 C 44.4724 110.9499 44.6965 110.5607 44.86 110.145 L 44.905 110.1 Z " id="Shape" fill="#000000" stroke-width="1" stroke="none"/>
            <polygon id="Shape" fill="#BE0A3C" points="11.175 13.44 3.1 13.22 4.285 8.995 11.545 9.145" stroke-width="1" stroke="none" transform="matrix(1,0,0,1,23,110)"/>
            <path d="M 37.965 115.085 C 44.785 116.365 39.22 130.22 33.5 130.62 C 26.105 131.12 31.81 115.12 37.955 115.12 L 37.965 115.085 Z " id="Shape" fill="#F01446" stroke-width="1" stroke="none"/>
          </g>
        </g>
        <g id="Group-5">
          <path d="M 75.375 82.455 C 73.96 82.035 63.21 81.545 63.21 81.545 L 63.44 94.235 C 65.885 94.935 72.835 93.965 75.125 93.13 C 75.475 91.1 75.35 84.165 75.375 82.455 Z " id="Shape" fill="#A0640A" stroke-width="1" stroke="none"/>
          <g id="Group-4">
            <path d="M 100.365 83.645 L 100.365 83.09 L 99.82 82.805 C 99.185 82.98 98.61 83.27 97.89 83.05 L 98.02 81.665 C 98.5821 81.307 99.2457 81.142 99.91 81.195 L 100.21 80.695 C 99.48 79.97 98.885 80.785 98.055 80.225 C 98.055 79.35 99.12 76.54 98.29 75.85 L 97.595 75.92 C 97.36 78.095 97.015 83.195 97.015 83.195 L 73.925 81.395 L 73.175 94.545 L 99.62 89.18 L 99.69 88.435 L 97.05 88.435 C 97.05 88.435 97.05 87.11 97.11 86.77 L 99.865 86.445 L 100.01 85.86 C 99.405 85.29 98.23 85.7 97.455 85.22 L 97.83 84.22 L 100.365 83.645 Z " id="Shape" fill="#000000" stroke-width="1" stroke="none"/>
            <polygon id="Shape" fill="#BE0A3C" points="13.615 17.625 13.865 9.175 9.645 10.365 9.365 18.335" stroke-width="1" stroke="none" transform="matrix(1,0,0,1,73,75)"/>
            <path d="M 92.97 83.325 C 92.97 87.465 81.78 87.425 79.18 85.075 C 72.5 79.055 92.86 79.185 92.97 83.325 Z " id="Shape" fill="#F01446" stroke-width="1" stroke="none"/>
          </g>
          <path d="M 31.96 77.785 C 37.99 77.785 68.72 80.215 68.72 80.215 L 67.515 95.215 C 67.515 95.215 49.08 95.56 45.015 95.185 C 36.5 94.39 28.82 86.795 31.96 77.785 Z " id="Shape" fill="#000000" stroke-width="1" stroke="none"/>
        </g>
        <g id="Group-3">
          <path d="M 68.165 33.155 C 68.165 33.155 73.94 34.735 75.52 29.28 C 77.1 23.825 69.145 25.35 68.085 28.095 C 67.605 29.34 68.165 33.155 68.165 33.155 Z " id="Shape" fill="#824600" stroke-width="1" stroke="none"/>
          <path d="M 70.54 13.92 C 70 13.265 61.15 11.355 61.15 11.355 L 41.65 22.01 C 42.1118 24.2276 42.73 26.4097 43.5 28.54 C 45.755 33.95 49.675 39.825 53.77 41.13 C 55.985 41.835 64.47 42.77 68.73 38.2 C 71.2 35.55 73.765 30.2 73.64 24.35 C 73.57 20.095 71.19 14.705 70.54 13.92 Z " id="Shape" fill="#A0640A" stroke-width="1" stroke="none"/>
          <path d="M 39.65 9.47 L 40.22 9.12 C 39.36 6.725 37.28 2.87 41.22 2.12 C 43.6 1.65 47.12 4.27 47.85 6.485 C 48.245 6.655 48.245 6.655 48.605 6.345 C 48.255 4.52 47.51 2.265 49.04 0.845 C 53.57 -1.755 55.765 4.68 58.32 7.215 L 58.87 7.115 C 59.32 5.115 57.945 2.29 60.945 2.21 C 62.91 2.16 63.81 3.895 64.82 5.21 C 67.195 8.305 70.58 13.945 70.58 13.945 C 70.58 13.945 70.615 17.4 65.365 18.35 C 62.745 18.85 58.29 16.135 51.365 18.85 C 44.44 21.565 44.595 30.955 44.595 30.955 C 44.595 30.955 37.08 17 36.22 15 C 35.57 13.5 33.6 9.07 35.22 7.795 C 36.5 6.775 38.66 8.8 39.65 9.47 Z " id="Shape" fill="#000000" stroke-width="1" stroke="none"/>
          <path d="M 45.765 32.655 C 45.765 32.655 39.99 34.235 38.41 28.78 C 36.83 23.325 44.785 24.85 45.845 27.595 C 46.325 28.84 45.765 32.655 45.765 32.655 Z " id="Shape" fill="#A0640A" stroke-width="1" stroke="none"/>
          <path d="M 56.605 31.23 C 59.605 31.575 62.3 32.615 65.075 33.79 C 63.68 38.54 53.825 35.58 56.605 31.23 Z " id="Shape" fill="#000000" stroke-width="1" stroke="none"/>
          <path d="M 62.025 29.71 C 60.305 26.735 66.805 24.025 67.61 28.445 C 68.235 31.865 64.03 30.25 62.025 29.71 Z " id="Shape" fill="#824600" stroke-width="1" stroke="none"/>
          <path d="M 56.46 26.78 L 56.085 27.82 L 55.35 27.75 C 55.16 26.5 56.06 24.715 56.46 26.78 Z " id="Shape" fill="#000000" stroke-width="1" stroke="none"/>
          <path d="M 71.42 29.245 L 70.83 29.165 L 70.575 27.75 C 70.955 27.33 70.955 27.33 71.4 27.46 C 71.649 28.0276 71.6562 28.672 71.42 29.245 Z " id="Shape" fill="#000000" stroke-width="1" stroke="none"/>
        </g>
        <g id="Group-2">
          <path d="M 103.345 62.285 C 102.745 61.725 106.425 60.045 106.185 59.525 C 105.945 59.005 102.63 60.925 102.185 60.405 C 101.74 59.885 105.225 58.33 105.045 57.97 C 104.865 57.61 103.545 58.395 100.785 59.21 C 99.785 59.5 97.565 60.31 96.36 60.485 C 94.8241 60.7581 93.2587 60.8253 91.705 60.685 C 91.77 60.77 83.585 59.275 81.205 58.495 C 79.805 58.04 75.07 55.495 70.975 53.805 L 70.975 66.305 C 74.915 67.23 84.295 69.24 92.795 67.805 C 99.795 66.6 106.51 62.015 106.7 61.46 C 107.1 60.205 103.945 62.845 103.345 62.285 Z " id="Shape" fill="#A0640A" stroke-width="1" stroke="none"/>
          <path d="M 61.175 48.24 C 61.175 48.24 53.115 44.195 50.175 51.515 C 47.235 58.835 60.105 64.445 60.105 64.445 C 62.945 65.88 73.79 69.32 73.79 69.32 C 73.79 69.32 77.375 54.99 77.375 54.73 C 76.585 54.315 61.09 48.17 61.175 48.24 Z " id="Shape" fill="#BE0A3C" stroke-width="1" stroke="none"/>
          <path d="M 97.5 62.5 C 95.81 62.38 95.375 60.655 95.375 60.655 C 95.375 60.655 99.795 56.51 100.275 56.91 C 100.755 57.31 99.865 58.41 99.195 59.67 C 101.055 61 99.18 62.605 97.5 62.5 Z " id="Shape" fill="#824600" stroke-width="1" stroke="none"/>
        </g>
        <g id="Group">
          <path d="M 9.325 77.345 C 7.125 76.72 10.215 68.035 10.745 67.23 C 11.155 68.1 10.31 76.885 9.325 77.345 Z " id="Shape" fill="#824600" stroke-width="1" stroke="none"/>
          <path d="M 19.6 45.935 C 15.9367 48.0564 12.8297 51.0177 10.535 54.575 C 6.14 61.275 -0.125 76.82 0.45 77.54 C 1.025 78.26 2.03 73.88 3.32 74.31 C 4.61 74.74 2.03 79.05 2.675 79.625 C 3.32 80.2 5.405 74.885 5.98 75.315 C 6.555 75.745 4.545 79.405 4.905 79.695 C 5.265 79.985 11.575 68.775 15.27 64.505 C 17.01 62.505 20.215 58.72 22.415 57.22 C 25.25 55.285 29.365 54.075 32.915 54.72 L 35.315 42.22 C 31.71 41.76 22.66 44.11 19.6 45.935 Z " id="Shape" fill="#A0640A" stroke-width="1" stroke="none"/>
          <path d="M 40.285 41.16 C 32.755 40.58 30.105 41.575 30.105 41.575 L 30.86 55.66 C 30.86 55.66 37.305 55.975 42.86 58.36 C 42.86 58.36 51.905 62.62 57.275 56.64 C 62.645 50.66 59.58 47.28 59.58 47.28 C 59.38 47.21 47.82 41.735 40.285 41.16 Z " id="Shape" fill="#F01446" stroke-width="1" stroke="none"/>
        </g>
        <path d="M69.16,64.565 C69.36,56.065 64.16,45.66 54.555,46.495 C51.39,46.77 47.42,47.695 44.84,49.57 C44.495,49.82 39.645,55.52 38.635,57.125 C30.795,69.58 29.525,83.555 29.525,83.555 L67.345,80.1 C67.345,80.1 69.055,69 69.16,64.565 Z" id="Shape" fill="#F01446" stroke-width="1" stroke="none"/>
      </g>
    </g>
  </g>
</svg>