<svg xmlns="http://www.w3.org/2000/svg" xmlns:xlink="http://www.w3.org/1999/xlink" version="1.1" width="87.2940902709961" height="141.5853271484375" viewBox="-0.2550077438354492 0.47368448972702026 87.2940902709961 141.5853271484375">
  <!-- Exported by Scratch - http://scratch.mit.edu/ -->
  <g id="ID0.33944067917764187">
    <g id="Page-1">
      <g id="ben-d-[sports,soccer,football,people,alex-eben-meyer]">
        <g id="Group-5">
          <path id="Shape" fill="#A0640A" stroke="none" stroke-width="1" d="M 65.31 104.458 L 52.874 104.458 C 54.383 107.759 58.074 115.286 58.074 115.286 C 58.074 115.286 64.873 115.627 67.387 114.654 C 67.226 113.52 66.045 107.463 65.31 104.458 Z "/>
          <g id="Group-4">
            <path id="Shape" fill="#000000" stroke="none" stroke-width="1" d="M 72.869 137.926 L 68.343 114.247 L 56.198 114.247 C 57.46 116.997 58.712 119.561 59.014 120.299 C 61.378 126.471 67.297 138.865 67.503 139.05 C 67.528 139.517 67.347 141.329 68.051 141.559 L 68.554 141.349 C 68.453 140.556 68.433 138.795 68.433 138.795 L 69.836 138.729 L 69.987 141.073 C 70.234 141.213 70.54 141.193 70.767 141.022 C 70.767 141.022 70.51 139.397 70.852 138.714 C 71.994 138.714 72.411 138.639 72.507 138.749 C 72.602 138.86 72.798 141.83 73.683 140.867 C 73.482 140.149 73.1 139.402 73.492 138.614 C 74.066 138.669 74.569 138.714 74.805 139.02 C 75.041 139.326 75.157 140.666 75.499 140.927 C 75.645 140.782 75.876 140.807 75.926 140.756 L 75.423 138.694 C 75.971 138.637 76.523 138.625 77.073 138.659 C 77.073 138.659 77.008 138.202 76.977 138.072 C 76.077 138.022 73.573 137.952 72.869 137.926 Z "/>
            <path id="Shape" fill="#BE0A3C" stroke="none" stroke-width="1" d="M 59.301 124.549 L 60.362 127.826 L 66.125 127.474 L 65.416 124.298 L 59.301 124.549 "/>
            <path id="Shape" fill="#F01446" stroke="none" stroke-width="1" d="M 68.499 117.218 C 67.751 117.221 67.004 117.266 66.261 117.353 L 66.2 117.353 C 63.007 118.493 63.299 122.286 63.912 125.272 C 64.752 129.351 66.356 130.982 69.922 132.613 C 70.55 132.613 71.184 132.703 71.813 132.688 C 73.623 130.651 75.142 131.278 73.543 123.892 C 71.943 116.505 68.619 117.303 68.499 117.218 Z "/>
          </g>
        </g>
        <g id="Group-3">
          <path id="Shape" fill="#A0640A" stroke="none" stroke-width="1" d="M 17.863 104.458 L 30.299 104.458 C 28.79 107.759 25.099 115.286 25.099 115.286 C 25.099 115.286 18.325 115.627 15.796 114.639 C 15.942 113.52 17.128 107.463 17.863 104.458 Z "/>
          <g id="Group-2">
            <path id="Shape" fill="#000000" stroke="none" stroke-width="1" d="M 10.299 137.926 L 14.825 114.247 L 26.97 114.247 C 25.708 116.997 24.456 119.561 24.154 120.299 C 21.79 126.471 15.871 138.865 15.665 139.05 C 15.64 139.517 15.821 141.329 15.117 141.559 L 14.614 141.349 C 14.715 140.556 14.735 138.795 14.735 138.795 L 13.332 138.729 L 13.181 141.073 C 12.934 141.213 12.628 141.193 12.401 141.022 C 12.401 141.022 12.658 139.397 12.316 138.714 C 11.174 138.714 10.757 138.639 10.661 138.749 C 10.566 138.86 10.37 141.83 9.485 140.867 C 9.686 140.149 10.068 139.402 9.676 138.614 C 9.102 138.669 8.599 138.714 8.363 139.02 C 8.127 139.326 8.011 140.666 7.669 140.927 C 7.523 140.782 7.292 140.807 7.242 140.756 L 7.745 138.694 C 7.197 138.637 6.645 138.625 6.095 138.659 C 6.095 138.659 6.16 138.202 6.191 138.072 C 7.096 138.022 9.6 137.952 10.299 137.926 Z "/>
            <path id="Shape" fill="#BE0A3C" stroke="none" stroke-width="1" d="M 23.872 124.549 L 22.811 127.826 L 17.048 127.474 L 17.757 124.298 L 23.872 124.549 "/>
            <path id="Shape" fill="#F01446" stroke="none" stroke-width="1" d="M 14.669 117.218 C 15.417 117.221 16.164 117.266 16.907 117.353 L 16.968 117.353 C 20.161 118.493 19.869 122.286 19.256 125.272 C 18.416 129.351 16.812 130.982 13.246 132.613 C 12.618 132.613 11.984 132.703 11.355 132.688 C 9.545 130.651 8.026 131.278 9.625 123.892 C 11.225 116.505 14.554 117.303 14.669 117.218 Z "/>
          </g>
        </g>
        <g id="Group">
          <path id="Shape" fill="#A0640A" stroke="none" stroke-width="1" d="M 50.973 34.008 C 50.973 34.008 56.781 35.594 58.37 30.119 C 59.96 24.645 51.959 26.175 50.892 28.93 C 50.405 30.179 50.973 34.008 50.973 34.008 Z "/>
          <path id="Shape" fill="#A0640A" stroke="none" stroke-width="1" d="M 53.02 14.699 C 52.477 14.042 43.575 12.125 43.575 12.125 L 23.963 22.818 C 24.436 25.038 25.067 27.221 25.849 29.351 C 28.117 34.781 32.059 40.677 36.178 41.986 C 38.406 42.694 46.94 43.632 51.224 39.046 C 53.709 36.386 56.288 31.017 56.163 25.147 C 56.067 20.901 53.673 15.492 53.02 14.699 Z "/>
          <path id="Shape" fill="#000000" stroke="none" stroke-width="1" d="M 22.293 10.239 L 22.866 9.887 C 22.001 7.484 19.909 3.615 23.872 2.862 C 26.266 2.391 29.806 5.02 30.541 7.243 C 30.938 7.414 30.938 7.414 31.3 7.103 C 30.948 5.271 30.199 3.008 31.737 1.583 C 36.294 -1.026 38.501 5.432 41.071 7.976 L 41.624 7.875 C 42.077 5.868 40.694 3.033 43.711 2.953 C 45.688 2.903 46.593 4.644 47.609 5.963 C 49.997 9.07 53.402 14.73 53.402 14.73 C 53.402 14.73 53.437 18.197 48.157 19.15 C 45.522 19.652 41.041 16.927 34.076 19.652 C 27.111 22.377 27.267 31.8 27.267 31.8 C 27.267 31.8 19.723 17.775 18.873 15.783 C 18.22 14.278 16.238 9.832 17.868 8.553 C 19.145 7.534 21.297 9.566 22.293 10.239 Z "/>
          <path id="Shape" fill="#A0640A" stroke="none" stroke-width="1" d="M 28.438 33.506 C 28.438 33.506 22.63 35.092 21.041 29.617 C 19.452 24.143 27.453 25.673 28.519 28.428 C 29.007 29.678 28.438 33.506 28.438 33.506 Z "/>
          <path id="Shape" fill="#000000" stroke="none" stroke-width="1" d="M 37.742 33.918 C 40.759 33.416 43.631 33.662 46.643 34.018 C 46.623 38.986 36.273 38.885 37.742 33.918 Z "/>
          <path id="Shape" fill="#824600" stroke="none" stroke-width="1" d="M 41.197 29.527 C 39.13 26.762 45.315 23.305 46.628 27.62 C 47.644 30.952 43.249 29.853 41.197 29.527 Z "/>
          <path id="Shape" fill="#000000" stroke="none" stroke-width="1" d="M 35.293 27.249 L 35.036 28.328 L 34.292 28.328 C 33.96 27.119 34.654 25.237 35.293 27.249 Z "/>
          <path id="Shape" fill="#000000" stroke="none" stroke-width="1" d="M 50.862 27.936 L 50.259 27.936 L 49.836 26.551 C 50.168 26.085 50.168 26.085 50.626 26.17 C 50.941 26.703 51.026 27.34 50.862 27.936 Z "/>
        </g>
        <path id="Shape" fill="#A0640A" stroke="none" stroke-width="1" d="M 17.259 89.384 L 15.71 98.336 C 15.71 98.336 16.123 100.504 16.942 101.573 L 20.754 88.642 L 17.259 89.384 Z "/>
        <path id="Shape" fill="#A0640A" stroke="none" stroke-width="1" d="M 62.585 87.558 L 66.472 102.345 C 66.472 102.345 66.975 92.189 70.495 89.359 L 70.495 87.302 L 62.585 87.558 Z "/>
        <path id="Shape" fill="#000000" stroke="none" stroke-width="1" d="M 31.426 108.216 L 36.57 93.163 L 46.009 93.017 L 46.009 92.892 L 51.089 108.693 L 68.056 108.693 C 66.16 99.902 61.458 78.666 60.402 76.268 C 50.344 76.047 25.486 73.448 25.486 73.448 C 25.486 73.448 21.131 84.437 20.87 85.26 C 20.199 87.411 19.51 89.56 18.803 91.708 C 16.896 97.219 15.367 102.854 14.227 108.572 L 31.426 108.216 Z "/>
        <path id="Shape" fill="#A0640A" stroke="none" stroke-width="1" d="M 86.442 67.988 C 86.135 65.535 83.037 58.314 79.321 55.685 C 72.456 50.813 62.665 49.423 61.77 49.423 C 61.77 49.423 57.586 49.503 56.912 54.205 C 56.238 58.906 61.941 60.296 61.941 60.296 C 68.182 60.296 74.191 62.86 76.163 69.413 C 78.134 75.967 74.931 79.57 73.462 81.647 C 71.994 83.724 67.629 85.475 65.944 86.012 C 64.259 86.549 61.343 85.792 59.96 86.961 C 60.82 88.938 64.073 87.543 65.386 89.54 C 66.698 91.537 66.507 92.049 67.568 94.247 C 67.775 94.166 68.574 92.676 69.152 92.034 C 70.239 90.784 71.833 90.96 73.336 90.493 C 76.26 89.591 78.861 87.868 80.83 85.531 C 84.269 81.456 87.106 73.302 86.442 67.988 Z "/>
        <path id="Shape" fill="#A0640A" stroke="none" stroke-width="1" d="M 22.801 87.914 C 22.037 87.161 19.839 88.05 18.863 87.979 C 17.711 87.815 16.603 87.423 15.605 86.825 C 13.563 85.621 11.808 83.177 10.576 81.035 C 7.941 76.453 7.654 70.588 11.677 65.018 C 15.7 59.448 24.4 59.925 24.727 59.789 C 24.727 59.789 29.218 59.353 28.881 53.873 C 28.544 48.394 22.288 49.197 22.288 49.197 C 17.938 49.122 11.531 51.279 5.999 56.131 C 1.207 60.336 -0.538 68.676 0.563 74.502 C 1.614 80.358 4.806 85.616 9.52 89.259 C 10.948 90.398 13.96 91.1 15.052 92.51 C 16.434 94.307 14.875 96.264 15.715 98.331 C 16.691 95.576 16.983 93.855 18.159 91.216 C 18.778 89.826 19.165 89.49 20.528 89.209 C 21.121 89.063 24.259 89.344 22.801 87.914 Z "/>
        <path id="Shape" fill="#F01446" stroke="none" stroke-width="1" d="M 63.093 61.651 C 63.093 61.651 66.382 48.921 66.382 48.55 C 58.253 47.001 50.012 46.105 41.74 45.87 C 28.489 45.544 16.394 48.715 16.394 48.715 C 16.314 49.879 21.8 61.214 21.8 61.214 C 23.603 61.462 25.422 61.578 27.242 61.561 C 25.23 69.112 22.147 77.116 20.146 84.783 L 42.685 83.93 L 63.168 83.152 C 62.057 78.305 59.029 69.745 57.043 61.892 C 61.554 61.927 63.093 61.651 63.093 61.651 Z "/>
      </g>
    </g>
  </g>
</svg>