<svg xmlns="http://www.w3.org/2000/svg" xmlns:xlink="http://www.w3.org/1999/xlink" version="1.1" width="143.75872802734375" height="141.5853271484375" viewBox="-0.5119264870882034 0.47368448972702026 143.75872802734375 141.5853271484375">
  <!-- Exported by Scratch - http://scratch.mit.edu/ -->
  <g id="ID0.01836689142510295">
    <g id="Page-1">
      <g id="ben-c-[sports,soccer,football,people,alex-eben-meyer]">
        <g id="Group-7">
          <path id="Shape" fill="#A0640A" stroke="none" stroke-width="1" d="M 94.015 104.458 L 81.606 104.458 C 83.111 107.759 86.794 115.286 86.794 115.286 C 86.794 115.286 93.578 115.627 96.087 114.654 C 95.926 113.52 94.747 107.463 94.015 104.458 Z "/>
          <g id="Group-6">
            <path id="Shape" fill="#000000" stroke="none" stroke-width="1" d="M 101.556 137.926 L 97.04 114.247 L 84.923 114.247 C 86.182 116.997 87.432 119.561 87.733 120.299 C 90.091 126.471 95.997 138.865 96.202 139.05 C 96.227 139.517 96.047 141.329 96.749 141.559 L 97.251 141.349 C 97.151 140.556 97.13 138.795 97.13 138.795 L 98.53 138.729 L 98.681 141.073 C 98.927 141.213 99.233 141.193 99.459 141.022 C 99.459 141.022 99.203 139.397 99.544 138.714 C 100.683 138.714 101.099 138.639 101.195 138.749 C 101.29 138.86 101.486 141.83 102.369 140.867 C 102.168 140.149 101.787 139.402 102.178 138.614 C 102.75 138.669 103.252 138.714 103.488 139.02 C 103.724 139.326 103.839 140.666 104.18 140.927 C 104.326 140.782 104.556 140.807 104.607 140.756 L 104.105 138.694 C 104.652 138.637 105.202 138.625 105.751 138.659 C 105.751 138.659 105.685 138.202 105.655 138.072 C 104.757 138.022 102.258 137.952 101.556 137.926 Z "/>
            <path id="Shape" fill="#BE0A3C" stroke="none" stroke-width="1" d="M 88.019 124.549 L 89.077 127.826 L 94.827 127.474 L 94.12 124.298 L 88.019 124.549 "/>
            <path id="Shape" fill="#F01446" stroke="none" stroke-width="1" d="M 97.196 117.218 C 96.449 117.221 95.704 117.266 94.963 117.353 L 94.903 117.353 C 91.717 118.493 92.008 122.286 92.62 125.272 C 93.458 129.351 95.058 130.982 98.616 132.613 C 99.243 132.613 99.875 132.703 100.502 132.688 C 102.309 130.651 103.824 131.278 102.228 123.892 C 100.633 116.505 97.316 117.303 97.196 117.218 Z "/>
          </g>
        </g>
        <g id="Group-5">
          <path id="Shape" fill="#A0640A" stroke="none" stroke-width="1" d="M 46.674 104.458 L 59.082 104.458 C 57.577 107.759 53.894 115.286 53.894 115.286 C 53.894 115.286 47.136 115.627 44.612 114.639 C 44.757 113.52 45.942 107.463 46.674 104.458 Z "/>
          <g id="Group-4">
            <path id="Shape" fill="#000000" stroke="none" stroke-width="1" d="M 39.128 137.926 L 43.643 114.247 L 55.761 114.247 C 54.501 116.997 53.252 119.561 52.951 120.299 C 50.593 126.471 44.687 138.865 44.481 139.05 C 44.456 139.517 44.637 141.329 43.934 141.559 L 43.433 141.349 C 43.533 140.556 43.553 138.795 43.553 138.795 L 42.153 138.729 L 42.003 141.073 C 41.757 141.213 41.451 141.193 41.225 141.022 C 41.225 141.022 41.481 139.397 41.14 138.714 C 40.001 138.714 39.584 138.639 39.489 138.749 C 39.394 138.86 39.198 141.83 38.315 140.867 C 38.516 140.149 38.897 139.402 38.506 138.614 C 37.934 138.669 37.432 138.714 37.196 139.02 C 36.96 139.326 36.845 140.666 36.504 140.927 C 36.358 140.782 36.127 140.807 36.077 140.756 L 36.579 138.694 C 36.032 138.637 35.482 138.625 34.933 138.659 C 34.933 138.659 34.998 138.202 35.028 138.072 C 35.932 138.022 38.43 137.952 39.128 137.926 Z "/>
            <path id="Shape" fill="#BE0A3C" stroke="none" stroke-width="1" d="M 52.67 124.549 L 51.611 127.826 L 45.861 127.474 L 46.569 124.298 L 52.67 124.549 "/>
            <path id="Shape" fill="#F01446" stroke="none" stroke-width="1" d="M 43.488 117.218 C 44.234 117.221 44.98 117.266 45.721 117.353 L 45.781 117.353 C 48.967 118.493 48.676 122.286 48.064 125.272 C 47.226 129.351 45.625 130.982 42.068 132.613 C 41.441 132.613 40.809 132.703 40.181 132.688 C 38.375 130.651 36.86 131.278 38.455 123.892 C 40.051 116.505 43.373 117.303 43.488 117.218 Z "/>
          </g>
        </g>
        <g id="Group-3">
          <path id="Shape" fill="#A0640A" stroke="none" stroke-width="1" d="M 79.71 34.008 C 79.71 34.008 85.505 35.594 87.09 30.119 C 88.676 24.645 80.693 26.175 79.629 28.93 C 79.143 30.179 79.71 34.008 79.71 34.008 Z "/>
          <path id="Shape" fill="#A0640A" stroke="none" stroke-width="1" d="M 81.752 14.699 C 81.21 14.042 72.329 12.125 72.329 12.125 L 52.76 22.818 C 53.233 25.038 53.862 27.221 54.642 29.351 C 56.905 34.781 60.839 40.677 64.948 41.986 C 67.171 42.694 75.686 43.632 79.96 39.046 C 82.439 36.386 85.013 31.017 84.888 25.147 C 84.792 20.901 82.404 15.492 81.752 14.699 Z "/>
          <path id="Shape" fill="#000000" stroke="none" stroke-width="1" d="M 51.095 10.239 L 51.667 9.887 C 50.804 7.484 48.716 3.615 52.67 2.862 C 55.058 2.391 58.591 5.02 59.323 7.243 C 59.72 7.414 59.72 7.414 60.081 7.103 C 59.73 5.271 58.982 3.008 60.517 1.583 C 65.063 -1.026 67.266 5.432 69.83 7.976 L 70.382 7.875 C 70.834 5.868 69.454 3.033 72.464 2.953 C 74.436 2.903 75.339 4.644 76.353 5.963 C 78.736 9.07 82.133 14.73 82.133 14.73 C 82.133 14.73 82.168 18.197 76.9 19.15 C 74.271 19.652 69.8 16.927 62.851 19.652 C 55.901 22.377 56.057 31.8 56.057 31.8 C 56.057 31.8 48.531 17.775 47.683 15.783 C 47.03 14.278 45.053 9.832 46.679 8.553 C 47.954 7.534 50.101 9.566 51.095 10.239 Z "/>
          <path id="Shape" fill="#A0640A" stroke="none" stroke-width="1" d="M 57.226 33.506 C 57.226 33.506 51.431 35.092 49.845 29.617 C 48.26 24.143 56.243 25.673 57.306 28.428 C 57.793 29.678 57.226 33.506 57.226 33.506 Z "/>
          <path id="Shape" fill="#000000" stroke="none" stroke-width="1" d="M 66.508 33.918 C 69.519 33.416 72.384 33.662 75.389 34.018 C 75.369 38.986 65.043 38.885 66.508 33.918 Z "/>
          <path id="Shape" fill="#824600" stroke="none" stroke-width="1" d="M 69.955 29.527 C 67.893 26.762 74.065 23.305 75.374 27.62 C 76.388 30.952 72.003 29.853 69.955 29.527 Z "/>
          <path id="Shape" fill="#000000" stroke="none" stroke-width="1" d="M 64.065 27.249 L 63.809 28.328 L 63.066 28.328 C 62.735 27.119 63.428 25.237 64.065 27.249 Z "/>
          <path id="Shape" fill="#000000" stroke="none" stroke-width="1" d="M 79.599 27.936 L 78.997 27.936 L 78.576 26.551 C 78.907 26.085 78.907 26.085 79.363 26.17 C 79.677 26.703 79.762 27.34 79.599 27.936 Z "/>
        </g>
        <path id="Shape" fill="#000000" stroke="none" stroke-width="1" d="M 60.297 108.853 L 65.339 93.168 L 74.757 93.022 L 74.757 92.897 L 80.367 109.079 L 97.427 108.412 C 96.217 102.792 93.548 92.591 91.787 85.967 C 90.783 82.239 85.54 69.198 70.257 69.293 C 54.973 69.388 51.692 79.936 51.692 79.936 C 51.692 79.936 49.946 84.452 49.685 85.27 C 49.016 87.421 48.328 89.57 47.622 91.718 C 46.117 96.364 43.357 104.222 41.832 108.858 L 60.297 108.853 Z "/>
        <g id="Group-2">
          <path id="Shape" fill="#A0640A" stroke="none" stroke-width="1" d="M 5.631 51.831 C 5.495 51.083 1.085 51.244 0.984 50.767 C 0.884 50.291 49.338 48.956 51.205 48.414 C 51.205 48.414 58.45 48.058 58.651 54.084 C 58.852 60.11 50.668 59.579 50.668 59.579 C 41.742 60.146 1.275 56.804 0.899 55.991 C 0.523 55.178 5.104 56.242 5.314 54.817 C 5.525 53.392 0.252 53.783 -0.004 52.905 C -0.26 52.027 5.771 52.579 5.631 51.831 Z "/>
          <path id="Shape" fill="#824600" stroke="none" stroke-width="1" d="M 6.489 47.521 C 6.338 48.294 9.715 49.352 10.232 50.271 C 10.748 51.189 9.158 53.893 12.239 54.174 C 15.319 54.455 15.545 51.164 15.184 50.075 C 14.823 48.986 7.392 46.808 6.489 47.521 Z "/>
          <path id="Shape" fill="#F01446" stroke="none" stroke-width="1" d="M 43.839 61.385 C 44.03 61.385 55.916 61.385 58.651 61.385 C 61.386 61.385 67.683 60.557 67.683 54.486 C 67.683 48.414 64.672 47.33 61.16 47.37 L 43.548 47.37 C 43.468 48.524 43.378 60.833 43.839 61.385 Z "/>
        </g>
        <g id="Group">
          <path id="Shape" fill="#A0640A" stroke="none" stroke-width="1" d="M 137.105 51.831 C 137.241 51.083 141.651 51.244 141.752 50.767 C 141.852 50.291 93.397 48.956 91.531 48.414 C 91.531 48.414 83.101 47.255 83.101 53.934 C 83.101 60.612 91.792 60.246 91.792 60.246 C 100.718 60.813 141.466 56.789 141.832 55.971 C 142.198 55.153 137.627 56.222 137.416 54.797 C 137.206 53.372 142.504 53.763 142.74 52.88 C 142.976 51.997 136.975 52.579 137.105 51.831 Z "/>
          <path id="Shape" fill="#824600" stroke="none" stroke-width="1" d="M 136.227 47.521 C 136.378 48.294 133.001 49.352 132.484 50.271 C 131.967 51.189 133.558 53.893 130.477 54.174 C 127.396 54.455 127.171 51.164 127.532 50.075 C 127.893 48.986 135.349 46.808 136.227 47.521 Z "/>
          <path id="Shape" fill="#F01446" stroke="none" stroke-width="1" d="M 97.943 61.385 C 97.753 61.385 85.124 61.24 82.389 61.24 C 79.654 61.24 74.11 60.542 74.11 54.47 C 74.11 48.399 77.121 47.315 80.633 47.355 L 98.244 47.355 C 98.315 48.524 98.405 60.833 97.943 61.385 Z "/>
        </g>
        <path id="Shape" fill="#F01446" stroke="none" stroke-width="1" d="M 61.155 47.355 C 58.139 57.145 45.41 90.067 45.41 90.067 L 94.08 87.558 C 94.08 87.558 84.22 57.772 81.26 47.355 L 61.155 47.355 Z "/>
      </g>
    </g>
  </g>
</svg>