<svg version="1.1" xmlns="http://www.w3.org/2000/svg" xmlns:xlink="http://www.w3.org/1999/xlink" width="177.25732" height="264" viewBox="0,0,177.25732,264"><g transform="translate(-123,-16.3125)"><g data-paper-data="{&quot;isPaintingLayer&quot;:true}" fill-rule="nonzero" stroke-width="0.5" stroke-linecap="butt" stroke-linejoin="miter" stroke-miterlimit="10" stroke-dasharray="" stroke-dashoffset="0" style="mix-blend-mode: normal"><path d="" fill="#9966ff" stroke="#d2d600"/><path d="M244.5,149.3125c1.38071,0 2.5,1.11929 2.5,2.5c0,1.38071 -1.11929,2.5 -2.5,2.5c-1.38065,0 -2.4999,-1.11919 -2.5,-2.49982c-0.41783,0.31384 -0.9372,0.49982 -1.5,0.49982c-0.86489,0 -1.62721,-0.4392 -2.07608,-1.10674c-0.07146,0.64183 -0.15017,1.28432 -0.23372,1.9269c-9.31179,-2.92415 -18.74848,-5.54156 -27.82858,-9.00205c-4.25222,-1.62055 -8.34662,-3.72417 -12.55548,-5.49061c0.07297,0.2862 0.13435,0.57464 0.17512,0.86704c0.4606,3.30301 0.01873,6.96642 0.01873,10.30546c0,2.46684 0.3605,4.96508 -0.03228,7.40046c-0.16784,1.04064 -0.82049,1.9613 -1,3c-0.87257,5.04899 -0.00137,11.15838 0.03134,16.30775c0.48086,1.38595 0.88611,2.8112 1.66526,4.0405c1.77143,2.7949 4.21999,5.12383 5.96231,7.93697c0.37502,0.6055 0.74914,1.21383 1.1217,1.82472c-0.30319,0.73931 -0.59816,1.48155 -0.87586,2.22939c0.88691,1.28465 1.82177,2.49874 2.94186,3.13359c0.98595,0.55882 2.33867,0.40702 3.20316,1.13986c1.92885,1.63514 2.30545,4.50575 3.60914,6.67244c0.47376,0.78738 1.50253,1.14142 1.96048,1.9381c3.48484,6.06257 5.07563,13.95872 7.28461,20.58566l0.39606,0.0228c0,0 1.76777,1.76777 0,3.53553c-1.76777,1.76777 -3.53553,0 -3.53553,0l-1.60394,-1.9772c-2.04663,-6.13989 -3.43738,-13.83329 -6.71539,-19.41434c-0.4896,-0.83358 -1.54307,-1.23238 -2.03952,-2.0619c-0.6285,-1.05016 -1.08427,-4.3732 -2.39086,-5.32756c-0.78764,-0.57531 -1.97089,-0.34134 -2.79684,-0.86014c-2.7827,-1.74786 -4.162,-5.08892 -6.45344,-7.35886c0,0 -1.76777,-1.76777 0,-3.53553c0.04584,-0.04584 0.09167,-0.0893 0.13748,-0.13047c-0.84665,-1.15464 -1.73211,-2.25815 -2.57908,-3.38947c-0.02901,1.26446 -0.13196,2.50425 -0.32291,3.68817c-0.3016,1.87002 -0.99124,3.70551 -0.96772,5.59954c0,4.54988 -0.44648,8.85659 -1.01873,13.30546c-0.45677,3.55113 -2.45751,6.6444 -3.01355,10.095c-0.15909,0.98726 0.16905,2.01439 0,3c-0.35638,2.07784 -1.66461,3.91866 -2,6c-0.15909,0.98726 0.17208,2.01492 0,3c-0.62688,3.58855 -2.7207,7.47027 -3.76293,10.95052c-1.91367,6.39015 -3.49254,12.78519 -6.46872,18.76706c0,0 -1.11803,2.23607 -3.3541,1.11803c-2.23607,-1.11803 -1.11803,-3.3541 -1.11803,-3.3541c2.8647,-5.69838 4.31877,-11.86833 6.15172,-17.96773c0.93842,-3.12272 3.10276,-7.04547 3.61663,-10.31469c0.15528,-0.98787 -0.16905,-2.01439 0,-3c0.35638,-2.07784 1.66461,-3.91866 2,-6c0.15909,-0.98726 -0.16905,-2.01439 0,-3c0.58238,-3.39545 2.56679,-6.43937 2.98645,-9.905c0.51979,-4.29253 0.98127,-8.33033 0.98127,-12.69454c0.02051,-2.16096 0.66426,-4.27097 1.03228,-6.40046c0.72323,-4.18484 -0.00975,-9.27889 -1.01355,-13.29409l0.1101,-0.30546h-0.12883v-3c0,0 0,0 0,0c0,-1.11485 0.72974,-2.05926 1.73761,-2.38162c-0.1473,-3.41841 -0.21278,-6.87249 0.29467,-10.01883c0.16784,-1.04064 0.82049,-1.9613 1,-3c0.37463,-2.16774 -0.03228,-4.39967 -0.03228,-6.59954c0,-3.12868 0.47136,-6.60658 0.01873,-9.69454c-0.16602,-1.13262 -0.63314,-2.20709 -0.88129,-3.32277c-1.9158,1.5172 -3.94377,2.86372 -5.86967,4.78508c-3.59128,3.58282 -6.22572,8.96616 -8.55543,13.39652l-3.21234,1.33572c0,0 -0.34402,0 -0.77684,-0.12762c-0.02699,0.02858 -0.05396,0.05718 -0.0809,0.0858c0.00838,-2.04642 0.0135,-4.07057 0.0135,-6.06064c0,-0.2492 -0.0033,-0.5014 -0.00971,-0.75638c0.38928,-0.16307 0.87533,-0.26438 1.40261,-0.13727c2.15216,-4.00844 4.60725,-8.18914 7.68357,-11.27166c3.19053,-3.19697 6.77374,-4.49933 9.3647,-8.14421c-0.01585,-0.26155 -0.04104,-0.52247 -0.07821,-0.78257c-0.33876,-2.37094 -1.58627,-4.54365 -1.98645,-6.905c-0.33879,-1.99908 -0.35882,-4.07646 -1,-6c0,-3.76298 -0.99693,-6.67685 -1.03228,-10.40046v-1c0,0 0,-2.5 2.5,-2.5c2.5,0 2.5,2.5 2.5,2.5v1c-0.04228,3.40506 0.96772,6.10277 0.96772,9.59954c0.64118,1.92354 0.6727,3.999 1,6c0.39684,2.42615 1.66593,4.6613 2.01355,7.095c0.04815,0.3371 0.0537,1.08253 0.04276,1.97009c0.01482,0.16585 0.01029,0.32723 -0.00717,0.48048c-0.01337,0.77926 -0.03511,1.6255 -0.04983,2.38179c0.77537,-0.12254 1.46145,0.1519 1.46145,0.1519c4.62026,1.84876 9.07347,4.19866 13.71376,5.96711c8.66778,3.30336 17.66364,5.83593 26.5638,8.60352c-0.00022,0.00335 -0.00043,0.0067 -0.00065,0.01006c0.45437,-0.4684 1.0905,-0.75949 1.79461,-0.75949c1.38065,0 2.4999,1.11919 2.5,2.49982c0.41783,-0.31384 0.9372,-0.49982 1.5,-0.49982z" fill="#9966ff" stroke="none"/><path d="M230.72608,243.50842c1.33524,2.74852 2.28585,5.35364 3.64608,7.90067c1.20863,0.4188 1.5532,1.79707 1.5532,1.79707l0.9864,3.94561c0.05753,0.21047 0.08824,0.43201 0.08824,0.66073c0,1.38071 -1.11929,2.5 -2.5,2.5c-1.1246,0 -2.07576,-0.74256 -2.38994,-1.76412l-0.90272,-2.70815c-2.23555,-3.38241 -3.38517,-6.90074 -5.1652,-10.58233c-1.33828,-4.92036 -2.84185,-8.55076 -5.0616,-13.0372c-0.51384,-1.03854 -0.95225,-2.1195 -1.35504,-3.21973c2.75374,2.33291 5.47151,4.36265 8.21165,6.1178c1.12716,2.65456 2.06614,5.31633 2.88892,8.38965z" fill="#9966ff" stroke="none"/><path d="M171.727,92.20588c0.73187,0.21768 1.46427,0.41275 2.19513,0.5763c-0.00035,-0.17024 0.00066,-0.34063 0.0027,-0.51108c-0.75206,-0.01398 -1.48255,-0.02516 -2.19783,-0.06522zM181,95.8125c0,0.75505 -0.22804,1.28205 -0.54637,1.6499c0.76527,0.56171 1.71489,0.61882 2.83694,0.9784c2.66519,0.85409 4.89071,1.64334 7.1554,2.84275c-0.12188,-0.19121 -0.22959,-0.41621 -0.31768,-0.68047c-0.79057,-2.37171 1.58114,-3.16228 1.58114,-3.16228l3.39011,-1.09601c2.02759,0 3.99828,-0.67716 6,-1c4.94253,-0.79714 14.27375,2.44621 17.16439,-3.65032c0.43346,-0.9142 0.61411,-1.89864 0.69642,-2.91218c-0.58462,-0.4576 -0.96035,-1.16981 -0.96035,-1.96978c0,-0.69036 0.27982,-1.31536 0.73223,-1.76777l0.40159,-0.40159c0.03957,-0.4168 0.09743,-0.82923 0.1842,-1.23445c0.24059,-1.12366 1.26848,-2.15268 1.05535,-3.28187c-0.10293,-0.54535 -1.12308,0.18176 -1.66394,0.05738c-1.45757,-0.33518 -2.83772,-0.94591 -4.25658,-1.41886c-2.47161,-0.82387 -4.83564,-2.07625 -7.40716,-2.49447c-2.89698,-0.47116 -5.85716,-0.48208 -8.75189,-0.96689c-2.98779,0.00911 -6.45484,-0.43628 -9.39334,-0.02376c-1.95555,0.27453 -3.72936,1.30135 -5.60989,1.90399c-1.56961,0.503 -2.8018,0.41413 -3.66394,1.94262c-0.42407,0.75184 -0.65632,1.63712 -0.77192,2.58418c0.68913,0.44516 1.14529,1.22005 1.14529,2.10149c0,0.88232 -0.45707,1.65788 -1.14735,2.10282c0.03097,0.47279 0.06425,0.93622 0.09132,1.38219l0.43044,0.17217c0.94948,0.35452 1.62559,1.26971 1.62559,2.34282c0,1.25982 -0.93187,2.302 -2.14392,2.47483c-0.00693,0.35462 -0.00558,0.70931 0.0095,1.06015c0.69416,0.1102 2.13442,0.56747 2.13442,2.46501zM156.70943,92.18421c-1.64368,-0.54789 -7.35972,-2.21018 -7.64255,-3.79733c-0.05372,-0.30143 -0.04905,-0.60105 0.0033,-0.89607c-0.04511,-0.20271 -0.07018,-0.42798 -0.07018,-0.67832c0,-2.11535 1.78988,-2.44082 2.34066,-2.49089c0.33867,-0.27237 0.6847,-0.51836 1.01538,-0.73202c1.65625,-1.07017 3.85898,-0.83794 5.8153,-1.08545c4.29081,-0.54287 8.5123,0.13795 12.674,-0.42149c0.76034,-0.37616 1.4903,-0.96665 2.2542,-0.73786c0.14369,0.04304 0.2723,0.10797 0.38911,0.19007c0.00378,-0.00109 0.00757,-0.00219 0.01135,-0.00329v-0.21906h0.42336c0.15246,-1.70756 0.54862,-3.35458 1.45001,-4.81433c0.32827,-0.53162 0.64279,-0.96923 0.95491,-1.33522c-0.59016,-0.97051 -0.19999,-2.14102 -0.19999,-2.14102c1.03015,-3.09045 2.37966,-6.28309 2.89044,-9.51489c0.51606,-3.26517 -1.49384,-5.64427 -0.98645,-9.095c0.30097,-2.0469 1.96738,-5.43001 1.15802,-7.64284c-0.73934,-2.0214 -3.37785,-2.67175 -5.13423,-3.91586c-3.2565,-2.3067 -7.84709,-3.91908 -10.40167,-7.24168c-1.93291,-1.69388 -3.50495,-3.60228 -3.6544,-4.79917c-0.19601,-1.56972 1.42152,-2.86889 2.79331,-3.84634c1.25971,-1.68062 3.51633,-2.67743 5.91612,-3.52537c1.63793,-0.52954 3.44426,-0.91694 5.31624,-1.14558l-0.87893,-2.63678c-0.09499,-0.2642 -0.14675,-0.54902 -0.14675,-0.84593c0,-1.38071 1.11929,-2.5 2.5,-2.5c0.57973,0 1.11338,0.19733 1.53743,0.52849l3.95298,3.02287l-0.25739,0.33659c1.39253,0.82655 2.72589,1.69882 4.07839,2.65248c0.48657,0.12343 0.96291,0.26168 1.42677,0.41513c2.57851,0.85296 6.23358,3.66001 8.64513,4.8699c3.57309,1.79264 5.78442,2.73779 8.38445,5.90678c0.98403,1.19936 2.83668,2.2199 2.73223,3.76777c-0.2979,4.41465 -5.04642,4.59402 -7.80103,5.4003c-1.451,0.42471 -2.83684,0.69917 -4.2136,0.87174c-0.13557,1.25275 -1.19658,2.22796 -2.48537,2.22796c-0.69036,0 -1.31536,-0.27982 -1.76777,-0.73223l-1.23341,-1.23341c-0.65157,-0.00511 -1.31614,-0.01803 -1.99883,-0.03436c-0.95893,-0.02293 -1.9665,0.14788 -2.91539,0.05356c0.08098,0.16053 0.15612,0.32374 0.22509,0.48973c1.32652,3.19286 -0.25422,7.30132 -0.84198,10.35716c-0.59719,3.10485 1.44945,5.59745 1.01355,8.905c-0.37095,2.81468 -1.39782,5.62635 -2.36951,8.35628c0.03237,-0.01103 0.06493,-0.02218 0.09767,-0.03344c0.41156,-0.14163 6.18278,-2.06598 6.39011,-2.09601c3.30373,-0.47847 7.24453,-0.0327 10.60666,-0.02376c3.06007,0.50758 6.19017,0.51285 9.24811,1.03311c2.79606,0.47571 5.38898,1.77091 8.07967,2.6678c0.10478,0.03493 0.30424,0.0986 0.57464,0.18524c0.73942,-3.89735 -0.23369,-7.79081 0.42366,-11.79512c0.42752,-2.60427 1.14281,-5.18477 2.18143,-7.61093c0.43402,-1.01385 1.54563,-1.66656 1.89356,-2.71308c0.34002,-1.02273 -0.31561,-2.23091 0.08303,-3.23225c0.34873,-0.87594 1.63898,-1.12905 2,-2c0.31257,-0.75407 -0.28279,-1.63706 -0.15802,-2.44375c0.26975,-1.74406 1.26821,-3.45479 1,-5.19909c-0.16044,-1.0434 -0.0532,-3.03541 -1.10666,-2.96733c-0.88145,0.05696 -1.54249,1.08396 -2.42562,1.06688c-5.13509,-0.0993 -8.72363,-3.81906 -11.5,-7.5c0.92131,-1.2705 2.7152,-4.09054 4.38922,-5.54288c0.51401,-0.62587 1.15613,-1.1896 1.93114,-1.6613c1.2714,-0.77383 2.75488,-0.91579 4.30578,-0.66039c0.30665,-0.17898 0.61389,-0.32878 0.91716,-0.44513c1.62333,-0.62276 3.40711,-0.66053 5.19116,-0.32628c2.07738,-0.09547 3.0891,0.42892 5.55612,1.26427c2.97423,1.0071 6.97968,2.97042 7.68444,6.48118c1.1647,1.33243 1.49853,3.04215 -0.70724,5.6583c-0.59854,0.70989 -1.53699,0.89028 -2.54594,0.88872c-2.19428,0.895 -5.08963,0.53201 -7.60131,-0.13905c0.946,2.20129 1.14611,4.85015 0.8472,6.88302c-0.15334,1.04288 -0.81666,1.96198 -1,3c-0.20639,1.1685 0.27158,2.45016 -0.15802,3.55625c-0.34134,0.87885 -1.64829,1.12525 -2,2c-0.34432,0.85637 0.37558,1.89234 0.08303,2.76775c-0.41247,1.23423 -1.59334,2.09103 -2.10644,3.28692c-0.87308,2.03489 -1.44781,4.20605 -1.81857,6.38907c-0.65772,3.87271 0.01612,7.49415 -0.42321,11.24103c0.86643,-0.30641 1.74606,-0.0132 1.74606,-0.0132c1.08153,0.36051 2.16176,0.72808 3.24197,1.09705c0.33451,-0.55718 0.70528,-1.08138 1.19969,-1.49311c2.53507,-2.11107 8.68114,-5.99079 9.24232,2.12359c0.07118,1.02924 -0.93503,1.62044 -2.00105,2.17378c0.08843,0.02745 0.17689,0.0548 0.26537,0.08207c2.37573,0.73212 4.9101,1.38419 6.88372,2.88832h3.37742c1.38071,0 2.5,1.11929 2.5,2.5c0,0.99801 -0.58479,1.85943 -1.43041,2.26029l-3.95156,1.97578l-0.05574,-0.11148c-0.25388,0.13622 -0.51647,0.25737 -0.7895,0.36049c-1.46157,0.55199 -3.02466,-0.83876 -4.57825,-1.0038c-4.75561,-0.5052 -8.62176,0.96432 -13.19126,0.9862l-0.34273,0.11424c-0.37649,2.54429 -0.80942,5.31678 -0.92448,5.53632c-0.8409,1.60451 -2.31052,2.84286 -3.77429,3.91007c-5.68577,4.1454 -10.88496,1.37221 -17.06132,2.43961c-1.99797,0.34529 -3.97241,1 -6,1l-2.60989,0.90399c0,0 -0.47511,0.15837 -1.07091,0.1207c0.22075,0.13751 0.44297,0.27987 0.66709,0.42747c0,0 2.08013,1.38675 0.69338,3.46688c-1.38675,2.08013 -3.46688,0.69338 -3.46688,0.69338c-4.39311,-2.97181 -11.81374,-3.02709 -14.73988,-7.7658c-0.2301,-0.37263 -0.42496,-0.75298 -0.58971,-1.13976c-6.12323,-0.97009 -12.3272,-3.88718 -18.07423,-5.80286zM229.64139,82.26287c0.61549,-0.08683 1.23699,-0.15331 1.86147,-0.1977c-0.38588,-0.11999 -0.77321,-0.2373 -1.16122,-0.35252c-0.23307,0.18653 -0.46622,0.37026 -0.70025,0.55021zM175.15064,35.17666c-0.393,-0.02762 -0.78142,-0.06954 -1.16659,-0.12489c-0.68026,-0.02791 -1.29321,0.07229 -1.71628,0.5285c-0.09918,0.10694 -0.18432,0.23051 -0.25893,0.36612c1.74342,0.92185 3.75181,1.87505 5.63472,2.97347c-0.55822,-1.19661 -0.97471,-2.44777 -1.29902,-3.61259c-0.3831,-0.01685 -0.78845,-0.07411 -1.1939,-0.13059zM196.85325,35.96657c0.09499,0.2642 0.14675,0.54902 0.14675,0.84593c0,0.69858 -0.28653,1.33023 -0.74847,1.78385c0.18098,-0.06939 0.36364,-0.1327 0.5495,-0.18415c1.12706,-0.31202 2.26596,-0.60045 3.4232,-0.76885c-1.84604,-0.63656 -2.34437,-2.6903 -4.04964,-3.71277zM193.9688,39.36271c0.0436,-0.00573 0.08718,-0.01171 0.13074,-0.01793c0.07369,-0.01053 0.14676,-0.02356 0.21928,-0.03875c-0.11903,-0.00852 -0.23576,-0.02538 -0.34959,-0.04999c0.00028,0.03584 0.00014,0.07139 -0.00043,0.10667zM186.65932,36.05729c0.34615,0.2621 0.68941,0.52898 1.02968,0.80105c-0.23963,-0.46947 -0.49898,-0.92616 -0.80316,-1.35275c-0.07551,0.1839 -0.1506,0.36843 -0.22652,0.5517zM219.8097,28.76921c-0.27993,0.43687 -0.5296,1.92255 -0.17145,1.54712c0.07074,-0.07416 0.14124,-0.14857 0.21153,-0.22319c-0.05149,-0.44434 -0.06244,-0.89589 -0.0297,-1.34008c-0.00347,0.00538 -0.00693,0.01077 -0.01038,0.01616zM231.59838,29.56671c0.06283,0.03274 0.13234,0.06333 0.20734,0.09244c-0.35774,-0.30193 -0.62646,-0.70839 -0.92711,-1.0749c-0.04027,0.1242 -0.08999,0.24414 -0.14833,0.35897c0.27438,0.23688 0.55618,0.46096 0.8681,0.62349z" fill="#ffd966" stroke="none"/><path d="M210.73607,89.69447c1.11803,2.23607 -1.11803,3.3541 -1.11803,3.3541l-3.11803,1.26393c-5.81952,-0.05525 -11.479,-1.18772 -16.38675,-4.41987c0,0 -2.08013,-1.38675 -0.69338,-3.46688c1.38675,-2.08013 3.46688,-0.69338 3.46688,-0.69338c3.42165,2.31464 4.18308,1.97397 8.01371,2.61241c1.86841,0.3114 3.70551,0.99124 5.59954,0.96772l0.88197,-0.73607c0,0 2.23607,-1.11803 3.3541,1.11803z" fill="#ffd966" stroke="none"/><path d="M194,80.8125c0,-1.38071 1.11929,-2.5 2.5,-2.5c1.38071,0 2.5,1.11929 2.5,2.5c0,1.38071 -1.11929,2.5 -2.5,2.5c-1.38071,0 -2.5,-1.11929 -2.5,-2.5z" fill="#ffd966" stroke="none"/><path d="M201,81.8125c0,-1.38071 1.11929,-2.5 2.5,-2.5c1.38071,0 2.5,1.11929 2.5,2.5c0,1.38071 -1.11929,2.5 -2.5,2.5c-1.38071,0 -2.5,-1.11929 -2.5,-2.5z" fill="#ffd966" stroke="none"/><path d="M151.24957,219.42752c2.38498,0.74957 1.63542,3.13455 1.63542,3.13455c-0.92456,2.94177 -1.84911,5.88355 -2.77367,8.82532c2.3141,0.54559 1.84014,2.91541 1.84014,2.91541l-0.01942,0.0971c-0.08364,0.41481 -0.16641,0.8119 -0.24908,1.1932c0.20193,0.36072 0.31705,0.77662 0.31705,1.21941c0,0.09162 -0.00493,0.18209 -0.01454,0.27116l-0.39802,4.14931c-0.35583,3.70939 -0.7842,7.38208 -1.28138,11.045c4.14222,-1.0806 5.08945,0.07246 5.42499,2.36693c1.60106,0.29134 3.22255,0.53879 4.9243,0.67243c4.88412,0.38356 9.94905,-0.00483 14.84466,-0.00483c0,0 2.22872,0 2.47751,2.10433c1.67174,-0.39258 3.20216,-0.24316 5.29026,1.6279c0.09596,0.08598 0.18412,0.17772 0.26542,0.27446c0.75761,-0.00479 1.70646,-0.00672 2.57329,-0.00736c0.33217,-0.05636 0.6646,-0.06574 0.99768,-0.00024c0.71881,0.00015 1.26267,0.0009 1.39585,0.0009h3c1.38071,0 2.5,1.11929 2.5,2.5c0,1.38071 -1.11929,2.5 -2.5,2.5h-4l0,-0.02692c-0.39658,-0.01909 -0.79369,-0.04556 -1.1906,-0.06999c-0.29872,0.07763 -0.59749,0.15483 -0.89654,0.23217c0.38589,0.97244 0.72851,1.95782 0.52027,2.93912c-0.28782,1.35631 -1.73517,2.16519 -2.66536,3.19338c-2.96807,3.28079 -5.36165,4.66195 -9.76777,4.73223c-2.19959,0.03509 -4.42295,-0.35145 -6.59954,-0.03228c-1.04294,0.15293 -1.95602,0.85438 -3,1c-3.31385,0.46225 -8.45458,0.5397 -11.80091,0c-1.04064,-0.16784 -1.96025,-0.82671 -3,-1c-0.95322,-0.15887 -1.94702,0.15692 -2.9006,0.01637l-1.35613,3.39032c-0.35452,0.94948 -1.26971,1.62559 -2.34282,1.62559c-1.33788,0 -2.4303,-1.05091 -2.49679,-2.37227l-0.03725,-0.642c-1.49839,-0.14334 -2.80416,-1.6421 -3.5539,-3.075c-0.28222,0.04951 -0.58571,0.07991 -0.91205,0.08927c-2.75034,0.07892 -4.70311,-3.5296 -5.22339,-6.27549c-2.32083,-1.11948 -4.66057,-2.42097 -5.90324,-4.91018c-0.7534,-1.50915 -1.58617,-3.2253 -1.3065,-4.88871c0.17121,-1.01829 0.89175,-2.05021 1.87959,-2.99605c-0.7364,-0.16103 -1.94647,-0.69027 -1.94647,-2.42957c0,-2.5 2.5,-2.5 2.5,-2.5l3.40046,0.03228c0.67519,0.22506 1.35788,0.42376 2.04682,0.60048c0.38736,-1.40885 0.89503,-2.68592 1.52462,-3.59454c0.87896,-1.26851 2.97525,-1.34685 3.79204,-2.65626c0.09733,-0.15603 0.14939,-0.32188 0.16967,-0.4949c-0.45409,0.46596 -1.08853,0.75532 -1.79056,0.75532c-1.38071,0 -2.5,-1.11929 -2.5,-2.5c0,-0.34826 0.07121,-0.67989 0.19986,-0.98112l1.8154,-4.53849c1.96186,-5.89406 3.71494,-13.03489 7.58163,-18.04547c0.01801,-0.02334 0.03608,-0.04662 0.05422,-0.06985l-0.01037,-0.00622l2.5489,-4.24817c0.43183,-0.74893 1.24069,-1.25305 2.16731,-1.25305c1.38071,0 2.5,1.11929 2.5,2.5l0,3c0,0.31756 0.0008,0.63562 0.00212,0.95412c0.49133,-0.40149 1.21664,-0.66307 2.24745,-0.3391zM143.57984,233.35051c0.35552,-2.62635 0.44774,-5.29636 0.45837,-7.96172c-0.60019,1.12042 -1.26674,2.26343 -1.86865,3.56288c0.49683,0.44606 0.81403,1.0882 0.82982,1.80466l0.03928,1.53193zM143.48534,252.67251c0.07305,0.00708 0.14609,0.0142 0.21911,0.02136c-0.0287,-0.18468 -0.05843,-0.36959 -0.08913,-0.55469c-0.04338,0.13177 -0.08711,0.26337 -0.13124,0.3948c0.00042,0.04618 0.00084,0.09236 0.00126,0.13854zM130.36245,261.516c0.01141,-0.03285 0.02735,-0.06492 0.04764,-0.09624c-0.23139,-1.25508 -0.36285,-2.32354 -0.38501,-2.74977c-0.01849,-0.35565 -0.02419,-0.74512 -0.01702,-1.15985c-1.37044,0.87708 -2.22628,2.02622 -1.38143,2.98803c0.49199,0.56011 1.01678,1.08263 1.56951,1.57029c0.04615,-0.18146 0.10144,-0.3656 0.16632,-0.55246zM134.99581,257.91649c-0.00032,-0.2129 -0.00056,-0.43746 -0.00067,-0.67121c-0.00547,0.22707 -0.0052,0.45009 0.00067,0.67121zM180.92137,265.67781c-0.20558,0.06215 -0.41179,0.12564 -0.6187,0.19065c0.07742,0.14603 0.14915,0.29305 0.21412,0.44082l0.11093,0.00644c0.13544,0.00682 0.26803,0.02441 0.39695,0.05194c0.02007,-0.03889 0.03446,-0.08182 0.0422,-0.12953c0.03303,-0.20362 -0.03354,-0.38612 -0.14551,-0.56031zM161.34747,271.1657c-0.11214,0.12539 -0.22326,0.25225 -0.33541,0.37763c0.69301,-0.03219 1.3888,-0.09609 2.08748,-0.19854c0.0405,-0.00594 0.081,-0.01196 0.12149,-0.01806c-0.03579,-0.16843 -0.05463,-0.34313 -0.05463,-0.52222c0,-0.07259 0.00309,-0.14446 0.00916,-0.21548c-0.85672,0.2704 -1.52979,0.48276 -1.8281,0.57667z" fill="#ff6666" stroke="none"/><path d="M233.55056,273.45224c-0.02868,-0.00283 -0.05736,-0.00569 -0.08603,-0.00859c-0.06845,0.09813 -0.08529,0.13813 0.00961,0.06645c0.02549,-0.01926 0.05096,-0.03854 0.07642,-0.05786zM220.14359,259.93283c0.06362,-0.08215 0.12522,-0.16312 0.1842,-0.24281c0.8736,-1.18038 1.92144,-2.25063 3.08031,-3.22935c-0.56189,0.06602 -1.101,0.20052 -1.59378,0.47846c-1.30838,0.73799 -1.7542,1.81449 -1.67074,2.9937zM238.5,250.3125c1.41164,0 2.93066,0.08779 4.47783,0.17044c0.90585,-1.34966 1.75854,-2.41723 2.12037,-2.69736c1.31256,-1.01617 3.32016,-1.61707 5.43336,-2.00096l4.67378,-1.60511c0.27014,-0.09991 0.56227,-0.15448 0.86714,-0.15448c1.38071,0 2.5,1.11929 2.5,2.5c0,0.48518 -0.13821,0.93808 -0.37741,1.32147l-0.13274,0.22123c1.01403,-0.33575 2.04967,-0.60936 3.13221,-0.73651c1.11008,-0.13039 2.23886,0.30363 3.34875,0.17157c1.03576,-0.12324 0.32341,-2.06092 0.48899,-3.09076c0.06491,-0.40369 2.18389,-6.64629 2.34109,-6.91387c0.47757,-0.81291 1.51364,-1.19232 2,-2c0.50212,-0.83385 0.44689,-1.91278 0.88084,-2.78405c0.53582,-1.0758 1.4583,-1.92715 2,-3c1.99644,-3.95401 2.30488,-9.48041 5.03323,-13.06549c0.05251,-0.069 0.10609,-0.137 0.16068,-0.20405l-0.02825,-0.01883l1.97849,-2.96774c0.44514,-0.68925 1.2201,-1.14551 2.10163,-1.14551c1.38071,0 2.5,1.11929 2.5,2.5v3c0,8.99971 0.03926,18.00039 0,27c-0.0064,1.46684 0.17037,2.94766 -0.03228,4.40046c-0.25772,1.84762 -2.08788,3.71297 -0.51101,5.28985c3.51743,-0.32759 5.8822,0.29763 9.34875,0.82843c1.20439,0.18442 2.56286,-0.37611 3.65125,0.17157c3.37441,1.69801 4.5308,4.68724 3.35299,8.26641c-0.39489,1.2 -1.6747,1.89244 -2.54193,2.81106c-3.88712,4.11744 -7.59803,7.03852 -12.66939,9.47802c-4.68198,2.2522 -8.80493,1.00425 -13.49883,0.22193c-0.98639,-0.1644 -2.01439,0.16905 -3,0c-2.07834,-0.35647 -3.91256,-1.71239 -6.00151,-2.00025c-2.93385,-0.40428 -5.92456,-0.18942 -8.87161,-0.48236c-3.91457,-0.39397 -7.93502,-0.20457 -11.92834,-0.13454c-1.09468,0.92305 -2.26305,1.72657 -3.54327,2.3117c-1.99677,0.91264 -4.16175,2.87947 -6.22896,2.14012c-1.82912,-0.65419 -2.22678,-3.34013 -2.50271,-5.26302c-0.02831,-0.19732 -0.04055,-0.3941 -0.03965,-0.59045c-2.28536,-0.3596 -4.80987,-0.14888 -6.79783,-1.3223c-6.10398,-3.60294 -10.44281,-13.65734 -3,-18.25325c1.99745,-1.23342 4.59619,-0.96762 6.91387,-1.34109c1.94958,-0.31416 3.73649,-1.27953 5.60989,-1.90399c0,0 0.32844,-0.10948 0.78162,-0.12473c0.3238,-0.15318 0.68579,-0.23885 1.06778,-0.23885c0.91915,0 1.72245,0.49603 2.1568,1.23501c1.33396,-0.00159 2.57384,0.00029 2.78437,0.00029zM228.54044,267.2494c-0.04874,-0.28987 -0.0731,-0.58768 -0.07598,-0.89048c-0.45779,0.58075 -1.16759,0.95359 -1.96447,0.95359c-0.02733,0 -0.05455,-0.00044 -0.08167,-0.00131c0.69454,0.09615 1.30968,-0.04177 2.12211,-0.0618z" fill="#ff6666" stroke="none"/></g></g></svg>