<svg version="1.1" xmlns="http://www.w3.org/2000/svg" xmlns:xlink="http://www.w3.org/1999/xlink" width="62.113" height="72.81" viewBox="0,0,62.113,72.81"><g transform="translate(-208.65,-143.28)"><g data-paper-data="{&quot;isPaintingLayer&quot;:true}" fill-rule="nonzero" stroke-linejoin="miter" stroke-miterlimit="10" stroke-dasharray="" stroke-dashoffset="0" style="mix-blend-mode: normal"><path d="M231.585,215.37v-21.24" fill="none" stroke="#e54529" stroke-width="1.44" stroke-linecap="round"/><path d="M240.569,215.37v-21.24" fill="none" stroke="#e54529" stroke-width="1.44" stroke-linecap="round"/><g><path d="M263.788,167.258h5.535" fill="none" stroke="#e54529" stroke-width="2.88" stroke-linecap="round"/><path d="M263.947,165.165c0,7.556 -6.034,13.681 -13.478,13.681c-7.443,0 -13.478,-6.125 -13.478,-13.681c0,-7.556 6.035,-13.681 13.478,-13.681c7.444,0 13.478,6.125 13.478,13.681" fill="#ffdb5d" stroke="none" stroke-width="1" stroke-linecap="butt"/><path d="M255.996,165.165c0,3.097 -2.475,5.609 -5.527,5.609c-3.052,0 -5.525,-2.512 -5.525,-5.609c0,-3.098 2.473,-5.609 5.525,-5.609c3.052,0 5.527,2.511 5.527,5.609" fill="#fff4e3" stroke="none" stroke-width="1" stroke-linecap="butt"/><path d="M254.075,165.165c0,2.022 -1.614,3.66 -3.606,3.66c-1.991,0 -3.606,-1.638 -3.606,-3.66c0,-2.022 1.615,-3.66 3.606,-3.66c1.992,0 3.606,1.638 3.606,3.66" fill="#17242d" stroke="none" stroke-width="1" stroke-linecap="butt"/><path d="M253.011,152.64c-2.35,0 -4.255,-1.934 -4.255,-4.32c0,-2.386 1.905,-4.32 4.255,-4.32" fill="none" stroke="#ffdb5d" stroke-width="1.44" stroke-linecap="butt"/></g><path d="M258.981,175.289c0,14.108 -11.267,25.545 -25.166,25.545c-13.898,0 -25.165,-11.437 -25.165,-25.545z" fill="#ffdb5d" stroke="none" stroke-width="1" stroke-linecap="butt"/><path d="M241.929,175.32c0,6.511 -5.2,11.79 -11.615,11.79c-6.415,0 -11.615,-5.279 -11.615,-11.79z" fill="#ffdb5d" stroke="none" stroke-width="1" stroke-linecap="butt"/><path d="M208.65,175.394v-11.19h12.49c1.972,0 3.878,0.716 5.375,2.02l10.566,9.2z" fill="#ffdb5d" stroke="none" stroke-width="1" stroke-linecap="butt"/></g></g></svg>